<?xml version="1.0" encoding="utf-8"?>
<!-- Generator: Adobe Illustrator 25.3.1, SVG Export Plug-In . SVG Version: 6.00 Build 0)  -->
<svg version="1.1" id="Layer_1" xmlns="http://www.w3.org/2000/svg" xmlns:xlink="http://www.w3.org/1999/xlink" x="0px" y="0px"
	 viewBox="0 0 714.42 384" style="enable-background:new 0 0 714.42 384;" xml:space="preserve">
<style type="text/css">
	.st0{fill:#FFFFFF;}
</style>
<g>
	<path class="st0" d="M60.68,295.2c-1.16-0.1-2.26-0.15-3.29-0.15s-2.06,0-3.08,0s-2.04,0-3.08,0c-1.04,0-2.06,0.05-3.08,0.15
		c-0.77-2.41-1.57-4.87-2.39-7.38c-0.82-2.51-1.69-5.02-2.61-7.53c-1.54-0.05-3.09-0.08-4.63-0.11c-1.55-0.02-3.09-0.04-4.63-0.04
		c-1.26,0-2.51,0.01-3.77,0.04c-1.26,0.03-2.51,0.06-3.77,0.11c-0.97,2.51-1.86,5.02-2.68,7.53c-0.82,2.51-1.57,4.97-2.25,7.38
		c-0.58-0.1-1.15-0.15-1.7-0.15c-0.56,0-1.12,0-1.7,0c-0.58,0-1.16,0-1.74,0c-0.58,0-1.21,0.05-1.88,0.15
		c0.58-1.28,1.35-3.05,2.32-5.31c0.96-2.26,2.03-4.82,3.19-7.67c1.16-2.85,2.4-5.91,3.73-9.18c1.33-3.27,2.65-6.58,3.98-9.92
		c1.33-3.34,2.63-6.64,3.91-9.89c1.28-3.25,2.45-6.27,3.51-9.07c0.48,0.1,0.94,0.18,1.38,0.26c0.43,0.07,0.89,0.11,1.38,0.11
		c0.48,0,0.94-0.04,1.38-0.11c0.43-0.07,0.89-0.16,1.38-0.26c1.54,4.18,3.2,8.66,4.96,13.43c1.76,4.77,3.54,9.46,5.32,14.05
		c1.79,4.6,3.52,8.96,5.21,13.1C57.73,288.85,59.28,292.35,60.68,295.2z M35.04,258.38c-1.26,2.95-2.44,5.87-3.55,8.74
		c-1.11,2.88-2.2,5.82-3.26,8.82h13.25c-1.06-3-2.11-5.94-3.15-8.82C37.3,264.25,36.2,261.34,35.04,258.38z"/>
	<path class="st0" d="M85.47,295.97c-2.58,0-4.98-0.28-7.21-0.83c-2.23-0.55-4.17-1.47-5.82-2.77c-1.65-1.29-2.95-2.95-3.89-4.98
		c-0.95-2.03-1.42-4.5-1.42-7.41c0-1.64,0.01-3.1,0.03-4.4c0.02-1.29,0.03-2.49,0.03-3.6s0.01-2.17,0.03-3.2
		c0.02-1.02,0.03-2.09,0.03-3.2c0-3.32-0.02-6-0.06-8.05c-0.04-2.05-0.1-3.59-0.18-4.61c0.8,0.08,1.63,0.15,2.47,0.22
		s1.67,0.09,2.47,0.09s1.63-0.03,2.47-0.09c0.84-0.06,1.67-0.13,2.47-0.22c-0.4,3.98-0.64,7.68-0.72,11.1
		c-0.08,3.42-0.12,6.9-0.12,10.42c0,3.73,0.26,6.74,0.78,9.04c0.52,2.3,1.3,4.07,2.32,5.32c1.03,1.25,2.28,2.08,3.77,2.49
		c1.49,0.41,3.22,0.61,5.19,0.61c2.41,0,4.3-0.61,5.67-1.84c1.37-1.23,2.4-2.87,3.11-4.92c0.7-2.05,1.14-4.4,1.3-7.04
		c0.16-2.64,0.24-5.4,0.24-8.27c0-2.83-0.04-5.65-0.12-8.45c-0.08-2.81-0.2-5.63-0.36-8.45c0.56,0.08,1.11,0.15,1.63,0.22
		c0.52,0.06,1,0.09,1.45,0.09c0.52,0,1.03-0.03,1.51-0.09c0.48-0.06,0.99-0.13,1.51-0.22c-0.08,0.9-0.16,2.11-0.24,3.63
		c-0.08,1.52-0.16,3.27-0.24,5.26c-0.08,1.99-0.15,4.18-0.21,6.58c-0.06,2.4-0.09,4.93-0.09,7.59c0,7.13-1.51,12.25-4.53,15.34
		C95.72,294.43,91.3,295.97,85.47,295.97z"/>
	<path class="st0" d="M124.51,255.95c-1.85,0-3.36,0.55-4.53,1.66s-1.75,2.4-1.75,3.87c0,1.52,0.45,2.76,1.36,3.72
		s2.04,1.83,3.41,2.61c1.37,0.78,2.84,1.53,4.4,2.24c1.57,0.72,3.04,1.6,4.41,2.64c1.37,1.04,2.5,2.32,3.41,3.81
		c0.91,1.5,1.36,3.41,1.36,5.75c0,2.05-0.38,3.92-1.15,5.62c-0.76,1.7-1.85,3.16-3.26,4.37c-1.41,1.21-3.09,2.13-5.04,2.77
		c-1.95,0.63-4.13,0.95-6.55,0.95c-2.17,0-4.11-0.24-5.82-0.71c-1.71-0.47-3.01-1.05-3.89-1.75c0.4-1.43,0.74-2.75,1.03-3.93
		c0.28-1.19,0.52-2.48,0.72-3.87h1.15c0.16,0.9,0.46,1.75,0.91,2.55c0.44,0.8,1,1.51,1.69,2.12c0.68,0.62,1.51,1.1,2.47,1.45
		c0.97,0.35,2.05,0.52,3.26,0.52c2.41,0,4.19-0.62,5.34-1.84s1.72-2.71,1.72-4.43c0-1.56-0.44-2.83-1.33-3.81
		c-0.89-0.98-1.99-1.85-3.32-2.61c-1.33-0.76-2.78-1.5-4.34-2.21c-1.57-0.72-3.02-1.59-4.34-2.61c-1.33-1.02-2.43-2.28-3.32-3.78
		c-0.89-1.5-1.33-3.41-1.33-5.75c0-2.13,0.37-4.02,1.12-5.66c0.74-1.64,1.74-3.01,2.99-4.12c1.25-1.11,2.68-1.95,4.31-2.52
		c1.63-0.57,3.35-0.86,5.16-0.86c2.17,0,4.07,0.27,5.7,0.8c1.63,0.53,3.03,1.27,4.19,2.21c-0.36,0.94-0.67,1.85-0.94,2.74
		c-0.26,0.88-0.59,2-1,3.35h-0.91C130.52,257.71,128.09,255.95,124.51,255.95z"/>
	<path class="st0" d="M151.27,259.7c-0.02-0.98-0.07-1.7-0.15-2.15c-0.6,0-1.35,0.02-2.23,0.06c-0.89,0.04-1.83,0.09-2.84,0.15
		c-1.01,0.06-2.03,0.14-3.08,0.25c-1.05,0.1-2.01,0.21-2.9,0.34c0.08-0.45,0.15-0.9,0.21-1.35c0.06-0.45,0.09-0.9,0.09-1.35
		c0-0.45-0.03-0.9-0.09-1.35c-0.06-0.45-0.13-0.9-0.21-1.35c1.37,0.04,2.6,0.08,3.71,0.12c1.11,0.04,2.23,0.07,3.38,0.09
		s2.39,0.04,3.74,0.06c1.35,0.02,2.97,0.03,4.86,0.03c1.89,0,3.51-0.01,4.86-0.03c1.35-0.02,2.58-0.04,3.71-0.06
		c1.13-0.02,2.22-0.05,3.29-0.09c1.07-0.04,2.22-0.08,3.47-0.12c-0.08,0.45-0.15,0.9-0.21,1.35c-0.06,0.45-0.09,0.9-0.09,1.35
		c0,0.45,0.03,0.9,0.09,1.35c0.06,0.45,0.13,0.9,0.21,1.35c-0.8-0.12-1.71-0.24-2.71-0.34c-1.01-0.1-2-0.18-2.99-0.25
		c-0.99-0.06-1.92-0.11-2.81-0.15c-0.89-0.04-1.63-0.06-2.23-0.06c-0.04,0.21-0.07,0.49-0.09,0.86c-0.02,0.37-0.03,0.8-0.03,1.29
		v3.26v15.37c0,3.4,0.04,6.42,0.12,9.07c0.08,2.64,0.2,5.24,0.36,7.78c-0.68-0.08-1.43-0.12-2.23-0.12s-1.71,0-2.71,0
		c-1.01,0-1.91,0-2.72,0s-1.55,0.04-2.23,0.12c0.16-2.54,0.28-5.13,0.36-7.78c0.08-2.64,0.12-5.67,0.12-9.07v-15.37
		C151.3,261.77,151.29,260.68,151.27,259.7z"/>
	<path class="st0" d="M186.66,275.81v2.52c0,3.4,0.04,6.42,0.12,9.07c0.08,2.64,0.2,5.24,0.36,7.78c-0.68-0.08-1.43-0.12-2.23-0.12
		s-1.71,0-2.71,0c-1.01,0-1.91,0-2.72,0s-1.55,0.04-2.23,0.12c0.16-2.54,0.28-5.13,0.36-7.78c0.08-2.64,0.12-5.67,0.12-9.07v-8.36
		c0-3.4-0.04-6.42-0.12-9.07c-0.08-2.64-0.2-5.3-0.36-7.96c0.68,0.08,1.43,0.15,2.23,0.22s1.71,0.09,2.72,0.09
		c1.09,0,2.32-0.05,3.71-0.15s3.11-0.15,5.16-0.15c1.53,0,2.84,0.04,3.92,0.12c1.09,0.08,2.02,0.21,2.81,0.37
		c0.78,0.16,1.47,0.38,2.05,0.65c0.58,0.27,1.14,0.58,1.66,0.95c1.21,0.9,2.16,2.02,2.87,3.35c0.7,1.33,1.06,2.92,1.06,4.76
		c0,2.99-0.81,5.43-2.41,7.32c-1.61,1.89-3.92,3.22-6.94,4c1.93,3.48,4,6.96,6.21,10.42c2.21,3.46,4.42,6.9,6.64,10.3
		c-0.93-0.08-1.83-0.12-2.71-0.12c-0.89,0-1.79,0-2.72,0c-0.93,0-1.84,0-2.75,0s-1.82,0.04-2.75,0.12l-10.8-19.37H186.66z
		 M196.19,264.5c0-1.8-0.18-3.24-0.54-4.3c-0.36-1.07-0.92-1.88-1.66-2.43c-0.74-0.55-1.71-0.91-2.9-1.08
		c-1.19-0.16-2.61-0.25-4.25-0.25c-0.12,5.57-0.18,11.15-0.18,16.72c0.24,0.04,0.47,0.07,0.69,0.09c0.22,0.02,0.43,0.03,0.63,0.03
		c2.66,0,4.69-0.73,6.09-2.18C195.49,269.65,196.19,267.45,196.19,264.5z"/>
	<path class="st0" d="M248.63,295.17c-0.96-0.08-1.88-0.12-2.75-0.12c-0.87,0-1.72,0-2.56,0s-1.7,0-2.56,0
		c-0.87,0-1.72,0.04-2.56,0.12c-0.64-2.01-1.31-4.06-1.99-6.15c-0.68-2.09-1.41-4.18-2.17-6.27c-1.29-0.04-2.57-0.07-3.86-0.09
		c-1.29-0.02-2.58-0.03-3.86-0.03c-1.05,0-2.09,0.01-3.14,0.03s-2.09,0.05-3.14,0.09c-0.8,2.09-1.55,4.18-2.23,6.27
		c-0.68,2.09-1.31,4.14-1.87,6.15c-0.48-0.08-0.96-0.12-1.42-0.12c-0.46,0-0.94,0-1.42,0c-0.48,0-0.97,0-1.45,0
		c-0.48,0-1.01,0.04-1.57,0.12c0.48-1.07,1.13-2.54,1.93-4.43c0.8-1.88,1.69-4.02,2.66-6.39c0.97-2.38,2-4.93,3.11-7.65
		c1.11-2.72,2.21-5.48,3.32-8.27c1.11-2.79,2.19-5.53,3.26-8.24c1.07-2.71,2.04-5.23,2.93-7.56c0.4,0.08,0.78,0.15,1.15,0.21
		s0.74,0.09,1.15,0.09c0.4,0,0.78-0.03,1.15-0.09s0.74-0.13,1.15-0.21c1.29,3.48,2.66,7.21,4.13,11.19
		c1.47,3.98,2.95,7.88,4.43,11.71c1.49,3.83,2.94,7.47,4.34,10.91C246.17,289.89,247.46,292.8,248.63,295.17z M227.27,264.5
		c-1.05,2.46-2.03,4.89-2.96,7.29c-0.93,2.4-1.83,4.85-2.71,7.35h11.04c-0.88-2.5-1.76-4.95-2.62-7.35S228.23,266.95,227.27,264.5z"
		/>
	<path class="st0" d="M254.72,260.9c-0.08-2.64-0.2-5.3-0.36-7.96c0.68,0.08,1.43,0.15,2.23,0.22c0.8,0.06,1.71,0.09,2.72,0.09
		c1,0,1.91-0.03,2.71-0.09s1.55-0.13,2.23-0.22c-0.16,2.67-0.28,5.32-0.36,7.96c-0.08,2.64-0.12,5.67-0.12,9.07v8.36
		c0,2.34,0.01,4.59,0.03,6.76c0.02,2.17,0.05,4.06,0.09,5.66c2.29,0,4.59-0.06,6.88-0.18s4.61-0.33,6.94-0.61
		c-0.08,0.45-0.14,0.86-0.18,1.23c-0.04,0.37-0.06,0.88-0.06,1.54c0,0.66,0.02,1.17,0.06,1.54c0.04,0.37,0.1,0.68,0.18,0.92
		c-1.09-0.04-2.42-0.07-4.01-0.09s-3.77-0.03-6.55-0.03c-2.45,0-4.45,0-5.97,0c-1.49,0-2.69,0-3.59,0c-0.91,0-1.59,0.01-2.05,0.03
		c-0.46,0.02-0.86,0.05-1.18,0.09c0.16-2.54,0.28-5.13,0.36-7.78c0.08-2.64,0.12-5.67,0.12-9.07v-8.36
		C254.84,266.57,254.8,263.54,254.72,260.9z"/>
	<path class="st0" d="M285.13,260.9c-0.08-2.64-0.2-5.3-0.36-7.96c0.68,0.08,1.43,0.15,2.23,0.22s1.71,0.09,2.72,0.09
		c1,0,1.91-0.03,2.71-0.09s1.55-0.13,2.23-0.22c-0.16,2.67-0.28,5.32-0.36,7.96c-0.08,2.64-0.12,5.67-0.12,9.07v8.36
		c0,3.4,0.04,6.42,0.12,9.07c0.08,2.64,0.2,5.24,0.36,7.78c-0.68-0.08-1.43-0.12-2.23-0.12s-1.71,0-2.71,0c-1.01,0-1.91,0-2.72,0
		s-1.55,0.04-2.23,0.12c0.16-2.54,0.28-5.13,0.36-7.78c0.08-2.64,0.12-5.67,0.12-9.07v-8.36
		C285.25,266.57,285.21,263.54,285.13,260.9z"/>
	<path class="st0" d="M339.14,295.17c-0.96-0.08-1.88-0.12-2.75-0.12c-0.87,0-1.72,0-2.56,0s-1.7,0-2.56,0
		c-0.87,0-1.72,0.04-2.56,0.12c-0.64-2.01-1.31-4.06-1.99-6.15c-0.68-2.09-1.41-4.18-2.17-6.27c-1.29-0.04-2.57-0.07-3.86-0.09
		c-1.29-0.02-2.58-0.03-3.86-0.03c-1.05,0-2.09,0.01-3.14,0.03s-2.09,0.05-3.14,0.09c-0.8,2.09-1.55,4.18-2.23,6.27
		c-0.68,2.09-1.31,4.14-1.87,6.15c-0.48-0.08-0.96-0.12-1.42-0.12c-0.46,0-0.94,0-1.42,0c-0.48,0-0.97,0-1.45,0
		c-0.48,0-1.01,0.04-1.57,0.12c0.48-1.07,1.13-2.54,1.93-4.43c0.8-1.88,1.69-4.02,2.66-6.39c0.97-2.38,2-4.93,3.11-7.65
		c1.11-2.72,2.21-5.48,3.32-8.27c1.11-2.79,2.19-5.53,3.26-8.24c1.07-2.71,2.04-5.23,2.93-7.56c0.4,0.08,0.78,0.15,1.15,0.21
		s0.74,0.09,1.15,0.09c0.4,0,0.78-0.03,1.15-0.09s0.74-0.13,1.15-0.21c1.29,3.48,2.66,7.21,4.13,11.19
		c1.47,3.98,2.95,7.88,4.43,11.71c1.49,3.83,2.94,7.47,4.34,10.91C336.68,289.89,337.97,292.8,339.14,295.17z M317.78,264.5
		c-1.05,2.46-2.03,4.89-2.96,7.29c-0.93,2.4-1.83,4.85-2.71,7.35h11.04c-0.88-2.5-1.76-4.95-2.62-7.35S318.74,266.95,317.78,264.5z"
		/>
	<path class="st0" d="M345.9,265.17c0-2.83-0.04-5.2-0.12-7.13c-0.08-1.93-0.14-3.63-0.18-5.1c1.13,0.21,2.03,0.31,2.72,0.31
		c0.68,0,1.59-0.1,2.71-0.31c4.38,4.96,8.72,9.84,13,14.63c4.28,4.8,8.68,9.67,13.18,14.63v-5.35v-5.96c0-2.01-0.01-3.99-0.03-5.93
		c-0.02-1.95-0.04-3.74-0.06-5.38c-0.02-1.64-0.06-3.05-0.12-4.24s-0.13-1.99-0.21-2.4c1.13,0.21,2.03,0.31,2.72,0.31
		c0.68,0,1.59-0.1,2.71-0.31c-0.2,3.73-0.36,7.1-0.48,10.11c-0.12,3.01-0.22,5.85-0.3,8.51c-0.08,2.67-0.13,5.3-0.15,7.9
		c-0.02,2.6-0.03,5.38-0.03,8.33v7.38c-0.81-0.08-1.63-0.12-2.47-0.12c-0.88,0-1.67,0.04-2.35,0.12
		c-8.29-9.84-17.08-19.73-26.37-29.69c-0.04,1.19-0.07,2.38-0.09,3.57c-0.02,1.19-0.03,2.4-0.03,3.63v7.13
		c0,2.46,0.01,4.55,0.03,6.27c0.02,1.72,0.05,3.18,0.09,4.36c0.04,1.19,0.08,2.16,0.12,2.92c0.04,0.76,0.08,1.36,0.12,1.81
		c-0.48-0.08-0.97-0.12-1.45-0.12s-0.95,0-1.39,0c-0.93,0-1.85,0.04-2.78,0.12c0.08-0.33,0.18-1.5,0.3-3.5
		c0.12-2.01,0.25-4.46,0.39-7.35c0.14-2.89,0.26-6.02,0.36-9.41C345.84,271.53,345.9,268.29,345.9,265.17z"/>
	<path class="st0" d="M413.65,254.07c-0.1-3.17-0.24-6.36-0.43-9.55c0.82,0.1,1.71,0.18,2.68,0.26c0.96,0.07,2.05,0.11,3.26,0.11
		c1.21,0,2.29-0.04,3.26-0.11c0.96-0.07,1.86-0.16,2.68-0.26c-0.19,3.2-0.34,6.38-0.43,9.55c-0.1,3.17-0.15,6.8-0.15,10.88v10.03
		c0,4.08,0.05,7.71,0.15,10.88c0.1,3.17,0.24,6.28,0.43,9.33c-0.82-0.1-1.71-0.15-2.68-0.15c-0.97,0-2.05,0-3.26,0
		c-1.21,0-2.29,0-3.26,0c-0.97,0-1.86,0.05-2.68,0.15c0.19-3.05,0.34-6.16,0.43-9.33c0.1-3.17,0.15-6.8,0.15-10.88v-10.03
		C413.79,260.87,413.74,257.24,413.65,254.07z"/>
	<path class="st0" d="M437.08,265.17c0-2.83-0.04-5.2-0.12-7.13c-0.08-1.93-0.14-3.63-0.18-5.1c1.13,0.21,2.03,0.31,2.72,0.31
		c0.68,0,1.59-0.1,2.71-0.31c4.38,4.96,8.72,9.84,13,14.63c4.28,4.8,8.68,9.67,13.18,14.63v-5.35v-5.96c0-2.01-0.01-3.99-0.03-5.93
		c-0.02-1.95-0.04-3.74-0.06-5.38c-0.02-1.64-0.06-3.05-0.12-4.24s-0.13-1.99-0.21-2.4c1.13,0.21,2.03,0.31,2.72,0.31
		c0.68,0,1.59-0.1,2.71-0.31c-0.2,3.73-0.36,7.1-0.48,10.11c-0.12,3.01-0.22,5.85-0.3,8.51c-0.08,2.67-0.13,5.3-0.15,7.9
		c-0.02,2.6-0.03,5.38-0.03,8.33v7.38c-0.81-0.08-1.63-0.12-2.47-0.12c-0.88,0-1.67,0.04-2.35,0.12
		c-8.29-9.84-17.08-19.73-26.37-29.69c-0.04,1.19-0.07,2.38-0.09,3.57c-0.02,1.19-0.03,2.4-0.03,3.63v7.13
		c0,2.46,0.01,4.55,0.03,6.27c0.02,1.72,0.05,3.18,0.09,4.36c0.04,1.19,0.08,2.16,0.12,2.92c0.04,0.76,0.08,1.36,0.12,1.81
		c-0.48-0.08-0.97-0.12-1.45-0.12s-0.95,0-1.39,0c-0.93,0-1.85,0.04-2.78,0.12c0.08-0.33,0.18-1.5,0.3-3.5
		c0.12-2.01,0.25-4.46,0.39-7.35c0.14-2.89,0.26-6.02,0.36-9.41C437.03,271.53,437.08,268.29,437.08,265.17z"/>
	<path class="st0" d="M493.98,255.95c-1.85,0-3.36,0.55-4.53,1.66s-1.75,2.4-1.75,3.87c0,1.52,0.45,2.76,1.36,3.72
		s2.04,1.83,3.41,2.61c1.37,0.78,2.84,1.53,4.4,2.24c1.57,0.72,3.04,1.6,4.41,2.64c1.37,1.04,2.5,2.32,3.41,3.81
		c0.91,1.5,1.36,3.41,1.36,5.75c0,2.05-0.38,3.92-1.15,5.62c-0.76,1.7-1.85,3.16-3.26,4.37c-1.41,1.21-3.09,2.13-5.04,2.77
		c-1.95,0.63-4.13,0.95-6.55,0.95c-2.17,0-4.11-0.24-5.82-0.71c-1.71-0.47-3.01-1.05-3.89-1.75c0.4-1.43,0.74-2.75,1.03-3.93
		c0.28-1.19,0.52-2.48,0.72-3.87h1.15c0.16,0.9,0.46,1.75,0.91,2.55c0.44,0.8,1,1.51,1.69,2.12c0.68,0.62,1.51,1.1,2.47,1.45
		c0.97,0.35,2.05,0.52,3.26,0.52c2.41,0,4.19-0.62,5.34-1.84s1.72-2.71,1.72-4.43c0-1.56-0.44-2.83-1.33-3.81
		c-0.89-0.98-1.99-1.85-3.32-2.61c-1.33-0.76-2.78-1.5-4.34-2.21c-1.57-0.72-3.02-1.59-4.34-2.61c-1.33-1.02-2.43-2.28-3.32-3.78
		c-0.89-1.5-1.33-3.41-1.33-5.75c0-2.13,0.37-4.02,1.12-5.66c0.74-1.64,1.74-3.01,2.99-4.12c1.25-1.11,2.68-1.95,4.31-2.52
		c1.63-0.57,3.35-0.86,5.16-0.86c2.17,0,4.07,0.27,5.7,0.8c1.63,0.53,3.03,1.27,4.19,2.21c-0.36,0.94-0.67,1.85-0.94,2.74
		c-0.26,0.88-0.59,2-1,3.35h-0.91C500,257.71,497.56,255.95,493.98,255.95z"/>
	<path class="st0" d="M520.75,259.7c-0.02-0.98-0.07-1.7-0.15-2.15c-0.6,0-1.35,0.02-2.23,0.06c-0.89,0.04-1.83,0.09-2.84,0.15
		c-1.01,0.06-2.03,0.14-3.08,0.25c-1.05,0.1-2.01,0.21-2.9,0.34c0.08-0.45,0.15-0.9,0.21-1.35c0.06-0.45,0.09-0.9,0.09-1.35
		c0-0.45-0.03-0.9-0.09-1.35c-0.06-0.45-0.13-0.9-0.21-1.35c1.37,0.04,2.6,0.08,3.71,0.12c1.11,0.04,2.23,0.07,3.38,0.09
		s2.39,0.04,3.74,0.06c1.35,0.02,2.97,0.03,4.86,0.03c1.89,0,3.51-0.01,4.86-0.03c1.35-0.02,2.58-0.04,3.71-0.06
		c1.13-0.02,2.22-0.05,3.29-0.09c1.07-0.04,2.22-0.08,3.47-0.12c-0.08,0.45-0.15,0.9-0.21,1.35c-0.06,0.45-0.09,0.9-0.09,1.35
		c0,0.45,0.03,0.9,0.09,1.35c0.06,0.45,0.13,0.9,0.21,1.35c-0.8-0.12-1.71-0.24-2.71-0.34c-1.01-0.1-2-0.18-2.99-0.25
		c-0.99-0.06-1.92-0.11-2.81-0.15c-0.89-0.04-1.63-0.06-2.23-0.06c-0.04,0.21-0.07,0.49-0.09,0.86c-0.02,0.37-0.03,0.8-0.03,1.29
		v3.26v15.37c0,3.4,0.04,6.42,0.12,9.07c0.08,2.64,0.2,5.24,0.36,7.78c-0.68-0.08-1.43-0.12-2.23-0.12s-1.71,0-2.71,0
		c-1.01,0-1.91,0-2.72,0s-1.55,0.04-2.23,0.12c0.16-2.54,0.28-5.13,0.36-7.78c0.08-2.64,0.12-5.67,0.12-9.07v-15.37
		C520.78,261.77,520.77,260.68,520.75,259.7z"/>
	<path class="st0" d="M547.33,260.9c-0.08-2.64-0.2-5.3-0.36-7.96c0.68,0.08,1.43,0.15,2.23,0.22s1.71,0.09,2.72,0.09
		c1,0,1.91-0.03,2.71-0.09s1.55-0.13,2.23-0.22c-0.16,2.67-0.28,5.32-0.36,7.96c-0.08,2.64-0.12,5.67-0.12,9.07v8.36
		c0,3.4,0.04,6.42,0.12,9.07c0.08,2.64,0.2,5.24,0.36,7.78c-0.68-0.08-1.43-0.12-2.23-0.12s-1.71,0-2.71,0c-1.01,0-1.91,0-2.72,0
		s-1.55,0.04-2.23,0.12c0.16-2.54,0.28-5.13,0.36-7.78c0.08-2.64,0.12-5.67,0.12-9.07v-8.36
		C547.45,266.57,547.41,263.54,547.33,260.9z"/>
	<path class="st0" d="M574.39,259.7c-0.02-0.98-0.07-1.7-0.15-2.15c-0.6,0-1.35,0.02-2.23,0.06c-0.89,0.04-1.83,0.09-2.84,0.15
		c-1.01,0.06-2.03,0.14-3.08,0.25c-1.05,0.1-2.01,0.21-2.9,0.34c0.08-0.45,0.15-0.9,0.21-1.35c0.06-0.45,0.09-0.9,0.09-1.35
		c0-0.45-0.03-0.9-0.09-1.35c-0.06-0.45-0.13-0.9-0.21-1.35c1.37,0.04,2.6,0.08,3.71,0.12c1.11,0.04,2.23,0.07,3.38,0.09
		s2.39,0.04,3.74,0.06c1.35,0.02,2.97,0.03,4.86,0.03c1.89,0,3.51-0.01,4.86-0.03c1.35-0.02,2.58-0.04,3.71-0.06
		c1.13-0.02,2.22-0.05,3.29-0.09c1.07-0.04,2.22-0.08,3.47-0.12c-0.08,0.45-0.15,0.9-0.21,1.35c-0.06,0.45-0.09,0.9-0.09,1.35
		c0,0.45,0.03,0.9,0.09,1.35c0.06,0.45,0.13,0.9,0.21,1.35c-0.8-0.12-1.71-0.24-2.71-0.34c-1.01-0.1-2-0.18-2.99-0.25
		c-0.99-0.06-1.92-0.11-2.81-0.15c-0.89-0.04-1.63-0.06-2.23-0.06c-0.04,0.21-0.07,0.49-0.09,0.86c-0.02,0.37-0.03,0.8-0.03,1.29
		v3.26v15.37c0,3.4,0.04,6.42,0.12,9.07c0.08,2.64,0.2,5.24,0.36,7.78c-0.68-0.08-1.43-0.12-2.23-0.12s-1.71,0-2.71,0
		c-1.01,0-1.91,0-2.72,0s-1.55,0.04-2.23,0.12c0.16-2.54,0.28-5.13,0.36-7.78c0.08-2.64,0.12-5.67,0.12-9.07v-15.37
		C574.42,261.77,574.41,260.68,574.39,259.7z"/>
	<path class="st0" d="M619.25,295.97c-2.58,0-4.98-0.28-7.21-0.83c-2.23-0.55-4.17-1.47-5.82-2.77c-1.65-1.29-2.95-2.95-3.89-4.98
		c-0.95-2.03-1.42-4.5-1.42-7.41c0-1.64,0.01-3.1,0.03-4.4c0.02-1.29,0.03-2.49,0.03-3.6s0.01-2.17,0.03-3.2
		c0.02-1.02,0.03-2.09,0.03-3.2c0-3.32-0.02-6-0.06-8.05c-0.04-2.05-0.1-3.59-0.18-4.61c0.8,0.08,1.63,0.15,2.47,0.22
		s1.67,0.09,2.47,0.09s1.63-0.03,2.47-0.09c0.84-0.06,1.67-0.13,2.47-0.22c-0.4,3.98-0.64,7.68-0.72,11.1
		c-0.08,3.42-0.12,6.9-0.12,10.42c0,3.73,0.26,6.74,0.78,9.04c0.52,2.3,1.3,4.07,2.32,5.32c1.03,1.25,2.28,2.08,3.77,2.49
		c1.49,0.41,3.22,0.61,5.19,0.61c2.41,0,4.3-0.61,5.67-1.84c1.37-1.23,2.4-2.87,3.11-4.92c0.7-2.05,1.14-4.4,1.3-7.04
		c0.16-2.64,0.24-5.4,0.24-8.27c0-2.83-0.04-5.65-0.12-8.45c-0.08-2.81-0.2-5.63-0.36-8.45c0.56,0.08,1.11,0.15,1.63,0.22
		c0.52,0.06,1,0.09,1.45,0.09c0.52,0,1.03-0.03,1.51-0.09c0.48-0.06,0.99-0.13,1.51-0.22c-0.08,0.9-0.16,2.11-0.24,3.63
		c-0.08,1.52-0.16,3.27-0.24,5.26c-0.08,1.99-0.15,4.18-0.21,6.58c-0.06,2.4-0.09,4.93-0.09,7.59c0,7.13-1.51,12.25-4.53,15.34
		C629.51,294.43,625.08,295.97,619.25,295.97z"/>
	<path class="st0" d="M654.88,259.7c-0.02-0.98-0.07-1.7-0.15-2.15c-0.6,0-1.35,0.02-2.23,0.06c-0.89,0.04-1.83,0.09-2.84,0.15
		c-1.01,0.06-2.03,0.14-3.08,0.25c-1.05,0.1-2.01,0.21-2.9,0.34c0.08-0.45,0.15-0.9,0.21-1.35c0.06-0.45,0.09-0.9,0.09-1.35
		c0-0.45-0.03-0.9-0.09-1.35c-0.06-0.45-0.13-0.9-0.21-1.35c1.37,0.04,2.6,0.08,3.71,0.12c1.11,0.04,2.23,0.07,3.38,0.09
		s2.39,0.04,3.74,0.06c1.35,0.02,2.97,0.03,4.86,0.03c1.89,0,3.51-0.01,4.86-0.03c1.35-0.02,2.58-0.04,3.71-0.06
		c1.13-0.02,2.22-0.05,3.29-0.09c1.07-0.04,2.22-0.08,3.47-0.12c-0.08,0.45-0.15,0.9-0.21,1.35c-0.06,0.45-0.09,0.9-0.09,1.35
		c0,0.45,0.03,0.9,0.09,1.35c0.06,0.45,0.13,0.9,0.21,1.35c-0.8-0.12-1.71-0.24-2.71-0.34c-1.01-0.1-2-0.18-2.99-0.25
		c-0.99-0.06-1.92-0.11-2.81-0.15c-0.89-0.04-1.63-0.06-2.23-0.06c-0.04,0.21-0.07,0.49-0.09,0.86c-0.02,0.37-0.03,0.8-0.03,1.29
		v3.26v15.37c0,3.4,0.04,6.42,0.12,9.07c0.08,2.64,0.2,5.24,0.36,7.78c-0.68-0.08-1.43-0.12-2.23-0.12s-1.71,0-2.71,0
		c-1.01,0-1.91,0-2.72,0s-1.55,0.04-2.23,0.12c0.16-2.54,0.28-5.13,0.36-7.78c0.08-2.64,0.12-5.67,0.12-9.07v-15.37
		C654.91,261.77,654.9,260.68,654.88,259.7z"/>
	<path class="st0" d="M680.68,260.9c-0.08-2.64-0.2-5.3-0.36-7.96c1.81,0.04,3.6,0.1,5.37,0.18c1.77,0.08,3.56,0.12,5.37,0.12
		c2.98,0,5.62-0.03,7.94-0.09c2.31-0.06,3.87-0.13,4.68-0.22c-0.16,0.66-0.24,1.52-0.24,2.58c0,0.66,0.02,1.17,0.06,1.54
		c0.04,0.37,0.1,0.78,0.18,1.23c-1.17-0.08-2.44-0.16-3.83-0.25c-1.39-0.08-2.74-0.16-4.04-0.25c-1.31-0.08-2.48-0.14-3.53-0.18
		c-1.05-0.04-1.79-0.06-2.23-0.06c-0.16,2.25-0.25,4.49-0.27,6.7c-0.02,2.21-0.03,4.45-0.03,6.7c2.61-0.04,4.98-0.1,7.09-0.18
		c2.11-0.08,4.31-0.18,6.61-0.31c-0.12,0.7-0.2,1.23-0.24,1.6c-0.04,0.37-0.06,0.76-0.06,1.17c0,0.33,0.03,0.67,0.09,1.01
		c0.06,0.35,0.13,0.85,0.21,1.51c-4.59-0.37-9.15-0.55-13.7-0.55c0,1.31-0.01,2.62-0.03,3.93c-0.02,1.31-0.03,2.62-0.03,3.93
		c0,2.67,0.06,5.23,0.18,7.68c2.29,0,4.59-0.06,6.88-0.18c2.29-0.12,4.61-0.33,6.94-0.61c-0.08,0.45-0.14,0.86-0.18,1.23
		c-0.04,0.37-0.06,0.88-0.06,1.54c0,0.66,0.02,1.17,0.06,1.54c0.04,0.37,0.1,0.68,0.18,0.92c-1.09-0.04-2.42-0.07-4.01-0.09
		s-3.77-0.03-6.55-0.03c-2.45,0-4.45,0-5.97,0c-1.49,0-2.69,0-3.59,0c-0.91,0-1.59,0.01-2.05,0.03c-0.46,0.02-0.86,0.05-1.18,0.09
		c0.16-2.54,0.28-5.13,0.36-7.78c0.08-2.64,0.12-5.67,0.12-9.07v-8.36C680.8,266.57,680.76,263.54,680.68,260.9z"/>
	<path class="st0" d="M61.83,347.92c0-3.03,0.55-5.88,1.66-8.55c1.11-2.66,2.66-5,4.68-7.01c2.01-2.01,4.45-3.59,7.3-4.73
		c2.86-1.15,6.03-1.72,9.53-1.72c3.22,0,6.21,0.45,8.99,1.35c2.78,0.9,5.19,2.25,7.24,4.06c2.05,1.8,3.67,4.09,4.86,6.85
		s1.78,5.99,1.78,9.68c0,3.07-0.57,5.94-1.72,8.61c-1.15,2.67-2.74,4.99-4.77,6.98s-4.46,3.53-7.27,4.64
		c-2.82,1.11-5.91,1.66-9.29,1.66c-3.18,0-6.17-0.4-8.96-1.2c-2.8-0.8-5.23-2.09-7.3-3.87c-2.07-1.78-3.71-4.06-4.92-6.82
		C62.43,355.08,61.83,351.77,61.83,347.92z M97.97,346.57c0-2.66-0.32-5.05-0.96-7.16c-0.64-2.11-1.54-3.9-2.69-5.38
		s-2.53-2.61-4.16-3.41c-1.63-0.8-3.41-1.2-5.34-1.2c-2.05,0-3.89,0.5-5.52,1.51c-1.63,1-3.01,2.37-4.13,4.09
		c-1.13,1.72-1.98,3.74-2.56,6.06c-0.58,2.32-0.88,4.79-0.88,7.41c0,3.28,0.34,6.05,1.03,8.3c0.68,2.25,1.61,4.07,2.78,5.44
		c1.17,1.37,2.51,2.37,4.04,2.98c1.53,0.61,3.14,0.92,4.83,0.92c1.81,0,3.54-0.39,5.19-1.17c1.65-0.78,3.09-1.97,4.31-3.57
		c1.23-1.6,2.21-3.63,2.96-6.09S97.97,349.93,97.97,346.57z"/>
	<path class="st0" d="M114.68,334.67c-0.08-2.64-0.2-5.3-0.36-7.96c1.81,0.04,3.6,0.1,5.37,0.18c1.77,0.08,3.56,0.12,5.37,0.12
		c2.98,0,5.62-0.03,7.94-0.09c2.31-0.06,3.87-0.13,4.68-0.22c-0.16,0.66-0.24,1.52-0.24,2.58c0,0.66,0.02,1.17,0.06,1.54
		c0.04,0.37,0.1,0.78,0.18,1.23c-1.17-0.08-2.44-0.16-3.83-0.25c-1.39-0.08-2.74-0.16-4.04-0.25c-1.31-0.08-2.48-0.14-3.53-0.18
		c-1.05-0.04-1.79-0.06-2.23-0.06c-0.16,2.25-0.25,4.49-0.27,6.7c-0.02,2.21-0.03,4.45-0.03,6.7c2.61-0.04,4.98-0.1,7.09-0.18
		c2.11-0.08,4.31-0.18,6.61-0.31c-0.12,0.7-0.2,1.23-0.24,1.6c-0.04,0.37-0.06,0.76-0.06,1.17c0,0.33,0.03,0.67,0.09,1.01
		c0.06,0.35,0.13,0.85,0.21,1.51c-4.59-0.37-9.15-0.55-13.7-0.55v3.13c0,3.4,0.04,6.42,0.12,9.07c0.08,2.64,0.2,5.24,0.36,7.78
		c-0.68-0.08-1.43-0.12-2.23-0.12s-1.71,0-2.71,0c-1.01,0-1.91,0-2.72,0s-1.55,0.04-2.23,0.12c0.16-2.54,0.28-5.13,0.36-7.78
		c0.08-2.64,0.12-5.67,0.12-9.07v-8.36C114.8,340.34,114.76,337.32,114.68,334.67z"/>
	<path class="st0" d="M167.42,352.45c-0.39,5.51-0.77,11.02-1.16,16.53c-0.58-0.1-1.16-0.15-1.74-0.15c-0.58,0-1.13,0-1.67,0
		c-0.58,0-1.15,0-1.7,0c-0.56,0-1.12,0.05-1.7,0.15c1.54-8.46,2.92-16.87,4.13-25.23c1.21-8.36,2.32-16.84,3.33-25.45
		c0.53,0.1,1.03,0.18,1.48,0.26s0.95,0.11,1.48,0.11c0.43,0,0.89-0.04,1.38-0.11c0.48-0.07,0.99-0.16,1.52-0.26
		c1.3,2.95,2.67,5.95,4.09,9c1.42,3.05,2.85,6.09,4.27,9.11s2.85,5.99,4.27,8.89c1.42,2.9,2.79,5.66,4.09,8.26
		c2.9-5.51,5.78-11.27,8.65-17.3c2.87-6.02,5.61-12.01,8.22-17.96c1.21,0.25,2.25,0.37,3.11,0.37c0.82,0,1.83-0.12,3.04-0.37
		c0.48,4.23,1,8.78,1.56,13.65c0.55,4.87,1.1,9.63,1.63,14.28c0.53,4.65,1.06,8.99,1.59,13.02c0.53,4.03,1.01,7.28,1.45,9.74
		c-0.97-0.1-1.94-0.15-2.93-0.15c-0.99,0-1.97,0-2.93,0c-0.97,0-1.96,0-2.97,0s-2.03,0.05-3.04,0.15
		c-0.24-5.07-0.64-10.55-1.2-16.45c-0.56-5.9-1.12-11.75-1.7-17.56h-0.15c-2.75,5.8-5.46,11.51-8.11,17.12
		c-2.66,5.61-5.29,11.24-7.89,16.89c-0.24-0.05-0.47-0.09-0.69-0.11c-0.22-0.03-0.45-0.04-0.69-0.04c-0.24,0-0.47,0.01-0.69,0.04
		c-0.22,0.02-0.45,0.06-0.69,0.11c-2.61-5.51-5.2-11.02-7.78-16.53c-2.58-5.51-5.25-11.09-8-16.75h-0.14
		C168.39,341.36,167.81,346.94,167.42,352.45z"/>
	<path class="st0" d="M260.7,368.95c-0.96-0.08-1.88-0.12-2.75-0.12c-0.87,0-1.72,0-2.56,0c-0.84,0-1.7,0-2.56,0
		c-0.87,0-1.72,0.04-2.56,0.12c-0.64-2.01-1.31-4.06-1.99-6.15c-0.68-2.09-1.41-4.18-2.17-6.27c-1.29-0.04-2.57-0.07-3.86-0.09
		c-1.29-0.02-2.58-0.03-3.86-0.03c-1.05,0-2.09,0.01-3.14,0.03s-2.09,0.05-3.14,0.09c-0.8,2.09-1.55,4.18-2.23,6.27
		c-0.68,2.09-1.31,4.14-1.87,6.15c-0.48-0.08-0.96-0.12-1.42-0.12c-0.46,0-0.94,0-1.42,0c-0.48,0-0.97,0-1.45,0
		c-0.48,0-1.01,0.04-1.57,0.12c0.48-1.07,1.13-2.54,1.93-4.43c0.8-1.88,1.69-4.02,2.66-6.39c0.97-2.38,2-4.93,3.11-7.65
		c1.11-2.72,2.21-5.48,3.32-8.27c1.11-2.79,2.19-5.53,3.26-8.24c1.07-2.71,2.04-5.23,2.93-7.56c0.4,0.08,0.78,0.15,1.15,0.21
		s0.74,0.09,1.15,0.09c0.4,0,0.78-0.03,1.15-0.09s0.74-0.13,1.15-0.21c1.29,3.48,2.66,7.21,4.13,11.19
		c1.47,3.98,2.95,7.88,4.43,11.71c1.49,3.83,2.94,7.47,4.34,10.91C258.24,363.66,259.53,366.57,260.7,368.95z M239.33,338.27
		c-1.05,2.46-2.03,4.89-2.96,7.29c-0.93,2.4-1.83,4.85-2.71,7.35h11.04c-0.88-2.5-1.76-4.95-2.62-7.35S240.3,340.73,239.33,338.27z"
		/>
	<path class="st0" d="M275.84,349.58v2.52c0,3.4,0.04,6.42,0.12,9.07c0.08,2.64,0.2,5.24,0.36,7.78c-0.68-0.08-1.43-0.12-2.23-0.12
		s-1.71,0-2.71,0c-1.01,0-1.91,0-2.72,0s-1.55,0.04-2.23,0.12c0.16-2.54,0.28-5.13,0.36-7.78c0.08-2.64,0.12-5.67,0.12-9.07v-8.36
		c0-3.4-0.04-6.42-0.12-9.07c-0.08-2.64-0.2-5.3-0.36-7.96c0.68,0.08,1.43,0.15,2.23,0.22s1.71,0.09,2.72,0.09
		c1.09,0,2.32-0.05,3.71-0.15s3.11-0.15,5.16-0.15c1.53,0,2.84,0.04,3.92,0.12c1.09,0.08,2.02,0.21,2.81,0.37
		c0.78,0.16,1.47,0.38,2.05,0.65c0.58,0.27,1.14,0.58,1.66,0.95c1.21,0.9,2.16,2.02,2.87,3.35c0.7,1.33,1.06,2.92,1.06,4.76
		c0,2.99-0.81,5.43-2.41,7.32c-1.61,1.89-3.92,3.22-6.94,4c1.93,3.48,4,6.96,6.21,10.42c2.21,3.46,4.42,6.9,6.64,10.3
		c-0.93-0.08-1.83-0.12-2.71-0.12c-0.89,0-1.79,0-2.72,0c-0.93,0-1.84,0-2.75,0s-1.82,0.04-2.75,0.12l-10.8-19.37H275.84z
		 M285.38,338.27c0-1.8-0.18-3.24-0.54-4.3c-0.36-1.07-0.92-1.88-1.66-2.43c-0.74-0.55-1.71-0.91-2.9-1.08
		c-1.19-0.16-2.61-0.25-4.25-0.25c-0.12,5.57-0.18,11.15-0.18,16.72c0.24,0.04,0.47,0.07,0.69,0.09c0.22,0.02,0.43,0.03,0.63,0.03
		c2.66,0,4.69-0.73,6.09-2.18C284.67,343.42,285.38,341.22,285.38,338.27z"/>
	<path class="st0" d="M303.9,334.67c-0.08-2.64-0.2-5.3-0.36-7.96c0.68,0.08,1.43,0.15,2.23,0.22s1.71,0.09,2.72,0.09
		c1,0,1.91-0.03,2.71-0.09s1.55-0.13,2.23-0.22c-0.16,2.67-0.28,5.32-0.36,7.96c-0.08,2.64-0.12,5.67-0.12,9.07v8.36
		c0,3.4,0.04,6.42,0.12,9.07c0.08,2.64,0.2,5.24,0.36,7.78c-0.68-0.08-1.43-0.12-2.23-0.12s-1.71,0-2.71,0c-1.01,0-1.91,0-2.72,0
		s-1.55,0.04-2.23,0.12c0.16-2.54,0.28-5.13,0.36-7.78c0.08-2.64,0.12-5.67,0.12-9.07v-8.36
		C304.02,340.34,303.98,337.32,303.9,334.67z"/>
	<path class="st0" d="M324.41,338.95c0-2.83-0.04-5.2-0.12-7.13c-0.08-1.93-0.14-3.63-0.18-5.1c1.13,0.21,2.03,0.31,2.72,0.31
		c0.68,0,1.59-0.1,2.71-0.31c4.38,4.96,8.72,9.84,13,14.63c4.28,4.8,8.68,9.67,13.18,14.63v-5.35v-5.96c0-2.01-0.01-3.99-0.03-5.93
		c-0.02-1.95-0.04-3.74-0.06-5.38c-0.02-1.64-0.06-3.05-0.12-4.24s-0.13-1.99-0.21-2.4c1.13,0.21,2.03,0.31,2.72,0.31
		c0.68,0,1.59-0.1,2.71-0.31c-0.2,3.73-0.36,7.1-0.48,10.11c-0.12,3.01-0.22,5.85-0.3,8.51c-0.08,2.67-0.13,5.3-0.15,7.9
		c-0.02,2.6-0.03,5.38-0.03,8.33v7.38c-0.81-0.08-1.63-0.12-2.47-0.12c-0.88,0-1.67,0.04-2.35,0.12
		c-8.29-9.84-17.08-19.73-26.37-29.69c-0.04,1.19-0.07,2.38-0.09,3.57c-0.02,1.19-0.03,2.4-0.03,3.63v7.13
		c0,2.46,0.01,4.55,0.03,6.27c0.02,1.72,0.05,3.18,0.09,4.36c0.04,1.19,0.08,2.16,0.12,2.92c0.04,0.76,0.08,1.36,0.12,1.81
		c-0.48-0.08-0.97-0.12-1.45-0.12s-0.95,0-1.39,0c-0.93,0-1.85,0.04-2.78,0.12c0.08-0.33,0.18-1.5,0.3-3.5
		c0.12-2.01,0.25-4.46,0.39-7.35c0.14-2.89,0.26-6.02,0.36-9.41C324.36,345.31,324.41,342.06,324.41,338.95z"/>
	<path class="st0" d="M370.15,334.67c-0.08-2.64-0.2-5.3-0.36-7.96c1.81,0.04,3.6,0.1,5.37,0.18c1.77,0.08,3.56,0.12,5.37,0.12
		c2.98,0,5.62-0.03,7.94-0.09c2.31-0.06,3.87-0.13,4.68-0.22c-0.16,0.66-0.24,1.52-0.24,2.58c0,0.66,0.02,1.17,0.06,1.54
		c0.04,0.37,0.1,0.78,0.18,1.23c-1.17-0.08-2.44-0.16-3.83-0.25c-1.39-0.08-2.74-0.16-4.04-0.25c-1.31-0.08-2.48-0.14-3.53-0.18
		c-1.05-0.04-1.79-0.06-2.23-0.06c-0.16,2.25-0.25,4.49-0.27,6.7c-0.02,2.21-0.03,4.45-0.03,6.7c2.61-0.04,4.98-0.1,7.09-0.18
		c2.11-0.08,4.31-0.18,6.61-0.31c-0.12,0.7-0.2,1.23-0.24,1.6c-0.04,0.37-0.06,0.76-0.06,1.17c0,0.33,0.03,0.67,0.09,1.01
		c0.06,0.35,0.13,0.85,0.21,1.51c-4.59-0.37-9.15-0.55-13.7-0.55c0,1.31-0.01,2.62-0.03,3.93c-0.02,1.31-0.03,2.62-0.03,3.93
		c0,2.67,0.06,5.23,0.18,7.68c2.29,0,4.59-0.06,6.88-0.18c2.29-0.12,4.61-0.33,6.94-0.61c-0.08,0.45-0.14,0.86-0.18,1.23
		c-0.04,0.37-0.06,0.88-0.06,1.54c0,0.66,0.02,1.17,0.06,1.54c0.04,0.37,0.1,0.68,0.18,0.92c-1.09-0.04-2.42-0.07-4.01-0.09
		s-3.77-0.03-6.55-0.03c-2.45,0-4.45,0-5.97,0c-1.49,0-2.69,0-3.59,0c-0.91,0-1.59,0.01-2.05,0.03c-0.46,0.02-0.86,0.05-1.18,0.09
		c0.16-2.54,0.28-5.13,0.36-7.78c0.08-2.64,0.12-5.67,0.12-9.07v-8.36C370.27,340.34,370.23,337.32,370.15,334.67z"/>
	<path class="st0" d="M434.79,321.9c-2.22,0-4.03,0.66-5.43,1.99c-1.4,1.33-2.1,2.88-2.1,4.65c0,1.82,0.54,3.31,1.63,4.46
		c1.09,1.16,2.45,2.2,4.09,3.14c1.64,0.93,3.4,1.83,5.29,2.69c1.88,0.86,3.64,1.92,5.29,3.17c1.64,1.25,3.01,2.78,4.09,4.57
		c1.09,1.8,1.63,4.09,1.63,6.9c0,2.46-0.46,4.71-1.38,6.75c-0.92,2.04-2.22,3.79-3.91,5.24c-1.69,1.45-3.71,2.56-6.05,3.32
		c-2.34,0.76-4.96,1.14-7.86,1.14c-2.61,0-4.94-0.28-6.99-0.85c-2.05-0.56-3.61-1.27-4.67-2.1c0.48-1.72,0.89-3.29,1.23-4.72
		c0.34-1.43,0.63-2.97,0.87-4.65h1.38c0.19,1.08,0.55,2.1,1.09,3.06c0.53,0.96,1.21,1.81,2.03,2.55c0.82,0.74,1.81,1.32,2.97,1.73
		c1.16,0.42,2.46,0.63,3.91,0.63c2.9,0,5.03-0.74,6.41-2.21s2.06-3.25,2.06-5.31c0-1.87-0.53-3.39-1.59-4.57
		c-1.06-1.18-2.39-2.23-3.98-3.14c-1.59-0.91-3.33-1.79-5.21-2.66c-1.88-0.86-3.62-1.91-5.21-3.13c-1.59-1.23-2.92-2.74-3.98-4.54
		c-1.06-1.79-1.59-4.09-1.59-6.9c0-2.56,0.45-4.82,1.34-6.79c0.89-1.97,2.09-3.62,3.58-4.94c1.5-1.33,3.22-2.33,5.18-3.02
		c1.96-0.69,4.02-1.03,6.19-1.03c2.61,0,4.89,0.32,6.84,0.96c1.96,0.64,3.63,1.52,5.03,2.66c-0.43,1.13-0.81,2.23-1.12,3.28
		c-0.31,1.06-0.71,2.4-1.19,4.02h-1.09C442.01,324.02,439.09,321.9,434.79,321.9z"/>
	<path class="st0" d="M489.12,364.61c-0.24,0.88-0.4,1.75-0.48,2.61c-3.26,1.68-7.36,2.52-12.31,2.52c-3.5,0-6.63-0.5-9.38-1.51
		c-2.76-1-5.09-2.42-7-4.24c-1.91-1.82-3.37-3.99-4.38-6.49c-1.01-2.5-1.51-5.2-1.51-8.12c0-4.26,0.65-7.88,1.96-10.85
		c1.31-2.97,3.06-5.39,5.25-7.25c2.19-1.86,4.74-3.23,7.63-4.09s5.93-1.29,9.11-1.29c1.05,0,2.15,0.08,3.32,0.25
		s2.29,0.38,3.38,0.65c1.09,0.27,2.12,0.58,3.11,0.95c0.99,0.37,1.82,0.76,2.5,1.17c-0.4,1.02-0.71,2.06-0.94,3.1
		c-0.22,1.04-0.37,2.1-0.45,3.17h-0.84c-1.53-1.97-3.1-3.37-4.71-4.21c-1.61-0.84-3.5-1.26-5.67-1.26c-1.61,0-3.23,0.37-4.86,1.11
		c-1.63,0.74-3.11,1.87-4.44,3.38c-1.33,1.52-2.4,3.45-3.23,5.81c-0.83,2.36-1.24,5.17-1.24,8.45c0,3.16,0.42,5.85,1.27,8.08
		c0.84,2.23,1.94,4.06,3.29,5.47s2.88,2.45,4.59,3.1c1.71,0.66,3.43,0.98,5.16,0.98c0.97,0,1.95-0.11,2.96-0.34
		c1-0.22,1.99-0.53,2.96-0.92c0.97-0.39,1.88-0.87,2.75-1.44c0.86-0.57,1.62-1.21,2.26-1.91l0.78,0.49
		C489.64,362.86,489.36,363.73,489.12,364.61z"/>
	<path class="st0" d="M497.69,334.67c-0.08-2.64-0.2-5.3-0.36-7.96c0.68,0.08,1.43,0.15,2.23,0.22s1.71,0.09,2.72,0.09
		c1,0,1.91-0.03,2.71-0.09s1.55-0.13,2.23-0.22c-0.16,2.67-0.28,5.32-0.36,7.96c-0.08,2.64-0.12,5.67-0.12,9.07v8.36
		c0,3.4,0.04,6.42,0.12,9.07c0.08,2.64,0.2,5.24,0.36,7.78c-0.68-0.08-1.43-0.12-2.23-0.12s-1.71,0-2.71,0c-1.01,0-1.91,0-2.72,0
		s-1.55,0.04-2.23,0.12c0.16-2.54,0.28-5.13,0.36-7.78c0.08-2.64,0.12-5.67,0.12-9.07v-8.36
		C497.81,340.34,497.77,337.32,497.69,334.67z"/>
	<path class="st0" d="M517,334.67c-0.08-2.64-0.2-5.3-0.36-7.96c1.81,0.04,3.6,0.1,5.37,0.18c1.77,0.08,3.56,0.12,5.37,0.12
		c2.98,0,5.62-0.03,7.94-0.09c2.31-0.06,3.87-0.13,4.68-0.22c-0.16,0.66-0.24,1.52-0.24,2.58c0,0.66,0.02,1.17,0.06,1.54
		c0.04,0.37,0.1,0.78,0.18,1.23c-1.17-0.08-2.44-0.16-3.83-0.25c-1.39-0.08-2.74-0.16-4.04-0.25c-1.31-0.08-2.48-0.14-3.53-0.18
		c-1.05-0.04-1.79-0.06-2.23-0.06c-0.16,2.25-0.25,4.49-0.27,6.7c-0.02,2.21-0.03,4.45-0.03,6.7c2.61-0.04,4.98-0.1,7.09-0.18
		c2.11-0.08,4.31-0.18,6.61-0.31c-0.12,0.7-0.2,1.23-0.24,1.6c-0.04,0.37-0.06,0.76-0.06,1.17c0,0.33,0.03,0.67,0.09,1.01
		c0.06,0.35,0.13,0.85,0.21,1.51c-4.59-0.37-9.15-0.55-13.7-0.55c0,1.31-0.01,2.62-0.03,3.93c-0.02,1.31-0.03,2.62-0.03,3.93
		c0,2.67,0.06,5.23,0.18,7.68c2.29,0,4.59-0.06,6.88-0.18c2.29-0.12,4.61-0.33,6.94-0.61c-0.08,0.45-0.14,0.86-0.18,1.23
		c-0.04,0.37-0.06,0.88-0.06,1.54c0,0.66,0.02,1.17,0.06,1.54c0.04,0.37,0.1,0.68,0.18,0.92c-1.09-0.04-2.42-0.07-4.01-0.09
		s-3.77-0.03-6.55-0.03c-2.45,0-4.45,0-5.97,0c-1.49,0-2.69,0-3.59,0c-0.91,0-1.59,0.01-2.05,0.03c-0.46,0.02-0.86,0.05-1.18,0.09
		c0.16-2.54,0.28-5.13,0.36-7.78c0.08-2.64,0.12-5.67,0.12-9.07v-8.36C517.12,340.34,517.08,337.32,517,334.67z"/>
	<path class="st0" d="M548.38,338.95c0-2.83-0.04-5.2-0.12-7.13c-0.08-1.93-0.14-3.63-0.18-5.1c1.13,0.21,2.03,0.31,2.72,0.31
		c0.68,0,1.59-0.1,2.71-0.31c4.38,4.96,8.72,9.84,13,14.63c4.28,4.8,8.68,9.67,13.18,14.63v-5.35v-5.96c0-2.01-0.01-3.99-0.03-5.93
		c-0.02-1.95-0.04-3.74-0.06-5.38c-0.02-1.64-0.06-3.05-0.12-4.24s-0.13-1.99-0.21-2.4c1.13,0.21,2.03,0.31,2.72,0.31
		c0.68,0,1.59-0.1,2.71-0.31c-0.2,3.73-0.36,7.1-0.48,10.11c-0.12,3.01-0.22,5.85-0.3,8.51c-0.08,2.67-0.13,5.3-0.15,7.9
		c-0.02,2.6-0.03,5.38-0.03,8.33v7.38c-0.81-0.08-1.63-0.12-2.47-0.12c-0.88,0-1.67,0.04-2.35,0.12
		c-8.29-9.84-17.08-19.73-26.37-29.69c-0.04,1.19-0.07,2.38-0.09,3.57c-0.02,1.19-0.03,2.4-0.03,3.63v7.13
		c0,2.46,0.01,4.55,0.03,6.27c0.02,1.72,0.05,3.18,0.09,4.36c0.04,1.19,0.08,2.16,0.12,2.92c0.04,0.76,0.08,1.36,0.12,1.81
		c-0.48-0.08-0.97-0.12-1.45-0.12s-0.95,0-1.39,0c-0.93,0-1.85,0.04-2.78,0.12c0.08-0.33,0.18-1.5,0.3-3.5
		c0.12-2.01,0.25-4.46,0.39-7.35c0.14-2.89,0.26-6.02,0.36-9.41C548.32,345.31,548.38,342.06,548.38,338.95z"/>
	<path class="st0" d="M626.58,364.61c-0.24,0.88-0.4,1.75-0.48,2.61c-3.26,1.68-7.36,2.52-12.31,2.52c-3.5,0-6.63-0.5-9.38-1.51
		c-2.76-1-5.09-2.42-7-4.24c-1.91-1.82-3.37-3.99-4.38-6.49c-1.01-2.5-1.51-5.2-1.51-8.12c0-4.26,0.65-7.88,1.96-10.85
		c1.31-2.97,3.06-5.39,5.25-7.25c2.19-1.86,4.74-3.23,7.63-4.09s5.93-1.29,9.11-1.29c1.05,0,2.15,0.08,3.32,0.25
		s2.29,0.38,3.38,0.65c1.09,0.27,2.12,0.58,3.11,0.95c0.99,0.37,1.82,0.76,2.5,1.17c-0.4,1.02-0.71,2.06-0.94,3.1
		c-0.22,1.04-0.37,2.1-0.45,3.17h-0.84c-1.53-1.97-3.1-3.37-4.71-4.21c-1.61-0.84-3.5-1.26-5.67-1.26c-1.61,0-3.23,0.37-4.86,1.11
		c-1.63,0.74-3.11,1.87-4.44,3.38c-1.33,1.52-2.4,3.45-3.23,5.81c-0.83,2.36-1.24,5.17-1.24,8.45c0,3.16,0.42,5.85,1.27,8.08
		c0.84,2.23,1.94,4.06,3.29,5.47s2.88,2.45,4.59,3.1c1.71,0.66,3.43,0.98,5.16,0.98c0.97,0,1.95-0.11,2.96-0.34
		c1-0.22,1.99-0.53,2.96-0.92c0.97-0.39,1.88-0.87,2.75-1.44c0.86-0.57,1.62-1.21,2.26-1.91l0.78,0.49
		C627.1,362.86,626.82,363.73,626.58,364.61z"/>
	<path class="st0" d="M634.36,334.67c-0.08-2.64-0.2-5.3-0.36-7.96c1.81,0.04,3.6,0.1,5.37,0.18c1.77,0.08,3.56,0.12,5.37,0.12
		c2.98,0,5.62-0.03,7.94-0.09c2.31-0.06,3.87-0.13,4.68-0.22c-0.16,0.66-0.24,1.52-0.24,2.58c0,0.66,0.02,1.17,0.06,1.54
		c0.04,0.37,0.1,0.78,0.18,1.23c-1.17-0.08-2.44-0.16-3.83-0.25c-1.39-0.08-2.74-0.16-4.04-0.25c-1.31-0.08-2.48-0.14-3.53-0.18
		c-1.05-0.04-1.79-0.06-2.23-0.06c-0.16,2.25-0.25,4.49-0.27,6.7c-0.02,2.21-0.03,4.45-0.03,6.7c2.61-0.04,4.98-0.1,7.09-0.18
		c2.11-0.08,4.31-0.18,6.61-0.31c-0.12,0.7-0.2,1.23-0.24,1.6c-0.04,0.37-0.06,0.76-0.06,1.17c0,0.33,0.03,0.67,0.09,1.01
		c0.06,0.35,0.13,0.85,0.21,1.51c-4.59-0.37-9.15-0.55-13.7-0.55c0,1.31-0.01,2.62-0.03,3.93c-0.02,1.31-0.03,2.62-0.03,3.93
		c0,2.67,0.06,5.23,0.18,7.68c2.29,0,4.59-0.06,6.88-0.18c2.29-0.12,4.61-0.33,6.94-0.61c-0.08,0.45-0.14,0.86-0.18,1.23
		c-0.04,0.37-0.06,0.88-0.06,1.54c0,0.66,0.02,1.17,0.06,1.54c0.04,0.37,0.1,0.68,0.18,0.92c-1.09-0.04-2.42-0.07-4.01-0.09
		s-3.77-0.03-6.55-0.03c-2.45,0-4.45,0-5.97,0c-1.49,0-2.69,0-3.59,0c-0.91,0-1.59,0.01-2.05,0.03c-0.46,0.02-0.86,0.05-1.18,0.09
		c0.16-2.54,0.28-5.13,0.36-7.78c0.08-2.64,0.12-5.67,0.12-9.07v-8.36C634.48,340.34,634.44,337.32,634.36,334.67z"/>
</g>
<path class="st0" d="M383.55,116.57c7.26-3.9,8.65-11.12,10.93-17.82c6.82-20.01,13.6-40.04,20.43-60.05
	c0.79-2.33,1.78-4.58,2.69-6.88c-5.28-0.34-8.33,1.77-10.72,8.23c-2.83,7.65-5.31,15.43-7.92,23.16
	c-4.25,12.62-8.48,25.25-12.73,37.87c-4.15,12.31-10.5,16.77-23.45,16.51c-1.49-0.03-2.98,0-4.3,0
	c12.49-16.68,14.84-37.3,22.32-55.84c3.91-9.7,6.9-19.78,10.36-29.84c-4.5-0.95-7.28,1.94-9.09,5.56c-2,3.99-3.4,8.3-4.84,12.55
	c-5.76,17.03-11.37,34.12-17.17,51.14c-4.29,12.62-10.54,16.8-24,16.41c-1.3-0.04-2.6-0.12-4.48-0.21
	c11.44-10.73,12.2-25.73,17.32-38.78c5.22-13.31,9.47-27.02,14.05-40.58c3.04-9.03,9.52-13.69,18.73-13.82
	c20.12-0.28,40.25-0.09,61.53-0.09c-10.92,8.01-11.23,20.21-15.13,30.65c-5.58,14.97-10.29,30.26-15.36,45.42
	c-4.54,13.58-10.5,17.76-24.81,17.38c-1.16-0.03-2.33,0-3.49,0C384.15,117.21,383.85,116.89,383.55,116.57z"/>
<path class="st0" d="M441.39,215.72c-0.25,0-1.34,0-2.42,0c-18.16,0-36.33,0.02-54.49-0.01c-12.02-0.02-17.87-3.78-21.87-15.09
	c-7.33-20.71-14.13-41.61-21.47-62.32c-1.92-5.42-5.05-10.42-7.53-15.44c11.35-3.17,21.77,2.07,25.89,14.19
	c6.63,19.55,13.12,39.14,19.78,58.68c1.01,2.96,2.16,6.12,4.14,8.43c1.8,2.1,4.81,3.16,8.2,5.24c-8.54-25.07-16.38-48.57-24.6-71.93
	c-1.8-5.13-4.93-9.79-7.38-14.55c9.98-3.52,21.88,1.99,25.64,13.03c6.91,20.33,13.68,40.71,20.63,61.03
	c0.95,2.79,2.18,5.73,4.09,7.88c1.76,1.97,4.62,2.96,7.89,4.91c-8.3-24.37-16.12-47.17-23.82-70.02
	c-2.11-6.27-3.82-12.69-10.42-16.64c15.98-2.84,24.19,1.94,28.99,16.28c6.97,20.84,13.75,41.74,21.03,62.47
	C435.38,206.75,438.74,211.06,441.39,215.72z"/>
<path class="st0" d="M206.94,131.72c14.03-14.63,41.19-14.74,56.2,0.5c10.58,10.74,19.53,23.09,29.08,34.83
	c3.55,4.36,6.74,9.01,10.94,13.12c-2.57-7.62-5.13-15.24-7.7-22.85c-2.29-6.78-4.29-13.67-6.98-20.29c-2-4.92-4.88-9.48-7.3-14.07
	c9.86-3.6,21.93,1.88,25.69,12.93c7.23,21.26,14.26,42.6,21.41,63.89c1.95,5.82,3.33,12.04,9.63,15.9
	c-2.13-0.15-4.28-0.18-6.39-0.48c-12.54-1.8-24.05-6.33-32.74-15.64c-12.6-13.5-24.42-27.72-36.7-41.52
	c-5.31-5.96-10.88-11.7-16.44-17.43C234.99,129.59,222.35,126.53,206.94,131.72z"/>
<path class="st0" d="M208.15,109.46c5.49,0.28,10.76,1.03,15.96,0.7c7.53-0.48,14.34-3.41,19.48-9.09
	c12.85-14.19,25.44-28.61,38.26-42.83c6.02-6.67,12.01-13.43,18.57-19.55c10.37-9.66,23.12-13.86,37.52-14.29
	c-7.59,4.66-8.55,12.74-11.02,19.99c-6.27,18.44-12.52,36.89-18.66,55.38c-4.95,14.9-12.31,19.46-28.92,17.19
	c9.97-7.76,10.46-19.75,14.48-30.04c3.62-9.25,6.5-18.79,9.14-28.56c-3.13,4.2-6.1,8.52-9.41,12.57
	c-10.09,12.38-19.53,25.41-30.66,36.79c-13.92,14.24-37.22,14.89-53.29,3.11C209.11,110.46,208.68,109.96,208.15,109.46z"/>
<path class="st0" d="M407.8,117.53c16.08-11.72,24.88-28.3,36.25-42.69c9.49-12.01,18.04-24.77,27.48-36.82
	c9.11-11.62,21.25-16.77,36.1-14.36c2.48,0.4,4.83,1.59,7.32,3.03c-12.59,1.82-19.86,10.32-26.76,19.47
	c-13.33,17.68-26.98,35.12-40.17,52.91C438.17,112.37,425.17,118.29,407.8,117.53z"/>
<path class="st0" d="M409.82,122.26c13.42-0.61,26.1,3.29,35.33,15.04c11.5,14.65,22.58,29.64,33.86,44.46
	c2.62,3.44,5.41,6.75,7.97,10.23c7.19,9.76,14.67,19.1,28.91,20.73c-7.05,4.29-13.59,4.72-20.22,3.55
	c-10.63-1.86-19.07-7.34-25.51-16.07c-13.82-18.75-27.59-37.53-41.7-56.06C422.62,136.48,415.95,129.42,409.82,122.26z"/>
<path class="st0" d="M307.08,117.23c2.6-4.99,5.85-9.79,7.72-15.08c7.05-19.93,13.65-40.01,20.42-60.03
	c2.57-7.6,5.64-14.97,14.49-16.97c4.58-1.03,9.39-1.02,14.44-0.9c-7.15,4.44-8.37,11.87-10.66,18.67
	c-6.32,18.77-12.61,37.55-18.91,56.33C329.35,114.84,322.71,119.01,307.08,117.23z"/>
<path class="st0" d="M307.07,122.82c13.57-2.72,22.41,2.35,27,16.11c6.83,20.49,13.72,40.96,20.55,61.45
	c1.89,5.68,3.55,11.47,10.25,14.44c-14.27,3.26-23.94-1.47-28.42-14.11c-7.66-21.61-14.74-43.42-22.38-65.04
	C312.47,131.16,309.47,127.15,307.07,122.82z"/>
</svg>
