<?xml version="1.0" encoding="utf-8"?>
<!-- Generator: Adobe Illustrator 17.0.0, SVG Export Plug-In . SVG Version: 6.00 Build 0)  -->
<!DOCTYPE svg PUBLIC "-//W3C//DTD SVG 1.1//EN" "http://www.w3.org/Graphics/SVG/1.1/DTD/svg11.dtd">
<svg version="1.1" id="Layer_1" xmlns="http://www.w3.org/2000/svg" xmlns:xlink="http://www.w3.org/1999/xlink" x="0px" y="0px"
	 width="290.734px" height="135.822px" viewBox="0 0 290.734 135.822" enable-background="new 0 0 290.734 135.822"
	 xml:space="preserve">
<g>
	<g>
		<g>
			<g>
				<circle fill="#FFFFFF" cx="47.018" cy="45.325" r="1.895"/>
			</g>
		</g>
		<g>
			<g>
				<circle fill="#FFFFFF" cx="77.061" cy="75.252" r="1.895"/>
			</g>
		</g>
		<g>
			<g>
				<path fill="#FFFFFF" d="M60.149,87.228c1.048,0,1.895,0.844,1.895,1.891c0,1.049-0.847,1.898-1.895,1.898
					c-1.046,0-1.893-0.85-1.893-1.898C58.255,88.072,59.103,87.228,60.149,87.228z"/>
			</g>
		</g>
		<g>
			<path fill="#FFFFFF" d="M87.402,38.728c1.048,0,1.895,0.844,1.895,1.891c0,1.049-0.847,1.899-1.895,1.899
				c-1.046,0-1.893-0.851-1.893-1.899C85.509,39.572,86.356,38.728,87.402,38.728z"/>
		</g>
		<g>
			<g>
				<path fill="#FFFFFF" d="M45.251,31.448c1.048,0,1.895,0.843,1.895,1.892c0,1.049-0.847,1.896-1.895,1.896
					c-1.046,0-1.893-0.848-1.893-1.896C43.358,32.291,44.205,31.448,45.251,31.448z"/>
			</g>
		</g>
		<g>
			<circle fill="#FFFFFF" cx="100.617" cy="41.95" r="1.895"/>
		</g>
		<g>
			<path fill="#FFFFFF" d="M25.64,101.108c1.048,0,1.895,0.856,1.895,1.898c0,1.055-0.847,1.898-1.895,1.898
				c-1.046,0-1.893-0.844-1.893-1.898C23.748,101.964,24.594,101.108,25.64,101.108z"/>
		</g>
		<g>
			<path fill="#FFFFFF" d="M45.967,26.335c1.049,0,1.899,0.85,1.899,1.892c0,1.055-0.85,1.898-1.899,1.898
				c-1.042,0-1.892-0.844-1.892-1.898C44.075,27.185,44.925,26.335,45.967,26.335z"/>
		</g>
		<g>
			<path fill="#FFFFFF" d="M41.004,87.842c1.045,0,1.892,0.848,1.892,1.892c0,1.054-0.847,1.898-1.892,1.898
				c-1.048,0-1.895-0.845-1.895-1.898C39.108,88.689,39.955,87.842,41.004,87.842z"/>
		</g>
		<g>
			<path fill="#FFFFFF" d="M32.923,38.672c1.048,0,1.896,0.845,1.896,1.887c0,1.054-0.847,1.898-1.896,1.898
				c-1.045,0-1.892-0.845-1.892-1.898C31.031,39.517,31.878,38.672,32.923,38.672z"/>
		</g>
		<g>
			<path fill="#FFFFFF" d="M15.484,110.871c1.045,0,1.898,0.845,1.898,1.894c0,1.053-0.853,1.892-1.898,1.892
				c-1.046,0-1.895-0.839-1.895-1.892C13.589,111.716,14.439,110.871,15.484,110.871z"/>
		</g>
		<g>
			<path fill="#FFFFFF" d="M35.24,62.101c1.048,0,1.895,0.845,1.895,1.898c0,1.042-0.847,1.892-1.895,1.892
				c-1.045,0-1.892-0.85-1.892-1.892C33.348,62.945,34.195,62.101,35.24,62.101z"/>
		</g>
		<g>
			<path fill="#FFFFFF" d="M44.411,40.238c1.049,0,1.896,0.843,1.896,1.897c0,1.043-0.847,1.896-1.896,1.896
				c-1.045,0-1.895-0.853-1.895-1.896C42.517,41.081,43.366,40.238,44.411,40.238z"/>
		</g>
		<g>
			<path fill="#FFFFFF" d="M35.082,55.032c1.043,0,1.893,0.843,1.893,1.892c0,1.044-0.85,1.894-1.893,1.894
				c-1.048,0-1.898-0.85-1.898-1.894C33.184,55.875,34.033,55.032,35.082,55.032z"/>
		</g>
		<g>
			<path fill="#FFFFFF" d="M50.787,39.301c1.049,0,1.896,0.855,1.896,1.899c0,1.048-0.847,1.898-1.896,1.898
				c-1.046,0-1.892-0.851-1.892-1.898C48.895,40.156,49.741,39.301,50.787,39.301z"/>
		</g>
		<g>
			<path fill="#FFFFFF" d="M32.112,83.885c1.045,0,1.894,0.849,1.894,1.892c0,1.044-0.849,1.897-1.894,1.897
				c-1.046,0-1.899-0.854-1.899-1.897C30.213,84.733,31.066,83.885,32.112,83.885z"/>
		</g>
		<g>
			<path fill="#FFFFFF" d="M51.457,35.216c1.046,0,1.896,0.85,1.896,1.892c0,1.049-0.85,1.893-1.896,1.893
				c-1.045,0-1.895-0.844-1.895-1.893C49.563,36.065,50.412,35.216,51.457,35.216z"/>
		</g>
		<g>
			<path fill="#FFFFFF" d="M21.179,81.653c1.048,0,1.895,0.85,1.895,1.893c0,1.048-0.847,1.892-1.895,1.892
				c-1.045,0-1.895-0.844-1.895-1.892C19.285,82.503,20.134,81.653,21.179,81.653z"/>
		</g>
		<g>
			<circle fill="#FFFFFF" cx="53.648" cy="18.962" r="1.895"/>
		</g>
		<g>
			<path fill="#FFFFFF" d="M38.902,39.01c1.048,0,1.895,0.844,1.895,1.891c0,1.05-0.847,1.899-1.895,1.899
				c-1.045,0-1.894-0.85-1.894-1.899C37.008,39.853,37.857,39.01,38.902,39.01z"/>
		</g>
		<g>
			<path fill="#FFFFFF" d="M26.34,85.581c1.048,0,1.895,0.85,1.895,1.902c0,1.049-0.847,1.887-1.895,1.887
				c-1.046,0-1.895-0.838-1.895-1.887C24.445,86.431,25.295,85.581,26.34,85.581z"/>
		</g>
		<g>
			<path fill="#FFFFFF" d="M45.116,80.395c1.045,0,1.895,0.845,1.895,1.888c0,1.048-0.85,1.902-1.895,1.902
				c-1.046,0-1.896-0.854-1.896-1.902C43.22,81.24,44.07,80.395,45.116,80.395z"/>
		</g>
		<g>
			<path fill="#FFFFFF" d="M39.697,59.382c1.045,0,1.895,0.854,1.895,1.896c0,1.038-0.85,1.894-1.895,1.894
				c-1.046,0-1.896-0.855-1.896-1.894C37.801,60.235,38.651,59.382,39.697,59.382z"/>
		</g>
		<g>
			<path fill="#FFFFFF" d="M26.771,78.17c1.045,0,1.895,0.845,1.895,1.894c0,1.042-0.849,1.898-1.895,1.898
				c-1.048,0-1.896-0.856-1.896-1.898C24.875,79.015,25.722,78.17,26.771,78.17z"/>
		</g>
		<g>
			<path fill="#FFFFFF" d="M42.62,119.307c1.045,0,1.895,0.85,1.895,1.894c0,1.052-0.85,1.896-1.895,1.896
				c-1.048,0-1.895-0.845-1.895-1.896C40.725,120.156,41.572,119.307,42.62,119.307z"/>
		</g>
		<g>
			<path fill="#FFFFFF" d="M29.715,22.502c1.046,0,1.895,0.85,1.895,1.894c0,1.041-0.849,1.891-1.895,1.891
				c-1.048,0-1.895-0.85-1.895-1.891C27.82,23.352,28.667,22.502,29.715,22.502z"/>
		</g>
		<g>
			<circle fill="#FFFFFF" cx="25.482" cy="31.361" r="1.893"/>
		</g>
		<g>
			<path fill="#FFFFFF" d="M57.987,111.468c1.048,0,1.895,0.843,1.895,1.891c0,1.044-0.847,1.889-1.895,1.889
				c-1.045,0-1.894-0.845-1.894-1.889C56.093,112.31,56.942,111.468,57.987,111.468z"/>
		</g>
		<g>
			<circle fill="#FFFFFF" cx="23.993" cy="66.539" r="1.895"/>
		</g>
		<g>
			<path fill="#FFFFFF" d="M44.377,73.977c1.048,0,1.895,0.844,1.895,1.888c0,1.053-0.847,1.898-1.895,1.898
				c-1.046,0-1.893-0.846-1.893-1.898C42.484,74.82,43.331,73.977,44.377,73.977z"/>
		</g>
		<g>
			<path fill="#FFFFFF" d="M33.232,76.875c1.045,0,1.895,0.85,1.895,1.893c0,1.055-0.85,1.898-1.895,1.898
				c-1.046,0-1.895-0.844-1.895-1.898C31.337,77.725,32.186,76.875,33.232,76.875z"/>
		</g>
		<g>
			<path fill="#FFFFFF" d="M42.154,48.446c1.048,0,1.898,0.845,1.898,1.897c0,1.038-0.85,1.888-1.898,1.888
				c-1.043,0-1.892-0.85-1.892-1.888C40.261,49.291,41.11,48.446,42.154,48.446z"/>
		</g>
		<g>
			<path fill="#FFFFFF" d="M53.932,28.023c1.046,0,1.896,0.85,1.896,1.893c0,1.053-0.85,1.897-1.896,1.897
				c-1.045,0-1.895-0.845-1.895-1.897C52.037,28.873,52.887,28.023,53.932,28.023z"/>
		</g>
		<g>
			<path fill="#FFFFFF" d="M20.804,22.263c1.048,0,1.895,0.845,1.895,1.892c0,1.055-0.847,1.898-1.895,1.898
				c-1.046,0-1.893-0.844-1.893-1.898C18.911,23.107,19.758,22.263,20.804,22.263z"/>
		</g>
		<g>
			<path fill="#FFFFFF" d="M49.086,91.201c1.048,0,1.897,0.845,1.897,1.892c0,1.044-0.849,1.893-1.897,1.893
				c-1.043,0-1.893-0.849-1.893-1.893C47.193,92.046,48.043,91.201,49.086,91.201z"/>
		</g>
		<g>
			<path fill="#FFFFFF" d="M44.529,90.645c1.048,0,1.898,0.845,1.898,1.893c0,1.043-0.85,1.893-1.898,1.893
				c-1.043,0-1.892-0.85-1.892-1.893C42.636,91.49,43.485,90.645,44.529,90.645z"/>
		</g>
		<g>
			<path fill="#FFFFFF" d="M53.051,90.298c1.045,0,1.892,0.85,1.892,1.903c0,1.043-0.847,1.887-1.892,1.887
				c-1.049,0-1.898-0.844-1.898-1.887C51.152,91.147,52.002,90.298,53.051,90.298z"/>
		</g>
		<g>
			<path fill="#FFFFFF" d="M38.582,51.225c1.048,0,1.894,0.85,1.894,1.888c0,1.054-0.846,1.897-1.894,1.897
				c-1.046,0-1.893-0.844-1.893-1.897C36.689,52.074,37.536,51.225,38.582,51.225z"/>
		</g>
		<g>
			<circle fill="#FFFFFF" cx="43.463" cy="66.902" r="1.898"/>
		</g>
		<g>
			<path fill="#FFFFFF" d="M11.26,90.327c1.046,0,1.893,0.849,1.893,1.897c0,1.044-0.847,1.893-1.893,1.893
				c-1.048,0-1.895-0.849-1.895-1.893C9.365,91.176,10.212,90.327,11.26,90.327z"/>
		</g>
		<g>
			<path fill="#FFFFFF" d="M51.993,41.805c1.045,0,1.894,0.849,1.894,1.892c0,1.048-0.849,1.903-1.894,1.903
				s-1.898-0.855-1.898-1.903C50.095,42.653,50.948,41.805,51.993,41.805z"/>
		</g>
		<g>
			<path fill="#FFFFFF" d="M46.057,113.76c1.045,0,1.895,0.844,1.895,1.892c0,1.048-0.85,1.894-1.895,1.894
				c-1.048,0-1.896-0.846-1.896-1.894C44.161,114.603,45.008,113.76,46.057,113.76z"/>
		</g>
		<g>
			<path fill="#FFFFFF" d="M43.441,55.048c1.046,0,1.895,0.845,1.895,1.888c0,1.053-0.849,1.897-1.895,1.897
				c-1.049,0-1.898-0.845-1.898-1.897C41.543,55.893,42.393,55.048,43.441,55.048z"/>
		</g>
		<g>
			<circle fill="#FFFFFF" cx="32.515" cy="100.873" r="1.893"/>
		</g>
		<g>
			<path fill="#FFFFFF" d="M12.173,68.922c1.045,0,1.895,0.85,1.895,1.898c0,1.048-0.85,1.892-1.895,1.892
				c-1.048,0-1.894-0.844-1.894-1.892C10.278,69.771,11.125,68.922,12.173,68.922z"/>
		</g>
		<g>
			<path fill="#FFFFFF" d="M36.485,89.104c1.045,0,1.895,0.838,1.895,1.888c0,1.054-0.849,1.896-1.895,1.896
				c-1.045,0-1.895-0.843-1.895-1.896C34.59,89.942,35.44,89.104,36.485,89.104z"/>
		</g>
		<g>
			<path fill="#FFFFFF" d="M30.213,93.694c1.045,0,1.895,0.84,1.895,1.889c0,1.053-0.85,1.897-1.895,1.897
				c-1.045,0-1.894-0.845-1.894-1.897C28.319,94.534,29.168,93.694,30.213,93.694z"/>
		</g>
		<g>
			<path fill="#FFFFFF" d="M1.893,69.207c1.048,0,1.895,0.85,1.895,1.897c0,1.043-0.847,1.893-1.895,1.893
				C0.847,72.997,0,72.147,0,71.104C0,70.057,0.847,69.207,1.893,69.207z"/>
		</g>
		<g>
			<circle fill="#FFFFFF" cx="49.376" cy="64.493" r="1.897"/>
		</g>
		<g>
			<path fill="#FFFFFF" d="M22.152,56.5c1.048,0,1.895,0.844,1.895,1.898c0,1.042-0.847,1.892-1.895,1.892
				c-1.046,0-1.895-0.85-1.895-1.892C20.257,57.344,21.107,56.5,22.152,56.5z"/>
		</g>
		<g>
			<path fill="#FFFFFF" d="M38.783,71.707c1.048,0,1.895,0.856,1.895,1.898c0,1.048-0.847,1.897-1.895,1.897
				c-1.046,0-1.893-0.85-1.893-1.897C36.891,72.563,37.737,71.707,38.783,71.707z"/>
		</g>
		<g>
			<path fill="#FFFFFF" d="M34.004,70.264c1.048,0,1.895,0.854,1.895,1.896c0,1.049-0.847,1.898-1.895,1.898
				c-1.046,0-1.893-0.85-1.893-1.898C32.111,71.118,32.958,70.264,34.004,70.264z"/>
		</g>
		<g>
			<path fill="#FFFFFF" d="M23.66,71.584c1.044,0,1.893,0.855,1.893,1.893c0,1.049-0.85,1.903-1.893,1.903
				c-1.048,0-1.898-0.854-1.898-1.903C21.762,72.439,22.612,71.584,23.66,71.584z"/>
		</g>
		<g>
			<path fill="#FFFFFF" d="M7.84,45.483c1.046,0,1.895,0.846,1.895,1.888c0,1.053-0.849,1.897-1.895,1.897
				c-1.048,0-1.898-0.845-1.898-1.897C5.943,46.329,6.793,45.483,7.84,45.483z"/>
		</g>
		<g>
			<path fill="#FFFFFF" d="M48.368,18.424c1.043,0,1.893,0.839,1.893,1.892c0,1.049-0.85,1.892-1.893,1.892
				c-1.048,0-1.897-0.843-1.897-1.892C46.47,19.263,47.32,18.424,48.368,18.424z"/>
		</g>
		<g>
			<path fill="#FFFFFF" d="M45.067,22.072c1.045,0,1.895,0.844,1.895,1.892c0,1.049-0.85,1.892-1.895,1.892
				c-1.046,0-1.896-0.844-1.896-1.892C43.172,22.916,44.022,22.072,45.067,22.072z"/>
		</g>
		<g>
			<path fill="#FFFFFF" d="M7.837,57.366c1.049,0,1.896,0.85,1.896,1.903c0,1.043-0.847,1.893-1.896,1.893
				c-1.045,0-1.892-0.85-1.892-1.893C5.945,58.216,6.792,57.366,7.837,57.366z"/>
		</g>
		<g>
			<circle fill="#FFFFFF" cx="41.928" cy="17.316" r="1.895"/>
		</g>
		<g>
			<path fill="#FFFFFF" d="M53.338,96.158c1.048,0,1.897,0.844,1.897,1.896c0,1.044-0.849,1.888-1.897,1.888
				c-1.042,0-1.892-0.844-1.892-1.888C51.446,97.002,52.295,96.158,53.338,96.158z"/>
		</g>
		<g>
			<path fill="#FFFFFF" d="M37.821,99.218c1.046,0,1.895,0.85,1.895,1.896c0,1.042-0.85,1.892-1.895,1.892
				c-1.046,0-1.896-0.85-1.896-1.892C35.925,100.067,36.775,99.218,37.821,99.218z"/>
		</g>
		<g>
			<path fill="#FFFFFF" d="M28.107,111.137c1.045,0,1.894,0.85,1.894,1.898c0,1.043-0.849,1.893-1.894,1.893
				c-1.046,0-1.896-0.85-1.896-1.893C26.211,111.986,27.061,111.137,28.107,111.137z"/>
		</g>
		<g>
			<path fill="#FFFFFF" d="M52.943,10.648c1.048,0,1.896,0.85,1.896,1.903c0,1.042-0.847,1.886-1.896,1.886
				c-1.045,0-1.895-0.844-1.895-1.886C51.048,11.498,51.898,10.648,52.943,10.648z"/>
		</g>
		<g>
			<path fill="#FFFFFF" d="M18.914,41.653c1.045,0,1.892,0.845,1.892,1.898c0,1.036-0.847,1.892-1.892,1.892
				c-1.049,0-1.898-0.855-1.898-1.892C17.016,42.498,17.865,41.653,18.914,41.653z"/>
		</g>
		<g>
			<path fill="#FFFFFF" d="M33.117,51.172c1.048,0,1.895,0.855,1.895,1.897c0,1.044-0.847,1.898-1.895,1.898
				c-1.046,0-1.892-0.854-1.892-1.898C31.224,52.027,32.071,51.172,33.117,51.172z"/>
		</g>
		<g>
			<circle fill="#FFFFFF" cx="54.313" cy="107.6" r="1.895"/>
		</g>
		<g>
			<path fill="#FFFFFF" d="M51.339,85.723c1.045,0,1.895,0.85,1.895,1.894c0,1.052-0.849,1.896-1.895,1.896
				c-1.045,0-1.895-0.845-1.895-1.896C49.444,86.572,50.294,85.723,51.339,85.723z"/>
		</g>
		<g>
			<path fill="#FFFFFF" d="M35.74,46.521c1.046,0,1.893,0.845,1.893,1.887c0,1.049-0.847,1.903-1.893,1.903
				c-1.048,0-1.895-0.854-1.895-1.903C33.845,47.366,34.692,46.521,35.74,46.521z"/>
		</g>
		<g>
			<path fill="#FFFFFF" d="M64.754,0.353c1.048,0,1.898,0.844,1.898,1.892c0,1.049-0.85,1.897-1.898,1.897
				c-1.043,0-1.895-0.849-1.895-1.897C62.858,1.197,63.711,0.353,64.754,0.353z"/>
		</g>
		<g>
			<path fill="#FFFFFF" d="M13.399,76.506c1.046,0,1.896,0.85,1.896,1.902c0,1.044-0.85,1.89-1.896,1.89
				c-1.045,0-1.895-0.846-1.895-1.89C11.504,77.355,12.353,76.506,13.399,76.506z"/>
		</g>
		<g>
			<path fill="#FFFFFF" d="M37.525,66.22c1.046,0,1.892,0.854,1.892,1.897c0,1.054-0.847,1.902-1.892,1.902
				c-1.048,0-1.895-0.849-1.895-1.902C35.63,67.074,36.477,66.22,37.525,66.22z"/>
		</g>
		<g>
			<path fill="#FFFFFF" d="M50.839,70.637c1.048,0,1.896,0.85,1.896,1.897c0,1.042-0.847,1.892-1.896,1.892
				c-1.048,0-1.895-0.85-1.895-1.892C48.944,71.486,49.791,70.637,50.839,70.637z"/>
		</g>
		<g>
			<path fill="#FFFFFF" d="M46.795,33.672c1.048,0,1.898,0.85,1.898,1.896c0,1.044-0.85,1.898-1.898,1.898
				c-1.043,0-1.892-0.854-1.892-1.898C44.903,34.521,45.752,33.672,46.795,33.672z"/>
		</g>
		<g>
			<path fill="#FFFFFF" d="M37.22,22.176c1.049,0,1.898,0.844,1.898,1.888c0,1.053-0.849,1.898-1.898,1.898
				c-1.045,0-1.892-0.846-1.892-1.898C35.328,23.019,36.174,22.176,37.22,22.176z"/>
		</g>
		<g>
			<path fill="#FFFFFF" d="M41.002,28.191c1.048,0,1.895,0.85,1.895,1.902c0,1.045-0.847,1.889-1.895,1.889
				c-1.046,0-1.896-0.844-1.896-1.889C39.107,29.041,39.956,28.191,41.002,28.191z"/>
		</g>
		<g>
			<path fill="#FFFFFF" d="M36.977,112.813c1.043,0,1.893,0.85,1.893,1.892c0,1.055-0.85,1.898-1.893,1.898
				c-1.048,0-1.897-0.844-1.897-1.898C35.079,113.663,35.929,112.813,36.977,112.813z"/>
		</g>
		<g>
			<path fill="#FFFFFF" d="M15.235,33.135c1.045,0,1.892,0.855,1.892,1.897c0,1.054-0.847,1.899-1.892,1.899
				c-1.049,0-1.896-0.845-1.896-1.899C13.339,33.99,14.186,33.135,15.235,33.135z"/>
		</g>
		<g>
			<path fill="#FFFFFF" d="M45.71,85.616c1.045,0,1.895,0.843,1.895,1.887c0,1.054-0.849,1.897-1.895,1.897
				c-1.049,0-1.896-0.844-1.896-1.897C43.815,86.459,44.661,85.616,45.71,85.616z"/>
		</g>
		<g>
			<path fill="#FFFFFF" d="M30.993,44.882c1.046,0,1.895,0.845,1.895,1.898c0,1.037-0.849,1.892-1.895,1.892
				c-1.045,0-1.898-0.854-1.898-1.892C29.095,45.727,29.948,44.882,30.993,44.882z"/>
		</g>
		<g>
			<path fill="#FFFFFF" d="M52.356,81.119c1.048,0,1.895,0.855,1.895,1.904c0,1.042-0.847,1.896-1.895,1.896
				c-1.045,0-1.893-0.854-1.893-1.896C50.463,81.975,51.311,81.119,52.356,81.119z"/>
		</g>
		<g>
			<path fill="#FFFFFF" d="M3.911,82.913c1.045,0,1.895,0.85,1.895,1.897c0,1.049-0.85,1.888-1.895,1.888
				c-1.046,0-1.895-0.839-1.895-1.888C2.016,83.763,2.865,82.913,3.911,82.913z"/>
		</g>
		<g>
			<path fill="#FFFFFF" d="M1.991,97.315c0.991-0.334,2.067,0.201,2.401,1.194c0.333,0.994-0.205,2.059-1.196,2.392
				c-0.991,0.333-2.063-0.191-2.397-1.185C0.466,98.723,1.001,97.647,1.991,97.315z"/>
		</g>
		<g>
			<ellipse fill="#FFFFFF" cx="50.294" cy="24.805" rx="1.895" ry="1.9"/>
		</g>
		<g>
			<path fill="#FFFFFF" d="M44.928,61.123c1.045,0,1.895,0.854,1.895,1.902c0,1.043-0.849,1.898-1.895,1.898
				c-1.046,0-1.896-0.855-1.896-1.898C43.032,61.977,43.882,61.123,44.928,61.123z"/>
		</g>
		<g>
			<path fill="#FFFFFF" d="M25.253,48.893c1.046,0,1.893,0.844,1.893,1.886c0,1.051-0.847,1.894-1.893,1.894
				c-1.048,0-1.895-0.843-1.895-1.894C23.358,49.736,24.204,48.893,25.253,48.893z"/>
		</g>
		<g>
			<path fill="#FFFFFF" d="M44.789,95.596c1.048,0,1.898,0.854,1.898,1.896c0,1.049-0.85,1.898-1.898,1.898
				c-1.045,0-1.895-0.85-1.895-1.898C42.894,96.45,43.743,95.596,44.789,95.596z"/>
		</g>
		<g>
			<path fill="#FFFFFF" d="M17.38,49.908c1.049,0,1.898,0.844,1.898,1.887c0,1.054-0.85,1.897-1.898,1.897
				c-1.045,0-1.894-0.844-1.894-1.897C15.486,50.752,16.335,49.908,17.38,49.908z"/>
		</g>
		<g>
			<path fill="#FFFFFF" d="M51.158,76.639c1.046,0,1.896,0.843,1.896,1.885c0,1.055-0.85,1.898-1.896,1.898
				c-1.048,0-1.895-0.844-1.895-1.898C49.263,77.481,50.11,76.639,51.158,76.639z"/>
		</g>
		<g>
			<path fill="#FFFFFF" d="M49.339,57.639c1.048,0,1.895,0.855,1.895,1.898c0,1.044-0.847,1.896-1.895,1.896
				c-1.046,0-1.893-0.853-1.893-1.896C47.446,58.494,48.293,57.639,49.339,57.639z"/>
		</g>
		<g>
			<path fill="#FFFFFF" d="M17.062,99.791c1.048,0,1.895,0.845,1.895,1.894c0,1.048-0.847,1.902-1.895,1.902
				c-1.045,0-1.893-0.854-1.893-1.902C15.169,100.636,16.016,99.791,17.062,99.791z"/>
		</g>
		<g>
			<path fill="#FFFFFF" d="M38.52,78.612c1.048,0,1.897,0.85,1.897,1.902c0,1.042-0.849,1.886-1.897,1.886
				c-1.043,0-1.892-0.844-1.892-1.886C36.628,79.462,37.477,78.612,38.52,78.612z"/>
		</g>
		<g>
			<path fill="#FFFFFF" d="M53.118,59.795c1.048,0,1.895,0.844,1.895,1.888c0,1.049-0.846,1.892-1.895,1.892
				c-1.046,0-1.893-0.843-1.893-1.892C51.225,60.639,52.072,59.795,53.118,59.795z"/>
		</g>
		<g>
			<path fill="#FFFFFF" d="M47.61,106.738c1.048,0,1.895,0.844,1.895,1.897c0,1.043-0.847,1.892-1.895,1.892
				c-1.046,0-1.896-0.849-1.896-1.892C45.715,107.582,46.565,106.738,47.61,106.738z"/>
		</g>
		<g>
			<path fill="#FFFFFF" d="M23.661,92.935c1.043,0,1.892,0.848,1.892,1.89c0,1.044-0.85,1.893-1.892,1.893
				c-1.048,0-1.897-0.849-1.897-1.893C21.763,93.782,22.613,92.935,23.661,92.935z"/>
		</g>
		<g>
			<path fill="#FFFFFF" d="M31.72,120.653c1.039-0.142,1.992,0.58,2.134,1.618c0.143,1.045-0.583,1.991-1.622,2.133
				c-1.039,0.142-1.991-0.575-2.133-1.619C29.957,121.747,30.682,120.796,31.72,120.653z"/>
		</g>
		<g>
			<path fill="#FFFFFF" d="M33.285,130.05c1.039-0.144,1.992,0.578,2.134,1.617c0.143,1.044-0.583,1.989-1.622,2.131
				c-1.039,0.142-1.991-0.575-2.134-1.618C31.522,131.141,32.246,130.189,33.285,130.05z"/>
		</g>
		<g>
			<path fill="#FFFFFF" d="M43.463,69.176c1.045,0,1.892,0.844,1.892,1.892c0,1.043-0.847,1.895-1.892,1.895
				c-1.049,0-1.896-0.851-1.896-1.895C41.567,70.019,42.414,69.176,43.463,69.176z"/>
		</g>
		<g>
			<path fill="#FFFFFF" d="M53.201,66.553c1.048,0,1.897,0.844,1.897,1.897c0,1.042-0.85,1.892-1.897,1.892
				c-1.045,0-1.895-0.85-1.895-1.892C51.306,67.396,52.156,66.553,53.201,66.553z"/>
		</g>
		<g>
			<path fill="#FFFFFF" d="M21.368,118.609c1.043,0,1.893,0.845,1.893,1.893c0,1.049-0.849,1.894-1.893,1.894
				c-1.048,0-1.897-0.845-1.897-1.894C19.47,119.454,20.319,118.609,21.368,118.609z"/>
		</g>
		<g>
			<path fill="#FFFFFF" d="M39.496,94.233c1.048,0,1.897,0.85,1.897,1.903c0,1.043-0.85,1.887-1.897,1.887
				c-1.043,0-1.892-0.844-1.892-1.887C37.603,95.083,38.452,94.233,39.496,94.233z"/>
		</g>
		<g>
			<path fill="#FFFFFF" d="M53.5,51.802c1.048,0,1.895,0.854,1.895,1.897c0,1.053-0.847,1.898-1.895,1.898
				c-1.046,0-1.895-0.845-1.895-1.898C51.605,52.656,52.454,51.802,53.5,51.802z"/>
		</g>
		<g>
			<path fill="#FFFFFF" d="M47.038,49.914c1.042,0,1.892,0.85,1.892,1.903c0,1.036-0.849,1.886-1.892,1.886
				c-1.048,0-1.897-0.85-1.897-1.886C45.14,50.764,45.989,49.914,47.038,49.914z"/>
		</g>
		<g>
			<path fill="#FFFFFF" d="M41.925,104.42c1.048,0,1.895,0.85,1.895,1.894c0,1.048-0.846,1.897-1.895,1.897
				c-1.046,0-1.892-0.85-1.892-1.897C40.033,105.269,40.879,104.42,41.925,104.42z"/>
		</g>
		<g>
			<path fill="#FFFFFF" d="M15.648,62.382c1.042,0,1.892,0.843,1.892,1.892c0,1.043-0.85,1.893-1.892,1.893
				c-1.049,0-1.898-0.85-1.898-1.893C13.75,63.225,14.599,62.382,15.648,62.382z"/>
		</g>
		<g>
			<path fill="#FFFFFF" d="M39.818,45.099c1.045,0,1.895,0.843,1.895,1.896c0,1.044-0.85,1.888-1.895,1.888
				c-1.048,0-1.896-0.844-1.896-1.888C37.922,45.941,38.77,45.099,39.818,45.099z"/>
		</g>
		<g>
			<path fill="#FFFFFF" d="M43.438,7.437c1.049,0,1.896,0.855,1.896,1.898c0,1.05-0.847,1.898-1.896,1.898
				c-1.045,0-1.892-0.848-1.892-1.898C41.546,8.293,42.393,7.437,43.438,7.437z"/>
		</g>
		<g>
			<path fill="#FFFFFF" d="M29.999,65.386c1.048,0,1.895,0.843,1.895,1.891c0,1.055-0.847,1.897-1.895,1.897
				c-1.046,0-1.893-0.843-1.893-1.897C28.107,66.228,28.953,65.386,29.999,65.386z"/>
		</g>
		<g>
			<path fill="#FFFFFF" d="M33.829,30.595c1.046,0,1.895,0.85,1.895,1.898c0,1.045-0.85,1.888-1.895,1.888
				c-1.048,0-1.894-0.843-1.894-1.888C31.935,31.444,32.781,30.595,33.829,30.595z"/>
		</g>
		<g>
			<path fill="#FFFFFF" d="M51.712,46.699c1.045,0,1.893,0.844,1.893,1.888c0,1.054-0.847,1.896-1.893,1.896
				c-1.048,0-1.895-0.843-1.895-1.896C49.817,47.543,50.664,46.699,51.712,46.699z"/>
		</g>
		<g>
			<path fill="#FFFFFF" d="M28.845,57.139c1.048,0,1.895,0.85,1.895,1.893c0,1.049-0.847,1.892-1.895,1.892
				c-1.045,0-1.892-0.843-1.892-1.892C26.953,57.988,27.8,57.139,28.845,57.139z"/>
		</g>
		<g>
			<path fill="#FFFFFF" d="M49.478,54.01c1.046,0,1.892,0.844,1.892,1.898c0,1.044-0.847,1.894-1.892,1.894
				c-1.049,0-1.895-0.85-1.895-1.894C47.583,54.853,48.429,54.01,49.478,54.01z"/>
		</g>
		<g>
			<path fill="#FFFFFF" d="M29.317,71.807c1.046,0,1.893,0.854,1.893,1.896c0,1.044-0.847,1.894-1.893,1.894
				c-1.048,0-1.895-0.85-1.895-1.894C27.422,72.66,28.269,71.807,29.317,71.807z"/>
		</g>
		<g>
			<path fill="#FFFFFF" d="M45.64,100.749c1.045,0,1.895,0.843,1.895,1.887c0,1.054-0.85,1.898-1.895,1.898
				c-1.046,0-1.895-0.845-1.895-1.898C43.745,101.592,44.594,100.749,45.64,100.749z"/>
		</g>
		<g>
			<path fill="#FFFFFF" d="M37.02,83.508c1.042,0,1.892,0.856,1.892,1.898c0,1.049-0.849,1.893-1.892,1.893
				c-1.049,0-1.899-0.844-1.899-1.893C35.122,84.364,35.971,83.508,37.02,83.508z"/>
		</g>
		<g>
			<path fill="#FFFFFF" d="M125.269,59.382c1.049,0,1.896,0.854,1.896,1.901c0,1.039-0.847,1.889-1.896,1.889
				c-1.045,0-1.895-0.85-1.895-1.889C123.375,60.235,124.224,59.382,125.269,59.382z"/>
		</g>
		<g>
			<path fill="#FFFFFF" d="M84.184,95.039c1.045,0,1.895,0.845,1.895,1.894c0,1.042-0.85,1.892-1.895,1.892
				c-1.046,0-1.896-0.85-1.896-1.892C82.288,95.884,83.137,95.039,84.184,95.039z"/>
		</g>
		<g>
			<path fill="#FFFFFF" d="M81.996,90.884c1.048,0,1.897,0.845,1.897,1.892c0,1.049-0.849,1.888-1.897,1.888
				c-1.043,0-1.895-0.839-1.895-1.888C80.102,91.728,80.953,90.884,81.996,90.884z"/>
		</g>
		<g>
			<path fill="#FFFFFF" d="M63.745,49.807c1.045,0,1.895,0.85,1.895,1.893c0,1.048-0.849,1.898-1.895,1.898
				c-1.046,0-1.898-0.85-1.898-1.898C61.847,50.656,62.699,49.807,63.745,49.807z"/>
		</g>
		<g>
			<path fill="#FFFFFF" d="M85.262,38.141c1.048,0,1.895,0.844,1.895,1.888c0,1.048-0.847,1.897-1.895,1.897
				c-1.049,0-1.895-0.85-1.895-1.897C83.367,38.984,84.213,38.141,85.262,38.141z"/>
		</g>
		<g>
			<path fill="#FFFFFF" d="M70.484,99.324c1.048,0,1.897,0.85,1.897,1.898c0,1.047-0.85,1.886-1.897,1.886
				c-1.046,0-1.896-0.839-1.896-1.886C68.588,100.174,69.438,99.324,70.484,99.324z"/>
		</g>
		<g>
			<path fill="#FFFFFF" d="M89.747,40.824c1.045,0,1.892,0.85,1.892,1.888c0,1.055-0.847,1.904-1.892,1.904
				c-1.049,0-1.896-0.85-1.896-1.904C87.852,41.674,88.698,40.824,89.747,40.824z"/>
		</g>
		<g>
			<path fill="#FFFFFF" d="M93.067,43.202c1.045,0,1.892,0.85,1.892,1.888c0,1.053-0.846,1.902-1.892,1.902
				c-1.049,0-1.896-0.85-1.896-1.902C91.171,44.052,92.018,43.202,93.067,43.202z"/>
		</g>
		<g>
			<ellipse fill="#FFFFFF" cx="70.758" cy="115.607" rx="1.895" ry="1.9"/>
		</g>
		<g>
			<path fill="#FFFFFF" d="M77.79,105.033c1.045,0,1.895,0.849,1.895,1.897c0,1.042-0.849,1.892-1.895,1.892
				c-1.049,0-1.896-0.85-1.896-1.892C75.894,105.882,76.741,105.033,77.79,105.033z"/>
		</g>
		<g>
			<path fill="#FFFFFF" d="M99.508,31.851c1.043,0,1.893,0.85,1.893,1.897c0,1.043-0.849,1.9-1.893,1.9
				c-1.048,0-1.897-0.857-1.897-1.9C97.61,32.7,98.46,31.851,99.508,31.851z"/>
		</g>
		<g>
			<path fill="#FFFFFF" d="M96.003,19.355c1.043,0,1.892,0.85,1.892,1.898c0,1.044-0.85,1.896-1.892,1.896
				c-1.048,0-1.898-0.853-1.898-1.896C94.106,20.205,94.955,19.355,96.003,19.355z"/>
		</g>
		<g>
			<path fill="#FFFFFF" d="M65.992,114.56c1.048,0,1.897,0.844,1.897,1.893c0,1.049-0.849,1.894-1.897,1.894
				c-1.043,0-1.893-0.845-1.893-1.894C64.1,115.404,64.949,114.56,65.992,114.56z"/>
		</g>
		<g>
			<path fill="#FFFFFF" d="M94.964,96.72c1.043,0,1.893,0.854,1.893,1.903c0,1.037-0.849,1.887-1.893,1.887
				c-1.048,0-1.898-0.85-1.898-1.887C93.066,97.574,93.916,96.72,94.964,96.72z"/>
		</g>
		<g>
			<path fill="#FFFFFF" d="M94.384,92.56c1.044,0,1.893,0.855,1.893,1.903c0,1.038-0.849,1.887-1.893,1.887
				c-1.048,0-1.897-0.849-1.897-1.887C92.487,93.416,93.337,92.56,94.384,92.56z"/>
		</g>
		<g>
			<path fill="#FFFFFF" d="M70.894,29.001c1.049,0,1.896,0.846,1.896,1.888c0,1.053-0.847,1.897-1.896,1.897
				c-1.048,0-1.895-0.845-1.895-1.897C68.999,29.847,69.845,29.001,70.894,29.001z"/>
		</g>
		<g>
			<path fill="#FFFFFF" d="M53.151,2.537c1.048,0,1.895,0.852,1.895,1.895c0,1.049-0.847,1.898-1.895,1.898
				c-1.046,0-1.896-0.85-1.896-1.898C51.255,3.389,52.105,2.537,53.151,2.537z"/>
		</g>
		<g>
			<path fill="#FFFFFF" d="M57.004,50.441c1.048,0,1.895,0.844,1.895,1.892c0,1.049-0.847,1.898-1.895,1.898
				c-1.046,0-1.896-0.85-1.896-1.898C55.108,51.285,55.958,50.441,57.004,50.441z"/>
		</g>
		<g>
			<path fill="#FFFFFF" d="M111.376,102.798c1.048,0,1.895,0.843,1.895,1.896c0,1.044-0.847,1.893-1.895,1.893
				c-1.045,0-1.895-0.849-1.895-1.893C109.481,103.641,110.33,102.798,111.376,102.798z"/>
		</g>
		<g>
			<path fill="#FFFFFF" d="M101.725,103.752c1.048,0,1.898,0.85,1.898,1.904c0,1.042-0.85,1.896-1.898,1.896
				c-1.043,0-1.892-0.854-1.892-1.896C99.833,104.602,100.682,103.752,101.725,103.752z"/>
		</g>
		<g>
			<path fill="#FFFFFF" d="M78.462,32.453c1.043,0,1.893,0.845,1.893,1.897c0,1.048-0.849,1.888-1.893,1.888
				c-1.048,0-1.897-0.84-1.897-1.888C76.564,33.298,77.414,32.453,78.462,32.453z"/>
		</g>
		<g>
			<path fill="#FFFFFF" d="M98.396,90.118c1.045,0,1.895,0.854,1.895,1.898c0,1.053-0.85,1.897-1.895,1.897
				c-1.049,0-1.896-0.845-1.896-1.897C96.501,90.973,97.347,90.118,98.396,90.118z"/>
		</g>
		<g>
			<path fill="#FFFFFF" d="M58.754,94.861c1.046,0,1.895,0.85,1.895,1.898c0,1.043-0.849,1.898-1.895,1.898
				c-1.048,0-1.898-0.855-1.898-1.898C56.856,95.711,57.705,94.861,58.754,94.861z"/>
		</g>
		<g>
			<path fill="#FFFFFF" d="M94.606,93.415c1.048,0,1.895,0.854,1.895,1.902c0,1.038-0.847,1.892-1.895,1.892
				c-1.046,0-1.893-0.854-1.893-1.892C92.713,94.269,93.56,93.415,94.606,93.415z"/>
		</g>
		<g>
			<path fill="#FFFFFF" d="M118.257,40.329c1.048,0,1.895,0.843,1.895,1.896c0,1.048-0.846,1.889-1.895,1.889
				c-1.045,0-1.895-0.841-1.895-1.889C116.362,41.172,117.212,40.329,118.257,40.329z"/>
		</g>
		<g>
			<path fill="#FFFFFF" d="M122.95,41.914c1.049,0,1.895,0.844,1.895,1.896c0,1.049-0.846,1.888-1.895,1.888
				c-1.045,0-1.895-0.839-1.895-1.888C121.056,42.758,121.905,41.914,122.95,41.914z"/>
		</g>
		<g>
			<path fill="#FFFFFF" d="M68.72,62.945c1.048,0,1.898,0.85,1.898,1.898c0,1.041-0.85,1.891-1.898,1.891
				c-1.045,0-1.895-0.85-1.895-1.891C66.825,63.795,67.675,62.945,68.72,62.945z"/>
		</g>
		<g>
			<path fill="#FFFFFF" d="M70.696,10.003c1.045,0,1.895,0.844,1.895,1.893c0,1.047-0.85,1.892-1.895,1.892
				c-1.049,0-1.896-0.845-1.896-1.892C68.801,10.847,69.648,10.003,70.696,10.003z"/>
		</g>
		<g>
			<path fill="#FFFFFF" d="M72.113,95.588c1.043,0,1.895,0.845,1.895,1.898c0,1.043-0.852,1.888-1.895,1.888
				c-1.048,0-1.898-0.845-1.898-1.888C70.215,96.433,71.065,95.588,72.113,95.588z"/>
		</g>
		<g>
			<path fill="#FFFFFF" d="M75.285,66.229c1.045,0,1.892,0.85,1.892,1.894c0,1.048-0.847,1.896-1.892,1.896
				c-1.049,0-1.898-0.849-1.898-1.896C73.387,67.079,74.236,66.229,75.285,66.229z"/>
		</g>
		<g>
			<path fill="#FFFFFF" d="M78.991,7.437c1.048,0,1.895,0.855,1.895,1.898c0,1.055-0.847,1.898-1.895,1.898
				c-1.046,0-1.895-0.843-1.895-1.898C77.096,8.293,77.946,7.437,78.991,7.437z"/>
		</g>
		<g>
			<path fill="#FFFFFF" d="M70.093,55.994c1.048,0,1.895,0.85,1.895,1.903c0,1.047-0.847,1.887-1.895,1.887
				c-1.046,0-1.895-0.84-1.895-1.887C68.198,56.844,69.047,55.994,70.093,55.994z"/>
		</g>
		<g>
			<circle fill="#FFFFFF" cx="63.189" cy="104.812" r="1.893"/>
		</g>
		<g>
			<path fill="#FFFFFF" d="M84.212,75.763c1.048,0,1.895,0.843,1.895,1.896c0,1.044-0.847,1.894-1.895,1.894
				c-1.046,0-1.898-0.85-1.898-1.894C82.314,76.605,83.167,75.763,84.212,75.763z"/>
		</g>
		<g>
			<path fill="#FFFFFF" d="M104.212,23.355c1.046,0,1.898,0.85,1.898,1.894c0,1.049-0.852,1.898-1.898,1.898
				c-1.046,0-1.895-0.85-1.895-1.898C102.317,24.205,103.167,23.355,104.212,23.355z"/>
		</g>
		<g>
			<path fill="#FFFFFF" d="M103.03,25.674c1.045,0,1.898,0.85,1.898,1.893c0,1.048-0.853,1.897-1.898,1.897
				c-1.045,0-1.895-0.85-1.895-1.897C101.135,26.523,101.984,25.674,103.03,25.674z"/>
		</g>
		<g>
			<path fill="#FFFFFF" d="M111.016,117.373c1.045,0,1.895,0.854,1.895,1.896c0,1.055-0.85,1.898-1.895,1.898
				c-1.049,0-1.896-0.844-1.896-1.898C109.12,118.227,109.967,117.373,111.016,117.373z"/>
		</g>
		<g>
			<circle fill="#FFFFFF" cx="49.477" cy="128.77" r="1.898"/>
		</g>
		<g>
			<path fill="#FFFFFF" d="M57.724,59.672c1.046,0,1.896,0.844,1.896,1.892c0,1.049-0.849,1.903-1.896,1.903
				c-1.045,0-1.895-0.854-1.895-1.903C55.829,60.516,56.678,59.672,57.724,59.672z"/>
		</g>
		<g>
			<path fill="#FFFFFF" d="M67.105,78.503c1.046,0,1.895,0.844,1.895,1.893c0,1.042-0.849,1.892-1.895,1.892
				c-1.048,0-1.895-0.85-1.895-1.892C65.21,79.347,66.057,78.503,67.105,78.503z"/>
		</g>
		<g>
			<path fill="#FFFFFF" d="M88.837,22.56c1.046,0,1.895,0.85,1.895,1.899c0,1.043-0.849,1.893-1.895,1.893
				c-1.049,0-1.898-0.85-1.898-1.893C86.939,23.41,87.789,22.56,88.837,22.56z"/>
		</g>
		<g>
			<path fill="#FFFFFF" d="M59.986,32.824c1.043,0,1.895,0.844,1.895,1.887c0,1.054-0.852,1.896-1.895,1.896
				c-1.048,0-1.898-0.843-1.898-1.896C58.088,33.668,58.938,32.824,59.986,32.824z"/>
		</g>
		<g>
			<path fill="#FFFFFF" d="M90.068,110.179c1.045,0,1.895,0.849,1.895,1.892c0,1.055-0.85,1.897-1.895,1.897
				c-1.048,0-1.895-0.843-1.895-1.897C88.173,111.027,89.02,110.179,90.068,110.179z"/>
		</g>
		<g>
			<path fill="#FFFFFF" d="M94.216,34.497c1.046,0,1.893,0.85,1.893,1.896c0,1.044-0.847,1.898-1.893,1.898
				c-1.048,0-1.895-0.854-1.895-1.898C92.321,35.347,93.168,34.497,94.216,34.497z"/>
		</g>
		<g>
			<path fill="#FFFFFF" d="M93.862,126.983c1.045,0,1.895,0.851,1.895,1.893c0,1.048-0.85,1.904-1.895,1.904
				c-1.046,0-1.896-0.856-1.896-1.904C91.967,127.834,92.816,126.983,93.862,126.983z"/>
		</g>
		<g>
			<circle fill="#FFFFFF" cx="94.461" cy="39.753" r="1.893"/>
		</g>
		<g>
			<path fill="#FFFFFF" d="M90.351,105.147c1.045,0,1.895,0.843,1.895,1.892c0,1.048-0.85,1.897-1.895,1.897
				c-1.049,0-1.898-0.85-1.898-1.897C88.453,105.99,89.302,105.147,90.351,105.147z"/>
		</g>
		<g>
			<path fill="#FFFFFF" d="M83.972,18.368c1.045,0,1.895,0.854,1.895,1.903c0,1.044-0.849,1.896-1.895,1.896
				c-1.049,0-1.895-0.853-1.895-1.896C82.077,19.223,82.923,18.368,83.972,18.368z"/>
		</g>
		<g>
			<path fill="#FFFFFF" d="M114.005,22.039c1.045,0,1.892,0.85,1.892,1.897c0,1.043-0.847,1.893-1.892,1.893
				c-1.048,0-1.896-0.85-1.896-1.893C112.109,22.889,112.957,22.039,114.005,22.039z"/>
		</g>
		<g>
			<path fill="#FFFFFF" d="M77.395,96.835c1.045,0,1.892,0.85,1.892,1.893c0,1.042-0.847,1.892-1.892,1.892
				c-1.048,0-1.895-0.85-1.895-1.892C75.5,97.685,76.346,96.835,77.395,96.835z"/>
		</g>
		<g>
			<path fill="#FFFFFF" d="M63.599,93.063c1.048,0,1.896,0.843,1.896,1.887c0,1.053-0.847,1.897-1.896,1.897
				c-1.045,0-1.895-0.845-1.895-1.897C61.704,93.906,62.554,93.063,63.599,93.063z"/>
		</g>
		<g>
			<path fill="#FFFFFF" d="M71.247,15.466c1.045,0,1.895,0.85,1.895,1.892c0,1.047-0.85,1.898-1.895,1.898
				c-1.046,0-1.895-0.851-1.895-1.898C69.352,16.315,70.201,15.466,71.247,15.466z"/>
		</g>
		<g>
			<path fill="#FFFFFF" d="M71.461,104.451c1.043,0,1.893,0.85,1.893,1.893c0,1.049-0.849,1.892-1.893,1.892
				c-1.048,0-1.897-0.843-1.897-1.892C69.563,105.301,70.413,104.451,71.461,104.451z"/>
		</g>
		<g>
			<path fill="#FFFFFF" d="M66.329,108.256c1.049,0,1.896,0.845,1.896,1.893c0,1.042-0.847,1.886-1.896,1.886
				c-1.046,0-1.892-0.844-1.892-1.886C64.437,109.101,65.283,108.256,66.329,108.256z"/>
		</g>
		<g>
			<path fill="#FFFFFF" d="M121.151,108.452c1.046,0,1.895,0.854,1.895,1.898c0,1.054-0.849,1.897-1.895,1.897
				c-1.048,0-1.895-0.844-1.895-1.897C119.256,109.307,120.103,108.452,121.151,108.452z"/>
		</g>
		<g>
			<path fill="#FFFFFF" d="M57.458,84.233c1.048,0,1.895,0.845,1.895,1.894c0,1.041-0.847,1.896-1.895,1.896
				c-1.046,0-1.896-0.855-1.896-1.896C55.563,85.078,56.412,84.233,57.458,84.233z"/>
		</g>
		<g>
			<path fill="#FFFFFF" d="M76.857,70.326c1.045,0,1.895,0.85,1.895,1.893c0,1.049-0.849,1.898-1.895,1.898s-1.895-0.85-1.895-1.898
				C74.962,71.176,75.812,70.326,76.857,70.326z"/>
		</g>
		<g>
			<path fill="#FFFFFF" d="M88.95,83.579c1.049,0,1.895,0.849,1.895,1.897c0,1.049-0.846,1.888-1.895,1.888
				c-1.045,0-1.895-0.839-1.895-1.888C87.056,84.428,87.905,83.579,88.95,83.579z"/>
		</g>
		<g>
			<path fill="#FFFFFF" d="M126.257,110.471c1.046,0,1.893,0.855,1.893,1.897c0,1.045-0.847,1.898-1.893,1.898
				c-1.048,0-1.895-0.854-1.895-1.898C124.362,111.326,125.209,110.471,126.257,110.471z"/>
		</g>
		<g>
			<path fill="#FFFFFF" d="M107.408,29.464c1.046,0,1.895,0.854,1.895,1.897c0,1.043-0.85,1.898-1.895,1.898
				c-1.048,0-1.895-0.855-1.895-1.898C105.513,30.317,106.36,29.464,107.408,29.464z"/>
		</g>
		<g>
			<path fill="#FFFFFF" d="M94.78,101.566c1.045,0,1.895,0.85,1.895,1.898c0,1.042-0.85,1.892-1.895,1.892
				c-1.049,0-1.896-0.85-1.896-1.892C92.885,102.416,93.732,101.566,94.78,101.566z"/>
		</g>
		<g>
			<path fill="#FFFFFF" d="M55.861,100.506c1.045,0,1.895,0.845,1.895,1.896c0,1.039-0.85,1.894-1.895,1.894
				c-1.045,0-1.895-0.854-1.895-1.894C53.967,101.351,54.816,100.506,55.861,100.506z"/>
		</g>
		<g>
			<path fill="#FFFFFF" d="M82.719,83.674c1.048,0,1.895,0.85,1.895,1.898c0,1.044-0.847,1.894-1.895,1.894
				c-1.045,0-1.892-0.85-1.892-1.894C80.827,84.523,81.674,83.674,82.719,83.674z"/>
		</g>
		<g>
			<path fill="#FFFFFF" d="M57.396,43.635c1.049,0,1.896,0.849,1.896,1.892c0,1.048-0.847,1.897-1.896,1.897
				c-1.045,0-1.895-0.85-1.895-1.897C55.501,44.483,56.351,43.635,57.396,43.635z"/>
		</g>
		<g>
			<circle fill="#FFFFFF" cx="121.056" cy="45.705" r="1.895"/>
		</g>
		<g>
			<path fill="#FFFFFF" d="M73.009,2.619c1.045,0,1.892,0.85,1.892,1.898c0,1.042-0.847,1.892-1.892,1.892
				c-1.048,0-1.897-0.85-1.897-1.892C71.111,3.469,71.961,2.619,73.009,2.619z"/>
		</g>
		<g>
			<circle fill="#FFFFFF" cx="91.518" cy="99.54" r="1.892"/>
		</g>
		<g>
			<path fill="#FFFFFF" d="M105.887,115.941c1.046,0,1.893,0.85,1.893,1.894c0,1.054-0.847,1.897-1.893,1.897
				c-1.048,0-1.896-0.844-1.896-1.897C103.991,116.791,104.838,115.941,105.887,115.941z"/>
		</g>
		<g>
			<path fill="#FFFFFF" d="M108.287,122.221c1.048,0,1.895,0.845,1.895,1.887c0,1.056-0.847,1.899-1.895,1.899
				c-1.046,0-1.895-0.843-1.895-1.899C106.392,123.065,107.241,122.221,108.287,122.221z"/>
		</g>
		<g>
			<path fill="#FFFFFF" d="M82.934,14.256c1.043,0,1.893,0.854,1.893,1.902c0,1.038-0.849,1.893-1.893,1.893
				c-1.048,0-1.897-0.854-1.897-1.893C81.037,15.109,81.886,14.256,82.934,14.256z"/>
		</g>
		<g>
			<path fill="#FFFFFF" d="M115.607,114.384c1.046,0,1.892,0.85,1.892,1.898c0,1.048-0.846,1.892-1.892,1.892
				c-1.048,0-1.895-0.844-1.895-1.892C113.712,115.233,114.558,114.384,115.607,114.384z"/>
		</g>
		<g>
			<path fill="#FFFFFF" d="M78.435,26.232c1.048,0,1.896,0.856,1.896,1.899c0,1.049-0.847,1.892-1.896,1.892
				c-1.045,0-1.892-0.844-1.892-1.892C76.543,27.088,77.389,26.232,78.435,26.232z"/>
		</g>
		<g>
			<path fill="#FFFFFF" d="M61.5,59.816c1.046,0,1.893,0.85,1.893,1.897c0,1.038-0.846,1.892-1.893,1.892
				c-1.048,0-1.895-0.854-1.895-1.892C59.606,60.666,60.452,59.816,61.5,59.816z"/>
		</g>
		<g>
			<path fill="#FFFFFF" d="M123.857,45.242c1.048,0,1.897,0.845,1.897,1.893c0,1.048-0.849,1.892-1.897,1.892
				c-1.046,0-1.894-0.844-1.894-1.892C121.962,46.087,122.811,45.242,123.857,45.242z"/>
		</g>
		<g>
			<path fill="#FFFFFF" d="M90.068,93.028c1.045,0,1.895,0.855,1.895,1.904c0,1.048-0.85,1.892-1.895,1.892
				c-1.045,0-1.895-0.844-1.895-1.892C88.173,93.884,89.023,93.028,90.068,93.028z"/>
		</g>
		<g>
			<path fill="#FFFFFF" d="M90.622,28.889c1.043,0,1.895,0.849,1.895,1.902c0,1.038-0.852,1.888-1.895,1.888
				c-1.048,0-1.897-0.85-1.897-1.888C88.725,29.737,89.574,28.889,90.622,28.889z"/>
		</g>
		<g>
			<path fill="#FFFFFF" d="M121.965,37.187c1.043,0,1.896,0.851,1.896,1.904c0,1.038-0.852,1.888-1.896,1.888
				c-1.048,0-1.897-0.85-1.897-1.888C120.067,38.038,120.917,37.187,121.965,37.187z"/>
		</g>
		<g>
			<path fill="#FFFFFF" d="M104.872,94.769c1.048,0,1.897,0.845,1.897,1.893c0,1.043-0.85,1.896-1.897,1.896
				c-1.045,0-1.895-0.854-1.895-1.896C102.977,95.614,103.827,94.769,104.872,94.769z"/>
		</g>
		<g>
			<path fill="#FFFFFF" d="M93.694,21.298c1.045,0,1.895,0.85,1.895,1.892c0,1.049-0.849,1.898-1.895,1.898
				c-1.045,0-1.895-0.85-1.895-1.898C91.799,22.147,92.649,21.298,93.694,21.298z"/>
		</g>
		<g>
			<path fill="#FFFFFF" d="M94.697,106.915c1.049,0,1.896,0.839,1.896,1.887c0,1.049-0.847,1.898-1.896,1.898
				c-1.048,0-1.895-0.85-1.895-1.898C92.802,107.754,93.649,106.915,94.697,106.915z"/>
		</g>
		<g>
			<path fill="#FFFFFF" d="M98.461,14.594c1.049,0,1.896,0.839,1.896,1.888c0,1.053-0.847,1.898-1.896,1.898
				c-1.045,0-1.892-0.845-1.892-1.898C96.569,15.433,97.416,14.594,98.461,14.594z"/>
		</g>
		<g>
			<path fill="#FFFFFF" d="M81.58,123.037c1.048,0,1.895,0.848,1.895,1.897c0,1.042-0.847,1.892-1.895,1.892
				c-1.046,0-1.893-0.85-1.893-1.892C79.687,123.885,80.533,123.037,81.58,123.037z"/>
		</g>
		<g>
			<circle fill="#FFFFFF" cx="128.726" cy="49.699" r="1.895"/>
		</g>
		<g>
			<path fill="#FFFFFF" d="M115.287,108.307c1.046,0,1.895,0.85,1.895,1.898c0,1.043-0.849,1.894-1.895,1.894
				c-1.049,0-1.896-0.851-1.896-1.894C113.392,109.156,114.238,108.307,115.287,108.307z"/>
		</g>
		<g>
			<path fill="#FFFFFF" d="M115.606,104.286c1.045,0,1.895,0.85,1.895,1.897c0,1.043-0.849,1.893-1.895,1.893
				c-1.049,0-1.896-0.85-1.896-1.893C113.71,105.136,114.557,104.286,115.606,104.286z"/>
		</g>
		<g>
			<path fill="#FFFFFF" d="M78.496,78.787c1.049,0,1.896,0.85,1.896,1.894c0,1.053-0.847,1.897-1.896,1.897
				c-1.046,0-1.892-0.845-1.892-1.897C76.604,79.637,77.45,78.787,78.496,78.787z"/>
		</g>
		<g>
			<path fill="#FFFFFF" d="M92.322,116.687c1.045,0,1.892,0.854,1.892,1.902c0,1.044-0.847,1.894-1.892,1.894
				c-1.048,0-1.895-0.85-1.895-1.894C90.427,117.541,91.275,116.687,92.322,116.687z"/>
		</g>
		<g>
			<path fill="#FFFFFF" d="M68.543,47.376c1.046,0,1.893,0.855,1.893,1.897c0,1.049-0.847,1.894-1.893,1.894
				c-1.048,0-1.897-0.845-1.897-1.894C66.645,48.231,67.495,47.376,68.543,47.376z"/>
		</g>
		<g>
			<path fill="#FFFFFF" d="M70.114,52.282c1.046,0,1.893,0.854,1.893,1.898c0,1.048-0.847,1.893-1.893,1.893
				c-1.048,0-1.897-0.845-1.897-1.893C68.216,53.137,69.066,52.282,70.114,52.282z"/>
		</g>
		<g>
			<path fill="#FFFFFF" d="M125.957,40.166c1.048,0,1.895,0.854,1.895,1.898c0,1.047-0.847,1.892-1.895,1.892
				c-1.046,0-1.893-0.845-1.893-1.892C124.065,41.019,124.911,40.166,125.957,40.166z"/>
		</g>
		<g>
			<path fill="#FFFFFF" d="M119.501,28.162c1.046,0,1.893,0.85,1.893,1.893c0,1.053-0.847,1.897-1.893,1.897
				c-1.048,0-1.895-0.845-1.895-1.897C117.606,29.012,118.453,28.162,119.501,28.162z"/>
		</g>
		<g>
			<path fill="#FFFFFF" d="M117.608,34.012c1.046,0,1.892,0.849,1.892,1.893c0,1.053-0.847,1.897-1.892,1.897
				c-1.048,0-1.895-0.845-1.895-1.897C115.712,34.86,116.559,34.012,117.608,34.012z"/>
		</g>
		<g>
			<path fill="#FFFFFF" d="M75.256,24.637c1.045,0,1.892,0.849,1.892,1.902c0,1.043-0.847,1.887-1.892,1.887
				c-1.049,0-1.896-0.844-1.896-1.887C73.361,25.485,74.208,24.637,75.256,24.637z"/>
		</g>
		<g>
			<path fill="#FFFFFF" d="M108.053,38.63c1.048,0,1.897,0.845,1.897,1.897c0,1.043-0.849,1.888-1.897,1.888
				c-1.046,0-1.895-0.845-1.895-1.888C106.158,39.475,107.007,38.63,108.053,38.63z"/>
		</g>
		<g>
			<path fill="#FFFFFF" d="M128.024,115.473c1.045,0,1.895,0.854,1.895,1.897s-0.85,1.893-1.895,1.893
				c-1.048,0-1.895-0.85-1.895-1.893S126.976,115.473,128.024,115.473z"/>
		</g>
		<g>
			<path fill="#FFFFFF" d="M99.03,22.787c1.045,0,1.895,0.854,1.895,1.897c0,1.054-0.85,1.898-1.895,1.898
				c-1.048,0-1.895-0.845-1.895-1.898C97.135,23.641,97.982,22.787,99.03,22.787z"/>
		</g>
		<g>
			<circle fill="#FFFFFF" cx="109.951" cy="48.26" r="1.892"/>
		</g>
		<g>
			<path fill="#FFFFFF" d="M64.416,97.899c1.048,0,1.895,0.85,1.895,1.903c0,1.037-0.847,1.887-1.895,1.887
				c-1.045,0-1.895-0.85-1.895-1.887C62.521,98.749,63.371,97.899,64.416,97.899z"/>
		</g>
		<g>
			<path fill="#FFFFFF" d="M124.587,55.546c1.048,0,1.897,0.847,1.897,1.891c0,1.048-0.849,1.893-1.897,1.893
				c-1.046,0-1.896-0.845-1.896-1.893C122.692,56.393,123.542,55.546,124.587,55.546z"/>
		</g>
		<g>
			<path fill="#FFFFFF" d="M84.104,21.875c1.045,0,1.893,0.85,1.893,1.894c0,1.048-0.847,1.897-1.893,1.897
				c-1.048,0-1.895-0.85-1.895-1.897C82.209,22.725,83.055,21.875,84.104,21.875z"/>
		</g>
		<g>
			<path fill="#FFFFFF" d="M86.03,132.033c1.045,0,1.895,0.843,1.895,1.891c0,1.049-0.849,1.898-1.895,1.898
				c-1.049,0-1.896-0.85-1.896-1.898C84.134,132.876,84.981,132.033,86.03,132.033z"/>
		</g>
		<g>
			<path fill="#FFFFFF" d="M89.001,87.618c1.045,0,1.895,0.849,1.895,1.891c0,1.05-0.849,1.899-1.895,1.899
				c-1.048,0-1.897-0.85-1.897-1.899C87.104,88.467,87.953,87.618,89.001,87.618z"/>
		</g>
		<g>
			<path fill="#FFFFFF" d="M76.297,111.941c1.046,0,1.896,0.85,1.896,1.893c0,1.054-0.85,1.897-1.896,1.897
				c-1.045,0-1.895-0.844-1.895-1.897C74.403,112.791,75.252,111.941,76.297,111.941z"/>
		</g>
		<g>
			<path fill="#FFFFFF" d="M105.057,100.426c1.048,0,1.897,0.844,1.897,1.892c0,1.051-0.85,1.894-1.897,1.894
				c-1.044,0-1.893-0.843-1.893-1.894C103.164,101.269,104.013,100.426,105.057,100.426z"/>
		</g>
		<g>
			<path fill="#FFFFFF" d="M114.241,29.52c1.045,0,1.892,0.85,1.892,1.898c0,1.048-0.847,1.892-1.892,1.892
				c-1.048,0-1.895-0.844-1.895-1.892C112.346,30.37,113.193,29.52,114.241,29.52z"/>
		</g>
		<g>
			<circle fill="#FFFFFF" cx="99.402" cy="110.103" r="1.892"/>
		</g>
		<g>
			<path fill="#FFFFFF" d="M78.139,63.682c1.048,0,1.895,0.839,1.895,1.887c0,1.055-0.847,1.898-1.895,1.898
				c-1.046,0-1.895-0.844-1.895-1.898C76.244,64.52,77.093,63.682,78.139,63.682z"/>
		</g>
		<g>
			<path fill="#FFFFFF" d="M117.072,120.174c1.048,0,1.897,0.844,1.897,1.892c0,1.049-0.85,1.903-1.897,1.903
				c-1.046,0-1.893-0.854-1.893-1.903C115.179,121.018,116.025,120.174,117.072,120.174z"/>
		</g>
		<g>
			<path fill="#FFFFFF" d="M113.364,128.13c1.048,0,1.898,0.843,1.898,1.892c0,1.043-0.85,1.898-1.898,1.898
				c-1.043,0-1.892-0.855-1.892-1.898C111.472,128.973,112.321,128.13,113.364,128.13z"/>
		</g>
		<g>
			<path fill="#FFFFFF" d="M70.11,120.179c1.046,0,1.896,0.849,1.896,1.897c0,1.038-0.85,1.888-1.896,1.888
				c-1.048,0-1.897-0.85-1.897-1.888C68.213,121.027,69.062,120.179,70.11,120.179z"/>
		</g>
		<g>
			<path fill="#FFFFFF" d="M104.64,41.57c1.045,0,1.895,0.845,1.895,1.898c0,1.042-0.85,1.898-1.895,1.898
				c-1.046,0-1.895-0.856-1.895-1.898C102.745,42.415,103.594,41.57,104.64,41.57z"/>
		</g>
		<g>
			<path fill="#FFFFFF" d="M100.291,94.158c1.046,0,1.895,0.844,1.895,1.892c0,1.043-0.849,1.893-1.895,1.893
				c-1.048,0-1.895-0.85-1.895-1.893C98.396,95.002,99.242,94.158,100.291,94.158z"/>
		</g>
		<g>
			<path fill="#FFFFFF" d="M123.72,33.079c1.048,0,1.895,0.838,1.895,1.892c0,1.049-0.847,1.894-1.895,1.894
				c-1.045,0-1.893-0.845-1.893-1.894C121.828,33.917,122.675,33.079,123.72,33.079z"/>
		</g>
		<g>
			<path fill="#FFFFFF" d="M75.034,75.357c1.049,0,1.895,0.85,1.895,1.905c0,1.046-0.846,1.891-1.895,1.891
				c-1.045,0-1.895-0.845-1.895-1.891C73.139,76.207,73.989,75.357,75.034,75.357z"/>
		</g>
		<g>
			<path fill="#FFFFFF" d="M78.524,20.33c1.046,0,1.895,0.844,1.895,1.898c0,1.041-0.849,1.886-1.895,1.886
				c-1.048,0-1.895-0.845-1.895-1.886C76.629,21.174,77.475,20.33,78.524,20.33z"/>
		</g>
		<g>
			<path fill="#FFFFFF" d="M57.748,89.53c1.045,0,1.893,0.849,1.893,1.892c0,1.047-0.847,1.894-1.893,1.894
				c-1.049,0-1.895-0.847-1.895-1.894C55.854,90.379,56.699,89.53,57.748,89.53z"/>
		</g>
		<g>
			<path fill="#FFFFFF" d="M122.701,117.351c1.046,0,1.893,0.842,1.893,1.885c0,1.049-0.847,1.894-1.893,1.894
				c-1.048,0-1.895-0.846-1.895-1.894C120.806,118.192,121.653,117.351,122.701,117.351z"/>
		</g>
		<g>
			<path fill="#FFFFFF" d="M98.317,119.42c1.046,0,1.896,0.845,1.896,1.894c0,1.048-0.85,1.892-1.896,1.892
				c-1.045,0-1.895-0.844-1.895-1.892C96.422,120.265,97.272,119.42,98.317,119.42z"/>
		</g>
		<g>
			<path fill="#FFFFFF" d="M73.604,19.021c1.045,0,1.893,0.855,1.893,1.898c0,1.053-0.847,1.902-1.893,1.902
				c-1.048,0-1.895-0.85-1.895-1.902C71.709,19.877,72.555,19.021,73.604,19.021z"/>
		</g>
		<g>
			<path fill="#FFFFFF" d="M81.305,31.859c1.045,0,1.895,0.844,1.895,1.896c0,1.039-0.85,1.888-1.895,1.888
				c-1.045,0-1.894-0.849-1.894-1.888C79.411,32.703,80.26,31.859,81.305,31.859z"/>
		</g>
		<g>
			<path fill="#FFFFFF" d="M81.417,28.523c1.046,0,1.895,0.845,1.895,1.899c0,1.037-0.85,1.887-1.895,1.887
				c-1.045,0-1.895-0.85-1.895-1.887C79.522,29.368,80.371,28.523,81.417,28.523z"/>
		</g>
		<g>
			<path fill="#FFFFFF" d="M82.375,114.945c1.046,0,1.896,0.85,1.896,1.893c0,1.049-0.85,1.898-1.896,1.898
				c-1.045,0-1.895-0.849-1.895-1.898C80.48,115.795,81.33,114.945,82.375,114.945z"/>
		</g>
		<g>
			<path fill="#FFFFFF" d="M64.554,9.928c1.043,0,1.893,0.844,1.893,1.896c0,1.044-0.849,1.899-1.893,1.899
				c-1.048,0-1.897-0.855-1.897-1.899C62.656,10.771,63.506,9.928,64.554,9.928z"/>
		</g>
		<g>
			<path fill="#FFFFFF" d="M77.621,92.867c1.048,0,1.897,0.855,1.897,1.899c0,1.049-0.85,1.896-1.897,1.896
				c-1.046,0-1.896-0.848-1.896-1.896C75.725,93.723,76.574,92.867,77.621,92.867z"/>
		</g>
		<g>
			<path fill="#FFFFFF" d="M59.216,25.211c1.048,0,1.895,0.857,1.895,1.898c0,1.055-0.847,1.897-1.895,1.897
				c-1.045,0-1.892-0.843-1.892-1.897C57.324,26.067,58.17,25.211,59.216,25.211z"/>
		</g>
		<g>
			<path fill="#FFFFFF" d="M87.322,116.84c1.043,0,1.892,0.854,1.892,1.904c0,1.043-0.85,1.892-1.892,1.892
				c-1.048,0-1.897-0.849-1.897-1.892C85.424,117.694,86.274,116.84,87.322,116.84z"/>
		</g>
		<g>
			<path fill="#FFFFFF" d="M92.514,30.786c1.048,0,1.895,0.845,1.895,1.893c0,1.054-0.847,1.903-1.895,1.903
				c-1.045,0-1.892-0.85-1.892-1.903C90.622,31.631,91.469,30.786,92.514,30.786z"/>
		</g>
		<g>
			<path fill="#FFFFFF" d="M64.922,39.765c1.046,0,1.896,0.843,1.896,1.887c0,1.054-0.85,1.897-1.896,1.897
				c-1.045,0-1.895-0.844-1.895-1.897C63.027,40.607,63.877,39.765,64.922,39.765z"/>
		</g>
		<g>
			<path fill="#FFFFFF" d="M101.541,27.926c1.045,0,1.892,0.844,1.892,1.898c0,1.049-0.847,1.893-1.892,1.893
				c-1.048,0-1.896-0.844-1.896-1.893C99.645,28.769,100.492,27.926,101.541,27.926z"/>
		</g>
		<g>
			<path fill="#FFFFFF" d="M107.408,25.674c1.046,0,1.892,0.845,1.892,1.899c0,1.047-0.847,1.892-1.892,1.892
				c-1.048,0-1.896-0.845-1.896-1.892C105.512,26.519,106.36,25.674,107.408,25.674z"/>
		</g>
		<g>
			<path fill="#FFFFFF" d="M63.253,16.486c1.048,0,1.895,0.844,1.895,1.893c0,1.049-0.847,1.903-1.895,1.903
				c-1.045,0-1.892-0.854-1.892-1.903C61.361,17.33,62.208,16.486,63.253,16.486z"/>
		</g>
		<g>
			<path fill="#FFFFFF" d="M104.22,9.712c1.046,0,1.896,0.85,1.896,1.898c0,1.043-0.85,1.894-1.896,1.894
				c-1.048,0-1.895-0.851-1.895-1.894C102.325,10.561,103.172,9.712,104.22,9.712z"/>
		</g>
		<g>
			<path fill="#FFFFFF" d="M69.513,19.685c1.046,0,1.895,0.845,1.895,1.887c0,1.055-0.849,1.904-1.895,1.904
				c-1.048,0-1.897-0.85-1.897-1.904C67.616,20.53,68.465,19.685,69.513,19.685z"/>
		</g>
		<g>
			<path fill="#FFFFFF" d="M131.974,111.459c1.048,0,1.895,0.856,1.895,1.898c0,1.047-0.847,1.897-1.895,1.897
				c-1.045,0-1.893-0.851-1.893-1.897C130.081,112.315,130.929,111.459,131.974,111.459z"/>
		</g>
		<g>
			<path fill="#FFFFFF" d="M136.702,118.316c1.048,0,1.894,0.855,1.894,1.898c0,1.048-0.846,1.898-1.894,1.898
				c-1.045,0-1.893-0.85-1.893-1.898C134.81,119.172,135.657,118.316,136.702,118.316z"/>
		</g>
		<g>
			<path fill="#FFFFFF" d="M64.007,29.918c1.045,0,1.895,0.845,1.895,1.887c0,1.055-0.85,1.902-1.895,1.902
				c-1.048,0-1.898-0.848-1.898-1.902C62.109,30.763,62.959,29.918,64.007,29.918z"/>
		</g>
		<g>
			<path fill="#FFFFFF" d="M73.659,127.99c1.048,0,1.897,0.845,1.897,1.894c0,1.042-0.85,1.897-1.897,1.897
				c-1.045,0-1.892-0.855-1.892-1.897C71.767,128.835,72.614,127.99,73.659,127.99z"/>
		</g>
		<g>
			<path fill="#FFFFFF" d="M62.656,54.612c1.048,0,1.895,0.85,1.895,1.892c0,1.049-0.847,1.898-1.895,1.898
				c-1.045,0-1.895-0.85-1.895-1.898C60.762,55.462,61.611,54.612,62.656,54.612z"/>
		</g>
		<g>
			<path fill="#FFFFFF" d="M102.474,132.039c1.046,0,1.892,0.849,1.892,1.885c0,1.056-0.847,1.898-1.892,1.898
				c-1.048,0-1.895-0.843-1.895-1.898C100.579,132.888,101.426,132.039,102.474,132.039z"/>
		</g>
		<g>
			<path fill="#FFFFFF" d="M80.685,109.656c1.046,0,1.895,0.85,1.895,1.898c0,1.044-0.849,1.894-1.895,1.894
				c-1.045,0-1.895-0.85-1.895-1.894C78.79,110.506,79.639,109.656,80.685,109.656z"/>
		</g>
		<g>
			<path fill="#FFFFFF" d="M83.721,72.968c1.045,0,1.895,0.85,1.895,1.893c0,1.042-0.849,1.897-1.895,1.897
				c-1.046,0-1.896-0.856-1.896-1.897C81.825,73.817,82.675,72.968,83.721,72.968z"/>
		</g>
		<g>
			<path fill="#FFFFFF" d="M54.847,118.316c1.042,0,1.892,0.855,1.892,1.898c0,1.043-0.85,1.898-1.892,1.898
				c-1.049,0-1.898-0.854-1.898-1.898C52.949,119.172,53.798,118.316,54.847,118.316z"/>
		</g>
		<g>
			<path fill="#FFFFFF" d="M70.307,40.021c1.045,0,1.892,0.85,1.892,1.898c0,1.043-0.846,1.893-1.892,1.893
				c-1.049,0-1.896-0.85-1.896-1.893C68.411,40.871,69.258,40.021,70.307,40.021z"/>
		</g>
		<g>
			<path fill="#FFFFFF" d="M72.879,108.855c1.049,0,1.898,0.855,1.898,1.898c0,1.048-0.849,1.898-1.898,1.898
				c-1.046,0-1.895-0.85-1.895-1.898C70.983,109.711,71.833,108.855,72.879,108.855z"/>
		</g>
		<g>
			<path fill="#FFFFFF" d="M76.244,12.587c1.048,0,1.895,0.854,1.895,1.896c0,1.044-0.847,1.898-1.895,1.898
				c-1.046,0-1.893-0.854-1.893-1.898C74.352,13.441,75.198,12.587,76.244,12.587z"/>
		</g>
		<g>
			<path fill="#FFFFFF" d="M121.23,112.765c1.049,0,1.898,0.85,1.898,1.892c0,1.049-0.849,1.898-1.898,1.898
				c-1.042,0-1.892-0.85-1.892-1.898C119.337,113.614,120.187,112.765,121.23,112.765z"/>
		</g>
		<g>
			<path fill="#FFFFFF" d="M80.252,99.324c1.045,0,1.895,0.85,1.895,1.894c0,1.042-0.85,1.891-1.895,1.891
				c-1.048,0-1.897-0.849-1.897-1.891C78.354,100.174,79.204,99.324,80.252,99.324z"/>
		</g>
		<g>
			<circle fill="#FFFFFF" cx="82.377" cy="105.536" r="1.895"/>
		</g>
		<g>
			<path fill="#FFFFFF" d="M94.699,26.588c1.046,0,1.895,0.85,1.895,1.893c0,1.047-0.849,1.896-1.895,1.896
				c-1.048,0-1.895-0.85-1.895-1.896C92.804,27.437,93.651,26.588,94.699,26.588z"/>
		</g>
		<g>
			<path fill="#FFFFFF" d="M119.338,50.218c1.045,0,1.895,0.854,1.895,1.897c0,1.043-0.849,1.898-1.895,1.898
				c-1.048,0-1.896-0.854-1.896-1.898C117.442,51.072,118.29,50.218,119.338,50.218z"/>
		</g>
		<g>
			<path fill="#FFFFFF" d="M71.255,88.9c1.048,0,1.897,0.85,1.897,1.892c0,1.044-0.849,1.893-1.897,1.893
				c-1.045,0-1.895-0.849-1.895-1.893C69.36,89.75,70.21,88.9,71.255,88.9z"/>
		</g>
		<g>
			<circle fill="#FFFFFF" cx="86.358" cy="106.812" r="1.895"/>
		</g>
		<g>
			<path fill="#FFFFFF" d="M63.278,88.565c1.046,0,1.896,0.854,1.896,1.902c0,1.042-0.85,1.892-1.896,1.892
				c-1.045,0-1.895-0.85-1.895-1.892C61.384,89.42,62.233,88.565,63.278,88.565z"/>
		</g>
		<g>
			<path fill="#FFFFFF" d="M105.679,105.847c1.046,0,1.896,0.848,1.896,1.892c0,1.042-0.85,1.897-1.896,1.897
				c-1.048,0-1.895-0.855-1.895-1.897C103.785,106.694,104.631,105.847,105.679,105.847z"/>
		</g>
		<g>
			<path fill="#FFFFFF" d="M85.741,80.777c1.046,0,1.893,0.857,1.893,1.899c0,1.047-0.847,1.892-1.893,1.892
				c-1.048,0-1.896-0.845-1.896-1.892C83.845,81.634,84.692,80.777,85.741,80.777z"/>
		</g>
		<g>
			<path fill="#FFFFFF" d="M57.649,37.55c1.049,0,1.898,0.849,1.898,1.898c0,1.042-0.849,1.892-1.898,1.892
				c-1.045,0-1.895-0.85-1.895-1.892C55.754,38.398,56.603,37.55,57.649,37.55z"/>
		</g>
		<g>
			<path fill="#FFFFFF" d="M78.437,41.205c1.045,0,1.895,0.85,1.895,1.898c0,1.042-0.849,1.891-1.895,1.891
				c-1.046,0-1.896-0.849-1.896-1.891C76.542,42.055,77.391,41.205,78.437,41.205z"/>
		</g>
		<g>
			<path fill="#FFFFFF" d="M67.276,89.214c1.045,0,1.895,0.854,1.895,1.896c0,1.055-0.85,1.897-1.895,1.897
				c-1.048,0-1.895-0.843-1.895-1.897C65.381,90.068,66.228,89.214,67.276,89.214z"/>
		</g>
		<g>
			<path fill="#FFFFFF" d="M67.465,25.347c1.046,0,1.896,0.838,1.896,1.887c0,1.054-0.85,1.897-1.896,1.897
				c-1.048,0-1.895-0.844-1.895-1.897C65.57,26.185,66.417,25.347,67.465,25.347z"/>
		</g>
		<g>
			<path fill="#FFFFFF" d="M98.395,46.13c1.049,0,1.896,0.843,1.896,1.887c0,1.049-0.847,1.892-1.896,1.892
				c-1.046,0-1.895-0.843-1.895-1.892C96.501,46.973,97.35,46.13,98.395,46.13z"/>
		</g>
		<g>
			<path fill="#FFFFFF" d="M112.797,38.36c1.045,0,1.895,0.855,1.895,1.897c0,1.043-0.85,1.898-1.895,1.898
				c-1.048,0-1.895-0.855-1.895-1.898C110.903,39.216,111.75,38.36,112.797,38.36z"/>
		</g>
		<g>
			<path fill="#FFFFFF" d="M72.059,48.968c1.046,0,1.896,0.85,1.896,1.893c0,1.048-0.85,1.892-1.896,1.892
				c-1.045,0-1.895-0.844-1.895-1.892C70.165,49.817,71.014,48.968,72.059,48.968z"/>
		</g>
		<g>
			<path fill="#FFFFFF" d="M61.503,45.904c1.049,0,1.896,0.854,1.896,1.897c0,1.042-0.847,1.897-1.896,1.897
				c-1.045,0-1.892-0.855-1.892-1.897C59.611,46.758,60.458,45.904,61.503,45.904z"/>
		</g>
		<g>
			<circle fill="#FFFFFF" cx="115.441" cy="50.855" r="1.9"/>
		</g>
		<g>
			<path fill="#FFFFFF" d="M69.261,66.747c1.046,0,1.895,0.85,1.895,1.888c0,1.053-0.849,1.897-1.895,1.897
				c-1.048,0-1.895-0.845-1.895-1.897C67.366,67.597,68.212,66.747,69.261,66.747z"/>
		</g>
		<g>
			<path fill="#FFFFFF" d="M82.521,63.33c1.043,0,1.893,0.844,1.893,1.897c0,1.044-0.85,1.887-1.893,1.887
				c-1.048,0-1.898-0.843-1.898-1.887C80.623,64.174,81.472,63.33,82.521,63.33z"/>
		</g>
		<g>
			<path fill="#FFFFFF" d="M82.579,66.717c1.048,0,1.895,0.849,1.895,1.902c0,1.037-0.847,1.887-1.895,1.887
				c-1.046,0-1.895-0.85-1.895-1.887C80.684,67.565,81.533,66.717,82.579,66.717z"/>
		</g>
		<g>
			<path fill="#FFFFFF" d="M56.969,29.674c1.048,0,1.897,0.845,1.897,1.893c0,1.048-0.85,1.891-1.897,1.891
				c-1.045,0-1.895-0.843-1.895-1.891C55.074,30.519,55.923,29.674,56.969,29.674z"/>
		</g>
		<g>
			<path fill="#FFFFFF" d="M59.189,72.047c1.049,0,1.898,0.85,1.898,1.893c0,1.053-0.85,1.896-1.898,1.896
				c-1.042,0-1.892-0.844-1.892-1.896C57.297,72.896,58.146,72.047,59.189,72.047z"/>
		</g>
		<g>
			<path fill="#FFFFFF" d="M61.396,84.503c1.048,0,1.897,0.85,1.897,1.897c0,1.049-0.849,1.892-1.897,1.892
				c-1.045,0-1.895-0.843-1.895-1.892C59.501,85.352,60.35,84.503,61.396,84.503z"/>
		</g>
		<g>
			<path fill="#FFFFFF" d="M81.904,0c1.045,0,1.895,0.854,1.895,1.898c0,1.055-0.85,1.897-1.895,1.897
				c-1.046,0-1.896-0.843-1.896-1.897C80.009,0.853,80.858,0,81.904,0z"/>
		</g>
		<g>
			<path fill="#FFFFFF" d="M86.939,15.286c1.048,0,1.895,0.839,1.895,1.893c0,1.047-0.847,1.892-1.895,1.892
				c-1.045,0-1.895-0.845-1.895-1.892C85.045,16.125,85.894,15.286,86.939,15.286z"/>
		</g>
		<g>
			<path fill="#FFFFFF" d="M92.245,14.265c1.048,0,1.896,0.85,1.896,1.898c0,1.042-0.847,1.892-1.896,1.892
				c-1.046,0-1.895-0.85-1.895-1.892C90.35,15.114,91.199,14.265,92.245,14.265z"/>
		</g>
		<g>
			<path fill="#FFFFFF" d="M74.675,61.435c1.048,0,1.895,0.844,1.895,1.888c0,1.053-0.847,1.902-1.895,1.902
				c-1.045,0-1.895-0.85-1.895-1.902C72.78,62.278,73.629,61.435,74.675,61.435z"/>
		</g>
		<g>
			<path fill="#FFFFFF" d="M67.551,59.827c1.048,0,1.895,0.845,1.895,1.897c0,1.044-0.847,1.893-1.895,1.893
				c-1.045,0-1.892-0.849-1.892-1.893C65.659,60.672,66.506,59.827,67.551,59.827z"/>
		</g>
		<g>
			<path fill="#FFFFFF" d="M96.568,113.033c1.048,0,1.895,0.854,1.895,1.897c0,1.053-0.846,1.898-1.895,1.898
				c-1.046,0-1.896-0.846-1.896-1.898C94.672,113.888,95.522,113.033,96.568,113.033z"/>
		</g>
		<g>
			<path fill="#FFFFFF" d="M108.793,33.817c1.048,0,1.898,0.854,1.898,1.898c0,1.049-0.85,1.898-1.898,1.898
				c-1.046,0-1.895-0.85-1.895-1.898C106.898,34.672,107.747,33.817,108.793,33.817z"/>
		</g>
		<g>
			<path fill="#FFFFFF" d="M66.825,13.605c1.049,0,1.895,0.854,1.895,1.902c0,1.043-0.846,1.898-1.895,1.898
				c-1.045,0-1.892-0.855-1.892-1.898C64.933,14.459,65.78,13.605,66.825,13.605z"/>
		</g>
		<g>
			<circle fill="#FFFFFF" cx="54.322" cy="56.852" r="1.9"/>
		</g>
		<g>
			<path fill="#FFFFFF" d="M87.963,31.599c1.046,0,1.893,0.843,1.893,1.892c0,1.044-0.847,1.893-1.893,1.893
				c-1.048,0-1.895-0.849-1.895-1.893C86.068,32.441,86.916,31.599,87.963,31.599z"/>
		</g>
		<g>
			<path fill="#FFFFFF" d="M107.791,97.918c1.048,0,1.897,0.854,1.897,1.897c0,1.049-0.85,1.899-1.897,1.899
				c-1.044,0-1.896-0.85-1.896-1.899C105.895,98.771,106.747,97.918,107.791,97.918z"/>
		</g>
		<g>
			<path fill="#FFFFFF" d="M75.763,83.691c1.045,0,1.895,0.846,1.895,1.893c0,1.048-0.849,1.891-1.895,1.891
				c-1.049,0-1.898-0.843-1.898-1.891C73.865,84.537,74.714,83.691,75.763,83.691z"/>
		</g>
		<g>
			<path fill="#FFFFFF" d="M75.76,44.32c1.048,0,1.897,0.845,1.897,1.887c0,1.054-0.849,1.899-1.897,1.899
				c-1.046,0-1.896-0.845-1.896-1.899C73.865,45.165,74.714,44.32,75.76,44.32z"/>
		</g>
		<g>
			<path fill="#FFFFFF" d="M96.422,6.883c1.046,0,1.895,0.856,1.895,1.893c0,1.049-0.849,1.897-1.895,1.897
				c-1.045,0-1.895-0.848-1.895-1.897C94.527,7.738,95.377,6.883,96.422,6.883z"/>
		</g>
		<g>
			<path fill="#FFFFFF" d="M88.4,4.813c1.046,0,1.896,0.855,1.896,1.894c0,1.048-0.85,1.896-1.896,1.896
				c-1.045,0-1.895-0.849-1.895-1.896C86.505,5.668,87.355,4.813,88.4,4.813z"/>
		</g>
		<g>
			<path fill="#FFFFFF" d="M102.241,36.932c1.046,0,1.896,0.844,1.896,1.891c0,1.054-0.85,1.904-1.896,1.904
				c-1.047,0-1.894-0.851-1.894-1.904C100.347,37.775,101.194,36.932,102.241,36.932z"/>
		</g>
		<g>
			<path fill="#FFFFFF" d="M89.554,35.721c1.046,0,1.895,0.85,1.895,1.894c0,1.053-0.849,1.897-1.895,1.897
				c-1.045,0-1.895-0.845-1.895-1.897C87.66,36.57,88.509,35.721,89.554,35.721z"/>
		</g>
		<g>
			<path fill="#FFFFFF" d="M78.171,117.84c1.048,0,1.895,0.85,1.895,1.899c0,1.042-0.847,1.887-1.895,1.887
				c-1.046,0-1.895-0.845-1.895-1.887C76.276,118.689,77.126,117.84,78.171,117.84z"/>
		</g>
		<g>
			<path fill="#FFFFFF" d="M56.388,78.4c1.045,0,1.893,0.845,1.893,1.887c0,1.055-0.847,1.898-1.893,1.898
				c-1.048,0-1.895-0.844-1.895-1.898C54.494,79.245,55.34,78.4,56.388,78.4z"/>
		</g>
		<g>
			<path fill="#FFFFFF" d="M110.064,111.3c1.046,0,1.896,0.844,1.896,1.892c0,1.049-0.85,1.903-1.896,1.903
				c-1.045,0-1.895-0.854-1.895-1.903C108.17,112.144,109.019,111.3,110.064,111.3z"/>
		</g>
		<g>
			<path fill="#FFFFFF" d="M104.754,46.212c1.048,0,1.897,0.85,1.897,1.903c0,1.037-0.849,1.888-1.897,1.888
				c-1.043,0-1.892-0.851-1.892-1.888C102.861,47.061,103.711,46.212,104.754,46.212z"/>
		</g>
		<g>
			<path fill="#FFFFFF" d="M59.037,66.003c1.046,0,1.896,0.854,1.896,1.893c0,1.054-0.85,1.902-1.896,1.902
				c-1.045,0-1.895-0.849-1.895-1.902C57.142,66.857,57.991,66.003,59.037,66.003z"/>
		</g>
		<g>
			<path fill="#FFFFFF" d="M59.084,14.1c1.045,0,1.895,0.856,1.895,1.903c0,1.043-0.85,1.893-1.895,1.893
				c-1.048,0-1.895-0.85-1.895-1.893C57.189,14.955,58.036,14.1,59.084,14.1z"/>
		</g>
		<g>
			<path fill="#FFFFFF" d="M104.177,110.351c1.048,0,1.895,0.85,1.895,1.892c0,1.049-0.847,1.898-1.895,1.898
				c-1.046,0-1.895-0.85-1.895-1.898C102.283,111.2,103.131,110.351,104.177,110.351z"/>
		</g>
		<g>
			<path fill="#FFFFFF" d="M72.097,72.144c1.045,0,1.895,0.849,1.895,1.892c0,1.049-0.849,1.899-1.895,1.899
				c-1.049,0-1.896-0.851-1.896-1.899C70.201,72.992,71.048,72.144,72.097,72.144z"/>
		</g>
		<g>
			<path fill="#FFFFFF" d="M64.293,71.656c1.045,0,1.892,0.844,1.892,1.888c0,1.048-0.847,1.893-1.892,1.893
				c-1.049,0-1.895-0.845-1.895-1.893C62.398,72.5,63.244,71.656,64.293,71.656z"/>
		</g>
		<g>
			<path fill="#FFFFFF" d="M64.635,20.604c1.048,0,1.895,0.85,1.895,1.886c0,1.049-0.846,1.905-1.895,1.905
				c-1.046,0-1.893-0.856-1.893-1.905C62.742,21.454,63.589,20.604,64.635,20.604z"/>
		</g>
		<g>
			<path fill="#FFFFFF" d="M59.879,105.877c1.048,0,1.896,0.85,1.896,1.898c0,1.042-0.847,1.896-1.896,1.896
				c-1.045,0-1.892-0.854-1.892-1.896C57.987,106.727,58.834,105.877,59.879,105.877z"/>
		</g>
		<g>
			<path fill="#FFFFFF" d="M61.879,36.57c1.045,0,1.895,0.855,1.895,1.898c0,1.053-0.85,1.902-1.895,1.902s-1.895-0.85-1.895-1.902
				C59.985,37.426,60.834,36.57,61.879,36.57z"/>
		</g>
		<g>
			<circle fill="#FFFFFF" cx="73.942" cy="38.48" r="1.893"/>
		</g>
		<g>
			<path fill="#FFFFFF" d="M102.019,115.625c1.048,0,1.898,0.85,1.898,1.894c0,1.047-0.85,1.901-1.898,1.901
				c-1.045,0-1.895-0.854-1.895-1.901C100.124,116.475,100.974,115.625,102.019,115.625z"/>
		</g>
		<g>
			<circle fill="#FFFFFF" cx="97.941" cy="43.089" r="1.895"/>
		</g>
		<g>
			<path fill="#FFFFFF" d="M80.883,36.361c1.046,0,1.895,0.854,1.895,1.896c0,1.056-0.849,1.898-1.895,1.898
				c-1.048,0-1.895-0.843-1.895-1.898C78.988,37.216,79.835,36.361,80.883,36.361z"/>
		</g>
		<g>
			<circle fill="#FFFFFF" cx="85.775" cy="101.821" r="1.895"/>
		</g>
		<g>
			<path fill="#FFFFFF" d="M69.044,35.455c1.048,0,1.895,0.849,1.895,1.897c0,1.043-0.846,1.892-1.895,1.892
				c-1.046,0-1.893-0.849-1.893-1.892C67.151,36.304,67.998,35.455,69.044,35.455z"/>
		</g>
		<g>
			<path fill="#FFFFFF" d="M62.121,79.336c1.049,0,1.898,0.85,1.898,1.893c0,1.048-0.85,1.898-1.898,1.898
				c-1.046,0-1.895-0.851-1.895-1.898C60.227,80.185,61.075,79.336,62.121,79.336z"/>
		</g>
		<g>
			<path fill="#FFFFFF" d="M103.032,89.957c1.048,0,1.895,0.845,1.895,1.892c0,1.049-0.847,1.894-1.895,1.894
				c-1.046,0-1.895-0.845-1.895-1.894C101.137,90.802,101.986,89.957,103.032,89.957z"/>
		</g>
		<g>
			<path fill="#FFFFFF" d="M64.557,66.553c1.046,0,1.896,0.838,1.896,1.892c0,1.048-0.85,1.892-1.896,1.892
				c-1.045,0-1.895-0.844-1.895-1.892C62.662,67.391,63.511,66.553,64.557,66.553z"/>
		</g>
		<g>
			<path fill="#FFFFFF" d="M71.758,81.084c1.048,0,1.898,0.844,1.898,1.887c0,1.049-0.85,1.897-1.898,1.897
				c-1.043,0-1.892-0.849-1.892-1.897C69.866,81.928,70.715,81.084,71.758,81.084z"/>
		</g>
		<g>
			<path fill="#FFFFFF" d="M111.629,15.389c1.046,0,1.893,0.853,1.893,1.897c0,1.048-0.847,1.897-1.893,1.897
				c-1.048,0-1.895-0.85-1.895-1.897C109.734,16.242,110.581,15.389,111.629,15.389z"/>
		</g>
		<g>
			<circle fill="#FFFFFF" cx="75.948" cy="91.258" r="1.894"/>
		</g>
		<g>
			<path fill="#FFFFFF" d="M61.558,121.647c1.046,0,1.892,0.85,1.892,1.902c0,1.044-0.847,1.888-1.892,1.888
				c-1.048,0-1.895-0.844-1.895-1.888C59.663,122.497,60.51,121.647,61.558,121.647z"/>
		</g>
		<g>
			<path fill="#FFFFFF" d="M61.558,132.033c1.046,0,1.892,0.85,1.892,1.903c0,1.043-0.847,1.886-1.892,1.886
				c-1.048,0-1.895-0.843-1.895-1.886C59.663,132.883,60.51,132.033,61.558,132.033z"/>
		</g>
		<circle fill="#FFFFFF" cx="122.618" cy="54.423" r="1.895"/>
		<circle fill="#FFFFFF" cx="105.466" cy="45.662" r="1.895"/>
		<circle fill="#FFFFFF" cx="126.833" cy="53.29" r="1.895"/>
		<circle fill="#FFFFFF" cx="127.164" cy="57.851" r="1.895"/>
		<circle fill="#FFFFFF" cx="109.021" cy="44.337" r="1.895"/>
		<circle fill="#FFFFFF" cx="114.758" cy="50.225" r="1.895"/>
		<circle fill="#FFFFFF" cx="99.131" cy="43.957" r="1.894"/>
		<path fill="#FFFFFF" d="M111.48,44.565c1.048,0,1.895,0.843,1.895,1.892c0,1.049-0.847,1.896-1.895,1.896
			c-1.046,0-1.892-0.848-1.892-1.896C109.587,45.408,110.434,44.565,111.48,44.565z"/>
		<circle fill="#FFFFFF" cx="94.247" cy="45.154" r="1.896"/>
		<circle fill="#FFFFFF" cx="83.473" cy="19.977" r="1.894"/>
		<path fill="#FFFFFF" d="M96.5,26.032c1.048,0,1.895,0.843,1.895,1.892c0,1.049-0.847,1.896-1.895,1.896
			c-1.046,0-1.893-0.848-1.893-1.896C94.607,26.875,95.454,26.032,96.5,26.032z"/>
		<circle fill="#FFFFFF" cx="69.187" cy="45.715" r="1.895"/>
		<circle fill="#FFFFFF" cx="84.504" cy="32.952" r="1.895"/>
		<circle fill="#FFFFFF" cx="64.165" cy="50.622" r="1.895"/>
		<circle fill="#FFFFFF" cx="81.512" cy="40.978" r="1.895"/>
		<circle fill="#FFFFFF" cx="65.59" cy="56.314" r="1.895"/>
		<path fill="#FFFFFF" d="M76.428,42.727c1.048,0,1.895,0.845,1.895,1.892c0,1.049-0.847,1.899-1.895,1.899
			c-1.046,0-1.893-0.851-1.893-1.899C74.536,43.572,75.382,42.727,76.428,42.727z"/>
		<circle fill="#FFFFFF" cx="58.313" cy="62.288" r="1.895"/>
		<circle fill="#FFFFFF" cx="68.855" cy="71.272" r="1.895"/>
		<circle fill="#FFFFFF" cx="76.6" cy="67.717" r="1.895"/>
		<circle fill="#FFFFFF" cx="81.92" cy="70.6" r="1.895"/>
		<circle fill="#FFFFFF" cx="47.441" cy="54.844" r="1.894"/>
		<circle fill="#FFFFFF" cx="65.937" cy="42.672" r="1.895"/>
		<circle fill="#FFFFFF" cx="54.669" cy="46.168" r="1.895"/>
		<circle fill="#FFFFFF" cx="68.023" cy="34.376" r="1.895"/>
		<path fill="#FFFFFF" d="M56.744,36.584c1.048,0,1.895,0.844,1.895,1.891c0,1.049-0.847,1.898-1.895,1.898
			c-1.046,0-1.893-0.85-1.893-1.898C54.851,37.428,55.698,36.584,56.744,36.584z"/>
		<circle fill="#FFFFFF" cx="77.268" cy="31.737" r="1.895"/>
		<circle fill="#FFFFFF" cx="47.425" cy="40" r="1.895"/>
		<circle fill="#FFFFFF" cx="67.104" cy="30.892" r="1.895"/>
		<circle fill="#FFFFFF" cx="73.674" cy="31.67" r="1.895"/>
		<circle fill="#FFFFFF" cx="74.587" cy="22.951" r="1.896"/>
		<circle fill="#FFFFFF" cx="78.023" cy="20.749" r="1.895"/>
		<path fill="#FFFFFF" d="M90.407,18.564c1.048,0,1.895,0.844,1.895,1.891c0,1.049-0.847,1.898-1.895,1.898
			c-1.046,0-1.893-0.85-1.893-1.898C88.515,19.408,89.361,18.564,90.407,18.564z"/>
		<circle fill="#FFFFFF" cx="95.658" cy="31.952" r="1.895"/>
		<circle fill="#FFFFFF" cx="107.778" cy="36.865" r="1.895"/>
		<circle fill="#FFFFFF" cx="112.345" cy="35.955" r="1.895"/>
		<circle fill="#FFFFFF" cx="87.851" cy="12.894" r="1.895"/>
		<circle fill="#FFFFFF" cx="77.8" cy="15.704" r="1.895"/>
		<circle fill="#FFFFFF" cx="81.905" cy="26.872" r="1.895"/>
		<circle fill="#FFFFFF" cx="99.504" cy="37.914" r="1.894"/>
		<circle fill="#FFFFFF" cx="114.239" cy="43.037" r="1.895"/>
		<circle fill="#FFFFFF" cx="116.362" cy="40.331" r="1.895"/>
		<circle fill="#FFFFFF" cx="55.192" cy="27.139" r="1.895"/>
		<g>
			<circle fill="#FFFFFF" cx="106.4" cy="48.172" r="1.895"/>
		</g>
		<g>
			<circle fill="#FFFFFF" cx="114.556" cy="47.376" r="1.895"/>
		</g>
		<g>
			<circle fill="#FFFFFF" cx="124.938" cy="51.397" r="1.895"/>
		</g>
		<g>
			<circle fill="#FFFFFF" cx="97.289" cy="45.27" r="1.895"/>
		</g>
		<g>
			<circle fill="#FFFFFF" cx="93.551" cy="48.427" r="1.896"/>
		</g>
		<g>
			<circle fill="#FFFFFF" cx="100.729" cy="47.173" r="1.895"/>
		</g>
		<g>
			<circle fill="#FFFFFF" cx="93.067" cy="41.308" r="1.895"/>
		</g>
		<g>
			<circle fill="#FFFFFF" cx="91.105" cy="27.097" r="1.895"/>
		</g>
		<g>
			<circle fill="#FFFFFF" cx="104.136" cy="19.843" r="1.895"/>
		</g>
		<g>
			<path fill="#FFFFFF" d="M86.039,27.144c1.048,0,1.895,0.845,1.895,1.892c0,1.049-0.846,1.899-1.895,1.899
				c-1.046,0-1.893-0.851-1.893-1.899C84.147,27.988,84.993,27.144,86.039,27.144z"/>
		</g>
		<g>
			<circle fill="#FFFFFF" cx="63.125" cy="26.151" r="1.895"/>
		</g>
		<g>
			<circle fill="#FFFFFF" cx="60.798" cy="22.168" r="1.895"/>
		</g>
		<g>
			<circle fill="#FFFFFF" cx="60.978" cy="30.614" r="1.895"/>
		</g>
		<g>
			<circle fill="#FFFFFF" cx="78.505" cy="37.802" r="1.896"/>
		</g>
		<g>
			<path fill="#FFFFFF" d="M69.55,38.307c1.048,0,1.895,0.844,1.895,1.894c0,1.048-0.847,1.896-1.895,1.896
				c-1.046,0-1.893-0.849-1.893-1.896C67.657,39.15,68.504,38.307,69.55,38.307z"/>
		</g>
		<g>
			<circle fill="#FFFFFF" cx="64.457" cy="46.939" r="1.895"/>
		</g>
		<g>
			<circle fill="#FFFFFF" cx="72.794" cy="47.785" r="1.895"/>
		</g>
		<g>
			<circle fill="#FFFFFF" cx="54.165" cy="34.633" r="1.895"/>
		</g>
		<g>
			<circle fill="#FFFFFF" cx="59.662" cy="54.423" r="1.895"/>
		</g>
		<g>
			<circle fill="#FFFFFF" cx="64.703" cy="43.037" r="1.895"/>
		</g>
		<g>
			<circle fill="#FFFFFF" cx="52.594" cy="61.722" r="1.895"/>
		</g>
		<g>
			<circle fill="#FFFFFF" cx="67.83" cy="52.677" r="1.895"/>
		</g>
		<g>
			<circle fill="#FFFFFF" cx="48.122" cy="47.799" r="1.895"/>
		</g>
		<g>
			<circle fill="#FFFFFF" cx="61.556" cy="66.372" r="1.895"/>
		</g>
		<g>
			<circle fill="#FFFFFF" cx="64.397" cy="59.241" r="1.895"/>
		</g>
		<g>
			<path fill="#FFFFFF" d="M61.55,76.275c1.048,0,1.895,0.844,1.895,1.893c0,1.05-0.847,1.897-1.895,1.897
				c-1.046,0-1.892-0.848-1.892-1.897C59.657,77.119,60.504,76.275,61.55,76.275z"/>
		</g>
		<g>
			<circle fill="#FFFFFF" cx="73.491" cy="65.747" r="1.894"/>
		</g>
		<g>
			<circle fill="#FFFFFF" cx="58.255" cy="75.496" r="1.895"/>
		</g>
		<g>
			<path fill="#FFFFFF" d="M85.775,78.684c1.048,0,1.895,0.843,1.895,1.891c0,1.049-0.847,1.898-1.895,1.898
				c-1.046,0-1.893-0.85-1.893-1.898C83.882,79.526,84.729,78.684,85.775,78.684z"/>
		</g>
		<g>
			<circle fill="#FFFFFF" cx="70.9" cy="77.756" r="1.895"/>
		</g>
		<g>
			<circle fill="#FFFFFF" cx="90.75" cy="91.524" r="1.895"/>
		</g>
		<g>
			<circle fill="#FFFFFF" cx="86.934" cy="87.294" r="1.895"/>
		</g>
		<g>
			<path fill="#FFFFFF" d="M96.912,90.171c1.048,0,1.895,0.844,1.895,1.893c0,1.047-0.847,1.896-1.895,1.896
				c-1.046,0-1.893-0.849-1.893-1.896C95.02,91.015,95.866,90.171,96.912,90.171z"/>
		</g>
		<g>
			<circle fill="#FFFFFF" cx="80.478" cy="84.613" r="1.895"/>
		</g>
		<g>
			<circle fill="#FFFFFF" cx="88.98" cy="98.18" r="1.895"/>
		</g>
		<g>
			<circle fill="#FFFFFF" cx="90.652" cy="102.844" r="1.894"/>
		</g>
		<g>
			<circle fill="#FFFFFF" cx="98.482" cy="96.633" r="1.895"/>
		</g>
		<g>
			<circle fill="#FFFFFF" cx="77.92" cy="88.837" r="1.895"/>
		</g>
		<g>
			<circle fill="#FFFFFF" cx="86.695" cy="93.417" r="1.895"/>
		</g>
		<g>
			<circle fill="#FFFFFF" cx="62.872" cy="70.469" r="1.895"/>
		</g>
		<g>
			<circle fill="#FFFFFF" cx="68.72" cy="74.26" r="1.895"/>
		</g>
		<g>
			<circle fill="#FFFFFF" cx="56.731" cy="49.68" r="1.895"/>
		</g>
		<g>
			<circle fill="#FFFFFF" cx="71.82" cy="61.338" r="1.895"/>
		</g>
		<g>
			<circle fill="#FFFFFF" cx="65.715" cy="36.528" r="1.894"/>
		</g>
		<g>
			<circle fill="#FFFFFF" cx="67.149" cy="48.004" r="1.895"/>
		</g>
		<g>
			<circle fill="#FFFFFF" cx="70.108" cy="35.528" r="1.894"/>
		</g>
		<g>
			<circle fill="#FFFFFF" cx="73.211" cy="42.551" r="1.895"/>
		</g>
		<g>
			<circle fill="#FFFFFF" cx="75.153" cy="36.348" r="1.894"/>
		</g>
		<g>
			<circle fill="#FFFFFF" cx="76.612" cy="40.507" r="1.895"/>
		</g>
		<g>
			<circle fill="#FFFFFF" cx="118.343" cy="47.376" r="1.895"/>
		</g>
		<g>
			<circle fill="#FFFFFF" cx="123.045" cy="49.5" r="1.895"/>
		</g>
		<g>
			<circle fill="#FFFFFF" cx="123.857" cy="47.137" r="1.895"/>
		</g>
		<g>
			<circle fill="#FFFFFF" cx="104.136" cy="34.971" r="1.895"/>
		</g>
		<g>
			<circle fill="#FFFFFF" cx="55.189" cy="41.142" r="1.895"/>
		</g>
		<g>
			<circle fill="#FFFFFF" cx="58.301" cy="58.688" r="1.895"/>
		</g>
		<g>
			<circle fill="#FFFFFF" cx="67.484" cy="86.397" r="1.895"/>
		</g>
		<g>
			<circle fill="#FFFFFF" cx="67.552" cy="103.251" r="1.896"/>
		</g>
		<g>
			<circle fill="#FFFFFF" cx="67.941" cy="96.053" r="1.895"/>
		</g>
		<g>
			<circle fill="#FFFFFF" cx="77.396" cy="94.825" r="1.895"/>
		</g>
		<g>
			<circle fill="#FFFFFF" cx="82.118" cy="98.85" r="1.895"/>
		</g>
		<g>
			<g>
				<path fill="#FFFFFF" d="M68.291,81.434c1.048,0,1.895,0.843,1.895,1.891c0,1.049-0.847,1.898-1.895,1.898
					c-1.046,0-1.893-0.85-1.893-1.898C66.399,82.276,67.245,81.434,68.291,81.434z"/>
			</g>
		</g>
		<g>
			<circle fill="#FFFFFF" cx="97.557" cy="100.967" r="1.895"/>
		</g>
		<g>
			<g>
				<circle fill="#FFFFFF" cx="105.67" cy="107.34" r="1.895"/>
			</g>
		</g>
		<g>
			<circle fill="#FFFFFF" cx="106.582" cy="102.971" r="1.895"/>
		</g>
		<g>
			<g>
				<path fill="#FFFFFF" d="M93.463,87.533c1.048,0,1.895,0.843,1.895,1.891c0,1.049-0.847,1.898-1.895,1.898
					c-1.046,0-1.893-0.85-1.893-1.898C91.571,88.376,92.418,87.533,93.463,87.533z"/>
			</g>
		</g>
		<g>
			<g>
				<circle fill="#FFFFFF" cx="109.563" cy="101.593" r="1.895"/>
			</g>
		</g>
		<g>
			<g>
				<circle fill="#FFFFFF" cx="102.019" cy="100.426" r="1.895"/>
			</g>
		</g>
		<g>
			<g>
				<circle fill="#FFFFFF" cx="77.403" cy="91.116" r="1.895"/>
			</g>
		</g>
		<g>
			<g>
				<circle fill="#FFFFFF" cx="74.772" cy="66.462" r="1.895"/>
			</g>
		</g>
		<g>
			<g>
				<path fill="#FFFFFF" d="M79.468,80.202c1.048,0,1.895,0.844,1.895,1.891c0,1.05-0.847,1.897-1.895,1.897
					c-1.046,0-1.893-0.848-1.893-1.897C77.575,81.046,78.422,80.202,79.468,80.202z"/>
			</g>
		</g>
		<g>
			<g>
				<circle fill="#FFFFFF" cx="78.872" cy="69.176" r="1.895"/>
			</g>
		</g>
		<g>
			<g>
				<circle fill="#FFFFFF" cx="83.468" cy="89.222" r="1.895"/>
			</g>
		</g>
		<g>
			<g>
				<circle fill="#FFFFFF" cx="81.879" cy="79.344" r="1.894"/>
			</g>
		</g>
		<g>
			<g>
				<circle fill="#FFFFFF" cx="72.22" cy="87.038" r="1.895"/>
			</g>
		</g>
		<g>
			<circle fill="#FFFFFF" cx="73.511" cy="71.712" r="1.895"/>
		</g>
		<g>
			<g>
				<circle fill="#FFFFFF" cx="74.674" cy="79.467" r="1.895"/>
			</g>
		</g>
		<g>
			<g>
				<circle fill="#FFFFFF" cx="83.615" cy="73.423" r="1.895"/>
			</g>
		</g>
		<g>
			<g>
				<circle fill="#FFFFFF" cx="80.023" cy="75.398" r="1.895"/>
			</g>
		</g>
		<g>
			<g>
				<circle fill="#FFFFFF" cx="51.162" cy="52.947" r="1.895"/>
			</g>
		</g>
		<g>
			<g>
				<circle fill="#FFFFFF" cx="55.137" cy="75.113" r="1.895"/>
			</g>
		</g>
		<g>
			<g>
				<circle fill="#FFFFFF" cx="57.882" cy="84.613" r="1.895"/>
			</g>
		</g>
		<g>
			<circle fill="#FFFFFF" cx="98.219" cy="105.7" r="1.895"/>
		</g>
		<g>
			<circle fill="#FFFFFF" cx="110.122" cy="109.093" r="1.895"/>
		</g>
		<g>
			<g>
				<circle fill="#FFFFFF" cx="118.968" cy="109.036" r="1.895"/>
			</g>
		</g>
		<g>
			<g>
				<circle fill="#FFFFFF" cx="48.185" cy="70.024" r="1.895"/>
			</g>
		</g>
		<g>
			<g>
				<circle fill="#FFFFFF" cx="44.785" cy="60.26" r="1.894"/>
			</g>
		</g>
		<g>
			<circle fill="#FFFFFF" cx="44.342" cy="51.89" r="1.895"/>
		</g>
		<g>
			<g>
				<circle fill="#FFFFFF" cx="50.909" cy="32.661" r="1.894"/>
			</g>
		</g>
		<g>
			<g>
				<circle fill="#FFFFFF" cx="60.486" cy="43.037" r="1.895"/>
			</g>
		</g>
		<g>
			<g>
				<circle fill="#FFFFFF" cx="70.617" cy="26.351" r="1.895"/>
			</g>
		</g>
		<g>
			<g>
				<circle fill="#FFFFFF" cx="85.262" cy="36.246" r="1.895"/>
			</g>
		</g>
		<g>
			<circle fill="#FFFFFF" cx="60.978" cy="51.702" r="1.895"/>
		</g>
		<g>
			<g>
				<circle fill="#FFFFFF" cx="64.22" cy="64.077" r="1.894"/>
			</g>
		</g>
		<g>
			<circle fill="#FFFFFF" cx="65.205" cy="77.553" r="1.895"/>
		</g>
		<g>
			<g>
				<circle fill="#FFFFFF" cx="72.701" cy="93.227" r="1.894"/>
			</g>
		</g>
		<g>
			<circle fill="#FFFFFF" cx="63.525" cy="84.494" r="1.895"/>
		</g>
		<g>
			<g>
				<circle fill="#FFFFFF" cx="55.89" cy="23.588" r="1.895"/>
			</g>
		</g>
		<g>
			<g>
				<circle fill="#FFFFFF" cx="59.86" cy="21.275" r="1.895"/>
			</g>
		</g>
		<g>
			<g>
				<circle fill="#FFFFFF" cx="42.112" cy="83.885" r="1.895"/>
			</g>
		</g>
		<g>
			<g>
				<path fill="#FFFFFF" d="M75.653,101.594c1.047,0,1.895,0.843,1.895,1.891c0,1.05-0.847,1.898-1.895,1.898
					c-1.046,0-1.893-0.849-1.893-1.898C73.76,102.436,74.607,101.594,75.653,101.594z"/>
			</g>
		</g>
		<g>
			<g>
				<circle fill="#FFFFFF" cx="39.497" cy="57.346" r="1.895"/>
			</g>
		</g>
		<g>
			<circle fill="#FFFFFF" cx="49.046" cy="82.473" r="1.895"/>
		</g>
		<g>
			<g>
				<circle fill="#FFFFFF" cx="53.018" cy="88.405" r="1.895"/>
			</g>
		</g>
		<g>
			<g>
				<path fill="#FFFFFF" d="M26.351,36.229c1.048,0,1.895,0.845,1.895,1.892c0,1.05-0.847,1.898-1.895,1.898
					c-1.046,0-1.893-0.849-1.893-1.898C24.458,37.074,25.304,36.229,26.351,36.229z"/>
			</g>
		</g>
		<g>
			<g>
				<circle fill="#FFFFFF" cx="34.236" cy="14.594" r="1.895"/>
			</g>
		</g>
		<g>
			<g>
				<circle fill="#FFFFFF" cx="35.011" cy="108.21" r="1.895"/>
			</g>
		</g>
		<g>
			<g>
				<circle fill="#FFFFFF" cx="39.402" cy="35.215" r="1.895"/>
			</g>
		</g>
		<g>
			<circle fill="#FFFFFF" cx="32.872" cy="60.601" r="1.896"/>
		</g>
		<g>
			<g>
				<circle fill="#FFFFFF" cx="42.876" cy="43.775" r="1.895"/>
			</g>
		</g>
		<g>
			<circle fill="#FFFFFF" cx="59.5" cy="101.046" r="1.895"/>
		</g>
		<g>
			<g>
				<circle fill="#FFFFFF" cx="85.424" cy="111.414" r="1.895"/>
			</g>
		</g>
		<g>
			<circle fill="#FFFFFF" cx="55.456" cy="70.817" r="1.895"/>
		</g>
		<g>
			<path fill="#FFFFFF" d="M42.845,64.351c1.048,0,1.895,0.842,1.895,1.892c0,1.047-0.847,1.896-1.895,1.896
				c-1.046,0-1.893-0.85-1.893-1.896C40.952,65.192,41.799,64.351,42.845,64.351z"/>
		</g>
		<g>
			<g>
				<circle fill="#FFFFFF" cx="41.282" cy="77.637" r="1.895"/>
			</g>
		</g>
		<g>
			<g>
				<circle fill="#FFFFFF" cx="49.087" cy="77.469" r="1.895"/>
			</g>
		</g>
		<g>
			<g>
				<circle fill="#FFFFFF" cx="54.795" cy="64.435" r="1.895"/>
			</g>
		</g>
		<g>
			<g>
				<circle fill="#FFFFFF" cx="62.271" cy="93.696" r="1.894"/>
			</g>
		</g>
		<g>
			<circle fill="#FFFFFF" cx="50.162" cy="102.544" r="1.895"/>
		</g>
		<g>
			<g>
				<path fill="#FFFFFF" d="M50.374,94.826c1.048,0,1.895,0.843,1.895,1.891c0,1.05-0.847,1.899-1.895,1.899
					c-1.046,0-1.893-0.85-1.893-1.899C48.481,95.669,49.328,94.826,50.374,94.826z"/>
			</g>
		</g>
		<g>
			<g>
				<circle fill="#FFFFFF" cx="121.37" cy="129.322" r="1.896"/>
			</g>
		</g>
		<g>
			<g>
				<path fill="#FFFFFF" d="M132.256,129.916c1.048,0,1.895,0.844,1.895,1.891c0,1.049-0.847,1.898-1.895,1.898
					c-1.046,0-1.893-0.85-1.893-1.898C130.363,130.76,131.21,129.916,132.256,129.916z"/>
			</g>
		</g>
		<g>
			<g>
				<path fill="#FFFFFF" d="M149.583,125.763c1.048,0,1.895,0.843,1.895,1.891c0,1.049-0.847,1.898-1.895,1.898
					c-1.046,0-1.893-0.85-1.893-1.898C147.69,126.605,148.537,125.763,149.583,125.763z"/>
			</g>
		</g>
		<g>
			<g>
				<circle fill="#FFFFFF" cx="128.568" cy="124.763" r="1.895"/>
			</g>
		</g>
		<g>
			<g>
				<circle fill="#FFFFFF" cx="139.776" cy="127.025" r="1.895"/>
			</g>
		</g>
		<g>
			<g>
				<circle fill="#FFFFFF" cx="5.61" cy="111.112" r="1.895"/>
			</g>
		</g>
		<g>
			<g>
				<circle fill="#FFFFFF" cx="12.734" cy="127.651" r="1.895"/>
			</g>
		</g>
		<g>
			<path fill="#FFFFFF" d="M94.103,47.731c1.048,0,1.897,0.837,1.897,1.886c0,1.049-0.85,1.892-1.897,1.892
				c-1.045,0-1.895-0.843-1.895-1.892C92.208,48.568,93.058,47.731,94.103,47.731z"/>
		</g>
	</g>
	<path fill="#FFFFFF" d="M165.561,37.214c0-7.938,6.452-13.88,14.204-13.88c3.203,0,5.617,0.604,7.799,1.81v5.618
		c-2.32-1.579-4.828-2.323-7.334-2.323c-5.292,0-8.866,3.808-8.866,8.774c0,5.431,3.853,8.819,8.912,8.819
		c2.739,0,4.688-0.697,7.056-1.903v5.431c-1.671,0.836-4.456,1.578-7.891,1.578C171.782,51.139,165.561,45.336,165.561,37.214z"/>
	<path fill="#FFFFFF" d="M192.89,50.443V17.24h5.664v33.203H192.89z"/>
	<path fill="#FFFFFF" d="M218.512,51.139c-9.19,0-14.854-5.337-14.854-13.786c0-7.705,5.756-14.018,13.555-14.018
		c7.288,0,12.395,5.664,11.559,13.926l-0.186,1.578h-19.031c0.557,4.596,3.852,7.243,8.958,7.243c3.11,0,6.034-0.56,8.681-1.812
		v4.874C225.104,50.258,222.226,51.139,218.512,51.139z M209.693,34.707h13.74c-0.186-3.944-2.971-6.313-6.453-6.313
		C213.22,28.394,210.529,30.763,209.693,34.707z"/>
	<path fill="#FFFFFF" d="M254.808,45.986c-2.042,3.436-5.43,5.152-9.33,5.152c-7.334,0-13.461-5.895-13.461-13.972
		c0-7.892,6.127-13.833,13.461-13.833c3.9,0,7.288,1.718,9.33,5.152V24.03h5.432v26.413h-5.432V45.986z M254.577,37.167
		c0-4.967-3.806-8.727-8.355-8.727c-4.689,0-8.402,3.761-8.402,8.727c0,5.014,3.713,8.866,8.402,8.866
		C250.771,46.033,254.577,42.227,254.577,37.167z"/>
	<path fill="#FFFFFF" d="M272.398,50.443h-5.662V24.03h5.43v3.528c1.904-2.785,4.922-4.225,8.541-4.225
		c5.896,0,10.027,3.899,10.027,11.884v15.226h-5.663V35.867c0-5.105-2.739-7.428-6.081-7.428c-3.62,0-6.592,2.367-6.592,7.566
		V50.443z"/>
	<path fill="#FFFFFF" d="M165.515,87.275v-4.827c1.903,0.835,4.549,1.3,6.639,1.3c3.806,0,5.244-1.067,5.244-3.017
		c0-4.363-11.698-4.549-11.698-12.394c0-4.456,3.993-7.613,9.749-7.613c2.691,0,4.967,0.371,6.916,1.346v4.734
		c-1.902-0.883-4.225-1.299-6.452-1.299c-3.063,0-4.503,1.019-4.503,2.6c0,3.852,11.744,4.687,11.744,12.486
		c0,4.874-4.131,7.937-10.584,7.937C170.064,88.528,167.604,88.11,165.515,87.275z"/>
	<path fill="#FFFFFF" d="M200.699,88.528c-9.191,0-14.855-5.337-14.855-13.786c0-7.705,5.756-14.018,13.554-14.018
		c7.289,0,12.395,5.663,11.559,13.925l-0.186,1.577H191.74c0.557,4.596,3.852,7.242,8.959,7.242c3.109,0,6.034-0.556,8.68-1.811
		v4.875C207.291,87.647,204.412,88.528,200.699,88.528z M191.879,72.097h13.74c-0.186-3.946-2.971-6.312-6.451-6.312
		C195.407,65.784,192.714,68.15,191.879,72.097z"/>
	<path fill="#FFFFFF" d="M236.949,83.375c-2.043,3.437-5.432,5.153-9.33,5.153c-7.334,0-13.462-5.895-13.462-13.972
		c0-7.891,6.128-13.832,13.462-13.832c3.898,0,7.287,1.717,9.33,5.151V61.42h5.431v26.413h-5.431V83.375z M236.716,74.557
		c0-4.967-3.806-8.726-8.355-8.726c-4.688,0-8.401,3.759-8.401,8.726c0,5.014,3.713,8.865,8.401,8.865
		C232.911,83.422,236.716,79.617,236.716,74.557z"/>
	<path fill="#FFFFFF" d="M247.714,87.275v-4.827c1.903,0.835,4.549,1.3,6.639,1.3c3.805,0,5.245-1.067,5.245-3.017
		c0-4.363-11.698-4.549-11.698-12.394c0-4.456,3.992-7.613,9.748-7.613c2.692,0,4.967,0.371,6.916,1.346v4.734
		c-1.902-0.883-4.224-1.299-6.451-1.299c-3.064,0-4.503,1.019-4.503,2.6c0,3.852,11.744,4.687,11.744,12.486
		c0,4.874-4.132,7.937-10.584,7.937C252.263,88.528,249.804,88.11,247.714,87.275z"/>
	<path fill="#FFFFFF" d="M168.572,106.557v6.967h-1.809v-6.967h-1.676v-1.467h1.676v-1.587h1.809v1.587h2.016v1.467H168.572z"/>
	<path fill="#FFFFFF" d="M178.177,112.441c-0.607,0.859-1.557,1.305-2.668,1.305c-1.912,0-3.203-1.23-3.203-3.796v-4.86h1.809v4.654
		c0,1.645,0.875,2.371,1.928,2.371c1.141,0,2.076-0.756,2.076-2.416v-4.609h1.793v8.434h-1.734V112.441z"/>
	<path fill="#FFFFFF" d="M184.168,113.523h-1.809v-8.434h1.734v1.154c0.638-0.904,1.646-1.378,2.832-1.378v1.794
		c-0.178-0.029-0.431-0.059-0.668-0.059c-1.082,0-2.09,0.696-2.09,2.268V113.523z"/>
	<path fill="#FFFFFF" d="M190.237,113.523h-1.809v-8.434h1.734v1.125c0.607-0.889,1.571-1.349,2.728-1.349
		c1.883,0,3.202,1.246,3.202,3.795v4.862h-1.809v-4.654c0-1.631-0.874-2.372-1.942-2.372c-1.156,0-2.104,0.757-2.104,2.416V113.523z
		"/>
	<path fill="#FFFFFF" d="M207.035,106.557v6.967h-1.809v-6.967h-1.674v-1.467h1.674v-1.587h1.809v1.587h2.017v1.467H207.035z"/>
	<path fill="#FFFFFF" d="M212.29,113.523h-1.809v-11.117h1.809v3.721c0.622-0.831,1.571-1.261,2.683-1.261
		c1.883,0,3.203,1.246,3.203,3.795v4.862h-1.839v-4.654c0-1.631-0.874-2.372-1.942-2.372c-1.156,0-2.105,0.757-2.105,2.416V113.523z
		"/>
	<path fill="#FFFFFF" d="M224.744,113.746c-2.936,0-4.743-1.705-4.743-4.402c0-2.462,1.837-4.478,4.328-4.478
		c2.327,0,3.958,1.808,3.69,4.447l-0.059,0.504h-6.078c0.178,1.468,1.23,2.312,2.861,2.312c0.993,0,1.928-0.178,2.771-0.578v1.556
		C226.849,113.466,225.929,113.746,224.744,113.746z M221.927,108.499h4.389c-0.061-1.261-0.949-2.018-2.061-2.018
		C223.054,106.481,222.195,107.238,221.927,108.499z"/>
	<path fill="#FFFFFF" d="M238.667,106.557v6.967h-1.809v-6.967h-1.674v-1.467h1.674v-1.587h1.809v1.587h2.016v1.467H238.667z"/>
	<path fill="#FFFFFF" d="M242.084,102.406h1.867v1.482h-1.867V102.406z M243.921,113.523h-1.809v-8.434h1.809V113.523z"/>
	<path fill="#FFFFFF" d="M253.059,112.1c-0.652,1.099-1.735,1.646-2.979,1.646c-2.342,0-4.299-1.882-4.299-4.462
		c0-2.521,1.957-4.418,4.299-4.418c1.2,0,2.238,0.504,2.905,1.527v-3.987h1.809v11.117h-1.734V112.1z M252.985,109.284
		c0-1.57-1.216-2.787-2.668-2.787c-1.497,0-2.684,1.217-2.684,2.787c0,1.601,1.187,2.831,2.684,2.831
		C251.769,112.115,252.985,110.9,252.985,109.284z"/>
	<path fill="#FFFFFF" d="M261.426,113.746c-2.935,0-4.743-1.705-4.743-4.402c0-2.462,1.838-4.478,4.328-4.478
		c2.328,0,3.958,1.808,3.691,4.447l-0.06,0.504h-6.077c0.178,1.468,1.23,2.312,2.86,2.312c0.993,0,1.927-0.178,2.772-0.578v1.556
		C263.531,113.466,262.613,113.746,261.426,113.746z M258.609,108.499h4.389c-0.059-1.261-0.949-2.018-2.06-2.018
		C259.736,106.481,258.877,107.238,258.609,108.499z"/>
	<path fill="#FFFFFF" d="M164.955,126.689c0-2.432,2.046-4.418,4.535-4.418c2.477,0,4.521,1.986,4.521,4.418
		c0,2.461-2.045,4.461-4.521,4.461C167.001,131.15,164.955,129.15,164.955,126.689z M172.158,126.689
		c0-1.586-1.215-2.787-2.668-2.787c-1.496,0-2.683,1.201-2.683,2.787c0,1.602,1.186,2.831,2.683,2.831
		C170.943,129.52,172.158,128.305,172.158,126.689z"/>
	<path fill="#FFFFFF" d="M177.689,130.931h-1.809v-8.437h1.734v1.127c0.607-0.89,1.57-1.35,2.727-1.35
		c1.883,0,3.203,1.247,3.203,3.796v4.863h-1.809v-4.657c0-1.629-0.875-2.371-1.943-2.371c-1.155,0-2.104,0.756-2.104,2.416V130.931z
		"/>
	<path fill="#FFFFFF" d="M193.775,129.639v4.997h-1.809v-12.142h1.734v1.408c0.652-1.082,1.721-1.631,2.966-1.631
		c2.371,0,4.313,1.898,4.313,4.448c0,2.549-1.942,4.431-4.313,4.431C195.464,131.15,194.427,130.647,193.775,129.639z
		 M193.775,126.72c0,1.601,1.201,2.801,2.67,2.801c1.496,0,2.668-1.2,2.668-2.801c0-1.587-1.172-2.817-2.668-2.817
		C194.976,123.902,193.775,125.133,193.775,126.72z"/>
	<path fill="#FFFFFF" d="M202.888,130.931v-11.119h1.809v11.119H202.888z"/>
	<path fill="#FFFFFF" d="M214.016,129.506c-0.652,1.098-1.735,1.645-2.98,1.645c-2.342,0-4.299-1.882-4.299-4.461
		c0-2.52,1.957-4.418,4.299-4.418c1.244,0,2.327,0.549,2.98,1.646v-1.424h1.734v8.437h-1.734V129.506z M213.941,126.689
		c0-1.586-1.215-2.787-2.668-2.787c-1.496,0-2.683,1.201-2.683,2.787c0,1.602,1.186,2.831,2.683,2.831
		C212.726,129.52,213.941,128.305,213.941,126.689z"/>
	<path fill="#FFFFFF" d="M217.906,130.751v-1.542c0.609,0.268,1.453,0.416,2.12,0.416c1.215,0,1.675-0.342,1.675-0.965
		c0-1.392-3.734-1.451-3.734-3.957c0-1.423,1.273-2.432,3.112-2.432c0.86,0,1.587,0.119,2.209,0.43v1.513
		c-0.608-0.281-1.349-0.414-2.059-0.414c-0.979,0-1.439,0.325-1.439,0.83c0,1.229,3.75,1.495,3.75,3.986
		c0,1.556-1.319,2.534-3.38,2.534C219.359,131.15,218.574,131.018,217.906,130.751z"/>
	<path fill="#FFFFFF" d="M228.16,123.962v6.969h-1.809v-6.969h-1.674v-1.468h1.674v-1.586h1.809v1.586h2.017v1.468H228.16z"/>
	<path fill="#FFFFFF" d="M231.725,119.811h1.868v1.481h-1.868V119.811z M233.563,130.931h-1.809v-8.437h1.809V130.931z"/>
	<path fill="#FFFFFF" d="M235.571,126.703c0-2.533,2.061-4.432,4.536-4.432c1.023,0,1.794,0.194,2.49,0.579v1.794
		c-0.74-0.504-1.541-0.742-2.342-0.742c-1.689,0-2.832,1.217-2.832,2.801c0,1.736,1.23,2.817,2.846,2.817
		c0.875,0,1.498-0.222,2.254-0.606v1.733c-0.533,0.268-1.423,0.503-2.519,0.503C237.557,131.15,235.571,129.299,235.571,126.703z"/>
</g>
</svg>
