<?xml version="1.0" encoding="utf-8"?>
<!-- Generator: Adobe Illustrator 25.4.1, SVG Export Plug-In . SVG Version: 6.00 Build 0)  -->
<svg version="1.1" id="Layer_1" xmlns="http://www.w3.org/2000/svg" xmlns:xlink="http://www.w3.org/1999/xlink" x="0px" y="0px"
	 viewBox="0 0 125.5 44.5" style="enable-background:new 0 0 125.5 44.5;" xml:space="preserve">
<style type="text/css">
	.st0{fill:#FFFFFF;}
	.st1{clip-path:url(#SVGID_00000055682721623360479300000008132728208839285157_);}
	.st2{opacity:0.4;}
	.st3{opacity:0.6;clip-path:url(#SVGID_00000055682721623360479300000008132728208839285157_);}
	.st4{opacity:0.5;fill:#FFFFFF;}
	.st5{opacity:0.6;clip-path:url(#SVGID_00000055682721623360479300000008132728208839285157_);fill:#FFFFFF;}
</style>
<g>
	<g>
		<rect x="82.7" y="0.3" class="st0" width="0.9" height="43.9"/>
	</g>
	<g>
		<polygon class="st0" points="91.2,37 90.1,37 90.1,32.6 89,32.6 89,31.8 91.2,31.6 		"/>
		<path class="st0" d="M96.6,14.6c-0.7,0-1.3,0.1-1.8,0.3c-0.6,0.2-1,0.4-1.4,0.7l0.5-4.7h7.8V7.7H90.6l-1.2,11.2l3.5,0.2
			c0.2-0.5,0.5-0.9,0.9-1.2c0.4-0.3,1-0.4,1.8-0.4c0.9,0,1.6,0.3,2.1,1s0.7,1.6,0.7,2.8s-0.2,2-0.7,2.7c-0.4,0.6-1.1,0.9-2.1,0.9
			c-0.8,0-1.5-0.2-2-0.7s-0.8-1.1-0.8-2L89,22.4v0.1c0,1.7,0.6,3,1.9,4s2.9,1.5,4.7,1.5c2.3,0,4-0.6,5.1-1.9
			c1.1-1.2,1.7-2.8,1.7-4.8c0-2.1-0.5-3.8-1.5-4.9S98.4,14.6,96.6,14.6"/>
		<path class="st0" d="M94.5,36.2c0.3,0,0.5-0.1,0.7-0.3s0.2-0.5,0.2-0.8v-0.3c-0.1,0.2-0.3,0.3-0.4,0.3c-0.2,0.1-0.3,0.1-0.5,0.1
			c-0.5,0-0.9-0.2-1.2-0.5c-0.3-0.3-0.4-0.8-0.4-1.3s0.2-1,0.5-1.3s0.8-0.5,1.3-0.5s1,0.2,1.3,0.5s0.5,0.9,0.5,1.5V35
			c0,0.6-0.2,1.1-0.5,1.5S95.2,37,94.6,37c-0.2,0-0.4,0-0.6-0.1s-0.4-0.1-0.5-0.2l0.2-0.8C93.9,36,94,36,94.2,36
			C94.2,36.2,94.3,36.2,94.5,36.2 M94.7,34.5c0.2,0,0.3,0,0.5-0.1c0.1-0.1,0.2-0.2,0.3-0.3v-0.6c0-0.3-0.1-0.6-0.2-0.8
			s-0.3-0.3-0.5-0.3s-0.4,0.1-0.5,0.3S94,33.2,94,33.5s0.1,0.5,0.2,0.7C94.3,34.4,94.4,34.5,94.7,34.5"/>
		<path class="st0" d="M100.9,32.5c-0.6,0.7-1,1.3-1.2,1.9c-0.2,0.6-0.3,1.2-0.3,1.9V37h-1.1v-0.7c0-0.7,0.1-1.4,0.4-2
			s0.7-1.2,1.2-1.8h-2.7v-0.8h3.7V32.5z"/>
		<path class="st0" d="M105.1,37h-3.6v-0.7l1.6-1.9c0.2-0.3,0.4-0.5,0.5-0.7s0.2-0.4,0.2-0.5c0-0.2,0-0.4-0.2-0.5s-0.3-0.2-0.5-0.2
			s-0.4,0.1-0.5,0.2s-0.2,0.4-0.2,0.6h-1l0,0c0-0.5,0.1-0.9,0.5-1.2c0.3-0.3,0.8-0.5,1.3-0.5s1,0.1,1.3,0.4c0.3,0.3,0.5,0.7,0.5,1.1
			c0,0.3-0.1,0.6-0.2,0.9s-0.5,0.6-0.9,1.1l-0.9,1l0,0h2.2L105.1,37L105.1,37z"/>
		<rect x="106" y="34.3" class="st0" width="2.2" height="0.8"/>
		<path class="st0" d="M112.7,37h-3.6v-0.7l1.6-1.9c0.2-0.3,0.4-0.5,0.5-0.7s0.2-0.4,0.2-0.5c0-0.2,0-0.4-0.2-0.5s-0.3-0.2-0.5-0.2
			s-0.4,0.1-0.5,0.2s-0.2,0.4-0.2,0.6h-1l0,0c0-0.5,0.1-0.9,0.5-1.2c0.3-0.3,0.8-0.5,1.3-0.5s1,0.1,1.3,0.4c0.3,0.3,0.5,0.7,0.5,1.1
			c0,0.3-0.1,0.6-0.2,0.9s-0.5,0.6-0.9,1.1l-0.9,1l0,0h2.2L112.7,37L112.7,37z"/>
		<path class="st0" d="M116.9,35.1c0,0.6-0.2,1.1-0.5,1.5s-0.8,0.5-1.3,0.5s-1-0.2-1.3-0.5s-0.5-0.8-0.5-1.5v-1.5
			c0-0.6,0.2-1.1,0.5-1.5c0.3-0.4,0.8-0.5,1.3-0.5s1,0.2,1.3,0.5s0.5,0.8,0.5,1.5V35.1L116.9,35.1z M115.8,33.5
			c0-0.3-0.1-0.6-0.2-0.8s-0.3-0.3-0.5-0.3s-0.4,0.1-0.5,0.3s-0.2,0.5-0.2,0.8v1.7c0,0.3,0.1,0.6,0.2,0.8s0.3,0.3,0.5,0.3
			s0.4-0.1,0.5-0.3s0.2-0.5,0.2-0.8V33.5z"/>
		<path class="st0" d="M121.2,37h-3.6v-0.7l1.6-1.9c0.2-0.3,0.4-0.5,0.5-0.7s0.2-0.4,0.2-0.5c0-0.2,0-0.4-0.2-0.5s-0.3-0.2-0.5-0.2
			s-0.4,0.1-0.5,0.2s-0.2,0.4-0.2,0.6h-1l0,0c0-0.5,0.1-0.9,0.5-1.2c0.3-0.3,0.8-0.5,1.3-0.5s1,0.1,1.3,0.4c0.3,0.3,0.5,0.7,0.5,1.1
			c0,0.3-0.1,0.6-0.2,0.9s-0.5,0.6-0.9,1.1l-0.9,1l0,0h2.2L121.2,37L121.2,37z"/>
		<path class="st0" d="M125.5,37H122v-0.7l1.6-1.9c0.2-0.3,0.4-0.5,0.5-0.7s0.2-0.4,0.2-0.5c0-0.2,0-0.4-0.2-0.5s-0.3-0.2-0.5-0.2
			s-0.4,0.1-0.5,0.2s-0.2,0.4-0.2,0.6h-1l0,0c0-0.5,0.1-0.9,0.5-1.2c0.3-0.3,0.8-0.5,1.3-0.5s1,0.1,1.3,0.4c0.3,0.3,0.5,0.7,0.5,1.1
			c0,0.3-0.1,0.6-0.2,0.9s-0.5,0.6-0.9,1.1l-0.9,1l0,0h2.2L125.5,37L125.5,37z"/>
	</g>
	<path class="st0" d="M4.8,29.2c0,0.8-0.2,1.5-0.6,2C3.9,31.7,3.4,32,2.8,32c-0.5,0-1-0.2-1.3-0.6V34H0v-7.7h1.3v0.5
		c0.4-0.4,0.8-0.6,1.4-0.6c0.7,0,1.2,0.2,1.5,0.8C4.7,27.5,4.8,28.2,4.8,29.2L4.8,29.2L4.8,29.2z M3.4,29.1c0-0.5-0.1-0.9-0.3-1.2
		s-0.4-0.4-0.8-0.4c-0.5,0-0.8,0.2-0.9,0.5v2.3c0.2,0.4,0.5,0.5,0.9,0.5C3.1,30.8,3.4,30.2,3.4,29.1z M8.8,27.7c-0.2,0-0.4,0-0.5,0
		c-0.5,0-0.9,0.2-1.1,0.6v3.6H5.8v-5.5h1.4v0.7c0.3-0.5,0.7-0.8,1.2-0.8c0.2,0,0.3,0,0.5,0.1L8.8,27.7z M9.1,29.1
		c0-0.5,0.1-1,0.3-1.5c0.2-0.4,0.5-0.8,0.9-1s0.8-0.3,1.3-0.3c0.7,0,1.3,0.2,1.8,0.7s0.7,1.1,0.8,1.9v0.4c0,0.8-0.2,1.5-0.7,2
		s-1.1,0.8-1.9,0.8c-0.8,0-1.4-0.3-1.9-0.8C9.4,30.7,9.2,30,9.1,29.1L9.1,29.1L9.1,29.1z M10.6,29.2c0,0.5,0.1,0.9,0.3,1.2
		s0.5,0.4,0.8,0.4s0.6-0.1,0.8-0.4s0.3-0.7,0.3-1.3c0-0.5-0.1-0.9-0.3-1.2c-0.2-0.3-0.5-0.4-0.8-0.4s-0.6,0.1-0.8,0.4
		C10.7,28.1,10.6,28.6,10.6,29.2z M15,29.1c0-0.8,0.2-1.5,0.6-2c0.4-0.5,0.9-0.8,1.6-0.8c0.6,0,1,0.2,1.4,0.6l0.1-0.5H20v5.3
		c0,0.5-0.1,0.9-0.3,1.3c-0.2,0.4-0.5,0.6-0.9,0.8c-0.5,0.2-1,0.2-1.5,0.2c-0.4,0-0.8-0.1-1.1-0.2s-0.7-0.4-0.9-0.6l0.6-0.9
		c0.4,0.4,0.8,0.6,1.3,0.6c0.4,0,0.7-0.1,0.9-0.3c0.2-0.2,0.3-0.5,0.3-0.9v-0.3c-0.3,0.4-0.8,0.6-1.3,0.6c-0.6,0-1.2-0.3-1.6-0.8
		S15,30,15,29.1L15,29.1L15,29.1z M16.4,29.2c0,0.5,0.1,0.9,0.3,1.2s0.5,0.4,0.8,0.4c0.4,0,0.8-0.2,0.9-0.5V28
		c-0.2-0.3-0.5-0.5-0.9-0.5c-0.3,0-0.6,0.1-0.8,0.4C16.5,28.2,16.4,28.6,16.4,29.2z M24.1,27.7c-0.2,0-0.4,0-0.5,0
		c-0.5,0-0.9,0.2-1.1,0.6v3.6H21v-5.5h1.4v0.7c0.3-0.5,0.7-0.8,1.2-0.8c0.2,0,0.3,0,0.5,0.1V27.7z M27.8,31.9
		c-0.1-0.1-0.1-0.3-0.1-0.5c-0.4,0.4-0.8,0.6-1.4,0.6c-0.5,0-1-0.2-1.3-0.5s-0.5-0.7-0.5-1.2c0-0.6,0.2-1,0.6-1.3s1-0.5,1.8-0.5h0.7
		v-0.3c0-0.3-0.1-0.5-0.2-0.6s-0.3-0.2-0.6-0.2c-0.2,0-0.4,0.1-0.6,0.2S26,27.8,26,28h-1.4c0-0.3,0.1-0.6,0.3-0.9s0.5-0.5,0.8-0.6
		c0.4-0.2,0.7-0.2,1.2-0.2c0.7,0,1.2,0.2,1.6,0.5s0.6,0.8,0.6,1.4v2.4c0,0.5,0.1,0.9,0.2,1.2v0.1H27.8L27.8,31.9z M26.6,30.9
		c0.2,0,0.4,0,0.6-0.2c0.2-0.1,0.3-0.2,0.4-0.4v-1H27c-0.7,0-1.1,0.3-1.1,0.8v0.1c0,0.2,0.1,0.3,0.2,0.5
		C26.2,30.8,26.4,30.9,26.6,30.9z M31.5,26.3v0.6c0.4-0.5,0.9-0.7,1.5-0.7c0.7,0,1.2,0.3,1.4,0.8c0.4-0.6,0.9-0.8,1.6-0.8
		c0.6,0,1,0.2,1.3,0.5s0.4,0.9,0.4,1.6v3.5h-1.4v-3.5c0-0.3-0.1-0.5-0.2-0.7c-0.1-0.1-0.3-0.2-0.6-0.2c-0.4,0-0.7,0.2-0.9,0.6v3.8
		h-1.4v-3.5c0-0.3-0.1-0.5-0.2-0.7c-0.1-0.1-0.3-0.2-0.6-0.2c-0.4,0-0.7,0.2-0.9,0.5v3.9h-1.4v-5.5L31.5,26.3L31.5,26.3z M42.2,31.9
		c-0.1-0.1-0.1-0.3-0.1-0.5c-0.4,0.4-0.8,0.6-1.4,0.6c-0.5,0-1-0.2-1.3-0.5s-0.5-0.7-0.5-1.2c0-0.6,0.2-1,0.6-1.3
		c0.4-0.3,1-0.5,1.8-0.5H42v-0.3c0-0.3-0.1-0.5-0.2-0.6s-0.3-0.2-0.6-0.2c-0.2,0-0.4,0.1-0.6,0.2s-0.2,0.3-0.2,0.5H39
		c0-0.3,0.1-0.6,0.3-0.9s0.5-0.5,0.8-0.6c0.4-0.2,0.7-0.2,1.2-0.2c0.7,0,1.2,0.2,1.6,0.5c0.4,0.3,0.6,0.8,0.6,1.4v2.4
		c0,0.5,0.1,0.9,0.2,1.2V32L42.2,31.9L42.2,31.9z M41,30.9c0.2,0,0.4,0,0.6-0.2c0.2-0.1,0.3-0.2,0.4-0.4v-1h-0.5
		c-0.7,0-1.1,0.3-1.1,0.8v0.1c0,0.2,0.1,0.3,0.2,0.5C40.6,30.8,40.8,30.9,41,30.9z M52,29.2c0,0.8-0.2,1.5-0.6,2
		C51,31.7,50.5,32,49.9,32c-0.5,0-1-0.2-1.3-0.6V34h-1.4v-7.7h1.3v0.5c0.4-0.4,0.8-0.6,1.4-0.6c0.7,0,1.2,0.2,1.5,0.8
		C51.8,27.5,52,28.2,52,29.2L52,29.2L52,29.2z M50.6,29.1c0-0.5-0.1-0.9-0.3-1.2s-0.4-0.4-0.8-0.4c-0.5,0-0.8,0.2-0.9,0.5v2.3
		c0.2,0.4,0.5,0.5,0.9,0.5C50.2,30.8,50.6,30.2,50.6,29.1z M56.1,31.9C56,31.8,56,31.6,56,31.4c-0.4,0.4-0.8,0.6-1.4,0.6
		c-0.5,0-1-0.2-1.3-0.5s-0.5-0.7-0.5-1.2c0-0.6,0.2-1,0.6-1.3c0.4-0.3,1-0.5,1.8-0.5h0.7v-0.3c0-0.3-0.1-0.5-0.2-0.6
		s-0.3-0.2-0.6-0.2c-0.2,0-0.4,0.1-0.6,0.2s-0.2,0.3-0.2,0.5h-1.4c0-0.3,0.1-0.6,0.3-0.9s0.5-0.5,0.8-0.6c0.4-0.2,0.7-0.2,1.2-0.2
		c0.7,0,1.2,0.2,1.6,0.5c0.4,0.3,0.6,0.8,0.6,1.4v2.4c0,0.5,0.1,0.9,0.2,1.2V32L56.1,31.9L56.1,31.9z M54.9,30.9
		c0.2,0,0.4,0,0.6-0.2c0.2-0.1,0.3-0.2,0.4-0.4v-1h-0.5c-0.7,0-1.1,0.3-1.1,0.8v0.1c0,0.2,0.1,0.3,0.2,0.5
		C54.5,30.8,54.6,30.9,54.9,30.9z M61.5,27.7c-0.2,0-0.4,0-0.5,0c-0.5,0-0.9,0.2-1.1,0.6v3.6h-1.4v-5.5h1.4v0.7
		c0.3-0.5,0.7-0.8,1.2-0.8c0.2,0,0.3,0,0.5,0.1L61.5,27.7z M65.2,31.9c-0.1-0.1-0.1-0.3-0.1-0.5c-0.4,0.4-0.8,0.6-1.4,0.6
		c-0.5,0-1-0.2-1.3-0.5s-0.5-0.7-0.5-1.2c0-0.6,0.2-1,0.6-1.3c0.4-0.3,1-0.5,1.8-0.5H65v-0.3c0-0.3-0.1-0.5-0.2-0.6
		s-0.3-0.2-0.6-0.2c-0.2,0-0.4,0.1-0.6,0.2s-0.2,0.3-0.2,0.5H62c0-0.3,0.1-0.6,0.3-0.9s0.5-0.5,0.8-0.6c0.4-0.2,0.7-0.2,1.2-0.2
		c0.7,0,1.2,0.2,1.6,0.5s0.6,0.8,0.6,1.4v2.4c0,0.5,0.1,0.9,0.2,1.2V32L65.2,31.9L65.2,31.9z M64,30.9c0.2,0,0.4,0,0.6-0.2
		c0.2-0.1,0.3-0.2,0.4-0.4v-1h-0.5c-0.7,0-1.1,0.3-1.1,0.8v0.1c0,0.2,0.1,0.3,0.2,0.5C63.6,30.8,63.8,30.9,64,30.9z M72.7,32
		c-0.8,0-1.4-0.2-1.9-0.8c-0.5-0.5-0.7-1.2-0.7-2v-0.1c0-0.6,0.1-1,0.3-1.5s0.5-0.8,0.9-1s0.8-0.4,1.3-0.4c0.7,0,1.3,0.2,1.7,0.7
		c0.4,0.5,0.6,1.2,0.6,2v0.6h-3.4c0,0.4,0.2,0.7,0.4,0.9c0.2,0.2,0.5,0.3,0.9,0.3c0.5,0,1-0.2,1.3-0.6l0.7,0.8
		c-0.2,0.3-0.5,0.6-0.9,0.7C73.5,31.9,73.1,32,72.7,32z M72.5,27.4c-0.3,0-0.5,0.1-0.7,0.3c-0.2,0.2-0.3,0.5-0.3,0.8h2v-0.1
		c0-0.3-0.1-0.6-0.3-0.8C73,27.5,72.8,27.4,72.5,27.4z M77.3,31.9h-1.4V24h1.4V31.9z M1.3,38.8v0.6c0.4-0.5,0.9-0.7,1.5-0.7
		c0.7,0,1.2,0.3,1.4,0.8C4.7,39,5.3,38.7,6,38.7c0.6,0,1,0.2,1.3,0.5s0.4,0.9,0.4,1.6v3.5H6.3v-3.5c0-0.3-0.1-0.5-0.2-0.7
		C6,40,5.7,39.9,5.4,39.9c-0.4,0-0.7,0.2-0.9,0.6v3.8H3.1v-3.5c0-0.3-0.1-0.5-0.2-0.7c-0.1-0.1-0.3-0.2-0.6-0.2
		c-0.4,0-0.7,0.2-0.9,0.5v3.9H0v-5.5H1.3L1.3,38.8z M11.3,44.5c-0.8,0-1.4-0.2-1.9-0.8c-0.5-0.5-0.7-1.2-0.7-2v-0.1
		c0-0.6,0.1-1,0.3-1.5c0.2-0.4,0.5-0.8,0.9-1s0.8-0.4,1.3-0.4c0.7,0,1.3,0.2,1.7,0.7s0.6,1.2,0.6,2V42h-3.4c0,0.4,0.2,0.7,0.4,0.9
		s0.5,0.3,0.9,0.3c0.5,0,1-0.2,1.3-0.6l0.7,0.8c-0.2,0.3-0.5,0.6-0.9,0.7C12.2,44.4,11.8,44.5,11.3,44.5z M11.2,39.9
		c-0.3,0-0.5,0.1-0.7,0.3s-0.3,0.5-0.3,0.8h2l0,0c0-0.3-0.1-0.6-0.3-0.8S11.5,39.9,11.2,39.9z M14.2,41.6c0-0.9,0.2-1.5,0.6-2.1
		c0.4-0.5,0.9-0.8,1.5-0.8c0.5,0,1,0.2,1.3,0.6v-2.8H19v7.9h-1.3l-0.1-0.6c-0.4,0.5-0.8,0.7-1.4,0.7s-1.1-0.3-1.5-0.8
		S14.2,42.5,14.2,41.6z M15.6,41.7c0,0.5,0.1,0.9,0.3,1.2s0.4,0.4,0.8,0.4s0.8-0.2,0.9-0.6v-2.2c-0.2-0.4-0.5-0.6-0.9-0.6
		C16,39.9,15.6,40.5,15.6,41.7z M20.2,37.4c0-0.2,0.1-0.4,0.2-0.5s0.3-0.2,0.6-0.2s0.4,0.1,0.6,0.2s0.2,0.3,0.2,0.5
		s-0.1,0.4-0.2,0.5s-0.3,0.2-0.6,0.2s-0.4-0.1-0.6-0.2C20.3,37.8,20.2,37.6,20.2,37.4z M21.7,44.4h-1.4v-5.5h1.4V44.4z M22.8,41.5
		c0-0.5,0.1-1,0.3-1.5c0.2-0.4,0.5-0.8,0.9-1s0.8-0.3,1.3-0.3c0.7,0,1.3,0.2,1.8,0.7s0.7,1.1,0.8,1.9v0.4c0,0.8-0.2,1.5-0.7,2
		s-1.1,0.8-1.9,0.8s-1.4-0.3-1.9-0.8C23,43.2,22.8,42.5,22.8,41.5L22.8,41.5L22.8,41.5z M24.2,41.7c0,0.5,0.1,0.9,0.3,1.2
		s0.5,0.4,0.8,0.4s0.6-0.1,0.8-0.4c0.2-0.3,0.3-0.7,0.3-1.3c0-0.5-0.1-0.9-0.3-1.2c-0.2-0.3-0.5-0.4-0.8-0.4s-0.6,0.1-0.8,0.4
		C24.3,40.6,24.2,41.1,24.2,41.7z M34.5,44.4c-0.1-0.1-0.1-0.3-0.1-0.5c-0.4,0.4-0.8,0.6-1.4,0.6c-0.5,0-1-0.2-1.3-0.5
		s-0.5-0.7-0.5-1.2c0-0.6,0.2-1,0.6-1.3s1-0.5,1.8-0.5h0.7v-0.3c0-0.3-0.1-0.5-0.2-0.6s-0.3-0.2-0.6-0.2c-0.2,0-0.4,0.1-0.6,0.2
		s-0.2,0.3-0.2,0.5h-1.4c0-0.3,0.1-0.6,0.3-0.9s0.5-0.5,0.8-0.6c0.4-0.2,0.7-0.2,1.2-0.2c0.7,0,1.2,0.2,1.6,0.5
		c0.4,0.3,0.6,0.8,0.6,1.4v2.4c0,0.5,0.1,0.9,0.2,1.2v0.1L34.5,44.4L34.5,44.4z M33.3,43.3c0.2,0,0.4,0,0.6-0.2
		c0.2-0.1,0.3-0.2,0.4-0.4v-1h-0.5c-0.7,0-1.1,0.3-1.1,0.8v0.1c0,0.2,0.1,0.3,0.2,0.5C32.9,43.3,33.1,43.3,33.3,43.3z M38.2,38.8
		v0.6c0.4-0.5,0.9-0.7,1.5-0.7c0.7,0,1.2,0.3,1.4,0.8c0.4-0.6,0.9-0.8,1.6-0.8c0.6,0,1,0.2,1.3,0.5s0.4,0.9,0.4,1.6v3.5H43v-3.5
		c0-0.3-0.1-0.5-0.2-0.7c-0.1-0.1-0.3-0.2-0.6-0.2c-0.4,0-0.7,0.2-0.9,0.6v3.8H40v-3.5c0-0.3-0.1-0.5-0.2-0.7
		c-0.1-0.1-0.3-0.2-0.6-0.2c-0.4,0-0.7,0.2-0.9,0.5v3.9h-1.4v-5.5L38.2,38.8L38.2,38.8z M50.6,41.6c0,0.9-0.2,1.6-0.5,2.1
		s-0.9,0.7-1.5,0.7s-1-0.2-1.4-0.7L47,44.4h-1.3v-7.9h1.4v2.8c0.3-0.4,0.8-0.6,1.3-0.6c0.7,0,1.2,0.2,1.5,0.7
		C50.4,40,50.6,40.6,50.6,41.6L50.6,41.6L50.6,41.6z M49.2,41.5c0-0.6-0.1-1-0.3-1.2c-0.2-0.3-0.4-0.4-0.8-0.4
		c-0.5,0-0.8,0.2-0.9,0.6v2.2c0.2,0.4,0.5,0.6,1,0.6s0.8-0.2,0.9-0.7C49.1,42.3,49.2,42,49.2,41.5z M51.5,37.4
		c0-0.2,0.1-0.4,0.2-0.5c0.1-0.1,0.3-0.2,0.6-0.2s0.4,0.1,0.6,0.2s0.2,0.3,0.2,0.5s-0.1,0.4-0.2,0.5s-0.3,0.2-0.6,0.2
		s-0.4-0.1-0.6-0.2C51.6,37.8,51.5,37.6,51.5,37.4z M53,44.4h-1.4v-5.5H53V44.4z M56.8,44.5c-0.8,0-1.4-0.2-1.9-0.8
		c-0.5-0.5-0.7-1.2-0.7-2v-0.1c0-0.6,0.1-1,0.3-1.5c0.2-0.4,0.5-0.8,0.9-1s0.8-0.4,1.3-0.4c0.7,0,1.3,0.2,1.7,0.7s0.6,1.2,0.6,2V42
		h-3.4c0,0.4,0.2,0.7,0.4,0.9s0.5,0.3,0.9,0.3c0.5,0,1-0.2,1.3-0.6l0.7,0.8c-0.2,0.3-0.5,0.6-0.9,0.7C57.6,44.4,57.2,44.5,56.8,44.5
		z M56.6,39.9c-0.3,0-0.5,0.1-0.7,0.3s-0.3,0.5-0.3,0.8h2l0,0c0-0.3-0.1-0.6-0.3-0.8S56.9,39.9,56.6,39.9z M61.2,38.8v0.6
		c0.4-0.5,0.9-0.7,1.5-0.7s1,0.2,1.3,0.5c0.3,0.3,0.4,0.9,0.4,1.5v3.6H63v-3.5c0-0.3-0.1-0.5-0.2-0.7s-0.4-0.2-0.7-0.2
		c-0.4,0-0.7,0.2-0.9,0.5v3.9h-1.4v-5.5C59.8,38.8,61.2,38.8,61.2,38.8z M67.3,37.5v1.4h0.9V40h-0.9v2.8c0,0.2,0,0.3,0.1,0.4
		c0.1,0.1,0.2,0.1,0.4,0.1c0.2,0,0.3,0,0.4,0v1.1c-0.3,0.1-0.6,0.1-0.9,0.1c-1,0-1.5-0.5-1.5-1.6v-3H65v-1.1h0.8v-1.3H67.3z
		 M71.6,44.5c-0.8,0-1.4-0.2-1.9-0.8c-0.5-0.5-0.7-1.2-0.7-2v-0.1c0-0.6,0.1-1,0.3-1.5c0.2-0.4,0.5-0.8,0.9-1s0.8-0.4,1.3-0.4
		c0.7,0,1.3,0.2,1.7,0.7c0.4,0.5,0.6,1.2,0.6,2V42h-3.4c0,0.4,0.2,0.7,0.4,0.9c0.2,0.2,0.5,0.3,0.9,0.3c0.5,0,1-0.2,1.3-0.6l0.7,0.8
		c-0.2,0.3-0.5,0.6-0.9,0.7C72.4,44.4,72,44.5,71.6,44.5z M71.4,39.9c-0.3,0-0.5,0.1-0.7,0.3s-0.3,0.5-0.3,0.8h2l0,0
		c0-0.3-0.1-0.6-0.3-0.8C72,40,71.7,39.9,71.4,39.9z M65.9,11.8c0-2.6-1.4-2.6-1.4-2.6l-3.7-0.5c-0.1,0.4-0.2,0.9-0.2,1.4
		c0,2.6,1.7,4.8,4.1,5.6C64.7,15.6,65.9,14.2,65.9,11.8z M68,15.6c2.3-0.7,4.1-2.9,4.1-5.6c0-0.5-0.1-0.9-0.2-1.4l-3.7,0.5
		c0,0-1.4,0.1-1.4,2.6C66.9,14.2,68,15.6,68,15.6z M66.4,5.9c0.5,0,0.9,0.4,0.9,0.9c0,0.4-0.3,0.7-0.6,0.8c0,0-0.1,0-0.1,0.1
		s0.2,0.1,0.3,0.1l5,0.6C71.2,6,69,4.2,66.4,4.2l0,0c-2.6,0-4.8,1.8-5.5,4.2l5-0.6c0.1,0,0.2,0,0.3-0.1c0-0.1,0-0.1-0.1-0.1
		c-0.3-0.2-0.6-0.5-0.6-0.8C65.5,6.3,65.9,5.9,66.4,5.9L66.4,5.9z M68.7,19.7l0.3-0.2c0,0-1.6-2.2-5.2-2.2C62,17.3,61,18,59.7,18
		c0,0-0.5,0.1-1-0.3c0,0,0.6,0.9,2.8,0.9c1.6,0,2.8-1,3.9-1C67,17.7,68.2,19.1,68.7,19.7z M66.9,17.7c1.1,0,2.3,1,3.9,1
		c2.2,0,2.8-0.9,2.8-0.9c-0.5,0.3-1,0.3-1,0.3c-1.3,0-2.2-0.8-4.1-0.8c-3.6,0-5.2,2.2-5.2,2.2l0.3,0.2
		C64.2,19.1,65.3,17.7,66.9,17.7z M60.8,15.2c-0.4-0.7-1.3-1.7-1.3-1.7c0.1,0.4,0,0.9,0.2,1.6c0.4,1.4,1.3,1.7,1.4,1.7
		c0.1,0,0.1,0.1,0.1,0.1H61c-0.8-0.5-1.8-0.7-2.7-0.8c-0.9-0.1-2-1.3-2-1.3c1.2,2.9,3.9,2.6,4.5,2.4c0.5-0.1,1.1,0.1,1.2-0.1
		C61.2,16.6,61.1,15.9,60.8,15.2z M59.1,15.3c-0.3-0.9-0.2-0.7-0.2-1.8s-0.6-2.3-0.6-2.3c-0.6,1.5-0.2,2.8,0,3s0.4,0.7,0.4,0.8
		s0,0.1,0,0.1s-0.8-1-1.2-1.4s-0.6-0.5-1.2-1s-0.8-1.3-0.8-1.3c-0.1,2.1,1.3,3.3,2.1,3.6c0.8,0.3,1.2,0.5,1.3,0.5s0.2,0.2,0.3,0.1
		C59.2,15.6,59.1,15.3,59.1,15.3z M57.4,12.7c-0.1-0.6,0.1-0.8,0.5-2c0.4-1.1,0.3-2.4,0.3-2.4C58.1,8.5,58,8.6,58,8.6
		c-0.1,0.3-0.3,0.5-0.3,0.5c-0.4,0.4-0.6,1.2-0.6,1.6s0,1.1,0,1.1v0.1L57,11.8c-0.1-0.7-0.4-1.4-0.7-1.8c-0.3-0.4-0.7-1.4-0.7-1.8
		s-0.1-0.4-0.1-0.4c-0.8,1.8,0.2,3,0.4,3.2c0.1,0.2,1,1.2,1.1,1.4s0.3,0.5,0.3,0.4C57.4,12.8,57.4,12.7,57.4,12.7z M56.8,9.4
		c0-0.1,0.1-0.4,0.1-0.4c0.3-0.8,0-0.3,0.9-1.3c1-1.1,1.1-2,1.1-2c-0.1,0.3-1,0.6-1.5,1.2s-0.5,1.3-0.5,1.3s0,0.1-0.1,0.1V8.2
		c0-0.2,0.1-1,0.1-1.3s-0.1-1-0.1-1.1s-0.1-0.6,0.1-1.2c0.2-0.6,0.2-0.8,0.2-0.8c-0.8,0.9-1.2,2-1.1,2.8s0.3,1.5,0.4,1.6
		c0.1,0.1,0.2,0.8,0.2,1C56.6,9.3,56.7,9.5,56.8,9.4C56.7,9.5,56.8,9.5,56.8,9.4z M57.5,6.1c0.5-0.7,0.6-0.5,1.5-1s1.8-1.5,1.8-1.5
		S59.9,3.9,59.4,4c-0.5,0.1-1,0.7-1.1,0.8C58,5,57.9,5,57.9,5s0,0,0.1-0.2c0.2-0.2,0.7-1.1,0.8-1.6s0.5-1.3,0.6-1.4s0.2-0.2,0.2-0.2
		c-1.5,0.8-1.9,2.1-2.1,2.8s0,1.3-0.2,1.6s-0.1,0.4-0.1,0.4C57.3,6.3,57.5,6.1,57.5,6.1z M59.4,3.4c0.2-0.1,0-0.2,1.5-0.4
		C62.4,2.7,63,2.3,63,2.3c-0.1,0-0.8,0-1.5,0s-1.2,0.5-1.2,0.5s-0.1,0.1-0.1,0l0.1-0.1c0.2-0.1,0.8-0.5,1-0.8c0.2-0.2,0.7-0.9,0.8-1
		s0.6-0.5,0.6-0.5c-1.6,0.3-2.2,1.4-2.5,1.8s-0.4,0.9-0.6,1S59.4,3.4,59.4,3.4C59.3,3.5,59.4,3.4,59.4,3.4z M62.3,1.7
		c0.1,0,0.5,0,0.9,0.2s1.1,0.2,1.4,0.2c0.3,0,0.8,0,0.8,0C65.4,2,65.2,2,65,1.9s-0.2-0.1-0.6-0.3S63.1,1.5,63,1.5s-0.1,0-0.1,0
		s-0.2,0,0.2-0.1c0.3-0.1,1.1-0.4,1.3-0.5s0.7-0.2,0.8-0.3s0.4-0.1,0.4-0.1c-0.8-0.3-1.5-0.1-2.3,0.2c-0.7,0.4-0.7,0.6-1,0.7
		S62,1.6,62,1.6C62,1.7,62.2,1.7,62.3,1.7z M65.4,1.4c0.1,0,0.5,0.5,0.8,0.6c0.3,0.1,1.3,0.4,1.3,0.4s-0.3-0.2-0.6-0.6
		c-0.4-0.4-0.6-0.4-0.7-0.4s-0.5-0.1-0.4-0.2s0.4,0,0.6,0s1-0.1,1.1-0.1s0.5,0,0.5,0c-0.7-0.5-1.5-0.4-2-0.3S65.5,1,65.2,1.1
		S65,1.3,65,1.3S65.3,1.4,65.4,1.4z M68.2,2.3c0.1,0.1,0.6,0.4,0.8,0.4c0.2,0,0.5,0.3,0.5,0.3c0-0.2-0.4-0.6-0.9-1
		c-0.5-0.3-1.1-0.3-1.1-0.3C67.5,1.8,68.1,2.2,68.2,2.3z M71,17.2c0,0,0.2,0,0.5,0c0.4,0.1,1,0.1,1,0.1c1.7,0,3-1.7,3.2-1.9
		c0.2-0.3,0.4-0.8,0.4-0.8c-0.6,1-2.1,1.4-2.5,1.5s-0.6,0.2-0.8,0.3c-0.2,0.1-0.7,0.3-0.8,0.4c-0.1,0.1-0.4,0.2-0.4,0.2h-0.3
		l0.2-0.2c0.5-0.3,0.5-0.4,0.9-0.9s0.5-1.3,0.5-1.5s0.1-0.6,0.1-0.6c-0.7,0.6-1,1.1-1.3,1.7s-0.4,1-0.8,1.3s-0.4,0.4-0.4,0.4
		C70.6,17.2,70.9,17.2,71,17.2z M74.4,11.2c0,0-0.7,1-0.8,2.5c-0.2,1.5,0.1,1-0.1,1.7c0,0-0.1,0.2,0,0.2c0,0,0.2-0.1,0.6-0.3
		c0.5-0.3,0.9-0.2,1.9-1.2s1.2-2.9,1.2-3c0,0-0.2,0.1-0.2,0.4c-0.1,0.3-0.2,0.5-0.3,0.5s-1.1,1.2-1.2,1.3s-0.8,0.9-0.9,1.1
		S74,15,74,15s0-0.1,0-0.2c0-0.1,0.3-0.5,0.5-1c0.1-0.5,0.2-0.8,0.2-1.1C74.6,12.5,74.4,11.4,74.4,11.2z M75.7,12
		c0.3-0.5,0.4-0.3,1.1-1.5S77.2,8,77.2,8c-0.2,0.7-1,1.9-1.2,2.4s-0.3,0.9-0.3,1s-0.1,0.2-0.1,0.1c0,0,0-0.2,0-0.8S75,8.9,75,8.8
		s-0.3-0.7-0.3-0.7S74.6,8.2,74.6,9s0.4,1.9,0.6,2.4s0.2,0.9,0.1,1s0,0.3,0,0.3C75.3,12.6,75.4,12.6,75.7,12z M76.1,9.1
		c0-0.1,0.2-0.6,0.2-0.7s0.4-0.9,0.5-1.8c0-0.9-0.4-1.6-0.4-1.6c0.1,0.4-0.1,1.1-0.2,1.5s-0.1,1.3-0.1,1.3v0.5c0,0,0-0.4-0.2-0.8
		c-0.1-0.4-0.6-0.9-0.7-1s-0.8-0.8-0.8-0.8c0.2,1.3,1.3,2.6,1.4,2.8C75.9,8.7,75.9,9.1,76.1,9.1C76,9.2,76.1,9.2,76.1,9.1z
		 M74.9,3.5c0,0.3,0.2,0.8,0.3,1.1c0.2,0.3,0.2,0.4,0.2,0.6c0.1,0.2,0,0.1,0,0.1c-0.1-0.2-0.2-0.5-0.5-0.9C74.6,4.1,74.2,4,74.1,4
		s-0.5-0.2-0.6-0.4c-0.1-0.1-0.2-0.1-0.2-0.1c0.5,1.2,1.8,2,1.9,2.1s0.4,0.5,0.5,0.6s0.1,0,0.1,0c0.2-2.9-1.2-3.7-1.2-3.7
		C74.8,2.7,74.9,3.2,74.9,3.5z M74.4,3.5c0,0,0-0.2-0.1-0.5s0-0.6-0.5-1.3C73.6,1.3,72.7,1,72.7,1s0.2,0.3,0.4,0.5
		c0.2,0.2,0.2,0.3,0.3,0.4s0.3,0.4,0.5,0.5c0,0,0.1,0.1,0.1,0.2s-0.1,0-0.2-0.1c0,0-0.5-0.4-0.9-0.5c-0.3-0.1-1-0.1-1.1-0.2
		c0,0,0.7,0.7,1.5,0.9C74.1,3.1,74.4,3.5,74.4,3.5z M72.8,1.7c0,0-0.7-1-2.1-1c0,0,0.1,0.1,0.2,0.1c0.2,0,0.4,0.3,0.5,0.4
		C71.6,1.3,71.9,1.5,72.8,1.7z M15.7,10.1c0,1.4-0.2,2.7-0.6,3.9s-0.9,2.1-1.6,2.9c-0.7,0.8-1.5,1.4-2.5,1.8s-2,0.6-3.2,0.6
		s-2.2-0.2-3.2-0.6s-1.8-1-2.5-1.8C1.5,16.1,1,15.1,0.6,14C0.2,12.8,0,11.5,0,10.1V9.3c0-1.4,0.2-2.7,0.6-3.9C1,4.3,1.5,3.3,2.2,2.5
		s1.5-1.4,2.5-1.8s2-0.6,3.2-0.6s2.2,0.2,3.2,0.6s1.8,1,2.5,1.8s1.2,1.8,1.6,2.9c0.4,1.1,0.6,2.4,0.6,3.9L15.7,10.1L15.7,10.1z
		 M11.9,9.2c0-2-0.4-3.5-1-4.5s-1.7-1.5-3-1.5s-2.3,0.5-3,1.5s-1,2.5-1,4.5v0.9c0,1,0.1,1.9,0.3,2.6s0.4,1.4,0.8,1.9
		c0.3,0.5,0.8,0.9,1.3,1.2s1.1,0.4,1.7,0.4c1.3,0,2.3-0.5,3-1.5s1-2.5,1-4.5L11.9,9.2L11.9,9.2z M33.5,19.1h-3.8L22.3,6.7v12.4h-3.8
		V0.3h3.8l7.4,12.4V0.3h3.8V19.1L33.5,19.1z M50.8,0.3v12.4c0,1.1-0.2,2-0.5,2.9c-0.3,0.9-0.8,1.5-1.5,2.1s-1.4,1-2.2,1.3
		s-1.8,0.4-2.8,0.4s-2-0.1-2.8-0.4c-0.9-0.3-1.6-0.7-2.2-1.3c-0.6-0.6-1.1-1.2-1.5-2.1s-0.5-1.8-0.5-2.9V0.3h3.8v12.4
		c0,1.2,0.3,2.1,0.9,2.7s1.4,0.8,2.4,0.8s1.8-0.3,2.4-0.8s0.9-1.5,0.9-2.7V0.3H50.8z"/>
</g>
<g>
	<g>
		<g>
			<path class="st0" d="M117,20.5c0,0-1,1.3-1.2,3.2c-0.2,1.9,0.2,1.3-0.2,2.2l-0.1,0.2c0,0,0.2-0.1,0.9-0.5
				c0.7-0.4,1.4-0.3,2.9-1.5s1.8-3.7,1.8-3.9c0,0-0.2,0.2-0.3,0.5s-0.4,0.6-0.4,0.6c-0.1,0-1.7,1.6-1.9,1.7
				c-0.1,0.3-1.1,1.3-1.3,1.6c-0.2,0.3-0.8,0.8-0.9,0.8c0,0,0-0.1,0.1-0.2s0.5-0.6,0.7-1.2c0.2-0.6,0.2-1,0.2-1.4
				C117.3,22.2,117,20.8,117,20.5"/>
		</g>
	</g>
	<g>
		<g>
			<path class="st0" d="M118.3,22.4c0,0-0.1-0.2,0-0.3c0.1-0.1,0.1-0.7-0.2-1.3c-0.3-0.5-0.9-2-0.9-3c0.1-1,0.2-1.1,0.2-1.1
				s0.3,0.8,0.4,1c0.1,0.1,1.1,1.6,1,2.4c-0.1,0.8-0.1,1-0.1,1.1c0.1,0,0.2-0.1,0.2-0.2s0.2-0.6,0.5-1.3c0.3-0.6,1.5-2.1,1.8-3
				c0,0,0.4,1.7-0.7,3.2s-1.2,1.2-1.6,1.9C118.5,22.3,118.4,22.4,118.3,22.4"/>
		</g>
	</g>
	<g>
		<g>
			<path class="st0" d="M119.3,18c-0.1,0,0-0.6-0.2-0.8c-0.2-0.2-1.8-1.9-2.2-3.5c0,0,1,0.9,1.2,1c0.2,0.1,0.9,0.7,1.1,1.2
				c0.2,0.5,0.2,1,0.2,1c0.1,0,0.1-0.6,0.1-0.6s0-1.2,0.1-1.7c0.1-0.5,0.4-1.5,0.3-1.9c0,0,0.6,0.9,0.6,2.1s-0.6,2.2-0.7,2.3
				c-0.1,0.1-0.3,0.7-0.3,0.8C119.5,17.9,119.3,18,119.3,18"/>
		</g>
	</g>
	<g>
		<g>
			<path class="st0" d="M117.4,9.4c0,0,2.1,1.1,1.8,4.8c0,0,0,0.2-0.1,0s-0.6-0.7-0.8-0.8c-0.2-0.1-2.1-1.1-2.9-2.6
				c0,0,0.1,0,0.3,0.1c0.2,0.1,0.8,0.4,0.9,0.5c0.1,0,0.8,0.2,1.2,0.7s0.7,0.8,0.8,1.1c0,0,0.1,0.1,0.1-0.2
				c-0.1-0.3-0.1-0.5-0.4-0.8c-0.2-0.3-0.5-1-0.5-1.4C117.7,10.3,117.6,9.6,117.4,9.4"/>
		</g>
	</g>
	<g>
		<g>
			<path class="st0" d="M117,10.7c0,0,0.1-0.2-0.2-0.6c-0.3-0.4-0.1-0.7-0.7-1.6c-0.4-0.5-1.6-0.9-1.6-0.9s0.4,0.4,0.6,0.7
				c0.2,0.2,0.3,0.4,0.4,0.5c0.1,0.1,0.5,0.5,0.7,0.7c0,0,0.1,0.1,0.1,0.2s-0.2,0-0.2-0.1c-0.1,0-0.8-0.5-1.3-0.6s-1.4-0.2-1.7-0.3
				c0,0,1.1,0.9,2.3,1.1C116.6,10.1,117,10.7,117,10.7"/>
		</g>
	</g>
	<g>
		<g>
			<path class="st0" d="M115.8,26.7c-0.6,0.2-0.9,0.3-1.2,0.4c-0.3,0.1-1,0.4-1.2,0.5c-0.2,0.1-0.7,0.2-0.7,0.2s-0.5,0.1-0.5,0
				l0.2-0.2c0.7-0.4,0.7-0.5,1.3-1.1s0.8-1.7,0.8-1.9c0-0.2,0.2-0.8,0.2-0.8c-1.1,0.8-1.5,1.4-2,2.2c-0.2,0.3-0.3,0.5-0.4,0.7
				c-0.3,0.8-0.7,1.4-1.2,1.4l0,0c-0.1,0.1-0.1,0.1-0.1,0.1c0.1,0,0.6,0,0.7-0.1c0.1,0,0.3,0,0.8,0.1s1.6,0.2,1.6,0.2
				c2.6,0,4.5-2.1,4.8-2.5c0.3-0.4,0.6-1.1,0.6-1.1C118.7,26.1,116.4,26.6,115.8,26.7"/>
		</g>
	</g>
</g>
<g>
	<defs>
		<circle id="SVGID_1_" cx="114.9" cy="17.7" r="10.4"/>
	</defs>
	<clipPath id="SVGID_00000081619056078596932940000001989715626757182865_">
		<use xlink:href="#SVGID_1_"  style="overflow:visible;"/>
	</clipPath>
	<g style="clip-path:url(#SVGID_00000081619056078596932940000001989715626757182865_);">
		<g class="st2">
			<g>
				<defs>
					<circle id="SVGID_00000046310154612695616060000011007105639130039195_" cx="114.9" cy="17.8" r="10.4"/>
				</defs>
				<use xlink:href="#SVGID_00000046310154612695616060000011007105639130039195_"  style="overflow:visible;fill:#FFFFFF;"/>
				<clipPath id="SVGID_00000003816203997529488560000002700193926326477970_">
					<use xlink:href="#SVGID_00000046310154612695616060000011007105639130039195_"  style="overflow:visible;"/>
				</clipPath>
			</g>
		</g>
	</g>
	<g style="opacity:0.6;clip-path:url(#SVGID_00000081619056078596932940000001989715626757182865_);">
		<path class="st0" d="M114.4,9.7c0.1,0.1,0.1,0.2,0.2,0.2"/>
	</g>
	<g style="opacity:0.6;clip-path:url(#SVGID_00000081619056078596932940000001989715626757182865_);">
		<path class="st0" d="M109,19.1L109,19.1L109,19.1z"/>
	</g>
	<g style="opacity:0.6;clip-path:url(#SVGID_00000081619056078596932940000001989715626757182865_);">
		<path class="st0" d="M108.7,19.9L108.7,19.9L108.7,19.9z"/>
	</g>
	<g style="opacity:0.6;clip-path:url(#SVGID_00000081619056078596932940000001989715626757182865_);">
		<path class="st0" d="M108.5,20.4L108.5,20.4L108.5,20.4L108.5,20.4L108.5,20.4z"/>
	</g>
	<g style="opacity:0.6;clip-path:url(#SVGID_00000081619056078596932940000001989715626757182865_);">
		<path class="st0" d="M108.4,19.5L108.4,19.5L108.4,19.5L108.4,19.5z"/>
	</g>
	<g style="opacity:0.6;clip-path:url(#SVGID_00000081619056078596932940000001989715626757182865_);">
		<path class="st0" d="M113.5,19.3C113.4,19.3,113.4,19.3,113.5,19.3C113.5,19.3,113.5,19.2,113.5,19.3L113.5,19.3z"/>
	</g>
	<g style="opacity:0.6;clip-path:url(#SVGID_00000081619056078596932940000001989715626757182865_);">
		<path class="st0" d="M114.9,20.3C114.9,20.3,114.9,20.4,114.9,20.3C114.9,20.4,114.9,20.4,114.9,20.3z"/>
	</g>
	<g style="opacity:0.6;clip-path:url(#SVGID_00000081619056078596932940000001989715626757182865_);">
		<path class="st4" d="M125.9,15.2c-0.1,0-0.2-0.1-0.2-0.2c0-0.2-0.1-0.5,0.2-0.7c0.1-0.1,0.1-0.2-0.1-0.2c-0.2,0-0.2-0.1-0.2-0.3
			s-0.1-0.3-0.3-0.3c-0.2,0-0.3,0.2-0.3,0.3s0.1,0.3-0.2,0.3c-0.2,0-0.2-0.1-0.3-0.2c-0.1-0.1-0.1-0.2-0.2-0.1
			c-0.1,0.1-0.1,0-0.2-0.1c-0.1-0.1-0.2-0.3-0.4-0.1h-0.1c-0.1-0.1-0.2-0.2-0.2-0.4c-0.1,0-0.1,0.1-0.1,0.1
			c-0.1,0.2-0.4,0.3-0.6,0.2c-0.1-0.1-0.2-0.2-0.2,0c0,0.1-0.1,0.2,0.1,0.3c0.1,0,0.3,0.2,0.2,0.3c-0.1,0.2-0.1,0.4-0.1,0.6
			c0,0,0,0.1-0.1,0.1s-0.2,0.1-0.3,0.1c-0.2,0-0.2,0.2-0.1,0.3c0,0.1,0,0.2-0.1,0.2c-0.2,0-0.2,0.2-0.3,0.3c-0.2,0.2,0,0.4-0.1,0.6
			c0,0.1-0.1,0.3,0,0.3s0.2-0.1,0.2-0.2c0.1-0.2,0.3-0.4,0.6-0.2c-0.1,0.2-0.3,0.3-0.4,0.5c-0.1,0.1-0.2,0.2-0.1,0.4
			c0.1,0.1,0,0.2,0,0.3c-0.1,0.1-0.1,0-0.2-0.1s-0.2,0-0.2,0.1c0,0,0,0.1,0,0.2c0,0.3-0.1,0.4-0.4,0.3c-0.1,0-0.1-0.2-0.2-0.3
			c-0.5,0.4-0.8,0.4-1.3,0c-0.1-0.1-0.1,0-0.2,0c-0.1,0.2-0.3,0.2-0.5,0.2c-0.1,0-0.1,0-0.2,0c-0.2,0-0.2-0.1-0.2-0.2
			c0-0.2,0.1-0.3,0.2-0.3c0.1,0,0.2,0,0.2-0.2c0-0.3,0-0.3,0.3-0.3c0.2,0,0.2-0.1,0.2-0.2s-0.1-0.2-0.1-0.2
			c-0.1-0.1-0.2-0.2-0.1-0.4c0,0,0,0,0-0.1h-0.1h-0.1c-0.2,0-0.1,0-0.1,0.2c0.1,0.1,0.1,0.2,0,0.4c-0.1,0.1-0.2,0.1-0.3,0.1
			s-0.2,0-0.2,0.1c0,0.2-0.2,0.3-0.4,0.4c-0.1-0.1-0.1-0.2-0.1-0.3c0-0.1-0.1-0.1-0.1-0.2c0,0,0-0.1-0.1-0.1s-0.1,0-0.1,0.1
			c-0.1,0.2,0,0.6,0.2,0.7c0.1,0.1,0.1,0.2,0.1,0.3c0,0.1-0.1,0.2-0.2,0.2c-0.2,0-0.4,0-0.5-0.2c-0.2-0.3-0.2-0.6-0.1-0.8
			c0.1-0.1,0.1-0.2,0-0.2c-0.1-0.1-0.1-0.2,0-0.3c0.1-0.1,0.1-0.2,0-0.2c-0.1-0.1-0.1-0.1,0-0.2c0.1-0.1,0.1-0.2,0.3-0.3
			c0.1,0,0.1-0.1,0-0.1c-0.1,0-0.1-0.3-0.2-0.1c0,0-0.1,0.1-0.1,0c-0.1,0-0.1-0.1-0.1-0.1l0.1-0.1c0.2,0,0.1-0.1,0.1-0.2
			c0,0,0-0.1,0-0.2c0.1-0.4,0.2-0.7,0.3-1.1c0-0.1,0.1-0.3,0.2-0.4c0,0-0.1-0.1,0-0.2c0.1,0,0.1-0.1,0.3,0c-0.1-0.1-0.2-0.2-0.1-0.4
			c0-0.1,0-0.3-0.1-0.3s-0.2,0.1-0.3,0.2c-0.1,0-0.1,0.2-0.1,0.1s-0.2-0.1-0.3-0.2c0.1,0,0.1-0.1,0.2-0.1s0.1-0.1,0-0.2
			c0,0,0-0.1-0.1-0.1s-0.2-0.1-0.2-0.2v-0.1c0-0.1,0-0.2-0.2-0.1c-0.2,0.1-0.4,0-0.4-0.1c-0.2,0.2-0.4,0-0.5-0.1s-0.2-0.1-0.3,0
			c0,0.1-0.1,0.1-0.2,0.1c-0.1-0.1-0.3,0-0.5-0.1c-0.1,0.2-0.3,0.4-0.4,0.3c-0.1-0.1-0.2,0-0.3,0l0,0l0,0c0-0.1,0.1-0.2,0-0.3
			s-0.3-0.2-0.4-0.2c-0.2,0.1-0.3-0.1-0.4-0.2c-0.1-0.1-0.2-0.2-0.2,0c0,0.1-0.2,0-0.2,0.1c0.1,0.2,0.1,0.3,0.1,0.5
			c-0.1,0-0.1-0.1-0.1-0.1c-0.1,0-0.1-0.1-0.2-0.1s-0.1,0.2,0,0.2v0.1c0.1,0.3,0.1,0.3-0.3,0.4c0-0.1,0-0.1-0.1-0.3
			c-0.1-0.1-0.1-0.2-0.3-0.2h-0.1c-0.1-0.3-0.2-0.1-0.3,0s-0.1,0.2-0.1,0.3s0,0.1,0,0.2c-0.1,0.2-0.2,0.4-0.3,0.6
			c0,0.1-0.1,0.1,0,0.1c0.2,0.1,0.2,0.2,0.3,0.4v0.1h-0.1c-0.1,0-0.1-0.1-0.1,0s-0.1,0.2-0.2,0.2c-0.1,0-0.2-0.1-0.2-0.2
			c0-0.1,0-0.2,0.1-0.3c-0.1,0-0.2,0-0.3,0.1c0,0.1-0.1,0.2-0.2,0c0-0.1-0.1-0.1-0.2-0.1s-0.1,0.1-0.1,0.2c-0.1,0.1-0.1,0.2-0.2,0.4
			s-0.2,0.2-0.4,0.1c-0.1-0.1-0.2-0.2-0.3-0.2s-0.2,0-0.2-0.1c-0.1-0.1-0.1-0.2-0.2-0.1c-0.2,0-0.3,0-0.4-0.3c0-0.1-0.1-0.2-0.2-0.3
			c-0.2-0.1-0.2-0.3-0.1-0.5c0.1-0.1,0.1-0.1,0-0.2c-0.1-0.1-0.1-0.1-0.2-0.1s-0.3,0-0.4-0.1c0.1-0.1,0.2,0,0.2-0.1
			s-0.1-0.1-0.2-0.2c-0.1,0-0.1,0-0.1-0.1s-0.1-0.2,0-0.2c0.1,0.1,0.2-0.1,0.4,0c0.1,0.1,0.3,0.1,0.4,0.1c0.3,0,0.3,0,0.3-0.3
			c0-0.2,0.1-0.6,0.2-0.7c0.2,0,0.2-0.2,0.2-0.3s-0.1-0.3-0.2-0.4c-0.1,0-0.3-0.1-0.4,0.1h-0.1c-0.2-0.1-0.3,0-0.4,0.1
			c-0.1,0.1-0.2,0.2-0.3,0.2v0.1l0,0c0,0,0-0.1,0.1-0.1c0-0.2-0.1-0.2-0.2-0.1s-0.2,0.1-0.1,0.2c0.2,0.2-0.1,0.4-0.1,0.5l0,0
			c0,0.1,0,0.1-0.1,0.2c-0.1-0.1-0.1-0.2-0.2,0c-0.1,0.2-0.2,0.1-0.3-0.1c0,0.2,0,0.3-0.2,0.3c-0.1,0-0.1,0-0.1,0.1
			c0.1,0.1,0,0.2-0.1,0.3c0,0.1,0.1,0.2,0.1,0.4c0,0.1-0.1,0.1-0.1,0.2c-0.1,0-0.2,0.1-0.2,0.2c0,0.1-0.1,0.1-0.1,0.1
			c-0.2,0.1-0.3,0.3-0.2,0.4c0,0.2-0.1,0.4-0.2,0.6c0,0-0.2,0-0.3,0.1c-0.1,0-0.1,0-0.2,0.1c0,0.1,0.3,0.2,0.1,0.3
			c-0.1,0-0.1,0.1-0.1,0.2c0,0.1-0.1,0.2-0.2,0.2s-0.1-0.1,0-0.2c0,0,0,0,0-0.1c0.1-0.5,0.1-1,0.4-1.4c0.2-0.2,0.2-0.5,0.4-0.7
			c0.1,0,0.1-0.2,0-0.3c-0.1-0.1-0.1-0.2,0.1-0.2c0.1,0,0.2-0.1,0.3,0c0.2,0,0.2,0,0.2-0.2s-0.1-0.4-0.2-0.5l0,0
			c-0.4,0.1-0.6,0.5-0.7,0.8c0,0.3-0.2,0.5-0.4,0.7c-0.1,0.1-0.3,0.3-0.2,0.5c0.1,0.1,0,0.2,0,0.4c0,0.1-0.1,0.1-0.2,0.1
			s-0.1,0-0.1,0c0,0.1-0.1,0.2-0.1,0.3s-0.1,0.3-0.1,0.3c-0.2,0.1-0.1,0.2-0.1,0.4c0.1,0.2,0.1,0.3,0.1,0.5
			c-0.2,0.7-0.2,1.4-0.3,2.1c0,0.2,0,0.5,0,0.7c0.1,0.6,0.2,1.2,0.3,1.8c0,0.7,0.2,1.3,0.7,1.9c0.3,0.3,0.5,0.8,0.6,1.2
			c0.1,0.3,0.3,0.6,0.5,0.8c0.2,0.3,0.5,0.5,0.7,0.8c0.2,0.2,0.3,0.4,0.6,0.5c0.1,0,0.1,0.1,0.2,0.2s0.1,0.2,0.2,0.3
			c0.1,0,0.2,0,0.3,0.1l0.1,0.1c0.3,0,0.3,0.3,0.6,0.3c0.1,0,0.1,0,0.1,0.1s0.1,0.1,0.2,0c0.1-0.1,0.1-0.1,0-0.2
			c-0.1-0.1-0.2-0.3-0.4-0.4c-0.1-0.1-0.1-0.3-0.2-0.4c-0.2-0.2-0.2-0.4-0.2-0.6s0-0.3,0-0.5s-0.1-0.3-0.2-0.4
			c-0.2-0.1-0.4-0.3-0.5-0.5c-0.1-0.1-0.2-0.2-0.2-0.3c0,0,0-0.1-0.1-0.1c-0.1,0-0.1,0-0.1,0.1c0,0,0,0.1-0.1,0c0-0.1,0-0.2,0-0.2
			c0-0.1,0-0.1-0.1-0.1c-0.2,0-0.2-0.2-0.2-0.3c0-0.2,0-0.2-0.2-0.1c-0.1,0-0.2,0-0.3-0.1s-0.2-0.2-0.4-0.2c-0.1,0-0.2-0.1-0.1-0.1
			c0.1-0.2-0.1-0.5,0.2-0.7c0.1,0,0-0.1-0.1-0.2c-0.1-0.1-0.1-0.3,0-0.4c0.2-0.3,0.2-0.3-0.1-0.5c-0.1-0.1-0.2-0.2,0-0.3
			c0.1-0.1,0.1-0.1,0.1-0.2c0-0.2,0.1-0.3,0.2-0.3s0.3,0,0.4,0c0,0,0.1,0,0.1-0.1s0.1-0.2,0-0.3c-0.1,0-0.1-0.1-0.1-0.2
			s0.1-0.1,0.2-0.1s0.2,0,0.3-0.1s0.2,0,0.2,0c0.3,0.1,0.6,0.1,0.8,0c-0.2,0-0.4,0-0.6-0.1c-0.1,0-0.2,0-0.1-0.2
			c0.1-0.1,0.1-0.2,0.2-0.1c0.1,0.1,0.3,0,0.4,0h0.3l0,0c0-0.1,0.1-0.2,0.2-0.2h0.1c0-0.1,0.1-0.1,0.1-0.2c0.6,0,0.6-0.1,0.6-0.2
			c0-0.2,0.1-0.2,0.2-0.3c0-0.1,0-0.2,0.1-0.3l0.1-0.1c0,0-0.1,0-0.1-0.1c0-0.3-0.1-0.5-0.4-0.4c-0.1,0-0.1,0-0.2-0.1
			c-0.1-0.1-0.1-0.2,0-0.2c0.2-0.1,0.2-0.3,0.2-0.5c0-0.1,0-0.4,0.2-0.3c0.1,0,0.3,0,0.4,0c0.2,0,0.2,0.1,0.2,0.2
			c0.1,0.1-0.1,0.1-0.1,0.1l0,0l0,0c0,0,0,0,0.1,0c0-0.1,0-0.2-0.1-0.1c-0.1,0.1-0.1,0.2,0,0.3c0,0.1,0.1,0.2,0.2,0.1
			c0.1-0.1,0.1-0.1,0.2,0c0.1,0.1,0.2,0,0.4,0c0-0.1,0.1-0.3-0.1-0.3c-0.3-0.1-0.3-0.3-0.2-0.5v0.1c0,0.2,0.1,0.1,0.2,0.1
			c0.2,0,0.1-0.1,0.1-0.2c0-0.2,0.1-0.3,0.3-0.2c0.2,0.1,0.4,0,0.4,0.2h0.1c0.1,0,0.1,0,0.2,0c0,0,0,0,0,0.1s-0.1,0.1,0,0.2
			c0.1,0.1,0.1-0.1,0.1-0.1c0.1,0,0.2,0,0.2,0c0.2,0.2,0.2,0,0.2-0.1c0,0-0.1-0.1,0-0.2c0.2,0.3,0.3,0.3,0.4,0.2
			c0.2-0.1,0.2,0,0.2,0.1c0.1,0.1,0,0.2-0.1,0.3s-0.1,0.2-0.1,0.3c0.1,0.1,0,0.2-0.1,0.2c-0.2,0-0.4,0-0.5-0.2
			c-0.1,0.1-0.2,0.2,0.1,0.2c0.1,0,0.2,0.1,0.1,0.2c-0.1,0.1-0.1,0.3,0,0.4c0.1,0,0.1,0,0.1-0.1c0-0.2,0.1-0.3,0.2-0.3
			s0.1,0.2,0.1,0.3s0,0.2,0.1,0.2c0.1,0,0.1,0,0.2,0s0.1,0,0.2,0c0,0,0,0,0.1,0c0.1,0,0.1-0.2,0.1-0.3s0.1-0.2,0.2-0.2
			c0.1,0,0.1,0.1,0.1,0.2c0,0.2,0,0.3,0.2,0.3h0.1c0.1,0,0.1,0,0.2,0c-0.1-0.2,0-0.3-0.1-0.5c0-0.1,0-0.2-0.1-0.3v-0.1
			c0.2-0.1,0.3-0.3,0.4-0.3s0.3-0.1,0.2-0.3c0-0.2,0.2-0.4,0.4-0.4h0.1c0.1,0,0.1-0.2,0.2-0.1c0.1,0.1,0.2,0.2,0.2,0.3
			c0.1,0.2-0.1,0.2-0.2,0.2c-0.2,0-0.1,0.1-0.1,0.2c0,0.2,0.2,0.4,0.4,0.5c0.1,0.1,0.1,0.1,0.2,0.2c0.2,0.2,0.2,0.2,0,0.3
			c-0.2,0.1-0.2,0.4-0.3,0.6c0,0,0-0.1-0.1-0.1v0.1l0.1,0.1c0,0.1,0,0.1,0,0.2v0.1l0,0l0,0c0.1,0.1,0,0.3-0.1,0.4
			c0,0.3,0.1,0.4,0.4,0.3c0.3,0,0.5-0.1,0.8,0c0.1,0.1,0.2,0.1,0.2,0.3c0,0.2,0,0.4-0.2,0.6c0.2-0.1,0.3,0,0.4,0.2
			c0.1,0.1,0.1,0.3,0,0.4c0,0.1-0.2,0-0.2,0.2c0,0-0.1,0-0.1-0.1v-0.1c0-0.1,0-0.1-0.1-0.1c-0.1,0-0.1,0.1-0.1,0.2s0.1,0.2,0.1,0.2
			c0,0.1,0.1,0.2,0.1,0.4c0,0.1-0.1,0.2,0,0.2c0.1,0,0.2,0,0.2-0.1c0,0,0-0.1,0.1-0.1c0.1,0.1,0.5,0.3,0.6,0.2c0.1,0,0.1,0,0.1-0.1
			s-0.1-0.2,0.1-0.2c0.1,0,0.1-0.1,0.2,0c0.2,0.2,0.4,0,0.5-0.1c0.1-0.1,0.2-0.2,0.3-0.2c0.1,0.1,0,0.1,0,0.2
			c-0.1,0.1-0.2,0.2-0.1,0.4c0,0,0,0,0,0.1c-0.2,0.2-0.4,0.3-0.2,0.6c0,0,0,0.1-0.1,0.1c0,0-0.1,0-0.1-0.1c0-0.2-0.1-0.2-0.2-0.2
			c0.1,0.1,0,0.3,0.1,0.4c0.1,0.2,0.2,0.3,0.4,0.4c0.1,0,0.1,0,0.1,0.1c-0.1,0.1-0.1,0.3,0,0.3c0.2,0,0.1,0.2,0.2,0.2h0.1
			c0.2,0,0.4-0.2,0.5-0.4c0.1-0.1,0.1-0.1,0.2-0.1s0.1,0.1,0.1,0.2s0,0.2,0,0.3c0,0.2,0,0.3,0.1,0.3c0.1,0.1,0.2,0,0.3-0.1
			c0.1,0,0.2-0.2,0.3-0.2c0.3,0.2,0.4-0.1,0.5-0.2c0.2-0.3,0.5-0.4,0.8-0.5c0.1,0,0.2-0.1,0.2-0.2c0-0.2,0.2-0.3,0.2-0.6
			c0,0,0-0.1,0.1-0.1c0.2,0,0.2-0.3,0.4-0.4c0.1-0.1,0.2-0.3,0.3-0.5c0.1,0,0.1,0.1,0.2,0.1c-0.1-0.1,0-0.2,0-0.2
			c0.1-0.1,0.1-0.3-0.1-0.2c-0.1,0-0.1,0-0.2-0.1c0-0.1,0.1-0.1,0.1-0.2s0.1-0.1,0.1-0.1c0.1,0.2,0.2,0,0.3,0.1
			c0.3,0.1,0.3-0.1,0.3-0.2s0.1-0.2,0-0.2s-0.1,0-0.1-0.1s0-0.1,0.1-0.1s0.1,0,0.1-0.1c0-0.2,0.1-0.3,0.1-0.5c0,0,0-0.1,0.1-0.1
			c0.2,0,0.2-0.2,0.4-0.3c0.1,0,0.3-0.1,0.1-0.3c0,0,0,0,0-0.1s0-0.2-0.1-0.2c-0.1-0.1-0.1-0.2,0-0.3c0.1-0.1,0.2-0.2,0.2-0.3
			s0.1-0.2,0.2-0.2s0.1,0,0.1-0.1v-0.1c-0.2-0.1-0.1-0.3-0.1-0.5c0-0.1,0-0.2,0.1-0.2s0.1,0.1,0.1,0.2c0,0.2,0.1,0.3,0.1,0.4
			l0.1,0.1c0.1,0,0.1-0.1,0.1-0.1c0-0.1,0-0.2,0.1-0.3c0.1,0,0.2,0.2,0.4,0.2c0-0.1,0.1-0.2,0.2-0.3C126,15.3,126,15.2,125.9,15.2z
			 M108.8,17.1C108.9,17,108.9,17,108.8,17.1L108.8,17.1z M114.3,11.6c-0.1,0-0.1,0-0.1-0.1s0-0.1,0.1-0.1
			C114.3,11.4,114.3,11.5,114.3,11.6L114.3,11.6z M124.8,15.1c-0.1-0.1-0.2,0-0.3,0.1c0,0-0.1,0.1-0.1,0c0,0,0-0.1,0-0.2
			c0.1-0.1,0.4-0.2,0.5-0.1c0,0,0.1,0,0.1,0.1C124.9,15.1,124.8,15.1,124.8,15.1z"/>
	</g>
	<g style="opacity:0.6;clip-path:url(#SVGID_00000081619056078596932940000001989715626757182865_);">
		<path class="st0" d="M108.2,11.6L108.2,11.6C108.3,11.6,108.3,11.6,108.2,11.6C108.3,11.6,108.2,11.6,108.2,11.6L108.2,11.6z"/>
	</g>
	<g style="opacity:0.6;clip-path:url(#SVGID_00000081619056078596932940000001989715626757182865_);">
		<path class="st0" d="M109.1,14.9L109.1,14.9L109.1,14.9C109.1,14.9,109.1,15,109.1,14.9L109.1,14.9z"/>
	</g>
	<g style="opacity:0.6;clip-path:url(#SVGID_00000081619056078596932940000001989715626757182865_);">
		<path class="st0" d="M109.1,14.8L109.1,14.8L109.1,14.8L109.1,14.8L109.1,14.8z"/>
	</g>
	<g style="opacity:0.6;clip-path:url(#SVGID_00000081619056078596932940000001989715626757182865_);">
		<path class="st0" d="M117.1,25.5c-0.1-0.1,0-0.2,0-0.2h0.1C117.2,25.4,117.1,25.4,117.1,25.5z"/>
	</g>
	<g style="opacity:0.6;clip-path:url(#SVGID_00000081619056078596932940000001989715626757182865_);">
		<path class="st0" d="M108.2,12.4C108.2,12.5,108.2,12.5,108.2,12.4C108.1,12.5,108.1,12.5,108.2,12.4
			C108.1,12.5,108.1,12.4,108.2,12.4L108.2,12.4z"/>
	</g>
	<g style="opacity:0.6;clip-path:url(#SVGID_00000081619056078596932940000001989715626757182865_);">
		<path class="st0" d="M108,13.7L108,13.7C108,13.7,108.1,13.7,108,13.7C108.1,13.7,108.1,13.8,108,13.7C108,13.8,108,13.8,108,13.7
			z"/>
	</g>
	<g style="opacity:0.6;clip-path:url(#SVGID_00000081619056078596932940000001989715626757182865_);">
		<path class="st0" d="M108.8,19.1L108.8,19.1L108.8,19.1L108.8,19.1L108.8,19.1z"/>
	</g>
	<g style="opacity:0.6;clip-path:url(#SVGID_00000081619056078596932940000001989715626757182865_);">
		<path class="st0" d="M110.1,18.3L110.1,18.3L110.1,18.3L110.1,18.3C110.1,18.2,110.1,18.2,110.1,18.3z"/>
	</g>
	<path style="opacity:0.6;clip-path:url(#SVGID_00000081619056078596932940000001989715626757182865_);fill:#FFFFFF;" d="
		M108.7,19.8"/>
	<polyline style="opacity:0.6;clip-path:url(#SVGID_00000081619056078596932940000001989715626757182865_);fill:#FFFFFF;" points="
		108.7,19.8 108.7,19.8 108.7,19.8 	"/>
	<g style="opacity:0.6;clip-path:url(#SVGID_00000081619056078596932940000001989715626757182865_);">
		<polygon class="st0" points="108.5,20.3 108.5,20.3 108.5,20.3 		"/>
	</g>
	<g style="opacity:0.6;clip-path:url(#SVGID_00000081619056078596932940000001989715626757182865_);">
		<path class="st0" d="M108.4,19.4L108.4,19.4L108.4,19.4z"/>
	</g>
	<path style="opacity:0.6;clip-path:url(#SVGID_00000081619056078596932940000001989715626757182865_);fill:#FFFFFF;" d="
		M122.6,23.8c0.1-0.2,0.1-0.6,0.3-0.7V23c0-0.1,0.1-0.3,0-0.4l-0.1-0.1l0,0c-0.1,0-0.2,0.1-0.2,0.2h-0.1h-0.1l-0.1,0.1
		c0,0-0.1,0.1-0.2,0.1c-0.2,0-0.1-0.3-0.3-0.3c-0.1,0-0.1,0-0.1-0.1v-0.1h-0.1c-0.1,0-0.1,0-0.2,0s-0.1,0-0.2,0h-0.1
		c-0.1,0.1-0.1,0.2-0.2,0.2l-0.1,0.1c0,0.2-0.2,0.3-0.1,0.4c0,0.1-0.1,0.1-0.2,0.1c-0.3,0.1-0.5,0.2-0.7,0.4
		c-0.1,0.1-0.2,0.3-0.5,0.2c-0.1,0-0.1,0.1-0.2,0.1c-0.1,0-0.1,0.1-0.2,0s-0.1-0.2-0.1-0.2c0-0.1,0-0.2,0-0.2c0-0.1,0-0.1-0.1-0.1
		c-0.1,0-0.1,0-0.2,0.1s-0.2,0.2-0.5,0.3h-0.1c-0.1-0.1,0-0.2-0.2-0.2c-0.1,0-0.1-0.2,0-0.2s0-0.1-0.1-0.1c-0.2,0-0.3-0.2-0.4-0.3
		c0-0.1,0-0.2,0-0.3c0.1,0,0.2,0,0.2,0.2c0,0,0,0,0.1,0s0.1,0,0.1-0.1c-0.1-0.2,0.1-0.3,0.2-0.5l0,0c-0.1-0.1,0.1-0.2,0.1-0.3
		c0,0,0.1-0.1,0-0.1s-0.2,0.1-0.2,0.2c-0.1,0.1-0.3,0.2-0.5,0c-0.1-0.1-0.1,0-0.2,0s-0.1,0-0.1,0.1c0,0,0,0.1-0.1,0.1
		c-0.1,0-0.5,0-0.6-0.2c-0.1,0,0,0-0.1,0.1c0,0.1-0.1,0.1-0.2,0.1c-0.1,0,0-0.1,0-0.1c0.1-0.1,0-0.2-0.1-0.3c0,0-0.1-0.1-0.1-0.2
		c0,0,0-0.1,0.1-0.1s0.1,0,0.1,0.1v0.1h0.1c0-0.1,0.1-0.1,0.2-0.1c0.1-0.1,0.1-0.2,0-0.3c-0.1-0.1-0.2-0.2-0.4-0.1
		c0.1-0.1,0.1-0.3,0.1-0.4s0-0.1-0.2-0.2c-0.2-0.1-0.5,0-0.7,0c-0.3,0-0.4,0-0.4-0.3c0-0.2,0-0.2-0.1-0.2c0-0.1,0.1-0.1,0.1-0.2
		s-0.1-0.1-0.1-0.2c0-0.2,0.2-0.3,0.1-0.5l0,0c0-0.1,0-0.2-0.1-0.2c0.2-0.1,0.2-0.1,0-0.3c-0.1,0-0.1-0.1-0.2-0.2
		c-0.2-0.1-0.3-0.2-0.3-0.4c0-0.1,0-0.1,0.1-0.1s0.2,0,0.2-0.2c0-0.1-0.1-0.2-0.2-0.2s-0.1,0-0.2,0.1h-0.1c-0.2,0-0.4,0.1-0.4,0.3
		c0,0.2-0.1,0.2-0.2,0.2c-0.2,0-0.2,0.2-0.4,0.2c0,0,0,0,0,0.1c0.1,0.1,0,0.2,0.1,0.2c0,0.1,0,0.1,0,0.2c-0.1,0-0.1,0.1-0.1,0.1
		c0,0.1,0,0.2-0.1,0.2s-0.2,0-0.4,0c-0.1,0-0.1-0.1-0.1-0.2s0.1-0.2-0.1-0.2c-0.1,0-0.2,0.1-0.2,0.2c0,0,0,0-0.1,0
		c0-0.1-0.1-0.2,0-0.3c0.1-0.1,0-0.2-0.1-0.2c-0.2,0-0.1-0.1-0.1-0.2c0.1,0.1,0.3,0.2,0.5,0.2c0.1,0,0.2,0,0.1-0.1
		c-0.1-0.1-0.1-0.2,0-0.2c0.1,0,0.1-0.1,0.1-0.2s-0.1-0.2-0.2-0.1c-0.1,0.1-0.2,0-0.4-0.2c-0.1,0,0,0.1,0,0.1c0,0.1,0,0.2-0.1,0.1
		c-0.1,0-0.1,0-0.2,0c0,0,0,0.1-0.1,0.1c-0.1,0,0-0.1,0-0.1v-0.1c-0.1,0-0.1,0-0.2,0H111c-0.1-0.2-0.2-0.1-0.4-0.2
		c-0.1,0-0.3,0-0.3,0.2c0,0,0.1,0.1-0.1,0.1c-0.1,0-0.2,0-0.2-0.1v-0.1c-0.1,0.1-0.1,0.2,0.1,0.3c0.2,0,0.1,0.2,0.1,0.2
		c-0.1,0-0.2,0.1-0.3,0s-0.1,0-0.2,0c-0.1,0.1-0.1,0-0.2-0.1s-0.1-0.2,0-0.2s0.1,0.1,0.1,0.1l0,0c0.1,0,0.2,0,0.1-0.1
		c-0.1-0.1-0.1-0.2-0.2-0.2s-0.2,0-0.4,0c0.3,0.2,0.3,0.4,0.3,0.5s0,0.3-0.2,0.3c-0.1,0-0.1,0.1,0,0.2c0.1,0,0.1,0.1,0.2,0.1
		c0.2,0,0.3,0,0.4,0.1h-0.1c-0.1,0-0.2,0-0.2,0.1h-0.1h-0.1l0,0c0,0,0,0.1-0.1,0.1s-0.1,0-0.2,0c0,0,0-0.1-0.1-0.1l0,0l0,0h-0.1
		c-0.1,0-0.1,0-0.2,0h-0.1l0,0l0,0l0,0v0.1l-0.1,0.1l0,0l0,0h-0.1h-0.1l-0.1-0.1c-0.1,0-0.1,0-0.2,0s-0.2,0-0.2,0
		c-0.1,0-0.1,0.1-0.2,0.2c-0.1,0-0.1,0-0.2,0h-0.1c0,0,0,0-0.1,0l0,0l0,0l0,0c0,0,0,0.1,0,0.2v0.1l0,0l0,0l0,0l0.1,0.1l0,0h0.1
		c0.1,0,0.1,0,0.2,0h-0.1h-0.1c-0.1,0-0.1,0-0.2,0s-0.1,0.1-0.1,0.1l-0.1,0.1c-0.1,0-0.1,0-0.1,0h-0.1h-0.1h0.1l0,0l0.1,0.1
		c0.1,0,0.1,0.1,0.1,0.1h-0.1c0-0.1-0.1-0.1-0.1-0.1l-0.1-0.1h-0.1c0,0.1,0.1,0.2,0.2,0.3c0.2,0.1,0.4,0.1,0.6,0h0.1
		c0.1,0,0.1,0,0.1-0.1c0.1,0,0.1,0,0.1,0h0.1c0,0,0.1,0,0.1,0.1c0.2,0,0.4,0,0.6,0c-0.3,0.1-0.5,0.1-0.8,0c-0.1,0-0.1-0.1-0.2,0
		c-0.1,0.1-0.2,0.1-0.3,0.1s-0.2,0-0.2,0.1s0,0.1,0.1,0.1s0,0.1,0,0.2s-0.1,0-0.1,0c-0.1,0-0.2,0-0.4,0c-0.2,0-0.2,0.1-0.2,0.2
		s0,0.1-0.1,0.2c-0.2,0.1-0.1,0.1,0,0.2c0.2,0.1,0.2,0.1,0.1,0.3c-0.1,0.1-0.1,0.2,0,0.3l0.1,0.1c-0.2,0.1,0,0.3-0.2,0.5
		c-0.1,0,0,0.1,0.1,0.1c0.1,0,0.2,0,0.3,0.1s0.1,0.1,0.2,0c0.1,0,0.2,0,0.2,0.1s0,0.2,0.2,0.2c0.1,0,0.1,0,0.1,0.1s0,0.1,0,0.2
		c0.1,0,0.1,0,0.1,0s0,0,0.1,0c0,0,0.1,0,0.1,0.1c-0.1,0.1,0,0.2,0.1,0.2c0.2,0.1,0.3,0.2,0.5,0.3c0.1,0.1,0.2,0.2,0.2,0.3
		c0,0.1,0,0.2,0,0.4c0,0.2,0,0.3,0.2,0.4c0.1,0.1,0.1,0.2,0.2,0.3c0.1,0.1,0.2,0.2,0.3,0.3c0.1,0.1,0,0.1,0,0.2
		c-0.1,0.1-0.1,0-0.1,0s0-0.1-0.1-0.1c-0.2,0-0.3-0.2-0.5-0.2l-0.1-0.1c-0.1-0.1-0.1-0.1-0.2-0.1c0.2,0.2,0.5,0.4,0.7,0.6
		c0.1,0.1,0.1,0.2,0.3,0.1h0.1c0.2,0.2,0.6,0.2,0.8,0.4c0.4,0.2,0.8,0.3,1.3,0.4c0.1,0,0.3,0,0.4,0.1c0.1,0,0.2-0.1,0.2,0.1
		c0.3,0.1,0.6,0.1,0.8,0c0.1,0,0.2,0,0.4,0c0.5,0.1,1.1,0.1,1.6,0c0.3,0,0.7-0.1,1-0.1c0.6,0,1.3-0.2,1.9-0.3c0.2,0,0.4-0.1,0.5-0.3
		c0,0,0.1,0,0.1-0.1c0.3-0.1,0.6-0.2,0.9-0.3c0.2-0.1,0.4-0.2,0.4-0.3c0-0.1,0.2-0.2,0.3-0.3c0.3-0.2,0.7-0.2,0.9-0.5
		c0.1-0.1,0.1-0.1,0.2-0.2c0.2-0.2,0.4-0.3,0.6-0.5C122.4,24.1,122.5,23.9,122.6,23.8L122.6,23.8z M109.4,21.7
		c-0.1,0-0.1,0.1-0.1,0.1c-0.1,0.2-0.3,0.2-0.5,0.1c0,0-0.1-0.1-0.1,0c0,0,0,0.1,0.1,0.1c0.1,0,0.2,0.1,0.2,0.2s0,0.1-0.1,0.1
		s-0.1,0-0.1-0.1v-0.1c0-0.1-0.1-0.1-0.2,0c0,0-0.1,0.1-0.1,0c-0.1,0,0-0.1,0-0.1c0-0.2-0.1-0.3-0.3-0.3c-0.1,0-0.1,0-0.1-0.1
		c-0.1-0.1,0.1-0.5,0.3-0.5c-0.1,0-0.2-0.1-0.1-0.2c0.1,0,0-0.2,0-0.2c0-0.1,0-0.1,0.1-0.1c0.1,0,0.1,0,0.1,0.1
		c0.1,0.1,0.1,0.2,0.2,0.2c0,0.1,0.1,0,0.1,0c0.1,0,0.1,0,0.1,0c0.1,0,0.1,0,0.1-0.1s0-0.1,0.1-0.1c0.1,0,0.1,0.1,0.1,0.1
		c0.1,0.1-0.1,0.2-0.1,0.3c0,0.1-0.1,0.2,0.1,0.2c0.1,0,0.1-0.1,0.1-0.2C109.6,21.4,109.6,21.5,109.4,21.7 M109.7,20.5
		c-0.2,0-0.3,0-0.4-0.1c-0.1,0-0.1,0.1-0.2,0l0,0c0.1,0,0.1,0,0.2-0.1c0.2,0.1,0.3,0,0.5-0.1l0,0h0.1v0.1
		C109.8,20.5,109.7,20.5,109.7,20.5 M108.4,20c-0.1,0.1-0.2,0.1-0.3,0.1c-0.1,0,0.2-0.1,0.3-0.3l0,0l0.1,0l0,0.1
		C108.5,20,108.4,20,108.4,20 M110,26.2c-0.1,0-0.1-0.1-0.1-0.2c0,0,0-0.1,0.1-0.1s0.2,0,0.2,0.1C110.2,26.2,110.1,26.2,110,26.2
		 M110.6,20.4c-0.1,0.1-0.2,0.1-0.4,0.1c-0.1,0-0.1-0.1-0.1-0.2v-0.1l0,0c0.1,0,0.2-0.1,0.3-0.1s0.2,0.1,0.3,0.1
		c0,0.1,0.1,0.1,0.1,0.2C110.7,20.3,110.6,20.3,110.6,20.4 M117.2,22.5c0-0.1,0-0.1,0-0.1c0-0.1,0.1-0.1,0-0.2c0,0-0.1,0-0.1-0.1
		h0.1c0.1,0,0.1,0,0.1,0.1s0,0.2,0,0.2S117.3,22.5,117.2,22.5 M117.8,25.7c-0.1-0.1,0-0.1,0-0.2h0.1C118,25.6,117.9,25.6,117.8,25.7
		"/>
	<path style="opacity:0.6;clip-path:url(#SVGID_00000081619056078596932940000001989715626757182865_);fill:#FFFFFF;" d="M121.9,9.5
		L121.9,9.5c-0.2,0-0.3,0-0.4,0s-0.1,0-0.1,0c-0.1,0-0.1,0-0.2,0c-0.1,0.1,0,0.1,0.1,0.2l0,0c0,0.1,0,0.1,0.1,0.1s0.1,0,0.1,0
		c0,0.1,0,0.1-0.1,0.1c-0.2-0.1-0.4,0-0.3,0.3c0.1,0.2,0.1,0.4-0.1,0.6c-0.1,0-0.2,0.1-0.4,0.1c-0.1,0-0.1,0,0,0.1
		c0,0.1,0.1,0.1,0.2,0.1s0.2,0,0.3,0c-0.1,0.1,0,0.2,0.1,0.3c0,0,0,0,0,0.1c-0.1,0.1-0.1,0.1,0.1,0.1c0.1,0,0.1,0,0.1,0
		c-0.1,0.1-0.2,0-0.3,0c-0.2,0-0.3,0.1-0.4,0.3c0,0.1-0.1,0.2-0.2,0.2s-0.2-0.1-0.2-0.3s0-0.4-0.1-0.5s-0.1-0.1-0.2-0.1
		c-0.1,0.1-0.1,0.1,0,0.2l0.1,0.1c-0.2,0.1-0.4,0.1-0.3,0.3c0,0.1-0.1,0.1-0.1,0.1c-0.1,0-0.1-0.1-0.2-0.2c-0.1,0.2-0.2,0.3-0.4,0.2
		H119c-0.2,0-0.1-0.1-0.1-0.2c0.1-0.1,0.1-0.2-0.1-0.2c-0.1,0-0.1,0-0.2,0c-0.1,0-0.1,0-0.1,0.1s-0.1,0.1-0.2,0.1h-0.1
		c-0.1,0.2-0.3,0.1-0.6,0.2c-0.3,0-0.5,0.1-0.8,0.2c0.2,0.1,0.5,0.1,0.7,0.2c0.1,0,0.1,0,0.1,0c-0.1,0.1,0.4,0.1,0,0.2
		c-0.1,0-0.1,0.1-0.1,0.2c0,0.1,0.1,0.1,0.2,0.1s0.2,0,0.2,0c0,0.1,0,0.1-0.1,0.2c-0.1,0.1-0.1,0-0.1,0l0,0c-0.2,0-0.4-0.1-0.6-0.2
		c-0.1,0-0.2,0-0.3-0.1s-0.2,0-0.2,0.1c0,0,0,0.1-0.1,0.1c-0.1,0-0.1-0.1-0.1-0.1l0,0c-0.1-0.1-0.1-0.2-0.2-0.2
		c-0.1,0-0.1,0.2-0.1,0.2c-0.1,0.1-0.1,0.2-0.2,0.1c0,0,0,0,0,0.1s0.2,0.1,0.1,0.2c-0.1,0.1-0.2-0.1-0.2-0.1
		c-0.1-0.1-0.1-0.2-0.1-0.3c-0.1-0.1-0.3-0.1-0.4-0.1c-0.2-0.1-0.4-0.2-0.5-0.3c-0.1-0.1-0.2-0.2-0.1-0.4c0-0.1,0-0.2-0.2-0.2
		c-0.1,0-0.2-0.1-0.3-0.1h-0.1v-0.1c0,0,0.1,0,0.1-0.1h-0.1c-0.1,0-0.1,0-0.1-0.1s0.1,0,0.1,0c0.1,0,0.1,0,0.1-0.1
		c0.1-0.1,0.2-0.3,0.4-0.3c0.2-0.1,0.2-0.5,0.2-0.7l-0.1-0.1c0-0.2,0-0.4-0.2-0.1h-0.1c0-0.1-0.1-0.1-0.1-0.2s0.1-0.1,0-0.2
		c-0.1,0-0.2-0.2-0.3-0.1c-0.3-0.3-0.6-0.3-0.4,0l0,0c-0.3,0-0.4,0.4-0.7,0.4c-0.1,0-0.1,0.1-0.1,0.2c0,0,0.1,0.1,0,0.1
		c-0.1,0-0.1,0-0.2,0l-0.1-0.1c0.1-0.2,0-0.4,0.2-0.5c0.1,0,0-0.1,0-0.1c-0.1-0.1-0.1-0.1-0.2-0.2c-0.1-0.1,0-0.1,0-0.2
		c0.1,0,0.3-0.2,0.4,0h0.1c0,0,0.1-0.1,0.1-0.2c0-0.1-0.1,0-0.1,0c-0.2,0-0.2-0.2-0.4-0.2c-0.1-0.1-0.1,0-0.1,0l-0.1,0.1h-0.1V8.8
		c0.2-0.1,0.3-0.2,0-0.4c-0.1,0-0.1-0.2,0-0.2c0.1-0.2,0-0.1-0.1-0.2c0.3-0.1,0.4-0.4,0.6-0.7c0.2-0.3,0.6-0.5,0.9-0.7
		c0.1,0.1,0.3,0,0.3-0.1c0.1-0.1,0.1-0.1,0.2-0.1l0,0l0,0l0,0c0.1,0,0.1,0,0.2,0c0-0.1,0.1-0.1,0.1,0c0.1,0,0.1,0.1,0.1,0.1
		c0.1-0.1,0.1-0.2,0.1-0.3c0.1,0,0.1,0,0.2-0.1s0.3-0.1,0.2,0.1c0,0.1,0.1,0.2,0.2,0.2s0.4-0.1,0.5-0.2c0.1,0,0.3-0.3,0.3,0.1
		c0.3,0,0.3,0,0.3,0c0.2-0.1,0.3,0.1,0.4,0.2c0.1,0,0.1,0.1,0,0.1c0,0,0,0.1-0.1,0.1c-0.1,0-0.1,0-0.1,0c0,0.1-0.1,0.2,0.1,0.2
		c0.1,0,0.1,0.1,0.1,0.1s0.1,0.1,0.1,0c0.1-0.1,0.3,0,0.5-0.1c0.1,0,0.1-0.1,0.2,0c0.2,0.2,0.5,0.2,0.8,0.3c0.1,0.1,0.2,0.1,0.4,0
		h0.1c0.3,0.2,0.7,0.3,1,0.5l0.1,0.1c-0.1,0.2,0,0.2,0.1,0.3c0.1,0,0.1,0.2,0,0.2c-0.1,0.2,0,0.2,0.1,0.3c0,0,0,0,0.1,0.1
		s0,0.3,0.1,0.2s0.3-0.2,0.3-0.4s0-0.3,0.2-0.1c0.1,0.1,0.3,0.1,0.4,0.2c0,0,0.1,0,0.1-0.1c0,0.3,0,0.2,0.1,0.2
		c0,0.2,0.2,0.3,0.1,0.5l0,0h0.1c0-0.1,0.1-0.1,0.1-0.1l0,0v0.1C121.6,9.3,121.9,9.4,121.9,9.5z M119.6,10.1c0,0.1,0,0.2,0.1,0.3
		c0.1,0.1,0.2,0,0.4,0c0-0.1,0.1-0.2,0-0.3C119.9,9.9,119.8,10.1,119.6,10.1z M117,7.9c-0.1-0.1-0.1-0.1-0.2,0
		c-0.1,0.1,0,0.1,0.1,0.2l0.1,0.1c0,0.1,0,0.1,0.1,0.1c0.1,0,0.1,0,0.2-0.1C117.2,7.9,117.1,8,117,7.9z M120.1,10.7v0.1
		c0,0,0.1,0.1,0.1,0c0.1,0,0-0.1,0-0.1C120.2,10.7,120.2,10.7,120.1,10.7z M119.2,11.9L119.2,11.9L119.2,11.9L119.2,11.9L119.2,11.9
		z"/>
</g>
</svg>
