<?xml version="1.0" encoding="utf-8"?>
<!-- Generator: Adobe Illustrator 25.4.1, SVG Export Plug-In . SVG Version: 6.00 Build 0)  -->
<svg version="1.1" id="Layer_1" xmlns="http://www.w3.org/2000/svg" xmlns:xlink="http://www.w3.org/1999/xlink" x="0px" y="0px" 
viewBox="0 0 226.77 128.34" fill="#FFFFFF" style="enable-background:new 0 0 226.77 128.34;" xml:space="preserve">
<style type="text/css">
	.st0{fill:#FFFFFF;}
	.st1{clip-path:url(#SVGID_00000152978080387568549660000002687087943905636742_);}
	.st2{opacity:0.4;}
	.st3{opacity:0.6;clip-path:url(#SVGID_00000152978080387568549660000002687087943905636742_);}
	.st4{opacity:0.5;fill:#FFFFFF;}
	.st5{opacity:0.6;clip-path:url(#SVGID_00000152978080387568549660000002687087943905636742_);fill:#FFFFFF;}
</style>

<g>
	<g>
		<path class="unep_0" d="M14.33,84.4c0,2.44-0.54,4.39-1.63,5.86c-1.09,1.47-2.55,2.2-4.39,2.2c-1.57,0-2.83-0.55-3.8-1.67v7.46H0.36V76.34h3.84l0.14,1.55c1-1.23,2.31-1.84,3.93-1.84c1.91,0,3.4,0.72,4.46,2.16c1.06,1.44,1.59,3.43,1.59,5.97V84.4z M10.18,84.09c0-1.47-0.26-2.61-0.77-3.41c-0.51-0.8-1.26-1.2-2.23-1.2c-1.3,0-2.19,0.51-2.68,1.52v6.48c0.51,1.04,1.41,1.56,2.71,1.56C9.19,89.05,10.18,87.4,10.18,84.09z"></path>
		<path class="unep_0" d="M25.79,80.31c-0.57-0.08-1.06-0.12-1.49-0.12c-1.57,0-2.6,0.54-3.08,1.62v10.35h-4.14V76.34h3.91l0.12,1.89c0.83-1.45,1.98-2.18,3.45-2.18c0.46,0,0.89,0.06,1.29,0.19L25.79,80.31z"></path>
		<path class="unep_0" d="M26.79,84.11c0-1.57,0.3-2.97,0.89-4.2c0.59-1.23,1.45-2.18,2.56-2.85c1.11-0.67,2.41-1.01,3.88-1.01c2.09,0,3.8,0.65,5.12,1.96c1.32,1.31,2.06,3.08,2.22,5.32l0.03,1.08c0,2.43-0.66,4.38-1.99,5.84c-1.33,1.47-3.11,2.2-5.35,2.2c-2.24,0-4.02-0.73-5.36-2.19c-1.33-1.46-2-3.45-2-5.97V84.11z M30.94,84.41c0,1.51,0.28,2.65,0.83,3.45c0.55,0.8,1.35,1.19,2.38,1.19c1,0,1.79-0.39,2.35-1.18c0.56-0.79,0.85-2.04,0.85-3.77c0-1.47-0.28-2.62-0.85-3.43c-0.57-0.81-1.36-1.22-2.38-1.22c-1.01,0-1.8,0.4-2.35,1.21C31.22,81.47,30.94,82.72,30.94,84.41z"></path>
		<path class="unep_0" d="M43.62,84.14c0-2.43,0.57-4.38,1.7-5.86c1.13-1.48,2.66-2.22,4.58-2.22c1.7,0,3.03,0.59,3.97,1.78l0.17-1.49h3.76v15.3c0,1.39-0.31,2.59-0.93,3.61c-0.62,1.03-1.48,1.8-2.6,2.34c-1.12,0.54-2.43,0.8-3.93,0.8c-1.14,0-2.25-0.23-3.33-0.69c-1.08-0.46-1.9-1.06-2.45-1.79l1.84-2.57c1.03,1.18,2.28,1.77,3.76,1.77c1.1,0,1.95-0.3,2.57-0.9c0.61-0.6,0.92-1.45,0.92-2.55V90.8c-0.96,1.1-2.21,1.65-3.77,1.65c-1.86,0-3.37-0.74-4.52-2.23c-1.15-1.49-1.73-3.46-1.73-5.91V84.14z M47.76,84.45c0,1.43,0.28,2.56,0.85,3.37c0.57,0.82,1.34,1.22,2.32,1.22c1.26,0,2.16-0.48,2.71-1.45v-6.66c-0.56-0.97-1.45-1.45-2.68-1.45c-0.99,0-1.78,0.41-2.34,1.24S47.76,82.8,47.76,84.45z"></path>
		<path class="unep_0" d="M69.87,80.31c-0.57-0.08-1.06-0.12-1.49-0.12c-1.57,0-2.6,0.54-3.08,1.62v10.35h-4.14V76.34h3.91l0.12,1.89c0.83-1.45,1.98-2.18,3.45-2.18c0.46,0,0.89,0.06,1.29,0.19L69.87,80.31z"></path>
		<path class="unep_0" d="M80.6,92.16c-0.19-0.38-0.33-0.85-0.41-1.42c-1,1.14-2.31,1.71-3.91,1.71c-1.52,0-2.78-0.45-3.78-1.34c-1-0.9-1.5-2.03-1.5-3.39c0-1.68,0.61-2.96,1.83-3.86c1.22-0.9,2.98-1.35,5.28-1.36h1.91v-0.91c0-0.73-0.18-1.32-0.55-1.76c-0.37-0.44-0.95-0.66-1.74-0.66c-0.7,0-1.24,0.17-1.64,0.51c-0.4,0.34-0.59,0.81-0.59,1.4h-4.14c0-0.92,0.28-1.76,0.83-2.55c0.55-0.78,1.34-1.39,2.35-1.83c1.01-0.44,2.15-0.66,3.41-0.66c1.91,0,3.43,0.49,4.55,1.47c1.12,0.98,1.68,2.36,1.68,4.13v6.86c0.01,1.5,0.22,2.64,0.62,3.41v0.25H80.6z M77.17,89.22c0.61,0,1.18-0.14,1.69-0.42c0.52-0.28,0.9-0.65,1.15-1.12v-2.72h-1.55c-2.07,0-3.18,0.73-3.31,2.19l-0.01,0.25c0,0.53,0.18,0.96,0.54,1.3C76.04,89.05,76.54,89.22,77.17,89.22z"></path>
		<path class="unep_0" d="M91.41,76.34l0.13,1.77c1.1-1.37,2.58-2.06,4.46-2.06c2,0,3.37,0.8,4.12,2.41c1.09-1.61,2.64-2.41,4.66-2.41c1.68,0,2.93,0.5,3.76,1.5c0.82,1,1.23,2.5,1.23,4.51v10.1h-4.16V82.08c0-0.9-0.17-1.55-0.52-1.97c-0.34-0.41-0.95-0.62-1.82-0.62c-1.24,0-2.1,0.6-2.58,1.81l0.01,10.87h-4.14V82.09c0-0.92-0.18-1.58-0.53-1.99c-0.35-0.41-0.96-0.61-1.81-0.61c-1.18,0-2.03,0.5-2.55,1.49v11.19h-4.14V76.34H91.41z"></path>
		<path class="unep_0" d="M117.01,76.34l0.13,1.77c1.1-1.37,2.58-2.06,4.46-2.06c2,0,3.37,0.8,4.12,2.41c1.09-1.61,2.64-2.41,4.66-2.41c1.68,0,2.93,0.5,3.76,1.5c0.82,1,1.23,2.5,1.23,4.51v10.1h-4.16V82.08c0-0.9-0.17-1.55-0.52-1.97c-0.34-0.41-0.95-0.62-1.82-0.62c-1.24,0-2.1,0.6-2.58,1.81l0.01,10.87h-4.14V82.09c0-0.92-0.18-1.58-0.53-1.99c-0.35-0.41-0.96-0.61-1.81-0.61c-1.18,0-2.03,0.5-2.55,1.49v11.19h-4.14V76.34H117.01z"></path>
		<path class="unep_0" d="M145.86,92.46c-2.28,0-4.13-0.71-5.56-2.13c-1.43-1.42-2.14-3.32-2.14-5.69v-0.41c0-1.59,0.3-3.01,0.9-4.26c0.6-1.25,1.46-2.22,2.56-2.89c1.1-0.68,2.36-1.02,3.78-1.02c2.12,0,3.79,0.68,5.01,2.05c1.22,1.36,1.83,3.3,1.83,5.81v1.72h-9.88c0.13,1.03,0.54,1.86,1.21,2.49c0.67,0.62,1.53,0.93,2.56,0.93c1.6,0,2.84-0.59,3.74-1.77l2.04,2.32c-0.62,0.9-1.46,1.6-2.52,2.1C148.32,92.21,147.15,92.46,145.86,92.46z M145.39,79.46c-0.82,0-1.49,0.28-2,0.85c-0.51,0.57-0.84,1.38-0.98,2.44h5.76v-0.34c-0.02-0.94-0.27-1.67-0.74-2.18C146.94,79.71,146.26,79.46,145.39,79.46z"></path>
		<path class="unep_0" d="M176.22,84.4c0,2.44-0.54,4.39-1.63,5.86c-1.09,1.47-2.55,2.2-4.39,2.2c-1.57,0-2.83-0.55-3.8-1.67v7.46h-4.14V76.34h3.84l0.14,1.55c1-1.23,2.31-1.84,3.93-1.84c1.91,0,3.4,0.72,4.46,2.16c1.06,1.44,1.59,3.43,1.59,5.97V84.4z M172.08,84.09c0-1.47-0.26-2.61-0.77-3.41c-0.51-0.8-1.26-1.2-2.23-1.2c-1.3,0-2.19,0.51-2.68,1.52v6.48c0.51,1.04,1.41,1.56,2.71,1.56C171.09,89.05,172.08,87.4,172.08,84.09z"></path>
		<path class="unep_0" d="M178.32,84.11c0-1.57,0.3-2.97,0.89-4.2c0.59-1.23,1.45-2.18,2.56-2.85c1.11-0.67,2.41-1.01,3.88-1.01c2.09,0,3.8,0.65,5.12,1.96c1.32,1.31,2.06,3.08,2.22,5.32l0.03,1.08c0,2.43-0.66,4.38-1.99,5.84c-1.33,1.47-3.11,2.2-5.35,2.2c-2.24,0-4.02-0.73-5.36-2.19c-1.33-1.46-2-3.45-2-5.97V84.11z M182.46,84.41c0,1.51,0.28,2.65,0.83,3.45c0.55,0.8,1.35,1.19,2.38,1.19c1,0,1.79-0.39,2.35-1.18c0.56-0.79,0.85-2.04,0.85-3.77c0-1.47-0.28-2.62-0.85-3.43c-0.57-0.81-1.36-1.22-2.38-1.22c-1.01,0-1.8,0.4-2.35,1.21C182.74,81.47,182.46,82.72,182.46,84.41z"></path>
		<path class="unep_0" d="M205.03,90.56c-1.02,1.27-2.44,1.9-4.24,1.9c-1.66,0-2.93-0.49-3.81-1.46s-1.32-2.4-1.34-4.28V76.34h4.14v10.23c0,1.65,0.74,2.47,2.21,2.47c1.41,0,2.37-0.5,2.9-1.49V76.34h4.16v15.82h-3.9L205.03,90.56z"></path>
		<path class="unep_0" d="M221.07,80.31c-0.57-0.08-1.06-0.12-1.49-0.12c-1.57,0-2.6,0.54-3.08,1.62v10.35h-4.14V76.34h3.91l0.12,1.89c0.83-1.45,1.98-2.18,3.45-2.18c0.46,0,0.89,0.06,1.29,0.19L221.07,80.31z"></path>
	</g>
	<g>
		<path class="unep_0" d="M4.74,128.05H0.58v-22.46h4.16V128.05z"></path>
		<path class="unep_0" d="M10.68,107.74l-0.42,5.91H7.64v-8.06h3.04V107.74z"></path>
		<path class="unep_0" d="M19.54,128.34c-2.28,0-4.13-0.71-5.56-2.13s-2.14-3.32-2.14-5.69v-0.41c0-1.59,0.3-3.01,0.9-4.26c0.6-1.25,1.46-2.22,2.56-2.89c1.1-0.68,2.36-1.02,3.78-1.02c2.12,0,3.79,0.68,5.01,2.05c1.22,1.36,1.83,3.3,1.83,5.81v1.72h-9.88c0.13,1.03,0.54,1.86,1.21,2.49c0.67,0.62,1.53,0.93,2.56,0.93c1.6,0,2.84-0.59,3.74-1.77l2.04,2.32c-0.62,0.9-1.46,1.6-2.52,2.1C22.01,128.09,20.83,128.34,19.54,128.34z M19.07,115.34c-0.82,0-1.49,0.28-2,0.85c-0.51,0.57-0.84,1.38-0.98,2.44h5.76v-0.34c-0.02-0.94-0.27-1.67-0.74-2.18S19.95,115.34,19.07,115.34z"></path>
		<path class="unep_0" d="M32.26,112.23l0.13,1.83c1.11-1.41,2.6-2.12,4.46-2.12c1.64,0,2.87,0.49,3.67,1.48s1.21,2.46,1.23,4.42v10.22h-4.14v-10.12c0-0.9-0.19-1.55-0.57-1.95c-0.38-0.41-1.02-0.61-1.91-0.61c-1.17,0-2.04,0.51-2.62,1.52v11.16h-4.14v-15.82H32.26z"></path>
		<path class="unep_0" d="M50.88,122.89l2.88-10.66h4.33l-5.23,15.82H48.9l-5.23-15.82h4.33L50.88,122.89z"></path>
		<path class="unep_0" d="M60.06,108.13c0-0.63,0.21-1.16,0.62-1.57c0.42-0.41,0.98-0.61,1.7-0.61c0.71,0,1.27,0.2,1.69,0.61c0.42,0.41,0.63,0.93,0.63,1.57c0,0.64-0.21,1.17-0.64,1.58c-0.43,0.41-0.99,0.61-1.68,0.61c-0.7,0-1.26-0.2-1.68-0.61C60.27,109.3,60.06,108.78,60.06,108.13z M64.46,128.05H60.3v-15.82h4.16V128.05z"></path>
		<path class="unep_0" d="M76.77,116.19c-0.57-0.08-1.06-0.12-1.49-0.12c-1.57,0-2.6,0.54-3.08,1.62v10.35h-4.14v-15.82h3.91l0.12,1.89c0.83-1.45,1.98-2.18,3.45-2.18c0.46,0,0.89,0.06,1.29,0.19L76.77,116.19z"></path>
		<path class="unep_0" d="M77.77,119.99c0-1.57,0.3-2.97,0.89-4.2c0.59-1.23,1.45-2.18,2.56-2.85c1.11-0.67,2.41-1.01,3.88-1.01c2.09,0,3.8,0.65,5.12,1.96c1.32,1.31,2.06,3.08,2.22,5.32l0.03,1.08c0,2.43-0.66,4.38-1.99,5.84c-1.33,1.47-3.11,2.2-5.35,2.2c-2.24,0-4.02-0.73-5.36-2.19c-1.33-1.46-2-3.45-2-5.97V119.99z M81.92,120.29c0,1.51,0.28,2.65,0.83,3.45c0.55,0.8,1.35,1.19,2.38,1.19c1,0,1.79-0.39,2.35-1.18c0.56-0.79,0.85-2.04,0.85-3.77c0-1.47-0.28-2.62-0.85-3.43c-0.57-0.81-1.36-1.22-2.38-1.22c-1.01,0-1.8,0.4-2.35,1.21C82.19,117.36,81.92,118.6,81.92,120.29z"></path>
		<path class="unep_0" d="M99.01,112.23l0.13,1.83c1.11-1.41,2.6-2.12,4.46-2.12c1.64,0,2.87,0.49,3.67,1.48c0.8,0.99,1.21,2.46,1.23,4.42v10.22h-4.14v-10.12c0-0.9-0.19-1.55-0.57-1.95c-0.38-0.41-1.02-0.61-1.91-0.61c-1.17,0-2.04,0.51-2.62,1.52v11.16h-4.14v-15.82H99.01z"></path>
		<path class="unep_0" d="M115.63,112.23l0.13,1.83c1.11-1.41,2.6-2.12,4.46-2.12c1.64,0,2.87,0.49,3.67,1.48c0.8,0.99,1.21,2.46,1.23,4.42v10.22h-4.14v-10.12c0-0.9-0.19-1.55-0.57-1.95c-0.38-0.41-1.02-0.61-1.91-0.61c-1.17,0-2.04,0.51-2.62,1.52v11.16h-4.14v-15.82H115.63z"></path>
		<path class="unep_0" d="M135.58,128.34c-2.28,0-4.13-0.71-5.56-2.13s-2.14-3.32-2.14-5.69v-0.41c0-1.59,0.3-3.01,0.9-4.26c0.6-1.25,1.46-2.22,2.56-2.89c1.1-0.68,2.36-1.02,3.78-1.02c2.12,0,3.79,0.68,5.01,2.05c1.22,1.36,1.83,3.3,1.83,5.81v1.72h-9.88c0.13,1.03,0.54,1.86,1.21,2.49c0.67,0.62,1.53,0.93,2.56,0.93c1.6,0,2.84-0.59,3.74-1.77l2.04,2.32c-0.62,0.9-1.46,1.6-2.52,2.1C138.04,128.09,136.87,128.34,135.58,128.34z M135.1,115.34c-0.82,0-1.49,0.28-2,0.85c-0.51,0.57-0.84,1.38-0.98,2.44h5.76v-0.34c-0.02-0.94-0.27-1.67-0.74-2.18C136.66,115.6,135.98,115.34,135.1,115.34z"></path>
		<path class="unep_0" d="M148.37,112.23l0.13,1.77c1.1-1.37,2.58-2.06,4.46-2.06c2,0,3.37,0.8,4.12,2.41c1.09-1.61,2.64-2.41,4.66-2.41c1.68,0,2.93,0.5,3.76,1.5c0.82,1,1.23,2.5,1.23,4.51v10.1h-4.16v-10.09c0-0.9-0.17-1.55-0.52-1.97c-0.34-0.41-0.95-0.62-1.82-0.62c-1.24,0-2.1,0.6-2.58,1.81l0.01,10.87h-4.14v-10.08c0-0.92-0.18-1.58-0.53-1.99c-0.35-0.41-0.96-0.61-1.81-0.61c-1.18,0-2.03,0.5-2.55,1.49v11.19h-4.14v-15.82H148.37z"></path>
		<path class="unep_0" d="M177.22,128.34c-2.28,0-4.13-0.71-5.56-2.13s-2.14-3.32-2.14-5.69v-0.41c0-1.59,0.3-3.01,0.9-4.26c0.6-1.25,1.46-2.22,2.56-2.89c1.1-0.68,2.36-1.02,3.78-1.02c2.12,0,3.79,0.68,5.01,2.05c1.22,1.36,1.83,3.3,1.83,5.81v1.72h-9.88c0.13,1.03,0.54,1.86,1.21,2.49c0.67,0.62,1.53,0.93,2.56,0.93c1.6,0,2.84-0.59,3.74-1.77l2.04,2.32c-0.62,0.9-1.46,1.6-2.52,2.1C179.68,128.09,178.51,128.34,177.22,128.34z M176.75,115.34c-0.82,0-1.49,0.28-2,0.85c-0.51,0.57-0.84,1.38-0.98,2.44h5.76v-0.34c-0.02-0.94-0.27-1.67-0.74-2.18S177.62,115.34,176.75,115.34z"></path>
		<path class="unep_0" d="M189.94,112.23l0.13,1.83c1.11-1.41,2.6-2.12,4.46-2.12c1.64,0,2.87,0.49,3.67,1.48c0.8,0.99,1.21,2.46,1.23,4.42v10.22h-4.14v-10.12c0-0.9-0.19-1.55-0.57-1.95c-0.38-0.41-1.02-0.61-1.91-0.61c-1.17,0-2.04,0.51-2.62,1.52v11.16h-4.14v-15.82H189.94z"></path>
		<path class="unep_0" d="M207.71,108.34v3.89h2.65v3.1h-2.65v7.9c0,0.59,0.11,1,0.33,1.26c0.22,0.25,0.64,0.38,1.26,0.38c0.46,0,0.86-0.03,1.22-0.1v3.2c-0.81,0.25-1.65,0.38-2.51,0.38c-2.91,0-4.39-1.5-4.44-4.49v-8.53h-2.27v-3.1h2.27v-3.89H207.71z"></path>
	</g>
<g>
<g>
<g>
<g>
<g>
<g>
	<g>
		<path class="unep_0" d="M189.99,45.26c-6.89-2.1-11.91-8.55-11.91-16.18c0-1.38,0.16-2.72,0.47-4l10.88,1.41c0,0,4.18,0.19,4.02,7.64C193.31,41.37,189.99,45.26,189.99,45.26z"></path>
		<path class="unep_0" d="M199.72,45.26c6.89-2.1,11.91-8.55,11.91-16.18c0-1.38-0.16-2.72-0.47-4l-10.88,1.41c0,0-4.18,0.19-4.02,7.64C196.39,41.37,199.72,45.26,199.72,45.26z"></path>
		<path class="unep_0" d="M194.85,16.98c1.4,0,2.54,1.15,2.54,2.56c0,1.1-0.75,1.92-1.66,2.41c-0.11,0.06-0.21,0.11-0.19,0.28c0.02,0.18,0.54,0.28,0.77,0.33l14.63,1.71c-2.05-6.99-8.47-12.1-16.07-12.1h-0.02c-7.6,0-14.02,5.1-16.07,12.1l14.63-1.71c0.22-0.05,0.74-0.15,0.77-0.33c0.02-0.17-0.08-0.23-0.19-0.28c-0.91-0.49-1.66-1.31-1.66-2.41C192.31,18.12,193.45,16.98,194.85,16.98L194.85,16.98z"></path>
	</g>
	<g>
		<path class="unep_0" d="M201.54,57.22l0.99-0.62c0,0-4.7-6.43-15.22-6.43c-5.38,0-8.17,2.18-11.94,2.18c0,0-1.55,0.19-3.03-0.75c0,0,1.79,2.62,8.29,2.62c4.77,0,8.17-2.81,11.51-2.81C196.71,51.42,200.11,55.53,201.54,57.22z"></path>
	</g>
	<g>
		<path class="unep_0" d="M186.93,57.22l-0.99-0.62c0,0,4.7-6.43,15.22-6.43c5.38,0,8.17,2.18,11.94,2.18c0,0,1.55,0.19,3.03-0.75c0,0-1.79,2.62-8.29,2.62c-4.77,0-8.17-2.81-11.51-2.81C191.76,51.42,188.35,55.53,186.93,57.22z"></path>
	</g>
	<path class="unep_0" d="M181.92,49.61c-0.19,0.5-2.2-0.09-3.56,0.31c-1.52,0.45-9.56,1.44-13.09-6.99c0,0,3.34,3.62,5.94,3.87c2.6,0.25,5.45,0.87,7.86,2.25l0.56,0.12c0,0-0.08-0.25-0.31-0.37c-0.32-0.17-2.82-0.99-4.02-4.99c-0.62-2.06-0.5-3.56-0.74-4.62c0,0,2.72,3.06,3.84,4.99C179.5,46.11,179.63,48.3,181.92,49.61z"></path>
	<path class="unep_0" d="M173.72,45.36c-0.2,0.2-0.71-0.12-0.9-0.22c-0.19-0.09-1.52-0.71-3.81-1.53c-2.26-0.81-6.47-4.4-6.06-10.55c0,0,0.59,2.31,2.32,3.84c1.73,1.53,2.35,1.72,3.4,2.96c1.05,1.25,3.43,4.09,3.53,4.06c0.09-0.03,0.12-0.19-0.06-0.34c-0.19-0.16-0.8-1.72-1.21-2.25c-0.4-0.53-1.61-4.18,0.15-8.67c0,0,1.89,3.28,1.76,6.58c-0.12,3.31-0.28,2.53,0.53,5.27C173.38,44.52,173.81,45.27,173.72,45.36z"></path>
	<path class="unep_0" d="M168.46,37.34c-0.11,0.11-0.59-0.59-0.96-1.25c-0.37-0.66-2.97-3.46-3.31-4.03c-0.34-0.56-3.25-4.12-1.05-9.39c0,0,0.22-0.06,0.22,1.19s1.14,4.03,2.07,5.21c0.93,1.19,1.76,3.09,1.95,5.12c0,0,0.12,0.37,0.28,0.41c0.15,0.03,0.15-0.37,0.15-0.37s-0.12-1.87-0.12-3.15c0-1.28,0.56-3.46,1.76-4.71c0,0,0.56-0.62,0.9-1.37c0,0,0.22-0.5,0.53-0.75c0,0,0.25,3.59-0.96,6.93c-1.21,3.34-1.61,3.9-1.42,5.71C168.49,36.88,168.52,37.28,168.46,37.34z"></path>
	<path class="unep_0" d="M166.42,27.48c-0.12,0-0.22-0.44-0.28-0.78c-0.06-0.34-0.43-2.34-0.68-2.78c-0.25-0.44-1.18-2.43-1.21-4.77c-0.03-2.34,1.02-5.52,3.37-8.05c0,0-0.09,0.75-0.71,2.4c-0.62,1.65-0.25,3.21-0.19,3.49c0.06,0.28,0.28,2.21,0.28,3.12c0,0.72-0.19,3.18-0.34,3.68c0,0-0.06,0.34,0.06,0.34s0.25-0.28,0.25-0.28s0.12-1.93,1.55-3.68c1.42-1.75,3.99-2.81,4.39-3.59c0,0-0.19,2.75-3.19,5.96c-2.67,2.86-1.89,1.4-2.75,3.74c0,0-0.37,0.87-0.37,1.06C166.6,27.55,166.42,27.48,166.42,27.48z"></path>
	<path class="unep_0" d="M168.06,18.25c0,0-0.06-0.37,0.4-1.22c0.46-0.84-0.03-2.34,0.59-4.52c0.62-2.18,1.76-5.93,6.13-8.17c0,0-0.43,0.41-0.65,0.72c-0.22,0.31-1.39,2.56-1.73,4.12c-0.34,1.56-1.83,4.18-2.38,4.77c-0.56,0.59-0.31,0.66-0.31,0.66s0.28-0.06,0.56-0.5c0.28-0.44,1.7-2.06,3.28-2.43c1.58-0.37,4.08-1.12,4.24-1.28c0,0-2.72,2.81-5.23,4.24c-2.51,1.44-2.78,1-4.27,2.93C168.67,17.56,168.18,18.25,168.06,18.25z"></path>
	<path class="unep_0" d="M174.06,9.92c0,0,0-0.25,0.46-0.69c0.46-0.44,0.93-1.75,1.73-2.96c0.8-1.22,2.63-4.4,7.36-5.15c0,0-1.42,1.06-1.64,1.4c-0.22,0.34-1.61,2.18-2.23,2.81c-0.62,0.62-2.38,1.93-2.97,2.22c0,0-0.31,0.25-0.25,0.34c0.06,0.09,0.37-0.09,0.37-0.09s1.64-1.28,3.62-1.34c1.98-0.06,4.05,0.03,4.36,0.06c0,0-1.86,1.28-6.28,2.09c-4.42,0.81-3.59,0.84-4.27,1.28C174.34,9.89,174.18,10.01,174.06,9.92z"></path>
	<path class="unep_0" d="M181.95,4.74c0,0,0.09-0.25,0.8-0.47c0.71-0.22,0.65-0.9,2.82-2.06c2.17-1.15,4.42-1.68,6.71-0.72c0,0-0.96,0.12-1.11,0.19c-0.15,0.06-1.79,0.5-2.26,0.75c-0.46,0.25-2.85,1.31-3.81,1.5c-0.96,0.19-0.5,0.25-0.5,0.25s0.22,0.09,0.4,0.09s2.32-0.22,3.71,0.28c1.39,0.5,1.36,0.69,1.92,0.87c0.56,0.19,1.21,0.31,1.3,0.53c0,0-1.39,0.12-2.23,0.12c-0.84,0-3.03-0.22-4.08-0.72c-1.05-0.5-2.26-0.72-2.66-0.62C182.57,4.83,182.07,4.83,181.95,4.74z"></path>
	<path class="unep_0" d="M190.74,3.65c0,0,0.09-0.12,0.71-0.25s0.77-0.5,2.23-0.81s3.71-0.59,5.79,0.84c0,0-1.27-0.03-1.55-0.03c-0.28,0-2.69,0.44-3.25,0.44c-0.56,0-1.67-0.25-1.83-0.06c-0.15,0.19,1.02,0.44,1.21,0.5c0.19,0.06,1.02,0.12,2.07,1.15c1.05,1.03,1.79,1.59,1.92,1.65c0,0-3.09-0.72-3.87-1.15c-0.77-0.44-2.1-1.78-2.32-1.87C191.63,3.96,190.74,3.65,190.74,3.65z"></path>
	<path class="unep_0" d="M197.88,4.93c0,0,1.95-0.06,3.37,0.84s2.57,2.09,2.69,2.81c0,0-0.8-0.69-1.33-0.84c-0.53-0.16-2.01-1-2.32-1.19S198.19,5.21,197.88,4.93z"></path>
	<path class="unep_0" d="M207.04,49.95c0,0,0.28-0.28,1.21-1.09s1.18-2,2.2-3.84c1.02-1.84,1.89-3.12,3.96-4.99c0,0-0.37,1.4-0.4,1.84c-0.03,0.44-0.37,2.87-1.55,4.27c-1.18,1.4-1.24,1.72-2.6,2.56c0,0-0.53,0.37-0.5,0.5c0.03,0.12,0.93-0.03,0.93-0.03s0.99-0.37,1.3-0.56s1.7-0.9,2.26-1.12c0.56-0.22,1.02-0.44,2.26-0.81c1.24-0.37,5.72-1.53,7.49-4.4c0,0-0.53,1.68-1.18,2.46c-0.65,0.78-4.33,5.68-9.44,5.59c0,0-2.01-0.16-3.06-0.34c-1.05-0.19-1.42-0.19-1.58-0.16C208.19,49.86,207.2,50.04,207.04,49.95z"></path>
	<path class="unep_0" d="M218.46,32.45c0,0-1.92,3.03-2.35,7.39c-0.43,4.37,0.31,3.06-0.4,4.99c0,0-0.25,0.5-0.15,0.53c0.09,0.03,0.46-0.19,1.83-1.03c1.36-0.84,2.69-0.59,5.6-3.4c2.91-2.81,3.5-8.39,3.56-8.86c0,0-0.43,0.44-0.65,1.19c-0.22,0.75-0.68,1.34-0.77,1.44c-0.09,0.09-3.25,3.59-3.62,3.9c-0.37,0.31-2.23,2.59-2.63,3.24c-0.4,0.66-1.58,1.84-1.79,1.75c0,0,0.03-0.28,0.12-0.5c0.09-0.22,0.96-1.4,1.33-2.78c0.37-1.37,0.46-2.22,0.5-3.09C219.05,36.35,218.49,33.13,218.46,32.45z"></path>
	<path class="unep_0" d="M221.06,36.66c0,0-0.19-0.45-0.03-0.78c0.09-0.19,0.19-1.68-0.37-2.9c-0.56-1.22-1.76-4.59-1.67-6.83c0.09-2.25,0.34-2.56,0.34-2.56s0.62,1.84,0.8,2.15c0.19,0.31,2.04,3.62,1.89,5.43c-0.15,1.81-0.25,2.37-0.15,2.4c0.09,0.03,0.31-0.22,0.34-0.44c0.03-0.22,0.34-1.47,0.93-2.93c0.59-1.47,2.97-4.71,3.5-6.86c0,0,0.77,3.74-1.3,7.24c-2.07,3.49-2.29,2.71-3.16,4.31C221.31,36.47,221.18,36.66,221.06,36.66z"></path>
	<path class="unep_0" d="M222.95,26.77c-0.15-0.03-0.06-1.47-0.43-1.93c-0.37-0.47-3.56-4.27-4.24-8.08c0,0,2.01,2.06,2.35,2.28c0.34,0.22,1.7,1.59,2.1,2.78c0.4,1.19,0.31,2.18,0.46,2.22s0.15-1.31,0.15-1.31s0.03-2.62,0.25-3.87c0.22-1.25,0.77-3.34,0.53-4.4c0,0,1.21,1.93,1.14,4.68c-0.06,2.75-1.21,4.93-1.36,5.24c-0.15,0.31-0.59,1.65-0.59,1.93S222.95,26.77,222.95,26.77z"></path>
	<path class="unep_0" d="M219.17,7.23c0,0,4.18,2.5,3.53,10.86c0,0,0,0.37-0.25-0.03c-0.25-0.41-1.14-1.56-1.55-1.81c-0.4-0.25-4.12-2.53-5.69-6.02c0,0,0.25-0.06,0.62,0.28c0.37,0.34,1.52,0.94,1.7,1.03c0.19,0.09,1.49,0.44,2.44,1.5c0.96,1.06,1.3,1.84,1.58,2.46c0,0,0.28,0.22,0.09-0.41c-0.19-0.62-0.22-1.03-0.71-1.81c-0.49-0.78-0.93-2.18-0.99-3.15C219.88,9.17,219.61,7.73,219.17,7.23z"></path>
	<path class="unep_0" d="M218.46,10.17c0,0,0.09-0.56-0.31-1.34c-0.4-0.78-0.09-1.65-1.36-3.71c-0.71-1.15-3.19-2.06-3.19-2.06s0.71,1,1.18,1.56c0.46,0.56,0.62,0.97,0.77,1.25c0.15,0.28,1.01,1.11,1.33,1.59c0.06,0.09,0.19,0.34,0.19,0.5c0,0.16-0.34-0.09-0.43-0.19c-0.09-0.09-1.61-1.25-2.57-1.44c-0.96-0.19-2.78-0.37-3.28-0.62c0,0,2.17,1.97,4.52,2.56C217.66,8.86,218.46,10.17,218.46,10.17z"></path>
	<path class="unep_0" d="M213.57,5.02c0,0-2.17-2.96-6.03-2.9c0,0,0.22,0.22,0.65,0.31c0.43,0.09,1.21,0.87,1.61,1.12C210.2,3.8,211.03,4.43,213.57,5.02z"></path>
</g>
</g>
</g>
</g>
</g>
	<g>
		<path class="unep_0" d="M46.11,29.28c0,4.17-0.56,7.92-1.67,11.23c-1.12,3.31-2.68,6.12-4.7,8.42c-2.02,2.3-4.44,4.07-7.27,5.31c-2.83,1.24-5.94,1.86-9.33,1.86c-3.4,0-6.51-0.62-9.33-1.86c-2.83-1.24-5.26-3.01-7.31-5.31c-2.04-2.3-3.64-5.1-4.78-8.42C0.57,37.2,0,33.46,0,29.28v-2.4C0,22.73,0.56,19,1.69,15.67C2.82,12.35,4.4,9.52,6.43,7.2c2.03-2.32,4.46-4.11,7.29-5.34C16.55,0.62,19.66,0,23.05,0c3.4,0,6.51,0.62,9.33,1.86c2.83,1.24,5.25,3.02,7.29,5.34c2.03,2.33,3.61,5.15,4.74,8.47c1.13,3.32,1.69,7.06,1.69,11.21V29.28z M34.8,26.81c0-5.72-1.02-10.07-3.05-13.05c-2.03-2.97-4.93-4.46-8.7-4.46c-3.77,0-6.67,1.49-8.7,4.46c-2.03,2.97-3.05,7.32-3.05,13.05v2.47c0,2.85,0.27,5.37,0.8,7.56c0.53,2.19,1.3,4.02,2.31,5.51s2.24,2.61,3.7,3.37c1.46,0.76,3.14,1.14,5.02,1.14c3.77,0,6.66-1.5,8.66-4.5c2.01-3,3.01-7.36,3.01-13.09V26.81z"></path>
		<path class="unep_0" d="M98.24,55.34H87.08L65.37,19.42v35.92H54.21V0.75h11.16l21.75,35.99V0.75h11.12V55.34z"></path>
		<path class="unep_0" d="M148.96,0.75v36.03c0,3.15-0.52,5.93-1.56,8.34c-1.04,2.41-2.48,4.43-4.31,6.06c-1.84,1.62-4.02,2.85-6.56,3.67c-2.54,0.82-5.31,1.24-8.31,1.24c-3.02,0-5.81-0.41-8.35-1.24c-2.54-0.82-4.73-2.05-6.56-3.67c-1.84-1.62-3.27-3.64-4.29-6.06c-1.03-2.41-1.54-5.19-1.54-8.34V0.75h11.16v36.03c0,3.57,0.85,6.18,2.55,7.82c1.7,1.64,4.05,2.46,7.05,2.46c3.02,0,5.37-0.82,7.05-2.46c1.67-1.64,2.51-4.24,2.51-7.82V0.75H148.96z"></path>
	</g>
</g>
</g>
</svg>