<?xml version="1.0" encoding="utf-8"?>
<!-- Generator: Adobe Illustrator 25.4.1, SVG Export Plug-In . SVG Version: 6.00 Build 0)  -->
<svg version="1.1" id="Layer_1" xmlns="http://www.w3.org/2000/svg" xmlns:xlink="http://www.w3.org/1999/xlink" x="0px" y="0px" 
viewBox="0 0 226.77 60.83" fill="#FFFFFF" style="enable-background:new 0 0 226.77 60.83;" xml:space="preserve">
<style type="text/css">
	.st0{fill:#FFFFFF;}
	.st1{clip-path:url(#SVGID_00000043422748826057258200000000163679611542107576_);}
	.st2{opacity:0.4;}
	.st3{opacity:0.6;clip-path:url(#SVGID_00000043422748826057258200000000163679611542107576_);}
	.st4{opacity:0.5;fill:#FFFFFF;}
	.st5{opacity:0.6;clip-path:url(#SVGID_00000043422748826057258200000000163679611542107576_);fill:#FFFFFF;}
</style>
<g>
<g>
<g>
	<path class="unep_0" d="M46.26,23.84c-0.9,0-1.68-0.13-2.33-0.4s-1.28-0.72-1.87-1.37c-0.66,0.58-1.4,1.03-2.24,1.32c-0.84,0.3-1.7,0.44-2.6,0.44h-2.35c-0.76,0-1.3,0.16-1.6,0.47c-0.31,0.31-0.46,0.84-0.46,1.57v6.41H29v-7.71c0-1.15,0.29-2.07,0.87-2.75c0.58-0.68,1.4-1.06,2.46-1.14c-0.46-1.12-0.68-2.34-0.68-3.66c0-0.77,0.13-1.61,0.39-2.52c0.26-0.9,0.56-1.65,0.92-2.24c0.76-0.46,1.61-0.83,2.54-1.1c0.93-0.27,1.76-0.41,2.5-0.41c1.16,0,2.21,0.26,3.16,0.77c0.95,0.51,1.68,1.24,2.21,2.19c0.53,0.95,0.8,2.04,0.8,3.28c0,0.93-0.16,1.82-0.49,2.68c0.31,0.36,0.66,0.62,1.06,0.76c0.4,0.15,0.9,0.22,1.52,0.22h0.12c0.08,0,0.12,0.03,0.12,0.1v2.94c0,0.09-0.04,0.13-0.12,0.13H46.26z M35.18,17.58c0,0.89,0.19,1.92,0.58,3.08h0.97c1.02,0,1.88-0.36,2.57-1.07s1.04-1.58,1.04-2.59c0-0.96-0.22-1.72-0.67-2.26c-0.44-0.54-1.03-0.81-1.75-0.81c-0.76,0-1.56,0.25-2.38,0.74C35.3,15.6,35.18,16.57,35.18,17.58z"></path>
	<path class="unep_0" d="M49.01,20.66c-0.46-1.08-0.68-2.3-0.68-3.64c0-0.77,0.12-1.59,0.37-2.48c0.25-0.89,0.56-1.65,0.92-2.28c0.82-0.49,1.69-0.86,2.62-1.12c0.92-0.26,1.73-0.39,2.43-0.39c1.16,0,2.22,0.26,3.17,0.77c0.95,0.52,1.69,1.24,2.21,2.19c0.52,0.94,0.78,2.04,0.78,3.28c0,1.34-0.3,2.53-0.9,3.56s-1.44,1.84-2.51,2.41c-1.07,0.58-2.25,0.86-3.55,0.86h-7.74c-0.08,0-0.12-0.04-0.12-0.13v-2.94c0-0.07,0.04-0.1,0.12-0.1H49.01z M51.84,17.58c0,0.89,0.19,1.92,0.58,3.08h0.96c1.03,0,1.89-0.36,2.58-1.07s1.04-1.58,1.04-2.59c0-0.94-0.22-1.68-0.66-2.24c-0.44-0.55-1.02-0.83-1.75-0.83c-0.76,0-1.56,0.25-2.38,0.74C51.97,15.6,51.84,16.57,51.84,17.58z"></path>
	<path class="unep_0" d="M62.74,20.66h4.62L64.07,7.33h3.97l3.03,13.34h0.17c0.85,0,1.47-0.24,1.86-0.73c0.39-0.49,0.59-1.26,0.59-2.33V3.77h3.79v14.15c0,1.8-0.48,3.23-1.44,4.31c-0.96,1.08-2.28,1.61-3.96,1.61h-9.36V20.66z M62.99,4.44l1.46-0.25c-0.33-0.17-0.61-0.41-0.82-0.72c-0.22-0.3-0.32-0.66-0.32-1.08c0-0.76,0.25-1.35,0.76-1.77C64.56,0.21,65.24,0,66.1,0c0.84,0,1.53,0.16,2.09,0.48l-0.51,1.34c-0.43-0.22-0.89-0.34-1.38-0.34c-0.37,0-0.66,0.11-0.88,0.34c-0.22,0.22-0.34,0.53-0.34,0.93c0,0.28,0.07,0.52,0.22,0.72c0.15,0.21,0.33,0.36,0.55,0.46l0.45-0.08c0.86-0.14,1.55-0.23,2.06-0.27v1.54c-0.61,0.04-1.61,0.15-3,0.32c-1.4,0.17-2.19,0.28-2.37,0.33V4.44z"></path>
	<path class="unep_0" d="M81.7,3.77h3.79v20.07H81.7V3.77z"></path>
	<path class="unep_0" d="M101.61,32.31c-1.64,0-2.94-0.45-3.88-1.34c-0.95-0.89-1.42-2.14-1.42-3.76c0-1.12,0.32-2.15,0.96-3.08c0.64-0.94,1.64-1.79,3-2.57c1.36-0.77,3.23-1.52,5.62-2.24c-0.18-0.6-0.35-1.4-0.51-2.39c-0.22-1.39-0.64-2.43-1.25-3.1c-0.61-0.67-1.43-1.01-2.47-1.01c-0.61,0-1.33,0.13-2.19,0.38c-0.85,0.25-1.61,0.57-2.26,0.93l-0.9-1.82c0.65-0.44,1.48-0.81,2.46-1.11c0.99-0.3,1.96-0.45,2.91-0.45c3.25,0,5.15,1.86,5.71,5.57c0.27,1.69,0.53,2.85,0.78,3.5c0.26,0.64,0.59,1.13,1.01,1.46c0.41,0.33,0.95,0.49,1.62,0.49h0.14c0.08,0,0.12,0.03,0.12,0.1v1.83c0,0.09-0.04,0.13-0.12,0.13h-0.14c-0.93,0-1.74-0.21-2.43-0.63c-0.69-0.42-1.28-1.09-1.76-2.02c-2.03,0.58-3.61,1.15-4.73,1.72c-1.12,0.57-1.94,1.2-2.46,1.88c-0.52,0.68-0.78,1.42-0.78,2.22c0,1.13,0.31,1.95,0.95,2.48c0.63,0.53,1.61,0.79,2.95,0.79c0.85,0,2.1-0.14,3.74-0.43l0.27,1.82c-1.2,0.27-2.16,0.44-2.86,0.52S102.29,32.31,101.61,32.31z M102.81,28.34c-0.44,0-0.79-0.14-1.05-0.41c-0.26-0.28-0.39-0.67-0.39-1.17s0.13-0.9,0.38-1.17c0.25-0.28,0.6-0.41,1.05-0.41c0.46,0,0.81,0.14,1.06,0.43c0.25,0.29,0.37,0.67,0.37,1.15s-0.12,0.87-0.37,1.15C103.62,28.2,103.26,28.34,102.81,28.34z"></path>
	<path class="unep_0" d="M110.68,23.84c-0.08,0-0.12-0.04-0.12-0.13v-1.83c0-0.07,0.04-0.1,0.12-0.1h3.16c-0.63-1.7-0.95-3.21-0.95-4.51c0-1.57,0.31-2.98,0.92-4.2c0.62-0.54,1.33-0.97,2.14-1.29c0.8-0.32,1.64-0.48,2.51-0.48c1.06,0,1.99,0.24,2.8,0.73c0.8,0.49,1.42,1.18,1.85,2.07c0.43,0.89,0.65,1.91,0.65,3.04c0,1.38-0.24,2.58-0.73,3.59c-0.49,1.01-1.17,1.78-2.05,2.32c-0.88,0.54-1.89,0.81-3.03,0.81H110.68z M115.19,16.81c0,0.82,0.07,1.62,0.21,2.41c0.14,0.79,0.39,1.64,0.76,2.56h1.8c1.14,0,2.01-0.4,2.61-1.2c0.61-0.8,0.91-1.96,0.91-3.47c0-1.11-0.29-2.02-0.88-2.72c-0.58-0.7-1.3-1.06-2.13-1.06c-0.54,0-1.07,0.1-1.59,0.3c-0.52,0.2-0.98,0.46-1.39,0.79c-0.14,0.37-0.23,0.75-0.26,1.13C115.2,15.92,115.19,16.34,115.19,16.81z"></path>
	<path class="unep_0" d="M127.35,3.77h2.26v18.01h3.36c0.09,0,0.14,0.03,0.14,0.1v1.83c0,0.09-0.05,0.13-0.14,0.13h-5.62V3.77z"></path>
	<path class="unep_0" d="M132.72,23.84c-0.08,0-0.12-0.04-0.12-0.13v-1.83c0-0.07,0.04-0.1,0.12-0.1h3.36V11.03h2.26v12.81H132.72z M137.2,8.51c-0.44,0-0.79-0.14-1.05-0.41c-0.26-0.28-0.39-0.67-0.39-1.17s0.13-0.9,0.38-1.17c0.25-0.27,0.6-0.41,1.05-0.41c0.46,0,0.81,0.14,1.06,0.43c0.25,0.29,0.37,0.67,0.37,1.15s-0.12,0.87-0.37,1.15C138.01,8.37,137.66,8.51,137.2,8.51z"></path>
	<path class="unep_0" d="M146,23.84v0.63c0,1.78-0.39,3.18-1.17,4.19c-0.78,1.01-1.9,1.52-3.37,1.52c-0.81,0-1.68-0.25-2.6-0.75l0.66-1.77c0.42,0.19,0.75,0.31,1.02,0.37c0.27,0.06,0.56,0.08,0.87,0.08c0.76,0,1.36-0.32,1.79-0.97c0.43-0.65,0.65-1.5,0.65-2.55V11.03H146v10.74h3.15c0.09,0,0.14,0.03,0.14,0.1v1.83c0,0.09-0.05,0.13-0.14,0.13H146z"></path>
	<path class="unep_0" d="M148.89,23.84c-0.08,0-0.12-0.04-0.12-0.13v-1.83c0-0.07,0.04-0.1,0.12-0.1h3.36V11.03h2.26v12.81H148.89z M153.27,29.13c-0.44,0-0.79-0.14-1.05-0.41c-0.26-0.28-0.39-0.67-0.39-1.17c0-0.51,0.13-0.9,0.38-1.17s0.6-0.41,1.05-0.41c0.46,0,0.81,0.14,1.06,0.43s0.37,0.67,0.37,1.15c0,0.48-0.12,0.87-0.37,1.15S153.73,29.13,153.27,29.13z"></path>
	<path class="unep_0" d="M6.47,55.54c-2.04,0-3.63-0.54-4.76-1.61C0.57,52.86,0,51.36,0,49.44c0-2.08,0.63-3.72,1.89-4.91c1.26-1.2,2.96-1.79,5.09-1.79h1.68v-1.66h2.18v12.41h2.9c0.08,0,0.12,0.03,0.12,0.1v1.83c0,0.09-0.04,0.13-0.12,0.13H6.47z M8.66,53.47v-8.69H7.05c-1.53,0-2.71,0.41-3.54,1.22c-0.83,0.81-1.25,1.95-1.25,3.41c0,1.32,0.36,2.32,1.08,3.02c0.72,0.7,1.75,1.04,3.07,1.04H8.66z M5.15,38.63c-0.4,0-0.74-0.13-1.01-0.37C3.86,38,3.72,37.6,3.72,37.04c0-0.56,0.14-0.96,0.42-1.21c0.28-0.25,0.62-0.37,1.01-0.37c0.43,0,0.78,0.14,1.03,0.41c0.26,0.27,0.39,0.66,0.39,1.18c0,0.51-0.13,0.9-0.38,1.17C5.94,38.49,5.59,38.63,5.15,38.63z M9.55,38.63c-0.44,0-0.79-0.14-1.05-0.41c-0.26-0.27-0.39-0.67-0.39-1.17c0-0.51,0.13-0.9,0.38-1.17c0.25-0.28,0.6-0.41,1.05-0.41c0.46,0,0.81,0.14,1.06,0.43s0.37,0.67,0.37,1.15c0,0.48-0.12,0.87-0.37,1.15C10.36,38.48,10.01,38.63,9.55,38.63z"></path>
	<path class="unep_0" d="M13.49,55.54c-0.08,0-0.12-0.04-0.12-0.13v-1.83c0-0.07,0.04-0.1,0.12-0.1h4.13V42.73h2.26v10.74h3.82c0.08,0,0.12,0.03,0.12,0.1v1.83c0,0.09-0.04,0.13-0.12,0.13H13.49z M16.1,39.09l1.21-0.18c-0.6-0.4-0.9-0.96-0.9-1.68c0-0.76,0.24-1.34,0.72-1.75c0.48-0.41,1.1-0.62,1.88-0.62c0.66,0,1.22,0.13,1.68,0.4l-0.39,1.19c-0.34-0.21-0.76-0.32-1.27-0.32c-0.37,0-0.69,0.11-0.95,0.33c-0.26,0.22-0.39,0.56-0.39,1.03c0,0.3,0.07,0.56,0.22,0.77c0.15,0.21,0.33,0.37,0.55,0.47c0.17-0.04,0.57-0.11,1.22-0.2c0.65-0.09,1.09-0.14,1.33-0.14v1.29c-0.13,0-0.43,0.02-0.9,0.07c-0.47,0.05-1.33,0.16-2.59,0.33L16.1,40.3V39.09z"></path>
	<path class="unep_0" d="M23.45,55.54c-0.08,0-0.12-0.04-0.12-0.13v-1.83c0-0.07,0.04-0.1,0.12-0.1h4.13V42.73h2.26v10.74h3.82c0.08,0,0.12,0.03,0.12,0.1v1.83c0,0.09-0.04,0.13-0.12,0.13H23.45z M26.59,60.83c-0.4,0-0.74-0.12-1.01-0.37c-0.28-0.25-0.42-0.65-0.42-1.21c0-0.56,0.14-0.96,0.42-1.21c0.28-0.25,0.62-0.37,1.01-0.37c0.43,0,0.77,0.14,1.03,0.41S28,58.72,28,59.24c0,0.51-0.13,0.9-0.38,1.17C27.37,60.69,27.02,60.83,26.59,60.83z M30.99,60.83c-0.44,0-0.79-0.14-1.05-0.41c-0.26-0.28-0.39-0.67-0.39-1.17c0-0.51,0.13-0.9,0.38-1.17c0.25-0.28,0.6-0.41,1.05-0.41c0.46,0,0.81,0.14,1.06,0.43c0.25,0.29,0.37,0.67,0.37,1.15c0,0.48-0.12,0.87-0.37,1.15C31.8,60.68,31.44,60.83,30.99,60.83z"></path>
	<path class="unep_0" d="M33.41,55.54c-0.08,0-0.12-0.04-0.12-0.13v-1.83c0-0.07,0.04-0.1,0.12-0.1h3.36V42.73h2.26v10.74h3.32c0.08,0,0.12,0.03,0.12,0.1v1.83c0,0.09-0.04,0.13-0.12,0.13H33.41z M37.77,60.83c-0.44,0-0.79-0.14-1.05-0.41c-0.26-0.28-0.39-0.67-0.39-1.17c0-0.51,0.13-0.9,0.38-1.17c0.25-0.28,0.6-0.41,1.05-0.41c0.46,0,0.81,0.14,1.06,0.43c0.25,0.29,0.37,0.67,0.37,1.15c0,0.48-0.12,0.87-0.37,1.15C38.58,60.68,38.22,60.83,37.77,60.83z"></path>
	<path class="unep_0" d="M42.1,55.54c-0.08,0-0.12-0.04-0.12-0.13v-1.83c0-0.07,0.04-0.1,0.12-0.1h3.36V35.47h2.26v18.01h3.32c0.08,0,0.12,0.03,0.12,0.1v1.83c0,0.09-0.04,0.13-0.12,0.13H42.1z"></path>
	<path class="unep_0" d="M50.78,55.54c-0.08,0-0.12-0.04-0.12-0.13v-1.83c0-0.07,0.04-0.1,0.12-0.1h3.36V35.47h2.26v20.07H50.78z"></path>
	<path class="unep_0" d="M71.47,55.8c-2.07,0-3.65-0.51-4.73-1.54c-1.08-1.02-1.62-2.54-1.62-4.54c0-1.37,0.27-2.63,0.82-3.8c0.54-1.16,1.3-2.08,2.27-2.73c0.97-0.66,2.08-0.99,3.33-0.99c1.15,0,2.2,0.32,3.15,0.95s1.71,1.55,2.31,2.74c0.59,1.19,0.89,2.47,0.89,3.82c0,2.09-0.54,3.62-1.62,4.61C75.2,55.31,73.59,55.8,71.47,55.8z M69,40.19c-0.52,0-0.94-0.17-1.24-0.51c-0.31-0.34-0.46-0.8-0.46-1.39c0-0.59,0.15-1.06,0.45-1.4c0.3-0.34,0.72-0.51,1.25-0.51c0.52,0,0.93,0.17,1.23,0.5c0.3,0.33,0.45,0.8,0.45,1.41c0,0.6-0.15,1.07-0.46,1.4C69.91,40.02,69.5,40.19,69,40.19z M71.45,52.59c0.9,0,1.56-0.25,1.98-0.74c0.43-0.49,0.64-1.24,0.64-2.25c0-1.13-0.26-2.12-0.78-2.96c-0.52-0.84-1.14-1.26-1.87-1.26c-0.73,0-1.35,0.41-1.86,1.23c-0.51,0.82-0.77,1.81-0.77,2.99c0,1.02,0.22,1.77,0.65,2.26C69.89,52.34,70.55,52.59,71.45,52.59z M73.33,40.19c-0.52,0-0.94-0.17-1.24-0.51c-0.31-0.34-0.46-0.8-0.46-1.39c0-0.59,0.15-1.06,0.45-1.4c0.3-0.34,0.72-0.51,1.25-0.51c0.53,0,0.95,0.17,1.24,0.51c0.3,0.34,0.45,0.81,0.45,1.4c0,0.58-0.16,1.05-0.47,1.39C74.24,40.02,73.83,40.19,73.33,40.19z"></path>
	<path class="unep_0" d="M80.05,52.37h8.51c-0.35-1.63-0.77-2.94-1.27-3.94c-0.5-1-1.14-1.87-1.92-2.59c-0.78-0.73-1.72-1.33-2.84-1.81l1.43-3.7c2.24,0.93,4.04,2.37,5.41,4.31c1.37,1.94,2.37,4.52,3.01,7.74h3.35c0.08,0,0.12,0.03,0.12,0.1v2.94c0,0.09-0.04,0.13-0.12,0.13H80.05V52.37z"></path>
	<path class="unep_0" d="M95.47,55.54c-0.08,0-0.12-0.04-0.12-0.13v-2.94c0-0.07,0.04-0.1,0.12-0.1h10.29c-0.67-0.65-1.19-1.91-1.55-3.78c-0.23-1.19-0.57-2.02-1.03-2.5c-0.45-0.48-1.13-0.72-2.03-0.72c-0.6,0-1.16,0.08-1.68,0.23c-0.52,0.16-1.09,0.41-1.7,0.76l-1.14-2.9c1.52-0.84,3.29-1.26,5.32-1.26c1.7,0,3.02,0.4,3.97,1.19c0.95,0.79,1.57,2.09,1.87,3.91c0.44,2.62,1.03,4.31,1.78,5.07h1.65c0.09,0,0.14,0.03,0.14,0.1v2.94c0,0.09-0.05,0.13-0.14,0.13H95.47z"></path>
	<path class="unep_0" d="M110.95,55.54c-0.08,0-0.12-0.04-0.12-0.13v-2.94c0-0.07,0.04-0.1,0.12-0.1h3.94v-9.91h3.79v9.91h3.83c0.08,0,0.12,0.03,0.12,0.1v2.94c0,0.09-0.04,0.13-0.12,0.13H110.95z M114.41,40.19c-0.52,0-0.94-0.17-1.24-0.51c-0.31-0.34-0.46-0.8-0.46-1.39c0-0.59,0.15-1.06,0.45-1.4c0.3-0.34,0.72-0.51,1.25-0.51c0.52,0,0.93,0.17,1.23,0.5c0.3,0.33,0.45,0.8,0.45,1.41c0,0.6-0.15,1.07-0.46,1.4C115.33,40.02,114.92,40.19,114.41,40.19z M118.74,40.19c-0.52,0-0.94-0.17-1.24-0.51c-0.31-0.34-0.46-0.8-0.46-1.39c0-0.59,0.15-1.06,0.45-1.4c0.3-0.34,0.72-0.51,1.25-0.51c0.53,0,0.95,0.17,1.24,0.51c0.3,0.34,0.45,0.81,0.45,1.4c0,0.58-0.16,1.05-0.47,1.39C119.66,40.02,119.25,40.19,118.74,40.19z"></path>
	<path class="unep_0" d="M125.14,52.37c-0.46-1.08-0.68-2.3-0.68-3.64c0-0.77,0.12-1.59,0.37-2.48c0.25-0.89,0.56-1.65,0.92-2.28c0.82-0.49,1.69-0.86,2.62-1.12c0.92-0.26,1.73-0.39,2.43-0.39c1.16,0,2.22,0.26,3.17,0.77c0.95,0.52,1.69,1.24,2.21,2.19c0.52,0.94,0.78,2.04,0.78,3.28c0,0.96-0.16,1.87-0.47,2.72c0.31,0.34,0.66,0.59,1.05,0.73c0.39,0.14,0.89,0.21,1.49,0.21h0.14c0.08,0,0.12,0.03,0.12,0.1v2.94c0,0.09-0.04,0.13-0.12,0.13h-0.14c-0.9,0-1.67-0.13-2.33-0.39c-0.66-0.26-1.28-0.72-1.87-1.37c-0.65,0.58-1.39,1.03-2.23,1.32c-0.84,0.3-1.7,0.44-2.59,0.44h-7.74c-0.08,0-0.12-0.04-0.12-0.13v-2.94c0-0.07,0.04-0.1,0.12-0.1H125.14z M127.97,49.28c0,0.89,0.19,1.92,0.58,3.08h0.96c1.03,0,1.89-0.36,2.58-1.07s1.04-1.58,1.04-2.59c0-0.94-0.22-1.68-0.66-2.24c-0.44-0.55-1.02-0.83-1.75-0.83c-0.76,0-1.56,0.25-2.38,0.74C128.1,47.3,127.97,48.27,127.97,49.28z"></path>
	<path class="unep_0" d="M138.89,55.54c-0.08,0-0.12-0.04-0.12-0.13v-2.94c0-0.07,0.04-0.1,0.12-0.1h3.18v-16.9h3.79v20.07H138.89z"></path>
	<path class="unep_0" d="M150.34,35.47h3.79v20.07h-3.79V35.47z"></path>
</g>
</g>
<g>
<g>
<g>
<g>
<g>
	<g>
		<path class="unep_0" d="M193.41,45.05c-6.25-1.96-10.8-7.97-10.8-15.09c0-1.29,0.15-2.53,0.43-3.73l9.87,1.31c0,0,3.79,0.17,3.65,7.13C196.42,41.43,193.41,45.05,193.41,45.05z"></path>
		<path class="unep_0" d="M202.23,45.05c6.25-1.96,10.8-7.97,10.8-15.09c0-1.29-0.15-2.53-0.43-3.73l-9.87,1.31c0,0-3.79,0.17-3.65,7.13C199.22,41.43,202.23,45.05,202.23,45.05z"></path>
		<path class="unep_0" d="M197.82,18.68c1.27,0,2.3,1.07,2.3,2.39c0,1.02-0.68,1.79-1.5,2.25c-0.1,0.06-0.19,0.1-0.17,0.27c0.02,0.17,0.49,0.26,0.7,0.31l13.27,1.6c-1.86-6.52-7.68-11.28-14.58-11.28h-0.02c-6.89,0-12.72,4.76-14.58,11.28l13.27-1.6c0.2-0.05,0.67-0.14,0.7-0.31c0.02-0.16-0.07-0.21-0.17-0.27c-0.82-0.45-1.5-1.22-1.5-2.25C195.52,19.75,196.55,18.68,197.82,18.68L197.82,18.68z"></path>
	</g>
	<g>
		<path class="unep_0" d="M203.88,56.21l0.9-0.58c0,0-4.27-5.99-13.81-5.99c-4.88,0-7.41,2.04-10.83,2.04c0,0-1.4,0.17-2.75-0.7c0,0,1.63,2.44,7.52,2.44c4.32,0,7.41-2.62,10.44-2.62C199.5,50.8,202.59,54.64,203.88,56.21z"></path>
	</g>
	<g>
		<path class="unep_0" d="M190.63,56.21l-0.9-0.58c0,0,4.27-5.99,13.81-5.99c4.88,0,7.41,2.04,10.83,2.04c0,0,1.4,0.17,2.75-0.7c0,0-1.63,2.44-7.52,2.44c-4.32,0-7.41-2.62-10.44-2.62C195.01,50.8,191.93,54.64,190.63,56.21z"></path>
	</g>
		<path class="unep_0" d="M186.09,49.11c-0.17,0.47-1.99-0.09-3.23,0.29c-1.38,0.42-8.67,1.34-11.87-6.52c0,0,3.03,3.38,5.39,3.61c2.36,0.23,4.94,0.81,7.13,2.1l0.51,0.12c0,0-0.07-0.23-0.28-0.35c-0.29-0.16-2.56-0.92-3.65-4.66c-0.56-1.92-0.45-3.32-0.67-4.31c0,0,2.47,2.85,3.48,4.66C183.9,45.85,184.01,47.89,186.09,49.11z"></path>
		<path class="unep_0" d="M178.65,45.15c-0.18,0.19-0.65-0.12-0.81-0.2c-0.17-0.09-1.38-0.66-3.45-1.43c-2.05-0.76-5.87-4.1-5.5-9.84c0,0,0.53,2.15,2.1,3.58c1.57,1.43,2.13,1.6,3.09,2.76c0.95,1.16,3.12,3.81,3.2,3.78c0.08-0.03,0.11-0.17-0.06-0.32c-0.17-0.15-0.73-1.6-1.09-2.1c-0.36-0.49-1.46-3.9,0.14-8.09c0,0,1.71,3.06,1.6,6.14c-0.11,3.08-0.25,2.36,0.48,4.92C178.34,44.37,178.73,45.07,178.65,45.15z"></path>
		<path class="unep_0" d="M173.88,37.67c-0.1,0.1-0.53-0.55-0.87-1.16c-0.34-0.61-2.69-3.23-3-3.75c-0.31-0.52-2.95-3.84-0.95-8.76c0,0,0.2-0.06,0.2,1.11s1.04,3.75,1.88,4.86c0.84,1.11,1.6,2.88,1.77,4.77c0,0,0.11,0.35,0.25,0.38c0.14,0.03,0.14-0.35,0.14-0.35s-0.11-1.75-0.11-2.94c0-1.19,0.51-3.23,1.6-4.39c0,0,0.51-0.58,0.81-1.28c0,0,0.2-0.47,0.48-0.7c0,0,0.22,3.35-0.87,6.46c-1.09,3.11-1.46,3.64-1.29,5.33C173.91,37.24,173.94,37.62,173.88,37.67z"></path>
		<path class="unep_0" d="M172.03,28.48c-0.11,0-0.2-0.41-0.25-0.73c-0.06-0.32-0.39-2.18-0.62-2.59c-0.22-0.41-1.07-2.27-1.09-4.45s0.93-5.15,3.06-7.51c0,0-0.08,0.7-0.65,2.24c-0.56,1.54-0.22,3-0.17,3.26c0.06,0.26,0.25,2.06,0.25,2.91c0,0.67-0.17,2.97-0.31,3.43c0,0-0.06,0.32,0.06,0.32c0.11,0,0.22-0.26,0.22-0.26s0.11-1.8,1.4-3.43c1.29-1.63,3.62-2.62,3.99-3.35c0,0-0.17,2.56-2.89,5.56c-2.42,2.67-1.71,1.31-2.5,3.49c0,0-0.34,0.81-0.34,0.99C172.2,28.54,172.03,28.48,172.03,28.48z"></path>
		<path class="unep_0" d="M173.51,19.86c0,0-0.06-0.35,0.36-1.13c0.42-0.79-0.03-2.18,0.53-4.22s1.6-5.53,5.56-7.62c0,0-0.39,0.38-0.59,0.67c-0.2,0.29-1.26,2.39-1.57,3.84c-0.31,1.46-1.66,3.9-2.16,4.45c-0.51,0.55-0.28,0.61-0.28,0.61s0.25-0.06,0.51-0.47c0.25-0.41,1.54-1.92,2.97-2.27c1.43-0.35,3.7-1.05,3.85-1.19c0,0-2.47,2.62-4.74,3.96c-2.27,1.34-2.53,0.93-3.87,2.74C174.08,19.22,173.63,19.86,173.51,19.86z"></path>
		<path class="unep_0" d="M178.96,12.09c0,0,0-0.23,0.42-0.64c0.42-0.41,0.84-1.63,1.57-2.76c0.73-1.13,2.39-4.1,6.68-4.8c0,0-1.29,0.99-1.49,1.31c-0.2,0.32-1.46,2.04-2.02,2.62c-0.56,0.58-2.16,1.8-2.69,2.07c0,0-0.28,0.23-0.22,0.32c0.06,0.09,0.34-0.09,0.34-0.09s1.49-1.19,3.28-1.25c1.8-0.06,3.68,0.03,3.96,0.06c0,0-1.68,1.19-5.7,1.95c-4.01,0.76-3.26,0.79-3.87,1.19C179.21,12.06,179.07,12.18,178.96,12.09z"></path>
		<path class="unep_0" d="M186.12,7.26c0,0,0.08-0.23,0.73-0.44c0.65-0.2,0.59-0.84,2.55-1.92c1.96-1.08,4.01-1.57,6.09-0.67c0,0-0.87,0.12-1.01,0.17c-0.14,0.06-1.63,0.47-2.05,0.7c-0.42,0.23-2.58,1.22-3.45,1.4c-0.87,0.17-0.45,0.23-0.45,0.23s0.2,0.09,0.36,0.09s2.1-0.2,3.37,0.26c1.26,0.47,1.23,0.64,1.74,0.81c0.51,0.17,1.09,0.29,1.18,0.49c0,0-1.26,0.12-2.02,0.12c-0.76,0-2.75-0.2-3.7-0.67c-0.95-0.47-2.05-0.67-2.41-0.58C186.68,7.35,186.23,7.35,186.12,7.26z"></path>
		<path class="unep_0" d="M194.09,6.24c0,0,0.08-0.12,0.65-0.23c0.56-0.12,0.7-0.47,2.02-0.76c1.32-0.29,3.37-0.55,5.25,0.79c0,0-1.15-0.03-1.4-0.03s-2.44,0.41-2.95,0.41c-0.51,0-1.52-0.23-1.66-0.06c-0.14,0.17,0.93,0.41,1.09,0.47c0.17,0.06,0.93,0.12,1.88,1.08c0.95,0.96,1.63,1.48,1.74,1.54c0,0-2.81-0.67-3.51-1.08c-0.7-0.41-1.91-1.66-2.1-1.75C194.9,6.53,194.09,6.24,194.09,6.24z"></path>
		<path class="unep_0" d="M200.57,7.44c0,0,1.77-0.06,3.06,0.79s2.33,1.95,2.44,2.62c0,0-0.73-0.64-1.21-0.79c-0.48-0.15-1.82-0.93-2.1-1.11C202.48,8.78,200.85,7.7,200.57,7.44z"></path>
		<path class="unep_0" d="M208.88,49.43c0,0,0.25-0.26,1.09-1.02c0.84-0.76,1.07-1.86,1.99-3.58c0.93-1.72,1.71-2.91,3.59-4.66c0,0-0.34,1.31-0.36,1.72c-0.03,0.41-0.34,2.68-1.4,3.99c-1.07,1.31-1.12,1.6-2.36,2.39c0,0-0.48,0.35-0.45,0.47c0.03,0.12,0.84-0.03,0.84-0.03s0.9-0.35,1.18-0.52c0.28-0.17,1.54-0.84,2.05-1.05c0.51-0.2,0.93-0.41,2.05-0.76c1.12-0.35,5.19-1.43,6.79-4.1c0,0-0.48,1.57-1.07,2.3c-0.59,0.73-3.93,5.3-8.56,5.21c0,0-1.82-0.15-2.78-0.32c-0.95-0.17-1.29-0.17-1.43-0.15C209.92,49.34,209.02,49.52,208.88,49.43z"></path>
		<path class="unep_0" d="M219.23,33.1c0,0-1.74,2.82-2.13,6.9s0.28,2.85-0.36,4.66c0,0-0.22,0.47-0.14,0.49c0.08,0.03,0.42-0.17,1.66-0.96c1.24-0.79,2.44-0.55,5.08-3.17c2.64-2.62,3.17-7.83,3.23-8.26c0,0-0.39,0.41-0.59,1.11c-0.2,0.7-0.62,1.25-0.7,1.34c-0.08,0.09-2.95,3.35-3.28,3.64c-0.34,0.29-2.02,2.42-2.39,3.03c-0.37,0.61-1.43,1.72-1.63,1.63c0,0,0.03-0.26,0.11-0.47c0.08-0.2,0.87-1.31,1.21-2.59c0.34-1.28,0.42-2.07,0.45-2.88C219.77,36.74,219.26,33.74,219.23,33.1z"></path>
		<path class="unep_0" d="M221.59,37.03c0,0-0.18-0.42-0.03-0.73c0.08-0.17,0.17-1.57-0.34-2.71c-0.51-1.13-1.6-4.28-1.52-6.37c0.08-2.1,0.31-2.39,0.31-2.39s0.56,1.72,0.73,2.01c0.17,0.29,1.85,3.38,1.71,5.06s-0.22,2.21-0.14,2.24c0.08,0.03,0.28-0.2,0.31-0.41c0.03-0.2,0.31-1.37,0.84-2.74c0.53-1.37,2.69-4.39,3.17-6.4c0,0,0.7,3.49-1.18,6.75c-1.88,3.26-2.08,2.53-2.86,4.02C221.82,36.86,221.7,37.03,221.59,37.03z"></path>
		<path class="unep_0" d="M223.3,27.81c-0.14-0.03-0.06-1.37-0.39-1.8c-0.34-0.44-3.23-3.99-3.85-7.54c0,0,1.82,1.92,2.13,2.12c0.31,0.2,1.54,1.48,1.91,2.59c0.36,1.11,0.28,2.04,0.42,2.07c0.14,0.03,0.14-1.22,0.14-1.22s0.03-2.44,0.22-3.61c0.2-1.16,0.7-3.11,0.48-4.1c0,0,1.09,1.8,1.04,4.37c-0.06,2.56-1.09,4.6-1.23,4.89c-0.14,0.29-0.53,1.54-0.53,1.8C223.64,27.63,223.3,27.81,223.3,27.81z"></path>
		<path class="unep_0" d="M219.88,9.59c0,0,3.79,2.33,3.2,10.13c0,0,0,0.35-0.22-0.03s-1.04-1.46-1.4-1.69c-0.36-0.23-3.73-2.36-5.16-5.62c0,0,0.22-0.06,0.56,0.26c0.34,0.32,1.38,0.87,1.54,0.96c0.17,0.09,1.35,0.41,2.22,1.4s1.18,1.72,1.43,2.3c0,0,0.25,0.2,0.08-0.38c-0.17-0.58-0.2-0.96-0.65-1.69c-0.45-0.73-0.84-2.04-0.9-2.94C220.53,11.39,220.27,10.06,219.88,9.59z"></path>
		<path class="unep_0" d="M219.23,12.33c0,0,0.08-0.52-0.28-1.25c-0.36-0.73-0.08-1.54-1.23-3.46c-0.65-1.08-2.89-1.92-2.89-1.92s0.65,0.93,1.07,1.46c0.42,0.52,0.56,0.9,0.7,1.16c0.14,0.26,0.92,1.04,1.21,1.48c0.06,0.09,0.17,0.32,0.17,0.47c0,0.15-0.31-0.09-0.39-0.17c-0.08-0.09-1.46-1.16-2.33-1.34c-0.87-0.17-2.53-0.35-2.98-0.58c0,0,1.96,1.83,4.1,2.39C218.5,11.1,219.23,12.33,219.23,12.33z"></path>
		<path class="unep_0" d="M214.8,7.52c0,0-1.96-2.76-5.47-2.71c0,0,0.2,0.2,0.59,0.29c0.39,0.09,1.09,0.81,1.46,1.05C211.74,6.39,212.5,6.97,214.8,7.52z"></path>
	</g>
</g>
</g>
</g>
</g>
</g>
</svg>

