<?xml version="1.0" encoding="utf-8"?>
<!-- Generator: Adobe Illustrator 25.4.1, SVG Export Plug-In . SVG Version: 6.00 Build 0)  -->
<svg version="1.1" id="Layer_1" xmlns="http://www.w3.org/2000/svg" xmlns:xlink="http://www.w3.org/1999/xlink" x="0px" y="0px" 
viewBox="0 0 226.77 59.45" fill="#FFFFFF" style="enable-background:new 0 0 226.77 59.45;" xml:space="preserve">
<style type="text/css">
	.st0{fill:#FFFFFF;}
	.st1{clip-path:url(#SVGID_00000147218394165835980550000002120341658632548523_);}
	.st2{opacity:0.4;}
	.st3{opacity:0.6;clip-path:url(#SVGID_00000147218394165835980550000002120341658632548523_);}
	.st4{opacity:0.5;fill:#FFFFFF;}
	.st5{opacity:0.6;clip-path:url(#SVGID_00000147218394165835980550000002120341658632548523_);fill:#FFFFFF;}
</style>
<g>
<g>
<g>
<g>
<g>
<g>
	<g>
		<path class="unep_0" d="M188.6,47.02c-7.15-2.16-12.36-8.8-12.36-16.65c0-1.42,0.17-2.8,0.49-4.12l11.29,1.45c0,0,4.34,0.19,4.17,7.87C192.04,43.02,188.6,47.02,188.6,47.02z"></path>
		<path class="unep_0" d="M198.69,47.02c7.15-2.16,12.36-8.8,12.36-16.65c0-1.42-0.17-2.8-0.49-4.12l-11.29,1.45c0,0-4.34,0.19-4.17,7.87C195.25,43.02,198.69,47.02,198.69,47.02z"></path>
		<path class="unep_0" d="M193.65,17.92c1.45,0,2.63,1.18,2.63,2.63c0,1.13-0.78,1.98-1.72,2.48c-0.12,0.06-0.22,0.11-0.2,0.29c0.02,0.19,0.56,0.29,0.8,0.34l15.18,1.76c-2.13-7.2-8.79-12.45-16.68-12.45h-0.02c-7.89,0-14.55,5.25-16.68,12.45l15.18-1.76c0.23-0.05,0.77-0.15,0.8-0.34c0.02-0.18-0.08-0.23-0.2-0.29c-0.94-0.5-1.72-1.35-1.72-2.48C191.01,19.1,192.19,17.92,193.65,17.92L193.65,17.92z"></path>
	</g>
	<g>
		<path class="unep_0" d="M200.58,59.33l1.03-0.64c0,0-4.88-6.62-15.8-6.62c-5.59,0-8.48,2.25-12.4,2.25c0,0-1.61,0.19-3.15-0.77c0,0,1.86,2.7,8.61,2.7c4.95,0,8.48-2.89,11.95-2.89C195.57,53.36,199.1,57.6,200.58,59.33z"></path>
	</g>
	<g>
		<path class="unep_0" d="M185.42,59.33l-1.03-0.64c0,0,4.88-6.62,15.8-6.62c5.59,0,8.48,2.25,12.4,2.25c0,0,1.61,0.19,3.15-0.77c0,0-1.86,2.7-8.61,2.7c-4.95,0-8.48-2.89-11.95-2.89C190.43,53.36,186.9,57.6,185.42,59.33z"></path>
	</g>
	<path class="unep_0" d="M180.22,51.5c-0.19,0.51-2.28-0.1-3.69,0.32c-1.58,0.47-9.92,1.48-13.58-7.19c0,0,3.47,3.73,6.17,3.98c2.7,0.26,5.65,0.9,8.16,2.31l0.58,0.13c0,0-0.08-0.26-0.32-0.39c-0.33-0.18-2.93-1.02-4.17-5.14c-0.64-2.12-0.51-3.66-0.77-4.75c0,0,2.83,3.15,3.98,5.14C177.72,47.9,177.85,50.15,180.22,51.5z"></path>
	<path class="unep_0" d="M171.71,47.13c-0.21,0.21-0.74-0.13-0.93-0.22c-0.19-0.1-1.58-0.73-3.95-1.57c-2.34-0.83-6.71-4.53-6.29-10.85c0,0,0.61,2.38,2.41,3.95c1.8,1.57,2.44,1.77,3.53,3.05c1.09,1.28,3.56,4.21,3.66,4.17c0.1-0.03,0.13-0.19-0.06-0.35c-0.19-0.16-0.83-1.77-1.25-2.31c-0.42-0.55-1.67-4.3,0.16-8.93c0,0,1.96,3.37,1.83,6.78c-0.13,3.4-0.29,2.6,0.55,5.43C171.36,46.26,171.81,47.04,171.71,47.13z"></path>
	<path class="unep_0" d="M166.25,38.88c-0.12,0.12-0.61-0.61-1-1.28c-0.39-0.67-3.08-3.56-3.44-4.14c-0.35-0.58-3.37-4.24-1.09-9.67c0,0,0.22-0.06,0.22,1.22s1.19,4.14,2.15,5.36c0.96,1.22,1.83,3.18,2.02,5.27c0,0,0.13,0.39,0.29,0.42c0.16,0.03,0.16-0.39,0.16-0.39s-0.13-1.93-0.13-3.24c0-1.32,0.58-3.56,1.83-4.85c0,0,0.58-0.64,0.93-1.41c0,0,0.22-0.51,0.55-0.77c0,0,0.26,3.69-1,7.13c-1.25,3.44-1.67,4.01-1.48,5.88C166.29,38.4,166.32,38.81,166.25,38.88z"></path>
	<path class="unep_0" d="M164.13,28.73c-0.13,0-0.22-0.45-0.29-0.8c-0.06-0.35-0.45-2.41-0.71-2.86c-0.26-0.45-1.22-2.5-1.25-4.91s1.06-5.68,3.5-8.29c0,0-0.1,0.77-0.74,2.47c-0.64,1.7-0.26,3.31-0.19,3.6c0.06,0.29,0.29,2.28,0.29,3.21c0,0.74-0.19,3.28-0.35,3.79c0,0-0.06,0.35,0.06,0.35c0.13,0,0.26-0.29,0.26-0.29s0.13-1.99,1.61-3.79c1.48-1.8,4.14-2.89,4.56-3.69c0,0-0.19,2.83-3.31,6.13c-2.77,2.95-1.96,1.45-2.86,3.85c0,0-0.39,0.9-0.39,1.09C164.33,28.8,164.13,28.73,164.13,28.73z"></path>
	<path class="unep_0" d="M165.84,19.23c0,0-0.06-0.39,0.42-1.25c0.48-0.87-0.03-2.41,0.61-4.66c0.64-2.25,1.83-6.1,6.36-8.41c0,0-0.45,0.42-0.67,0.74c-0.22,0.32-1.45,2.63-1.8,4.24c-0.35,1.61-1.89,4.3-2.47,4.91c-0.58,0.61-0.32,0.67-0.32,0.67s0.29-0.06,0.58-0.51c0.29-0.45,1.77-2.12,3.4-2.5c1.64-0.39,4.24-1.16,4.4-1.32c0,0-2.83,2.89-5.43,4.37c-2.6,1.48-2.89,1.03-4.43,3.02C166.48,18.52,165.96,19.23,165.84,19.23z"></path>
	<path class="unep_0" d="M172.07,10.65c0,0,0-0.26,0.48-0.71c0.48-0.45,0.96-1.8,1.8-3.05c0.84-1.25,2.73-4.53,7.64-5.3c0,0-1.48,1.09-1.7,1.45c-0.22,0.35-1.67,2.25-2.31,2.89s-2.47,1.99-3.08,2.28c0,0-0.32,0.26-0.26,0.35c0.06,0.1,0.39-0.1,0.39-0.1s1.7-1.32,3.76-1.38c2.06-0.06,4.21,0.03,4.53,0.06c0,0-1.93,1.32-6.52,2.15c-4.59,0.84-3.73,0.87-4.43,1.32C172.35,10.62,172.19,10.75,172.07,10.65z"></path>
	<path class="unep_0" d="M180.25,5.32c0,0,0.1-0.26,0.83-0.48c0.74-0.22,0.67-0.93,2.92-2.12c2.25-1.19,4.59-1.73,6.97-0.74c0,0-1,0.13-1.16,0.19c-0.16,0.06-1.86,0.51-2.34,0.77c-0.48,0.26-2.95,1.35-3.95,1.54c-1,0.19-0.51,0.26-0.51,0.26s0.22,0.1,0.42,0.1s2.41-0.22,3.85,0.29c1.45,0.51,1.41,0.71,1.99,0.9c0.58,0.19,1.25,0.32,1.35,0.55c0,0-1.45,0.13-2.31,0.13c-0.87,0-3.15-0.22-4.24-0.74c-1.09-0.51-2.34-0.74-2.76-0.64C180.9,5.42,180.38,5.42,180.25,5.32z"></path>
	<path class="unep_0" d="M189.37,4.2c0,0,0.1-0.13,0.74-0.26c0.64-0.13,0.8-0.51,2.31-0.83s3.85-0.61,6.01,0.87c0,0-1.32-0.03-1.61-0.03s-2.79,0.45-3.37,0.45c-0.58,0-1.73-0.26-1.89-0.06c-0.16,0.19,1.06,0.45,1.25,0.51c0.19,0.06,1.06,0.13,2.15,1.19c1.09,1.06,1.86,1.64,1.99,1.7c0,0-3.21-0.74-4.01-1.19c-0.8-0.45-2.18-1.83-2.41-1.93C190.31,4.52,189.37,4.2,189.37,4.2z"></path>
	<path class="unep_0" d="M196.79,5.51c0,0,2.02-0.06,3.5,0.87s2.67,2.15,2.79,2.89c0,0-0.84-0.71-1.38-0.87c-0.55-0.16-2.09-1.03-2.41-1.22C198.98,6.99,197.11,5.8,196.79,5.51z"></path>
	<path class="unep_0" d="M206.3,51.85c0,0,0.29-0.29,1.25-1.12c0.96-0.84,1.22-2.06,2.28-3.95c1.06-1.89,1.96-3.21,4.11-5.14c0,0-0.39,1.45-0.42,1.89c-0.03,0.45-0.39,2.95-1.61,4.4c-1.22,1.45-1.28,1.77-2.7,2.63c0,0-0.55,0.39-0.51,0.51c0.03,0.13,0.96-0.03,0.96-0.03s1.03-0.39,1.35-0.58c0.32-0.19,1.77-0.93,2.34-1.16c0.58-0.22,1.06-0.45,2.34-0.84c1.28-0.39,5.94-1.57,7.77-4.53c0,0-0.55,1.73-1.22,2.54c-0.67,0.8-4.5,5.84-9.79,5.75c0,0-2.09-0.16-3.18-0.35c-1.09-0.19-1.48-0.19-1.64-0.16C207.49,51.76,206.46,51.95,206.3,51.85z"></path>
	<path class="unep_0" d="M218.15,33.84c0,0-1.99,3.11-2.44,7.61s0.32,3.15-0.42,5.14c0,0-0.26,0.51-0.16,0.55c0.1,0.03,0.48-0.19,1.89-1.06c1.41-0.87,2.79-0.61,5.81-3.5c3.02-2.89,3.63-8.64,3.69-9.12c0,0-0.45,0.45-0.67,1.22c-0.22,0.77-0.71,1.38-0.8,1.48c-0.1,0.1-3.37,3.69-3.76,4.01c-0.39,0.32-2.31,2.67-2.73,3.34c-0.42,0.67-1.64,1.89-1.86,1.8c0,0,0.03-0.29,0.13-0.51c0.1-0.22,1-1.45,1.38-2.86c0.39-1.41,0.48-2.28,0.51-3.18C218.76,37.85,218.18,34.54,218.15,33.84z"></path>
	<path class="unep_0" d="M220.84,38.17c0,0-0.2-0.47-0.03-0.8c0.1-0.19,0.19-1.73-0.39-2.99c-0.58-1.25-1.83-4.72-1.73-7.03c0.1-2.31,0.35-2.63,0.35-2.63s0.64,1.89,0.83,2.22s2.12,3.73,1.96,5.59c-0.16,1.86-0.26,2.44-0.16,2.47c0.1,0.03,0.32-0.22,0.35-0.45c0.03-0.22,0.35-1.51,0.96-3.02c0.61-1.51,3.08-4.85,3.63-7.06c0,0,0.8,3.85-1.35,7.45c-2.15,3.6-2.38,2.79-3.28,4.43C221.1,37.98,220.97,38.17,220.84,38.17z"></path>
	<path class="unep_0" d="M222.8,27.99c-0.16-0.03-0.06-1.51-0.45-1.99c-0.39-0.48-3.69-4.4-4.4-8.32c0,0,2.09,2.12,2.44,2.34c0.35,0.22,1.77,1.64,2.18,2.86c0.42,1.22,0.32,2.25,0.48,2.28c0.16,0.03,0.16-1.35,0.16-1.35s0.03-2.7,0.26-3.98c0.22-1.28,0.8-3.44,0.55-4.53c0,0,1.25,1.99,1.19,4.82c-0.06,2.83-1.25,5.07-1.41,5.39c-0.16,0.32-0.61,1.7-0.61,1.99C223.19,27.8,222.8,27.99,222.8,27.99z"></path>
	<path class="unep_0" d="M218.89,7.89c0,0,4.34,2.57,3.66,11.18c0,0,0,0.39-0.26-0.03c-0.26-0.42-1.19-1.61-1.61-1.86c-0.42-0.26-4.27-2.6-5.91-6.2c0,0,0.26-0.06,0.64,0.29c0.39,0.35,1.57,0.96,1.77,1.06c0.19,0.1,1.54,0.45,2.54,1.54s1.35,1.89,1.64,2.54c0,0,0.29,0.22,0.1-0.42c-0.19-0.64-0.22-1.06-0.74-1.86c-0.51-0.8-0.96-2.25-1.03-3.24C219.62,9.88,219.34,8.4,218.89,7.89z"></path>
	<path class="unep_0" d="M218.15,10.91c0,0,0.1-0.58-0.32-1.38c-0.42-0.8-0.09-1.7-1.41-3.82c-0.74-1.19-3.31-2.12-3.31-2.12s0.74,1.03,1.22,1.61c0.48,0.58,0.64,1,0.8,1.28c0.16,0.29,1.05,1.15,1.38,1.64c0.06,0.1,0.19,0.35,0.19,0.51s-0.35-0.1-0.45-0.19c-0.1-0.1-1.67-1.28-2.67-1.48c-1-0.19-2.89-0.39-3.4-0.64c0,0,2.25,2.02,4.69,2.63C217.31,9.56,218.15,10.91,218.15,10.91z"></path>
	<path class="unep_0" d="M213.07,5.61c0,0-2.25-3.05-6.26-2.99c0,0,0.22,0.22,0.67,0.32c0.45,0.1,1.25,0.9,1.67,1.16C209.57,4.36,210.44,5,213.07,5.61z"></path>
</g>
</g>
</g>
</g>
</g>
<g>
<g>
	<g>
		<path class="unep_0" d="M79.53,16.7c1.21,3.63,3.57,6.67,7.11,8.06c-0.8,0.68-1.83,1.98-2.33,2.92c-2.74-1.33-4.75-3.57-6.2-6.37c-1.09,2.39-3.01,4.75-6.08,6.73c-0.56-0.77-1.68-1.83-2.6-2.45v2.12h-2.98v-5.08c-2.57,0.47-5.02,0.89-7.08,1.27l-0.68-3.28l1.62-0.21V4.4h-1.27V1.27H70.5V4.4h-1.06V19l2.04-0.32l0.24,3.01l-2.27,0.41v3.42c4.43-2.57,5.93-5.9,6.49-8.82h-5.16v-3.19h5.43v-0.33V9.41h-4.9V6.23h3.19c-0.53-1.27-1.62-3.01-2.69-4.28l2.8-1.33c1.18,1.3,2.42,3.04,2.95,4.31l-2.48,1.3h3.39c0.91-1.56,1.98-3.87,2.54-5.58l3.54,0.91c-0.83,1.59-1.74,3.3-2.6,4.66h3.36v3.19h-5.55v3.81v0.3h6.4v3.19H79.53z M63.42,4.4v3.1h3.04V4.4H63.42z M63.42,13.49h3.04v-3.13h-3.04V13.49z M66.46,19.48v-3.13h-3.04v3.6L66.46,19.48z"></path>
		<path class="unep_0" d="M105.44,1.62c-0.32,0.44-0.65,0.89-0.97,1.3c3.78,3.51,7.7,5.52,11.69,6.96c-0.91,0.83-1.95,2.12-2.42,3.22c-1.42-0.68-2.86-1.39-4.25-2.18v1.92H94.73v-1.45c-1.3,0.8-2.63,1.53-3.95,2.15c-0.56-1-1.59-2.33-2.57-3.22C93.64,8.17,99.21,4.6,102.31,0L105.44,1.62z M92.81,15.37h19.03v12.19h-3.75v-1.18H96.41v1.3h-3.6V15.37z M96.41,18.47v4.66h11.69v-4.66H96.41z M107.45,9.62c-1.68-1.15-3.39-2.51-5.13-4.22c-1.5,1.56-3.13,2.95-4.87,4.22H107.45z"></path>
		<path class="unep_0" d="M143.92,1.3v26.41h-3.75v-1.48H122.7v1.48h-3.57V1.3H143.92z M140.17,22.99V4.51H122.7v18.47H140.17z M139.14,18.41v2.86h-15.29v-2.86h5.93v-3.48h-4.87v-2.95h4.87V9.21h-5.61V6.14h14.49v3.07h-5.64v2.77h4.99v2.95h-1.62c0.8,0.83,1.74,1.92,2.21,2.63l-1.53,0.86H139.14z M133.03,18.41h2.95c-0.5-0.8-1.33-1.8-2.01-2.57l1.8-0.91h-2.74V18.41z"></path>
	</g>
</g>
<g>
	<g>
		<path class="unep_0" d="M8.5,51.21l0.32,1.77c-2.86,1.09-5.96,2.21-8.32,3.07L0,54.22c1.03-0.32,2.27-0.77,3.66-1.27v-8.11h-3.1v-1.83h3.1v-6.67H0.09v-1.8h8.68v1.8H5.49v6.67h2.66v1.83H5.49v7.47L8.5,51.21z M26.47,34.42v1.89H20.1c-0.47,1.3-0.97,2.57-1.56,3.78v19.15h-1.92V43.66c-1.68,2.74-3.63,5.13-5.78,6.99c-0.32-0.41-1.06-1.12-1.53-1.5c3.78-2.95,6.79-7.61,8.71-12.84h-7.64v-1.89H26.47z M20.18,41.39c2.21,2.42,4.93,5.7,6.2,7.73l-1.59,1.21c-1.21-2.07-3.87-5.46-6.05-7.91L20.18,41.39z"></path>
		<path class="unep_0" d="M38.63,51.98c-2.95,1.18-6.11,2.42-8.56,3.36l-0.62-1.98c1.03-0.32,2.33-0.8,3.75-1.3V41.5h-3.3v-1.86h3.3V32.8h1.89v6.85h2.92v1.86h-2.92v9.88l3.19-1.18L38.63,51.98z M52.88,57.41c0.41,0,0.92-0.03,1.09-0.12c0.24-0.06,0.44-0.29,0.53-0.65c0.09-0.41,0.12-1.36,0.15-2.57c0.38,0.35,1.06,0.71,1.59,0.86c-0.06,1.18-0.18,2.42-0.35,2.89c-0.21,0.44-0.56,0.74-1.06,0.91c-0.41,0.12-1.21,0.21-1.8,0.21h-1.98c-0.68,0-1.53-0.12-1.98-0.47c-0.5-0.3-0.71-0.77-0.71-2.3v-4.49h-2.74c-0.47,4.31-2.01,6.49-7.35,7.76c-0.18-0.47-0.68-1.21-1.06-1.53c4.87-1,6.17-2.69,6.55-6.23H40.6v-8.29h13.28v8.29H50.2v4.69c0,0.5,0.06,0.8,0.3,0.89c0.18,0.12,0.47,0.15,0.86,0.15H52.88z M55.48,41.74H39.13v-1.68h4.28c-0.21-0.8-0.59-2.04-1-3.01l1.62-0.32c0.41,0.91,0.91,2.18,1.09,2.95l-1.36,0.38h5.28c0.47-1,1-2.36,1.3-3.27l1.83,0.44c-0.44,0.97-0.91,2.01-1.33,2.83h4.63V41.74z M54.71,36.37h-14.7v-1.65h6.46c-0.24-0.68-0.56-1.42-0.86-2.07l1.83-0.33c0.35,0.71,0.77,1.65,1.03,2.39h6.23V36.37z M42.41,46.82H52v-2.04h-9.59V46.82z M42.41,50.27H52v-2.1h-9.59V50.27z"></path>
		<path class="unep_0" d="M69.17,55.05c-0.71-1.15-2.51-3.51-3.81-5.13c-0.68,3.31-2.1,6.61-4.99,9.12c-0.27-0.41-0.91-1.06-1.39-1.36c3.72-3.01,4.72-7.58,4.99-11.6h-4.81v-1.89h4.9c0.03-0.62,0.03-1.27,0.03-1.86v-3.07h-4.28v-1.83h4.28v-4.66h1.89v4.66h4.1v1.83h-4.1v3.07c0,0.59,0,1.24-0.03,1.86h4.46v1.89h-4.54c-0.03,0.59-0.09,1.18-0.18,1.8c1.15,1.24,4.13,4.78,4.84,5.7L69.17,55.05z M83.07,57.14c0.94,0,1.12-0.74,1.24-4.9c0.5,0.35,1.15,0.65,1.62,0.74c-0.24,4.6-0.53,5.72-2.86,5.72h-2.45c-1.8,0-2.54-0.5-2.54-2.33v-6.32c-1.03,3.42-3.36,6.79-8.11,9.27c-0.24-0.41-0.86-1.15-1.21-1.42c7.38-3.78,8.32-9.27,8.32-13.81v-5.78h1.83v5.81c0,1.42-0.12,2.95-0.44,4.49h1.39v7.55c0,0.8,0.24,0.97,1,0.97H83.07z M73.77,49.53h-1.89V33.92h12.19v15.61h-1.95V35.66h-8.35V49.53z"></path>
		<path class="unep_0" d="M95.49,42.3c0.38,2.89,0.97,5.52,1.62,7.7c1.62-2.04,2.98-4.4,3.98-6.93l1.86,0.59c-1.33,3.16-3.07,5.99-5.13,8.47c1.21,3.22,2.6,5.19,3.9,5.19c0.74,0,1.09-1.33,1.27-4.78c0.41,0.44,1.12,0.89,1.65,1.06c-0.38,4.34-1.12,5.67-3.04,5.67c-2.01,0-3.81-2.12-5.22-5.55c-1.95,1.98-4.13,3.66-6.43,5.02c-0.3-0.41-0.97-1.18-1.39-1.56c2.63-1.39,5.02-3.22,7.05-5.43c-0.86-2.6-1.56-5.75-2.04-9.21l-4.9,0.56l-0.18-1.83l4.84-0.53c-0.3-2.66-0.5-5.43-0.53-8.23h2.01c0,2.77,0.18,5.46,0.44,8l9.41-1.09l0.21,1.83L95.49,42.3z M100.75,38.41c-0.86-1.15-2.69-2.92-4.25-4.16l1.33-1.06c1.56,1.18,3.42,2.89,4.31,4.04L100.75,38.41z M108.39,51.8h-1.89V35.72h1.89V51.8z M114.08,32.77v23.9c0,1.39-0.35,1.92-1.21,2.27c-0.86,0.33-2.3,0.38-4.87,0.38c-0.09-0.53-0.38-1.39-0.65-1.95c1.89,0.06,3.6,0.06,4.1,0.03c0.5-0.03,0.71-0.18,0.71-0.71V32.77H114.08z"></path>
		<path class="unep_0" d="M134.83,47.41c-1.48,0.77-3.01,1.48-4.57,2.12h11.6v9.71h-1.89v-0.91h-13.34v0.97h-1.86v-7.73c-1.95,0.59-3.87,1.15-5.81,1.65c-0.18-0.41-0.68-1.27-0.97-1.68c4.4-0.97,8.91-2.36,12.92-4.13h-12.33v-1.62h11.15v-2.36h-8.26v-1.59h8.26v-2.15h1.89v2.15h6.76v1.42c1.12-0.77,2.15-1.62,3.04-2.51l1.53,0.97c-1.53,1.48-3.33,2.83-5.31,4.07h6.99v1.62H134.83z M143.06,39.65h-22.78v-5.99h22.78V39.65z M127.1,35.13h-4.96v3.01h4.96V35.13z M139.96,51.04h-13.34v2.1h13.34V51.04z M139.96,56.79v-2.27h-13.34v2.27H139.96z M134.06,35.13h-5.13v3.01h5.13V35.13z M134.24,45.78c1.39-0.74,2.68-1.53,3.89-2.36h-6.52v2.36H134.24z M141.12,35.13h-5.22v3.01h5.22V35.13z"></path>
	</g>
</g>
</g>
</g>
</svg>