<?xml version="1.0" encoding="utf-8"?>
<!-- Generator: Adobe Illustrator 25.4.1, SVG Export Plug-In . SVG Version: 6.00 Build 0)  -->
<svg version="1.1" id="Layer_1" xmlns="http://www.w3.org/2000/svg" xmlns:xlink="http://www.w3.org/1999/xlink" x="0px" y="0px"
	 viewBox="0 0 300 200" fill="#FFFFFF" style="enable-background:new 0 0 111.7 46.2;" xml:space="preserve">
<style type="text/css">
	.st0{fill:#FFFFFF;}
	.st1{clip-path:url(#SVGID_00000129885051094791686230000001641442207134524819_);}
	.st2{opacity:0.4;}
	.st3{opacity:0.6;clip-path:url(#SVGID_00000129885051094791686230000001641442207134524819_);}
	.st4{opacity:0.5;fill:#FFFFFF;}
	.st5{opacity:0.6;clip-path:url(#SVGID_00000129885051094791686230000001641442207134524819_);fill:#FFFFFF;}
</style>
<title>United Nations Environmetal Programme</title> 
<g>
	<path d="M279.55,169.94a1.75,1.75,0,0,1-2-1.92c-.05-4.23,0-8.46,0-12.83h4.07V150h-4.18v-5.9h-6.71v6h-3.58v5h3.6V157c0,4,0,8,0,12,0,3.41,1.58,5.46,4.81,6.43a1.82,1.82,0,0,1,.45.29h6.17v-5.58A25.24,25.24,0,0,0,279.55,169.94Z"/>
	<path d="M201.87,150c-1.84.52-3.46,1.82-5.23,2.79-3.23-4.15-7.58-4.38-13.35-.44-.18-.75-.35-1.49-.5-2.14h-6.17v24.91h6.72v-1.79c0-4.93.07-9.87,0-14.8a2.9,2.9,0,0,1,1.78-2.78c3.26-1.67,5.91-.07,5.93,3.6,0,4.74,0,9.48,0,14.22V175h6.72c0-5.36,0-10.59,0-15.81a3.93,3.93,0,0,1,4.25-4c2.44,0,3.48,1.1,3.51,3.83,0,4.78,0,9.56,0,14.34v1.75h6.81c0-6,.24-11.81-.06-17.6C212,150,206.3,148.76,201.87,150Z"/>
	<path d="M264.19,156a7.08,7.08,0,0,0-7-6.41,10,10,0,0,0-6.82,2.18c-.29.21-.59.4-1,.68l-.16-2.26h-6.26V175.1h6.63v-1.65c0-4.79.11-9.58,0-14.36-.08-2.69,2-3.78,4.31-3.9s3.73,1.19,3.78,3.64c.06,3.51,0,7,0,10.53v5.74h6.84v-1.66c0-4.39,0-8.79,0-13.18A33.28,33.28,0,0,0,264.19,156Z"/>
	<path d="M98.26,140.2a3.51,3.51,0,0,0-3.74,3.61c0,2.06,1.6,3.46,3.89,3.44a3.47,3.47,0,0,0,3.75-3.58A3.64,3.64,0,0,0,98.26,140.2Z"/>
	<path d="M161.25,150c-1.59.38-3,1.44-4.64,2.24-.07-.57-.17-1.27-.27-2.07h-6.22v24.9h6.68c0-5.44.06-10.75,0-16.07a3.2,3.2,0,0,1,1.72-3.09c2.59-1.59,6.64-.56,6.38,3.17s0,7.71,0,11.57v4.45h6.64c.08-.15.17-.23.17-.31,0-5.76.23-11.54-.06-17.28C171.24,150.67,166.54,148.72,161.25,150Z"/>
	<path d="M55.13,150.09a28.36,28.36,0,0,0-4.34,2.17l-.36-2H44.35v24.89h6.7c0-.65,0-1.22,0-1.79,0-4.89,0-9.77,0-14.66a3.31,3.31,0,0,1,.44-1.77A4.92,4.92,0,0,1,57,155.48c1.42.46,2,1.61,2,3.81v15.82h6.73c0-6,.14-11.8,0-17.61C65.5,150.34,60,148.61,55.13,150.09Z"/>
	<path d="M117.55,149.93a15.34,15.34,0,0,0-3,1.76,10.18,10.18,0,0,0-.88.76c-.14-2.27-.14-2.3-2.28-2.38-1.36-.06-2.72,0-4.21,0v25h6.71v-14.3c0-3,1.33-4.34,4.32-4.45,1,0,1.92,0,3,0v-3.76C121.27,149.54,120.5,148.94,117.55,149.93Z"/>
	<path d="M80.22,166.4c-.26-.7-.46-1.12-.58-1.56-1.22-4.36-2.45-8.72-3.6-13.1-.28-1.07-.61-1.69-1.88-1.62-1.8.11-3.6,0-5.64,0,.16.61.24,1,.37,1.35,2.13,6.32,4.25,12.64,6.41,18.95.53,1.56.73,3.68,1.84,4.46s3.2.2,4.86.29a1.59,1.59,0,0,0,1.87-1.31c1.61-5,3.32-9.89,5-14.83,1-2.9,1.92-5.8,2.93-8.85h-7.1C83.19,155.62,81.75,160.87,80.22,166.4Z"/>
	<path d="M95.05,175.11h6.56V150.2H95.05Z"/>
	<path d="M281,73.74c-2,4.17-5,7.83-6,12.47,0,0-.15,0-.23,0,.26-7.42-1.19-6.63-4.09-13.93a15.3,15.3,0,0,0-.17,7.57c.68,4,3.48,7.44,2.65,12.13,2.29-3.08,4.47-5.64,6.2-8.48,1.23-2,1.84-4.44,2.73-6.68V72.16A11.19,11.19,0,0,0,281,73.74Z"/>
	<path d="M162.86,121.74a11.26,11.26,0,0,0,1.14-.11V38.25H146.75V92.72c-.59-.9-1-1.48-1.38-2.09Q129.68,64.88,114,39.11a1.73,1.73,0,0,0-1.72-1c-5.09,0-10.18,0-15.27,0-.28,0-.56,0-.86.08v83.44h17.14v-54l.32-.13c.31.48.62,1,.92,1.43q15.69,25.74,31.35,51.5a2.21,2.21,0,0,0,2.16,1.3C153,121.7,157.92,121.74,162.86,121.74Z"/>
	<path d="M18.19,97.77c1.41,11.45,7.48,19.26,18.43,23.07a42.1,42.1,0,0,0,21.56,1.34c5.87-1,11.26-3.28,15.6-7.53,5.9-5.78,8.25-13,8.26-21.08q0-26.91,0-53.82c0-.52-.05-1-.07-1.53H64.66V40c0,15.69,0,31.39,0,47.08a92.58,92.58,0,0,1-.4,10.67c-.61,5.12-3.34,8.92-8.49,10.26a26.83,26.83,0,0,1-8.09.75c-6.34-.31-10.66-4.18-11.87-10.39a30.58,30.58,0,0,1-.55-5.81q-.06-26.32,0-52.65v-1.7H17.89V40q0,26.18,0,52.35A44.46,44.46,0,0,0,18.19,97.77Z"/>
	<path d="M232.9,55c-13.86.44-22,11-23.57,18.35l23.24-2.74,0-.47c-.53-.5-1.07-1-1.58-1.49a3.45,3.45,0,0,1,0-5.18,3.74,3.74,0,0,1,5.27,0,3.43,3.43,0,0,1-.07,5.18c-.51.48-1,.94-1.56,1.41l.1.51,23.27,2.75A25.27,25.27,0,0,0,232.9,55Z"/>
	<path d="M258.45,74.49c-.89.06-1.71.08-2.53.18-4.11.52-8.21,1.16-12.33,1.57s-6.34,1.94-7.24,6c-1.65,7.46-.22,14.48,3.51,21.11a1.89,1.89,0,0,0,2.77,1C254.5,100,261.17,87.59,258.45,74.49Z"/>
	<path d="M225.33,104.57A1.12,1.12,0,0,0,227,104a60.3,60.3,0,0,0,3.28-7.31c1.51-5,2.07-10.05.47-15.13a6.88,6.88,0,0,0-6.49-5.24c-2-.15-4.06-.52-6.1-.77l-9.28-1.11a24.86,24.86,0,0,0-.41,9.83C210.18,94.23,215.87,101,225.33,104.57Z"/>
	<path d="M261.37,115.3a31.84,31.84,0,0,1-7-1.27,36.46,36.46,0,0,0-20.92-.68,3.2,3.2,0,0,1-1.41,0,36.45,36.45,0,0,0-20.64.65c-3.71,1.27-7.54,2.12-11.67.62a3.79,3.79,0,0,0,.44.53,10.31,10.31,0,0,0,1,.68c4.48,2.69,9.4,2.94,14.33,2.16,2.86-.46,5.59-1.68,8.39-2.52a24.71,24.71,0,0,1,4.65-1.22c1.06-.11,2.26.8,3.28.61a5.81,5.81,0,0,1,4.73,1.46,59,59,0,0,1,6.26,5.46c1,1,1.61,1.1,2.57,0-2.69-3.45-6.43-5.5-10.21-7.58a5.73,5.73,0,0,1,2.19,0,67.13,67.13,0,0,1,6.55,2,27.06,27.06,0,0,0,14.8,1.61,12.64,12.64,0,0,0,7-3.15A19.25,19.25,0,0,1,261.37,115.3Z"/>
	<path d="M213.73,111.5s.05-.07,0,0Z"/>
	<path d="M200.35,111.78c4.47,1.22,8.84-.21,13.26-.27-1.1-1.59-2.41-3-3.06-4.58a33.54,33.54,0,0,0-6.1-9.57l-1.61-1.84c.47,5.66,1.18,10.69,5.62,13.85-2.67-.64-5.55-1.49-8.49-2a15.35,15.35,0,0,1-8.09-3.41c-.89-.8-1.83-1.56-2.84-2.42a1.79,1.79,0,0,0,.05.56A16.86,16.86,0,0,0,200.35,111.78Z"/>
	<path d="M213.73,111.5h-.12l.06.07Z"/>
	<path d="M196.87,100A51,51,0,0,0,192.31,95c-2.73-2.29-5.63-4.36-6.77-8l-.44.19a31.05,31.05,0,0,0,.34,3.61,16,16,0,0,0,5.69,9.61c3,2.44,6.86,3,10.4,4.58-1.45-3.28-1.28-6.6-1.2-10a18.16,18.16,0,0,0-2.65-9.2,16.57,16.57,0,0,0,.77,15.63A9.41,9.41,0,0,1,196.87,100Z"/>
	<path d="M269.16,85.76a26.6,26.6,0,0,0-2.5,6.55c-.73,4.15-1.05,8.37-1.55,12.7a34.92,34.92,0,0,1,4.12-2.16c7.06-2.56,10.71-7.81,12-14.95.16-.86.22-1.74.36-3-3.47,6.9-9.79,10.89-13.5,17,.68-2.76,1.65-5.35,2.11-8S269.94,88.45,269.16,85.76Z"/>
	<path d="M264.41,112c5.38-1.39,9.19-5,12.06-9.57a10.07,10.07,0,0,0,.68-1.62c-2.88,3.09-6.55,4.47-10.34,5.73-2.63.87-5.14,2.07-7.71,3.12-.88.36-1.78.7-2.67,1,5.64-6.12,5.64-6.12,6.8-13.89-.59.54-1.07.94-1.5,1.38a34,34,0,0,0-5.92,8.83,25.09,25.09,0,0,1-2.68,3.77c-.21.26-.66.34-1,.51a43,43,0,0,0,6.61.92A19.42,19.42,0,0,0,264.41,112Z"/>
	<path d="M193.19,92.8c.64-2.39,1.2-4.59,1.83-6.77.55-1.91,1.3-3.78,1.77-5.71a19.4,19.4,0,0,0,.45-6.95c-3.86,4.21-6,8.91-4.44,14.74l-.49-.07c-.09-.16-.25-.31-.27-.48-.43-3.13-2.09-5.7-3.6-8.39a39,39,0,0,1-2.37-6.36c-.21-.59-.33-1.22-.57-2.15-1.54,4-2.06,7.79-.13,11.15C187.62,85.71,190.58,89.2,193.19,92.8Z"/>
	<path d="M190.35,77.79c0,.06.15.09.4.23a9.54,9.54,0,0,0,.61-1.41,9.32,9.32,0,0,1,2.73-4.39,30.63,30.63,0,0,0,4.19-5A36.54,36.54,0,0,0,200.66,62l-.37-.17c-3.4,2.57-7.6,4.36-8.77,9.15a6.5,6.5,0,0,1-.14-1.47,63,63,0,0,0-.35-7.29,12.14,12.14,0,0,1,.61-6c.29-.81.51-1.66.76-2.49-3.44,3.44-5.7,7.54-5,12.4C187.9,70.08,189.32,73.91,190.35,77.79Z"/>
	<path d="M193.78,63.41a13.13,13.13,0,0,1,5-3.73c3.59-1.63,6.53-4.21,9.58-7.19-6.62,1.5-7,1.67-10.74,4.42l5.59-13.44a15.12,15.12,0,0,0-7.55,8.72C194.45,56,193.83,60,193,63.88l.34.24A6.71,6.71,0,0,1,193.78,63.41Z"/>
	<path d="M210.49,49.44c4.72-1.06,6.89-1.92,7.77-3.27l-9,.55c.64-.76,1.91-2.24,3.16-3.73s2.49-3,3.77-4.5a5.16,5.16,0,0,0-.78.08c-5.62,1.28-11.2,6.89-12.79,12.61C205.1,50.63,207.8,50.05,210.49,49.44Z"/>
	<path d="M269.46,62.19l-.5.27c.89,2,1.78,4.06,2.69,6.08,1.32,2.93,4.35,4.89,4.59,8.62,3.88-6.78,4.66-15.07,1.85-18.4-.54,4.2-1.07,8.37-1.6,12.54C275.89,66.83,272.05,65,269.46,62.19Z"/>
	<path d="M273.93,58.75c-2-3.86-6.08-4.55-9.42-6.44A12,12,0,0,0,266,54.73c3.19,3.15,6.46,6.23,9.92,9.53.37-6.35-.24-12-5.09-16.65.38,2.14.57,4.08,1.09,5.93A54.88,54.88,0,0,0,273.93,58.75Z"/>
	<path d="M220.76,45.22a20.47,20.47,0,0,0,8.48.44c-3.36-1.76-6.52-3.1-10.21-2.49l0-.42,10.62-4.07a27.52,27.52,0,0,0-3-.51c-5.09-.27-8.69,2.72-12.11,5.44C216.5,44.13,218.64,44.64,220.76,45.22Z"/>
	<path d="M232.47,45.53a36.29,36.29,0,0,0,5.52,1.9l.26-.53-6-4.31,8.37-.84c-4.61-2.68-8.8-1.53-13,.28A38,38,0,0,0,232.47,45.53Z"/>
	<path d="M266.67,48.1a23.1,23.1,0,0,0-2.58-1.42,16.34,16.34,0,0,0-2.93-.83c-1-.19-1.92-.24-3-.37,3.08,3.6,8.06,3.27,11.43,6.55-1.16-4.69-1.77-9.3-7.45-10.59l4.65,6.48Z"/>
	<path d="M230.52,114.83a3.12,3.12,0,0,0-1.25.1,26.39,26.39,0,0,0-9.23,6.88l1.26.84Z"/>
	<path d="M238.05,44.36l9.31,5.27C246.54,46.74,241.44,43.44,238.05,44.36Z"/>
	<path d="M252.89,39.8c3,2,5.48,4.12,9.2,4.36A12.42,12.42,0,0,0,252.89,39.8Z"/>
	<path d="M239.21,160.18c-.38-4.49-2.18-8.2-6.66-9.8s-8.71-1-12.29,2.33c-2.63,2.43-3.45,5.68-3.77,9.11-.61,6.49,2.83,11.75,8.84,13.42.45.13.88.31,1.32.46h4.4a8.46,8.46,0,0,1,.92-.33,10.68,10.68,0,0,0,6-3.36,1.58,1.58,0,0,0,.26-1.45,40.77,40.77,0,0,0-2.75-3.13c-3,2.62-5.73,3.35-8.43,2.29-2.16-.84-3.23-2.53-3.66-4.89h15.81C239.23,163.19,239.34,161.67,239.21,160.18Zm-15.47-.07a4.6,4.6,0,0,1,4.39-4.91c2.77-.12,4.37,1.6,4.42,4.91Z"/>
	<path d="M36.92,167.48c-3.53,2.75-6.09,3.35-8.87,2.06-2-.9-2.81-2.55-3.26-4.76h16c-.11-1.87-.15-3.57-.33-5.26-.45-4.17-2.25-7.49-6.36-9.05-4.35-1.64-8.54-1.19-12.09,1.92-4,3.5-4.58,8.23-4,13.16a10.78,10.78,0,0,0,6.27,8.79,38.28,38.28,0,0,0,3.81,1.36h4.41a4.45,4.45,0,0,1,.75-.32A12.48,12.48,0,0,0,39,172.51c.88-.8,1.24-1.59.2-2.57C38.39,169.17,37.68,168.3,36.92,167.48Zm-7-12.28c2.67.14,4.09,1.85,4,4.91H25C25.28,157,27.24,155.06,29.92,155.2Z"/>
	<path d="M145.84,159c-.92-4.58-3.56-7.81-8.21-8.92-4.91-1.17-9.36-.26-12.64,3.91-2.44,3.11-2.85,6.82-2.5,10.57.47,5,3,9.69,9.3,10.9.12,0,.21.17.31.26h4.11a8,8,0,0,1,.94-.31,10.49,10.49,0,0,0,7.73-6.09A16.29,16.29,0,0,0,145.84,159Zm-7.42,8.55a4.12,4.12,0,0,1-4.49,2.6,4.41,4.41,0,0,1-4-3.12,12.9,12.9,0,0,1-.32-7.63c.73-2.82,2.45-4.3,4.86-4.19s4.18,1.75,4.67,4.46c.18,1,.21,2,.31,3l.19.07A31.3,31.3,0,0,1,138.42,167.53Z"/>
</g>
</svg>