<?xml version="1.0" encoding="utf-8"?>
<!-- Generator: Adobe Illustrator 25.4.1, SVG Export Plug-In . SVG Version: 6.00 Build 0)  -->
<svg version="1.1" id="Layer_1" xmlns="http://www.w3.org/2000/svg" xmlns:xlink="http://www.w3.org/1999/xlink" x="0px" y="0px" 
viewBox="0 0 226.77 130.46"  fill="#FFFFFF" style="enable-background:new 0 0 226.77 130.46;" xml:space="preserve">
<style type="text/css">
	.st0{fill:#FFFFFF;}
	.st1{clip-path:url(#SVGID_00000055682721623360479300000008132728208839285157_);}
	.st2{opacity:0.4;}
	.st3{opacity:0.6;clip-path:url(#SVGID_00000055682721623360479300000008132728208839285157_);}
	.st4{opacity:0.5;fill:#FFFFFF;}
	.st5{opacity:0.6;clip-path:url(#SVGID_00000055682721623360479300000008132728208839285157_);fill:#FFFFFF;}
</style>
<g>
	<g>
		<path class="unep_0" d="M14.2,85.54c0,2.5-0.55,4.51-1.65,6.01c-1.1,1.51-2.59,2.26-4.47,2.26c-1.59,0-2.88-0.57-3.86-1.71v7.66H0V77.27h3.91l0.15,1.59c1.02-1.26,2.35-1.89,3.99-1.89c1.94,0,3.45,0.74,4.53,2.22c1.08,1.48,1.62,3.52,1.62,6.13V85.54z M9.98,85.23c0-1.51-0.26-2.68-0.78-3.5c-0.52-0.82-1.28-1.23-2.27-1.23c-1.32,0-2.23,0.52-2.73,1.56v6.65c0.52,1.07,1.43,1.61,2.75,1.61C8.98,90.32,9.98,88.62,9.98,85.23z"></path>
		<path class="unep_0" d="M25.85,81.34c-0.57-0.08-1.08-0.12-1.52-0.12c-1.59,0-2.64,0.56-3.13,1.67v10.63h-4.21V77.27h3.98l0.12,1.94c0.84-1.49,2.02-2.24,3.51-2.24c0.47,0,0.9,0.06,1.31,0.19L25.85,81.34z"></path>
		<path class="unep_0" d="M26.87,85.24c0-1.61,0.3-3.05,0.9-4.31c0.6-1.26,1.47-2.24,2.6-2.93c1.13-0.69,2.45-1.04,3.94-1.04c2.13,0,3.86,0.67,5.21,2.01c1.35,1.34,2.09,3.16,2.25,5.46l0.03,1.11c0,2.49-0.68,4.49-2.03,6c-1.35,1.51-3.16,2.26-5.44,2.26c-2.28,0-4.09-0.75-5.44-2.25c-1.36-1.5-2.03-3.54-2.03-6.12V85.24z M31.08,85.55c0,1.54,0.28,2.72,0.85,3.54c0.56,0.82,1.37,1.23,2.42,1.23c1.02,0,1.82-0.4,2.39-1.21c0.57-0.81,0.86-2.1,0.86-3.87c0-1.51-0.29-2.69-0.86-3.52c-0.57-0.83-1.38-1.25-2.42-1.25c-1.03,0-1.83,0.41-2.39,1.24C31.36,82.54,31.08,83.82,31.08,85.55z"></path>
		<path class="unep_0" d="M43.97,85.27c0-2.49,0.58-4.5,1.73-6.02c1.15-1.52,2.7-2.28,4.66-2.28c1.73,0,3.07,0.61,4.04,1.83l0.18-1.53h3.82v15.7c0,1.42-0.31,2.66-0.94,3.71c-0.63,1.05-1.51,1.85-2.64,2.4c-1.14,0.55-2.47,0.83-3.99,0.83c-1.16,0-2.28-0.24-3.38-0.71c-1.1-0.48-1.93-1.09-2.49-1.84l1.87-2.64c1.05,1.21,2.32,1.82,3.82,1.82c1.12,0,1.99-0.31,2.61-0.92c0.62-0.62,0.93-1.49,0.93-2.62v-0.87c-0.97,1.13-2.25,1.7-3.83,1.7c-1.9,0-3.43-0.76-4.6-2.29c-1.17-1.53-1.76-3.55-1.76-6.07V85.27z M48.18,85.59c0,1.47,0.29,2.63,0.86,3.47c0.57,0.84,1.36,1.25,2.36,1.25c1.28,0,2.2-0.49,2.75-1.49v-6.84c-0.56-0.99-1.47-1.49-2.72-1.49c-1.01,0-1.81,0.43-2.38,1.28C48.47,82.63,48.18,83.9,48.18,85.59z"></path>
		<path class="unep_0" d="M70.66,81.34c-0.57-0.08-1.08-0.12-1.52-0.12c-1.59,0-2.64,0.56-3.13,1.67v10.63H61.8V77.27h3.98l0.12,1.94c0.84-1.49,2.02-2.24,3.51-2.24c0.47,0,0.9,0.06,1.31,0.19L70.66,81.34z"></path>
		<path class="unep_0" d="M81.57,93.51c-0.19-0.39-0.34-0.88-0.42-1.46c-1.02,1.17-2.35,1.76-3.98,1.76c-1.54,0-2.83-0.46-3.84-1.38c-1.02-0.92-1.52-2.08-1.52-3.48c0-1.72,0.62-3.04,1.86-3.96c1.24-0.92,3.03-1.38,5.37-1.4h1.94v-0.93c0-0.75-0.19-1.35-0.56-1.8c-0.37-0.45-0.96-0.68-1.77-0.68c-0.71,0-1.26,0.18-1.67,0.53c-0.4,0.35-0.6,0.83-0.6,1.44h-4.21c0-0.94,0.28-1.81,0.85-2.61c0.56-0.8,1.36-1.43,2.39-1.88c1.03-0.46,2.19-0.68,3.47-0.68c1.94,0,3.49,0.5,4.63,1.51c1.14,1.01,1.71,2.42,1.71,4.24v7.04c0.01,1.54,0.22,2.71,0.63,3.5v0.26H81.57z M78.08,90.5c0.62,0,1.2-0.14,1.72-0.43c0.52-0.29,0.91-0.67,1.17-1.15v-2.79h-1.57c-2.11,0-3.23,0.75-3.37,2.25l-0.01,0.26c0,0.54,0.18,0.99,0.55,1.33C76.94,90.32,77.44,90.5,78.08,90.5z"></path>
		<path class="unep_0" d="M92.56,77.27l0.13,1.82c1.12-1.41,2.63-2.12,4.53-2.12c2.03,0,3.42,0.83,4.18,2.48c1.11-1.65,2.69-2.48,4.74-2.48c1.71,0,2.98,0.51,3.82,1.54c0.84,1.03,1.25,2.57,1.25,4.63v10.37h-4.23V83.16c0-0.92-0.18-1.59-0.52-2.02c-0.35-0.43-0.97-0.64-1.85-0.64c-1.26,0-2.14,0.62-2.62,1.86L102,93.51h-4.21V83.17c0-0.94-0.18-1.62-0.54-2.04c-0.36-0.42-0.97-0.63-1.84-0.63c-1.19,0-2.06,0.51-2.59,1.53v11.48h-4.21V77.27H92.56z"></path>
		<path class="unep_0" d="M123.77,93.51c-0.19-0.39-0.34-0.88-0.42-1.46c-1.02,1.17-2.35,1.76-3.98,1.76c-1.54,0-2.83-0.46-3.84-1.38c-1.02-0.92-1.52-2.08-1.52-3.48c0-1.72,0.62-3.04,1.86-3.96c1.24-0.92,3.03-1.38,5.37-1.4h1.94v-0.93c0-0.75-0.19-1.35-0.56-1.8c-0.37-0.45-0.96-0.68-1.77-0.68c-0.71,0-1.26,0.18-1.67,0.53c-0.4,0.35-0.6,0.83-0.6,1.44h-4.21c0-0.94,0.28-1.81,0.85-2.61c0.56-0.8,1.36-1.43,2.39-1.88c1.03-0.46,2.19-0.68,3.47-0.68c1.94,0,3.49,0.5,4.63,1.51c1.14,1.01,1.71,2.42,1.71,4.24v7.04c0.01,1.54,0.22,2.71,0.63,3.5v0.26H123.77z M120.29,90.5c0.62,0,1.2-0.14,1.72-0.43c0.52-0.29,0.91-0.67,1.17-1.15v-2.79h-1.57c-2.11,0-3.23,0.75-3.37,2.25l-0.01,0.26c0,0.54,0.18,0.99,0.55,1.33C119.14,90.32,119.64,90.5,120.29,90.5z"></path>
		<path class="unep_0" d="M152.62,85.54c0,2.5-0.55,4.51-1.65,6.01c-1.1,1.51-2.59,2.26-4.47,2.26c-1.59,0-2.88-0.57-3.86-1.71v7.66h-4.21V77.27h3.91l0.15,1.59c1.02-1.26,2.35-1.89,3.99-1.89c1.94,0,3.45,0.74,4.53,2.22c1.08,1.48,1.62,3.52,1.62,6.13V85.54z M148.41,85.23c0-1.51-0.26-2.68-0.78-3.5c-0.52-0.82-1.28-1.23-2.27-1.23c-1.32,0-2.23,0.52-2.73,1.56v6.65c0.52,1.07,1.43,1.61,2.75,1.61C147.4,90.32,148.41,88.62,148.41,85.23z"></path>
		<path class="unep_0" d="M164.55,93.51c-0.19-0.39-0.34-0.88-0.42-1.46c-1.02,1.17-2.35,1.76-3.98,1.76c-1.54,0-2.83-0.46-3.84-1.38c-1.02-0.92-1.52-2.08-1.52-3.48c0-1.72,0.62-3.04,1.86-3.96c1.24-0.92,3.03-1.38,5.37-1.4h1.94v-0.93c0-0.75-0.19-1.35-0.56-1.8c-0.37-0.45-0.96-0.68-1.77-0.68c-0.71,0-1.26,0.18-1.67,0.53c-0.4,0.35-0.6,0.83-0.6,1.44h-4.21c0-0.94,0.28-1.81,0.85-2.61c0.56-0.8,1.36-1.43,2.39-1.88c1.03-0.46,2.19-0.68,3.47-0.68c1.94,0,3.49,0.5,4.63,1.51c1.14,1.01,1.71,2.42,1.71,4.24v7.04c0.01,1.54,0.22,2.71,0.63,3.5v0.26H164.55z M161.06,90.5c0.62,0,1.2-0.14,1.72-0.43c0.52-0.29,0.91-0.67,1.17-1.15v-2.79h-1.57c-2.11,0-3.23,0.75-3.37,2.25l-0.01,0.26c0,0.54,0.18,0.99,0.55,1.33C159.92,90.32,160.42,90.5,161.06,90.5z"></path>
		<path class="unep_0" d="M180.45,81.34c-0.57-0.08-1.08-0.12-1.52-0.12c-1.59,0-2.64,0.56-3.13,1.67v10.63h-4.21V77.27h3.98l0.12,1.94c0.84-1.49,2.02-2.24,3.51-2.24c0.47,0,0.9,0.06,1.31,0.19L180.45,81.34z"></path>
		<path class="unep_0" d="M191.36,93.51c-0.19-0.39-0.34-0.88-0.42-1.46c-1.02,1.17-2.35,1.76-3.98,1.76c-1.54,0-2.83-0.46-3.84-1.38c-1.02-0.92-1.52-2.08-1.52-3.48c0-1.72,0.62-3.04,1.86-3.96c1.24-0.92,3.03-1.38,5.37-1.4h1.94v-0.93c0-0.75-0.19-1.35-0.56-1.8c-0.37-0.45-0.96-0.68-1.77-0.68c-0.71,0-1.26,0.18-1.67,0.53c-0.4,0.35-0.6,0.83-0.6,1.44h-4.21c0-0.94,0.28-1.81,0.85-2.61c0.56-0.8,1.36-1.43,2.39-1.88c1.03-0.46,2.19-0.68,3.47-0.68c1.94,0,3.49,0.5,4.63,1.51c1.14,1.01,1.71,2.42,1.71,4.24v7.04c0.01,1.54,0.22,2.71,0.63,3.5v0.26H191.36z M187.87,90.5c0.62,0,1.2-0.14,1.72-0.43c0.52-0.29,0.91-0.67,1.17-1.15v-2.79h-1.57c-2.11,0-3.23,0.75-3.37,2.25l-0.01,0.26c0,0.54,0.18,0.99,0.55,1.33C186.73,90.32,187.23,90.5,187.87,90.5z"></path>
		<path class="unep_0" d="M213.27,93.81c-2.31,0-4.19-0.73-5.65-2.19c-1.45-1.46-2.18-3.41-2.18-5.84v-0.42c0-1.63,0.31-3.09,0.92-4.38c0.61-1.29,1.48-2.28,2.6-2.97c1.12-0.7,2.4-1.04,3.84-1.04c2.16,0,3.85,0.7,5.09,2.1c1.24,1.4,1.86,3.39,1.86,5.96v1.77h-10.04c0.14,1.06,0.55,1.91,1.23,2.55c0.69,0.64,1.55,0.96,2.6,0.96c1.62,0,2.89-0.6,3.8-1.82l2.07,2.39c-0.63,0.92-1.49,1.64-2.57,2.16C215.78,93.55,214.58,93.81,213.27,93.81z M212.79,80.47c-0.84,0-1.51,0.29-2.03,0.87c-0.52,0.58-0.85,1.42-1,2.5h5.86V83.5c-0.02-0.96-0.27-1.71-0.76-2.24C214.37,80.73,213.68,80.47,212.79,80.47z"></path>
		<path class="unep_0" d="M226.77,93.51h-4.23V70.46h4.23V93.51z"></path>
	</g>
	<g>
		<path class="unep_0" d="M3.95,113.92l0.13,1.82c1.12-1.41,2.63-2.12,4.53-2.12c2.03,0,3.42,0.83,4.18,2.48c1.11-1.65,2.69-2.48,4.74-2.48c1.71,0,2.98,0.51,3.82,1.54c0.84,1.03,1.25,2.57,1.25,4.63v10.37h-4.23v-10.36c0-0.92-0.18-1.59-0.52-2.02c-0.35-0.43-0.97-0.64-1.85-0.64c-1.26,0-2.14,0.62-2.62,1.86l0.02,11.15H9.18v-10.34c0-0.94-0.18-1.62-0.54-2.04c-0.36-0.42-0.97-0.63-1.84-0.63c-1.19,0-2.06,0.51-2.59,1.53v11.48H0v-16.24H3.95z"></path>
		<path class="unep_0" d="M33.28,130.46c-2.31,0-4.19-0.73-5.65-2.19c-1.45-1.46-2.18-3.41-2.18-5.84v-0.42c0-1.63,0.31-3.09,0.92-4.38c0.61-1.29,1.48-2.28,2.6-2.97c1.12-0.7,2.4-1.04,3.84-1.04c2.16,0,3.85,0.7,5.09,2.1c1.24,1.4,1.86,3.39,1.86,5.96v1.77H29.72c0.14,1.06,0.55,1.91,1.23,2.55c0.69,0.64,1.55,0.96,2.6,0.96c1.62,0,2.89-0.6,3.8-1.82l2.07,2.39c-0.63,0.92-1.49,1.64-2.57,2.16C35.79,130.21,34.59,130.46,33.28,130.46z M32.8,117.12c-0.84,0-1.51,0.29-2.03,0.87c-0.52,0.58-0.85,1.42-1,2.5h5.86v-0.35c-0.02-0.96-0.27-1.71-0.76-2.24C34.38,117.38,33.69,117.12,32.8,117.12z"></path>
		<path class="unep_0" d="M41.68,121.92c0-2.53,0.55-4.55,1.65-6.05c1.1-1.5,2.61-2.25,4.53-2.25c1.53,0,2.8,0.59,3.8,1.77v-8.29h4.23v23.06h-3.8l-0.2-1.73c-1.05,1.35-2.4,2.03-4.05,2.03c-1.86,0-3.35-0.75-4.47-2.26C42.24,126.7,41.68,124.6,41.68,121.92z M45.89,122.25c0,1.52,0.26,2.69,0.77,3.5c0.52,0.81,1.26,1.22,2.24,1.22c1.3,0,2.22-0.57,2.75-1.7v-6.42c-0.52-1.13-1.43-1.7-2.73-1.7C46.91,117.15,45.89,118.85,45.89,122.25z"></path>
		<path class="unep_0" d="M59.3,109.72c0-0.65,0.21-1.19,0.63-1.61c0.42-0.42,1-0.63,1.73-0.63c0.72,0,1.29,0.21,1.72,0.63s0.64,0.96,0.64,1.61c0,0.66-0.22,1.2-0.65,1.62c-0.43,0.42-1,0.63-1.71,0.63c-0.71,0-1.28-0.21-1.71-0.63C59.52,110.92,59.3,110.38,59.3,109.72z M63.78,130.16h-4.23v-16.24h4.23V130.16z"></path>
		<path class="unep_0" d="M66.77,121.89c0-1.61,0.3-3.05,0.9-4.31c0.6-1.26,1.47-2.24,2.6-2.93c1.13-0.69,2.45-1.04,3.94-1.04c2.13,0,3.86,0.67,5.21,2.01c1.35,1.34,2.09,3.16,2.25,5.46l0.03,1.11c0,2.49-0.68,4.49-2.03,6c-1.35,1.51-3.16,2.26-5.44,2.26c-2.28,0-4.09-0.75-5.44-2.25c-1.36-1.5-2.03-3.54-2.03-6.12V121.89z M70.98,122.2c0,1.54,0.28,2.72,0.85,3.54c0.56,0.82,1.37,1.23,2.42,1.23c1.02,0,1.82-0.4,2.39-1.21c0.57-0.81,0.86-2.1,0.86-3.87c0-1.51-0.29-2.69-0.86-3.52c-0.57-0.83-1.38-1.25-2.42-1.25c-1.03,0-1.83,0.41-2.39,1.24C71.27,119.19,70.98,120.47,70.98,122.2z"></path>
		<path class="unep_0" d="M101.23,130.16c-0.19-0.39-0.34-0.88-0.42-1.46c-1.02,1.17-2.35,1.76-3.98,1.76c-1.54,0-2.83-0.46-3.84-1.38c-1.02-0.92-1.52-2.08-1.52-3.48c0-1.72,0.62-3.04,1.86-3.96c1.24-0.92,3.03-1.38,5.37-1.4h1.94v-0.93c0-0.75-0.19-1.35-0.56-1.8c-0.37-0.45-0.96-0.68-1.77-0.68c-0.71,0-1.26,0.18-1.67,0.53c-0.4,0.35-0.6,0.83-0.6,1.44h-4.21c0-0.94,0.28-1.81,0.85-2.61c0.56-0.8,1.36-1.43,2.39-1.88c1.03-0.46,2.19-0.68,3.47-0.68c1.94,0,3.49,0.5,4.63,1.51c1.14,1.01,1.71,2.42,1.71,4.24v7.04c0.01,1.54,0.22,2.71,0.63,3.5v0.26H101.23z M97.75,127.15c0.62,0,1.2-0.14,1.72-0.43c0.52-0.29,0.91-0.67,1.17-1.15v-2.79h-1.57c-2.11,0-3.23,0.75-3.37,2.25l-0.01,0.26c0,0.54,0.18,0.99,0.55,1.33C96.6,126.97,97.11,127.15,97.75,127.15z"></path>
		<path class="unep_0" d="M112.23,113.92l0.13,1.82c1.12-1.41,2.63-2.12,4.53-2.12c2.03,0,3.43,0.83,4.18,2.48c1.11-1.65,2.69-2.48,4.74-2.48c1.71,0,2.98,0.51,3.82,1.54c0.84,1.03,1.25,2.57,1.25,4.63v10.37h-4.23v-10.36c0-0.92-0.18-1.59-0.52-2.02c-0.35-0.43-0.97-0.64-1.85-0.64c-1.26,0-2.14,0.62-2.62,1.86l0.02,11.15h-4.21v-10.34c0-0.94-0.18-1.62-0.54-2.04c-0.36-0.42-0.97-0.63-1.84-0.63c-1.19,0-2.06,0.51-2.59,1.53v11.48h-4.21v-16.24H112.23z"></path>
		<path class="unep_0" d="M148.51,122.19c0,2.6-0.54,4.63-1.62,6.09c-1.08,1.46-2.58,2.18-4.52,2.18c-1.71,0-3.08-0.68-4.1-2.03l-0.19,1.73h-3.79v-23.06h4.21v8.27c0.97-1.17,2.25-1.76,3.83-1.76c1.92,0,3.43,0.73,4.52,2.18c1.09,1.46,1.64,3.51,1.64,6.15V122.19z M144.3,121.88c0-1.64-0.25-2.84-0.76-3.6c-0.51-0.75-1.26-1.13-2.26-1.13c-1.34,0-2.26,0.57-2.77,1.7v6.41c0.52,1.14,1.45,1.71,2.8,1.71c1.36,0,2.25-0.69,2.68-2.07C144.19,124.23,144.3,123.23,144.3,121.88z"></path>
		<path class="unep_0" d="M151.25,109.72c0-0.65,0.21-1.19,0.63-1.61c0.42-0.42,1-0.63,1.73-0.63c0.72,0,1.29,0.21,1.72,0.63c0.43,0.42,0.64,0.96,0.64,1.61c0,0.66-0.22,1.2-0.65,1.62c-0.43,0.42-1,0.63-1.71,0.63c-0.71,0-1.28-0.21-1.71-0.63C151.47,110.92,151.25,110.38,151.25,109.72z M155.73,130.16h-4.23v-16.24h4.23V130.16z"></path>
		<path class="unep_0" d="M166.63,130.46c-2.31,0-4.19-0.73-5.65-2.19c-1.45-1.46-2.18-3.41-2.18-5.84v-0.42c0-1.63,0.31-3.09,0.92-4.38c0.61-1.29,1.48-2.28,2.6-2.97s2.4-1.04,3.84-1.04c2.16,0,3.85,0.7,5.09,2.1c1.24,1.4,1.86,3.39,1.86,5.96v1.77h-10.04c0.14,1.06,0.55,1.91,1.23,2.55c0.69,0.64,1.55,0.96,2.6,0.96c1.62,0,2.89-0.6,3.8-1.82l2.07,2.39c-0.63,0.92-1.49,1.64-2.57,2.16C169.14,130.21,167.94,130.46,166.63,130.46z M166.15,117.12c-0.84,0-1.51,0.29-2.03,0.87c-0.52,0.58-0.85,1.42-1,2.5h5.86v-0.35c-0.02-0.96-0.27-1.71-0.76-2.24C167.74,117.38,167.04,117.12,166.15,117.12z"></path>
		<path class="unep_0" d="M179.56,113.92l0.13,1.88c1.13-1.45,2.64-2.18,4.53-2.18c1.67,0,2.92,0.5,3.73,1.52c0.82,1.01,1.23,2.52,1.25,4.53v10.49H185v-10.39c0-0.92-0.19-1.59-0.58-2c-0.39-0.41-1.04-0.62-1.94-0.62c-1.19,0-2.08,0.52-2.67,1.56v11.45h-4.21v-16.24H179.56z"></path>
		<path class="unep_0" d="M197.63,109.93v3.99h2.7v3.18h-2.7v8.11c0,0.6,0.11,1.03,0.34,1.29s0.65,0.39,1.28,0.39c0.47,0,0.88-0.03,1.24-0.1v3.29c-0.82,0.26-1.68,0.39-2.55,0.39c-2.95,0-4.46-1.54-4.52-4.61v-8.75h-2.3v-3.18h2.3v-3.99H197.63z"></path>
		<path class="unep_0" d="M210.11,130.46c-2.31,0-4.19-0.73-5.65-2.19c-1.45-1.46-2.18-3.41-2.18-5.84v-0.42c0-1.63,0.31-3.09,0.92-4.38s1.48-2.28,2.6-2.97c1.12-0.7,2.4-1.04,3.84-1.04c2.16,0,3.85,0.7,5.09,2.1c1.24,1.4,1.86,3.39,1.86,5.96v1.77h-10.04c0.14,1.06,0.55,1.91,1.23,2.55c0.69,0.64,1.55,0.96,2.6,0.96c1.62,0,2.89-0.6,3.8-1.82l2.07,2.39c-0.63,0.92-1.49,1.64-2.57,2.16C212.62,130.21,211.42,130.46,210.11,130.46z M209.63,117.12c-0.84,0-1.51,0.29-2.03,0.87c-0.52,0.58-0.85,1.42-1,2.5h5.86v-0.35c-0.02-0.96-0.27-1.71-0.76-2.24C211.21,117.38,210.52,117.12,209.63,117.12z"></path>
	</g>
<g>
<g>
<g>
<g>
<g>
<g>
	<g>
		<path class="unep_0" d="M189.99,45.7c-6.89-2.12-11.91-8.63-11.91-16.34c0-1.39,0.16-2.74,0.47-4.04l10.88,1.42c0,0,4.18,0.19,4.02,7.72C193.31,41.77,189.99,45.7,189.99,45.7z"></path>
		<path class="unep_0" d="M199.72,45.7c6.89-2.12,11.91-8.63,11.91-16.34c0-1.39-0.16-2.74-0.47-4.04l-10.88,1.42c0,0-4.18,0.19-4.02,7.72C196.39,41.77,199.72,45.7,199.72,45.7z"></path>
		<path class="unep_0" d="M194.85,17.14c1.4,0,2.54,1.16,2.54,2.58c0,1.11-0.75,1.94-1.66,2.43c-0.11,0.06-0.21,0.11-0.19,0.29c0.02,0.18,0.54,0.28,0.77,0.33l14.63,1.73c-2.05-7.06-8.47-12.22-16.07-12.22h-0.02c-7.6,0-14.02,5.15-16.07,12.22l14.63-1.73c0.22-0.05,0.74-0.15,0.77-0.33c0.02-0.18-0.08-0.23-0.19-0.29c-0.91-0.49-1.66-1.32-1.66-2.43C192.31,18.3,193.45,17.14,194.85,17.14L194.85,17.14z"></path>
	</g>
	<g>
		<path class="unep_0" d="M201.54,57.78l0.99-0.63c0,0-4.7-6.49-15.22-6.49c-5.38,0-8.17,2.21-11.94,2.21c0,0-1.55,0.19-3.03-0.76c0,0,1.79,2.65,8.29,2.65c4.77,0,8.17-2.84,11.51-2.84C196.71,51.92,200.11,56.08,201.54,57.78z"></path>
	</g>
	<g>
		<path class="unep_0" d="M186.93,57.78l-0.99-0.63c0,0,4.7-6.49,15.22-6.49c5.38,0,8.17,2.21,11.94,2.21c0,0,1.55,0.19,3.03-0.76c0,0-1.79,2.65-8.29,2.65c-4.77,0-8.17-2.84-11.51-2.84C191.76,51.92,188.35,56.08,186.93,57.78z"></path>
	</g>
	<path class="unep_0" d="M181.92,50.09c-0.19,0.5-2.2-0.09-3.56,0.32c-1.52,0.46-9.56,1.45-13.09-7.06c0,0,3.34,3.65,5.94,3.91c2.6,0.25,5.45,0.88,7.86,2.27l0.56,0.13c0,0-0.08-0.25-0.31-0.38c-0.32-0.17-2.82-1-4.02-5.04c-0.62-2.08-0.5-3.59-0.74-4.66c0,0,2.72,3.09,3.84,5.04C179.5,46.56,179.63,48.77,181.92,50.09z"></path>
	<path class="unep_0" d="M173.72,45.81c-0.2,0.21-0.71-0.13-0.9-0.22c-0.19-0.09-1.52-0.72-3.81-1.54c-2.26-0.82-6.47-4.44-6.06-10.65c0,0,0.59,2.33,2.32,3.88c1.73,1.54,2.35,1.73,3.4,2.99c1.05,1.26,3.43,4.13,3.53,4.1c0.09-0.03,0.12-0.19-0.06-0.35s-0.8-1.73-1.21-2.27c-0.4-0.54-1.61-4.22,0.15-8.76c0,0,1.89,3.31,1.76,6.65c-0.12,3.34-0.28,2.55,0.53,5.32C173.38,44.96,173.81,45.71,173.72,45.81z"></path>
	<path class="unep_0" d="M168.46,37.71c-0.11,0.11-0.59-0.6-0.96-1.26c-0.37-0.66-2.97-3.5-3.31-4.06c-0.34-0.57-3.25-4.16-1.05-9.48c0,0,0.22-0.06,0.22,1.2c0,1.26,1.14,4.06,2.07,5.26c0.93,1.2,1.76,3.12,1.95,5.17c0,0,0.12,0.38,0.28,0.41c0.15,0.03,0.15-0.38,0.15-0.38s-0.12-1.89-0.12-3.18c0-1.29,0.56-3.5,1.76-4.76c0,0,0.56-0.63,0.9-1.39c0,0,0.22-0.5,0.53-0.76c0,0,0.25,3.62-0.96,6.99c-1.21,3.37-1.61,3.94-1.42,5.77C168.49,37.24,168.52,37.65,168.46,37.71z"></path>
	<path class="unep_0" d="M166.42,27.75c-0.12,0-0.22-0.44-0.28-0.79c-0.06-0.35-0.43-2.36-0.68-2.8c-0.25-0.44-1.18-2.46-1.21-4.82c-0.03-2.36,1.02-5.58,3.37-8.13c0,0-0.09,0.76-0.71,2.43c-0.62,1.67-0.25,3.25-0.19,3.53c0.06,0.28,0.28,2.23,0.28,3.15c0,0.72-0.19,3.21-0.34,3.72c0,0-0.06,0.35,0.06,0.35s0.25-0.28,0.25-0.28s0.12-1.95,1.55-3.72c1.42-1.76,3.99-2.84,4.39-3.62c0,0-0.19,2.77-3.19,6.02c-2.67,2.89-1.89,1.42-2.75,3.78c0,0-0.37,0.88-0.37,1.07C166.6,27.82,166.42,27.75,166.42,27.75z"></path>
	<path class="unep_0" d="M168.06,18.43c0,0-0.06-0.38,0.4-1.23c0.46-0.85-0.03-2.36,0.59-4.57c0.62-2.21,1.76-5.99,6.13-8.25c0,0-0.43,0.41-0.65,0.72c-0.22,0.32-1.39,2.58-1.73,4.16c-0.34,1.58-1.83,4.22-2.38,4.82c-0.56,0.6-0.31,0.66-0.31,0.66s0.28-0.06,0.56-0.5c0.28-0.44,1.7-2.08,3.28-2.46c1.58-0.38,4.08-1.13,4.24-1.29c0,0-2.72,2.84-5.23,4.28c-2.51,1.45-2.78,1.01-4.27,2.96C168.67,17.73,168.18,18.43,168.06,18.43z"></path>
	<path class="unep_0" d="M174.06,10.01c0,0,0-0.25,0.46-0.69c0.46-0.44,0.93-1.76,1.73-2.99c0.8-1.23,2.63-4.44,7.36-5.2c0,0-1.42,1.07-1.64,1.42c-0.22,0.35-1.61,2.21-2.23,2.84c-0.62,0.63-2.38,1.95-2.97,2.24c0,0-0.31,0.25-0.25,0.35c0.06,0.09,0.37-0.09,0.37-0.09s1.64-1.29,3.62-1.35c1.98-0.06,4.05,0.03,4.36,0.06c0,0-1.86,1.29-6.28,2.11c-4.42,0.82-3.59,0.85-4.27,1.29C174.34,9.98,174.18,10.11,174.06,10.01z"></path>
	<path class="unep_0" d="M181.95,4.78c0,0,0.09-0.25,0.8-0.47c0.71-0.22,0.65-0.91,2.82-2.08c2.17-1.17,4.42-1.7,6.71-0.72c0,0-0.96,0.13-1.11,0.19c-0.15,0.06-1.79,0.5-2.26,0.76c-0.46,0.25-2.85,1.32-3.81,1.51c-0.96,0.19-0.5,0.25-0.5,0.25s0.22,0.09,0.4,0.09s2.32-0.22,3.71,0.28c1.39,0.5,1.36,0.69,1.92,0.88c0.56,0.19,1.21,0.32,1.3,0.54c0,0-1.39,0.13-2.23,0.13c-0.84,0-3.03-0.22-4.08-0.72c-1.05-0.5-2.26-0.72-2.66-0.63C182.57,4.88,182.07,4.88,181.95,4.78z"></path>
	<path class="unep_0" d="M190.74,3.68c0,0,0.09-0.13,0.71-0.25s0.77-0.5,2.23-0.82s3.71-0.6,5.79,0.85c0,0-1.27-0.03-1.55-0.03c-0.28,0-2.69,0.44-3.25,0.44c-0.56,0-1.67-0.25-1.83-0.06c-0.15,0.19,1.02,0.44,1.21,0.5c0.19,0.06,1.02,0.13,2.07,1.17c1.05,1.04,1.79,1.61,1.92,1.67c0,0-3.09-0.72-3.87-1.17c-0.77-0.44-2.1-1.8-2.32-1.89C191.63,4,190.74,3.68,190.74,3.68z"></path>
	<path class="unep_0" d="M197.88,4.97c0,0,1.95-0.06,3.37,0.85s2.57,2.11,2.69,2.84c0,0-0.8-0.69-1.33-0.85c-0.53-0.16-2.01-1.01-2.32-1.2C199.99,6.42,198.19,5.26,197.88,4.97z"></path>
	<path class="unep_0" d="M207.04,50.44c0,0,0.28-0.28,1.21-1.1c0.93-0.82,1.18-2.02,2.2-3.88c1.02-1.86,1.89-3.15,3.96-5.04c0,0-0.37,1.42-0.4,1.86c-0.03,0.44-0.37,2.9-1.55,4.32c-1.18,1.42-1.24,1.73-2.6,2.58c0,0-0.53,0.38-0.5,0.5c0.03,0.13,0.93-0.03,0.93-0.03s0.99-0.38,1.3-0.57s1.7-0.91,2.26-1.13c0.56-0.22,1.02-0.44,2.26-0.82c1.24-0.38,5.72-1.54,7.49-4.44c0,0-0.53,1.7-1.18,2.49c-0.65,0.79-4.33,5.73-9.44,5.64c0,0-2.01-0.16-3.06-0.35c-1.05-0.19-1.42-0.19-1.58-0.16C208.19,50.34,207.2,50.53,207.04,50.44z"></path>
	<path class="unep_0" d="M218.46,32.76c0,0-1.92,3.06-2.35,7.47c-0.43,4.41,0.31,3.09-0.4,5.04c0,0-0.25,0.5-0.15,0.54c0.09,0.03,0.46-0.19,1.83-1.04c1.36-0.85,2.69-0.6,5.6-3.43s3.5-8.48,3.56-8.95c0,0-0.43,0.44-0.65,1.2c-0.22,0.76-0.68,1.35-0.77,1.45c-0.09,0.09-3.25,3.62-3.62,3.94c-0.37,0.32-2.23,2.62-2.63,3.28c-0.4,0.66-1.58,1.86-1.79,1.76c0,0,0.03-0.28,0.12-0.5c0.09-0.22,0.96-1.42,1.33-2.8c0.37-1.39,0.46-2.24,0.5-3.12C219.05,36.7,218.49,33.46,218.46,32.76z"></path>
	<path class="unep_0" d="M221.06,37.02c0,0-0.19-0.46-0.03-0.79c0.09-0.19,0.19-1.7-0.37-2.93c-0.56-1.23-1.76-4.63-1.67-6.9c0.09-2.27,0.34-2.58,0.34-2.58s0.62,1.86,0.8,2.17s2.04,3.65,1.89,5.48c-0.15,1.83-0.25,2.39-0.15,2.43c0.09,0.03,0.31-0.22,0.34-0.44c0.03-0.22,0.34-1.48,0.93-2.96c0.59-1.48,2.97-4.76,3.5-6.93c0,0,0.77,3.78-1.3,7.31c-2.07,3.53-2.29,2.74-3.16,4.35C221.31,36.83,221.18,37.02,221.06,37.02z"></path>
	<path class="unep_0" d="M222.95,27.03c-0.15-0.03-0.06-1.48-0.43-1.95c-0.37-0.47-3.56-4.32-4.24-8.16c0,0,2.01,2.08,2.35,2.3c0.34,0.22,1.7,1.61,2.1,2.8c0.4,1.2,0.31,2.21,0.46,2.24c0.15,0.03,0.15-1.32,0.15-1.32s0.03-2.65,0.25-3.91c0.22-1.26,0.77-3.37,0.53-4.44c0,0,1.21,1.95,1.14,4.73c-0.06,2.77-1.21,4.98-1.36,5.29c-0.15,0.32-0.59,1.67-0.59,1.95C223.32,26.84,222.95,27.03,222.95,27.03z"></path>
	<path class="unep_0" d="M219.17,7.31c0,0,4.18,2.52,3.53,10.96c0,0,0,0.38-0.25-0.03c-0.25-0.41-1.14-1.58-1.55-1.83c-0.4-0.25-4.12-2.55-5.69-6.08c0,0,0.25-0.06,0.62,0.28c0.37,0.35,1.52,0.95,1.7,1.04c0.19,0.09,1.49,0.44,2.44,1.51c0.96,1.07,1.3,1.86,1.58,2.49c0,0,0.28,0.22,0.09-0.41c-0.19-0.63-0.22-1.04-0.71-1.83c-0.49-0.79-0.93-2.21-0.99-3.18C219.88,9.26,219.61,7.81,219.17,7.31z"></path>
	<path class="unep_0" d="M218.46,10.27c0,0,0.09-0.57-0.31-1.35c-0.4-0.79-0.09-1.66-1.36-3.75c-0.71-1.17-3.19-2.08-3.19-2.08s0.71,1.01,1.18,1.58c0.46,0.57,0.62,0.98,0.77,1.26c0.15,0.28,1.01,1.12,1.33,1.61c0.06,0.09,0.19,0.35,0.19,0.5c0,0.16-0.34-0.09-0.43-0.19c-0.09-0.09-1.61-1.26-2.57-1.45c-0.96-0.19-2.78-0.38-3.28-0.63c0,0,2.17,1.98,4.52,2.58C217.66,8.94,218.46,10.27,218.46,10.27z"></path>
	<path class="unep_0" d="M213.57,5.07c0,0-2.17-2.99-6.03-2.93c0,0,0.22,0.22,0.65,0.32c0.43,0.09,1.21,0.88,1.61,1.13C210.2,3.84,211.03,4.47,213.57,5.07z"></path>
</g>
</g>
</g>
</g>
</g>
	<g>
		<path class="unep_0" d="M46.11,29.57c0,4.22-0.56,8-1.67,11.34c-1.12,3.35-2.68,6.18-4.7,8.5c-2.02,2.32-4.44,4.11-7.27,5.36c-2.83,1.25-5.94,1.87-9.33,1.87c-3.4,0-6.51-0.62-9.33-1.87c-2.83-1.25-5.26-3.03-7.31-5.36c-2.04-2.32-3.64-5.15-4.78-8.5C0.57,37.56,0,33.79,0,29.57v-2.42c0-4.19,0.56-7.96,1.69-11.32c1.13-3.36,2.71-6.21,4.74-8.56c2.03-2.35,4.46-4.15,7.29-5.4C16.55,0.62,19.66,0,23.05,0c3.4,0,6.51,0.62,9.33,1.87c2.83,1.25,5.25,3.05,7.29,5.4c2.03,2.35,3.61,5.2,4.74,8.56c1.13,3.36,1.69,7.13,1.69,11.32V29.57z M34.8,27.07c0-5.78-1.02-10.17-3.05-13.18c-2.03-3-4.93-4.5-8.7-4.5c-3.77,0-6.67,1.5-8.7,4.5c-2.03,3-3.05,7.4-3.05,13.18v2.5c0,2.88,0.27,5.42,0.8,7.63c0.53,2.21,1.3,4.06,2.31,5.57s2.24,2.64,3.7,3.41c1.46,0.77,3.14,1.15,5.02,1.15c3.77,0,6.66-1.51,8.66-4.54s3.01-7.43,3.01-13.21V27.07z"></path>
		<path class="unep_0" d="M98.24,55.88H87.08L65.37,19.61v36.27H54.21V0.76h11.16L87.12,37.1V0.76h11.12V55.88z"></path>
		<path class="unep_0" d="M148.96,0.76v36.38c0,3.18-0.52,5.99-1.56,8.42c-1.04,2.44-2.48,4.47-4.31,6.11c-1.84,1.64-4.02,2.88-6.56,3.71c-2.54,0.83-5.31,1.25-8.31,1.25c-3.02,0-5.81-0.42-8.35-1.25c-2.54-0.83-4.73-2.07-6.56-3.71c-1.84-1.64-3.27-3.68-4.29-6.11c-1.03-2.44-1.54-5.24-1.54-8.42V0.76h11.16v36.38c0,3.61,0.85,6.24,2.55,7.89c1.7,1.65,4.05,2.48,7.05,2.48c3.02,0,5.37-0.83,7.05-2.48c1.67-1.65,2.51-4.28,2.51-7.89V0.76H148.96z"></path>
	</g>
</g>
</g>
</svg>