<?xml version="1.0" encoding="utf-8"?>
<!-- Generator: Adobe Illustrator 25.4.1, SVG Export Plug-In . SVG Version: 6.00 Build 0)  -->
<svg version="1.1" id="Layer_1" xmlns="http://www.w3.org/2000/svg" xmlns:xlink="http://www.w3.org/1999/xlink" x="0px" y="0px"
 viewBox="0 0 226.77 111.51" fill="#FFFFFF" style="enable-background:new 0 0 226.77 111.51;" xml:space="preserve">
<style type="text/css">
	.st0{fill:#FFFFFF;}
	.st1{clip-path:url(#SVGID_00000018921781702452505690000008798638972924344988_);}
	.st2{opacity:0.4;}
	.st3{opacity:0.6;clip-path:url(#SVGID_00000018921781702452505690000008798638972924344988_);}
	.st4{opacity:0.5;fill:#FFFFFF;}
	.st5{opacity:0.6;clip-path:url(#SVGID_00000018921781702452505690000008798638972924344988_);fill:#FFFFFF;}
</style>
<g>
	<g>
		<path class="unep_0" d="M11.18,81.3H7.89v-9.82h-4.1v9.82H0.51V68.79h10.67V81.3z"></path>
		<path class="unep_0" d="M24.8,75.16c0,1.93-0.43,3.47-1.29,4.63c-0.86,1.16-2.02,1.74-3.47,1.74c-1.24,0-2.24-0.44-3.01-1.32v5.9h-3.28V68.79h3.04l0.11,1.23c0.79-0.97,1.83-1.46,3.11-1.46c1.51,0,2.69,0.57,3.53,1.71s1.26,2.71,1.26,4.72V75.16z M21.52,74.92c0-1.16-0.2-2.06-0.61-2.69c-0.4-0.63-0.99-0.95-1.76-0.95c-1.03,0-1.74,0.4-2.12,1.2v5.12c0.4,0.82,1.12,1.24,2.14,1.24C20.74,78.84,21.52,77.53,21.52,74.92z"></path>
		<path class="unep_0" d="M26.38,74.93c0-1.24,0.23-2.35,0.7-3.32c0.47-0.97,1.14-1.72,2.02-2.25c0.88-0.53,1.9-0.8,3.07-0.8c1.66,0,3.01,0.52,4.05,1.55c1.05,1.03,1.63,2.44,1.75,4.21l0.02,0.85c0,1.92-0.53,3.46-1.58,4.62c-1.05,1.16-2.46,1.74-4.23,1.74c-1.77,0-3.18-0.58-4.23-1.73c-1.06-1.16-1.58-2.73-1.58-4.72V74.93z M29.66,75.17c0,1.19,0.22,2.1,0.66,2.73c0.44,0.63,1.07,0.94,1.88,0.94c0.79,0,1.41-0.31,1.86-0.93c0.45-0.62,0.67-1.61,0.67-2.98c0-1.17-0.22-2.07-0.67-2.71c-0.45-0.64-1.07-0.96-1.88-0.96c-0.8,0-1.42,0.32-1.86,0.96C29.88,72.85,29.66,73.83,29.66,75.17z"></path>
		<path class="unep_0" d="M48.45,71.48h-5.08v9.82h-3.28V68.79h8.36V71.48z"></path>
		<path class="unep_0" d="M60.93,75.16c0,1.93-0.43,3.47-1.29,4.63c-0.86,1.16-2.02,1.74-3.47,1.74c-1.24,0-2.24-0.44-3.01-1.32v5.9h-3.28V68.79h3.04l0.11,1.23c0.79-0.97,1.83-1.46,3.11-1.46c1.51,0,2.69,0.57,3.53,1.71s1.26,2.71,1.26,4.72V75.16z M57.66,74.92c0-1.16-0.2-2.06-0.61-2.69c-0.4-0.63-0.99-0.95-1.76-0.95c-1.03,0-1.74,0.4-2.12,1.2v5.12c0.4,0.82,1.12,1.24,2.14,1.24C56.87,78.84,57.66,77.53,57.66,74.92z"></path>
		<path class="unep_0" d="M70.14,81.3c-0.15-0.3-0.26-0.67-0.33-1.12c-0.79,0.9-1.83,1.35-3.1,1.35c-1.2,0-2.2-0.35-2.99-1.06c-0.79-0.71-1.18-1.6-1.18-2.68c0-1.33,0.48-2.34,1.45-3.05c0.96-0.71,2.36-1.07,4.18-1.08h1.51v-0.72c0-0.58-0.15-1.04-0.44-1.39c-0.29-0.35-0.75-0.52-1.38-0.52c-0.55,0-0.99,0.13-1.3,0.4c-0.31,0.27-0.47,0.64-0.47,1.11h-3.28c0-0.72,0.22-1.39,0.66-2.01c0.44-0.62,1.06-1.1,1.86-1.45c0.8-0.35,1.7-0.53,2.7-0.53c1.51,0,2.71,0.39,3.6,1.16c0.89,0.77,1.33,1.86,1.33,3.27v5.42c0.01,1.19,0.17,2.09,0.49,2.69v0.2H70.14z M67.43,78.98c0.48,0,0.93-0.11,1.34-0.33s0.71-0.52,0.91-0.88v-2.15h-1.22c-1.64,0-2.51,0.58-2.62,1.73l-0.01,0.2c0,0.42,0.14,0.76,0.43,1.03C66.54,78.84,66.93,78.98,67.43,78.98z"></path>
		<path class="unep_0" d="M83.02,77.36l3.21-8.57h4.1V81.3h-3.28v-7.68l-2.94,7.68h-2.2l-2.88-7.55v7.55h-3.28V68.79h4.07L83.02,77.36z"></path>
		<path class="unep_0" d="M100.72,77.36l3.21-8.57h4.1V81.3h-3.28v-7.68l-2.94,7.68h-2.2l-2.88-7.55v7.55h-3.28V68.79h4.07L100.72,77.36z"></path>
		<path class="unep_0" d="M118.06,81.3c-0.15-0.3-0.26-0.67-0.33-1.12c-0.79,0.9-1.83,1.35-3.1,1.35c-1.2,0-2.2-0.35-2.99-1.06c-0.79-0.71-1.18-1.6-1.18-2.68c0-1.33,0.48-2.34,1.45-3.05c0.96-0.71,2.36-1.07,4.18-1.08h1.51v-0.72c0-0.58-0.15-1.04-0.44-1.39c-0.29-0.35-0.75-0.52-1.38-0.52c-0.55,0-0.99,0.13-1.3,0.4c-0.31,0.27-0.47,0.64-0.47,1.11h-3.28c0-0.72,0.22-1.39,0.66-2.01c0.44-0.62,1.06-1.1,1.86-1.45c0.8-0.35,1.7-0.53,2.7-0.53c1.51,0,2.71,0.39,3.6,1.16c0.89,0.77,1.33,1.86,1.33,3.27v5.42c0.01,1.19,0.17,2.09,0.49,2.69v0.2H118.06z M115.35,78.98c0.48,0,0.93-0.11,1.34-0.33s0.71-0.52,0.91-0.88v-2.15h-1.22c-1.64,0-2.51,0.58-2.62,1.73l-0.01,0.2c0,0.42,0.14,0.76,0.43,1.03C114.45,78.84,114.85,78.98,115.35,78.98z"></path>
		<path class="unep_0" d="M139.98,81.3h-3.29v-9.82h-4.1v9.82h-3.28V68.79h10.67V81.3z"></path>
		<path class="unep_0" d="M142.05,74.93c0-1.24,0.23-2.35,0.7-3.32c0.47-0.97,1.14-1.72,2.02-2.25c0.88-0.53,1.9-0.8,3.07-0.8c1.66,0,3.01,0.52,4.05,1.55c1.05,1.03,1.63,2.44,1.75,4.21l0.02,0.85c0,1.92-0.53,3.46-1.58,4.62c-1.05,1.16-2.46,1.74-4.23,1.74c-1.77,0-3.18-0.58-4.23-1.73c-1.06-1.16-1.58-2.73-1.58-4.72V74.93z M145.32,75.17c0,1.19,0.22,2.1,0.66,2.73c0.44,0.63,1.07,0.94,1.88,0.94c0.79,0,1.41-0.31,1.86-0.93c0.45-0.62,0.67-1.61,0.67-2.98c0-1.17-0.22-2.07-0.67-2.71c-0.45-0.64-1.07-0.96-1.88-0.96c-0.8,0-1.42,0.32-1.86,0.96C145.54,72.85,145.32,73.83,145.32,75.17z"></path>
	</g>
	<g>
		<path class="unep_0" d="M0,100.08c0-1.24,0.23-2.35,0.7-3.32s1.14-1.72,2.02-2.25c0.88-0.53,1.9-0.8,3.07-0.8c1.66,0,3.01,0.52,4.05,1.55c1.05,1.03,1.63,2.44,1.75,4.21l0.02,0.85c0,1.92-0.53,3.46-1.58,4.62c-1.05,1.16-2.46,1.74-4.23,1.74c-1.77,0-3.18-0.58-4.23-1.73C0.53,103.79,0,102.22,0,100.23V100.08z M3.28,100.32c0,1.19,0.22,2.1,0.66,2.73c0.44,0.63,1.07,0.94,1.88,0.94c0.79,0,1.41-0.31,1.86-0.93c0.45-0.62,0.67-1.61,0.67-2.98c0-1.17-0.22-2.07-0.67-2.71C7.23,96.73,6.6,96.4,5.79,96.4c-0.8,0-1.42,0.32-1.86,0.96C3.5,98,3.28,98.98,3.28,100.32z"></path>
		<path class="unep_0" d="M18.51,101.84H17.2v4.61h-3.28V93.94h3.28v4.71h1.17l2.67-4.71h4.14l-4.01,5.95l4.39,6.56h-4.37L18.51,101.84z"></path>
		<path class="unep_0" d="M37.9,100.31c0,1.93-0.43,3.47-1.29,4.63c-0.86,1.16-2.02,1.74-3.47,1.74c-1.24,0-2.24-0.44-3.01-1.32v5.9h-3.28V93.94h3.04l0.11,1.23c0.79-0.97,1.83-1.46,3.11-1.46c1.51,0,2.69,0.57,3.53,1.71s1.26,2.71,1.26,4.72V100.31z M34.63,100.07c0-1.16-0.2-2.06-0.61-2.69c-0.4-0.63-0.99-0.95-1.76-0.95c-1.03,0-1.74,0.4-2.12,1.2v5.12c0.4,0.82,1.12,1.24,2.14,1.24C33.84,103.99,34.63,102.68,34.63,100.07z"></path>
		<path class="unep_0" d="M44.46,101.72l2.27-7.78h3.52l-4.93,14.45l-0.27,0.66c-0.73,1.63-1.94,2.45-3.63,2.45c-0.48,0-0.96-0.07-1.45-0.22v-2.53l0.5,0.01c0.62,0,1.08-0.1,1.39-0.29c0.31-0.19,0.55-0.51,0.72-0.96l0.39-1.03l-4.3-12.55h3.53L44.46,101.72z"></path>
		<path class="unep_0" d="M63.41,101.82h-1.48v4.64h-3.28v-4.64h-1.46l-2.44,4.64h-3.96l3.87-6.55l-3.82-5.97h4.06l2.55,4.67h1.2v-4.67h3.28v4.67h1.22l2.56-4.67h4.06l-3.8,5.88l3.9,6.63h-4.02L63.41,101.82z"></path>
		<path class="unep_0" d="M78.61,106.45c-0.15-0.3-0.26-0.67-0.33-1.12c-0.79,0.9-1.83,1.35-3.1,1.35c-1.2,0-2.2-0.35-2.99-1.06c-0.79-0.71-1.18-1.6-1.18-2.68c0-1.33,0.48-2.34,1.45-3.05c0.96-0.71,2.36-1.07,4.18-1.08h1.51v-0.72c0-0.58-0.15-1.04-0.44-1.39c-0.29-0.35-0.75-0.52-1.38-0.52c-0.55,0-0.99,0.13-1.3,0.4c-0.31,0.27-0.47,0.64-0.47,1.11h-3.28c0-0.72,0.22-1.39,0.66-2.01c0.44-0.62,1.06-1.1,1.86-1.45c0.8-0.35,1.7-0.53,2.7-0.53c1.51,0,2.71,0.39,3.6,1.16c0.89,0.77,1.33,1.86,1.33,3.27v5.42c0.01,1.19,0.17,2.09,0.49,2.69v0.2H78.61z M75.9,104.13c0.48,0,0.93-0.11,1.34-0.33c0.41-0.22,0.71-0.52,0.91-0.88v-2.15h-1.22c-1.64,0-2.51,0.58-2.62,1.73l-0.01,0.2c0,0.42,0.14,0.76,0.43,1.03C75.01,103.99,75.4,104.13,75.9,104.13z"></path>
		<path class="unep_0" d="M87.57,98.74h1.77c0.24-1.56,0.87-2.79,1.88-3.68c1.01-0.9,2.28-1.35,3.82-1.35c1.66,0,3.01,0.52,4.05,1.55c1.05,1.03,1.63,2.44,1.75,4.21l0.02,0.85c0,1.92-0.53,3.46-1.58,4.62c-1.05,1.16-2.46,1.74-4.23,1.74c-1.59,0-2.9-0.47-3.92-1.41c-1.02-0.94-1.63-2.22-1.83-3.84h-1.74v5.02h-3.29V93.94h3.29V98.74z M92.51,100.32c0,1.19,0.22,2.1,0.66,2.73c0.44,0.63,1.07,0.94,1.88,0.94c0.81,0,1.43-0.31,1.87-0.94c0.44-0.63,0.66-1.62,0.66-2.98c0-1.17-0.22-2.07-0.67-2.71c-0.45-0.64-1.07-0.96-1.88-0.96c-0.8,0-1.42,0.32-1.86,0.96C92.73,98,92.51,98.98,92.51,100.32z"></path>
		<path class="unep_0" d="M106.17,93.94v9.82h3.37v-9.82h3.29v9.82h3.36v-9.82h3.29v9.84h2.44l-0.23,6.38h-3.05v-3.71H102.9V93.94H106.17z"></path>
		<path class="unep_0" d="M129.34,106.68c-1.8,0-3.26-0.56-4.39-1.69c-1.13-1.13-1.69-2.63-1.69-4.5v-0.32c0-1.26,0.24-2.38,0.71-3.37c0.48-0.99,1.15-1.75,2.02-2.29c0.87-0.54,1.87-0.8,2.99-0.8c1.68,0,3,0.54,3.96,1.62c0.96,1.08,1.45,2.61,1.45,4.59v1.36h-7.81c0.1,0.82,0.42,1.47,0.96,1.97c0.53,0.49,1.21,0.74,2.02,0.74c1.26,0,2.25-0.47,2.96-1.4l1.61,1.84c-0.49,0.71-1.16,1.26-2,1.66C131.29,106.48,130.36,106.68,129.34,106.68z M128.96,96.4c-0.65,0-1.18,0.23-1.58,0.67c-0.4,0.45-0.66,1.09-0.78,1.93h4.56v-0.27c-0.02-0.74-0.21-1.32-0.59-1.72S129.66,96.4,128.96,96.4z"></path>
		<path class="unep_0" d="M143.7,93.94h3.28v12.51h-3.28v-7.72l-4.1,7.72h-3.29V93.94h3.29v7.71L143.7,93.94z M145.63,88.88c0,1.02-0.36,1.85-1.08,2.48c-0.72,0.63-1.67,0.94-2.84,0.94c-1.17,0-2.12-0.31-2.84-0.93c-0.72-0.62-1.08-1.45-1.08-2.49h2.32c0,0.48,0.14,0.86,0.42,1.13c0.28,0.26,0.67,0.4,1.17,0.4c0.49,0,0.88-0.13,1.16-0.4c0.28-0.27,0.42-0.64,0.42-1.13H145.63z"></path>
		<path class="unep_0" d="M160.51,103.99c0.6,0,1.1-0.17,1.47-0.51c0.38-0.34,0.57-0.79,0.59-1.35h3.07c-0.01,0.85-0.23,1.63-0.68,2.33s-1.06,1.25-1.83,1.64c-0.77,0.39-1.63,0.58-2.57,0.58c-1.75,0-3.14-0.57-4.15-1.71c-1.01-1.14-1.52-2.71-1.52-4.71v-0.22c0-1.93,0.5-3.47,1.51-4.61c1.01-1.15,2.39-1.72,4.14-1.72c1.53,0,2.76,0.44,3.69,1.33c0.93,0.89,1.4,2.07,1.41,3.55h-3.07c-0.02-0.65-0.21-1.17-0.59-1.58c-0.38-0.4-0.88-0.61-1.5-0.61c-0.76,0-1.34,0.28-1.73,0.85c-0.39,0.57-0.58,1.49-0.58,2.76v0.35c0,1.29,0.19,2.22,0.58,2.78C159.13,103.71,159.72,103.99,160.51,103.99z"></path>
		<path class="unep_0" d="M178.62,100.31c0,1.93-0.43,3.47-1.29,4.63c-0.86,1.16-2.02,1.74-3.47,1.74c-1.24,0-2.24-0.44-3.01-1.32v5.9h-3.28V93.94h3.04l0.11,1.23c0.79-0.97,1.83-1.46,3.11-1.46c1.51,0,2.69,0.57,3.53,1.71s1.26,2.71,1.26,4.72V100.31z M175.35,100.07c0-1.16-0.2-2.06-0.61-2.69c-0.4-0.63-0.99-0.95-1.76-0.95c-1.03,0-1.74,0.4-2.12,1.2v5.12c0.4,0.82,1.12,1.24,2.14,1.24C174.57,103.99,175.35,102.68,175.35,100.07z"></path>
		<path class="unep_0" d="M186.37,106.68c-1.8,0-3.26-0.56-4.39-1.69c-1.13-1.13-1.69-2.63-1.69-4.5v-0.32c0-1.26,0.24-2.38,0.71-3.37c0.48-0.99,1.15-1.75,2.02-2.29c0.87-0.54,1.87-0.8,2.99-0.8c1.68,0,3,0.54,3.96,1.62c0.96,1.08,1.45,2.61,1.45,4.59v1.36h-7.81c0.1,0.82,0.42,1.47,0.96,1.97c0.53,0.49,1.21,0.74,2.02,0.74c1.26,0,2.25-0.47,2.96-1.4l1.61,1.84c-0.49,0.71-1.16,1.26-2,1.66C188.32,106.48,187.39,106.68,186.37,106.68z M186,96.4c-0.65,0-1.18,0.23-1.58,0.67c-0.4,0.45-0.66,1.09-0.78,1.93h4.56v-0.27c-0.02-0.74-0.21-1.32-0.59-1.72C187.23,96.61,186.69,96.4,186,96.4z"></path>
		<path class="unep_0" d="M193.51,103.76c0.74-0.8,1.24-1.59,1.51-2.38s0.41-1.9,0.44-3.34l0.09-4.09h9.02v9.82h1.77v6.45h-3.28v-3.76h-7.27v3.76h-3.34v-6.45H193.51z M197.38,103.76h3.93v-7.05h-2.55l-0.02,1.5C198.67,100.5,198.22,102.36,197.38,103.76z"></path>
		<path class="unep_0" d="M213.72,106.68c-1.8,0-3.26-0.56-4.39-1.69c-1.13-1.13-1.69-2.63-1.69-4.5v-0.32c0-1.26,0.24-2.38,0.71-3.37c0.48-0.99,1.15-1.75,2.02-2.29c0.87-0.54,1.87-0.8,2.99-0.8c1.68,0,3,0.54,3.96,1.62c0.96,1.08,1.45,2.61,1.45,4.59v1.36h-7.81c0.1,0.82,0.42,1.47,0.96,1.97c0.53,0.49,1.21,0.74,2.02,0.74c1.26,0,2.25-0.47,2.96-1.4l1.61,1.84c-0.49,0.71-1.16,1.26-2,1.66C215.67,106.48,214.74,106.68,213.72,106.68z M213.34,96.4c-0.65,0-1.18,0.23-1.58,0.67c-0.4,0.45-0.66,1.09-0.78,1.93h4.56v-0.27c-0.02-0.74-0.21-1.32-0.59-1.72S214.04,96.4,213.34,96.4z"></path>
	</g>
<g>
<g>
<g>
<g>
<g>
	<g>
		<path class="unep_0" d="M190.79,43.93c-6.74-2.04-11.65-8.29-11.65-15.7c0-1.34,0.16-2.64,0.46-3.88l10.65,1.37c0,0,4.09,0.18,3.94,7.42C194.04,40.16,190.79,43.93,190.79,43.93z"></path>
		<path class="unep_0" d="M200.3,43.93c6.74-2.04,11.65-8.29,11.65-15.7c0-1.34-0.16-2.64-0.46-3.88l-10.65,1.37c0,0-4.09,0.18-3.94,7.42C197.05,40.16,200.3,43.93,200.3,43.93z"></path>
		<path class="unep_0" d="M195.54,16.49c1.37,0,2.48,1.11,2.48,2.48c0,1.07-0.73,1.86-1.62,2.34c-0.11,0.06-0.21,0.11-0.19,0.28c0.02,0.18,0.53,0.27,0.75,0.32l14.31,1.66c-2.01-6.79-8.29-11.74-15.72-11.74h-0.02c-7.44,0-13.72,4.95-15.72,11.74l14.31-1.66c0.22-0.05,0.73-0.15,0.75-0.32c0.02-0.17-0.08-0.22-0.19-0.28c-0.89-0.47-1.62-1.27-1.62-2.34C193.06,17.6,194.17,16.49,195.54,16.49L195.54,16.49z"></path>
	</g>
	<g>
		<path class="unep_0" d="M202.08,55.53l0.97-0.61c0,0-4.6-6.24-14.89-6.24c-5.27,0-7.99,2.12-11.68,2.12c0,0-1.51,0.18-2.97-0.73c0,0,1.76,2.54,8.11,2.54c4.66,0,7.99-2.72,11.26-2.72C197.36,49.9,200.69,53.9,202.08,55.53z"></path>
	</g>
	<g>
		<path class="unep_0" d="M187.79,55.53l-0.97-0.61c0,0,4.6-6.24,14.89-6.24c5.27,0,7.99,2.12,11.69,2.12c0,0,1.51,0.18,2.97-0.73c0,0-1.76,2.54-8.11,2.54c-4.66,0-7.99-2.72-11.26-2.72C192.52,49.9,189.19,53.9,187.79,55.53z"></path>
	</g>
	<path class="unep_0" d="M182.89,48.15c-0.18,0.48-2.15-0.09-3.48,0.3c-1.49,0.44-9.35,1.39-12.81-6.78c0,0,3.27,3.51,5.81,3.75c2.54,0.24,5.33,0.85,7.69,2.18l0.54,0.12c0,0-0.08-0.24-0.3-0.36c-0.31-0.17-2.76-0.96-3.94-4.84c-0.61-2-0.48-3.45-0.73-4.48c0,0,2.66,2.97,3.75,4.84C180.53,44.76,180.65,46.88,182.89,48.15z"></path>
	<path class="unep_0" d="M174.87,44.03c-0.2,0.2-0.7-0.12-0.88-0.21c-0.18-0.09-1.49-0.69-3.72-1.48c-2.21-0.79-6.33-4.27-5.93-10.23c0,0,0.58,2.24,2.27,3.72c1.7,1.48,2.3,1.66,3.33,2.88c1.03,1.21,3.36,3.97,3.45,3.94c0.09-0.03,0.12-0.18-0.06-0.33s-0.79-1.66-1.18-2.18c-0.39-0.51-1.57-4.06,0.15-8.42c0,0,1.85,3.18,1.73,6.39c-0.12,3.21-0.27,2.45,0.51,5.12C174.54,43.21,174.96,43.94,174.87,44.03z"></path>
	<path class="unep_0" d="M169.72,36.25c-0.11,0.11-0.58-0.58-0.94-1.21c-0.36-0.64-2.91-3.36-3.24-3.91c-0.33-0.54-3.18-4-1.03-9.11c0,0,0.21-0.06,0.21,1.15c0,1.21,1.12,3.91,2.03,5.06c0.91,1.15,1.73,3,1.91,4.96c0,0,0.12,0.36,0.27,0.39c0.15,0.03,0.15-0.36,0.15-0.36s-0.12-1.82-0.12-3.06c0-1.24,0.54-3.36,1.73-4.57c0,0,0.54-0.61,0.88-1.33c0,0,0.21-0.48,0.51-0.73c0,0,0.24,3.48-0.94,6.72c-1.18,3.24-1.57,3.78-1.39,5.54C169.75,35.8,169.78,36.19,169.72,36.25z"></path>
	<path class="unep_0" d="M167.72,26.68c-0.12,0-0.21-0.42-0.27-0.76c-0.06-0.33-0.42-2.27-0.67-2.69c-0.24-0.42-1.15-2.36-1.18-4.63c-0.03-2.27,1-5.36,3.3-7.81c0,0-0.09,0.73-0.7,2.33c-0.61,1.6-0.24,3.12-0.18,3.39c0.06,0.27,0.27,2.15,0.27,3.03c0,0.7-0.18,3.09-0.33,3.57c0,0-0.06,0.33,0.06,0.33s0.24-0.27,0.24-0.27s0.12-1.88,1.51-3.57c1.39-1.7,3.91-2.72,4.3-3.48c0,0-0.18,2.66-3.12,5.78c-2.61,2.78-1.85,1.36-2.69,3.63c0,0-0.36,0.85-0.36,1.03C167.91,26.75,167.72,26.68,167.72,26.68z"></path>
	<path class="unep_0" d="M169.33,17.72c0,0-0.06-0.36,0.39-1.18c0.45-0.82-0.03-2.27,0.58-4.39s1.73-5.75,5.99-7.93c0,0-0.42,0.39-0.64,0.7c-0.21,0.3-1.36,2.48-1.7,4c-0.33,1.51-1.79,4.06-2.33,4.63c-0.54,0.58-0.3,0.64-0.3,0.64s0.27-0.06,0.54-0.48c0.27-0.42,1.66-2,3.21-2.36c1.54-0.36,4-1.09,4.15-1.24c0,0-2.66,2.72-5.12,4.12s-2.72,0.97-4.18,2.85C169.93,17.06,169.45,17.72,169.33,17.72z"></path>
	<path class="unep_0" d="M175.2,9.64c0,0,0-0.24,0.45-0.67c0.45-0.42,0.91-1.7,1.7-2.88c0.79-1.18,2.57-4.27,7.2-4.99c0,0-1.39,1.03-1.6,1.36c-0.21,0.33-1.57,2.12-2.18,2.72s-2.33,1.88-2.91,2.15c0,0-0.3,0.24-0.24,0.33c0.06,0.09,0.36-0.09,0.36-0.09s1.6-1.24,3.54-1.3c1.94-0.06,3.97,0.03,4.27,0.06c0,0-1.82,1.24-6.15,2.03c-4.33,0.79-3.51,0.82-4.18,1.24C175.47,9.61,175.32,9.73,175.2,9.64z"></path>
	<path class="unep_0" d="M182.92,4.62c0,0,0.09-0.24,0.79-0.45c0.7-0.21,0.64-0.88,2.75-2c2.12-1.12,4.33-1.63,6.57-0.7c0,0-0.94,0.12-1.09,0.18c-0.15,0.06-1.76,0.48-2.21,0.73c-0.45,0.24-2.78,1.27-3.72,1.45c-0.94,0.18-0.48,0.24-0.48,0.24s0.21,0.09,0.39,0.09s2.27-0.21,3.63,0.27c1.36,0.48,1.33,0.67,1.88,0.85c0.54,0.18,1.18,0.3,1.27,0.51c0,0-1.36,0.12-2.18,0.12c-0.82,0-2.97-0.21-4-0.7c-1.03-0.48-2.21-0.7-2.6-0.61C183.53,4.71,183.04,4.71,182.92,4.62z"></path>
	<path class="unep_0" d="M191.52,3.56c0,0,0.09-0.12,0.7-0.24s0.76-0.48,2.18-0.79c1.42-0.3,3.63-0.58,5.66,0.82c0,0-1.24-0.03-1.51-0.03s-2.63,0.42-3.18,0.42c-0.54,0-1.63-0.24-1.79-0.06c-0.15,0.18,1,0.42,1.18,0.48c0.18,0.06,1,0.12,2.03,1.12s1.76,1.54,1.88,1.6c0,0-3.03-0.7-3.78-1.12c-0.76-0.42-2.06-1.73-2.27-1.82C192.4,3.86,191.52,3.56,191.52,3.56z"></path>
	<path class="unep_0" d="M198.51,4.8c0,0,1.91-0.06,3.3,0.82c1.39,0.88,2.51,2.03,2.63,2.72c0,0-0.79-0.67-1.3-0.82c-0.51-0.15-1.97-0.97-2.27-1.15C200.57,6.19,198.81,5.07,198.51,4.8z"></path>
	<path class="unep_0" d="M207.47,48.48c0,0,0.27-0.27,1.18-1.06c0.91-0.79,1.15-1.94,2.15-3.72c1-1.79,1.85-3.03,3.87-4.84c0,0-0.36,1.36-0.39,1.79c-0.03,0.42-0.36,2.78-1.51,4.15c-1.15,1.36-1.21,1.66-2.54,2.48c0,0-0.51,0.36-0.48,0.48c0.03,0.12,0.91-0.03,0.91-0.03s0.97-0.36,1.27-0.54c0.3-0.18,1.66-0.88,2.21-1.09c0.54-0.21,1-0.42,2.21-0.79c1.21-0.36,5.6-1.48,7.33-4.27c0,0-0.51,1.63-1.15,2.39c-0.64,0.76-4.24,5.51-9.23,5.42c0,0-1.97-0.15-3-0.33c-1.03-0.18-1.39-0.18-1.54-0.15C208.59,48.39,207.62,48.57,207.47,48.48z"></path>
	<path class="unep_0" d="M218.64,31.5c0,0-1.88,2.94-2.3,7.17c-0.42,4.24,0.3,2.97-0.39,4.84c0,0-0.24,0.48-0.15,0.51c0.09,0.03,0.45-0.18,1.79-1c1.33-0.82,2.63-0.58,5.48-3.3c2.85-2.72,3.42-8.14,3.48-8.6c0,0-0.42,0.42-0.64,1.15c-0.21,0.73-0.67,1.3-0.76,1.39c-0.09,0.09-3.18,3.48-3.54,3.78c-0.36,0.3-2.18,2.51-2.57,3.15c-0.39,0.64-1.54,1.79-1.76,1.7c0,0,0.03-0.27,0.12-0.48c0.09-0.21,0.94-1.36,1.3-2.69c0.36-1.33,0.45-2.15,0.48-3C219.22,35.28,218.67,32.16,218.64,31.5z"></path>
	<path class="unep_0" d="M221.18,35.58c0,0-0.19-0.44-0.03-0.76c0.09-0.18,0.18-1.63-0.36-2.82c-0.54-1.18-1.73-4.45-1.63-6.63c0.09-2.18,0.33-2.48,0.33-2.48s0.61,1.79,0.79,2.09c0.18,0.3,2,3.51,1.85,5.27c-0.15,1.76-0.24,2.3-0.15,2.33c0.09,0.03,0.3-0.21,0.33-0.42c0.03-0.21,0.33-1.42,0.91-2.85c0.58-1.42,2.91-4.57,3.42-6.66c0,0,0.76,3.63-1.27,7.02c-2.03,3.39-2.24,2.63-3.09,4.18C221.43,35.4,221.31,35.58,221.18,35.58z"></path>
	<path class="unep_0" d="M223.03,25.99c-0.15-0.03-0.06-1.42-0.42-1.88c-0.36-0.45-3.48-4.15-4.15-7.84c0,0,1.97,2,2.3,2.21c0.33,0.21,1.66,1.54,2.06,2.69c0.39,1.15,0.3,2.12,0.45,2.15c0.15,0.03,0.15-1.27,0.15-1.27s0.03-2.54,0.24-3.75c0.21-1.21,0.76-3.24,0.51-4.27c0,0,1.18,1.88,1.12,4.54c-0.06,2.66-1.18,4.78-1.33,5.09c-0.15,0.3-0.58,1.6-0.58,1.88S223.03,25.99,223.03,25.99z"></path>
	<path class="unep_0" d="M219.34,7.04c0,0,4.09,2.42,3.45,10.53c0,0,0,0.36-0.24-0.03s-1.12-1.51-1.51-1.76c-0.39-0.24-4.03-2.45-5.57-5.84c0,0,0.24-0.06,0.61,0.27c0.36,0.33,1.48,0.91,1.66,1c0.18,0.09,1.45,0.42,2.39,1.45s1.27,1.79,1.54,2.39c0,0,0.27,0.21,0.09-0.39c-0.18-0.61-0.21-1-0.7-1.76c-0.48-0.76-0.91-2.12-0.97-3.06C220.03,8.92,219.76,7.52,219.34,7.04z"></path>
	<path class="unep_0" d="M218.64,9.88c0,0,0.09-0.54-0.3-1.3c-0.39-0.76-0.09-1.6-1.33-3.6c-0.7-1.12-3.12-2-3.12-2s0.7,0.97,1.15,1.51c0.45,0.54,0.61,0.94,0.76,1.21c0.15,0.27,0.99,1.08,1.3,1.54c0.06,0.09,0.18,0.33,0.18,0.48s-0.33-0.09-0.42-0.18c-0.09-0.09-1.57-1.21-2.51-1.39c-0.94-0.18-2.72-0.36-3.21-0.61c0,0,2.12,1.91,4.42,2.48C217.85,8.61,218.64,9.88,218.64,9.88z"></path>
	<path class="unep_0" d="M213.86,4.89c0,0-2.12-2.88-5.9-2.82c0,0,0.21,0.21,0.64,0.3c0.42,0.09,1.18,0.85,1.57,1.09C210.56,3.71,211.38,4.31,213.86,4.89z"></path>
</g>
</g>
</g>
</g>
</g>
<g>
	<g>
		<path class="unep_0" d="M46.41,28.99c0,4.13-0.56,7.84-1.67,11.12c-1.11,3.28-2.68,6.06-4.7,8.33c-2.02,2.28-4.44,4.03-7.26,5.25c-2.82,1.23-5.93,1.84-9.32,1.84s-6.5-0.61-9.32-1.84c-2.82-1.23-5.25-2.98-7.29-5.25c-2.04-2.28-3.63-5.05-4.77-8.33c-1.14-3.28-1.71-6.98-1.71-11.12v-2.38c0-4.11,0.56-7.81,1.69-11.1c1.13-3.29,2.7-6.09,4.73-8.39c2.03-2.3,4.45-4.07,7.28-5.29C16.89,0.61,20,0,23.39,0c3.39,0,6.5,0.61,9.32,1.84c2.82,1.22,5.25,2.99,7.28,5.29c2.03,2.3,3.61,5.1,4.73,8.39c1.13,3.29,1.69,6.99,1.69,11.1V28.99z M35.12,26.54c0-5.67-1.01-9.97-3.04-12.92c-2.03-2.95-4.93-4.42-8.69-4.42c-3.76,0-6.66,1.47-8.69,4.42c-2.03,2.95-3.04,7.25-3.04,12.92v2.45c0,2.82,0.27,5.31,0.8,7.48c0.53,2.17,1.3,3.98,2.3,5.46c1,1.47,2.23,2.59,3.69,3.34c1.46,0.76,3.13,1.13,5.01,1.13c3.76,0,6.65-1.48,8.65-4.45c2-2.97,3.01-7.29,3.01-12.96V26.54z"></path>
		<path class="unep_0" d="M98.9,28.99c0,4.13-0.56,7.84-1.67,11.12c-1.11,3.28-2.68,6.06-4.7,8.33c-2.02,2.28-4.44,4.03-7.26,5.25c-2.82,1.23-5.93,1.84-9.32,1.84c-3.39,0-6.5-0.61-9.32-1.84c-2.82-1.23-5.25-2.98-7.29-5.25c-2.04-2.28-3.63-5.05-4.77-8.33c-1.14-3.28-1.71-6.98-1.71-11.12v-2.38c0-4.11,0.56-7.81,1.69-11.1c1.13-3.29,2.7-6.09,4.73-8.39c2.03-2.3,4.45-4.07,7.28-5.29C69.38,0.61,72.49,0,75.88,0c3.39,0,6.5,0.61,9.32,1.84c2.82,1.22,5.25,2.99,7.28,5.29c2.03,2.3,3.61,5.1,4.73,8.39c1.13,3.29,1.69,6.99,1.69,11.1V28.99z M87.61,26.54c0-5.67-1.01-9.97-3.04-12.92c-2.03-2.95-4.93-4.42-8.69-4.42c-3.76,0-6.66,1.47-8.69,4.42c-2.03,2.95-3.04,7.25-3.04,12.92v2.45c0,2.82,0.27,5.31,0.8,7.48s1.3,3.98,2.3,5.46c1,1.47,2.23,2.59,3.69,3.34c1.46,0.76,3.13,1.13,5.01,1.13c3.76,0,6.65-1.48,8.65-4.45c2-2.97,3.01-7.29,3.01-12.96V26.54z"></path>
		<path class="unep_0" d="M150.98,54.79h-11.14V31.63h-21.72v23.16h-11.14V0.74h11.14v21.9h21.72V0.74h11.14V54.79z"></path>
	</g>
</g>
</g>
</svg>