<?xml version="1.0" encoding="utf-8"?>
<!-- Generator: Adobe Illustrator 25.4.1, SVG Export Plug-In . SVG Version: 6.00 Build 0)  -->
<svg version="1.1" id="Layer_1" xmlns="http://www.w3.org/2000/svg" xmlns:xlink="http://www.w3.org/1999/xlink" x="0px" y="0px"
	 viewBox="0 0 130.1 46.3" style="enable-background:new 0 0 130.1 46.3;" xml:space="preserve">
<style type="text/css">
	.st0{fill:#FFFFFF;}
	.st1{clip-path:url(#SVGID_00000152978080387568549660000002687087943905636742_);}
	.st2{opacity:0.4;}
	.st3{opacity:0.6;clip-path:url(#SVGID_00000152978080387568549660000002687087943905636742_);}
	.st4{opacity:0.5;fill:#FFFFFF;}
	.st5{opacity:0.6;clip-path:url(#SVGID_00000152978080387568549660000002687087943905636742_);fill:#FFFFFF;}
</style>
<g>
	<g>
		<rect x="87.3" class="st0" width="0.9" height="43.9"/>
	</g>
	<g>
		<polygon class="st0" points="95.8,36.7 94.7,36.7 94.7,32.3 93.6,32.3 93.6,31.5 95.8,31.3 		"/>
		<path class="st0" d="M101.1,14.3c-0.7,0-1.3,0.1-1.8,0.3c-0.6,0.2-1,0.4-1.4,0.7l0.5-4.7h7.8V7.4h-11L94,18.6l3.5,0.2
			c0.2-0.5,0.5-0.9,0.9-1.2c0.4-0.3,1-0.4,1.8-0.4c0.9,0,1.6,0.3,2.1,1s0.7,1.6,0.7,2.8s-0.2,2-0.7,2.7c-0.4,0.6-1.1,0.9-2.1,0.9
			c-0.8,0-1.5-0.2-2-0.7s-0.8-1.1-0.8-2l-3.8,0.2v0.1c0,1.7,0.6,3,1.9,4s2.9,1.5,4.7,1.5c2.3,0,4-0.6,5.1-1.9
			c1.1-1.2,1.7-2.8,1.7-4.8c0-2.1-0.5-3.8-1.5-4.9C104.4,14.9,103,14.3,101.1,14.3"/>
		<path class="st0" d="M99.1,36c0.3,0,0.5-0.1,0.7-0.3s0.2-0.5,0.2-0.8v-0.3c-0.1,0.2-0.3,0.3-0.4,0.3C99.4,35,99.3,35,99.1,35
			c-0.5,0-0.9-0.2-1.2-0.5c-0.3-0.3-0.4-0.8-0.4-1.3s0.2-1,0.5-1.3s0.8-0.5,1.3-0.5s1,0.2,1.3,0.5s0.5,0.9,0.5,1.5v1.4
			c0,0.6-0.2,1.1-0.5,1.5s-0.8,0.5-1.4,0.5c-0.2,0-0.4,0-0.6-0.1s-0.4-0.1-0.5-0.2l0.2-0.8c0.2,0.1,0.3,0.1,0.5,0.1
			C98.8,36,98.9,36,99.1,36 M99.2,34.2c0.2,0,0.3,0,0.5-0.1c0.1-0.1,0.2-0.2,0.3-0.3v-0.6c0-0.3-0.1-0.6-0.2-0.8s-0.3-0.3-0.5-0.3
			s-0.4,0.1-0.5,0.3s-0.2,0.4-0.2,0.7s0.1,0.5,0.2,0.7C98.8,34.1,99,34.2,99.2,34.2"/>
		<path class="st0" d="M105.4,32.2c-0.6,0.7-1,1.3-1.2,1.9c-0.2,0.6-0.3,1.2-0.3,1.9v0.7h-1.1V36c0-0.7,0.1-1.4,0.4-2
			s0.7-1.2,1.2-1.8h-2.7v-0.8h3.7V32.2L105.4,32.2z"/>
		<path class="st0" d="M109.7,36.7h-3.6V36l1.6-1.9c0.2-0.3,0.4-0.5,0.5-0.7s0.2-0.4,0.2-0.5c0-0.2,0-0.4-0.2-0.5s-0.3-0.2-0.5-0.2
			s-0.4,0.1-0.5,0.2S107,32.8,107,33h-1l0,0c0-0.5,0.1-0.9,0.5-1.2c0.3-0.3,0.8-0.5,1.3-0.5s1,0.1,1.3,0.4s0.5,0.7,0.5,1.1
			c0,0.3-0.1,0.6-0.2,0.9s-0.5,0.6-0.9,1.1l-0.9,1l0,0h2.2L109.7,36.7L109.7,36.7z"/>
		<rect x="110.5" y="34" class="st0" width="2.2" height="0.8"/>
		<path class="st0" d="M117.2,36.7h-3.6V36l1.6-1.9c0.2-0.3,0.4-0.5,0.5-0.7s0.2-0.4,0.2-0.5c0-0.2,0-0.4-0.2-0.5s-0.3-0.2-0.5-0.2
			s-0.4,0.1-0.5,0.2s-0.2,0.4-0.2,0.6h-1l0,0c0-0.5,0.1-0.9,0.5-1.2c0.3-0.3,0.8-0.5,1.3-0.5s1,0.1,1.3,0.4s0.5,0.7,0.5,1.1
			c0,0.3-0.1,0.6-0.2,0.9s-0.5,0.6-0.9,1.1l-0.9,1l0,0h2.2L117.2,36.7L117.2,36.7z"/>
		<path class="st0" d="M121.5,34.8c0,0.6-0.2,1.1-0.5,1.5s-0.8,0.5-1.3,0.5s-1-0.2-1.3-0.5s-0.5-0.8-0.5-1.5v-1.5
			c0-0.6,0.2-1.1,0.5-1.5c0.3-0.4,0.8-0.5,1.3-0.5s1,0.2,1.3,0.5s0.5,0.8,0.5,1.5V34.8L121.5,34.8z M120.4,33.2
			c0-0.3-0.1-0.6-0.2-0.8s-0.3-0.3-0.5-0.3s-0.4,0.1-0.5,0.3s-0.2,0.5-0.2,0.8v1.7c0,0.3,0.1,0.6,0.2,0.8s0.3,0.3,0.5,0.3
			s0.4-0.1,0.5-0.3s0.2-0.5,0.2-0.8V33.2z"/>
		<path class="st0" d="M125.8,36.7h-3.6V36l1.6-1.9c0.2-0.3,0.4-0.5,0.5-0.7s0.2-0.4,0.2-0.5c0-0.2,0-0.4-0.2-0.5s-0.3-0.2-0.5-0.2
			s-0.4,0.1-0.5,0.2s-0.2,0.4-0.2,0.6h-1l0,0c0-0.5,0.1-0.9,0.5-1.2c0.3-0.3,0.8-0.5,1.3-0.5s1,0.1,1.3,0.4s0.5,0.7,0.5,1.1
			c0,0.3-0.1,0.6-0.2,0.9s-0.5,0.6-0.9,1.1l-0.9,1l0,0h2.2L125.8,36.7L125.8,36.7z"/>
		<path class="st0" d="M130.1,36.7h-3.6V36l1.6-1.9c0.2-0.3,0.4-0.5,0.5-0.7s0.2-0.4,0.2-0.5c0-0.2,0-0.4-0.2-0.5s-0.3-0.2-0.5-0.2
			s-0.4,0.1-0.5,0.2s-0.2,0.4-0.2,0.6h-1l0,0c0-0.5,0.1-0.9,0.5-1.2c0.3-0.3,0.8-0.5,1.3-0.5s1,0.1,1.3,0.4s0.5,0.7,0.5,1.1
			c0,0.3-0.1,0.6-0.2,0.9s-0.5,0.6-0.9,1.1l-0.9,1l0,0h2.2L130.1,36.7L130.1,36.7z"/>
	</g>
	<g>
		<g>
			<path class="st0" d="M5.2,30.5c0,0.9-0.2,1.6-0.6,2.1S3.7,33.4,3,33.4c-0.6,0-1-0.2-1.4-0.6v2.7H0.1v-7.9h1.4v0.6
				c0.4-0.4,0.8-0.7,1.4-0.7c0.7,0,1.2,0.3,1.6,0.8C5,28.8,5.2,29.5,5.2,30.5L5.2,30.5L5.2,30.5z M3.7,30.4c0-0.5-0.1-0.9-0.3-1.2
				c-0.2-0.3-0.5-0.4-0.8-0.4c-0.5,0-0.8,0.2-1,0.5v2.3c0.2,0.4,0.5,0.6,1,0.6C3.3,32.2,3.7,31.5,3.7,30.4z"/>
			<path class="st0" d="M9.3,29c-0.2,0-0.4,0-0.5,0c-0.6,0-0.9,0.2-1.1,0.6v3.7H6.2v-5.7h1.4v0.7c0.3-0.5,0.7-0.8,1.2-0.8
				c0.2,0,0.3,0,0.5,0.1V29z"/>
			<path class="st0" d="M9.7,30.4c0-0.6,0.1-1.1,0.3-1.5s0.5-0.8,0.9-1s0.9-0.4,1.4-0.4c0.8,0,1.4,0.2,1.9,0.7s0.7,1.1,0.8,1.9v0.4
				c0,0.9-0.2,1.6-0.7,2.1s-1.1,0.8-1.9,0.8s-1.5-0.3-1.9-0.8C9.9,32.1,9.7,31.3,9.7,30.4L9.7,30.4L9.7,30.4z M11.2,30.5
				c0,0.5,0.1,1,0.3,1.2c0.2,0.3,0.5,0.4,0.9,0.4s0.6-0.1,0.9-0.4c0.2-0.3,0.3-0.7,0.3-1.4c0-0.5-0.1-0.9-0.3-1.2
				c-0.2-0.3-0.5-0.4-0.9-0.4s-0.6,0.2-0.9,0.4S11.2,29.9,11.2,30.5z"/>
			<path class="st0" d="M15.7,30.4c0-0.9,0.2-1.6,0.6-2.1s1-0.8,1.6-0.8s1.1,0.2,1.4,0.6l0.1-0.5h1.4v5.5c0,0.5-0.1,0.9-0.3,1.3
				S20,35,19.6,35.2s-0.9,0.3-1.4,0.3c-0.4,0-0.8-0.1-1.2-0.2s-0.7-0.4-0.9-0.7l0.7-0.9c0.4,0.4,0.8,0.6,1.4,0.6
				c0.4,0,0.7-0.1,0.9-0.3c0.2-0.2,0.3-0.5,0.3-0.9v-0.3c-0.4,0.4-0.8,0.6-1.4,0.6c-0.7,0-1.2-0.3-1.6-0.8
				C15.9,32,15.7,31.3,15.7,30.4L15.7,30.4L15.7,30.4z M17.2,30.5c0,0.5,0.1,0.9,0.3,1.2c0.2,0.3,0.5,0.4,0.8,0.4
				c0.5,0,0.8-0.2,1-0.5v-2.4c-0.2-0.3-0.5-0.5-1-0.5c-0.4,0-0.6,0.2-0.9,0.5C17.3,29.4,17.2,29.9,17.2,30.5z"/>
			<path class="st0" d="M25.2,29c-0.2,0-0.4,0-0.5,0c-0.6,0-0.9,0.2-1.1,0.6v3.7h-1.5v-5.7h1.4v0.7c0.3-0.5,0.7-0.8,1.2-0.8
				c0.2,0,0.3,0,0.5,0.1V29z"/>
			<path class="st0" d="M29.1,33.3C29,33.1,29,33,28.9,32.8c-0.4,0.4-0.8,0.6-1.4,0.6c-0.5,0-1-0.2-1.4-0.5s-0.5-0.7-0.5-1.2
				c0-0.6,0.2-1.1,0.7-1.4s1.1-0.5,1.9-0.5h0.7v-0.3c0-0.3-0.1-0.5-0.2-0.6s-0.3-0.2-0.6-0.2c-0.2,0-0.5,0.1-0.6,0.2
				s-0.2,0.3-0.2,0.5h-1.5c0-0.3,0.1-0.6,0.3-0.9s0.5-0.5,0.9-0.7s0.8-0.2,1.2-0.2c0.7,0,1.2,0.2,1.6,0.5s0.6,0.8,0.6,1.5V32
				c0,0.5,0.1,1,0.2,1.2v0.1H29.1L29.1,33.3z M27.9,32.2c0.2,0,0.4,0,0.6-0.2c0.2-0.1,0.3-0.2,0.4-0.4v-1h-0.6
				c-0.8,0-1.1,0.3-1.2,0.8v0.1c0,0.2,0.1,0.3,0.2,0.5S27.6,32.2,27.9,32.2z"/>
			<path class="st0" d="M33,27.6v0.6c0.4-0.5,0.9-0.7,1.6-0.7c0.7,0,1.2,0.3,1.5,0.9c0.4-0.6,1-0.9,1.7-0.9c0.6,0,1.1,0.2,1.4,0.5
				s0.4,0.9,0.4,1.6v3.7h-1.5v-3.6c0-0.3-0.1-0.6-0.2-0.7c-0.1-0.2-0.3-0.2-0.7-0.2c-0.5,0-0.8,0.2-0.9,0.7v3.9h-1.5v-3.6
				c0-0.3-0.1-0.6-0.2-0.7s-0.4-0.2-0.6-0.2c-0.4,0-0.7,0.2-0.9,0.5v4h-1.5v-5.7L33,27.6L33,27.6z"/>
			<path class="st0" d="M42.2,27.6v0.6c0.4-0.5,0.9-0.7,1.6-0.7c0.7,0,1.2,0.3,1.5,0.9c0.4-0.6,1-0.9,1.7-0.9c0.6,0,1.1,0.2,1.4,0.5
				s0.4,0.9,0.4,1.6v3.7h-1.5v-3.6c0-0.3-0.1-0.6-0.2-0.7c-0.1-0.2-0.3-0.2-0.7-0.2c-0.5,0-0.8,0.2-0.9,0.7v3.9H44v-3.6
				c0-0.3-0.1-0.6-0.2-0.7s-0.4-0.2-0.6-0.2c-0.4,0-0.7,0.2-0.9,0.5v4h-1.5v-5.7L42.2,27.6L42.2,27.6z"/>
			<path class="st0" d="M52.6,33.4c-0.8,0-1.5-0.3-2-0.8s-0.8-1.2-0.8-2v-0.2c0-0.6,0.1-1.1,0.3-1.5c0.2-0.5,0.5-0.8,0.9-1
				s0.8-0.4,1.4-0.4c0.8,0,1.4,0.2,1.8,0.7s0.7,1.2,0.7,2.1v0.6h-3.6c0,0.4,0.2,0.7,0.4,0.9c0.2,0.2,0.5,0.3,0.9,0.3
				c0.6,0,1-0.2,1.3-0.6l0.7,0.8c-0.2,0.3-0.5,0.6-0.9,0.8C53.5,33.3,53.1,33.4,52.6,33.4z M52.5,28.7c-0.3,0-0.5,0.1-0.7,0.3
				c-0.2,0.2-0.3,0.5-0.3,0.9h2.1v-0.1c0-0.3-0.1-0.6-0.3-0.8S52.8,28.7,52.5,28.7z"/>
			<path class="st0" d="M63.6,30.5c0,0.9-0.2,1.6-0.6,2.1s-0.9,0.8-1.6,0.8c-0.6,0-1-0.2-1.4-0.6v2.7h-1.5v-7.9h1.4v0.6
				c0.4-0.4,0.8-0.7,1.4-0.7c0.7,0,1.2,0.3,1.6,0.8S63.6,29.5,63.6,30.5L63.6,30.5L63.6,30.5z M62.1,30.4c0-0.5-0.1-0.9-0.3-1.2
				c-0.2-0.3-0.5-0.4-0.8-0.4c-0.5,0-0.8,0.2-1,0.5v2.3c0.2,0.4,0.5,0.6,1,0.6C61.7,32.2,62.1,31.5,62.1,30.4z"/>
			<path class="st0" d="M64.4,30.4c0-0.6,0.1-1.1,0.3-1.5s0.5-0.8,0.9-1s0.9-0.4,1.4-0.4c0.8,0,1.4,0.2,1.8,0.7
				c0.5,0.5,0.7,1.1,0.8,1.9v0.4c0,0.9-0.2,1.6-0.7,2.1s-1.1,0.8-1.9,0.8s-1.5-0.3-1.9-0.8C64.6,32.1,64.4,31.3,64.4,30.4L64.4,30.4
				L64.4,30.4z M65.8,30.5c0,0.5,0.1,1,0.3,1.2c0.2,0.3,0.5,0.4,0.9,0.4s0.6-0.1,0.8-0.4c0.2-0.3,0.3-0.7,0.3-1.4
				c0-0.5-0.1-0.9-0.3-1.2c-0.2-0.3-0.5-0.4-0.9-0.4s-0.7,0.2-0.8,0.4S65.8,29.9,65.8,30.5z"/>
			<path class="st0" d="M74,32.7c-0.4,0.5-0.9,0.7-1.5,0.7s-1.1-0.2-1.4-0.5s-0.5-0.9-0.5-1.5v-3.7h1.5v3.7c0,0.6,0.3,0.9,0.8,0.9
				s0.9-0.2,1-0.5v-4h1.5v5.7H74V32.7z"/>
			<path class="st0" d="M79.8,29c-0.2,0-0.4,0-0.5,0c-0.6,0-0.9,0.2-1.1,0.6v3.7h-1.5v-5.7H78v0.7c0.3-0.5,0.7-0.8,1.2-0.8
				c0.2,0,0.3,0,0.5,0.1L79.8,29z"/>
		</g>
		<g>
			<path class="st0" d="M1.7,46.2H0.2v-8.1h1.5V46.2z"/>
			<path class="st0" d="M3.9,38.9L3.7,41h-1v-2.9h1.1L3.9,38.9L3.9,38.9z"/>
			<path class="st0" d="M7.1,46.3c-0.8,0-1.5-0.3-2-0.8s-0.8-1.2-0.8-2v-0.2c0-0.6,0.1-1.1,0.3-1.5s0.5-0.8,0.9-1s0.9-0.4,1.4-0.4
				c0.8,0,1.4,0.2,1.8,0.7s0.7,1.2,0.7,2.1v0.6H5.8c0,0.4,0.2,0.7,0.4,0.9C6.4,44.9,6.7,45,7.1,45c0.6,0,1-0.2,1.4-0.6l0.7,0.8
				C9,45.5,8.7,45.8,8.3,46S7.5,46.3,7.1,46.3z M6.9,41.6c-0.3,0-0.5,0.1-0.7,0.3s-0.3,0.5-0.4,0.9h2.1v-0.1c0-0.3-0.1-0.6-0.3-0.8
				C7.5,41.7,7.2,41.6,6.9,41.6z"/>
			<path class="st0" d="M11.6,40.5v0.7c0.4-0.5,0.9-0.8,1.6-0.8c0.6,0,1,0.2,1.3,0.5c0.3,0.4,0.4,0.9,0.4,1.6v3.7h-1.5v-3.7
				c0-0.3-0.1-0.6-0.2-0.7c-0.1-0.2-0.4-0.2-0.7-0.2c-0.4,0-0.7,0.2-1,0.5v4H10v-5.7L11.6,40.5L11.6,40.5z"/>
			<path class="st0" d="M18.4,44.4l1-3.8H21l-1.9,5.7h-1.4l-1.9-5.7h1.6L18.4,44.4z"/>
			<path class="st0" d="M21.7,39c0-0.2,0.1-0.4,0.2-0.6c0.1-0.2,0.4-0.2,0.6-0.2s0.5,0.1,0.6,0.2s0.2,0.3,0.2,0.6
				c0,0.2-0.1,0.4-0.2,0.6c-0.1,0.2-0.4,0.2-0.6,0.2s-0.5-0.1-0.6-0.2C21.8,39.5,21.7,39.3,21.7,39z M23.3,46.2h-1.5v-5.7h1.5V46.2z
				"/>
			<path class="st0" d="M27.7,41.9c-0.2,0-0.4,0-0.5,0c-0.6,0-0.9,0.2-1.1,0.6v3.7h-1.5v-5.7H26v0.7c0.3-0.5,0.7-0.8,1.2-0.8
				c0.2,0,0.3,0,0.5,0.1V41.9z"/>
			<path class="st0" d="M28.1,43.3c0-0.6,0.1-1.1,0.3-1.5s0.5-0.8,0.9-1s0.9-0.4,1.4-0.4c0.8,0,1.4,0.2,1.9,0.7s0.7,1.1,0.8,1.9v0.4
				c0,0.9-0.2,1.6-0.7,2.1s-1.1,0.8-1.9,0.8s-1.5-0.3-1.9-0.8C28.3,45,28.1,44.3,28.1,43.3L28.1,43.3L28.1,43.3z M29.6,43.4
				c0,0.5,0.1,1,0.3,1.2c0.2,0.3,0.5,0.4,0.9,0.4s0.6-0.1,0.9-0.4c0.2-0.3,0.3-0.7,0.3-1.4c0-0.5-0.1-0.9-0.3-1.2
				c-0.2-0.3-0.5-0.4-0.9-0.4s-0.6,0.2-0.9,0.4C29.7,42.4,29.6,42.8,29.6,43.4z"/>
			<path class="st0" d="M35.7,40.5v0.7c0.4-0.5,0.9-0.8,1.6-0.8c0.6,0,1,0.2,1.3,0.5s0.4,0.9,0.4,1.6v3.7h-1.5v-3.7
				c0-0.3-0.1-0.6-0.2-0.7c-0.1-0.2-0.4-0.2-0.7-0.2c-0.4,0-0.7,0.2-1,0.5v4h-1.5v-5.7L35.7,40.5L35.7,40.5z"/>
			<path class="st0" d="M41.7,40.5v0.7c0.4-0.5,0.9-0.8,1.6-0.8c0.6,0,1,0.2,1.3,0.5c0.3,0.4,0.4,0.9,0.4,1.6v3.7h-1.5v-3.7
				c0-0.3-0.1-0.6-0.2-0.7c-0.1-0.2-0.4-0.2-0.7-0.2c-0.4,0-0.7,0.2-1,0.5v4h-1.5v-5.7L41.7,40.5L41.7,40.5z"/>
			<path class="st0" d="M48.9,46.3c-0.8,0-1.5-0.3-2-0.8s-0.8-1.2-0.8-2v-0.2c0-0.6,0.1-1.1,0.3-1.5c0.2-0.5,0.5-0.8,0.9-1
				s0.8-0.4,1.4-0.4c0.8,0,1.4,0.2,1.8,0.7s0.7,1.2,0.7,2.1v0.6h-3.6c0,0.4,0.2,0.7,0.4,0.9s0.5,0.3,0.9,0.3c0.6,0,1-0.2,1.3-0.6
				l0.7,0.8c-0.2,0.3-0.5,0.6-0.9,0.8C49.8,46.2,49.4,46.3,48.9,46.3z M48.8,41.6c-0.3,0-0.5,0.1-0.7,0.3s-0.3,0.5-0.3,0.9h2.1v-0.1
				c0-0.3-0.1-0.6-0.3-0.8C49.3,41.7,49.1,41.6,48.8,41.6z"/>
			<path class="st0" d="M53.5,40.5v0.6c0.4-0.5,0.9-0.7,1.6-0.7c0.7,0,1.2,0.3,1.5,0.9c0.4-0.6,1-0.9,1.7-0.9c0.6,0,1.1,0.2,1.4,0.5
				s0.4,0.9,0.4,1.6v3.7h-1.5v-3.7c0-0.3-0.1-0.6-0.2-0.7c-0.1-0.2-0.3-0.2-0.7-0.2c-0.5,0-0.8,0.2-0.9,0.7v3.9h-1.5v-3.6
				c0-0.3-0.1-0.6-0.2-0.7s-0.3-0.2-0.7-0.2s-0.7,0.2-0.9,0.5v4H52v-5.7C52,40.5,53.5,40.5,53.5,40.5z"/>
			<path class="st0" d="M63.9,46.3c-0.8,0-1.5-0.3-2-0.8s-0.8-1.2-0.8-2v-0.2c0-0.6,0.1-1.1,0.3-1.5c0.2-0.5,0.5-0.8,0.9-1
				s0.8-0.4,1.4-0.4c0.8,0,1.4,0.2,1.8,0.7s0.7,1.2,0.7,2.1v0.6h-3.6c0,0.4,0.2,0.7,0.4,0.9s0.5,0.3,0.9,0.3c0.6,0,1-0.2,1.3-0.6
				l0.7,0.8c-0.2,0.3-0.5,0.6-0.9,0.8C64.8,46.2,64.4,46.3,63.9,46.3z M63.8,41.6c-0.3,0-0.5,0.1-0.7,0.3s-0.3,0.5-0.3,0.9h2.1v-0.1
				c0-0.3-0.1-0.6-0.3-0.8C64.3,41.7,64.1,41.6,63.8,41.6z"/>
			<path class="st0" d="M68.5,40.5v0.7c0.4-0.5,0.9-0.8,1.6-0.8c0.6,0,1,0.2,1.3,0.5c0.3,0.4,0.4,0.9,0.4,1.6v3.7h-1.5v-3.7
				c0-0.3-0.1-0.6-0.2-0.7c-0.1-0.2-0.4-0.2-0.7-0.2c-0.4,0-0.7,0.2-1,0.5v4h-1.5v-5.7L68.5,40.5L68.5,40.5z"/>
			<path class="st0" d="M74.9,39.1v1.4h1v1.1h-1v2.8c0,0.2,0,0.4,0.1,0.5s0.2,0.1,0.5,0.1c0.2,0,0.3,0,0.4,0v1.2
				c-0.3,0.1-0.6,0.1-0.9,0.1c-1,0-1.6-0.5-1.6-1.6v-3.1h-0.8v-1.1h0.8v-1.4C73.5,39.1,74.9,39.1,74.9,39.1z"/>
		</g>
		<g>
			<g>
				<g>
					<g>
						<g>
							<g>
								<g>
									<path class="st0" d="M68.6,16.3c-2.5-0.8-4.3-3.1-4.3-5.8c0-0.5,0.1-1,0.2-1.4l3.9,0.5c0,0,1.5,0.1,1.5,2.8
										C69.8,14.9,68.6,16.3,68.6,16.3z"/>
									<path class="st0" d="M72.1,16.3c2.5-0.8,4.3-3.1,4.3-5.8c0-0.5-0.1-1-0.2-1.4l-3.9,0.5c0,0-1.5,0.1-1.5,2.8
										C70.9,14.9,72.1,16.3,72.1,16.3z"/>
									<path class="st0" d="M70.3,6.1c0.5,0,0.9,0.4,0.9,0.9c0,0.4-0.3,0.7-0.6,0.9c0,0-0.1,0-0.1,0.1c0,0.1,0.2,0.1,0.3,0.1
										l5.3,0.6c-0.7-2.5-3.1-4.4-5.8-4.4l0,0c-2.7,0-5.1,1.8-5.8,4.4l5.3-0.6c0.1,0,0.3,0,0.3-0.1c0,0-0.1,0-0.1-0.1
										c-0.3-0.2-0.6-0.5-0.6-0.9S69.8,6.1,70.3,6.1L70.3,6.1z"/>
								</g>
								<g>
									<path class="st0" d="M72.7,20.7l0.4-0.2c0,0-1.7-2.3-5.5-2.3c-1.9,0-3,0.8-4.3,0.8c0,0-0.6,0.1-1.1-0.3c0,0,0.7,1,3,1
										c1.7,0,3-1,4.2-1C71,18.6,72.2,20,72.7,20.7z"/>
								</g>
								<g>
									<path class="st0" d="M67.4,20.7L67,20.5c0,0,1.7-2.3,5.5-2.3c1.9,0,3,0.8,4.3,0.8c0,0,0.6,0.1,1.1-0.3c0,0-0.7,1-3,1
										c-1.7,0-3-1-4.2-1C69.2,18.6,68,20,67.4,20.7z"/>
								</g>
								<path class="st0" d="M65.6,17.9c-0.1,0.2-0.8,0-1.3,0.1c-0.5,0.2-3.5,0.5-4.7-2.5c0,0,1.2,1.3,2.1,1.4
									c0.9,0.1,2,0.3,2.8,0.8h0.2c0,0,0-0.1-0.1-0.1c-0.1-0.1-1-0.4-1.5-1.8c-0.2-0.7-0.2-1.3-0.3-1.7c0,0,1,1.1,1.4,1.8
									C64.8,16.7,64.8,17.4,65.6,17.9z"/>
								<path class="st0" d="M62.7,16.4c-0.1,0.1-0.3,0-0.3-0.1c-0.1,0-0.5-0.3-1.4-0.5s-2.3-1.6-2.2-3.8c0,0,0.2,0.8,0.8,1.4
									s0.8,0.6,1.2,1.1S62,16,62.1,16s0-0.1,0-0.1c-0.1-0.1-0.3-0.6-0.4-0.8c-0.2-0.2-0.6-1.5,0.1-3.1c0,0,0.7,1.2,0.6,2.4
									c0,1.2-0.1,0.9,0.2,1.9C62.6,16.1,62.7,16.3,62.7,16.4z"/>
								<path class="st0" d="M60.8,13.5c0,0-0.2-0.2-0.3-0.5c-0.1-0.2-1.1-1.2-1.2-1.5s-1.2-1.5-0.4-3.4c0,0,0.1,0,0.1,0.4
									s0.4,1.5,0.8,1.9c0.3,0.4,0.6,1.1,0.7,1.9c0,0,0,0.1,0.1,0.1s0.1-0.1,0.1-0.1s0-0.7,0-1.1s0.2-1.2,0.6-1.7
									c0,0,0.2-0.2,0.3-0.5c0,0,0.1-0.2,0.2-0.3c0,0,0.1,1.3-0.3,2.5c-0.4,1.2-0.6,1.4-0.5,2.1C60.8,13.3,60.8,13.5,60.8,13.5z"/>
								<path class="st0" d="M60.1,9.9c0,0-0.1-0.2-0.1-0.3s-0.2-0.8-0.2-1s-0.4-0.9-0.4-1.7s0.4-2,1.2-2.9c0,0,0,0.3-0.3,0.9
									c-0.2,0.6-0.1,1.2-0.1,1.3s0.1,0.8,0.1,1.1c0,0.3-0.1,1.1-0.1,1.3v0.1l0.1-0.1c0,0,0-0.7,0.6-1.3c0.5-0.6,1.4-1,1.6-1.3
									c0,0-0.1,1-1.2,2.1c-1,1-0.7,0.5-1,1.4C60.3,9.5,60.1,9.8,60.1,9.9C60.1,10,60.1,9.9,60.1,9.9z"/>
								<path class="st0" d="M60.6,6.6c0,0,0-0.1,0.2-0.4s0-0.8,0.2-1.6s0.6-2.1,2.2-3c0,0-0.2,0.1-0.2,0.3
									c-0.1,0.1-0.5,0.9-0.6,1.5s-0.7,1.5-0.9,1.7s-0.1,0.2-0.1,0.2s0.1,0,0.2-0.2c0.1-0.2,0.6-0.7,1.2-0.9s1.5-0.4,1.5-0.5
									c0,0-1,1-1.9,1.5s-1,0.4-1.5,1.1C60.9,6.4,60.7,6.6,60.6,6.6z"/>
								<path class="st0" d="M62.8,3.6c0,0,0-0.1,0.2-0.2s0.3-0.6,0.6-1.1c0.3-0.4,1-1.6,2.7-1.9c0,0-0.5,0.4-0.6,0.5
									s-0.6,0.8-0.8,1c-0.2,0.2-0.9,0.7-1.1,0.8l-0.1,0.1h0.1c0,0,0.6-0.5,1.3-0.5c0.7,0,1.5,0,1.6,0c0,0-0.7,0.5-2.3,0.8
									C62.8,3.4,63.1,3.4,62.8,3.6C62.9,3.6,62.9,3.6,62.8,3.6z"/>
								<path class="st0" d="M65.7,1.7c0,0,0-0.1,0.3-0.2s0.2-0.3,1-0.7s1.6-0.6,2.4-0.3c0,0-0.3,0-0.4,0.1c-0.1,0-0.7,0.2-0.8,0.3
									s-1,0.5-1.4,0.5c-0.3,0.1-0.2,0.1-0.2,0.1s0.1,0,0.2,0s0.8-0.1,1.3,0.1s0.5,0.2,0.7,0.3s0.4,0.1,0.5,0.2c0,0-0.5,0-0.8,0
									S67.4,2.1,67,2c-0.4-0.2-0.8-0.3-1-0.2C65.9,1.8,65.7,1.8,65.7,1.7z"/>
								<path class="st0" d="M68.8,1.3c0,0,0,0,0.3-0.1c0.2,0,0.3-0.2,0.8-0.3s1.3-0.2,2.1,0.3c0,0-0.5,0-0.6,0s-1,0.2-1.2,0.2
									s-0.6-0.1-0.7,0S70,1.5,70,1.6s0.4,0,0.8,0.4s0.7,0.6,0.7,0.6s-1.1-0.3-1.4-0.4s-0.8-0.6-0.8-0.7
									C69.1,1.4,68.8,1.3,68.8,1.3z"/>
								<path class="st0" d="M71.4,1.8c0,0,0.7,0,1.2,0.3s0.9,0.8,1,1c0,0-0.3-0.2-0.5-0.3s-0.7-0.4-0.8-0.4
									C72.2,2.3,71.5,1.9,71.4,1.8z"/>
								<path class="st0" d="M74.7,18c0,0,0.1-0.1,0.4-0.4s0.4-0.7,0.8-1.4s0.7-1.1,1.4-1.8c0,0-0.1,0.5-0.2,0.7
									c0,0.2-0.1,1-0.6,1.5c-0.4,0.5-0.5,0.6-0.9,0.9c0,0-0.2,0.1-0.2,0.2h0.3c0,0,0.4-0.1,0.5-0.2s0.6-0.3,0.8-0.4
									c0.2-0.1,0.4-0.2,0.8-0.3c0.5-0.1,2.1-0.5,2.7-1.6c0,0-0.2,0.6-0.4,0.9s-1.6,2-3.4,2c0,0-0.7-0.1-1.1-0.1
									c-0.2,0-0.4,0-0.4,0C75.1,18,74.8,18.1,74.7,18z"/>
								<path class="st0" d="M78.8,11.7c0,0-0.7,1.1-0.8,2.7s0.1,1.1-0.2,1.8l-0.1,0.2c0,0,0.2-0.1,0.7-0.4s1-0.2,2-1.2
									s1.3-3,1.3-3.2c0,0-0.2,0.2-0.2,0.4c-0.1,0.3-0.2,0.5-0.3,0.5c0,0-1.2,1.3-1.3,1.4c-0.1,0.1-0.8,0.9-1,1.2
									c-0.2,0.2-0.6,0.7-0.7,0.6c0,0,0-0.1,0-0.2c0-0.1,0.3-0.5,0.5-1c0.1-0.5,0.2-0.8,0.2-1.1C79,13.1,78.8,12,78.8,11.7z"/>
								<path class="st0" d="M79.8,13.2c0,0-0.1-0.2,0-0.3c0-0.1,0.1-0.6-0.1-1s-0.6-1.7-0.6-2.5s0.1-0.9,0.1-0.9s0.2,0.7,0.3,0.8
									c0.1,0.1,0.7,1.3,0.7,2s-0.1,0.9-0.1,0.9s0.1-0.1,0.1-0.2s0.1-0.5,0.3-1.1c0.2-0.5,1.1-1.7,1.3-2.5c0,0,0.3,1.4-0.5,2.6
									s-0.8,1-1.1,1.5C79.9,13.2,79.8,13.2,79.8,13.2z"/>
								<path class="st0" d="M80.4,9.7c-0.1,0,0-0.5-0.2-0.7c0-0.2-1.2-1.6-1.4-3c0,0,0.7,0.7,0.8,0.8s0.6,0.6,0.8,1
									c0.2,0.4,0.1,0.8,0.2,0.8s0.1-0.5,0.1-0.5s0-1,0.1-1.4c0.1-0.5,0.3-1.2,0.2-1.6c0,0,0.4,0.7,0.4,1.7S81,8.6,80.9,8.7
									c-0.1,0.1-0.2,0.6-0.2,0.7S80.4,9.7,80.4,9.7z"/>
								<path class="st0" d="M79.1,2.6c0,0,1.5,0.9,1.3,3.9c0,0,0,0.1-0.1,0S79.9,6,79.7,5.9s-1.5-0.9-2-2.2c0,0,0.1,0,0.2,0.1
									s0.5,0.3,0.6,0.4c0.1,0,0.5,0.2,0.9,0.5s0.5,0.7,0.6,0.9c0,0,0.1,0.1,0-0.1s-0.1-0.4-0.3-0.6c-0.2-0.3-0.3-0.8-0.4-1.1
									C79.3,3.3,79.2,2.8,79.1,2.6z"/>
								<path class="st0" d="M78.8,3.7c0,0,0-0.2-0.1-0.5c-0.2-0.3,0-0.6-0.5-1.3C77.9,1.5,77,1.2,77,1.2s0.3,0.4,0.4,0.6
									c0.2,0.2,0.2,0.4,0.3,0.5s0.4,0.4,0.5,0.6c0,0,0.1,0.1,0.1,0.2s-0.1,0-0.2-0.1c0,0-0.6-0.5-0.9-0.5s-1-0.1-1.2-0.2
									c0,0,0.8,0.7,1.6,0.9C78.5,3.2,78.8,3.7,78.8,3.7z"/>
								<path class="st0" d="M77.1,1.8c0,0-0.8-1.1-2.2-1c0,0,0.1,0.1,0.2,0.1c0.2,0,0.4,0.3,0.6,0.4C75.9,1.4,76.1,1.6,77.1,1.8z"
									/>
							</g>
						</g>
					</g>
				</g>
			</g>
			<g>
				<path class="st0" d="M16.6,10.6c0,1.5-0.2,2.9-0.6,4.1s-1,2.2-1.7,3s-1.6,1.5-2.6,1.9s-2.1,0.7-3.4,0.7C7.1,20.2,6,20,5,19.6
					c-1-0.5-1.9-1.1-2.6-1.9s-1.3-1.8-1.7-3s-0.6-2.5-0.6-4v-1c0-1.5,0.2-2.9,0.6-4.1s1-2.2,1.7-3.1C3,1.8,3.9,1.1,4.9,0.7
					C6,0.2,7.1,0,8.3,0s2.4,0.2,3.4,0.7s1.9,1.1,2.6,1.9s1.3,1.9,1.7,3.1c0.4,1.2,0.6,2.5,0.6,4L16.6,10.6L16.6,10.6z M12.6,9.7
					c0-2.1-0.4-3.6-1.1-4.7c-0.7-1.1-1.8-1.6-3.1-1.6C7,3.4,5.9,3.9,5.2,5S4.1,7.6,4.1,9.7v0.9c0,1,0.1,1.9,0.3,2.7
					c0.2,0.8,0.5,1.5,0.8,2s0.8,0.9,1.3,1.2c0.5,0.3,1.1,0.4,1.8,0.4c1.4,0,2.4-0.5,3.1-1.6c0.7-1.1,1.1-2.7,1.1-4.7L12.6,9.7
					L12.6,9.7z"/>
				<path class="st0" d="M35.5,20h-4L23.6,7v13h-4V0.3h4l7.9,13v-13h4V20L35.5,20z"/>
				<path class="st0" d="M53.8,0.3v13c0,1.1-0.2,2.1-0.6,3c-0.4,0.9-0.9,1.6-1.6,2.2c-0.7,0.6-1.5,1-2.4,1.3s-1.9,0.5-3,0.5
					s-2.1-0.2-3-0.5s-1.7-0.7-2.4-1.3s-1.2-1.3-1.5-2.2s-0.6-1.9-0.6-3v-13h4v13c0,1.3,0.3,2.2,0.9,2.8c0.6,0.6,1.5,0.9,2.5,0.9
					c1.1,0,1.9-0.3,2.5-0.9s0.9-1.5,0.9-2.8v-13C49.5,0.3,53.8,0.3,53.8,0.3z"/>
			</g>
		</g>
	</g>
</g>
<g>
	<g>
		<g>
			<path class="st0" d="M121.7,20.2c0,0-1,1.3-1.2,3.2c-0.2,1.9,0.2,1.3-0.2,2.2l-0.1,0.2c0,0,0.2-0.1,0.9-0.5
				c0.7-0.4,1.4-0.3,2.9-1.5s1.8-3.7,1.8-3.9c0,0-0.2,0.2-0.3,0.5s-0.4,0.6-0.4,0.6c-0.1,0-1.7,1.6-1.9,1.7
				c-0.1,0.3-1.1,1.3-1.3,1.6c-0.2,0.3-0.8,0.8-0.9,0.8c0,0,0-0.1,0.1-0.2s0.5-0.6,0.7-1.2c0.2-0.6,0.2-1,0.2-1.4
				C122,21.9,121.7,20.5,121.7,20.2"/>
		</g>
	</g>
	<g>
		<g>
			<path class="st0" d="M123,22.1c0,0-0.1-0.2,0-0.3c0.1-0.1,0.1-0.7-0.2-1.3c-0.3-0.5-0.9-2-0.9-3c0.1-1,0.2-1.1,0.2-1.1
				s0.3,0.8,0.4,1c0.1,0.1,1.1,1.6,1,2.4c-0.1,0.8-0.1,1-0.1,1.1c0.1,0,0.2-0.1,0.2-0.2s0.2-0.6,0.5-1.3c0.3-0.6,1.5-2.1,1.8-3
				c0,0,0.4,1.7-0.7,3.2s-1.2,1.2-1.6,1.9C123.2,22,123.1,22.1,123,22.1"/>
		</g>
	</g>
	<g>
		<g>
			<path class="st0" d="M124,17.7c-0.1,0,0-0.6-0.2-0.8c-0.2-0.2-1.8-1.9-2.2-3.5c0,0,1,0.9,1.2,1c0.2,0.1,0.9,0.7,1.1,1.2
				c0.2,0.5,0.2,1,0.2,1c0.1,0,0.1-0.6,0.1-0.6s0-1.2,0.1-1.7c0.1-0.5,0.4-1.5,0.3-1.9c0,0,0.6,0.9,0.6,2.1s-0.6,2.2-0.7,2.3
				c-0.1,0.1-0.3,0.7-0.3,0.8C124.2,17.6,124,17.7,124,17.7"/>
		</g>
	</g>
	<g>
		<g>
			<path class="st0" d="M122.1,9.1c0,0,2.1,1.1,1.8,4.8c0,0,0,0.2-0.1,0s-0.6-0.7-0.8-0.8c-0.2-0.1-2.1-1.1-2.9-2.6
				c0,0,0.1,0,0.3,0.1c0.2,0.1,0.8,0.4,0.9,0.5c0.1,0,0.8,0.2,1.2,0.7s0.7,0.8,0.8,1.1c0,0,0.1,0.1,0.1-0.2
				c-0.1-0.3-0.1-0.5-0.4-0.8c-0.2-0.3-0.5-1-0.5-1.4C122.4,10,122.3,9.3,122.1,9.1"/>
		</g>
	</g>
	<g>
		<g>
			<path class="st0" d="M121.7,10.4c0,0,0.1-0.2-0.2-0.6c-0.3-0.4-0.1-0.7-0.7-1.6c-0.4-0.5-1.6-0.9-1.6-0.9s0.4,0.4,0.6,0.7
				c0.2,0.2,0.3,0.4,0.4,0.5c0.1,0.1,0.5,0.5,0.7,0.7c0,0,0.1,0.1,0.1,0.2s-0.2,0-0.2-0.1c-0.1,0-0.8-0.5-1.3-0.6s-1.4-0.2-1.7-0.3
				c0,0,1.1,0.9,2.3,1.1C121.3,9.8,121.7,10.4,121.7,10.4"/>
		</g>
	</g>
	<g>
		<g>
			<path class="st0" d="M120.5,26.4c-0.6,0.2-0.9,0.3-1.2,0.4c-0.3,0.1-1,0.4-1.2,0.5c-0.2,0.1-0.7,0.2-0.7,0.2s-0.5,0.1-0.5,0
				l0.2-0.2c0.7-0.4,0.7-0.5,1.3-1.1s0.8-1.7,0.8-1.9c0-0.2,0.2-0.8,0.2-0.8c-1.1,0.8-1.5,1.4-2,2.2c-0.2,0.3-0.3,0.5-0.4,0.7
				c-0.3,0.8-0.7,1.4-1.2,1.4l0,0c-0.1,0.1-0.1,0.1-0.1,0.1c0.1,0,0.6,0,0.7-0.1c0.1,0,0.3,0,0.8,0.1s1.6,0.2,1.6,0.2
				c2.6,0,4.5-2.1,4.8-2.5c0.3-0.4,0.6-1.1,0.6-1.1C123.4,25.8,121.1,26.3,120.5,26.4"/>
		</g>
	</g>
</g>
<g>
	<defs>
		<circle id="SVGID_1_" cx="119.6" cy="17.4" r="10.4"/>
	</defs>
	<clipPath id="SVGID_00000108304683827005590110000006261305819257790908_">
		<use xlink:href="#SVGID_1_"  style="overflow:visible;"/>
	</clipPath>
	<g style="clip-path:url(#SVGID_00000108304683827005590110000006261305819257790908_);">
		<g class="st2">
			<g>
				<defs>
					<circle id="SVGID_00000111883716841715645330000011171392176642258363_" cx="119.6" cy="17.5" r="10.4"/>
				</defs>
				<use xlink:href="#SVGID_00000111883716841715645330000011171392176642258363_"  style="overflow:visible;fill:#FFFFFF;"/>
				<clipPath id="SVGID_00000049222779338720359940000004598759166886585274_">
					<use xlink:href="#SVGID_00000111883716841715645330000011171392176642258363_"  style="overflow:visible;"/>
				</clipPath>
			</g>
		</g>
	</g>
	<g style="opacity:0.6;clip-path:url(#SVGID_00000108304683827005590110000006261305819257790908_);">
		<path class="st0" d="M119.1,9.4c0.1,0.1,0.1,0.2,0.2,0.2"/>
	</g>
	<g style="opacity:0.6;clip-path:url(#SVGID_00000108304683827005590110000006261305819257790908_);">
		<path class="st0" d="M113.7,18.8L113.7,18.8L113.7,18.8z"/>
	</g>
	<g style="opacity:0.6;clip-path:url(#SVGID_00000108304683827005590110000006261305819257790908_);">
		<path class="st0" d="M113.4,19.6L113.4,19.6L113.4,19.6z"/>
	</g>
	<g style="opacity:0.6;clip-path:url(#SVGID_00000108304683827005590110000006261305819257790908_);">
		<path class="st0" d="M113.2,20.1L113.2,20.1L113.2,20.1L113.2,20.1L113.2,20.1z"/>
	</g>
	<g style="opacity:0.6;clip-path:url(#SVGID_00000108304683827005590110000006261305819257790908_);">
		<path class="st0" d="M113.1,19.2L113.1,19.2L113.1,19.2L113.1,19.2z"/>
	</g>
	<g style="opacity:0.6;clip-path:url(#SVGID_00000108304683827005590110000006261305819257790908_);">
		<path class="st0" d="M118.2,19C118.1,19,118.1,19,118.2,19C118.2,19,118.2,18.9,118.2,19L118.2,19z"/>
	</g>
	<g style="opacity:0.6;clip-path:url(#SVGID_00000108304683827005590110000006261305819257790908_);">
		<path class="st0" d="M119.6,20C119.6,20,119.6,20.1,119.6,20C119.6,20.1,119.6,20.1,119.6,20z"/>
	</g>
	<g style="opacity:0.6;clip-path:url(#SVGID_00000108304683827005590110000006261305819257790908_);">
		<path class="st4" d="M130.6,14.9c-0.1,0-0.2-0.1-0.2-0.2c0-0.2-0.1-0.5,0.2-0.7c0.1-0.1,0.1-0.2-0.1-0.2s-0.2-0.1-0.2-0.3
			s-0.1-0.3-0.3-0.3s-0.3,0.2-0.3,0.3s0.1,0.3-0.2,0.3c-0.2,0-0.2-0.1-0.3-0.2c-0.1-0.1-0.1-0.2-0.2-0.1c-0.1,0.1-0.1,0-0.2-0.1
			c-0.1-0.1-0.2-0.3-0.4-0.1h-0.1c-0.1-0.1-0.2-0.2-0.2-0.4c-0.1,0-0.1,0.1-0.1,0.1c-0.1,0.2-0.4,0.3-0.6,0.2
			c-0.1-0.1-0.2-0.2-0.2,0c0,0.1-0.1,0.2,0.1,0.3c0.1,0,0.3,0.2,0.2,0.3c-0.1,0.2-0.1,0.4-0.1,0.6c0,0,0,0.1-0.1,0.1
			s-0.2,0.1-0.3,0.1c-0.2,0-0.2,0.2-0.1,0.3c0,0.1,0,0.2-0.1,0.2c-0.2,0-0.2,0.2-0.3,0.3c-0.2,0.2,0,0.4-0.1,0.6
			c0,0.1-0.1,0.3,0,0.3s0.2-0.1,0.2-0.2c0.1-0.2,0.3-0.4,0.6-0.2c-0.1,0.2-0.3,0.3-0.4,0.5c-0.1,0.1-0.2,0.2-0.1,0.4
			c0.1,0.1,0,0.2,0,0.3c-0.1,0.1-0.1,0-0.2-0.1s-0.2,0-0.2,0.1c0,0,0,0.1,0,0.2c0,0.3-0.1,0.4-0.4,0.3c-0.1,0-0.1-0.2-0.2-0.3
			c-0.5,0.4-0.8,0.4-1.3,0c-0.1-0.1-0.1,0-0.2,0c-0.1,0.2-0.3,0.2-0.5,0.2c-0.1,0-0.1,0-0.2,0c-0.2,0-0.2-0.1-0.2-0.2
			c0-0.2,0.1-0.3,0.2-0.3c0.1,0,0.2,0,0.2-0.2c0-0.3,0-0.3,0.3-0.3c0.2,0,0.2-0.1,0.2-0.2s-0.1-0.2-0.1-0.2
			c-0.1-0.1-0.2-0.2-0.1-0.4c0,0,0,0,0-0.1h-0.1h-0.1c-0.2,0-0.1,0-0.1,0.2c0.1,0.1,0.1,0.2,0,0.4c-0.1,0.1-0.2,0.1-0.3,0.1
			s-0.2,0-0.2,0.1c0,0.2-0.2,0.3-0.4,0.4c-0.1-0.1-0.1-0.2-0.1-0.3c0-0.1-0.1-0.1-0.1-0.2c0,0,0-0.1-0.1-0.1s-0.1,0-0.1,0.1
			c-0.1,0.2,0,0.6,0.2,0.7c0.1,0.1,0.1,0.2,0.1,0.3c0,0.1-0.1,0.2-0.2,0.2c-0.2,0-0.4,0-0.5-0.2c-0.2-0.3-0.2-0.6-0.1-0.8
			c0.1-0.1,0.1-0.2,0-0.2c-0.1-0.1-0.1-0.2,0-0.3c0.1-0.1,0.1-0.2,0-0.2c-0.1-0.1-0.1-0.1,0-0.2c0.1-0.1,0.1-0.2,0.3-0.3
			c0.1,0,0.1-0.1,0-0.1c-0.1,0-0.1-0.3-0.2-0.1c0,0-0.1,0.1-0.1,0c-0.1,0-0.1-0.1-0.1-0.1l0.1-0.1c0.2,0,0.1-0.1,0.1-0.2
			c0,0,0-0.1,0-0.2c0.1-0.4,0.2-0.7,0.3-1.1c0-0.1,0.1-0.3,0.2-0.4c0,0-0.1-0.1,0-0.2c0.1,0,0.1-0.1,0.3,0c-0.1-0.1-0.2-0.2-0.1-0.4
			c0-0.1,0-0.3-0.1-0.3s-0.2,0.1-0.3,0.2c-0.1,0-0.1,0.2-0.1,0.1s-0.2-0.1-0.3-0.2c0.1,0,0.1-0.1,0.2-0.1s0.1-0.1,0-0.2
			c0,0,0-0.1-0.1-0.1s-0.2-0.1-0.2-0.2v-0.1c0-0.1,0-0.2-0.2-0.1c-0.2,0.1-0.4,0-0.4-0.1c-0.2,0.2-0.4,0-0.5-0.1s-0.2-0.1-0.3,0
			c0,0.1-0.1,0.1-0.2,0.1c-0.1-0.1-0.3,0-0.5-0.1c-0.1,0.2-0.3,0.4-0.4,0.3c-0.1-0.1-0.2,0-0.3,0l0,0l0,0c0-0.1,0.1-0.2,0-0.3
			s-0.3-0.2-0.4-0.2c-0.2,0.1-0.3-0.1-0.4-0.2c-0.1-0.1-0.2-0.2-0.2,0c0,0.1-0.2,0-0.2,0.1c0.1,0.2,0.1,0.3,0.1,0.5
			c-0.1,0-0.1-0.1-0.1-0.1c-0.1,0-0.1-0.1-0.2-0.1s-0.1,0.2,0,0.2v0.1c0.1,0.3,0.1,0.3-0.3,0.4c0-0.1,0-0.1-0.1-0.3
			c-0.1-0.1-0.1-0.2-0.3-0.2h-0.1c-0.1-0.3-0.2-0.1-0.3,0s-0.1,0.2-0.1,0.3s0,0.1,0,0.2c-0.1,0.2-0.2,0.4-0.3,0.6
			c0,0.1-0.1,0.1,0,0.1c0.2,0.1,0.2,0.2,0.3,0.4v0.1h-0.1c-0.1,0-0.1-0.1-0.1,0s-0.1,0.2-0.2,0.2c-0.1,0-0.2-0.1-0.2-0.2
			c0-0.1,0-0.2,0.1-0.3c-0.1,0-0.2,0-0.3,0.1c0,0.1-0.1,0.2-0.2,0c0-0.1-0.1-0.1-0.2-0.1s-0.1,0.1-0.1,0.2c-0.1,0.1-0.1,0.2-0.2,0.4
			s-0.2,0.2-0.4,0.1c-0.1-0.1-0.2-0.2-0.3-0.2s-0.2,0-0.2-0.1c-0.1-0.1-0.1-0.2-0.2-0.1c-0.2,0-0.3,0-0.4-0.3c0-0.1-0.1-0.2-0.2-0.3
			c-0.2-0.1-0.2-0.3-0.1-0.5c0.1-0.1,0.1-0.1,0-0.2c-0.1-0.1-0.1-0.1-0.2-0.1s-0.3,0-0.4-0.1c0.1-0.1,0.2,0,0.2-0.1
			s-0.1-0.1-0.2-0.2c-0.1,0-0.1,0-0.1-0.1s-0.1-0.2,0-0.2c0.1,0.1,0.2-0.1,0.4,0c0.1,0.1,0.3,0.1,0.4,0.1c0.3,0,0.3,0,0.3-0.3
			c0-0.2,0.1-0.6,0.2-0.7c0.2,0,0.2-0.2,0.2-0.3s-0.1-0.3-0.2-0.4c-0.1,0-0.3-0.1-0.4,0.1h-0.1c-0.2-0.1-0.3,0-0.4,0.1
			c-0.1,0.1-0.2,0.2-0.3,0.2v0.1l0,0c0,0,0-0.1,0.1-0.1c0-0.2-0.1-0.2-0.2-0.1s-0.2,0.1-0.1,0.2c0.2,0.2-0.1,0.4-0.1,0.5l0,0
			c0,0.1,0,0.1-0.1,0.2c-0.1-0.1-0.1-0.2-0.2,0c-0.1,0.2-0.2,0.1-0.3-0.1c0,0.2,0,0.3-0.2,0.3c-0.1,0-0.1,0-0.1,0.1
			c0.1,0.1,0,0.2-0.1,0.3c0,0.1,0.1,0.2,0.1,0.4c0,0.1-0.1,0.1-0.1,0.2c-0.1,0-0.2,0.1-0.2,0.2c0,0.1-0.1,0.1-0.1,0.1
			c-0.2,0.1-0.3,0.3-0.2,0.4c0,0.2-0.1,0.4-0.2,0.6c0,0-0.2,0-0.3,0.1c-0.1,0-0.1,0-0.2,0.1c0,0.1,0.3,0.2,0.1,0.3
			c-0.1,0-0.1,0.1-0.1,0.2c0,0.1-0.1,0.2-0.2,0.2s-0.1-0.1,0-0.2c0,0,0,0,0-0.1c0.1-0.5,0.1-1,0.4-1.4c0.2-0.2,0.2-0.5,0.4-0.7
			c0.1,0,0.1-0.2,0-0.3c-0.1-0.1-0.1-0.2,0.1-0.2c0.1,0,0.2-0.1,0.3,0c0.2,0,0.2,0,0.2-0.2s-0.1-0.4-0.2-0.5l0,0
			c-0.4,0.1-0.6,0.5-0.7,0.8c0,0.3-0.2,0.5-0.4,0.7c-0.1,0.1-0.3,0.3-0.2,0.5c0.1,0.1,0,0.2,0,0.4c0,0.1-0.1,0.1-0.2,0.1
			s-0.1,0-0.1,0c0,0.1-0.1,0.2-0.1,0.3s-0.1,0.3-0.1,0.3c-0.2,0.1-0.1,0.2-0.1,0.4c0.1,0.2,0.1,0.3,0.1,0.5
			c-0.2,0.7-0.2,1.4-0.3,2.1c0,0.2,0,0.5,0,0.7c0.1,0.6,0.2,1.2,0.3,1.8c0,0.7,0.2,1.3,0.7,1.9c0.3,0.3,0.5,0.8,0.6,1.2
			c0.1,0.3,0.3,0.6,0.5,0.8c0.2,0.3,0.5,0.5,0.7,0.8c0.2,0.2,0.3,0.4,0.6,0.5c0.1,0,0.1,0.1,0.2,0.2s0.1,0.2,0.2,0.3
			c0.1,0,0.2,0,0.3,0.1l0.1,0.1c0.3,0,0.3,0.3,0.6,0.3c0.1,0,0.1,0,0.1,0.1s0.1,0.1,0.2,0c0.1-0.1,0.1-0.1,0-0.2
			c-0.1-0.1-0.2-0.3-0.4-0.4c-0.1-0.1-0.1-0.3-0.2-0.4c-0.2-0.2-0.2-0.4-0.2-0.6s0-0.3,0-0.5s-0.1-0.3-0.2-0.4
			c-0.2-0.1-0.4-0.3-0.5-0.5c-0.1-0.1-0.2-0.2-0.2-0.3c0,0,0-0.1-0.1-0.1c-0.1,0-0.1,0-0.1,0.1c0,0,0,0.1-0.1,0c0-0.1,0-0.2,0-0.2
			c0-0.1,0-0.1-0.1-0.1c-0.2,0-0.2-0.2-0.2-0.3c0-0.2,0-0.2-0.2-0.1c-0.1,0-0.2,0-0.3-0.1S111,21,110.8,21c-0.1,0-0.2-0.1-0.1-0.1
			c0.1-0.2-0.1-0.5,0.2-0.7c0.1,0,0-0.1-0.1-0.2c-0.1-0.1-0.1-0.3,0-0.4c0.2-0.3,0.2-0.3-0.1-0.5c-0.1-0.1-0.2-0.2,0-0.3
			c0.1-0.1,0.1-0.1,0.1-0.2c0-0.2,0.1-0.3,0.2-0.3s0.3,0,0.4,0c0,0,0.1,0,0.1-0.1s0.1-0.2,0-0.3c-0.1,0-0.1-0.1-0.1-0.2
			s0.1-0.1,0.2-0.1s0.2,0,0.3-0.1s0.2,0,0.2,0c0.3,0.1,0.6,0.1,0.8,0c-0.2,0-0.4,0-0.6-0.1c-0.1,0-0.2,0-0.1-0.2
			c0.1-0.1,0.1-0.2,0.2-0.1c0.1,0.1,0.3,0,0.4,0h0.3l0,0c0-0.1,0.1-0.2,0.2-0.2h0.1c0-0.1,0.1-0.1,0.1-0.2c0.6,0,0.6-0.1,0.6-0.2
			c0-0.2,0.1-0.2,0.2-0.3c0-0.1,0-0.2,0.1-0.3l0.1-0.1c0,0-0.1,0-0.1-0.1c0-0.3-0.1-0.5-0.4-0.4c-0.1,0-0.1,0-0.2-0.1
			c-0.1-0.1-0.1-0.2,0-0.2c0.2-0.1,0.2-0.3,0.2-0.5c0-0.1,0-0.4,0.2-0.3c0.1,0,0.3,0,0.4,0c0.2,0,0.2,0.1,0.2,0.2
			c0.1,0.1-0.1,0.1-0.1,0.1l0,0l0,0c0,0,0,0,0.1,0c0-0.1,0-0.2-0.1-0.1c-0.1,0.1-0.1,0.2,0,0.3c0,0.1,0.1,0.2,0.2,0.1
			c0.1-0.1,0.1-0.1,0.2,0c0.1,0.1,0.2,0,0.4,0c0-0.1,0.1-0.3-0.1-0.3c-0.3-0.1-0.3-0.3-0.2-0.5v0.1c0,0.2,0.1,0.1,0.2,0.1
			c0.2,0,0.1-0.1,0.1-0.2c0-0.2,0.1-0.3,0.3-0.2c0.2,0.1,0.4,0,0.4,0.2h0.1c0.1,0,0.1,0,0.2,0c0,0,0,0,0,0.1s-0.1,0.1,0,0.2
			c0.1,0.1,0.1-0.1,0.1-0.1c0.1,0,0.2,0,0.2,0c0.2,0.2,0.2,0,0.2-0.1c0,0-0.1-0.1,0-0.2c0.2,0.3,0.3,0.3,0.4,0.2
			c0.2-0.1,0.2,0,0.2,0.1c0.1,0.1,0,0.2-0.1,0.3s-0.1,0.2-0.1,0.3c0.1,0.1,0,0.2-0.1,0.2c-0.2,0-0.4,0-0.5-0.2
			c-0.1,0.1-0.2,0.2,0.1,0.2c0.1,0,0.2,0.1,0.1,0.2c-0.1,0.1-0.1,0.3,0,0.4c0.1,0,0.1,0,0.1-0.1c0-0.2,0.1-0.3,0.2-0.3
			s0.1,0.2,0.1,0.3s0,0.2,0.1,0.2c0.1,0,0.1,0,0.2,0s0.1,0,0.2,0c0,0,0,0,0.1,0c0.1,0,0.1-0.2,0.1-0.3s0.1-0.2,0.2-0.2
			c0.1,0,0.1,0.1,0.1,0.2c0,0.2,0,0.3,0.2,0.3h0.1c0.1,0,0.1,0,0.2,0c-0.1-0.2,0-0.3-0.1-0.5c0-0.1,0-0.2-0.1-0.3v-0.1
			c0.2-0.1,0.3-0.3,0.4-0.3s0.3-0.1,0.2-0.3c0-0.2,0.2-0.4,0.4-0.4h0.1c0.1,0,0.1-0.2,0.2-0.1c0.1,0.1,0.2,0.2,0.2,0.3
			c0.1,0.2-0.1,0.2-0.2,0.2c-0.2,0-0.1,0.1-0.1,0.2c0,0.2,0.2,0.4,0.4,0.5c0.1,0.1,0.1,0.1,0.2,0.2c0.2,0.2,0.2,0.2,0,0.3
			c-0.2,0.1-0.2,0.4-0.3,0.6c0,0,0-0.1-0.1-0.1V16l0.1,0.1c0,0.1,0,0.1,0,0.2v0.1l0,0l0,0c0.1,0.1,0,0.3-0.1,0.4
			c0,0.3,0.1,0.4,0.4,0.3c0.3,0,0.5-0.1,0.8,0c0.1,0.1,0.2,0.1,0.2,0.3c0,0.2,0,0.4-0.2,0.6c0.2-0.1,0.3,0,0.4,0.2
			c0.1,0.1,0.1,0.3,0,0.4c0,0.1-0.2,0-0.2,0.2c0,0-0.1,0-0.1-0.1v-0.1c0-0.1,0-0.1-0.1-0.1c-0.1,0-0.1,0.1-0.1,0.2s0.1,0.2,0.1,0.2
			c0,0.1,0.1,0.2,0.1,0.4c0,0.1-0.1,0.2,0,0.2c0.1,0,0.2,0,0.2-0.1c0,0,0-0.1,0.1-0.1c0.1,0.1,0.5,0.3,0.6,0.2c0.1,0,0.1,0,0.1-0.1
			s-0.1-0.2,0.1-0.2c0.1,0,0.1-0.1,0.2,0c0.2,0.2,0.4,0,0.5-0.1c0.1-0.1,0.2-0.2,0.3-0.2c0.1,0.1,0,0.1,0,0.2
			c-0.1,0.1-0.2,0.2-0.1,0.4c0,0,0,0,0,0.1c-0.2,0.2-0.4,0.3-0.2,0.6c0,0,0,0.1-0.1,0.1c0,0-0.1,0-0.1-0.1c0-0.2-0.1-0.2-0.2-0.2
			c0.1,0.1,0,0.3,0.1,0.4c0.1,0.2,0.2,0.3,0.4,0.4c0.1,0,0.1,0,0.1,0.1c-0.1,0.1-0.1,0.3,0,0.3c0.2,0,0.1,0.2,0.2,0.2h0.1
			c0.2,0,0.4-0.2,0.5-0.4c0.1-0.1,0.1-0.1,0.2-0.1s0.1,0.1,0.1,0.2s0,0.2,0,0.3c0,0.2,0,0.3,0.1,0.3c0.1,0.1,0.2,0,0.3-0.1
			c0.1,0,0.2-0.2,0.3-0.2c0.3,0.2,0.4-0.1,0.5-0.2c0.2-0.3,0.5-0.4,0.8-0.5c0.1,0,0.2-0.1,0.2-0.2c0-0.2,0.2-0.3,0.2-0.6
			c0,0,0-0.1,0.1-0.1c0.2,0,0.2-0.3,0.4-0.4c0.1-0.1,0.2-0.3,0.3-0.5c0.1,0,0.1,0.1,0.2,0.1c-0.1-0.1,0-0.2,0-0.2
			c0.1-0.1,0.1-0.3-0.1-0.2c-0.1,0-0.1,0-0.2-0.1c0-0.1,0.1-0.1,0.1-0.2s0.1-0.1,0.1-0.1c0.1,0.2,0.2,0,0.3,0.1
			c0.3,0.1,0.3-0.1,0.3-0.2s0.1-0.2,0-0.2c-0.1,0-0.1,0-0.1-0.1s0-0.1,0.1-0.1c0.1,0,0.1,0,0.1-0.1c0-0.2,0.1-0.3,0.1-0.5
			c0,0,0-0.1,0.1-0.1c0.2,0,0.2-0.2,0.4-0.3c0.1,0,0.3-0.1,0.1-0.3c0,0,0,0,0-0.1s0-0.2-0.1-0.2c-0.1-0.1-0.1-0.2,0-0.3
			c0.1-0.1,0.2-0.2,0.2-0.3s0.1-0.2,0.2-0.2s0.1,0,0.1-0.1v-0.1c-0.2-0.1-0.1-0.3-0.1-0.5c0-0.1,0-0.2,0.1-0.2
			c0.1,0,0.1,0.1,0.1,0.2c0,0.2,0.1,0.3,0.1,0.4l0.1,0.1c0.1,0,0.1-0.1,0.1-0.1c0-0.1,0-0.2,0.1-0.3
			C130.2,14.7,130.3,14.9,130.6,14.9c-0.1-0.1,0-0.2,0.1-0.3C130.7,15,130.7,14.9,130.6,14.9z M113.5,16.8
			C113.6,16.7,113.6,16.7,113.5,16.8L113.5,16.8z M119,11.3c-0.1,0-0.1,0-0.1-0.1s0-0.1,0.1-0.1C119,11.1,119,11.2,119,11.3
			L119,11.3z M129.5,14.8c-0.1-0.1-0.2,0-0.3,0.1c0,0-0.1,0.1-0.1,0c0,0,0-0.1,0-0.2c0.1-0.1,0.4-0.2,0.5-0.1c0,0,0.1,0,0.1,0.1
			C129.6,14.8,129.5,14.8,129.5,14.8z"/>
	</g>
	<g style="opacity:0.6;clip-path:url(#SVGID_00000108304683827005590110000006261305819257790908_);">
		<path class="st0" d="M112.9,11.3L112.9,11.3C113,11.3,113,11.3,112.9,11.3C113,11.3,112.9,11.3,112.9,11.3L112.9,11.3z"/>
	</g>
	<g style="opacity:0.6;clip-path:url(#SVGID_00000108304683827005590110000006261305819257790908_);">
		<path class="st0" d="M113.8,14.6L113.8,14.6L113.8,14.6C113.8,14.6,113.8,14.7,113.8,14.6L113.8,14.6z"/>
	</g>
	<g style="opacity:0.6;clip-path:url(#SVGID_00000108304683827005590110000006261305819257790908_);">
		<path class="st0" d="M113.8,14.5L113.8,14.5L113.8,14.5L113.8,14.5L113.8,14.5z"/>
	</g>
	<g style="opacity:0.6;clip-path:url(#SVGID_00000108304683827005590110000006261305819257790908_);">
		<path class="st0" d="M121.8,25.2c-0.1-0.1,0-0.2,0-0.2h0.1C121.9,25.1,121.8,25.1,121.8,25.2z"/>
	</g>
	<g style="opacity:0.6;clip-path:url(#SVGID_00000108304683827005590110000006261305819257790908_);">
		<path class="st0" d="M112.9,12.1C112.9,12.2,112.9,12.2,112.9,12.1C112.8,12.2,112.8,12.2,112.9,12.1
			C112.8,12.2,112.8,12.1,112.9,12.1L112.9,12.1z"/>
	</g>
	<g style="opacity:0.6;clip-path:url(#SVGID_00000108304683827005590110000006261305819257790908_);">
		<path class="st0" d="M112.7,13.4L112.7,13.4C112.7,13.4,112.8,13.4,112.7,13.4C112.8,13.4,112.8,13.5,112.7,13.4
			C112.7,13.5,112.7,13.5,112.7,13.4z"/>
	</g>
	<g style="opacity:0.6;clip-path:url(#SVGID_00000108304683827005590110000006261305819257790908_);">
		<path class="st0" d="M113.5,18.8L113.5,18.8L113.5,18.8L113.5,18.8L113.5,18.8z"/>
	</g>
	<g style="opacity:0.6;clip-path:url(#SVGID_00000108304683827005590110000006261305819257790908_);">
		<path class="st0" d="M114.8,18L114.8,18L114.8,18L114.8,18C114.8,17.9,114.8,17.9,114.8,18z"/>
	</g>
	<path style="opacity:0.6;clip-path:url(#SVGID_00000108304683827005590110000006261305819257790908_);fill:#FFFFFF;" d="
		M113.4,19.5"/>
	<polyline style="opacity:0.6;clip-path:url(#SVGID_00000108304683827005590110000006261305819257790908_);fill:#FFFFFF;" points="
		113.4,19.5 113.4,19.5 113.4,19.5 	"/>
	<g style="opacity:0.6;clip-path:url(#SVGID_00000108304683827005590110000006261305819257790908_);">
		<polygon class="st0" points="113.2,20 113.2,20 113.2,20 		"/>
	</g>
	<g style="opacity:0.6;clip-path:url(#SVGID_00000108304683827005590110000006261305819257790908_);">
		<path class="st0" d="M113.1,19.1L113.1,19.1L113.1,19.1z"/>
	</g>
	<path style="opacity:0.6;clip-path:url(#SVGID_00000108304683827005590110000006261305819257790908_);fill:#FFFFFF;" d="
		M127.3,23.5c0.1-0.2,0.1-0.6,0.3-0.7v-0.1c0-0.1,0.1-0.3,0-0.4l-0.1-0.1l0,0c-0.1,0-0.2,0.1-0.2,0.2h-0.1h-0.1l-0.1,0.1
		c0,0-0.1,0.1-0.2,0.1c-0.2,0-0.1-0.3-0.3-0.3c-0.1,0-0.1,0-0.1-0.1v-0.1h-0.1c-0.1,0-0.1,0-0.2,0s-0.1,0-0.2,0h-0.1
		c-0.1,0.1-0.1,0.2-0.2,0.2l-0.1,0.1c0,0.2-0.2,0.3-0.1,0.4c0,0.1-0.1,0.1-0.2,0.1c-0.3,0.1-0.5,0.2-0.7,0.4
		c-0.1,0.1-0.2,0.3-0.5,0.2c-0.1,0-0.1,0.1-0.2,0.1c-0.1,0-0.1,0.1-0.2,0s-0.1-0.2-0.1-0.2c0-0.1,0-0.2,0-0.2c0-0.1,0-0.1-0.1-0.1
		c-0.1,0-0.1,0-0.2,0.1s-0.2,0.2-0.5,0.3h-0.1c-0.1-0.1,0-0.2-0.2-0.2c-0.1,0-0.1-0.2,0-0.2s0-0.1-0.1-0.1c-0.2,0-0.3-0.2-0.4-0.3
		c0-0.1,0-0.2,0-0.3c0.1,0,0.2,0,0.2,0.2c0,0,0,0,0.1,0s0.1,0,0.1-0.1c-0.1-0.2,0.1-0.3,0.2-0.5l0,0c-0.1-0.1,0.1-0.2,0.1-0.3
		c0,0,0.1-0.1,0-0.1s-0.2,0.1-0.2,0.2c-0.1,0.1-0.3,0.2-0.5,0c-0.1-0.1-0.1,0-0.2,0s-0.1,0-0.1,0.1c0,0,0,0.1-0.1,0.1
		c-0.1,0-0.5,0-0.6-0.2c-0.1,0,0,0-0.1,0.1c0,0.1-0.1,0.1-0.2,0.1c-0.1,0,0-0.1,0-0.1c0.1-0.1,0-0.2-0.1-0.3c0,0-0.1-0.1-0.1-0.2
		c0,0,0-0.1,0.1-0.1s0.1,0,0.1,0.1v0.1h0.1c0-0.1,0.1-0.1,0.2-0.1c0.1-0.1,0.1-0.2,0-0.3c-0.1-0.1-0.2-0.2-0.4-0.1
		c0.1-0.1,0.1-0.3,0.1-0.4s0-0.1-0.2-0.2c-0.2-0.1-0.5,0-0.7,0c-0.3,0-0.4,0-0.4-0.3c0-0.2,0-0.2-0.1-0.2c0-0.1,0.1-0.1,0.1-0.2
		s-0.1-0.1-0.1-0.2c0-0.2,0.2-0.3,0.1-0.5l0,0c0-0.1,0-0.2-0.1-0.2c0.2-0.1,0.2-0.1,0-0.3c-0.1,0-0.1-0.1-0.2-0.2
		c-0.2-0.1-0.3-0.2-0.3-0.4c0-0.1,0-0.1,0.1-0.1s0.2,0,0.2-0.2c0-0.1-0.1-0.2-0.2-0.2s-0.1,0-0.2,0.1h-0.1c-0.2,0-0.4,0.1-0.4,0.3
		c0,0.2-0.1,0.2-0.2,0.2c-0.2,0-0.2,0.2-0.4,0.2c0,0,0,0,0,0.1c0.1,0.1,0,0.2,0.1,0.2c0,0.1,0,0.1,0,0.2c-0.1,0-0.1,0.1-0.1,0.1
		c0,0.1,0,0.2-0.1,0.2s-0.2,0-0.4,0c-0.1,0-0.1-0.1-0.1-0.2s0.1-0.2-0.1-0.2c-0.1,0-0.2,0.1-0.2,0.2c0,0,0,0-0.1,0
		c0-0.1-0.1-0.2,0-0.3c0.1-0.1,0-0.2-0.1-0.2c-0.2,0-0.1-0.1-0.1-0.2c0.1,0.1,0.3,0.2,0.5,0.2c0.1,0,0.2,0,0.1-0.1
		c-0.1-0.1-0.1-0.2,0-0.2c0.1,0,0.1-0.1,0.1-0.2s-0.1-0.2-0.2-0.1c-0.1,0.1-0.2,0-0.4-0.2c-0.1,0,0,0.1,0,0.1c0,0.1,0,0.2-0.1,0.1
		c-0.1,0-0.1,0-0.2,0c0,0,0,0.1-0.1,0.1c-0.1,0,0-0.1,0-0.1v-0.1c-0.1,0-0.1,0-0.2,0h-0.1c-0.1-0.2-0.2-0.1-0.4-0.2
		c-0.1,0-0.3,0-0.3,0.2c0,0,0.1,0.1-0.1,0.1c-0.1,0-0.2,0-0.2-0.1v-0.1c-0.1,0.1-0.1,0.2,0.1,0.3c0.2,0,0.1,0.2,0.1,0.2
		c-0.1,0-0.2,0.1-0.3,0s-0.1,0-0.2,0c-0.1,0.1-0.1,0-0.2-0.1s-0.1-0.2,0-0.2s0.1,0.1,0.1,0.1l0,0c0.1,0,0.2,0,0.1-0.1
		c-0.1-0.1-0.1-0.2-0.2-0.2s-0.2,0-0.4,0c0.3,0.2,0.3,0.4,0.3,0.5s0,0.3-0.2,0.3c-0.1,0-0.1,0.1,0,0.2c0.1,0,0.1,0.1,0.2,0.1
		c0.2,0,0.3,0,0.4,0.1h-0.1c-0.1,0-0.2,0-0.2,0.1h-0.1H114l0,0c0,0,0,0.1-0.1,0.1s-0.1,0-0.2,0c0,0,0-0.1-0.1-0.1l0,0l0,0h-0.1
		c-0.1,0-0.1,0-0.2,0h-0.1l0,0l0,0l0,0v0.1l-0.1,0.1l0,0l0,0H113h-0.1l-0.1-0.1c-0.1,0-0.1,0-0.2,0s-0.2,0-0.2,0
		c-0.1,0-0.1,0.1-0.2,0.2c-0.1,0-0.1,0-0.2,0h-0.1c0,0,0,0-0.1,0l0,0l0,0l0,0c0,0,0,0.1,0,0.2v0.1l0,0l0,0l0,0l0.1,0.1l0,0h0.1
		c0.1,0,0.1,0,0.2,0h-0.1H112c-0.1,0-0.1,0-0.2,0s-0.1,0.1-0.1,0.1l-0.1,0.1c-0.1,0-0.1,0-0.1,0h-0.1h-0.1h0.1l0,0l0.1,0.1
		c0.1,0,0.1,0.1,0.1,0.1h-0.1c0-0.1-0.1-0.1-0.1-0.1l-0.1-0.1h-0.1c0,0.1,0.1,0.2,0.2,0.3c0.2,0.1,0.4,0.1,0.6,0h0.1
		c0.1,0,0.1,0,0.1-0.1c0.1,0,0.1,0,0.1,0h0.1c0,0,0.1,0,0.1,0.1c0.2,0,0.4,0,0.6,0c-0.3,0.1-0.5,0.1-0.8,0c-0.1,0-0.1-0.1-0.2,0
		c-0.1,0.1-0.2,0.1-0.3,0.1s-0.2,0-0.2,0.1s0,0.1,0.1,0.1s0,0.1,0,0.2s-0.1,0-0.1,0c-0.1,0-0.2,0-0.4,0c-0.2,0-0.2,0.1-0.2,0.2
		s0,0.1-0.1,0.2c-0.2,0.1-0.1,0.1,0,0.2c0.2,0.1,0.2,0.1,0.1,0.3c-0.1,0.1-0.1,0.2,0,0.3l0.1,0.1c-0.2,0.1,0,0.3-0.2,0.5
		c-0.1,0,0,0.1,0.1,0.1c0.1,0,0.2,0,0.3,0.1s0.1,0.1,0.2,0c0.1,0,0.2,0,0.2,0.1s0,0.2,0.2,0.2c0.1,0,0.1,0,0.1,0.1s0,0.1,0,0.2
		c0.1,0,0.1,0,0.1,0s0,0,0.1,0c0,0,0.1,0,0.1,0.1c-0.1,0.1,0,0.2,0.1,0.2c0.2,0.1,0.3,0.2,0.5,0.3c0.1,0.1,0.2,0.2,0.2,0.3
		c0,0.1,0,0.2,0,0.4c0,0.2,0,0.3,0.2,0.4c0.1,0.1,0.1,0.2,0.2,0.3c0.1,0.1,0.2,0.2,0.3,0.3c0.1,0.1,0,0.1,0,0.2
		c-0.1,0.1-0.1,0-0.1,0s0-0.1-0.1-0.1c-0.2,0-0.3-0.2-0.5-0.2l-0.1-0.1c-0.1-0.1-0.1-0.1-0.2-0.1c0.2,0.2,0.5,0.4,0.7,0.6
		c0.1,0.1,0.1,0.2,0.3,0.1h0.1c0.2,0.2,0.6,0.2,0.8,0.4c0.4,0.2,0.8,0.3,1.3,0.4c0.1,0,0.3,0,0.4,0.1c0.1,0,0.2-0.1,0.2,0.1
		c0.3,0.1,0.6,0.1,0.8,0c0.1,0,0.2,0,0.4,0c0.5,0.1,1.1,0.1,1.6,0c0.3,0,0.7-0.1,1-0.1c0.6,0,1.3-0.2,1.9-0.3c0.2,0,0.4-0.1,0.5-0.3
		c0,0,0.1,0,0.1-0.1c0.3-0.1,0.6-0.2,0.9-0.3c0.2-0.1,0.4-0.2,0.4-0.3c0-0.1,0.2-0.2,0.3-0.3c0.3-0.2,0.7-0.2,0.9-0.5
		c0.1-0.1,0.1-0.1,0.2-0.2c0.2-0.2,0.4-0.3,0.6-0.5C127.1,23.8,127.2,23.6,127.3,23.5L127.3,23.5z M114.1,21.4
		c-0.1,0-0.1,0.1-0.1,0.1c-0.1,0.2-0.3,0.2-0.5,0.1c0,0-0.1-0.1-0.1,0c0,0,0,0.1,0.1,0.1c0.1,0,0.2,0.1,0.2,0.2s0,0.1-0.1,0.1
		s-0.1,0-0.1-0.1v-0.1c0-0.1-0.1-0.1-0.2,0c0,0-0.1,0.1-0.1,0c-0.1,0,0-0.1,0-0.1c0-0.2-0.1-0.3-0.3-0.3c-0.1,0-0.1,0-0.1-0.1
		c-0.1-0.1,0.1-0.5,0.3-0.5c-0.1,0-0.2-0.1-0.1-0.2c0.1,0,0-0.2,0-0.2c0-0.1,0-0.1,0.1-0.1c0.1,0,0.1,0,0.1,0.1
		c0.1,0.1,0.1,0.2,0.2,0.2c0,0.1,0.1,0,0.1,0c0.1,0,0.1,0,0.1,0c0.1,0,0.1,0,0.1-0.1s0-0.1,0.1-0.1c0.1,0,0.1,0.1,0.1,0.1
		c0.1,0.1-0.1,0.2-0.1,0.3c0,0.1-0.1,0.2,0.1,0.2c0.1,0,0.1-0.1,0.1-0.2C114.3,21.1,114.3,21.2,114.1,21.4 M114.4,20.2
		c-0.2,0-0.3,0-0.4-0.1c-0.1,0-0.1,0.1-0.2,0l0,0c0.1,0,0.1,0,0.2-0.1c0.2,0.1,0.3,0,0.5-0.1l0,0h0.1V20
		C114.5,20.2,114.4,20.2,114.4,20.2 M113.1,19.7c-0.1,0.1-0.2,0.1-0.3,0.1c-0.1,0,0.2-0.1,0.3-0.3l0,0l0.1,0l0,0.1
		C113.2,19.7,113.1,19.7,113.1,19.7 M114.7,25.9c-0.1,0-0.1-0.1-0.1-0.2c0,0,0-0.1,0.1-0.1s0.2,0,0.2,0.1
		C114.9,25.9,114.8,25.9,114.7,25.9 M115.3,20.1c-0.1,0.1-0.2,0.1-0.4,0.1c-0.1,0-0.1-0.1-0.1-0.2v-0.1l0,0c0.1,0,0.2-0.1,0.3-0.1
		s0.2,0.1,0.3,0.1c0,0.1,0.1,0.1,0.1,0.2C115.4,20,115.3,20,115.3,20.1 M121.9,22.2c0-0.1,0-0.1,0-0.1c0-0.1,0.1-0.1,0-0.2
		c0,0-0.1,0-0.1-0.1h0.1c0.1,0,0.1,0,0.1,0.1s0,0.2,0,0.2S122,22.2,121.9,22.2 M122.5,25.4c-0.1-0.1,0-0.1,0-0.2h0.1
		C122.7,25.3,122.6,25.3,122.5,25.4"/>
	<path style="opacity:0.6;clip-path:url(#SVGID_00000108304683827005590110000006261305819257790908_);fill:#FFFFFF;" d="M126.6,9.2
		L126.6,9.2c-0.2,0-0.3,0-0.4,0s-0.1,0-0.1,0c-0.1,0-0.1,0-0.2,0c-0.1,0.1,0,0.1,0.1,0.2l0,0c0,0.1,0,0.1,0.1,0.1s0.1,0,0.1,0
		c0,0.1,0,0.1-0.1,0.1c-0.2-0.1-0.4,0-0.3,0.3c0.1,0.2,0.1,0.4-0.1,0.6c-0.1,0-0.2,0.1-0.4,0.1c-0.1,0-0.1,0,0,0.1
		c0,0.1,0.1,0.1,0.2,0.1s0.2,0,0.3,0c-0.1,0.1,0,0.2,0.1,0.3c0,0,0,0,0,0.1c-0.1,0.1-0.1,0.1,0.1,0.1c0.1,0,0.1,0,0.1,0
		c-0.1,0.1-0.2,0-0.3,0c-0.2,0-0.3,0.1-0.4,0.3c0,0.1-0.1,0.2-0.2,0.2s-0.2-0.1-0.2-0.3s0-0.4-0.1-0.5s-0.1-0.1-0.2-0.1
		c-0.1,0.1-0.1,0.1,0,0.2l0.1,0.1c-0.2,0.1-0.4,0.1-0.3,0.3c0,0.1-0.1,0.1-0.1,0.1c-0.1,0-0.1-0.1-0.2-0.2c-0.1,0.2-0.2,0.3-0.4,0.2
		h-0.1c-0.2,0-0.1-0.1-0.1-0.2c0.1-0.1,0.1-0.2-0.1-0.2c-0.1,0-0.1,0-0.2,0c-0.1,0-0.1,0-0.1,0.1s-0.1,0.1-0.2,0.1h-0.1
		c-0.1,0.2-0.3,0.1-0.6,0.2c-0.3,0-0.5,0.1-0.8,0.2c0.2,0.1,0.5,0.1,0.7,0.2c0.1,0,0.1,0,0.1,0c-0.1,0.1,0.4,0.1,0,0.2
		c-0.1,0-0.1,0.1-0.1,0.2c0,0.1,0.1,0.1,0.2,0.1s0.2,0,0.2,0c0,0.1,0,0.1-0.1,0.2c-0.1,0.1-0.1,0-0.1,0l0,0c-0.2,0-0.4-0.1-0.6-0.2
		c-0.1,0-0.2,0-0.3-0.1s-0.2,0-0.2,0.1c0,0,0,0.1-0.1,0.1c-0.1,0-0.1-0.1-0.1-0.1l0,0c-0.1-0.1-0.1-0.2-0.2-0.2
		c-0.1,0-0.1,0.2-0.1,0.2c-0.1,0.1-0.1,0.2-0.2,0.1c0,0,0,0,0,0.1s0.2,0.1,0.1,0.2c-0.1,0.1-0.2-0.1-0.2-0.1
		c-0.1-0.1-0.1-0.2-0.1-0.3c-0.1-0.1-0.3-0.1-0.4-0.1c-0.2-0.1-0.4-0.2-0.5-0.3c-0.1-0.1-0.2-0.2-0.1-0.4c0-0.1,0-0.2-0.2-0.2
		c-0.1,0-0.2-0.1-0.3-0.1h-0.1v-0.1c0,0,0.1,0,0.1-0.1h-0.1c-0.1,0-0.1,0-0.1-0.1s0.1,0,0.1,0c0.1,0,0.1,0,0.1-0.1
		c0.1-0.1,0.2-0.3,0.4-0.3c0.2-0.1,0.2-0.5,0.2-0.7l-0.1-0.1c0-0.2,0-0.4-0.2-0.1h-0.1c0-0.1-0.1-0.1-0.1-0.2s0.1-0.1,0-0.2
		c-0.1,0-0.2-0.2-0.3-0.1c-0.3-0.3-0.6-0.3-0.4,0l0,0c-0.3,0-0.4,0.4-0.7,0.4c-0.1,0-0.1,0.1-0.1,0.2c0,0,0.1,0.1,0,0.1
		c-0.1,0-0.1,0-0.2,0l-0.1-0.1c0.1-0.2,0-0.4,0.2-0.5c0.1,0,0-0.1,0-0.1c-0.1-0.1-0.1-0.1-0.2-0.2c-0.1-0.1,0-0.1,0-0.2
		c0.1,0,0.3-0.2,0.4,0h0.1c0,0,0.1-0.1,0.1-0.2c0-0.1-0.1,0-0.1,0c-0.2,0-0.2-0.2-0.4-0.2c-0.1-0.1-0.1,0-0.1,0l-0.1,0.1H117V8.5
		c0.2-0.1,0.3-0.2,0-0.4c-0.1,0-0.1-0.2,0-0.2c0.1-0.2,0-0.1-0.1-0.2c0.3-0.1,0.4-0.4,0.6-0.7c0.2-0.3,0.6-0.5,0.9-0.7
		c0.1,0.1,0.3,0,0.3-0.1c0.1-0.1,0.1-0.1,0.2-0.1l0,0l0,0l0,0c0.1,0,0.1,0,0.2,0c0-0.1,0.1-0.1,0.1,0c0.1,0,0.1,0.1,0.1,0.1
		c0.1-0.1,0.1-0.2,0.1-0.3c0.1,0,0.1,0,0.2-0.1s0.3-0.1,0.2,0.1c0,0.1,0.1,0.2,0.2,0.2s0.4-0.1,0.5-0.2c0.1,0,0.3-0.3,0.3,0.1
		c0.3,0,0.3,0,0.3,0c0.2-0.1,0.3,0.1,0.4,0.2c0.1,0,0.1,0.1,0,0.1c0,0,0,0.1-0.1,0.1c-0.1,0-0.1,0-0.1,0c0,0.1-0.1,0.2,0.1,0.2
		c0.1,0,0.1,0.1,0.1,0.1s0.1,0.1,0.1,0c0.1-0.1,0.3,0,0.5-0.1c0.1,0,0.1-0.1,0.2,0c0.2,0.2,0.5,0.2,0.8,0.3c0.1,0.1,0.2,0.1,0.4,0
		h0.1c0.3,0.2,0.7,0.3,1,0.5l0.1,0.1c-0.1,0.2,0,0.2,0.1,0.3c0.1,0,0.1,0.2,0,0.2c-0.1,0.2,0,0.2,0.1,0.3c0,0,0,0,0.1,0.1
		s0,0.3,0.1,0.2s0.3-0.2,0.3-0.4s0-0.3,0.2-0.1c0.1,0.1,0.3,0.1,0.4,0.2c0,0,0.1,0,0.1-0.1c0,0.3,0,0.2,0.1,0.2
		c0,0.2,0.2,0.3,0.1,0.5l0,0h0.1c0-0.1,0.1-0.1,0.1-0.1l0,0v0.1C126.3,9,126.6,9.1,126.6,9.2z M124.3,9.8c0,0.1,0,0.2,0.1,0.3
		c0.1,0.1,0.2,0,0.4,0c0-0.1,0.1-0.2,0-0.3C124.6,9.6,124.5,9.8,124.3,9.8z M121.7,7.6c-0.1-0.1-0.1-0.1-0.2,0
		c-0.1,0.1,0,0.1,0.1,0.2l0.1,0.1c0,0.1,0,0.1,0.1,0.1c0.1,0,0.1,0,0.2-0.1C121.9,7.6,121.8,7.7,121.7,7.6z M124.8,10.4v0.1
		c0,0,0.1,0.1,0.1,0c0.1,0,0-0.1,0-0.1C124.9,10.4,124.9,10.4,124.8,10.4z M123.9,11.6L123.9,11.6L123.9,11.6L123.9,11.6L123.9,11.6
		z"/>
</g>
</svg>
