<?xml version="1.0" encoding="utf-8"?>
<!-- Generator: Adobe Illustrator 25.4.1, SVG Export Plug-In . SVG Version: 6.00 Build 0)  -->
<svg version="1.1" id="Layer_1" xmlns="http://www.w3.org/2000/svg" xmlns:xlink="http://www.w3.org/1999/xlink" x="0px" y="0px"
	 viewBox="0 0 215.2 45.3" style="enable-background:new 0 0 215.2 45.3;" xml:space="preserve">
<style type="text/css">
	.st0{fill:#FFFFFF;}
	.st1{clip-path:url(#SVGID_00000043422748826057258200000000163679611542107576_);}
	.st2{opacity:0.4;}
	.st3{opacity:0.6;clip-path:url(#SVGID_00000043422748826057258200000000163679611542107576_);}
	.st4{opacity:0.5;fill:#FFFFFF;}
	.st5{opacity:0.6;clip-path:url(#SVGID_00000043422748826057258200000000163679611542107576_);fill:#FFFFFF;}
</style>
<g>
	<g>
		<rect x="42.3" class="st0" width="0.9" height="43.9"/>
	</g>
	<g>
		<path class="st0" d="M7.9,14.3c-0.7,0-1.3,0.1-1.9,0.3S5,15,4.6,15.3l0.6-4.7h7.9V7.4H2L0.8,18.6l3.5,0.2c0.2-0.5,0.5-0.9,0.9-1.2
			c0.4-0.3,1-0.4,1.8-0.4c0.9,0,1.6,0.3,2.1,1s0.7,1.6,0.7,2.8s-0.2,2-0.6,2.7S8,24.6,7.1,24.6c-0.8,0-1.5-0.2-2-0.7s-0.8-1.1-0.8-2
			l-3.9,0.2v0.1c-0.1,1.7,0.6,3,1.9,4s2.9,1.5,4.7,1.5c2.3,0,4-0.6,5.1-1.9c1.1-1.2,1.7-2.8,1.7-4.8c0-2.1-0.5-3.8-1.5-4.9
			C11.2,14.9,9.8,14.3,7.9,14.3"/>
		<g>
			<rect x="17.4" y="34" class="st0" width="2.1" height="0.8"/>
			<g>
				<polygon class="st0" points="22.6,37.1 21.5,37.1 21.5,32.7 20.4,32.7 20.4,31.9 22.6,31.7 				"/>
				<path class="st0" d="M25.9,36.3c0.3,0,0.5-0.1,0.6-0.3s0.2-0.5,0.2-0.8v-0.3c-0.1,0.2-0.3,0.3-0.4,0.3c-0.2,0.1-0.3,0.1-0.5,0.1
					c-0.5,0-0.9-0.2-1.2-0.5s-0.4-0.8-0.4-1.3s0.2-1,0.5-1.3s0.8-0.5,1.3-0.5s1,0.2,1.3,0.5c0.3,0.4,0.5,0.9,0.5,1.5v1.4
					c0,0.6-0.2,1.1-0.6,1.5s-0.8,0.5-1.4,0.5c-0.2,0-0.4,0-0.6-0.1c-0.2,0-0.4-0.1-0.6-0.2l0.2-0.8c0.1,0.1,0.3,0.1,0.4,0.1
					C25.5,36.3,25.7,36.3,25.9,36.3 M26,34.5c0.2,0,0.3,0,0.5-0.1c0.1-0.1,0.2-0.2,0.3-0.3v-0.6c0-0.3-0.1-0.6-0.2-0.8
					s-0.3-0.3-0.6-0.3c-0.2,0-0.4,0.1-0.5,0.3s-0.2,0.4-0.2,0.7s0.1,0.5,0.2,0.7C25.6,34.5,25.8,34.5,26,34.5"/>
				<path class="st0" d="M32.2,32.6c-0.6,0.7-1,1.3-1.2,1.9c-0.2,0.6-0.3,1.2-0.3,1.9v0.7h-1.1v-0.7c0-0.7,0.1-1.4,0.4-2
					s0.7-1.2,1.2-1.8h-2.7v-0.8h3.7V32.6L32.2,32.6z"/>
				<path class="st0" d="M36.5,37.1h-3.6v-0.7l1.6-1.9c0.2-0.3,0.4-0.5,0.5-0.7s0.1-0.4,0.1-0.5c0-0.2-0.1-0.4-0.2-0.5
					s-0.3-0.2-0.5-0.2s-0.4,0.1-0.5,0.2c-0.1,0.2-0.2,0.4-0.2,0.6h-1l0,0c0-0.5,0.1-0.9,0.5-1.2c0.3-0.3,0.8-0.5,1.3-0.5
					s1,0.1,1.3,0.4c0.3,0.3,0.4,0.7,0.4,1.1c0,0.3-0.1,0.6-0.2,0.9s-0.5,0.6-0.9,1.1l-0.9,1l0,0h2.2L36.5,37.1L36.5,37.1z"/>
			</g>
			<g>
				<path class="st0" d="M3.7,37.1H0.1v-0.7l1.6-1.9C2,34.2,2.2,34,2.3,33.8s0.1-0.4,0.1-0.5c0-0.2-0.1-0.4-0.2-0.5S2,32.5,1.8,32.5
					s-0.4,0.1-0.5,0.2c-0.1,0.2-0.2,0.4-0.2,0.6H0l0,0c0-0.5,0.1-0.9,0.5-1.2c0.3-0.3,0.8-0.5,1.3-0.5s1,0.1,1.3,0.4
					c0.3,0.3,0.4,0.7,0.4,1.1c0,0.3-0.1,0.6-0.2,0.9s-0.5,0.6-0.9,1.1l-0.9,1l0,0h2.2L3.7,37.1L3.7,37.1z"/>
				<path class="st0" d="M7.9,35.2c0,0.6-0.2,1.1-0.5,1.5s-0.8,0.5-1.3,0.5s-1-0.2-1.3-0.5s-0.5-0.8-0.5-1.5v-1.5
					c0-0.6,0.2-1.1,0.5-1.5c0.3-0.4,0.8-0.5,1.3-0.5s1,0.2,1.3,0.5c0.3,0.4,0.5,0.8,0.5,1.5L7.9,35.2L7.9,35.2z M6.9,33.6
					c0-0.3-0.1-0.6-0.2-0.8s-0.3-0.3-0.5-0.3s-0.4,0.1-0.5,0.3s-0.2,0.5-0.2,0.8v1.7c0,0.3,0.1,0.6,0.2,0.8s0.3,0.3,0.6,0.3
					c0.2,0,0.4-0.1,0.5-0.3S7,35.6,7,35.3L6.9,33.6L6.9,33.6z"/>
				<path class="st0" d="M12.2,37.1H8.7v-0.7l1.6-1.9c0.2-0.3,0.4-0.5,0.5-0.7s0.1-0.4,0.1-0.5c0-0.2-0.1-0.4-0.2-0.5
					s-0.3-0.2-0.5-0.2s-0.4,0.1-0.5,0.2c-0.1,0.2-0.2,0.4-0.2,0.6h-1l0,0c0-0.5,0.1-0.9,0.5-1.2c0.3-0.3,0.8-0.5,1.3-0.5
					s1,0.1,1.3,0.4c0.3,0.3,0.4,0.7,0.4,1.1c0,0.3-0.1,0.6-0.2,0.9s-0.5,0.6-0.9,1.1l-0.9,1l0,0h2.2L12.2,37.1L12.2,37.1z"/>
				<path class="st0" d="M16.5,37.1H13v-0.7l1.6-1.9c0.2-0.3,0.4-0.5,0.5-0.7s0.1-0.4,0.1-0.5c0-0.2-0.1-0.4-0.2-0.5
					s-0.3-0.2-0.5-0.2s-0.4,0.1-0.5,0.2c-0.1,0.2-0.2,0.4-0.2,0.6h-1l0,0c0-0.5,0.1-0.9,0.5-1.2c0.3-0.3,0.8-0.5,1.3-0.5
					s1,0.1,1.3,0.4c0.3,0.3,0.4,0.7,0.4,1.1c0,0.3-0.1,0.6-0.2,0.9s-0.5,0.6-0.9,1.1l-0.9,1l0,0h2.2L16.5,37.1L16.5,37.1z"/>
			</g>
		</g>
	</g>
	<g>
		<g>
			<g>
				<path class="st0" d="M82.7,18.1c-0.7,0-1.2-0.1-1.7-0.3s-0.9-0.5-1.4-1c-0.5,0.4-1,0.8-1.6,1s-1.2,0.3-1.9,0.3h-1.7
					c-0.6,0-0.9,0.1-1.2,0.3s-0.3,0.6-0.3,1.2v4.7H70v-5.7c0-0.8,0.2-1.5,0.6-2s1-0.8,1.8-0.8c-0.3-0.8-0.5-1.7-0.5-2.7
					c0-0.6,0.1-1.2,0.3-1.9c0.2-0.7,0.4-1.2,0.7-1.6c0.6-0.3,1.2-0.6,1.9-0.8c0.7-0.2,1.3-0.3,1.8-0.3c0.9,0,1.6,0.2,2.3,0.6
					c0.7,0.4,1.2,0.9,1.6,1.6s0.6,1.5,0.6,2.4c0,0.7-0.1,1.3-0.4,2c0.2,0.3,0.5,0.5,0.8,0.6s0.7,0.2,1.1,0.2h0.1
					c0.1,0,0.1,0,0.1,0.1v2.2C82.8,18.1,82.8,18.2,82.7,18.1L82.7,18.1L82.7,18.1z M74.5,13.6c0,0.7,0.1,1.4,0.4,2.3h0.7
					c0.8,0,1.4-0.3,1.9-0.8s0.8-1.2,0.8-1.9s-0.2-1.3-0.5-1.7s-0.8-0.6-1.3-0.6c-0.6,0-1.1,0.2-1.7,0.5
					C74.6,12.1,74.5,12.8,74.5,13.6z"/>
				<path class="st0" d="M84.7,15.8c-0.3-0.8-0.5-1.7-0.5-2.7c0-0.6,0.1-1.2,0.3-1.8s0.4-1.2,0.7-1.7C85.7,9.3,86.4,9,87,8.8
					c0.7-0.2,1.3-0.3,1.8-0.3c0.9,0,1.6,0.2,2.3,0.6c0.7,0.4,1.2,0.9,1.6,1.6c0.4,0.7,0.6,1.5,0.6,2.4c0,1-0.2,1.9-0.7,2.6
					c-0.4,0.8-1,1.3-1.8,1.8c-0.8,0.4-1.6,0.6-2.6,0.6h-5.7c-0.1,0-0.1,0-0.1-0.1v-2.2c0,0,0-0.1,0.1-0.1h2.2V15.8z M86.8,13.6
					c0,0.7,0.1,1.4,0.4,2.3h0.7c0.8,0,1.4-0.3,1.9-0.8s0.8-1.2,0.8-1.9s-0.2-1.2-0.5-1.6c-0.3-0.4-0.8-0.6-1.3-0.6
					c-0.6,0-1.1,0.2-1.7,0.5C86.9,12.1,86.8,12.8,86.8,13.6z"/>
				<path class="st0" d="M94.8,15.8h3.4L95.7,6h2.9l2.2,9.8h0.1c0.6,0,1.1-0.2,1.4-0.5s0.4-0.9,0.4-1.7V3.4h2.8v10.4
					c0,1.3-0.4,2.4-1,3.2c-0.7,0.8-1.7,1.2-2.9,1.2h-6.9L94.8,15.8L94.8,15.8z M94.9,3.9L96,3.7c-0.2-0.1-0.4-0.3-0.6-0.5
					s-0.2-0.5-0.2-0.8c0-0.6,0.2-1,0.6-1.3s0.9-0.5,1.5-0.5s1.1,0.1,1.5,0.4l-0.4,1c-0.3-0.2-0.6-0.2-1-0.2c-0.3,0-0.5,0.1-0.6,0.2
					c-0.2,0.2-0.2,0.4-0.2,0.7c0,0.2,0,0.4,0.2,0.5c0.1,0.1,0.2,0.3,0.4,0.3l0.3-0.1c0.6-0.1,1.1-0.2,1.5-0.2v1.1
					c-0.4,0-1.2,0.1-2.2,0.2s-1.6,0.2-1.7,0.2V3.9H94.9z"/>
				<path class="st0" d="M108.7,3.4h2.8v14.7h-2.8V3.4z"/>
				<path class="st0" d="M123.3,24.4c-1.2,0-2.2-0.3-2.9-1c-0.7-0.7-1-1.6-1-2.8c0-0.8,0.2-1.6,0.7-2.3c0.5-0.7,1.2-1.3,2.2-1.9
					s2.4-1.1,4.1-1.7c-0.1-0.4-0.3-1-0.4-1.8c-0.2-1-0.5-1.8-0.9-2.3s-1-0.7-1.8-0.7c-0.4,0-1,0.1-1.6,0.3s-1.2,0.4-1.7,0.7
					l-0.7-1.3c0.5-0.3,1.1-0.6,1.8-0.8s1.4-0.3,2.1-0.3c2.4,0,3.8,1.4,4.2,4.1c0.2,1.2,0.4,2.1,0.6,2.6c0.2,0.5,0.4,0.8,0.7,1.1
					c0.3,0.2,0.7,0.4,1.2,0.4h0.1c0.1,0,0.1,0,0.1,0.1v1.3c0,0.1,0,0.1-0.1,0.1h-0.1c-0.7,0-1.3-0.2-1.8-0.5s-0.9-0.8-1.3-1.5
					c-1.5,0.4-2.6,0.8-3.5,1.3s-1.4,0.9-1.8,1.4s-0.6,1-0.6,1.6c0,0.8,0.2,1.4,0.7,1.8s1.2,0.6,2.2,0.6c0.6,0,1.5-0.1,2.8-0.3
					l0.2,1.3c-0.9,0.2-1.6,0.3-2.1,0.4C124.3,24.3,123.8,24.4,123.3,24.4z M124.2,21.4c-0.3,0-0.6-0.1-0.8-0.3s-0.3-0.5-0.3-0.9
					s0.1-0.7,0.3-0.9s0.4-0.3,0.8-0.3s0.6,0.1,0.8,0.3c0.2,0.2,0.3,0.5,0.3,0.8s-0.1,0.6-0.3,0.8S124.5,21.4,124.2,21.4z"/>
				<path class="st0" d="M130,18.1C129.9,18.1,129.9,18.1,130,18.1l-0.1-1.4c0,0,0-0.1,0.1-0.1h2.3c-0.5-1.2-0.7-2.3-0.7-3.3
					c0-1.2,0.2-2.2,0.7-3.1c0.5-0.4,1-0.7,1.6-1c0.6-0.2,1.2-0.4,1.9-0.4c0.8,0,1.5,0.2,2,0.5s1,0.9,1.4,1.5
					c0.3,0.7,0.5,1.4,0.5,2.2c0,1-0.2,1.9-0.5,2.6c-0.3,0.7-0.9,1.3-1.5,1.7c-0.6,0.4-1.4,0.6-2.2,0.6H130V18.1z M133.3,13
					c0,0.6,0,1.2,0.2,1.8c0.1,0.6,0.3,1.2,0.6,1.9h1.3c0.8,0,1.5-0.3,1.9-0.9s0.7-1.4,0.7-2.5c0-0.8-0.2-1.5-0.6-2
					c-0.4-0.5-1-0.8-1.6-0.8c-0.4,0-0.8,0.1-1.2,0.2s-0.7,0.3-1,0.6c-0.1,0.3-0.2,0.5-0.2,0.8C133.3,12.3,133.3,12.6,133.3,13z"/>
				<path class="st0" d="M142.2,3.4h1.7v13.2h2.5c0.1,0,0.1,0,0.1,0.1V18c0,0.1,0,0.1-0.1,0.1h-4.1L142.2,3.4L142.2,3.4z"/>
				<path class="st0" d="M146.1,18.1C146.1,18.1,146,18.1,146.1,18.1l-0.1-1.4c0,0,0-0.1,0.1-0.1h2.5V8.7h1.7v9.4
					C150.3,18.1,146.1,18.1,146.1,18.1z M149.4,6.9c-0.3,0-0.6-0.1-0.8-0.3s-0.3-0.5-0.3-0.9s0.1-0.7,0.3-0.9s0.4-0.3,0.8-0.3
					s0.6,0.1,0.8,0.3c0.2,0.2,0.3,0.5,0.3,0.9s-0.1,0.6-0.3,0.9C150,6.8,149.8,6.9,149.4,6.9z"/>
				<path class="st0" d="M155.9,18.1v0.5c0,1.3-0.3,2.3-0.9,3.1c-0.6,0.7-1.4,1.1-2.5,1.1c-0.6,0-1.2-0.2-1.9-0.5l0.5-1.3
					c0.3,0.1,0.5,0.2,0.8,0.3c0.2,0,0.4,0.1,0.6,0.1c0.6,0,1-0.2,1.3-0.7s0.5-1.1,0.5-1.9v-10h1.6v7.9h2.3c0.1,0,0.1,0,0.1,0.1V18
					c0,0.1,0,0.1-0.1,0.1H155.9L155.9,18.1z"/>
				<path class="st0" d="M158,18.1C158,18.1,157.9,18.1,158,18.1l-0.1-1.4c0,0,0-0.1,0.1-0.1h2.5V8.7h1.7v9.4
					C162.2,18.1,158,18.1,158,18.1z M161.2,22c-0.3,0-0.6-0.1-0.8-0.3s-0.3-0.5-0.3-0.9s0.1-0.7,0.3-0.9s0.4-0.3,0.8-0.3
					s0.6,0.1,0.8,0.3c0.2,0.2,0.3,0.5,0.3,0.8s-0.1,0.6-0.3,0.8C161.8,21.9,161.6,22,161.2,22z"/>
				<path class="st0" d="M53.4,41.4c-1.5,0-2.7-0.4-3.5-1.2s-1.2-1.9-1.2-3.3c0-1.5,0.5-2.7,1.4-3.6s2.2-1.3,3.7-1.3H55v-1.2h1.6
					v9.1h2.1c0.1,0,0.1,0,0.1,0.1v1.3c0,0.1,0,0.1-0.1,0.1L53.4,41.4L53.4,41.4z M55.1,39.9v-6.4h-1.2c-1.1,0-2,0.3-2.6,0.9
					c-0.6,0.6-0.9,1.4-0.9,2.5c0,1,0.3,1.7,0.8,2.2s1.3,0.8,2.3,0.8H55.1L55.1,39.9z M52.5,29c-0.3,0-0.5-0.1-0.7-0.3
					c-0.2-0.2-0.3-0.5-0.3-0.9s0.1-0.7,0.3-0.9c0.2-0.2,0.4-0.3,0.7-0.3s0.6,0.1,0.8,0.3s0.3,0.5,0.3,0.9s-0.1,0.7-0.3,0.9
					S52.8,29,52.5,29z M55.7,29c-0.3,0-0.6-0.1-0.8-0.3s-0.3-0.5-0.3-0.9s0.1-0.7,0.3-0.9s0.4-0.3,0.8-0.3s0.6,0.1,0.8,0.3
					c0.2,0.2,0.3,0.5,0.3,0.8s-0.1,0.6-0.3,0.8C56.3,28.9,56,29,55.7,29z"/>
				<path class="st0" d="M58.6,41.4C58.5,41.4,58.5,41.4,58.6,41.4L58.5,40c0,0,0-0.1,0.1-0.1h3V32h1.7v7.9h2.8c0.1,0,0.1,0,0.1,0.1
					v1.3c0,0.1,0,0.1-0.1,0.1C66.1,41.4,58.6,41.4,58.6,41.4z M60.5,29.3l0.9-0.1c-0.4-0.3-0.7-0.7-0.7-1.2c0-0.6,0.2-1,0.5-1.3
					c0.4-0.3,0.8-0.5,1.4-0.5c0.5,0,0.9,0.1,1.2,0.3l-0.3,0.9c-0.2-0.2-0.6-0.2-0.9-0.2c-0.3,0-0.5,0.1-0.7,0.2
					c-0.2,0.2-0.3,0.4-0.3,0.8c0,0.2,0.1,0.4,0.2,0.6c0.1,0.2,0.2,0.3,0.4,0.3c0.1,0,0.4-0.1,0.9-0.2s0.8-0.1,1-0.1v1
					c-0.1,0-0.3,0-0.7,0s-1,0.1-1.9,0.2l-1.1,0.2L60.5,29.3L60.5,29.3z"/>
				<path class="st0" d="M65.9,41.4C65.9,41.4,65.8,41.4,65.9,41.4L65.8,40c0,0,0-0.1,0.1-0.1h3V32h1.7v7.9h2.8c0.1,0,0.1,0,0.1,0.1
					v1.3c0,0.1,0,0.1-0.1,0.1C73.4,41.4,65.9,41.4,65.9,41.4z M68.2,45.3c-0.3,0-0.5-0.1-0.7-0.3s-0.3-0.5-0.3-0.9s0.1-0.7,0.3-0.9
					c0.2-0.2,0.4-0.3,0.7-0.3c0.3,0,0.6,0.1,0.8,0.3c0.2,0.2,0.3,0.5,0.3,0.9S69.2,44.8,69,45C68.8,45.2,68.5,45.3,68.2,45.3z
					 M71.4,45.3c-0.3,0-0.6-0.1-0.8-0.3s-0.3-0.5-0.3-0.9s0.1-0.7,0.3-0.9s0.4-0.3,0.8-0.3s0.6,0.1,0.8,0.3c0.2,0.2,0.3,0.5,0.3,0.8
					s-0.1,0.6-0.3,0.8C72,45.2,71.8,45.3,71.4,45.3z"/>
				<path class="st0" d="M73.2,41.4C73.2,41.4,73.1,41.4,73.2,41.4L73.1,40c0,0,0-0.1,0.1-0.1h2.5V32h1.7v7.9h2.4
					c0.1,0,0.1,0,0.1,0.1v1.3c0,0.1,0,0.1-0.1,0.1C79.8,41.4,73.2,41.4,73.2,41.4z M76.4,45.3c-0.3,0-0.6-0.1-0.8-0.3
					s-0.3-0.5-0.3-0.9s0.1-0.7,0.3-0.9s0.4-0.3,0.8-0.3s0.6,0.1,0.8,0.3c0.2,0.2,0.3,0.5,0.3,0.8s-0.1,0.6-0.3,0.8
					C77,45.2,76.8,45.3,76.4,45.3z"/>
				<path class="st0" d="M79.6,41.4C79.5,41.4,79.5,41.4,79.6,41.4L79.5,40c0,0,0-0.1,0.1-0.1h2.5V26.7h1.7v13.2h2.4
					c0.1,0,0.1,0,0.1,0.1v1.3c0,0.1,0,0.1-0.1,0.1L79.6,41.4L79.6,41.4z"/>
				<path class="st0" d="M86,41.4C85.9,41.4,85.9,41.4,86,41.4L85.9,40c0,0,0-0.1,0.1-0.1h2.5V26.7h1.7v14.7H86z"/>
				<path class="st0" d="M101.2,41.6c-1.5,0-2.7-0.4-3.5-1.1s-1.2-1.9-1.2-3.3c0-1,0.2-1.9,0.6-2.8s1-1.5,1.7-2s1.5-0.7,2.5-0.7
					c0.9,0,1.6,0.2,2.3,0.7c0.7,0.5,1.3,1.1,1.7,2c0.4,0.9,0.6,1.8,0.6,2.8c0,1.5-0.4,2.7-1.2,3.4C103.9,41.2,102.7,41.6,101.2,41.6
					z M99.4,30.1c-0.4,0-0.7-0.1-0.9-0.4c-0.2-0.2-0.3-0.6-0.3-1s0.1-0.8,0.3-1s0.5-0.4,0.9-0.4s0.7,0.1,0.9,0.4
					c0.2,0.2,0.3,0.6,0.3,1s-0.1,0.8-0.3,1C100,30,99.7,30.1,99.4,30.1z M101.2,39.2c0.7,0,1.1-0.2,1.5-0.5s0.5-0.9,0.5-1.7
					s-0.2-1.6-0.6-2.2c-0.4-0.6-0.8-0.9-1.4-0.9c-0.5,0-1,0.3-1.4,0.9c-0.4,0.6-0.6,1.3-0.6,2.2c0,0.8,0.2,1.3,0.5,1.7
					C100,39.1,100.5,39.2,101.2,39.2z M102.5,30.1c-0.4,0-0.7-0.1-0.9-0.4c-0.2-0.2-0.3-0.6-0.3-1s0.1-0.8,0.3-1s0.5-0.4,0.9-0.4
					s0.7,0.1,0.9,0.4s0.3,0.6,0.3,1s-0.1,0.8-0.3,1C103.2,30,102.9,30.1,102.5,30.1z"/>
				<path class="st0" d="M107.5,39.1h6.2c-0.3-1.2-0.6-2.2-0.9-2.9c-0.4-0.7-0.8-1.4-1.4-1.9s-1.3-1-2.1-1.3l1-2.7
					c1.6,0.7,3,1.7,4,3.2c1,1.4,1.7,3.3,2.2,5.7h2.5c0.1,0,0.1,0,0.1,0.1v2.2c0,0.1,0,0.1-0.1,0.1h-11.5L107.5,39.1L107.5,39.1z"/>
				<path class="st0" d="M118.8,41.4C118.7,41.4,118.7,41.4,118.8,41.4l-0.1-2.2c0,0,0-0.1,0.1-0.1h7.5c-0.5-0.5-0.9-1.4-1.1-2.8
					c-0.2-0.9-0.4-1.5-0.8-1.8c-0.3-0.3-0.8-0.5-1.5-0.5c-0.4,0-0.9,0.1-1.2,0.2c-0.4,0.1-0.8,0.3-1.2,0.6l-0.8-2.1
					c1.1-0.6,2.4-0.9,3.9-0.9c1.2,0,2.2,0.3,2.9,0.9c0.7,0.6,1.1,1.5,1.4,2.9c0.3,1.9,0.8,3.2,1.3,3.7h1.2c0.1,0,0.1,0,0.1,0.1v2.2
					c0,0.1,0,0.1-0.1,0.1L118.8,41.4L118.8,41.4z"/>
				<path class="st0" d="M130.2,41.4C130.1,41.4,130.1,41.4,130.2,41.4l-0.1-2.2c0,0,0-0.1,0.1-0.1h2.9v-7.3h2.8v7.3h2.8
					c0.1,0,0.1,0,0.1,0.1v2.2c0,0.1,0,0.1-0.1,0.1L130.2,41.4L130.2,41.4z M132.7,30.1c-0.4,0-0.7-0.1-0.9-0.4
					c-0.2-0.2-0.3-0.6-0.3-1s0.1-0.8,0.3-1s0.5-0.4,0.9-0.4s0.7,0.1,0.9,0.4c0.2,0.2,0.3,0.6,0.3,1s-0.1,0.8-0.3,1
					C133.4,30,133.1,30.1,132.7,30.1z M135.9,30.1c-0.4,0-0.7-0.1-0.9-0.4c-0.2-0.2-0.3-0.6-0.3-1s0.1-0.8,0.3-1s0.5-0.4,0.9-0.4
					s0.7,0.1,0.9,0.4s0.3,0.6,0.3,1s-0.1,0.8-0.3,1C136.5,30,136.2,30.1,135.9,30.1z"/>
				<path class="st0" d="M140.6,39.1c-0.3-0.8-0.5-1.7-0.5-2.7c0-0.6,0.1-1.2,0.3-1.8s0.4-1.2,0.7-1.7c0.6-0.4,1.2-0.6,1.9-0.8
					s1.3-0.3,1.8-0.3c0.9,0,1.6,0.2,2.3,0.6c0.7,0.4,1.2,0.9,1.6,1.6c0.4,0.7,0.6,1.5,0.6,2.4c0,0.7-0.1,1.4-0.4,2
					c0.2,0.2,0.5,0.4,0.8,0.5s0.6,0.2,1.1,0.2h0.1c0.1,0,0.1,0,0.1,0.1v2.2c0,0.1,0,0.1-0.1,0.1h-0.1c-0.7,0-1.2-0.1-1.7-0.3
					s-0.9-0.5-1.4-1c-0.5,0.4-1,0.8-1.6,1s-1.2,0.3-1.9,0.3h-5.7c-0.1,0-0.1,0-0.1-0.1v-2.2c0,0,0-0.1,0.1-0.1H140.6z M142.7,36.8
					c0,0.7,0.1,1.4,0.4,2.3h0.7c0.8,0,1.4-0.3,1.9-0.8s0.8-1.2,0.8-1.9s-0.2-1.2-0.5-1.6c-0.3-0.4-0.8-0.6-1.3-0.6
					c-0.6,0-1.1,0.2-1.7,0.5C142.7,35.4,142.7,36.1,142.7,36.8z"/>
				<path class="st0" d="M150.7,41.4C150.6,41.4,150.6,41.4,150.7,41.4l-0.1-2.2c0,0,0-0.1,0.1-0.1h2.3V26.7h2.8v14.7H150.7z"/>
				<path class="st0" d="M159.1,26.7h2.8v14.7h-2.8V26.7z"/>
			</g>
		</g>
		<g>
			<g>
				<g>
					<g>
						<g>
							<g>
								<path class="st0" d="M190.7,33.7c-4.6-1.4-7.9-5.8-7.9-11.1c0-0.9,0.1-1.9,0.3-2.7l7.2,1c0,0,2.8,0.1,2.7,5.2
									C192.9,31.1,190.7,33.7,190.7,33.7z"/>
								<path class="st0" d="M197.2,33.7c4.6-1.4,7.9-5.8,7.9-11.1c0-0.9-0.1-1.9-0.3-2.7l-7.2,1c0,0-2.8,0.1-2.7,5.2
									C195,31.1,197.2,33.7,197.2,33.7z"/>
								<path class="st0" d="M193.9,14.4c0.9,0,1.7,0.8,1.7,1.8c0,0.8-0.5,1.3-1.1,1.7c-0.1,0-0.1,0.1-0.1,0.2s0.4,0.2,0.5,0.2
									l9.7,1.2c-1.4-4.8-5.6-8.3-10.7-8.3l0,0c-5.1,0-9.3,3.5-10.7,8.3l9.7-1.2c0.1,0,0.5-0.1,0.5-0.2s0-0.2-0.1-0.2
									c-0.6-0.3-1.1-0.9-1.1-1.7C192.2,15.1,193,14.4,193.9,14.4L193.9,14.4z"/>
							</g>
							<g>
								<path class="st0" d="M198.4,41.9l0.7-0.4c0,0-3.1-4.4-10.1-4.4c-3.6,0-5.4,1.5-8,1.5c0,0-1,0.1-2-0.5c0,0,1.2,1.8,5.5,1.8
									c3.2,0,5.4-1.9,7.7-1.9C195.2,37.9,197.4,40.8,198.4,41.9z"/>
							</g>
							<g>
								<path class="st0" d="M188.7,41.9l-0.7-0.4c0,0,3.1-4.4,10.1-4.4c3.6,0,5.4,1.5,8,1.5c0,0,1,0.1,2-0.5c0,0-1.2,1.8-5.5,1.8
									c-3.2,0-5.4-1.9-7.7-1.9C191.9,37.9,189.6,40.8,188.7,41.9z"/>
							</g>
							<path class="st0" d="M185.3,36.7c-0.1,0.3-1.5-0.1-2.4,0.2c-1,0.3-6.4,1-8.7-4.8c0,0,2.2,2.5,4,2.7c1.7,0.2,3.6,0.6,5.2,1.5
								l0.4,0.1c0,0,0-0.2-0.2-0.3s-1.9-0.7-2.7-3.4c-0.4-1.4-0.3-2.4-0.5-3.2c0,0,1.8,2.1,2.6,3.4
								C183.7,34.3,183.8,35.8,185.3,36.7z"/>
							<path class="st0" d="M179.9,33.8c-0.1,0.1-0.5-0.1-0.6-0.2c-0.1-0.1-1-0.5-2.5-1c-1.5-0.6-4.3-3-4-7.2c0,0,0.4,1.6,1.5,2.6
								s1.6,1.2,2.3,2s2.3,2.8,2.4,2.8s0.1-0.1,0-0.2s-0.5-1.2-0.8-1.5c-0.3-0.4-1.1-2.9,0.1-5.9c0,0,1.3,2.2,1.2,4.5
								s-0.2,1.7,0.4,3.6C179.6,33.2,179.9,33.7,179.9,33.8z"/>
							<path class="st0" d="M176.4,28.3c-0.1,0.1-0.4-0.4-0.6-0.8c-0.2-0.5-2-2.4-2.2-2.8s-2.2-2.8-0.7-6.4c0,0,0.1,0,0.1,0.8
								s0.8,2.8,1.4,3.6s1.2,2.1,1.3,3.5c0,0,0.1,0.3,0.2,0.3c0.1,0,0.1-0.3,0.1-0.3s-0.1-1.3-0.1-2.2s0.4-2.4,1.2-3.2
								c0,0,0.4-0.4,0.6-0.9c0,0,0.1-0.3,0.4-0.5c0,0,0.2,2.5-0.6,4.7c-0.8,2.3-1.1,2.7-1,3.9C176.4,28,176.4,28.3,176.4,28.3z"/>
							<path class="st0" d="M175,21.6c-0.1,0-0.1-0.3-0.2-0.5c0-0.2-0.3-1.6-0.5-1.9s-0.8-1.7-0.8-3.3s0.7-3.8,2.2-5.5
								c0,0-0.1,0.5-0.5,1.6s-0.2,2.2-0.1,2.4s0.2,1.5,0.2,2.1c0,0.5-0.1,2.2-0.2,2.5v0.2c0.1,0,0.2-0.2,0.2-0.2s0.1-1.3,1-2.5
								s2.7-1.9,2.9-2.5c0,0-0.1,1.9-2.1,4.1c-1.8,2-1.3,1-1.8,2.6c0,0-0.2,0.6-0.2,0.7C175.1,21.6,175,21.6,175,21.6z"/>
							<path class="st0" d="M176.1,15.2c0,0,0-0.3,0.3-0.8c0.3-0.6,0-1.6,0.4-3.1s1.2-4.1,4.1-5.6c0,0-0.3,0.3-0.4,0.5
								c-0.1,0.2-0.9,1.8-1.1,2.8c-0.2,1.1-1.2,2.9-1.6,3.3s-0.2,0.5-0.2,0.5s0.2,0,0.4-0.3s1.1-1.4,2.2-1.7s2.7-0.8,2.8-0.9
								c0,0-1.8,1.9-3.5,2.9s-1.9,0.7-2.8,2C176.5,14.8,176.2,15.2,176.1,15.2z"/>
							<path class="st0" d="M180.1,9.5c0,0,0-0.2,0.3-0.5s0.6-1.2,1.1-2s1.8-3,4.9-3.5c0,0-1,0.7-1.1,1c-0.1,0.2-1.1,1.5-1.5,1.9
								s-1.6,1.3-2,1.5l-0.2,0.2c0,0.1,0.2-0.1,0.2-0.1s1.1-0.9,2.4-0.9s2.7,0,2.9,0c0,0-1.2,0.9-4.2,1.4c-3,0.6-2.4,0.6-2.8,0.9
								C180.3,9.5,180.2,9.6,180.1,9.5z"/>
							<path class="st0" d="M185.3,6c0,0,0.1-0.2,0.5-0.3c0.5-0.1,0.4-0.6,1.9-1.4c1.4-0.8,3-1.1,4.5-0.5c0,0-0.6,0.1-0.7,0.1
								s-1.2,0.3-1.5,0.5s-1.9,0.9-2.5,1s-0.3,0.2-0.3,0.2s0.1,0.1,0.3,0.1c0.1,0,1.5-0.1,2.5,0.2c0.9,0.3,0.9,0.5,1.3,0.6
								c0.4,0.1,0.8,0.2,0.9,0.4c0,0-0.9,0.1-1.5,0.1s-2-0.1-2.7-0.5s-1.7-0.6-2-0.5C185.8,6,185.4,6,185.3,6z"/>
							<path class="st0" d="M191.2,5.2c0,0,0.1-0.1,0.5-0.2s0.5-0.3,1.5-0.6c1-0.2,2.5-0.4,3.9,0.6c0,0-0.8,0-1,0s-1.8,0.3-2.2,0.3
								s-1.1-0.2-1.2,0c-0.1,0.1,0.7,0.3,0.8,0.3s0.7,0.1,1.4,0.8s1.2,1.1,1.3,1.1c0,0-2.1-0.5-2.6-0.8s-1.4-1.2-1.5-1.3
								C191.8,5.4,191.2,5.2,191.2,5.2z"/>
							<path class="st0" d="M196,6.1c0,0,1.3,0,2.2,0.6s1.7,1.4,1.8,1.9c0,0-0.5-0.5-0.9-0.6s-1.3-0.7-1.5-0.8S196.2,6.3,196,6.1z"
								/>
							<path class="st0" d="M202.1,36.9c0,0,0.2-0.2,0.8-0.8s0.8-1.4,1.5-2.6c0.7-1.3,1.3-2.1,2.6-3.4c0,0-0.2,1-0.3,1.3
								s-0.2,2-1,2.9s-0.8,1.2-1.7,1.8c0,0-0.4,0.3-0.3,0.3c0,0.1,0.6,0,0.6,0s0.7-0.3,0.9-0.4s1.1-0.6,1.5-0.8s0.7-0.3,1.5-0.6
								s3.8-1,5-3c0,0-0.4,1.1-0.8,1.7c-0.4,0.5-2.9,3.9-6.3,3.8c0,0-1.3-0.1-2-0.2c-0.7-0.1-1-0.1-1-0.1
								C202.8,36.9,202.2,37,202.1,36.9z"/>
							<path class="st0" d="M209.7,24.9c0,0-1.3,2.1-1.6,5.1s0.2,2.1-0.3,3.4c0,0-0.2,0.3-0.1,0.4s0.3-0.1,1.2-0.7
								c0.9-0.6,1.8-0.4,3.7-2.3s2.3-5.8,2.4-6.1c0,0-0.3,0.3-0.4,0.8c-0.1,0.5-0.5,0.9-0.5,1c-0.1,0.1-2.2,2.5-2.4,2.7
								s-1.5,1.8-1.8,2.2s-1,1.3-1.2,1.2c0,0,0-0.2,0.1-0.3s0.6-1,0.9-1.9c0.2-0.9,0.3-1.5,0.3-2.1C210,27.6,209.7,25.4,209.7,24.9z
								"/>
							<path class="st0" d="M211.4,27.8c0,0-0.1-0.3,0-0.5c0.1-0.1,0.1-1.2-0.2-2c-0.4-0.8-1.2-3.1-1.1-4.7c0.1-1.5,0.2-1.8,0.2-1.8
								s0.4,1.3,0.5,1.5s1.4,2.5,1.3,3.7c-0.1,1.2-0.2,1.6-0.1,1.7c0.1,0,0.2-0.2,0.2-0.3c0-0.2,0.2-1,0.6-2c0.4-1,2-3.2,2.3-4.7
								c0,0,0.5,2.6-0.9,5s-1.5,1.9-2.1,3C211.5,27.7,211.5,27.8,211.4,27.8z"/>
							<path class="st0" d="M212.6,21.1c-0.1,0,0-1-0.3-1.3s-2.4-2.9-2.8-5.5c0,0,1.3,1.4,1.6,1.6s1.1,1.1,1.4,1.9s0.2,1.5,0.3,1.5
								s0.1-0.9,0.1-0.9s0-1.8,0.2-2.7c0.1-0.8,0.5-2.3,0.4-3c0,0,0.8,1.3,0.8,3.2s-0.8,3.4-0.9,3.6c-0.1,0.2-0.4,1.1-0.4,1.3
								S212.6,21.1,212.6,21.1z"/>
							<path class="st0" d="M210.1,7.7c0,0,2.8,1.7,2.4,7.4c0,0,0,0.3-0.2,0s-0.8-1.1-1-1.2c-0.3-0.2-2.7-1.7-3.8-4.1
								c0,0,0.2,0,0.4,0.2s1,0.6,1.1,0.7c0.1,0.1,1,0.3,1.6,1s0.9,1.3,1,1.7c0,0,0.2,0.2,0.1-0.3c-0.1-0.4-0.1-0.7-0.5-1.2
								s-0.6-1.5-0.7-2.2C210.6,9,210.4,8,210.1,7.7z"/>
							<path class="st0" d="M209.7,9.7c0,0,0.1-0.4-0.2-0.9s-0.1-1.1-0.9-2.5c-0.5-0.8-2.1-1.4-2.1-1.4s0.5,0.7,0.8,1.1
								s0.4,0.7,0.5,0.9c0.1,0.2,0.7,0.8,0.9,1.1c0,0.1,0.1,0.2,0.1,0.3s-0.2-0.1-0.3-0.1c-0.1-0.1-1.1-0.9-1.7-1
								c-0.6-0.1-1.9-0.3-2.2-0.4c0,0,1.4,1.4,3,1.8C209.1,8.8,209.7,9.7,209.7,9.7z"/>
							<path class="st0" d="M206.4,6.2c0,0-1.4-2-4-2c0,0,0.1,0.1,0.4,0.2c0.3,0.1,0.8,0.6,1.1,0.8C204.2,5.3,204.7,5.8,206.4,6.2z"
								/>
						</g>
					</g>
				</g>
			</g>
		</g>
	</g>
</g>
<g>
	<g>
		<g>
			<path class="st0" d="M28.6,20.2c0,0-1,1.3-1.2,3.2c-0.2,1.9,0.2,1.3-0.2,2.2l-0.1,0.2c0,0,0.2-0.1,0.9-0.5s1.4-0.3,2.9-1.5
				s1.8-3.7,1.8-3.9c0,0-0.2,0.2-0.3,0.5S32,21,32,21c-0.1,0-1.7,1.6-1.9,1.7C30,23,29,24,28.8,24.3s-0.8,0.8-0.9,0.8
				c0,0,0-0.1,0.1-0.2s0.5-0.6,0.7-1.2s0.2-1,0.2-1.4C28.9,21.9,28.6,20.5,28.6,20.2"/>
		</g>
	</g>
	<g>
		<g>
			<path class="st0" d="M29.9,22.1c0,0-0.1-0.2,0-0.3c0.1-0.1,0.1-0.7-0.2-1.3c-0.3-0.5-0.9-2-0.9-3c0.1-1,0.2-1.1,0.2-1.1
				s0.3,0.8,0.4,1c0.1,0.1,1.1,1.6,1,2.4s-0.1,1-0.1,1.1c0.1,0,0.2-0.1,0.2-0.2s0.2-0.6,0.5-1.3c0.3-0.6,1.5-2.1,1.8-3
				c0,0,0.4,1.7-0.7,3.2c-1.1,1.5-1.2,1.2-1.6,1.9C30.1,22,30,22.1,29.9,22.1"/>
		</g>
	</g>
	<g>
		<g>
			<path class="st0" d="M30.9,17.7c-0.1,0,0-0.6-0.2-0.8s-1.8-1.9-2.2-3.5c0,0,1,0.9,1.2,1s0.9,0.7,1.1,1.2c0.2,0.5,0.2,1,0.2,1
				c0.1,0,0.1-0.6,0.1-0.6s0-1.2,0.1-1.7s0.4-1.5,0.3-1.9c0,0,0.6,0.9,0.6,2.1s-0.6,2.2-0.7,2.3c-0.1,0.1-0.3,0.7-0.3,0.8
				C31.1,17.6,30.9,17.7,30.9,17.7"/>
		</g>
	</g>
	<g>
		<g>
			<path class="st0" d="M29,9.1c0,0,2.1,1.1,1.8,4.8c0,0,0,0.2-0.1,0s-0.6-0.7-0.8-0.8C29.7,13,27.8,12,27,10.5c0,0,0.1,0,0.3,0.1
				c0.2,0.1,0.8,0.4,0.9,0.5c0.1,0,0.8,0.2,1.2,0.7s0.7,0.8,0.8,1.1c0,0,0.1,0.1,0.1-0.2c-0.1-0.3-0.1-0.5-0.4-0.8
				c-0.2-0.3-0.5-1-0.5-1.4C29.3,10,29.2,9.3,29,9.1"/>
		</g>
	</g>
	<g>
		<g>
			<path class="st0" d="M28.6,10.4c0,0,0.1-0.2-0.2-0.6s-0.1-0.7-0.7-1.6c-0.4-0.5-1.6-0.9-1.6-0.9s0.4,0.4,0.6,0.7
				c0.2,0.2,0.3,0.4,0.4,0.5c0.1,0.1,0.5,0.5,0.7,0.7c0,0,0.1,0.1,0.1,0.2s-0.2,0-0.2-0.1c-0.1,0-0.8-0.5-1.3-0.6S25,8.5,24.7,8.4
				c0,0,1.1,0.9,2.3,1.1C28.2,9.8,28.6,10.4,28.6,10.4"/>
		</g>
	</g>
	<g>
		<g>
			<path class="st0" d="M27.4,26.4c-0.6,0.2-0.9,0.3-1.2,0.4c-0.3,0.1-1,0.4-1.2,0.5s-0.7,0.2-0.7,0.2s-0.5,0.1-0.5,0l0.2-0.2
				c0.7-0.4,0.7-0.5,1.3-1.1c0.6-0.6,0.8-1.7,0.8-1.9c0-0.2,0.2-0.8,0.2-0.8c-1.1,0.8-1.5,1.4-2,2.2c-0.2,0.3-0.3,0.5-0.4,0.7
				c-0.3,0.8-0.7,1.4-1.2,1.4l0,0c-0.1,0.1-0.1,0.1-0.1,0.1c0.1,0,0.6,0,0.7-0.1c0.1,0,0.3,0,0.8,0.1s1.6,0.2,1.6,0.2
				c2.6,0,4.5-2.1,4.8-2.5s0.6-1.1,0.6-1.1C30.3,25.8,28,26.3,27.4,26.4"/>
		</g>
	</g>
</g>
<g>
	<defs>
		<circle id="SVGID_1_" cx="26.5" cy="17.4" r="10.4"/>
	</defs>
	<clipPath id="SVGID_00000127002552880952170070000006173910905339861689_">
		<use xlink:href="#SVGID_1_"  style="overflow:visible;"/>
	</clipPath>
	<g style="clip-path:url(#SVGID_00000127002552880952170070000006173910905339861689_);">
		<g class="st2">
			<g>
				<defs>
					<circle id="SVGID_00000173880409854353359040000009396190676978059154_" cx="26.5" cy="17.5" r="10.4"/>
				</defs>
				<use xlink:href="#SVGID_00000173880409854353359040000009396190676978059154_"  style="overflow:visible;fill:#FFFFFF;"/>
				<clipPath id="SVGID_00000013881848492261285950000013818600612803250826_">
					<use xlink:href="#SVGID_00000173880409854353359040000009396190676978059154_"  style="overflow:visible;"/>
				</clipPath>
			</g>
		</g>
	</g>
	<g style="opacity:0.6;clip-path:url(#SVGID_00000127002552880952170070000006173910905339861689_);">
		<path class="st0" d="M26,9.4c0.1,0.1,0.1,0.2,0.2,0.2"/>
	</g>
	<g style="opacity:0.6;clip-path:url(#SVGID_00000127002552880952170070000006173910905339861689_);">
		<path class="st0" d="M20.6,18.8L20.6,18.8L20.6,18.8z"/>
	</g>
	<g style="opacity:0.6;clip-path:url(#SVGID_00000127002552880952170070000006173910905339861689_);">
		<path class="st0" d="M20.3,19.6L20.3,19.6L20.3,19.6z"/>
	</g>
	<g style="opacity:0.6;clip-path:url(#SVGID_00000127002552880952170070000006173910905339861689_);">
		<path class="st0" d="M20.1,20.1L20.1,20.1L20.1,20.1L20.1,20.1L20.1,20.1z"/>
	</g>
	<g style="opacity:0.6;clip-path:url(#SVGID_00000127002552880952170070000006173910905339861689_);">
		<path class="st0" d="M20,19.2L20,19.2L20,19.2L20,19.2z"/>
	</g>
	<g style="opacity:0.6;clip-path:url(#SVGID_00000127002552880952170070000006173910905339861689_);">
		<path class="st0" d="M25.1,19C25,19,25,19,25.1,19C25.1,19,25.1,18.9,25.1,19L25.1,19z"/>
	</g>
	<g style="opacity:0.6;clip-path:url(#SVGID_00000127002552880952170070000006173910905339861689_);">
		<path class="st0" d="M26.5,20C26.5,20,26.5,20.1,26.5,20C26.5,20.1,26.5,20.1,26.5,20z"/>
	</g>
	<g style="opacity:0.6;clip-path:url(#SVGID_00000127002552880952170070000006173910905339861689_);">
		<path class="st4" d="M37.5,14.9c-0.1,0-0.2-0.1-0.2-0.2c0-0.2-0.1-0.5,0.2-0.7c0.1-0.1,0.1-0.2-0.1-0.2c-0.2,0-0.2-0.1-0.2-0.3
			s-0.1-0.3-0.3-0.3s-0.3,0.2-0.3,0.3s0.1,0.3-0.2,0.3c-0.2,0-0.2-0.1-0.3-0.2c-0.1-0.1-0.1-0.2-0.2-0.1c-0.1,0.1-0.1,0-0.2-0.1
			c-0.1-0.1-0.2-0.3-0.4-0.1h-0.1c-0.1-0.1-0.2-0.2-0.2-0.4c-0.1,0-0.1,0.1-0.1,0.1c-0.1,0.2-0.4,0.3-0.6,0.2
			c-0.1-0.1-0.2-0.2-0.2,0c0,0.1-0.1,0.2,0.1,0.3c0.1,0,0.3,0.2,0.2,0.3c-0.1,0.2-0.1,0.4-0.1,0.6c0,0,0,0.1-0.1,0.1
			s-0.2,0.1-0.3,0.1c-0.2,0-0.2,0.2-0.1,0.3c0,0.1,0,0.2-0.1,0.2c-0.2,0-0.2,0.2-0.3,0.3c-0.2,0.2,0,0.4-0.1,0.6
			c0,0.1-0.1,0.3,0,0.3s0.2-0.1,0.2-0.2c0.1-0.2,0.3-0.4,0.6-0.2c-0.1,0.2-0.3,0.3-0.4,0.5c-0.1,0.1-0.2,0.2-0.1,0.4
			c0.1,0.1,0,0.2,0,0.3c-0.1,0.1-0.1,0-0.2-0.1c-0.1-0.1-0.2,0-0.2,0.1c0,0,0,0.1,0,0.2c0,0.3-0.1,0.4-0.4,0.3
			c-0.1,0-0.1-0.2-0.2-0.3c-0.5,0.4-0.8,0.4-1.3,0c-0.1-0.1-0.1,0-0.2,0c-0.1,0.2-0.3,0.2-0.5,0.2c-0.1,0-0.1,0-0.2,0
			c-0.2,0-0.2-0.1-0.2-0.2c0-0.2,0.1-0.3,0.2-0.3s0.2,0,0.2-0.2c0-0.3,0-0.3,0.3-0.3c0.2,0,0.2-0.1,0.2-0.2S31,16.1,31,16.1
			c-0.1-0.1-0.2-0.2-0.1-0.4c0,0,0,0,0-0.1h-0.1h-0.1c-0.2,0-0.1,0-0.1,0.2c0.1,0.1,0.1,0.2,0,0.4c-0.1,0.1-0.2,0.1-0.3,0.1
			c-0.1,0-0.2,0-0.2,0.1c0,0.2-0.2,0.3-0.4,0.4c-0.1-0.1-0.1-0.2-0.1-0.3c0-0.1-0.1-0.1-0.1-0.2c0,0,0-0.1-0.1-0.1s-0.1,0-0.1,0.1
			c-0.1,0.2,0,0.6,0.2,0.7c0.1,0.1,0.1,0.2,0.1,0.3c0,0.1-0.1,0.2-0.2,0.2c-0.2,0-0.4,0-0.5-0.2c-0.2-0.3-0.2-0.6-0.1-0.8
			c0.1-0.1,0.1-0.2,0-0.2c-0.1-0.1-0.1-0.2,0-0.3c0.1-0.1,0.1-0.2,0-0.2c-0.1-0.1-0.1-0.1,0-0.2c0.1-0.1,0.1-0.2,0.3-0.3
			c0.1,0,0.1-0.1,0-0.1s-0.1-0.3-0.2-0.1c0,0-0.1,0.1-0.1,0c-0.1,0-0.1-0.1-0.1-0.1l0.1-0.1c0.2,0,0.1-0.1,0.1-0.2c0,0,0-0.1,0-0.2
			c0.1-0.4,0.2-0.7,0.3-1.1c0-0.1,0.1-0.3,0.2-0.4c0,0-0.1-0.1,0-0.2c0.1,0,0.1-0.1,0.3,0c-0.1-0.1-0.2-0.2-0.1-0.4
			c0-0.1,0-0.3-0.1-0.3s-0.2,0.1-0.3,0.2c-0.1,0-0.1,0.2-0.1,0.1s-0.2-0.1-0.3-0.2c0.1,0,0.1-0.1,0.2-0.1s0.1-0.1,0-0.2
			c0,0,0-0.1-0.1-0.1s-0.2-0.1-0.2-0.2v-0.1c0-0.1,0-0.2-0.2-0.1c-0.2,0.1-0.4,0-0.4-0.1c-0.2,0.2-0.4,0-0.5-0.1s-0.2-0.1-0.3,0
			c0,0.1-0.1,0.1-0.2,0.1c-0.1-0.1-0.3,0-0.5-0.1c-0.1,0.2-0.3,0.4-0.4,0.3c-0.1-0.1-0.2,0-0.3,0l0,0l0,0c0-0.1,0.1-0.2,0-0.3
			S25.6,11,25.5,11c-0.2,0.1-0.3-0.1-0.4-0.2c-0.1-0.1-0.2-0.2-0.2,0c0,0.1-0.2,0-0.2,0.1c0.1,0.2,0.1,0.3,0.1,0.5
			c-0.1,0-0.1-0.1-0.1-0.1c-0.1,0-0.1-0.1-0.2-0.1s-0.1,0.2,0,0.2v0.1c0.1,0.3,0.1,0.3-0.3,0.4c0-0.1,0-0.1-0.1-0.3
			c-0.1-0.1-0.1-0.2-0.3-0.2h-0.1c-0.1-0.3-0.2-0.1-0.3,0c-0.1,0.1-0.1,0.2-0.1,0.3s0,0.1,0,0.2c-0.1,0.2-0.2,0.4-0.3,0.6
			c0,0.1-0.1,0.1,0,0.1c0.2,0.1,0.2,0.2,0.3,0.4v0.1h-0.1c-0.1,0-0.1-0.1-0.1,0s-0.1,0.2-0.2,0.2s-0.2-0.1-0.2-0.2
			c0-0.1,0-0.2,0.1-0.3c-0.1,0-0.2,0-0.3,0.1c0,0.1-0.1,0.2-0.2,0c0-0.1-0.1-0.1-0.2-0.1S22,12.9,22,13c-0.1,0.1-0.1,0.2-0.2,0.4
			s-0.2,0.2-0.4,0.1c-0.1-0.1-0.2-0.2-0.3-0.2c-0.1,0-0.2,0-0.2-0.1c-0.1-0.1-0.1-0.2-0.2-0.1c-0.2,0-0.3,0-0.4-0.3
			c0-0.1-0.1-0.2-0.2-0.3c-0.2-0.1-0.2-0.3-0.1-0.5c0.1-0.1,0.1-0.1,0-0.2c-0.1-0.1-0.1-0.1-0.2-0.1s-0.3,0-0.4-0.1
			c0.1-0.1,0.2,0,0.2-0.1s-0.1-0.1-0.2-0.2c-0.1,0-0.1,0-0.1-0.1s-0.1-0.2,0-0.2c0.1,0.1,0.2-0.1,0.4,0c0.1,0.1,0.3,0.1,0.4,0.1
			c0.3,0,0.3,0,0.3-0.3c0-0.2,0.1-0.6,0.2-0.7c0.2,0,0.2-0.2,0.2-0.3s-0.1-0.3-0.2-0.4c-0.1,0-0.3-0.1-0.4,0.1h-0.1
			c-0.2-0.1-0.3,0-0.4,0.1s-0.2,0.2-0.3,0.2v0.1l0,0c0,0,0-0.1,0.1-0.1c0-0.2-0.1-0.2-0.2-0.1s-0.2,0.1-0.1,0.2
			c0.2,0.2-0.1,0.4-0.1,0.5l0,0c0,0.1,0,0.1-0.1,0.2c-0.1-0.1-0.1-0.2-0.2,0s-0.2,0.1-0.3-0.1c0,0.2,0,0.3-0.2,0.3
			c-0.1,0-0.1,0-0.1,0.1c0.1,0.1,0,0.2-0.1,0.3c0,0.1,0.1,0.2,0.1,0.4c0,0.1-0.1,0.1-0.1,0.2c-0.1,0-0.2,0.1-0.2,0.2
			c0,0.1-0.1,0.1-0.1,0.1c-0.2,0.1-0.3,0.3-0.2,0.4c0,0.2-0.1,0.4-0.2,0.6c0,0-0.2,0-0.3,0.1c-0.1,0-0.1,0-0.2,0.1
			c0,0.1,0.3,0.2,0.1,0.3c-0.1,0-0.1,0.1-0.1,0.2c0,0.1-0.1,0.2-0.2,0.2s-0.1-0.1,0-0.2c0,0,0,0,0-0.1c0.1-0.5,0.1-1,0.4-1.4
			c0.2-0.2,0.2-0.5,0.4-0.7c0.1,0,0.1-0.2,0-0.3s-0.1-0.2,0.1-0.2c0.1,0,0.2-0.1,0.3,0c0.2,0,0.2,0,0.2-0.2s-0.1-0.4-0.2-0.5l0,0
			c-0.4,0.1-0.6,0.5-0.7,0.8c0,0.3-0.2,0.5-0.4,0.7c-0.1,0.1-0.3,0.3-0.2,0.5c0.1,0.1,0,0.2,0,0.4c0,0.1-0.1,0.1-0.2,0.1
			s-0.1,0-0.1,0c0,0.1-0.1,0.2-0.1,0.3s-0.1,0.3-0.1,0.3c-0.2,0.1-0.1,0.2-0.1,0.4c0.1,0.2,0.1,0.3,0.1,0.5
			c-0.2,0.7-0.2,1.4-0.3,2.1c0,0.2,0,0.5,0,0.7c0.1,0.6,0.2,1.2,0.3,1.8c0,0.7,0.2,1.3,0.7,1.9c0.3,0.3,0.5,0.8,0.6,1.2
			c0.1,0.3,0.3,0.6,0.5,0.8c0.2,0.3,0.5,0.5,0.7,0.8c0.2,0.2,0.3,0.4,0.6,0.5c0.1,0,0.1,0.1,0.2,0.2s0.1,0.2,0.2,0.3
			c0.1,0,0.2,0,0.3,0.1l0.1,0.1c0.3,0,0.3,0.3,0.6,0.3c0.1,0,0.1,0,0.1,0.1s0.1,0.1,0.2,0s0.1-0.1,0-0.2s-0.2-0.3-0.4-0.4
			c-0.1-0.1-0.1-0.3-0.2-0.4c-0.2-0.2-0.2-0.4-0.2-0.6s0-0.3,0-0.5s-0.1-0.3-0.2-0.4c-0.2-0.1-0.4-0.3-0.5-0.5
			c-0.1-0.1-0.2-0.2-0.2-0.3c0,0,0-0.1-0.1-0.1S19,21.9,19,22c0,0,0,0.1-0.1,0c0-0.1,0-0.2,0-0.2c0-0.1,0-0.1-0.1-0.1
			c-0.2,0-0.2-0.2-0.2-0.3c0-0.2,0-0.2-0.2-0.1c-0.1,0-0.2,0-0.3-0.1C18,21.1,17.9,21,17.7,21c-0.1,0-0.2-0.1-0.1-0.1
			c0.1-0.2-0.1-0.5,0.2-0.7c0.1,0,0-0.1-0.1-0.2s-0.1-0.3,0-0.4c0.2-0.3,0.2-0.3-0.1-0.5c-0.1-0.1-0.2-0.2,0-0.3
			c0.1-0.1,0.1-0.1,0.1-0.2c0-0.2,0.1-0.3,0.2-0.3s0.3,0,0.4,0c0,0,0.1,0,0.1-0.1s0.1-0.2,0-0.3c-0.1,0-0.1-0.1-0.1-0.2
			s0.1-0.1,0.2-0.1s0.2,0,0.3-0.1c0.1-0.1,0.2,0,0.2,0c0.3,0.1,0.6,0.1,0.8,0c-0.2,0-0.4,0-0.6-0.1c-0.1,0-0.2,0-0.1-0.2
			c0.1-0.1,0.1-0.2,0.2-0.1s0.3,0,0.4,0H20l0,0c0-0.1,0.1-0.2,0.2-0.2h0.1c0-0.1,0.1-0.1,0.1-0.2c0.6,0,0.6-0.1,0.6-0.2
			c0-0.2,0.1-0.2,0.2-0.3c0-0.1,0-0.2,0.1-0.3l0.1-0.1c0,0-0.1,0-0.1-0.1c0-0.3-0.1-0.5-0.4-0.4c-0.1,0-0.1,0-0.2-0.1
			s-0.1-0.2,0-0.2c0.2-0.1,0.2-0.3,0.2-0.5c0-0.1,0-0.4,0.2-0.3c0.1,0,0.3,0,0.4,0c0.2,0,0.2,0.1,0.2,0.2c0.1,0.1-0.1,0.1-0.1,0.1
			l0,0l0,0c0,0,0,0,0.1,0c0-0.1,0-0.2-0.1-0.1c-0.1,0.1-0.1,0.2,0,0.3c0,0.1,0.1,0.2,0.2,0.1c0.1-0.1,0.1-0.1,0.2,0s0.2,0,0.4,0
			c0-0.1,0.1-0.3-0.1-0.3C22,14.4,22,14.2,22.1,14v0.1c0,0.2,0.1,0.1,0.2,0.1c0.2,0,0.1-0.1,0.1-0.2c0-0.2,0.1-0.3,0.3-0.2
			s0.4,0,0.4,0.2h0.1c0.1,0,0.1,0,0.2,0c0,0,0,0,0,0.1s-0.1,0.1,0,0.2c0.1,0.1,0.1-0.1,0.1-0.1c0.1,0,0.2,0,0.2,0
			c0.2,0.2,0.2,0,0.2-0.1c0,0-0.1-0.1,0-0.2c0.2,0.3,0.3,0.3,0.4,0.2c0.2-0.1,0.2,0,0.2,0.1c0.1,0.1,0,0.2-0.1,0.3s-0.1,0.2-0.1,0.3
			c0.1,0.1,0,0.2-0.1,0.2c-0.2,0-0.4,0-0.5-0.2c-0.1,0.1-0.2,0.2,0.1,0.2c0.1,0,0.2,0.1,0.1,0.2c-0.1,0.1-0.1,0.3,0,0.4
			c0.1,0,0.1,0,0.1-0.1c0-0.2,0.1-0.3,0.2-0.3s0.1,0.2,0.1,0.3s0,0.2,0.1,0.2s0.1,0,0.2,0s0.1,0,0.2,0c0,0,0,0,0.1,0
			s0.1-0.2,0.1-0.3s0.1-0.2,0.2-0.2s0.1,0.1,0.1,0.2c0,0.2,0,0.3,0.2,0.3h0.1c0.1,0,0.1,0,0.2,0c-0.1-0.2,0-0.3-0.1-0.5
			c0-0.1,0-0.2-0.1-0.3v-0.1c0.2-0.1,0.3-0.3,0.4-0.3s0.3-0.1,0.2-0.3c0-0.2,0.2-0.4,0.4-0.4h0.1c0.1,0,0.1-0.2,0.2-0.1
			c0.1,0.1,0.2,0.2,0.2,0.3c0.1,0.2-0.1,0.2-0.2,0.2c-0.2,0-0.1,0.1-0.1,0.2c0,0.2,0.2,0.4,0.4,0.5c0.1,0.1,0.1,0.1,0.2,0.2
			c0.2,0.2,0.2,0.2,0,0.3s-0.2,0.4-0.3,0.6c0,0,0-0.1-0.1-0.1V16l0.1,0.1c0,0.1,0,0.1,0,0.2v0.1l0,0l0,0c0.1,0.1,0,0.3-0.1,0.4
			c0,0.3,0.1,0.4,0.4,0.3c0.3,0,0.5-0.1,0.8,0c0.1,0.1,0.2,0.1,0.2,0.3c0,0.2,0,0.4-0.2,0.6c0.2-0.1,0.3,0,0.4,0.2
			c0.1,0.1,0.1,0.3,0,0.4c0,0.1-0.2,0-0.2,0.2c0,0-0.1,0-0.1-0.1v-0.1c0-0.1,0-0.1-0.1-0.1s-0.1,0.1-0.1,0.2s0.1,0.2,0.1,0.2
			c0,0.1,0.1,0.2,0.1,0.4c0,0.1-0.1,0.2,0,0.2s0.2,0,0.2-0.1c0,0,0-0.1,0.1-0.1c0.1,0.1,0.5,0.3,0.6,0.2c0.1,0,0.1,0,0.1-0.1
			s-0.1-0.2,0.1-0.2c0.1,0,0.1-0.1,0.2,0c0.2,0.2,0.4,0,0.5-0.1s0.2-0.2,0.3-0.2c0.1,0.1,0,0.1,0,0.2c-0.1,0.1-0.2,0.2-0.1,0.4
			c0,0,0,0,0,0.1c-0.2,0.2-0.4,0.3-0.2,0.6c0,0,0,0.1-0.1,0.1c0,0-0.1,0-0.1-0.1c0-0.2-0.1-0.2-0.2-0.2c0.1,0.1,0,0.3,0.1,0.4
			c0.1,0.2,0.2,0.3,0.4,0.4c0.1,0,0.1,0,0.1,0.1c-0.1,0.1-0.1,0.3,0,0.3c0.2,0,0.1,0.2,0.2,0.2h0.1c0.2,0,0.4-0.2,0.5-0.4
			c0.1-0.1,0.1-0.1,0.2-0.1s0.1,0.1,0.1,0.2s0,0.2,0,0.3c0,0.2,0,0.3,0.1,0.3c0.1,0.1,0.2,0,0.3-0.1c0.1,0,0.2-0.2,0.3-0.2
			c0.3,0.2,0.4-0.1,0.5-0.2c0.2-0.3,0.5-0.4,0.8-0.5c0.1,0,0.2-0.1,0.2-0.2c0-0.2,0.2-0.3,0.2-0.6c0,0,0-0.1,0.1-0.1
			c0.2,0,0.2-0.3,0.4-0.4c0.1-0.1,0.2-0.3,0.3-0.5c0.1,0,0.1,0.1,0.2,0.1c-0.1-0.1,0-0.2,0-0.2c0.1-0.1,0.1-0.3-0.1-0.2
			c-0.1,0-0.1,0-0.2-0.1c0-0.1,0.1-0.1,0.1-0.2s0.1-0.1,0.1-0.1c0.1,0.2,0.2,0,0.3,0.1c0.3,0.1,0.3-0.1,0.3-0.2s0.1-0.2,0-0.2
			s-0.1,0-0.1-0.1s0-0.1,0.1-0.1s0.1,0,0.1-0.1c0-0.2,0.1-0.3,0.1-0.5c0,0,0-0.1,0.1-0.1c0.2,0,0.2-0.2,0.4-0.3
			c0.1,0,0.3-0.1,0.1-0.3c0,0,0,0,0-0.1s0-0.2-0.1-0.2c-0.1-0.1-0.1-0.2,0-0.3s0.2-0.2,0.2-0.3s0.1-0.2,0.2-0.2c0.1,0,0.1,0,0.1-0.1
			v-0.1c-0.2-0.1-0.1-0.3-0.1-0.5c0-0.1,0-0.2,0.1-0.2s0.1,0.1,0.1,0.2c0,0.2,0.1,0.3,0.1,0.4l0.1,0.1c0.1,0,0.1-0.1,0.1-0.1
			c0-0.1,0-0.2,0.1-0.3c0.1,0,0.2,0.2,0.4,0.2c0-0.1,0.1-0.2,0.2-0.3C37.6,15,37.6,14.9,37.5,14.9z M20.4,16.8
			c0.1-0.1,0.1-0.1,0.1,0H20.4z M25.9,11.3c-0.1,0-0.1,0-0.1-0.1s0-0.1,0.1-0.1C25.9,11.1,25.9,11.2,25.9,11.3L25.9,11.3z
			 M36.4,14.8c-0.1-0.1-0.2,0-0.3,0.1c0,0-0.1,0.1-0.1,0c0,0,0-0.1,0-0.2c0.1-0.1,0.4-0.2,0.5-0.1c0,0,0.1,0,0.1,0.1
			C36.5,14.8,36.4,14.8,36.4,14.8z"/>
	</g>
	<g style="opacity:0.6;clip-path:url(#SVGID_00000127002552880952170070000006173910905339861689_);">
		<path class="st0" d="M19.8,11.3L19.8,11.3C19.9,11.3,19.9,11.3,19.8,11.3C19.9,11.3,19.8,11.3,19.8,11.3L19.8,11.3z"/>
	</g>
	<g style="opacity:0.6;clip-path:url(#SVGID_00000127002552880952170070000006173910905339861689_);">
		<path class="st0" d="M20.7,14.6L20.7,14.6L20.7,14.6C20.7,14.6,20.7,14.7,20.7,14.6L20.7,14.6z"/>
	</g>
	<g style="opacity:0.6;clip-path:url(#SVGID_00000127002552880952170070000006173910905339861689_);">
		<path class="st0" d="M20.7,14.5L20.7,14.5L20.7,14.5L20.7,14.5L20.7,14.5z"/>
	</g>
	<g style="opacity:0.6;clip-path:url(#SVGID_00000127002552880952170070000006173910905339861689_);">
		<path class="st0" d="M28.7,25.2c-0.1-0.1,0-0.2,0-0.2h0.1C28.8,25.1,28.7,25.1,28.7,25.2z"/>
	</g>
	<g style="opacity:0.6;clip-path:url(#SVGID_00000127002552880952170070000006173910905339861689_);">
		<path class="st0" d="M19.8,12.1C19.8,12.2,19.8,12.2,19.8,12.1C19.7,12.2,19.7,12.2,19.8,12.1C19.7,12.2,19.7,12.1,19.8,12.1
			L19.8,12.1z"/>
	</g>
	<g style="opacity:0.6;clip-path:url(#SVGID_00000127002552880952170070000006173910905339861689_);">
		<path class="st0" d="M19.6,13.4L19.6,13.4C19.6,13.4,19.7,13.4,19.6,13.4C19.7,13.4,19.7,13.5,19.6,13.4
			C19.6,13.5,19.6,13.5,19.6,13.4z"/>
	</g>
	<g style="opacity:0.6;clip-path:url(#SVGID_00000127002552880952170070000006173910905339861689_);">
		<path class="st0" d="M20.4,18.8L20.4,18.8L20.4,18.8L20.4,18.8L20.4,18.8z"/>
	</g>
	<g style="opacity:0.6;clip-path:url(#SVGID_00000127002552880952170070000006173910905339861689_);">
		<path class="st0" d="M21.7,18L21.7,18L21.7,18L21.7,18C21.7,17.9,21.7,17.9,21.7,18z"/>
	</g>
	<path style="opacity:0.6;clip-path:url(#SVGID_00000127002552880952170070000006173910905339861689_);fill:#FFFFFF;" d="M20.3,19.5
		"/>
	<polyline style="opacity:0.6;clip-path:url(#SVGID_00000127002552880952170070000006173910905339861689_);fill:#FFFFFF;" points="
		20.3,19.5 20.3,19.5 20.3,19.5 	"/>
	<g style="opacity:0.6;clip-path:url(#SVGID_00000127002552880952170070000006173910905339861689_);">
		<polygon class="st0" points="20.1,20 20.1,20 20.1,20 		"/>
	</g>
	<g style="opacity:0.6;clip-path:url(#SVGID_00000127002552880952170070000006173910905339861689_);">
		<path class="st0" d="M20,19.1L20,19.1L20,19.1z"/>
	</g>
	<path style="opacity:0.6;clip-path:url(#SVGID_00000127002552880952170070000006173910905339861689_);fill:#FFFFFF;" d="M34.2,23.5
		c0.1-0.2,0.1-0.6,0.3-0.7v-0.1c0-0.1,0.1-0.3,0-0.4l-0.1-0.1l0,0c-0.1,0-0.2,0.1-0.2,0.2h-0.1H34l-0.1,0.1c0,0-0.1,0.1-0.2,0.1
		c-0.2,0-0.1-0.3-0.3-0.3c-0.1,0-0.1,0-0.1-0.1v-0.1h-0.1c-0.1,0-0.1,0-0.2,0c-0.1,0-0.1,0-0.2,0h-0.1c-0.1,0.1-0.1,0.2-0.2,0.2
		l-0.1,0.1c0,0.2-0.2,0.3-0.1,0.4c0,0.1-0.1,0.1-0.2,0.1c-0.3,0.1-0.5,0.2-0.7,0.4c-0.1,0.1-0.2,0.3-0.5,0.2c-0.1,0-0.1,0.1-0.2,0.1
		s-0.1,0.1-0.2,0s-0.1-0.2-0.1-0.2c0-0.1,0-0.2,0-0.2c0-0.1,0-0.1-0.1-0.1s-0.1,0-0.2,0.1s-0.2,0.2-0.5,0.3h-0.1
		c-0.1-0.1,0-0.2-0.2-0.2c-0.1,0-0.1-0.2,0-0.2s0-0.1-0.1-0.1c-0.2,0-0.3-0.2-0.4-0.3c0-0.1,0-0.2,0-0.3c0.1,0,0.2,0,0.2,0.2
		c0,0,0,0,0.1,0s0.1,0,0.1-0.1c-0.1-0.2,0.1-0.3,0.2-0.5l0,0c-0.1-0.1,0.1-0.2,0.1-0.3c0,0,0.1-0.1,0-0.1s-0.2,0.1-0.2,0.2
		c-0.1,0.1-0.3,0.2-0.5,0c-0.1-0.1-0.1,0-0.2,0s-0.1,0-0.1,0.1c0,0,0,0.1-0.1,0.1s-0.5,0-0.6-0.2c-0.1,0,0,0-0.1,0.1
		c0,0.1-0.1,0.1-0.2,0.1s0-0.1,0-0.1c0.1-0.1,0-0.2-0.1-0.3c0,0-0.1-0.1-0.1-0.2c0,0,0-0.1,0.1-0.1s0.1,0,0.1,0.1v0.1h0.1
		c0-0.1,0.1-0.1,0.2-0.1c0.1-0.1,0.1-0.2,0-0.3c-0.1-0.1-0.2-0.2-0.4-0.1c0.1-0.1,0.1-0.3,0.1-0.4s0-0.1-0.2-0.2s-0.5,0-0.7,0
		c-0.3,0-0.4,0-0.4-0.3c0-0.2,0-0.2-0.1-0.2c0-0.1,0.1-0.1,0.1-0.2s-0.1-0.1-0.1-0.2c0-0.2,0.2-0.3,0.1-0.5l0,0c0-0.1,0-0.2-0.1-0.2
		c0.2-0.1,0.2-0.1,0-0.3c-0.1,0-0.1-0.1-0.2-0.2c-0.2-0.1-0.3-0.2-0.3-0.4c0-0.1,0-0.1,0.1-0.1s0.2,0,0.2-0.2c0-0.1-0.1-0.2-0.2-0.2
		s-0.1,0-0.2,0.1h-0.1c-0.2,0-0.4,0.1-0.4,0.3c0,0.2-0.1,0.2-0.2,0.2c-0.2,0-0.2,0.2-0.4,0.2c0,0,0,0,0,0.1c0.1,0.1,0,0.2,0.1,0.2
		c0,0.1,0,0.1,0,0.2c-0.1,0-0.1,0.1-0.1,0.1c0,0.1,0,0.2-0.1,0.2s-0.2,0-0.4,0c-0.1,0-0.1-0.1-0.1-0.2s0.1-0.2-0.1-0.2
		c-0.1,0-0.2,0.1-0.2,0.2c0,0,0,0-0.1,0c0-0.1-0.1-0.2,0-0.3c0.1-0.1,0-0.2-0.1-0.2c-0.2,0-0.1-0.1-0.1-0.2c0.1,0.1,0.3,0.2,0.5,0.2
		c0.1,0,0.2,0,0.1-0.1s-0.1-0.2,0-0.2s0.1-0.1,0.1-0.2s-0.1-0.2-0.2-0.1s-0.2,0-0.4-0.2c-0.1,0,0,0.1,0,0.1c0,0.1,0,0.2-0.1,0.1
		c-0.1,0-0.1,0-0.2,0c0,0,0,0.1-0.1,0.1s0-0.1,0-0.1v-0.1c-0.1,0-0.1,0-0.2,0h-0.1c-0.1-0.2-0.2-0.1-0.4-0.2c-0.1,0-0.3,0-0.3,0.2
		c0,0,0.1,0.1-0.1,0.1c-0.1,0-0.2,0-0.2-0.1v-0.1c-0.1,0.1-0.1,0.2,0.1,0.3c0.2,0,0.1,0.2,0.1,0.2c-0.1,0-0.2,0.1-0.3,0
		c-0.1-0.1-0.1,0-0.2,0c-0.1,0.1-0.1,0-0.2-0.1s-0.1-0.2,0-0.2s0.1,0.1,0.1,0.1l0,0c0.1,0,0.2,0,0.1-0.1s-0.1-0.2-0.2-0.2
		s-0.2,0-0.4,0C21,17.7,21,17.9,21,18s0,0.3-0.2,0.3c-0.1,0-0.1,0.1,0,0.2c0.1,0,0.1,0.1,0.2,0.1c0.2,0,0.3,0,0.4,0.1h-0.1
		c-0.1,0-0.2,0-0.2,0.1H21h-0.1l0,0c0,0,0,0.1-0.1,0.1s-0.1,0-0.2,0c0,0,0-0.1-0.1-0.1l0,0l0,0h-0.1c-0.1,0-0.1,0-0.2,0h-0.1l0,0
		l0,0l0,0v0.1L20,19l0,0l0,0h-0.1h-0.1l-0.1-0.1c-0.1,0-0.1,0-0.2,0s-0.2,0-0.2,0c-0.1,0-0.1,0.1-0.2,0.2c-0.1,0-0.1,0-0.2,0h-0.1
		c0,0,0,0-0.1,0l0,0l0,0l0,0c0,0,0,0.1,0,0.2v0.1l0,0l0,0l0,0l0.1,0.1l0,0h0.1c0.1,0,0.1,0,0.2,0H19h-0.1c-0.1,0-0.1,0-0.2,0
		s-0.1,0.1-0.1,0.1l-0.1,0.1c-0.1,0-0.1,0-0.1,0h-0.1h-0.1h0.1l0,0l0.1,0.1c0.1,0,0.1,0.1,0.1,0.1h-0.1c0-0.1-0.1-0.1-0.1-0.1
		l-0.1-0.1h-0.1c0,0.1,0.1,0.2,0.2,0.3c0.2,0.1,0.4,0.1,0.6,0H19c0.1,0,0.1,0,0.1-0.1c0.1,0,0.1,0,0.1,0h0.1c0,0,0.1,0,0.1,0.1
		c0.2,0,0.4,0,0.6,0c-0.3,0.1-0.5,0.1-0.8,0c-0.1,0-0.1-0.1-0.2,0s-0.2,0.1-0.3,0.1c-0.1,0-0.2,0-0.2,0.1s0,0.1,0.1,0.1s0,0.1,0,0.2
		s-0.1,0-0.1,0c-0.1,0-0.2,0-0.4,0c-0.2,0-0.2,0.1-0.2,0.2s0,0.1-0.1,0.2c-0.2,0.1-0.1,0.1,0,0.2c0.2,0.1,0.2,0.1,0.1,0.3
		c-0.1,0.1-0.1,0.2,0,0.3l0.1,0.1c-0.2,0.1,0,0.3-0.2,0.5c-0.1,0,0,0.1,0.1,0.1s0.2,0,0.3,0.1c0.1,0.1,0.1,0.1,0.2,0
		c0.1,0,0.2,0,0.2,0.1s0,0.2,0.2,0.2c0.1,0,0.1,0,0.1,0.1s0,0.1,0,0.2c0.1,0,0.1,0,0.1,0s0,0,0.1,0c0,0,0.1,0,0.1,0.1
		c-0.1,0.1,0,0.2,0.1,0.2c0.2,0.1,0.3,0.2,0.5,0.3c0.1,0.1,0.2,0.2,0.2,0.3c0,0.1,0,0.2,0,0.4c0,0.2,0,0.3,0.2,0.4
		c0.1,0.1,0.1,0.2,0.2,0.3c0.1,0.1,0.2,0.2,0.3,0.3c0.1,0.1,0,0.1,0,0.2c-0.1,0.1-0.1,0-0.1,0s0-0.1-0.1-0.1c-0.2,0-0.3-0.2-0.5-0.2
		l-0.1-0.1c-0.1-0.1-0.1-0.1-0.2-0.1c0.2,0.2,0.5,0.4,0.7,0.6c0.1,0.1,0.1,0.2,0.3,0.1h0.1c0.2,0.2,0.6,0.2,0.8,0.4
		c0.4,0.2,0.8,0.3,1.3,0.4c0.1,0,0.3,0,0.4,0.1c0.1,0,0.2-0.1,0.2,0.1c0.3,0.1,0.6,0.1,0.8,0c0.1,0,0.2,0,0.4,0
		c0.5,0.1,1.1,0.1,1.6,0c0.3,0,0.7-0.1,1-0.1c0.6,0,1.3-0.2,1.9-0.3c0.2,0,0.4-0.1,0.5-0.3c0,0,0.1,0,0.1-0.1
		c0.3-0.1,0.6-0.2,0.9-0.3c0.2-0.1,0.4-0.2,0.4-0.3c0-0.1,0.2-0.2,0.3-0.3c0.3-0.2,0.7-0.2,0.9-0.5c0.1-0.1,0.1-0.1,0.2-0.2
		c0.2-0.2,0.4-0.3,0.6-0.5C34,23.8,34.1,23.6,34.2,23.5L34.2,23.5z M21,21.4c-0.1,0-0.1,0.1-0.1,0.1c-0.1,0.2-0.3,0.2-0.5,0.1
		c0,0-0.1-0.1-0.1,0c0,0,0,0.1,0.1,0.1s0.2,0.1,0.2,0.2s0,0.1-0.1,0.1s-0.1,0-0.1-0.1v-0.1c0-0.1-0.1-0.1-0.2,0c0,0-0.1,0.1-0.1,0
		c-0.1,0,0-0.1,0-0.1c0-0.2-0.1-0.3-0.3-0.3c-0.1,0-0.1,0-0.1-0.1c-0.1-0.1,0.1-0.5,0.3-0.5c-0.1,0-0.2-0.1-0.1-0.2
		c0.1,0,0-0.2,0-0.2c0-0.1,0-0.1,0.1-0.1s0.1,0,0.1,0.1c0.1,0.1,0.1,0.2,0.2,0.2c0,0.1,0.1,0,0.1,0c0.1,0,0.1,0,0.1,0
		c0.1,0,0.1,0,0.1-0.1s0-0.1,0.1-0.1s0.1,0.1,0.1,0.1c0.1,0.1-0.1,0.2-0.1,0.3c0,0.1-0.1,0.2,0.1,0.2c0.1,0,0.1-0.1,0.1-0.2
		C21.2,21.1,21.2,21.2,21,21.4 M21.3,20.2c-0.2,0-0.3,0-0.4-0.1c-0.1,0-0.1,0.1-0.2,0l0,0c0.1,0,0.1,0,0.2-0.1
		c0.2,0.1,0.3,0,0.5-0.1l0,0h0.1V20C21.4,20.2,21.3,20.2,21.3,20.2 M20,19.7c-0.1,0.1-0.2,0.1-0.3,0.1c-0.1,0,0.2-0.1,0.3-0.3l0,0
		l0.1,0l0,0.1C20.1,19.7,20,19.7,20,19.7 M21.6,25.9c-0.1,0-0.1-0.1-0.1-0.2c0,0,0-0.1,0.1-0.1s0.2,0,0.2,0.1
		C21.8,25.9,21.7,25.9,21.6,25.9 M22.2,20.1c-0.1,0.1-0.2,0.1-0.4,0.1c-0.1,0-0.1-0.1-0.1-0.2v-0.1l0,0c0.1,0,0.2-0.1,0.3-0.1
		c0.1,0,0.2,0.1,0.3,0.1c0,0.1,0.1,0.1,0.1,0.2C22.3,20,22.2,20,22.2,20.1 M28.8,22.2c0-0.1,0-0.1,0-0.1c0-0.1,0.1-0.1,0-0.2
		c0,0-0.1,0-0.1-0.1h0.1c0.1,0,0.1,0,0.1,0.1s0,0.2,0,0.2S28.9,22.2,28.8,22.2 M29.4,25.4c-0.1-0.1,0-0.1,0-0.2h0.1
		C29.6,25.3,29.5,25.3,29.4,25.4"/>
	<path style="opacity:0.6;clip-path:url(#SVGID_00000127002552880952170070000006173910905339861689_);fill:#FFFFFF;" d="M33.5,9.2
		L33.5,9.2c-0.2,0-0.3,0-0.4,0c-0.1,0-0.1,0-0.1,0c-0.1,0-0.1,0-0.2,0c-0.1,0.1,0,0.1,0.1,0.2l0,0c0,0.1,0,0.1,0.1,0.1s0.1,0,0.1,0
		c0,0.1,0,0.1-0.1,0.1c-0.2-0.1-0.4,0-0.3,0.3c0.1,0.2,0.1,0.4-0.1,0.6c-0.1,0-0.2,0.1-0.4,0.1c-0.1,0-0.1,0,0,0.1
		c0,0.1,0.1,0.1,0.2,0.1c0.1,0,0.2,0,0.3,0c-0.1,0.1,0,0.2,0.1,0.3c0,0,0,0,0,0.1c-0.1,0.1-0.1,0.1,0.1,0.1c0.1,0,0.1,0,0.1,0
		c-0.1,0.1-0.2,0-0.3,0c-0.2,0-0.3,0.1-0.4,0.3c0,0.1-0.1,0.2-0.2,0.2c-0.1,0-0.2-0.1-0.2-0.3s0-0.4-0.1-0.5s-0.1-0.1-0.2-0.1
		c-0.1,0.1-0.1,0.1,0,0.2l0.1,0.1c-0.2,0.1-0.4,0.1-0.3,0.3c0,0.1-0.1,0.1-0.1,0.1c-0.1,0-0.1-0.1-0.2-0.2c-0.1,0.2-0.2,0.3-0.4,0.2
		h-0.1c-0.2,0-0.1-0.1-0.1-0.2c0.1-0.1,0.1-0.2-0.1-0.2c-0.1,0-0.1,0-0.2,0s-0.1,0-0.1,0.1s-0.1,0.1-0.2,0.1h-0.1
		c-0.1,0.2-0.3,0.1-0.6,0.2c-0.3,0-0.5,0.1-0.8,0.2c0.2,0.1,0.5,0.1,0.7,0.2c0.1,0,0.1,0,0.1,0c-0.1,0.1,0.4,0.1,0,0.2
		c-0.1,0-0.1,0.1-0.1,0.2c0,0.1,0.1,0.1,0.2,0.1s0.2,0,0.2,0c0,0.1,0,0.1-0.1,0.2c-0.1,0.1-0.1,0-0.1,0l0,0c-0.2,0-0.4-0.1-0.6-0.2
		c-0.1,0-0.2,0-0.3-0.1c-0.1-0.1-0.2,0-0.2,0.1c0,0,0,0.1-0.1,0.1S28,12.5,28,12.5l0,0c-0.1-0.1-0.1-0.2-0.2-0.2s-0.1,0.2-0.1,0.2
		c-0.1,0.1-0.1,0.2-0.2,0.1c0,0,0,0,0,0.1s0.2,0.1,0.1,0.2c-0.1,0.1-0.2-0.1-0.2-0.1c-0.1-0.1-0.1-0.2-0.1-0.3
		c-0.1-0.1-0.3-0.1-0.4-0.1c-0.2-0.1-0.4-0.2-0.5-0.3s-0.2-0.2-0.1-0.4c0-0.1,0-0.2-0.2-0.2c-0.1,0-0.2-0.1-0.3-0.1h-0.1v-0.1
		c0,0,0.1,0,0.1-0.1h-0.1c-0.1,0-0.1,0-0.1-0.1s0.1,0,0.1,0c0.1,0,0.1,0,0.1-0.1c0.1-0.1,0.2-0.3,0.4-0.3c0.2-0.1,0.2-0.5,0.2-0.7
		l-0.1-0.1c0-0.2,0-0.4-0.2-0.1H26c0-0.1-0.1-0.1-0.1-0.2s0.1-0.1,0-0.2c-0.1,0-0.2-0.2-0.3-0.1C25.3,9,25,9,25.2,9.3l0,0
		c-0.3,0-0.4,0.4-0.7,0.4c-0.1,0-0.1,0.1-0.1,0.2c0,0,0.1,0.1,0,0.1s-0.1,0-0.2,0l-0.1-0.1c0.1-0.2,0-0.4,0.2-0.5c0.1,0,0-0.1,0-0.1
		c-0.1-0.1-0.1-0.1-0.2-0.2c-0.1-0.1,0-0.1,0-0.2c0.1,0,0.3-0.2,0.4,0h0.1c0,0,0.1-0.1,0.1-0.2c0-0.1-0.1,0-0.1,0
		c-0.2,0-0.2-0.2-0.4-0.2c-0.1-0.1-0.1,0-0.1,0L24,8.6h-0.1V8.5c0.2-0.1,0.3-0.2,0-0.4c-0.1,0-0.1-0.2,0-0.2c0.1-0.2,0-0.1-0.1-0.2
		c0.3-0.1,0.4-0.4,0.6-0.7c0.2-0.3,0.6-0.5,0.9-0.7c0.1,0.1,0.3,0,0.3-0.1c0.1-0.1,0.1-0.1,0.2-0.1l0,0l0,0l0,0c0.1,0,0.1,0,0.2,0
		c0-0.1,0.1-0.1,0.1,0c0.1,0,0.1,0.1,0.1,0.1c0.1-0.1,0.1-0.2,0.1-0.3c0.1,0,0.1,0,0.2-0.1s0.3-0.1,0.2,0.1c0,0.1,0.1,0.2,0.2,0.2
		s0.4-0.1,0.5-0.2c0.1,0,0.3-0.3,0.3,0.1C28,6,28,6,28,6c0.2-0.1,0.3,0.1,0.4,0.2c0.1,0,0.1,0.1,0,0.1c0,0,0,0.1-0.1,0.1
		s-0.1,0-0.1,0c0,0.1-0.1,0.2,0.1,0.2c0.1,0,0.1,0.1,0.1,0.1s0.1,0.1,0.1,0c0.1-0.1,0.3,0,0.5-0.1c0.1,0,0.1-0.1,0.2,0
		c0.2,0.2,0.5,0.2,0.8,0.3c0.1,0.1,0.2,0.1,0.4,0h0.1c0.3,0.2,0.7,0.3,1,0.5l0.1,0.1c-0.1,0.2,0,0.2,0.1,0.3c0.1,0,0.1,0.2,0,0.2
		c-0.1,0.2,0,0.2,0.1,0.3c0,0,0,0,0.1,0.1c0.1,0.1,0,0.3,0.1,0.2s0.3-0.2,0.3-0.4s0-0.3,0.2-0.1c0.1,0.1,0.3,0.1,0.4,0.2
		c0,0,0.1,0,0.1-0.1c0,0.3,0,0.2,0.1,0.2c0,0.2,0.2,0.3,0.1,0.5l0,0h0.1c0-0.1,0.1-0.1,0.1-0.1l0,0v0.1C33.2,9,33.5,9.1,33.5,9.2z
		 M31.2,9.8c0,0.1,0,0.2,0.1,0.3s0.2,0,0.4,0c0-0.1,0.1-0.2,0-0.3C31.5,9.6,31.4,9.8,31.2,9.8z M28.6,7.6c-0.1-0.1-0.1-0.1-0.2,0
		s0,0.1,0.1,0.2l0.1,0.1c0,0.1,0,0.1,0.1,0.1s0.1,0,0.2-0.1C28.8,7.6,28.7,7.7,28.6,7.6z M31.7,10.4v0.1c0,0,0.1,0.1,0.1,0
		c0.1,0,0-0.1,0-0.1C31.8,10.4,31.8,10.4,31.7,10.4z M30.8,11.6L30.8,11.6L30.8,11.6L30.8,11.6L30.8,11.6z"/>
</g>
</svg>
