<?xml version="1.0" encoding="utf-8"?>
<!-- Generator: Adobe Illustrator 25.4.1, SVG Export Plug-In . SVG Version: 6.00 Build 0)  -->
<svg version="1.1" id="Layer_1" xmlns="http://www.w3.org/2000/svg" xmlns:xlink="http://www.w3.org/1999/xlink" x="0px" y="0px"
	 viewBox="0 0 111.7 46.2" style="enable-background:new 0 0 111.7 46.2;" xml:space="preserve">
<style type="text/css">
	.st0{fill:#FFFFFF;}
	.st1{clip-path:url(#SVGID_00000129885051094791686230000001641442207134524819_);}
	.st2{opacity:0.4;}
	.st3{opacity:0.6;clip-path:url(#SVGID_00000129885051094791686230000001641442207134524819_);}
	.st4{opacity:0.5;fill:#FFFFFF;}
	.st5{opacity:0.6;clip-path:url(#SVGID_00000129885051094791686230000001641442207134524819_);fill:#FFFFFF;}
</style>
<g>
	<path class="st0" d="M50,16c-2.5-0.8-4.3-3.1-4.3-5.9c0-0.5,0.1-1,0.2-1.5l4,0.5c0,0,1.5,0.1,1.5,2.8C51.3,14.6,50,16,50,16"/>
	<path class="st0" d="M53.6,16c2.5-0.8,4.3-3.1,4.3-5.9c0-0.5-0.1-1-0.2-1.5l-4,0.5c0,0-1.5,0.1-1.5,2.8C52.4,14.6,53.6,16,53.6,16"
		/>
	<path class="st0" d="M51.8,5.8c0.5,0,0.9,0.4,0.9,0.9c0,0.4-0.3,0.7-0.6,0.9c0,0-0.1,0-0.1,0.1s0.2,0.1,0.3,0.1l5.3,0.6
		C56.8,5.9,54.5,4,51.7,4l0,0c-2.8,0-5.1,1.8-5.9,4.4l5.3-0.6c0.1,0,0.3,0,0.3-0.1s0-0.1-0.1-0.1c-0.3-0.2-0.6-0.5-0.6-0.9
		C50.9,6.2,51.3,5.8,51.8,5.8"/>
	<path class="st0" d="M54.3,20.3l0.4-0.2c0,0-1.7-2.3-5.5-2.3c-2,0-3,0.8-4.4,0.8c0,0-0.6,0.1-1.1-0.3c0,0,0.6,1,3,1
		c1.7,0,3-1,4.2-1C52.5,18.2,53.7,19.7,54.3,20.3"/>
	<path class="st0" d="M48.9,20.3l-0.4-0.2c0,0,1.7-2.3,5.5-2.3c2,0,3,0.8,4.4,0.8c0,0,0.6,0.1,1.1-0.3c0,0-0.6,1-3,1
		c-1.7,0-3-1-4.2-1C50.7,18.2,49.4,19.7,48.9,20.3"/>
	<path class="st0" d="M47.1,17.6c-0.1,0.2-0.8,0-1.3,0.1c-0.5,0.2-3.5,0.5-4.8-2.5c0,0,1.2,1.3,2.2,1.4s2,0.3,2.9,0.8h0.2
		c0,0,0-0.1-0.1-0.1c-0.1-0.1-1-0.4-1.5-1.8c-0.2-0.7-0.2-1.3-0.3-1.7c0,0,1,1.1,1.4,1.8C46.2,16.3,46.3,17.1,47.1,17.6"/>
	<path class="st0" d="M44.1,16.1c-0.1,0.1-0.3,0-0.3-0.1c-0.1,0-0.5-0.3-1.4-0.5c-0.8-0.3-2.4-1.6-2.2-3.8c0,0,0.2,0.8,0.9,1.4
		c0.6,0.6,0.9,0.6,1.2,1.1s1.2,1.5,1.3,1.5v-0.1c-0.1-0.1-0.3-0.6-0.4-0.8c-0.1-0.2-0.6-1.5,0.1-3.1c0,0,0.7,1.2,0.6,2.4
		c0,1.2-0.1,0.9,0.2,1.9C44,15.8,44.1,16,44.1,16.1"/>
	<path class="st0" d="M42.2,13.2c0,0-0.2-0.2-0.4-0.5c-0.1-0.2-1.1-1.2-1.2-1.5c-0.1-0.2-1.2-1.5-0.4-3.4c0,0,0.1,0,0.1,0.4
		c0,0.4,0.4,1.5,0.8,1.9c0.3,0.4,0.6,1.1,0.7,1.9c0,0,0,0.1,0.1,0.1C42,12.2,42,12,42,12s0-0.7,0-1.1s0.2-1.2,0.6-1.7
		c0,0,0.2-0.2,0.3-0.5c0,0,0.1-0.2,0.2-0.3c0,0,0.1,1.3-0.4,2.5c-0.4,1.2-0.6,1.4-0.5,2.1L42.2,13.2z"/>
	<path class="st0" d="M41.5,9.6c0,0-0.1-0.2-0.1-0.3s-0.2-0.9-0.2-1c-0.1-0.2-0.4-0.9-0.4-1.7s0.4-2,1.2-2.9c0,0,0,0.3-0.3,0.9
		s-0.1,1.2-0.1,1.3s0.1,0.8,0.1,1.1c0,0.3-0.1,1.1-0.1,1.3v0.1l0.1-0.1c0,0,0-0.7,0.6-1.3c0.5-0.6,1.5-1,1.6-1.3c0,0-0.1,1-1.2,2.1
		c-1,1-0.7,0.5-1,1.4C41.7,9.2,41.5,9.5,41.5,9.6L41.5,9.6"/>
	<path class="st0" d="M42.1,6.2c0,0,0-0.1,0.1-0.4c0.2-0.3,0-0.9,0.2-1.6c0.2-0.8,0.6-2.1,2.2-3c0,0-0.2,0.1-0.2,0.3
		S43.9,2.4,43.8,3c-0.1,0.6-0.7,1.5-0.9,1.7s-0.1,0.2-0.1,0.2s0.1,0,0.2-0.2s0.6-0.7,1.2-0.9c0.6-0.1,1.5-0.4,1.5-0.5
		c0,0-1,1-1.9,1.5s-1,0.4-1.6,1.1C42.3,6,42.1,6.2,42.1,6.2"/>
	<path class="st0" d="M44.2,3.2c0,0,0-0.1,0.2-0.2s0.3-0.6,0.6-1.1s1-1.6,2.7-1.9c0,0-0.5,0.4-0.6,0.5s-0.6,0.8-0.8,1
		s-0.9,0.7-1.1,0.8l-0.1,0.1h0.1c0,0,0.7-0.4,1.4-0.4s1.5,0,1.6,0c0,0-0.7,0.5-2.3,0.8S44.6,3.1,44.2,3.2
		C44.3,3.2,44.3,3.3,44.2,3.2"/>
	<path class="st0" d="M47.1,1.4c0,0,0-0.1,0.3-0.2s0.2-0.3,1-0.7C49.2,0,50-0.1,50.9,0.2c0,0-0.4,0-0.4,0.1s-0.6,0.2-0.8,0.3
		s-1,0.5-1.4,0.5c-0.4,0.1-0.2,0.1-0.2,0.1h0.1c0,0,0.9-0.1,1.4,0.1s0.5,0.2,0.7,0.3s0.4,0.1,0.5,0.2c0,0-0.5,0-0.8,0
		s-1.1-0.1-1.5-0.3s-0.8-0.3-1-0.2C47.3,1.4,47.2,1.4,47.1,1.4"/>
	<path class="st0" d="M50.3,1c0,0,0,0,0.3-0.1s0.3-0.2,0.8-0.3s1.4-0.2,2.1,0.3c0,0-0.5,0-0.6,0S52,1,51.8,1s-0.6-0.1-0.7,0
		c-0.1,0.1,0.4,0.2,0.4,0.2s0.4,0,0.8,0.4C52.7,2,52.9,2.2,53,2.2c0,0-1.1-0.3-1.4-0.4s-0.8-0.6-0.9-0.7C50.6,1.1,50.3,1,50.3,1"/>
	<path class="st0" d="M52.9,1.4c0,0,0.7,0,1.2,0.3s0.9,0.8,1,1c0,0-0.3-0.2-0.5-0.3S53.9,2,53.7,2C53.7,2,53,1.5,52.9,1.4"/>
	<path class="st0" d="M56.3,17.7c0,0,0.1-0.1,0.4-0.4s0.4-0.7,0.8-1.4s0.7-1.1,1.4-1.8c0,0-0.1,0.5-0.1,0.7s-0.1,1-0.6,1.5
		c-0.4,0.5-0.5,0.6-1,0.9c0,0-0.2,0.1-0.2,0.2s0.3,0,0.3,0s0.4-0.1,0.5-0.2s0.6-0.3,0.8-0.4s0.4-0.2,0.8-0.3
		c0.5-0.1,2.1-0.5,2.7-1.6c0,0-0.2,0.6-0.4,0.9s-1.6,2-3.4,2c0,0-0.7-0.1-1.1-0.1c-0.4-0.1-0.5-0.1-0.6-0.1
		C56.7,17.7,56.3,17.7,56.3,17.7"/>
	<path class="st0" d="M60.4,11.4c0,0-0.7,1.1-0.9,2.7s0.1,1.1-0.1,1.8l-0.1,0.2c0,0,0.2-0.1,0.7-0.4s1-0.2,2-1.2s1.3-3,1.3-3.2
		c0,0-0.2,0.2-0.2,0.4s-0.2,0.5-0.3,0.5c0,0-1.2,1.3-1.3,1.4s-0.8,0.9-1,1.2c-0.1,0.2-0.6,0.7-0.6,0.6c0,0,0-0.1,0-0.2
		s0.4-0.5,0.5-1s0.2-0.8,0.2-1.1C60.6,12.8,60.4,11.6,60.4,11.4"/>
	<path class="st0" d="M61.4,12.9c0,0-0.1-0.2,0-0.3c0-0.1,0.1-0.6-0.1-1c-0.2-0.4-0.6-1.7-0.6-2.5s0.1-0.9,0.1-0.9S61,8.9,61,9
		c0.1,0.1,0.7,1.3,0.7,2c-0.1,0.6-0.1,0.9-0.1,0.9s0.1-0.1,0.1-0.2s0.1-0.5,0.3-1.1c0.2-0.5,1.1-1.7,1.3-2.5c0,0,0.3,1.4-0.5,2.6
		c-0.8,1.3-0.8,1-1.1,1.6C61.5,12.8,61.4,12.9,61.4,12.9"/>
	<path class="st0" d="M62.1,9.3c-0.1,0,0-0.5-0.2-0.7s-1.3-1.5-1.5-2.9c0,0,0.7,0.7,0.9,0.8c0.1,0.1,0.6,0.6,0.8,1
		c0.1,0.4,0.1,0.8,0.2,0.8c0.1,0,0.1-0.5,0.1-0.5s0-1,0.1-1.4c0.1-0.5,0.3-1.2,0.2-1.6c0,0,0.4,0.7,0.4,1.7s-0.4,1.8-0.5,1.9
		c-0.1,0.1-0.2,0.6-0.2,0.7C62.2,9.3,62.1,9.3,62.1,9.3"/>
	<path class="st0" d="M60.7,2.3c0,0,1.5,0.9,1.3,3.9c0,0,0,0.1-0.1,0s-0.4-0.6-0.6-0.6c-0.1-0.1-1.5-0.9-2.1-2.2c0,0,0.1,0,0.2,0.1
		s0.5,0.3,0.6,0.4s0.6,0.1,1,0.5s0.5,0.7,0.6,0.9c0,0,0.1,0.1,0-0.1s-0.1-0.4-0.3-0.6C61.2,4.2,61,3.7,61,3.3
		C60.9,3,60.8,2.5,60.7,2.3"/>
	<path class="st0" d="M60.4,3.3c0,0,0-0.2-0.1-0.5s0-0.6-0.5-1.3c-0.3-0.4-1.2-0.7-1.2-0.7s0.3,0.4,0.4,0.6c0.2,0.2,0.2,0.4,0.3,0.5
		c0.1,0.1,0.4,0.4,0.5,0.6c0,0,0.1,0.1,0.1,0.2s-0.1,0-0.2-0.1c0,0-0.6-0.5-0.9-0.5s-1-0.1-1.2-0.2c0,0,0.8,0.7,1.6,0.9
		C60.1,2.9,60.4,3.3,60.4,3.3"/>
	<path class="st0" d="M58.6,1.5c0,0-0.8-1.1-2.2-1c0,0,0.1,0.1,0.2,0.1S57,0.9,57.2,1C57.4,1,57.7,1.3,58.6,1.5"/>
	<path class="st0" d="M15.4,0v13.3c0,1.2-0.2,2.2-0.6,3.1c-0.4,0.9-0.9,1.6-1.6,2.2s-1.5,1-2.4,1.3s-2,0.5-3.1,0.5s-2.1-0.2-3.1-0.5
		s-1.8-0.8-2.4-1.3S1,17.2,0.6,16.3S0,14.4,0,13.3V0h4.1v13.3c0,1.3,0.3,2.3,0.9,2.9S6.6,17,7.7,17s2-0.3,2.6-0.9
		c0.6-0.6,0.9-1.6,0.9-2.9V0H15.4z"/>
	<polygon class="st0" points="35.1,20.1 30.9,20.1 22.9,6.9 22.9,20.1 18.8,20.1 18.8,0 22.9,0 31,13.2 31,0 35.1,0 	"/>
	<path class="st0" d="M3,33c-0.9,0-1.6-0.3-2.1-0.8C0.3,31.7,0,31,0,30.1v-0.2c0-0.6,0.1-1.2,0.4-1.6s0.5-0.8,1-1.1
		c0.4-0.3,0.9-0.4,1.4-0.4c0.8,0,1.5,0.3,1.9,0.8s0.7,1.3,0.7,2.2v0.7H1.6c0,0.4,0.2,0.7,0.5,1c0.3,0.2,0.6,0.4,1,0.4
		c0.6,0,1.1-0.2,1.4-0.7l0.8,0.9c-0.2,0.3-0.6,0.6-1,0.8C3.9,32.9,3.5,33,3,33 M2.8,28.1c-0.3,0-0.6,0.1-0.8,0.3
		c-0.2,0.2-0.3,0.5-0.4,0.9h2.2v-0.1c0-0.4-0.1-0.6-0.3-0.8C3.4,28.2,3.1,28.1,2.8,28.1"/>
	<path class="st0" d="M7.8,26.9v0.7c0.4-0.5,1-0.8,1.7-0.8c0.6,0,1.1,0.2,1.4,0.6c0.3,0.4,0.5,0.9,0.5,1.7V33H9.9v-3.9
		c0-0.3-0.1-0.6-0.2-0.7S9.3,28.2,9,28.2c-0.5,0-0.8,0.2-1,0.6v4.3H6.3v-6L7.8,26.9L7.8,26.9z"/>
	<polygon class="st0" points="14.9,31 16,26.9 17.7,26.9 15.7,32.9 14.2,32.9 12.2,26.9 13.8,26.9 	"/>
	<path class="st0" d="M18.4,25.3c0-0.2,0.1-0.4,0.2-0.6s0.4-0.2,0.6-0.2c0.3,0,0.5,0.1,0.6,0.2c0.2,0.2,0.2,0.4,0.2,0.6
		s-0.1,0.5-0.2,0.6c-0.2,0.2-0.4,0.2-0.6,0.2c-0.3,0-0.5-0.1-0.6-0.2S18.4,25.6,18.4,25.3 M20.1,32.9h-1.6v-6h1.6V32.9z"/>
	<path class="st0" d="M24.8,28.4c-0.2,0-0.4,0-0.6,0c-0.6,0-1,0.2-1.2,0.6v3.9h-1.6v-6H23v0.7c0.3-0.5,0.8-0.8,1.3-0.8
		c0.2,0,0.3,0,0.5,0.1V28.4z"/>
	<path class="st0" d="M25.2,29.9c0-0.6,0.1-1.1,0.3-1.6c0.2-0.5,0.5-0.8,1-1.1c0.4-0.3,0.9-0.4,1.5-0.4c0.8,0,1.5,0.2,2,0.8
		c0.5,0.5,0.8,1.2,0.9,2V30c0,0.9-0.2,1.7-0.8,2.2c-0.5,0.6-1.2,0.8-2,0.8s-1.5-0.3-2-0.8C25.5,31.6,25.2,30.9,25.2,29.9L25.2,29.9
		L25.2,29.9z M26.8,30c0,0.6,0.1,1,0.3,1.3c0.2,0.3,0.5,0.5,0.9,0.5s0.7-0.2,0.9-0.5s0.3-0.8,0.3-1.4s-0.1-1-0.3-1.3
		c-0.2-0.3-0.5-0.5-0.9-0.5s-0.7,0.2-0.9,0.5S26.8,29.3,26.8,30"/>
	<path class="st0" d="M33.3,26.9v0.7c0.4-0.5,1-0.8,1.7-0.8c0.6,0,1.1,0.2,1.4,0.6c0.3,0.4,0.5,0.9,0.5,1.7V33h-1.6v-3.9
		c0-0.3-0.1-0.6-0.2-0.7s-0.4-0.2-0.7-0.2c-0.5,0-0.8,0.2-1,0.6v4.3h-1.6v-6L33.3,26.9L33.3,26.9z"/>
	<path class="st0" d="M39.7,26.9v0.7c0.4-0.5,1-0.8,1.7-0.8c0.8,0,1.3,0.3,1.6,0.9c0.4-0.6,1-0.9,1.8-0.9c0.6,0,1.1,0.2,1.4,0.6
		s0.5,1,0.5,1.7V33h-1.6v-3.8c0-0.3-0.1-0.6-0.2-0.8s-0.4-0.2-0.7-0.2c-0.5,0-0.8,0.2-1,0.7V33h-1.6v-3.8c0-0.3-0.1-0.6-0.2-0.8
		c-0.1-0.2-0.4-0.2-0.7-0.2c-0.5,0-0.8,0.2-1,0.6v4.3h-1.6v-6C38.2,26.9,39.7,26.9,39.7,26.9z"/>
	<path class="st0" d="M50.7,33c-0.9,0-1.6-0.3-2.1-0.8s-0.8-1.3-0.8-2.2v-0.2c0-0.6,0.1-1.2,0.4-1.6s0.5-0.8,1-1.1
		c0.4-0.3,0.9-0.4,1.4-0.4c0.8,0,1.5,0.3,1.9,0.8s0.7,1.3,0.7,2.2v0.7h-3.8c0,0.4,0.2,0.7,0.5,1c0.3,0.2,0.6,0.4,1,0.4
		c0.6,0,1.1-0.2,1.4-0.7l0.8,0.9c-0.2,0.3-0.6,0.6-1,0.8C51.6,32.9,51.2,33,50.7,33 M50.5,28.1c-0.3,0-0.6,0.1-0.8,0.3
		c-0.2,0.2-0.3,0.5-0.4,0.9h2.2v-0.1c0-0.4-0.1-0.6-0.3-0.8C51.1,28.2,50.8,28.1,50.5,28.1"/>
	<path class="st0" d="M55.5,26.9v0.7c0.4-0.5,1-0.8,1.7-0.8c0.6,0,1.1,0.2,1.4,0.6c0.3,0.4,0.5,0.9,0.5,1.7V33h-1.6v-3.9
		c0-0.3-0.1-0.6-0.2-0.7s-0.4-0.2-0.7-0.2c-0.5,0-0.8,0.2-1,0.6v4.3H54v-6L55.5,26.9L55.5,26.9z"/>
	<path class="st0" d="M62.3,25.4v1.5h1v1.2h-1v3c0,0.2,0,0.4,0.1,0.5s0.2,0.1,0.5,0.1c0.2,0,0.3,0,0.5,0v1.2c-0.3,0.1-0.6,0.2-1,0.2
		c-1.1,0-1.7-0.6-1.7-1.7v-3.2h-0.9V27h0.9v-1.5h1.6V25.4z"/>
	<path class="st0" d="M5.4,40.8c0,0.9-0.2,1.7-0.6,2.2s-1,0.8-1.7,0.8c-0.6,0-1.1-0.2-1.5-0.6v2.9H0v-8.4h1.5v0.6
		c0.4-0.5,0.9-0.7,1.5-0.7c0.7,0,1.3,0.3,1.7,0.8C5.1,39,5.4,39.8,5.4,40.8L5.4,40.8z M3.8,40.7c0-0.6-0.1-1-0.3-1.3
		C3.3,39.1,3,39,2.6,39c-0.5,0-0.8,0.2-1,0.6V42c0.2,0.4,0.5,0.6,1,0.6C3.4,42.6,3.8,42,3.8,40.7"/>
	<path class="st0" d="M9.7,39.3c-0.2,0-0.4,0-0.6,0c-0.6,0-1,0.2-1.2,0.6v4H6.4v-6h1.5v0.7c0.3-0.5,0.8-0.8,1.3-0.8
		c0.2,0,0.3,0,0.5,0.1V39.3z"/>
	<path class="st0" d="M10.1,40.7c0-0.6,0.1-1.1,0.3-1.6s0.5-0.8,1-1.1c0.4-0.3,0.9-0.4,1.5-0.4c0.8,0,1.5,0.2,2,0.8
		c0.5,0.5,0.8,1.2,0.9,2v0.4c0,0.9-0.2,1.7-0.8,2.2s-1.2,0.8-2,0.8s-1.5-0.3-2-0.8S10.1,41.7,10.1,40.7L10.1,40.7L10.1,40.7z
		 M11.7,40.8c0,0.6,0.1,1,0.3,1.3s0.5,0.5,0.9,0.5s0.7-0.2,0.9-0.5s0.3-0.8,0.3-1.4c0-0.6-0.1-1-0.3-1.3s-0.5-0.5-0.9-0.5
		s-0.7,0.2-0.9,0.5C11.8,39.7,11.7,40.2,11.7,40.8"/>
	<path class="st0" d="M16.5,40.7c0-0.9,0.2-1.7,0.6-2.2c0.4-0.6,1-0.8,1.8-0.8c0.6,0,1.1,0.2,1.5,0.7l0.1-0.6H22v5.8
		c0,0.5-0.1,1-0.4,1.4s-0.6,0.7-1,0.9s-0.9,0.3-1.5,0.3c-0.4,0-0.9-0.1-1.3-0.3s-0.7-0.4-0.9-0.7l0.7-1c0.4,0.5,0.9,0.7,1.4,0.7
		c0.4,0,0.8-0.1,1-0.3s0.4-0.5,0.4-1v-0.3c-0.4,0.4-0.8,0.6-1.4,0.6c-0.7,0-1.3-0.3-1.7-0.8S16.5,41.7,16.5,40.7L16.5,40.7z
		 M18.1,40.8c0,0.5,0.1,1,0.3,1.3c0.2,0.3,0.5,0.5,0.9,0.5c0.5,0,0.8-0.2,1-0.5v-2.5c-0.2-0.4-0.5-0.5-1-0.5c-0.4,0-0.7,0.2-0.9,0.5
		C18.2,39.7,18.1,40.2,18.1,40.8"/>
	<path class="st0" d="M26.6,39.3c-0.2,0-0.4,0-0.6,0c-0.6,0-1,0.2-1.2,0.6v4h-1.6v-6h1.5v0.7c0.3-0.5,0.8-0.8,1.3-0.8
		c0.2,0,0.3,0,0.5,0.1L26.6,39.3z"/>
	<path class="st0" d="M30.6,43.8c-0.1-0.2-0.1-0.3-0.2-0.5C30,43.7,29.5,44,28.9,44s-1.1-0.2-1.4-0.5S27,42.6,27,42.1
		c0-0.6,0.2-1.1,0.7-1.5s1.1-0.5,2-0.5h0.7v-0.3c0-0.3-0.1-0.5-0.2-0.7s-0.4-0.2-0.7-0.2c-0.3,0-0.5,0.1-0.6,0.2s-0.2,0.3-0.2,0.5
		h-1.6c0-0.3,0.1-0.7,0.3-1c0.2-0.3,0.5-0.5,0.9-0.7s0.8-0.2,1.3-0.2c0.7,0,1.3,0.2,1.7,0.6s0.6,0.9,0.6,1.6v2.6
		c0,0.6,0.1,1,0.2,1.3v0.1L30.6,43.8L30.6,43.8z M29.3,42.7c0.2,0,0.5,0,0.6-0.2c0.2-0.1,0.3-0.2,0.4-0.4v-1h-0.6
		c-0.8,0-1.2,0.3-1.3,0.8V42c0,0.2,0.1,0.4,0.2,0.5C28.9,42.6,29.1,42.7,29.3,42.7"/>
	<path class="st0" d="M34.8,37.8v0.7c0.4-0.5,1-0.8,1.7-0.8c0.8,0,1.3,0.3,1.6,0.9c0.4-0.6,1-0.9,1.8-0.9c0.6,0,1.1,0.2,1.4,0.6
		s0.5,1,0.5,1.7v3.9h-1.6v-3.8c0-0.3-0.1-0.6-0.2-0.8S39.6,39,39.3,39c-0.5,0-0.8,0.2-1,0.7v4.2h-1.6v-3.8c0-0.3-0.1-0.6-0.2-0.8
		C36.4,39,36.2,39,35.8,39c-0.5,0-0.8,0.2-1,0.6v4.3h-1.6v-6C33.3,37.8,34.8,37.8,34.8,37.8z"/>
	<path class="st0" d="M44.5,37.8v0.7c0.4-0.5,1-0.8,1.7-0.8c0.8,0,1.3,0.3,1.6,0.9c0.4-0.6,1-0.9,1.8-0.9c0.6,0,1.1,0.2,1.4,0.6
		s0.5,1,0.5,1.7v3.9H50v-3.8c0-0.3-0.1-0.6-0.2-0.8S49.4,39,49.1,39c-0.5,0-0.8,0.2-1,0.7v4.2h-1.6v-3.8c0-0.3-0.1-0.6-0.2-0.8
		C46.2,39,45.9,39,45.6,39c-0.5,0-0.8,0.2-1,0.6v4.3H43v-6C43.1,37.8,44.5,37.8,44.5,37.8z"/>
	<path class="st0" d="M55.6,43.9c-0.9,0-1.6-0.3-2.1-0.8s-0.8-1.3-0.8-2.2v-0.2c0-0.6,0.1-1.2,0.4-1.6s0.5-0.8,1-1.1
		c0.4-0.3,0.9-0.4,1.4-0.4c0.8,0,1.5,0.3,1.9,0.8s0.7,1.3,0.7,2.2v0.7h-3.8c0,0.4,0.2,0.7,0.5,1c0.3,0.2,0.6,0.4,1,0.4
		c0.6,0,1.1-0.2,1.4-0.7l0.8,0.9c-0.2,0.3-0.6,0.6-1,0.8C56.5,43.8,56,43.9,55.6,43.9 M55.4,38.9c-0.3,0-0.6,0.1-0.8,0.3
		s-0.3,0.5-0.4,0.9h2.2V40c0-0.4-0.1-0.6-0.3-0.8C56,39,55.7,38.9,55.4,38.9"/>
	<g>
		<rect x="68.9" class="st0" width="0.9" height="43.9"/>
	</g>
	<g>
		<polygon class="st0" points="77.4,36.7 76.3,36.7 76.3,32.3 75.2,32.3 75.2,31.5 77.4,31.3 		"/>
		<path class="st0" d="M82.8,14.3c-0.7,0-1.3,0.1-1.8,0.3c-0.6,0.2-1,0.4-1.4,0.7l0.5-4.7h7.8V7.4H76.8l-1.2,11.2l3.5,0.2
			c0.2-0.5,0.5-0.9,0.9-1.2c0.4-0.3,1-0.4,1.8-0.4c0.9,0,1.6,0.3,2.1,1s0.7,1.6,0.7,2.8s-0.2,2-0.7,2.7c-0.4,0.6-1.1,0.9-2.1,0.9
			c-0.8,0-1.5-0.2-2-0.7s-0.8-1.1-0.8-2l-3.8,0.2v0.1c0,1.7,0.6,3,1.9,4s2.9,1.5,4.7,1.5c2.3,0,4-0.6,5.1-1.9
			c1.1-1.2,1.7-2.8,1.7-4.8c0-2.1-0.5-3.8-1.5-4.9S84.6,14.3,82.8,14.3"/>
		<path class="st0" d="M80.7,35.9c0.3,0,0.5-0.1,0.7-0.3s0.2-0.5,0.2-0.8v-0.3c-0.1,0.2-0.3,0.3-0.4,0.3c-0.2,0.1-0.3,0.1-0.5,0.1
			c-0.5,0-0.9-0.2-1.2-0.5c-0.3-0.3-0.4-0.8-0.4-1.3s0.2-1,0.5-1.3s0.8-0.5,1.3-0.5s1,0.2,1.3,0.5c0.3,0.4,0.5,0.9,0.5,1.5v1.4
			c0,0.6-0.2,1.1-0.5,1.5s-0.8,0.5-1.4,0.5c-0.2,0-0.4,0-0.6-0.1s-0.4-0.1-0.5-0.2l0.2-0.8c0.2,0.1,0.3,0.1,0.5,0.1
			C80.4,35.9,80.5,35.9,80.7,35.9 M80.8,34.2c0.2,0,0.3,0,0.5-0.1c0.1-0.1,0.2-0.2,0.3-0.3v-0.6c0-0.3-0.1-0.6-0.2-0.8
			s-0.3-0.3-0.5-0.3s-0.4,0.1-0.5,0.3s-0.2,0.4-0.2,0.7s0.1,0.5,0.2,0.7C80.5,34.1,80.6,34.2,80.8,34.2"/>
		<path class="st0" d="M87.1,32.2c-0.6,0.7-1,1.3-1.2,1.9c-0.2,0.6-0.3,1.2-0.3,1.9v0.7h-1.1V36c0-0.7,0.1-1.4,0.4-2
			s0.7-1.2,1.2-1.8h-2.7v-0.8h3.7V32.2L87.1,32.2z"/>
		<path class="st0" d="M91.3,36.7h-3.6V36l1.6-1.9c0.2-0.3,0.4-0.5,0.5-0.7S90,33,90,32.9c0-0.2,0-0.4-0.2-0.5s-0.3-0.2-0.5-0.2
			s-0.4,0.1-0.5,0.2s-0.2,0.4-0.2,0.6h-1l0,0c0-0.5,0.1-0.9,0.5-1.2c0.3-0.3,0.8-0.5,1.3-0.5s1,0.1,1.3,0.4s0.5,0.6,0.5,1.1
			c0,0.3-0.1,0.6-0.2,0.9s-0.5,0.6-0.9,1.1l-0.9,1l0,0h2.2L91.3,36.7L91.3,36.7z"/>
		<rect x="92.2" y="34" class="st0" width="2.2" height="0.8"/>
		<path class="st0" d="M98.9,36.7h-3.6V36l1.6-1.9c0.2-0.3,0.4-0.5,0.5-0.7s0.2-0.4,0.2-0.5c0-0.2,0-0.4-0.2-0.5s-0.3-0.2-0.5-0.2
			s-0.4,0.1-0.5,0.2s-0.2,0.4-0.2,0.6h-1l0,0c0-0.5,0.1-0.9,0.5-1.2c0.3-0.3,0.8-0.5,1.3-0.5s1,0.1,1.3,0.4s0.5,0.6,0.5,1.1
			c0,0.3-0.1,0.6-0.2,0.9s-0.5,0.6-0.9,1.1l-0.9,1l0,0H99L98.9,36.7L98.9,36.7z"/>
		<path class="st0" d="M103.1,34.8c0,0.6-0.2,1.1-0.5,1.5s-0.8,0.5-1.3,0.5s-1-0.2-1.3-0.5s-0.5-0.8-0.5-1.5v-1.5
			c0-0.6,0.2-1.1,0.5-1.5c0.3-0.4,0.8-0.5,1.3-0.5s1,0.2,1.3,0.5c0.3,0.4,0.5,0.8,0.5,1.5V34.8L103.1,34.8z M102,33.2
			c0-0.3-0.1-0.6-0.2-0.8s-0.3-0.3-0.5-0.3s-0.4,0.1-0.5,0.3s-0.2,0.5-0.2,0.8v1.7c0,0.3,0.1,0.6,0.2,0.8s0.3,0.3,0.5,0.3
			s0.4-0.1,0.5-0.3s0.2-0.5,0.2-0.8V33.2z"/>
		<path class="st0" d="M107.4,36.7h-3.6V36l1.6-1.9c0.2-0.3,0.4-0.5,0.5-0.7s0.2-0.4,0.2-0.5c0-0.2,0-0.4-0.2-0.5s-0.3-0.2-0.5-0.2
			s-0.4,0.1-0.5,0.2s-0.2,0.4-0.2,0.6h-1l0,0c0-0.5,0.1-0.9,0.5-1.2c0.3-0.3,0.8-0.5,1.3-0.5s1,0.1,1.3,0.4s0.5,0.6,0.5,1.1
			c0,0.3-0.1,0.6-0.2,0.9s-0.5,0.6-0.9,1.1l-0.9,1l0,0h2.2L107.4,36.7L107.4,36.7z"/>
		<path class="st0" d="M111.7,36.7h-3.6V36l1.6-1.9c0.2-0.3,0.4-0.5,0.5-0.7s0.2-0.4,0.2-0.5c0-0.2,0-0.4-0.2-0.5s-0.3-0.2-0.5-0.2
			s-0.4,0.1-0.5,0.2S109,32.8,109,33h-1l0,0c0-0.5,0.1-0.9,0.5-1.2c0.3-0.3,0.8-0.5,1.3-0.5s1,0.1,1.3,0.4s0.5,0.6,0.5,1.1
			c0,0.3-0.1,0.6-0.2,0.9s-0.5,0.6-0.9,1.1l-0.9,1l0,0h2.2L111.7,36.7L111.7,36.7z"/>
	</g>
</g>
<g>
	<g>
		<g>
			<path class="st0" d="M103.4,20.2c0,0-1,1.3-1.2,3.2c-0.2,1.9,0.2,1.3-0.2,2.2l-0.1,0.2c0,0,0.2-0.1,0.9-0.5
				c0.7-0.4,1.4-0.3,2.9-1.5s1.8-3.7,1.8-3.9c0,0-0.2,0.2-0.3,0.5s-0.4,0.6-0.4,0.6c-0.1,0-1.7,1.6-1.9,1.7
				c-0.1,0.3-1.1,1.3-1.3,1.6c-0.2,0.3-0.8,0.8-0.9,0.8c0,0,0-0.1,0.1-0.2s0.5-0.6,0.7-1.2c0.2-0.6,0.2-1,0.2-1.4
				C103.7,21.9,103.4,20.5,103.4,20.2"/>
		</g>
	</g>
	<g>
		<g>
			<path class="st0" d="M104.7,22.1c0,0-0.1-0.2,0-0.3c0.1-0.1,0.1-0.7-0.2-1.3c-0.3-0.5-0.9-2-0.9-3c0.1-1,0.2-1.1,0.2-1.1
				s0.3,0.8,0.4,1c0.1,0.1,1.1,1.6,1,2.4c-0.1,0.8-0.1,1-0.1,1.1c0.1,0,0.2-0.1,0.2-0.2s0.2-0.6,0.5-1.3c0.3-0.6,1.5-2.1,1.8-3
				c0,0,0.4,1.7-0.7,3.2s-1.2,1.2-1.6,1.9C104.9,22,104.8,22.1,104.7,22.1"/>
		</g>
	</g>
	<g>
		<g>
			<path class="st0" d="M105.7,17.7c-0.1,0,0-0.6-0.2-0.8c-0.2-0.2-1.8-1.9-2.2-3.5c0,0,1,0.9,1.2,1c0.2,0.1,0.9,0.7,1.1,1.2
				c0.2,0.5,0.2,1,0.2,1c0.1,0,0.1-0.6,0.1-0.6s0-1.2,0.1-1.7c0.1-0.5,0.4-1.5,0.3-1.9c0,0,0.6,0.9,0.6,2.1s-0.6,2.2-0.7,2.3
				c-0.1,0.1-0.3,0.7-0.3,0.8C105.9,17.6,105.7,17.7,105.7,17.7"/>
		</g>
	</g>
	<g>
		<g>
			<path class="st0" d="M103.8,9.1c0,0,2.1,1.1,1.8,4.8c0,0,0,0.2-0.1,0s-0.6-0.7-0.8-0.8c-0.2-0.1-2.1-1.1-2.9-2.6
				c0,0,0.1,0,0.3,0.1c0.2,0.1,0.8,0.4,0.9,0.5c0.1,0,0.8,0.2,1.2,0.7s0.7,0.8,0.8,1.1c0,0,0.1,0.1,0.1-0.2
				c-0.1-0.3-0.1-0.5-0.4-0.8c-0.2-0.3-0.5-1-0.5-1.4C104.1,10,104,9.3,103.8,9.1"/>
		</g>
	</g>
	<g>
		<g>
			<path class="st0" d="M103.4,10.4c0,0,0.1-0.2-0.2-0.6c-0.3-0.4-0.1-0.7-0.7-1.6c-0.4-0.5-1.6-0.9-1.6-0.9s0.4,0.4,0.6,0.7
				c0.2,0.2,0.3,0.4,0.4,0.5c0.1,0.1,0.5,0.5,0.7,0.7c0,0,0.1,0.1,0.1,0.2s-0.2,0-0.2-0.1c-0.1,0-0.8-0.5-1.3-0.6s-1.4-0.2-1.7-0.3
				c0,0,1.1,0.9,2.3,1.1C103,9.8,103.4,10.4,103.4,10.4"/>
		</g>
	</g>
	<g>
		<g>
			<path class="st0" d="M102.2,26.4c-0.6,0.2-0.9,0.3-1.2,0.4c-0.3,0.1-1,0.4-1.2,0.5c-0.2,0.1-0.7,0.2-0.7,0.2s-0.5,0.1-0.5,0
				l0.2-0.2c0.7-0.4,0.7-0.5,1.3-1.1s0.8-1.7,0.8-1.9c0-0.2,0.2-0.8,0.2-0.8c-1.1,0.8-1.5,1.4-2,2.2c-0.2,0.3-0.3,0.5-0.4,0.7
				c-0.3,0.8-0.7,1.4-1.2,1.4l0,0c-0.1,0.1-0.1,0.1-0.1,0.1c0.1,0,0.6,0,0.7-0.1c0.1,0,0.3,0,0.8,0.1s1.6,0.2,1.6,0.2
				c2.6,0,4.5-2.1,4.8-2.5c0.3-0.4,0.6-1.1,0.6-1.1C105.1,25.8,102.8,26.3,102.2,26.4"/>
		</g>
	</g>
</g>
<g>
	<defs>
		<circle id="SVGID_1_" cx="101.3" cy="17.4" r="10.4"/>
	</defs>
	<clipPath id="SVGID_00000151523237781358161720000015936835743213841599_">
		<use xlink:href="#SVGID_1_"  style="overflow:visible;"/>
	</clipPath>
	<g style="clip-path:url(#SVGID_00000151523237781358161720000015936835743213841599_);">
		<g class="st2">
			<g>
				<defs>
					<circle id="SVGID_00000021089308278361551700000014348777262699394993_" cx="101.3" cy="17.5" r="10.4"/>
				</defs>
				<use xlink:href="#SVGID_00000021089308278361551700000014348777262699394993_"  style="overflow:visible;fill:#FFFFFF;"/>
				<clipPath id="SVGID_00000091712393829842292910000000885099297764851110_">
					<use xlink:href="#SVGID_00000021089308278361551700000014348777262699394993_"  style="overflow:visible;"/>
				</clipPath>
			</g>
		</g>
	</g>
	<g style="opacity:0.6;clip-path:url(#SVGID_00000151523237781358161720000015936835743213841599_);">
		<path class="st0" d="M100.8,9.4c0.1,0.1,0.1,0.2,0.2,0.2"/>
	</g>
	<g style="opacity:0.6;clip-path:url(#SVGID_00000151523237781358161720000015936835743213841599_);">
		<path class="st0" d="M95.4,18.8L95.4,18.8L95.4,18.8z"/>
	</g>
	<g style="opacity:0.6;clip-path:url(#SVGID_00000151523237781358161720000015936835743213841599_);">
		<path class="st0" d="M95.1,19.6L95.1,19.6L95.1,19.6z"/>
	</g>
	<g style="opacity:0.6;clip-path:url(#SVGID_00000151523237781358161720000015936835743213841599_);">
		<path class="st0" d="M94.9,20.1L94.9,20.1L94.9,20.1L94.9,20.1L94.9,20.1z"/>
	</g>
	<g style="opacity:0.6;clip-path:url(#SVGID_00000151523237781358161720000015936835743213841599_);">
		<path class="st0" d="M94.8,19.2L94.8,19.2L94.8,19.2L94.8,19.2z"/>
	</g>
	<g style="opacity:0.6;clip-path:url(#SVGID_00000151523237781358161720000015936835743213841599_);">
		<path class="st0" d="M99.9,19C99.8,19,99.8,19,99.9,19C99.9,19,99.9,18.9,99.9,19L99.9,19z"/>
	</g>
	<g style="opacity:0.6;clip-path:url(#SVGID_00000151523237781358161720000015936835743213841599_);">
		<path class="st0" d="M101.3,20C101.3,20,101.3,20.1,101.3,20C101.3,20.1,101.3,20.1,101.3,20z"/>
	</g>
	<g style="opacity:0.6;clip-path:url(#SVGID_00000151523237781358161720000015936835743213841599_);">
		<path class="st4" d="M112.3,14.9c-0.1,0-0.2-0.1-0.2-0.2c0-0.2-0.1-0.5,0.2-0.7c0.1-0.1,0.1-0.2-0.1-0.2c-0.2,0-0.2-0.1-0.2-0.3
			s-0.1-0.3-0.3-0.3c-0.2,0-0.3,0.2-0.3,0.3s0.1,0.3-0.2,0.3c-0.2,0-0.2-0.1-0.3-0.2c-0.1-0.1-0.1-0.2-0.2-0.1
			c-0.1,0.1-0.1,0-0.2-0.1c-0.1-0.1-0.2-0.3-0.4-0.1H110c-0.1-0.1-0.2-0.2-0.2-0.4c-0.1,0-0.1,0.1-0.1,0.1c-0.1,0.2-0.4,0.3-0.6,0.2
			c-0.1-0.1-0.2-0.2-0.2,0c0,0.1-0.1,0.2,0.1,0.3c0.1,0,0.3,0.2,0.2,0.3c-0.1,0.2-0.1,0.4-0.1,0.6c0,0,0,0.1-0.1,0.1
			s-0.2,0.1-0.3,0.1c-0.2,0-0.2,0.2-0.1,0.3c0,0.1,0,0.2-0.1,0.2c-0.2,0-0.2,0.2-0.3,0.3c-0.2,0.2,0,0.4-0.1,0.6
			c0,0.1-0.1,0.3,0,0.3s0.2-0.1,0.2-0.2c0.1-0.2,0.3-0.4,0.6-0.2c-0.1,0.2-0.3,0.3-0.4,0.5c-0.1,0.1-0.2,0.2-0.1,0.4
			c0.1,0.1,0,0.2,0,0.3c-0.1,0.1-0.1,0-0.2-0.1s-0.2,0-0.2,0.1c0,0,0,0.1,0,0.2c0,0.3-0.1,0.4-0.4,0.3c-0.1,0-0.1-0.2-0.2-0.3
			c-0.5,0.4-0.8,0.4-1.3,0c-0.1-0.1-0.1,0-0.2,0c-0.1,0.2-0.3,0.2-0.5,0.2c-0.1,0-0.1,0-0.2,0c-0.2,0-0.2-0.1-0.2-0.2
			c0-0.2,0.1-0.3,0.2-0.3c0.1,0,0.2,0,0.2-0.2c0-0.3,0-0.3,0.3-0.3c0.2,0,0.2-0.1,0.2-0.2s-0.1-0.2-0.1-0.2
			c-0.1-0.1-0.2-0.2-0.1-0.4c0,0,0,0,0-0.1h-0.1h-0.1c-0.2,0-0.1,0-0.1,0.2c0.1,0.1,0.1,0.2,0,0.4c-0.1,0.1-0.2,0.1-0.3,0.1
			s-0.2,0-0.2,0.1c0,0.2-0.2,0.3-0.4,0.4c-0.1-0.1-0.1-0.2-0.1-0.3c0-0.1-0.1-0.1-0.1-0.2c0,0,0-0.1-0.1-0.1s-0.1,0-0.1,0.1
			c-0.1,0.2,0,0.6,0.2,0.7c0.1,0.1,0.1,0.2,0.1,0.3c0,0.1-0.1,0.2-0.2,0.2c-0.2,0-0.4,0-0.5-0.2c-0.2-0.3-0.2-0.6-0.1-0.8
			c0.1-0.1,0.1-0.2,0-0.2c-0.1-0.1-0.1-0.2,0-0.3c0.1-0.1,0.1-0.2,0-0.2c-0.1-0.1-0.1-0.1,0-0.2c0.1-0.1,0.1-0.2,0.3-0.3
			c0.1,0,0.1-0.1,0-0.1c-0.1,0-0.1-0.3-0.2-0.1c0,0-0.1,0.1-0.1,0c-0.1,0-0.1-0.1-0.1-0.1l0.1-0.1c0.2,0,0.1-0.1,0.1-0.2
			c0,0,0-0.1,0-0.2c0.1-0.4,0.2-0.7,0.3-1.1c0-0.1,0.1-0.3,0.2-0.4c0,0-0.1-0.1,0-0.2c0.1,0,0.1-0.1,0.3,0c-0.1-0.1-0.2-0.2-0.1-0.4
			c0-0.1,0-0.3-0.1-0.3s-0.2,0.1-0.3,0.2c-0.1,0-0.1,0.2-0.1,0.1s-0.2-0.1-0.3-0.2c0.1,0,0.1-0.1,0.2-0.1s0.1-0.1,0-0.2
			c0,0,0-0.1-0.1-0.1s-0.2-0.1-0.2-0.2v-0.1c0-0.1,0-0.2-0.2-0.1c-0.2,0.1-0.4,0-0.4-0.1c-0.2,0.2-0.4,0-0.5-0.1s-0.2-0.1-0.3,0
			c0,0.1-0.1,0.1-0.2,0.1c-0.1-0.1-0.3,0-0.5-0.1c-0.1,0.2-0.3,0.4-0.4,0.3c-0.1-0.1-0.2,0-0.3,0l0,0l0,0c0-0.1,0.1-0.2,0-0.3
			s-0.3-0.2-0.4-0.2c-0.2,0.1-0.3-0.1-0.4-0.2c-0.1-0.1-0.2-0.2-0.2,0c0,0.1-0.2,0-0.2,0.1c0.1,0.2,0.1,0.3,0.1,0.5
			c-0.1,0-0.1-0.1-0.1-0.1c-0.1,0-0.1-0.1-0.2-0.1s-0.1,0.2,0,0.2v0.1c0.1,0.3,0.1,0.3-0.3,0.4c0-0.1,0-0.1-0.1-0.3
			c-0.1-0.1-0.1-0.2-0.3-0.2h-0.1c-0.1-0.3-0.2-0.1-0.3,0s-0.1,0.2-0.1,0.3s0,0.1,0,0.2c-0.1,0.2-0.2,0.4-0.3,0.6
			c0,0.1-0.1,0.1,0,0.1c0.2,0.1,0.2,0.2,0.3,0.4v0.1H98c-0.1,0-0.1-0.1-0.1,0s-0.1,0.2-0.2,0.2c-0.1,0-0.2-0.1-0.2-0.2
			c0-0.1,0-0.2,0.1-0.3c-0.1,0-0.2,0-0.3,0.1c0,0.1-0.1,0.2-0.2,0c0-0.1-0.1-0.1-0.2-0.1s-0.1,0.1-0.1,0.2c-0.1,0.1-0.1,0.2-0.2,0.4
			s-0.2,0.2-0.4,0.1c-0.1-0.1-0.2-0.2-0.3-0.2s-0.2,0-0.2-0.1c-0.1-0.1-0.1-0.2-0.2-0.1c-0.2,0-0.3,0-0.4-0.3c0-0.1-0.1-0.2-0.2-0.3
			c-0.2-0.1-0.2-0.3-0.1-0.5c0.1-0.1,0.1-0.1,0-0.2c-0.1-0.1-0.1-0.1-0.2-0.1s-0.3,0-0.4-0.1c0.1-0.1,0.2,0,0.2-0.1
			s-0.1-0.1-0.2-0.2c-0.1,0-0.1,0-0.1-0.1S94,11,94.1,11c0.1,0.1,0.2-0.1,0.4,0c0.1,0.1,0.3,0.1,0.4,0.1c0.3,0,0.3,0,0.3-0.3
			c0-0.2,0.1-0.6,0.2-0.7c0.2,0,0.2-0.2,0.2-0.3s-0.1-0.3-0.2-0.4c-0.1,0-0.3-0.1-0.4,0.1h-0.1c-0.2-0.1-0.3,0-0.4,0.1
			c-0.1,0.1-0.2,0.2-0.3,0.2v0.1l0,0c0,0,0-0.1,0.1-0.1c0-0.2-0.1-0.2-0.2-0.1S93.9,9.8,94,9.9c0.2,0.2-0.1,0.4-0.1,0.5l0,0
			c0,0.1,0,0.1-0.1,0.2c-0.1-0.1-0.1-0.2-0.2,0c-0.1,0.2-0.2,0.1-0.3-0.1c0,0.2,0,0.3-0.2,0.3c-0.1,0-0.1,0-0.1,0.1
			c0.1,0.1,0,0.2-0.1,0.3c0,0.1,0.1,0.2,0.1,0.4c0,0.1-0.1,0.1-0.1,0.2c-0.1,0-0.2,0.1-0.2,0.2c0,0.1-0.1,0.1-0.1,0.1
			c-0.2,0.1-0.3,0.3-0.2,0.4c0,0.2-0.1,0.4-0.2,0.6c0,0-0.2,0-0.3,0.1c-0.1,0-0.1,0-0.2,0.1c0,0.1,0.3,0.2,0.1,0.3
			c-0.1,0-0.1,0.1-0.1,0.2c0,0.1-0.1,0.2-0.2,0.2s-0.1-0.1,0-0.2c0,0,0,0,0-0.1c0.1-0.5,0.1-1,0.4-1.4c0.2-0.2,0.2-0.5,0.4-0.7
			c0.1,0,0.1-0.2,0-0.3c-0.1-0.1-0.1-0.2,0.1-0.2c0.1,0,0.2-0.1,0.3,0c0.2,0,0.2,0,0.2-0.2s-0.1-0.4-0.2-0.5l0,0
			c-0.4,0.1-0.6,0.5-0.7,0.8c0,0.3-0.2,0.5-0.4,0.7c-0.1,0.1-0.3,0.3-0.2,0.5c0.1,0.1,0,0.2,0,0.4c0,0.1-0.1,0.1-0.2,0.1
			s-0.1,0-0.1,0c0,0.1-0.1,0.2-0.1,0.3s-0.1,0.3-0.1,0.3c-0.2,0.1-0.1,0.2-0.1,0.4c0.1,0.2,0.1,0.3,0.1,0.5
			c-0.2,0.7-0.2,1.4-0.3,2.1c0,0.2,0,0.5,0,0.7c0.1,0.6,0.2,1.2,0.3,1.8c0,0.7,0.2,1.3,0.7,1.9c0.3,0.3,0.5,0.8,0.6,1.2
			c0.1,0.3,0.3,0.6,0.5,0.8c0.2,0.3,0.5,0.5,0.7,0.8c0.2,0.2,0.3,0.4,0.6,0.5c0.1,0,0.1,0.1,0.2,0.2s0.1,0.2,0.2,0.3
			c0.1,0,0.2,0,0.3,0.1l0.1,0.1c0.3,0,0.3,0.3,0.6,0.3c0.1,0,0.1,0,0.1,0.1s0.1,0.1,0.2,0c0.1-0.1,0.1-0.1,0-0.2
			c-0.1-0.1-0.2-0.3-0.4-0.4c-0.1-0.1-0.1-0.3-0.2-0.4c-0.2-0.2-0.2-0.4-0.2-0.6s0-0.3,0-0.5s-0.1-0.3-0.2-0.4
			c-0.2-0.1-0.4-0.3-0.5-0.5C94.1,22.2,94,22.1,94,22c0,0,0-0.1-0.1-0.1c-0.1,0-0.1,0-0.1,0.1c0,0,0,0.1-0.1,0c0-0.1,0-0.2,0-0.2
			c0-0.1,0-0.1-0.1-0.1c-0.2,0-0.2-0.2-0.2-0.3c0-0.2,0-0.2-0.2-0.1c-0.1,0-0.2,0-0.3-0.1S92.7,21,92.5,21c-0.1,0-0.2-0.1-0.1-0.1
			c0.1-0.2-0.1-0.5,0.2-0.7c0.1,0,0-0.1-0.1-0.2c-0.1-0.1-0.1-0.3,0-0.4c0.2-0.3,0.2-0.3-0.1-0.5c-0.1-0.1-0.2-0.2,0-0.3
			c0.1-0.1,0.1-0.1,0.1-0.2c0-0.2,0.1-0.3,0.2-0.3s0.3,0,0.4,0c0,0,0.1,0,0.1-0.1s0.1-0.2,0-0.3c-0.1,0-0.1-0.1-0.1-0.2
			s0.1-0.1,0.2-0.1s0.2,0,0.3-0.1s0.2,0,0.2,0c0.3,0.1,0.6,0.1,0.8,0c-0.2,0-0.4,0-0.6-0.1c-0.1,0-0.2,0-0.1-0.2
			c0.1-0.1,0.1-0.2,0.2-0.1c0.1,0.1,0.3,0,0.4,0h0.3l0,0c0-0.1,0.1-0.2,0.2-0.2h0.1c0-0.1,0.1-0.1,0.1-0.2c0.6,0,0.6-0.1,0.6-0.2
			c0-0.2,0.1-0.2,0.2-0.3c0-0.1,0-0.2,0.1-0.3l0.1-0.1c0,0-0.1,0-0.1-0.1c0-0.3-0.1-0.5-0.4-0.4c-0.1,0-0.1,0-0.2-0.1
			c-0.1-0.1-0.1-0.2,0-0.2c0.2-0.1,0.2-0.3,0.2-0.5c0-0.1,0-0.4,0.2-0.3c0.1,0,0.3,0,0.4,0c0.2,0,0.2,0.1,0.2,0.2
			c0.1,0.1-0.1,0.1-0.1,0.1l0,0l0,0c0,0,0,0,0.1,0c0-0.1,0-0.2-0.1-0.1c-0.1,0.1-0.1,0.2,0,0.3c0,0.1,0.1,0.2,0.2,0.1
			c0.1-0.1,0.1-0.1,0.2,0c0.1,0.1,0.2,0,0.4,0c0-0.1,0.1-0.3-0.1-0.3c-0.3-0.1-0.3-0.3-0.2-0.5v0.1c0,0.2,0.1,0.1,0.2,0.1
			c0.2,0,0.1-0.1,0.1-0.2c0-0.2,0.1-0.3,0.3-0.2c0.2,0.1,0.4,0,0.4,0.2H98c0.1,0,0.1,0,0.2,0c0,0,0,0,0,0.1s-0.1,0.1,0,0.2
			c0.1,0.1,0.1-0.1,0.1-0.1c0.1,0,0.2,0,0.2,0c0.2,0.2,0.2,0,0.2-0.1c0,0-0.1-0.1,0-0.2c0.2,0.3,0.3,0.3,0.4,0.2
			c0.2-0.1,0.2,0,0.2,0.1c0.1,0.1,0,0.2-0.1,0.3s-0.1,0.2-0.1,0.3c0.1,0.1,0,0.2-0.1,0.2c-0.2,0-0.4,0-0.5-0.2
			c-0.1,0.1-0.2,0.2,0.1,0.2c0.1,0,0.2,0.1,0.1,0.2c-0.1,0.1-0.1,0.3,0,0.4c0.1,0,0.1,0,0.1-0.1c0-0.2,0.1-0.3,0.2-0.3
			s0.1,0.2,0.1,0.3s0,0.2,0.1,0.2c0.1,0,0.1,0,0.2,0s0.1,0,0.2,0c0,0,0,0,0.1,0c0.1,0,0.1-0.2,0.1-0.3s0.1-0.2,0.2-0.2
			c0.1,0,0.1,0.1,0.1,0.2c0,0.2,0,0.3,0.2,0.3h0.1c0.1,0,0.1,0,0.2,0c-0.1-0.2,0-0.3-0.1-0.5c0-0.1,0-0.2-0.1-0.3v-0.1
			c0.2-0.1,0.3-0.3,0.4-0.3s0.3-0.1,0.2-0.3c0-0.2,0.2-0.4,0.4-0.4h0.1c0.1,0,0.1-0.2,0.2-0.1c0.1,0.1,0.2,0.2,0.2,0.3
			c0.1,0.2-0.1,0.2-0.2,0.2c-0.2,0-0.1,0.1-0.1,0.2c0,0.2,0.2,0.4,0.4,0.5c0.1,0.1,0.1,0.1,0.2,0.2c0.2,0.2,0.2,0.2,0,0.3
			c-0.2,0.1-0.2,0.4-0.3,0.6c0,0,0-0.1-0.1-0.1V16l0.1,0.1c0,0.1,0,0.1,0,0.2v0.1l0,0l0,0c0.1,0.1,0,0.3-0.1,0.4
			c0,0.3,0.1,0.4,0.4,0.3c0.3,0,0.5-0.1,0.8,0c0.1,0.1,0.2,0.1,0.2,0.3c0,0.2,0,0.4-0.2,0.6c0.2-0.1,0.3,0,0.4,0.2
			c0.1,0.1,0.1,0.3,0,0.4c0,0.1-0.2,0-0.2,0.2c0,0-0.1,0-0.1-0.1v-0.1c0-0.1,0-0.1-0.1-0.1c-0.1,0-0.1,0.1-0.1,0.2s0.1,0.2,0.1,0.2
			c0,0.1,0.1,0.2,0.1,0.4c0,0.1-0.1,0.2,0,0.2c0.1,0,0.2,0,0.2-0.1c0,0,0-0.1,0.1-0.1c0.1,0.1,0.5,0.3,0.6,0.2c0.1,0,0.1,0,0.1-0.1
			s-0.1-0.2,0.1-0.2c0.1,0,0.1-0.1,0.2,0c0.2,0.2,0.4,0,0.5-0.1c0.1-0.1,0.2-0.2,0.3-0.2c0.1,0.1,0,0.1,0,0.2
			c-0.1,0.1-0.2,0.2-0.1,0.4c0,0,0,0,0,0.1c-0.2,0.2-0.4,0.3-0.2,0.6c0,0,0,0.1-0.1,0.1c0,0-0.1,0-0.1-0.1c0-0.2-0.1-0.2-0.2-0.2
			c0.1,0.1,0,0.3,0.1,0.4c0.1,0.2,0.2,0.3,0.4,0.4c0.1,0,0.1,0,0.1,0.1c-0.1,0.1-0.1,0.3,0,0.3c0.2,0,0.1,0.2,0.2,0.2h0.1
			c0.2,0,0.4-0.2,0.5-0.4c0.1-0.1,0.1-0.1,0.2-0.1s0.1,0.1,0.1,0.2s0,0.2,0,0.3c0,0.2,0,0.3,0.1,0.3c0.1,0.1,0.2,0,0.3-0.1
			c0.1,0,0.2-0.2,0.3-0.2c0.3,0.2,0.4-0.1,0.5-0.2c0.2-0.3,0.5-0.4,0.8-0.5c0.1,0,0.2-0.1,0.2-0.2c0-0.2,0.2-0.3,0.2-0.6
			c0,0,0-0.1,0.1-0.1c0.2,0,0.2-0.3,0.4-0.4c0.1-0.1,0.2-0.3,0.3-0.5c0.1,0,0.1,0.1,0.2,0.1c-0.1-0.1,0-0.2,0-0.2
			c0.1-0.1,0.1-0.3-0.1-0.2c-0.1,0-0.1,0-0.2-0.1c0-0.1,0.1-0.1,0.1-0.2s0.1-0.1,0.1-0.1c0.1,0.2,0.2,0,0.3,0.1
			c0.3,0.1,0.3-0.1,0.3-0.2s0.1-0.2,0-0.2s-0.1,0-0.1-0.1s0-0.1,0.1-0.1s0.1,0,0.1-0.1c0-0.2,0.1-0.3,0.1-0.5c0,0,0-0.1,0.1-0.1
			c0.2,0,0.2-0.2,0.4-0.3c0.1,0,0.3-0.1,0.1-0.3c0,0,0,0,0-0.1s0-0.2-0.1-0.2c-0.1-0.1-0.1-0.2,0-0.3s0.2-0.2,0.2-0.3
			s0.1-0.2,0.2-0.2s0.1,0,0.1-0.1v-0.1c-0.2-0.1-0.1-0.3-0.1-0.5c0-0.1,0-0.2,0.1-0.2s0.1,0.1,0.1,0.2c0,0.2,0.1,0.3,0.1,0.4
			l0.1,0.1c0.1,0,0.1-0.1,0.1-0.1c0-0.1,0-0.2,0.1-0.3c0.1,0,0.2,0.2,0.4,0.2c0-0.1,0.1-0.2,0.2-0.3C112.4,15,112.4,14.9,112.3,14.9
			z M95.2,16.8C95.3,16.7,95.3,16.7,95.2,16.8L95.2,16.8z M100.7,11.3c-0.1,0-0.1,0-0.1-0.1s0-0.1,0.1-0.1
			C100.7,11.1,100.7,11.2,100.7,11.3L100.7,11.3z M111.2,14.8c-0.1-0.1-0.2,0-0.3,0.1c0,0-0.1,0.1-0.1,0c0,0,0-0.1,0-0.2
			c0.1-0.1,0.4-0.2,0.5-0.1c0,0,0.1,0,0.1,0.1C111.3,14.8,111.2,14.8,111.2,14.8z"/>
	</g>
	<g style="opacity:0.6;clip-path:url(#SVGID_00000151523237781358161720000015936835743213841599_);">
		<path class="st0" d="M94.6,11.3L94.6,11.3C94.7,11.3,94.7,11.3,94.6,11.3C94.7,11.3,94.6,11.3,94.6,11.3L94.6,11.3z"/>
	</g>
	<g style="opacity:0.6;clip-path:url(#SVGID_00000151523237781358161720000015936835743213841599_);">
		<path class="st0" d="M95.5,14.6L95.5,14.6L95.5,14.6C95.5,14.6,95.5,14.7,95.5,14.6L95.5,14.6z"/>
	</g>
	<g style="opacity:0.6;clip-path:url(#SVGID_00000151523237781358161720000015936835743213841599_);">
		<path class="st0" d="M95.5,14.5L95.5,14.5L95.5,14.5L95.5,14.5L95.5,14.5z"/>
	</g>
	<g style="opacity:0.6;clip-path:url(#SVGID_00000151523237781358161720000015936835743213841599_);">
		<path class="st0" d="M103.5,25.2c-0.1-0.1,0-0.2,0-0.2h0.1C103.6,25.1,103.5,25.1,103.5,25.2z"/>
	</g>
	<g style="opacity:0.6;clip-path:url(#SVGID_00000151523237781358161720000015936835743213841599_);">
		<path class="st0" d="M94.6,12.1C94.6,12.2,94.6,12.2,94.6,12.1C94.5,12.2,94.5,12.2,94.6,12.1C94.5,12.2,94.5,12.1,94.6,12.1
			L94.6,12.1z"/>
	</g>
	<g style="opacity:0.6;clip-path:url(#SVGID_00000151523237781358161720000015936835743213841599_);">
		<path class="st0" d="M94.4,13.4L94.4,13.4C94.4,13.4,94.5,13.4,94.4,13.4C94.5,13.4,94.5,13.5,94.4,13.4
			C94.4,13.5,94.4,13.5,94.4,13.4z"/>
	</g>
	<g style="opacity:0.6;clip-path:url(#SVGID_00000151523237781358161720000015936835743213841599_);">
		<path class="st0" d="M95.2,18.8L95.2,18.8L95.2,18.8L95.2,18.8L95.2,18.8z"/>
	</g>
	<g style="opacity:0.6;clip-path:url(#SVGID_00000151523237781358161720000015936835743213841599_);">
		<path class="st0" d="M96.5,18L96.5,18L96.5,18L96.5,18C96.5,17.9,96.5,17.9,96.5,18z"/>
	</g>
	<path style="opacity:0.6;clip-path:url(#SVGID_00000151523237781358161720000015936835743213841599_);fill:#FFFFFF;" d="M95.1,19.5
		"/>
	<polyline style="opacity:0.6;clip-path:url(#SVGID_00000151523237781358161720000015936835743213841599_);fill:#FFFFFF;" points="
		95.1,19.5 95.1,19.5 95.1,19.5 	"/>
	<g style="opacity:0.6;clip-path:url(#SVGID_00000151523237781358161720000015936835743213841599_);">
		<polygon class="st0" points="94.9,20 94.9,20 94.9,20 		"/>
	</g>
	<g style="opacity:0.6;clip-path:url(#SVGID_00000151523237781358161720000015936835743213841599_);">
		<path class="st0" d="M94.8,19.1L94.8,19.1L94.8,19.1z"/>
	</g>
	<path style="opacity:0.6;clip-path:url(#SVGID_00000151523237781358161720000015936835743213841599_);fill:#FFFFFF;" d="M109,23.5
		c0.1-0.2,0.1-0.6,0.3-0.7v-0.1c0-0.1,0.1-0.3,0-0.4l-0.1-0.1l0,0c-0.1,0-0.2,0.1-0.2,0.2h-0.1h-0.1l-0.1,0.1c0,0-0.1,0.1-0.2,0.1
		c-0.2,0-0.1-0.3-0.3-0.3c-0.1,0-0.1,0-0.1-0.1v-0.1H108c-0.1,0-0.1,0-0.2,0s-0.1,0-0.2,0h-0.1c-0.1,0.1-0.1,0.2-0.2,0.2l-0.1,0.1
		c0,0.2-0.2,0.3-0.1,0.4c0,0.1-0.1,0.1-0.2,0.1c-0.3,0.1-0.5,0.2-0.7,0.4c-0.1,0.1-0.2,0.3-0.5,0.2c-0.1,0-0.1,0.1-0.2,0.1
		c-0.1,0-0.1,0.1-0.2,0s-0.1-0.2-0.1-0.2c0-0.1,0-0.2,0-0.2c0-0.1,0-0.1-0.1-0.1c-0.1,0-0.1,0-0.2,0.1s-0.2,0.2-0.5,0.3h-0.1
		c-0.1-0.1,0-0.2-0.2-0.2c-0.1,0-0.1-0.2,0-0.2s0-0.1-0.1-0.1c-0.2,0-0.3-0.2-0.4-0.3c0-0.1,0-0.2,0-0.3c0.1,0,0.2,0,0.2,0.2
		c0,0,0,0,0.1,0s0.1,0,0.1-0.1c-0.1-0.2,0.1-0.3,0.2-0.5l0,0c-0.1-0.1,0.1-0.2,0.1-0.3c0,0,0.1-0.1,0-0.1s-0.2,0.1-0.2,0.2
		c-0.1,0.1-0.3,0.2-0.5,0c-0.1-0.1-0.1,0-0.2,0s-0.1,0-0.1,0.1c0,0,0,0.1-0.1,0.1c-0.1,0-0.5,0-0.6-0.2c-0.1,0,0,0-0.1,0.1
		c0,0.1-0.1,0.1-0.2,0.1c-0.1,0,0-0.1,0-0.1c0.1-0.1,0-0.2-0.1-0.3c0,0-0.1-0.1-0.1-0.2c0,0,0-0.1,0.1-0.1s0.1,0,0.1,0.1v0.1h0.1
		c0-0.1,0.1-0.1,0.2-0.1c0.1-0.1,0.1-0.2,0-0.3c-0.1-0.1-0.2-0.2-0.4-0.1c0.1-0.1,0.1-0.3,0.1-0.4s0-0.1-0.2-0.2
		c-0.2-0.1-0.5,0-0.7,0c-0.3,0-0.4,0-0.4-0.3c0-0.2,0-0.2-0.1-0.2c0-0.1,0.1-0.1,0.1-0.2s-0.1-0.1-0.1-0.2c0-0.2,0.2-0.3,0.1-0.5
		l0,0c0-0.1,0-0.2-0.1-0.2c0.2-0.1,0.2-0.1,0-0.3c-0.1,0-0.1-0.1-0.2-0.2c-0.2-0.1-0.3-0.2-0.3-0.4c0-0.1,0-0.1,0.1-0.1
		s0.2,0,0.2-0.2c0-0.1-0.1-0.2-0.2-0.2s-0.1,0-0.2,0.1h-0.1c-0.2,0-0.4,0.1-0.4,0.3c0,0.2-0.1,0.2-0.2,0.2c-0.2,0-0.2,0.2-0.4,0.2
		c0,0,0,0,0,0.1c0.1,0.1,0,0.2,0.1,0.2c0,0.1,0,0.1,0,0.2c-0.1,0-0.1,0.1-0.1,0.1c0,0.1,0,0.2-0.1,0.2s-0.2,0-0.4,0
		c-0.1,0-0.1-0.1-0.1-0.2s0.1-0.2-0.1-0.2c-0.1,0-0.2,0.1-0.2,0.2c0,0,0,0-0.1,0c0-0.1-0.1-0.2,0-0.3c0.1-0.1,0-0.2-0.1-0.2
		c-0.2,0-0.1-0.1-0.1-0.2c0.1,0.1,0.3,0.2,0.5,0.2c0.1,0,0.2,0,0.1-0.1c-0.1-0.1-0.1-0.2,0-0.2c0.1,0,0.1-0.1,0.1-0.2
		s-0.1-0.2-0.2-0.1c-0.1,0.1-0.2,0-0.4-0.2c-0.1,0,0,0.1,0,0.1c0,0.1,0,0.2-0.1,0.1c-0.1,0-0.1,0-0.2,0c0,0,0,0.1-0.1,0.1
		c-0.1,0,0-0.1,0-0.1v-0.1c-0.1,0-0.1,0-0.2,0h-0.1c-0.1-0.2-0.2-0.1-0.4-0.2c-0.1,0-0.3,0-0.3,0.2c0,0,0.1,0.1-0.1,0.1
		c-0.1,0-0.2,0-0.2-0.1v-0.1c-0.1,0.1-0.1,0.2,0.1,0.3c0.2,0,0.1,0.2,0.1,0.2c-0.1,0-0.2,0.1-0.3,0s-0.1,0-0.2,0
		c-0.1,0.1-0.1,0-0.2-0.1s-0.1-0.2,0-0.2s0.1,0.1,0.1,0.1l0,0c0.1,0,0.2,0,0.1-0.1c-0.1-0.1-0.1-0.2-0.2-0.2s-0.2,0-0.4,0
		c0.3,0.2,0.3,0.4,0.3,0.5s0,0.3-0.2,0.3c-0.1,0-0.1,0.1,0,0.2c0.1,0,0.1,0.1,0.2,0.1c0.2,0,0.3,0,0.4,0.1h-0.1
		c-0.1,0-0.2,0-0.2,0.1h-0.1h-0.1l0,0c0,0,0,0.1-0.1,0.1s-0.1,0-0.2,0c0,0,0-0.1-0.1-0.1l0,0l0,0h-0.1c-0.1,0-0.1,0-0.2,0h-0.1l0,0
		l0,0l0,0v0.1L94.8,19l0,0l0,0h-0.1h-0.1l-0.1-0.1c-0.1,0-0.1,0-0.2,0s-0.2,0-0.2,0c-0.1,0-0.1,0.1-0.2,0.2c-0.1,0-0.1,0-0.2,0h-0.1
		c0,0,0,0-0.1,0l0,0l0,0l0,0c0,0,0,0.1,0,0.2v0.1l0,0l0,0l0,0l0.1,0.1l0,0h0.1c0.1,0,0.1,0,0.2,0h-0.1h-0.1c-0.1,0-0.1,0-0.2,0
		s-0.1,0.1-0.1,0.1l-0.1,0.1c-0.1,0-0.1,0-0.1,0h-0.1H93h0.1l0,0l0.1,0.1c0.1,0,0.1,0.1,0.1,0.1h-0.1c0-0.1-0.1-0.1-0.1-0.1L93,19.7
		h-0.1c0,0.1,0.1,0.2,0.2,0.3c0.2,0.1,0.4,0.1,0.6,0h0.1c0.1,0,0.1,0,0.1-0.1c0.1,0,0.1,0,0.1,0h0.1c0,0,0.1,0,0.1,0.1
		c0.2,0,0.4,0,0.6,0c-0.3,0.1-0.5,0.1-0.8,0c-0.1,0-0.1-0.1-0.2,0c-0.1,0.1-0.2,0.1-0.3,0.1s-0.2,0-0.2,0.1s0,0.1,0.1,0.1
		s0,0.1,0,0.2s-0.1,0-0.1,0c-0.1,0-0.2,0-0.4,0c-0.2,0-0.2,0.1-0.2,0.2s0,0.1-0.1,0.2c-0.2,0.1-0.1,0.1,0,0.2
		c0.2,0.1,0.2,0.1,0.1,0.3c-0.1,0.1-0.1,0.2,0,0.3l0.1,0.1c-0.2,0.1,0,0.3-0.2,0.5c-0.1,0,0,0.1,0.1,0.1c0.1,0,0.2,0,0.3,0.1
		s0.1,0.1,0.2,0c0.1,0,0.2,0,0.2,0.1s0,0.2,0.2,0.2c0.1,0,0.1,0,0.1,0.1s0,0.1,0,0.2c0.1,0,0.1,0,0.1,0s0,0,0.1,0c0,0,0.1,0,0.1,0.1
		c-0.1,0.1,0,0.2,0.1,0.2c0.2,0.1,0.3,0.2,0.5,0.3c0.1,0.1,0.2,0.2,0.2,0.3c0,0.1,0,0.2,0,0.4c0,0.2,0,0.3,0.2,0.4
		c0.1,0.1,0.1,0.2,0.2,0.3c0.1,0.1,0.2,0.2,0.3,0.3c0.1,0.1,0,0.1,0,0.2c-0.1,0.1-0.1,0-0.1,0s0-0.1-0.1-0.1c-0.2,0-0.3-0.2-0.5-0.2
		l-0.1-0.1c-0.1-0.1-0.1-0.1-0.2-0.1c0.2,0.2,0.5,0.4,0.7,0.6c0.1,0.1,0.1,0.2,0.3,0.1h0.1c0.2,0.2,0.6,0.2,0.8,0.4
		c0.4,0.2,0.8,0.3,1.3,0.4c0.1,0,0.3,0,0.4,0.1c0.1,0,0.2-0.1,0.2,0.1c0.3,0.1,0.6,0.1,0.8,0c0.1,0,0.2,0,0.4,0
		c0.5,0.1,1.1,0.1,1.6,0c0.3,0,0.7-0.1,1-0.1c0.6,0,1.3-0.2,1.9-0.3c0.2,0,0.4-0.1,0.5-0.3c0,0,0.1,0,0.1-0.1
		c0.3-0.1,0.6-0.2,0.9-0.3c0.2-0.1,0.4-0.2,0.4-0.3c0-0.1,0.2-0.2,0.3-0.3c0.3-0.2,0.7-0.2,0.9-0.5c0.1-0.1,0.1-0.1,0.2-0.2
		c0.2-0.2,0.4-0.3,0.6-0.5C108.8,23.8,108.9,23.6,109,23.5L109,23.5z M95.8,21.4c-0.1,0-0.1,0.1-0.1,0.1c-0.1,0.2-0.3,0.2-0.5,0.1
		c0,0-0.1-0.1-0.1,0c0,0,0,0.1,0.1,0.1c0.1,0,0.2,0.1,0.2,0.2s0,0.1-0.1,0.1s-0.1,0-0.1-0.1v-0.1c0-0.1-0.1-0.1-0.2,0
		c0,0-0.1,0.1-0.1,0c-0.1,0,0-0.1,0-0.1c0-0.2-0.1-0.3-0.3-0.3c-0.1,0-0.1,0-0.1-0.1c-0.1-0.1,0.1-0.5,0.3-0.5
		c-0.1,0-0.2-0.1-0.1-0.2c0.1,0,0-0.2,0-0.2c0-0.1,0-0.1,0.1-0.1c0.1,0,0.1,0,0.1,0.1c0.1,0.1,0.1,0.2,0.2,0.2c0,0.1,0.1,0,0.1,0
		c0.1,0,0.1,0,0.1,0c0.1,0,0.1,0,0.1-0.1s0-0.1,0.1-0.1c0.1,0,0.1,0.1,0.1,0.1c0.1,0.1-0.1,0.2-0.1,0.3c0,0.1-0.1,0.2,0.1,0.2
		c0.1,0,0.1-0.1,0.1-0.2C96,21.1,96,21.2,95.8,21.4 M96.1,20.2c-0.2,0-0.3,0-0.4-0.1c-0.1,0-0.1,0.1-0.2,0l0,0c0.1,0,0.1,0,0.2-0.1
		c0.2,0.1,0.3,0,0.5-0.1l0,0h0.1V20C96.2,20.2,96.1,20.2,96.1,20.2 M94.8,19.8c-0.1,0.1-0.2,0.1-0.3,0.1c-0.1,0,0.2-0.1,0.3-0.3l0,0
		l0.1,0l0,0.1C94.9,19.7,94.8,19.8,94.8,19.8 M96.4,25.9c-0.1,0-0.1-0.1-0.1-0.2c0,0,0-0.1,0.1-0.1s0.2,0,0.2,0.1
		C96.6,25.9,96.5,25.9,96.4,25.9 M97,20.1c-0.1,0.1-0.2,0.1-0.4,0.1c-0.1,0-0.1-0.1-0.1-0.2v-0.1l0,0c0.1,0,0.2-0.1,0.3-0.1
		s0.2,0.1,0.3,0.1c0,0.1,0.1,0.1,0.1,0.2C97.1,20,97,20,97,20.1 M103.6,22.2c0-0.1,0-0.1,0-0.1c0-0.1,0.1-0.1,0-0.2
		c0,0-0.1,0-0.1-0.1h0.1c0.1,0,0.1,0,0.1,0.1s0,0.2,0,0.2S103.7,22.2,103.6,22.2 M104.2,25.4c-0.1-0.1,0-0.1,0-0.2h0.1
		C104.4,25.3,104.3,25.3,104.2,25.4"/>
	<path style="opacity:0.6;clip-path:url(#SVGID_00000151523237781358161720000015936835743213841599_);fill:#FFFFFF;" d="M108.3,9.2
		L108.3,9.2c-0.2,0-0.3,0-0.4,0s-0.1,0-0.1,0c-0.1,0-0.1,0-0.2,0c-0.1,0.1,0,0.1,0.1,0.2l0,0c0,0.1,0,0.1,0.1,0.1s0.1,0,0.1,0
		c0,0.1,0,0.1-0.1,0.1c-0.2-0.1-0.4,0-0.3,0.3c0.1,0.2,0.1,0.4-0.1,0.6c-0.1,0-0.2,0.1-0.4,0.1c-0.1,0-0.1,0,0,0.1
		c0,0.1,0.1,0.1,0.2,0.1s0.2,0,0.3,0c-0.1,0.1,0,0.2,0.1,0.3c0,0,0,0,0,0.1c-0.1,0.1-0.1,0.1,0.1,0.1c0.1,0,0.1,0,0.1,0
		c-0.1,0.1-0.2,0-0.3,0c-0.2,0-0.3,0.1-0.4,0.3c0,0.1-0.1,0.2-0.2,0.2s-0.2-0.1-0.2-0.3s0-0.4-0.1-0.5s-0.1-0.1-0.2-0.1
		c-0.1,0.1-0.1,0.1,0,0.2l0.1,0.1c-0.2,0.1-0.4,0.1-0.3,0.3c0,0.1-0.1,0.1-0.1,0.1c-0.1,0-0.1-0.1-0.2-0.2c-0.1,0.2-0.2,0.3-0.4,0.2
		h-0.1c-0.2,0-0.1-0.1-0.1-0.2c0.1-0.1,0.1-0.2-0.1-0.2c-0.1,0-0.1,0-0.2,0c-0.1,0-0.1,0-0.1,0.1s-0.1,0.1-0.2,0.1h-0.1
		c-0.1,0.2-0.3,0.1-0.6,0.2c-0.3,0-0.5,0.1-0.8,0.2c0.2,0.1,0.5,0.1,0.7,0.2c0.1,0,0.1,0,0.1,0c-0.1,0.1,0.4,0.1,0,0.2
		c-0.1,0-0.1,0.1-0.1,0.2c0,0.1,0.1,0.1,0.2,0.1s0.2,0,0.2,0c0,0.1,0,0.1-0.1,0.2c-0.1,0.1-0.1,0-0.1,0l0,0c-0.2,0-0.4-0.1-0.6-0.2
		c-0.1,0-0.2,0-0.3-0.1s-0.2,0-0.2,0.1c0,0,0,0.1-0.1,0.1c-0.1,0-0.1-0.1-0.1-0.1l0,0c-0.1-0.1-0.1-0.2-0.2-0.2
		c-0.1,0-0.1,0.2-0.1,0.2c-0.1,0.1-0.1,0.2-0.2,0.1c0,0,0,0,0,0.1s0.2,0.1,0.1,0.2c-0.1,0.1-0.2-0.1-0.2-0.1
		c-0.1-0.1-0.1-0.2-0.1-0.3c-0.1-0.1-0.3-0.1-0.4-0.1c-0.2-0.1-0.4-0.2-0.5-0.3c-0.1-0.1-0.2-0.2-0.1-0.4c0-0.1,0-0.2-0.2-0.2
		c-0.1,0-0.2-0.1-0.3-0.1h-0.1v-0.1c0,0,0.1,0,0.1-0.1h-0.1c-0.1,0-0.1,0-0.1-0.1s0.1,0,0.1,0c0.1,0,0.1,0,0.1-0.1
		c0.1-0.1,0.2-0.3,0.4-0.3c0.2-0.1,0.2-0.5,0.2-0.7l-0.1-0.1c0-0.2,0-0.4-0.2-0.1h-0.1c0-0.1-0.1-0.1-0.1-0.2s0.1-0.1,0-0.2
		c-0.1,0-0.2-0.2-0.3-0.1c-0.3-0.3-0.6-0.3-0.4,0l0,0c-0.3,0-0.4,0.4-0.7,0.4c-0.1,0-0.1,0.1-0.1,0.2c0,0,0.1,0.1,0,0.1
		c-0.1,0-0.1,0-0.2,0l-0.1-0.1c0.1-0.2,0-0.4,0.2-0.5c0.1,0,0-0.1,0-0.1C99,9.2,99,9.2,98.9,9.1c-0.1-0.1,0-0.1,0-0.2
		c0.1,0,0.3-0.2,0.4,0h0.1c0,0,0.1-0.1,0.1-0.2c0-0.1-0.1,0-0.1,0c-0.2,0-0.2-0.2-0.4-0.2c-0.1-0.1-0.1,0-0.1,0l-0.1,0.1h-0.1V8.5
		c0.2-0.1,0.3-0.2,0-0.4c-0.1,0-0.1-0.2,0-0.2c0.1-0.2,0-0.1-0.1-0.2C98.9,7.6,99,7.3,99.2,7c0.2-0.3,0.6-0.5,0.9-0.7
		c0.1,0.1,0.3,0,0.3-0.1c0.1-0.1,0.1-0.1,0.2-0.1l0,0l0,0l0,0c0.1,0,0.1,0,0.2,0c0-0.1,0.1-0.1,0.1,0c0.1,0,0.1,0.1,0.1,0.1
		c0.1-0.1,0.1-0.2,0.1-0.3c0.1,0,0.1,0,0.2-0.1s0.3-0.1,0.2,0.1c0,0.1,0.1,0.2,0.2,0.2s0.4-0.1,0.5-0.2c0.1,0,0.3-0.3,0.3,0.1
		c0.3,0,0.3,0,0.3,0c0.2-0.1,0.3,0.1,0.4,0.2c0.1,0,0.1,0.1,0,0.1c0,0,0,0.1-0.1,0.1c-0.1,0-0.1,0-0.1,0c0,0.1-0.1,0.2,0.1,0.2
		c0.1,0,0.1,0.1,0.1,0.1s0.1,0.1,0.1,0c0.1-0.1,0.3,0,0.5-0.1c0.1,0,0.1-0.1,0.2,0c0.2,0.2,0.5,0.2,0.8,0.3c0.1,0.1,0.2,0.1,0.4,0
		h0.1c0.3,0.2,0.7,0.3,1,0.5l0.1,0.1c-0.1,0.2,0,0.2,0.1,0.3c0.1,0,0.1,0.2,0,0.2c-0.1,0.2,0,0.2,0.1,0.3c0,0,0,0,0.1,0.1
		s0,0.3,0.1,0.2s0.3-0.2,0.3-0.4s0-0.3,0.2-0.1c0.1,0.1,0.3,0.1,0.4,0.2c0,0,0.1,0,0.1-0.1c0,0.3,0,0.2,0.1,0.2
		c0,0.2,0.2,0.3,0.1,0.5l0,0h0.1c0-0.1,0.1-0.1,0.1-0.1l0,0v0.1C108,9,108.3,9.1,108.3,9.2z M106,9.8c0,0.1,0,0.2,0.1,0.3
		c0.1,0.1,0.2,0,0.4,0c0-0.1,0.1-0.2,0-0.3C106.3,9.6,106.2,9.8,106,9.8z M103.4,7.6c-0.1-0.1-0.1-0.1-0.2,0c-0.1,0.1,0,0.1,0.1,0.2
		l0.1,0.1c0,0.1,0,0.1,0.1,0.1c0.1,0,0.1,0,0.2-0.1C103.6,7.6,103.5,7.7,103.4,7.6z M106.5,10.4v0.1c0,0,0.1,0.1,0.1,0
		c0.1,0,0-0.1,0-0.1C106.6,10.4,106.6,10.4,106.5,10.4z M105.6,11.6L105.6,11.6L105.6,11.6L105.6,11.6L105.6,11.6z"/>
</g>
</svg>
