<?xml version="1.0" encoding="utf-8"?>
<!-- Generator: Adobe Illustrator 25.4.1, SVG Export Plug-In . SVG Version: 6.00 Build 0)  -->
<svg version="1.1" id="Layer_1" xmlns="http://www.w3.org/2000/svg" xmlns:xlink="http://www.w3.org/1999/xlink" x="0px" y="0px"
	 viewBox="0 0 183.6 43.9" style="enable-background:new 0 0 183.6 43.9;" xml:space="preserve">
<style type="text/css">
	.st0{fill:#FFFFFF;}
	.st1{clip-path:url(#SVGID_00000147218394165835980550000002120341658632548523_);}
	.st2{opacity:0.4;}
	.st3{opacity:0.6;clip-path:url(#SVGID_00000147218394165835980550000002120341658632548523_);}
	.st4{opacity:0.5;fill:#FFFFFF;}
	.st5{opacity:0.6;clip-path:url(#SVGID_00000147218394165835980550000002120341658632548523_);fill:#FFFFFF;}
</style>
<g>
	<g>
		<g>
			<g>
				<g>
					<g>
						<g>
							<g>
								<path class="st0" d="M112.5,32.3c-4.3-1.3-7.4-5.2-7.4-9.9c0-0.8,0.1-1.7,0.3-2.5l6.7,0.9c0,0,2.6,0.1,2.5,4.7
									C114.6,29.9,112.5,32.3,112.5,32.3z"/>
								<path class="st0" d="M118.6,32.3c4.3-1.3,7.4-5.2,7.4-9.9c0-0.8-0.1-1.7-0.3-2.5l-6.7,0.9c0,0-2.6,0.1-2.5,4.7
									C116.5,29.9,118.6,32.3,118.6,32.3z"/>
								<path class="st0" d="M115.6,14.9c0.9,0,1.6,0.7,1.6,1.6c0,0.7-0.5,1.2-1,1.5c-0.1,0-0.1,0.1-0.1,0.2s0.3,0.2,0.5,0.2l9.1,1
									c-1.3-4.3-5.2-7.4-10-7.4l0,0c-4.7,0-8.7,3.1-10,7.4l9.1-1c0.1,0,0.5-0.1,0.5-0.2s0-0.1-0.1-0.2c-0.6-0.3-1-0.8-1-1.5
									C114,15.6,114.7,14.9,115.6,14.9L115.6,14.9z"/>
							</g>
							<g>
								<path class="st0" d="M119.7,39.6l0.6-0.4c0,0-2.9-4-9.4-4c-3.3,0-5.1,1.3-7.4,1.3c0,0-1,0.1-1.9-0.5c0,0,1.1,1.6,5.1,1.6
									c3,0,5.1-1.7,7.1-1.7C116.7,36,118.8,38.6,119.7,39.6z"/>
							</g>
							<g>
								<path class="st0" d="M110.7,39.6l-0.6-0.4c0,0,2.9-4,9.4-4c3.3,0,5.1,1.3,7.4,1.3c0,0,1,0.1,1.9-0.5c0,0-1.1,1.6-5.1,1.6
									c-3,0-5.1-1.7-7.1-1.7C113.6,36,111.5,38.6,110.7,39.6z"/>
							</g>
							<path class="st0" d="M107.5,34.9c-0.1,0.3-1.4-0.1-2.2,0.2c-0.9,0.3-5.9,0.9-8.1-4.3c0,0,2.1,2.2,3.7,2.4s3.4,0.5,4.9,1.4
								l0.3,0.1c0,0,0-0.2-0.2-0.2c-0.2-0.1-1.8-0.6-2.5-3.1c-0.4-1.3-0.3-2.2-0.5-2.8c0,0,1.7,1.9,2.4,3.1
								C106.1,32.8,106.1,34.1,107.5,34.9z"/>
							<path class="st0" d="M102.5,32.3c-0.1,0.1-0.4-0.1-0.6-0.1c-0.1-0.1-0.9-0.4-2.4-0.9c-1.4-0.5-4-2.7-3.8-6.5
								c0,0,0.4,1.4,1.4,2.4c1.1,0.9,1.5,1,2.1,1.8s2.1,2.5,2.2,2.5s0.1-0.1,0-0.2s-0.5-1-0.8-1.4s-1-2.6,0.1-5.3c0,0,1.2,2,1.1,4
								s-0.2,1.5,0.3,3.2C102.3,31.8,102.5,32.3,102.5,32.3z"/>
							<path class="st0" d="M99.2,27.4c-0.1,0.1-0.4-0.4-0.6-0.8s-1.8-2.1-2-2.5s-2-2.5-0.6-5.8c0,0,0.1,0,0.1,0.7s0.7,2.5,1.3,3.2
								s1.1,1.9,1.2,3.1c0,0,0.1,0.2,0.2,0.2s0.1-0.2,0.1-0.2s-0.1-1.2-0.1-1.9c0-0.8,0.3-2.1,1.1-2.9c0,0,0.3-0.4,0.6-0.8
								c0,0,0.1-0.3,0.3-0.5c0,0,0.1,2.2-0.6,4.2c-0.8,2-1,2.4-0.9,3.5C99.2,27.1,99.3,27.4,99.2,27.4z"/>
							<path class="st0" d="M97.9,21.4c-0.1,0-0.1-0.3-0.2-0.5s-0.3-1.4-0.4-1.7c-0.1-0.3-0.7-1.5-0.8-2.9s0.6-3.4,2.1-4.9
								c0,0-0.1,0.5-0.4,1.5c-0.4,1-0.1,2-0.1,2.1c0,0.2,0.2,1.4,0.2,1.9c0,0.4-0.1,2-0.2,2.3v0.2l0.1-0.2c0,0,0.1-1.2,1-2.3
								s2.5-1.7,2.7-2.2c0,0-0.1,1.7-2,3.7c-1.7,1.8-1.2,0.9-1.7,2.3C98.2,20.7,98,21.2,97.9,21.4C98.1,21.4,97.9,21.4,97.9,21.4z"
								/>
							<path class="st0" d="M99,15.7c0,0,0-0.2,0.2-0.8s0-1.4,0.4-2.8c0.4-1.3,1.1-3.6,3.8-5c0,0-0.3,0.2-0.4,0.4s-0.9,1.6-1.1,2.5
								c-0.2,1-1.1,2.6-1.5,2.9c-0.3,0.4-0.2,0.4-0.2,0.4s0.2,0,0.3-0.3c0.2-0.3,1-1.3,2-1.5s2.5-0.7,2.6-0.8c0,0-1.7,1.7-3.2,2.6
								c-1.5,0.9-1.7,0.6-2.6,1.8C99.3,15.3,99,15.7,99,15.7z"/>
							<path class="st0" d="M102.7,10.6c0,0,0-0.1,0.3-0.4s0.6-1.1,1.1-1.8s1.6-2.7,4.6-3.2c0,0-0.9,0.6-1,0.9
								c-0.1,0.2-1,1.3-1.4,1.7s-1.5,1.2-1.8,1.4c0,0-0.2,0.1-0.1,0.2s0.2-0.1,0.2-0.1s1-0.8,2.2-0.8s2.5,0,2.7,0
								c0,0-1.1,0.8-3.9,1.3c-2.7,0.5-2.2,0.5-2.6,0.8C102.9,10.5,102.8,10.6,102.7,10.6z"/>
							<path class="st0" d="M107.6,7.4c0,0,0.1-0.1,0.5-0.3c0.4-0.1,0.4-0.6,1.7-1.3c1.3-0.7,2.7-1,4.2-0.4c0,0-0.6,0.1-0.7,0.1
								s-1.1,0.3-1.4,0.5s-1.8,0.8-2.4,0.9C108.9,7,109.2,7,109.2,7s0.1,0.1,0.2,0.1s1.4-0.1,2.3,0.2c0.9,0.3,0.8,0.4,1.2,0.5
								c0.3,0.1,0.8,0.2,0.8,0.3c0,0-0.9,0.1-1.4,0.1s-1.9-0.1-2.5-0.4c-0.6-0.3-1.4-0.4-1.6-0.4C108,7.4,107.6,7.4,107.6,7.4z"/>
							<path class="st0" d="M113,6.7c0,0,0.1-0.1,0.4-0.1c0.4-0.1,0.5-0.3,1.4-0.5s2.3-0.4,3.6,0.5c0,0-0.8,0-1,0s-1.7,0.3-2,0.3
								s-1-0.1-1.1,0s0.6,0.3,0.8,0.3c0.1,0,0.6,0.1,1.3,0.7s1.1,1,1.2,1c0,0-1.9-0.4-2.4-0.7s-1.3-1.1-1.4-1.1
								C113.6,6.9,113,6.7,113,6.7z"/>
							<path class="st0" d="M117.4,7.5c0,0,1.2,0,2.1,0.5c0.9,0.6,1.6,1.3,1.7,1.7c0,0-0.5-0.4-0.8-0.5s-1.2-0.6-1.4-0.7
								C118.7,8.4,117.6,7.7,117.4,7.5z"/>
							<path class="st0" d="M123.1,35.1c0,0,0.2-0.2,0.8-0.7c0.6-0.5,0.7-1.2,1.4-2.4c0.6-1.1,1.2-1.9,2.5-3.1c0,0-0.2,0.9-0.2,1.1
								s-0.2,1.8-1,2.6c-0.7,0.9-0.8,1-1.6,1.6c0,0-0.3,0.2-0.3,0.3s0.6,0,0.6,0s0.6-0.2,0.8-0.3s1-0.6,1.4-0.7
								c0.3-0.1,0.6-0.3,1.4-0.5s3.5-0.9,4.6-2.7c0,0-0.3,1-0.7,1.5s-2.7,3.5-5.8,3.4c0,0-1.2-0.1-1.9-0.2c-0.6-0.1-0.9-0.1-1-0.1
								C123.8,35.1,123.2,35.2,123.1,35.1z"/>
							<path class="st0" d="M130.2,24.4c0,0-1.2,1.9-1.5,4.5s0.2,1.9-0.2,3.1l-0.1,0.3c0.1,0,0.3-0.1,1.1-0.6
								c0.8-0.5,1.7-0.4,3.5-2.1s2.2-5.2,2.2-5.4c0,0-0.3,0.3-0.4,0.7s-0.4,0.8-0.5,0.9s-2,2.2-2.2,2.4c-0.2,0.2-1.4,1.6-1.6,2
								s-1,1.1-1.1,1.1c0,0,0-0.2,0.1-0.3c0.1-0.1,0.6-0.9,0.8-1.7c0.2-0.8,0.3-1.4,0.3-1.9C130.5,26.8,130.2,24.8,130.2,24.4z"/>
							<path class="st0" d="M131.8,27c0,0-0.1-0.3,0-0.5c0.1-0.1,0.1-1-0.2-1.8s-1.1-2.8-1-4.2s0.2-1.6,0.2-1.6s0.4,1.1,0.5,1.3
								c0.1,0.2,1.3,2.2,1.2,3.3s-0.1,1.5-0.1,1.5c0.1,0,0.2-0.1,0.2-0.3c0-0.1,0.2-0.9,0.6-1.8c0.4-0.9,1.8-2.9,2.2-4.2
								c0,0,0.5,2.3-0.8,4.5s-1.4,1.7-2,2.6C131.9,26.9,131.9,27,131.8,27z"/>
							<path class="st0" d="M133,20.9c-0.1,0,0-0.9-0.3-1.2c-0.2-0.3-2.2-2.6-2.6-5c0,0,1.2,1.3,1.5,1.4c0.2,0.1,1,1,1.3,1.7
								s0.2,1.3,0.3,1.4s0.1-0.8,0.1-0.8s0-1.6,0.1-2.4s0.5-2,0.3-2.7c0,0,0.8,1.2,0.7,2.9c0,1.7-0.8,3-0.8,3.2
								c-0.1,0.2-0.4,1-0.4,1.2C133.2,20.8,133,20.9,133,20.9z"/>
							<path class="st0" d="M130.6,8.9c0,0,2.6,1.5,2.2,6.7c0,0,0,0.2-0.1,0s-0.7-1-1-1.1s-2.5-1.5-3.5-3.7c0,0,0.1,0,0.4,0.2
								c0.2,0.2,0.9,0.6,1,0.6c0.1,0.1,0.9,0.3,1.5,0.9s0.8,1.1,1,1.5c0,0,0.2,0.1,0.1-0.2c-0.1-0.4-0.1-0.6-0.4-1.1
								c-0.3-0.5-0.6-1.3-0.6-1.9C131.1,10.1,130.9,9.2,130.6,8.9z"/>
							<path class="st0" d="M130.2,10.7c0,0,0.1-0.3-0.2-0.8s0-1-0.8-2.3c-0.4-0.7-2-1.3-2-1.3s0.4,0.6,0.7,1
								c0.3,0.3,0.4,0.6,0.5,0.8c0.1,0.2,0.6,0.7,0.8,1c0,0.1,0.1,0.2,0.1,0.3s-0.2-0.1-0.3-0.1c-0.1-0.1-1-0.8-1.6-0.9
								c-0.6-0.1-1.7-0.2-2-0.4c0,0,1.3,1.2,2.8,1.6C129.7,9.9,130.2,10.7,130.2,10.7z"/>
							<path class="st0" d="M127.2,7.5c0,0-1.3-1.8-3.7-1.8c0,0,0.1,0.1,0.4,0.2s0.8,0.5,1,0.7S125.6,7.2,127.2,7.5z"/>
						</g>
					</g>
				</g>
			</g>
		</g>
		<g>
			<g>
				<g>
					<path class="st0" d="M47.5,14.2c0.7,2.2,2.1,4,4.2,4.8c-0.5,0.4-1.1,1.2-1.4,1.7c-1.6-0.8-2.8-2.1-3.7-3.8
						c-0.6,1.4-1.8,2.8-3.6,4c-0.3-0.5-1-1.1-1.5-1.5v1.3h-1.8v-3c-1.5,0.3-3,0.5-4.2,0.8l-0.4-2l1-0.1V6.9h-0.8V5h6.8v1.9h-0.6v8.7
						l1.2-0.2l0.1,1.8l-1.4,0.2v2c2.6-1.5,3.5-3.5,3.9-5.3h-3.1v-1.9h3.2V12V9.8h-2.9V7.9h1.9c-0.3-0.8-1-1.8-1.6-2.5l1.7-0.8
						c0.7,0.8,1.4,1.8,1.8,2.6L44.8,8h2c0.5-1,1.2-2.4,1.5-3.4l2.1,0.5c-0.5,1-1,2-1.5,2.8h2v1.9h-3.3v2.3v0.2h3.8v1.9
						C51.4,14.2,47.5,14.2,47.5,14.2z M37.8,6.8v1.9h1.8V6.8H37.8z M37.8,12.2h1.8v-1.9h-1.8V12.2z M39.7,15.8V14h-1.8v2.2
						L39.7,15.8z"/>
					<path class="st0" d="M62.9,5.2c-0.2,0.3-0.4,0.5-0.6,0.8c2.2,2.1,4.6,3.3,7,4.2c-0.5,0.5-1.2,1.3-1.4,1.9
						c-0.9-0.4-1.7-0.8-2.5-1.3v1.1h-8.8V11c-0.8,0.5-1.6,0.9-2.4,1.3c-0.3-0.6-1-1.4-1.5-1.9c3.2-1.3,6.6-3.4,8.4-6.2L62.9,5.2z
						 M55.4,13.4h11.4v7.3h-2.2V20h-7v0.8h-2.1v-7.4H55.4z M57.5,15.2V18h7v-2.8H57.5z M64.1,9.9c-1-0.7-2-1.5-3.1-2.5
						c-0.9,0.9-1.9,1.8-2.9,2.5H64.1z"/>
					<path class="st0" d="M85.9,5v15.8h-2.2v-0.9H73.2v0.9h-2.1V5H85.9z M83.6,17.9v-11H73.2v11H83.6z M83,15.2v1.7h-9.1v-1.7h3.5
						v-2.1h-2.9v-1.8h2.9V9.7H74V7.9h8.6v1.8h-3.4v1.7h3v1.8h-1c0.5,0.5,1,1.1,1.3,1.6l-0.9,0.5L83,15.2L83,15.2z M79.4,15.2h1.8
						c-0.3-0.5-0.8-1.1-1.2-1.5l1.1-0.5h-1.6L79.4,15.2L79.4,15.2z"/>
				</g>
			</g>
			<g>
				<g>
					<path class="st0" d="M5.1,34.8l0.2,1.1c-1.7,0.7-3.6,1.3-5,1.8L0,36.6c0.6-0.2,1.4-0.5,2.2-0.8V31H0.3v-1.1h1.9v-4H0v-1.1h5.2
						v1.1h-2v4h1.6V31H3.3v4.4L5.1,34.8z M15.8,24.7v1.1H12c-0.3,0.8-0.6,1.5-0.9,2.2v11.4H9.9v-9.3c-1,1.6-2.2,3.1-3.5,4.2
						c-0.2-0.2-0.6-0.7-0.9-0.9c2.2-1.8,4-4.5,5.2-7.7H6.2v-1.1L15.8,24.7L15.8,24.7z M12,28.9c1.3,1.4,2.9,3.4,3.7,4.6l-1,0.7
						c-0.7-1.2-2.3-3.3-3.6-4.7L12,28.9z"/>
					<path class="st0" d="M23.1,35.2c-1.8,0.7-3.6,1.4-5.1,2L17.6,36c0.6-0.2,1.4-0.5,2.2-0.8V29h-2v-1.1h2v-4.1h1.1v4.1h1.7V29
						h-1.7v5.9l1.9-0.7L23.1,35.2z M31.6,38.5c0.2,0,0.5,0,0.6-0.1c0.1,0,0.3-0.2,0.3-0.4s0.1-0.8,0.1-1.5c0.2,0.2,0.6,0.4,1,0.5
						c0,0.7-0.1,1.4-0.2,1.7c-0.1,0.3-0.3,0.4-0.6,0.5c-0.2,0.1-0.7,0.1-1.1,0.1h-1.2c-0.4,0-0.9-0.1-1.2-0.3
						c-0.3-0.2-0.4-0.5-0.4-1.4V35h-1.6c-0.3,2.6-1.2,3.9-4.4,4.6c-0.1-0.3-0.4-0.7-0.6-0.9c2.9-0.6,3.7-1.6,3.9-3.7h-1.9v-4.9h7.9
						V35H30v2.8c0,0.3,0,0.5,0.2,0.5c0.1,0.1,0.3,0.1,0.5,0.1h0.9V38.5z M33.1,29.1h-9.8v-1h2.5c-0.1-0.5-0.4-1.2-0.6-1.8l1-0.2
						c0.2,0.5,0.5,1.3,0.6,1.8L26,28.1h3.1c0.3-0.6,0.6-1.4,0.8-2l1.1,0.3c-0.3,0.6-0.5,1.2-0.8,1.7H33L33.1,29.1L33.1,29.1z
						 M32.7,25.9h-8.8v-1h3.9c-0.1-0.4-0.3-0.8-0.5-1.2l1.1-0.2c0.2,0.4,0.5,1,0.6,1.4h3.7V25.9L32.7,25.9z M25.3,32.1H31v-1.2h-5.7
						V32.1z M25.3,34.2H31V33h-5.7V34.2z"/>
					<path class="st0" d="M41.3,37c-0.4-0.6-1.5-2-2.3-3c-0.4,2-1.2,3.9-3,5.4c-0.2-0.2-0.5-0.6-0.8-0.8c2.2-1.8,2.8-4.5,3-6.9h-2.9
						v-1.1h2.9c0-0.4,0-0.8,0-1.1v-1.8h-2.6v-1.1h2.5v-2.8h1.1v2.8h2.5v1.1h-2.5v1.8c0,0.3,0,0.7,0,1.1H42v1.1h-2.7
						c0,0.3,0,0.7-0.1,1.1c0.7,0.7,2.5,2.8,2.9,3.4L41.3,37z M49.6,38.3c0.6,0,0.7-0.4,0.7-2.9c0.3,0.2,0.7,0.4,1,0.4
						c-0.1,2.8-0.3,3.4-1.7,3.4h-1.5c-1.1,0-1.5-0.3-1.5-1.4V34c-0.6,2-2,4-4.8,5.5c-0.1-0.2-0.5-0.7-0.7-0.8c4.4-2.2,5-5.5,5-8.2
						V27h1.1v3.5c0,0.8-0.1,1.8-0.3,2.7h0.8v4.5c0,0.5,0.1,0.6,0.6,0.6H49.6L49.6,38.3z M44,33.8h-1.1v-9.3h7.3v9.3H49v-8.3h-5V33.8
						L44,33.8z"/>
					<path class="st0" d="M57,29.4c0.2,1.7,0.6,3.3,1,4.6c1-1.2,1.8-2.6,2.4-4.1l1.1,0.3c-0.8,1.9-1.8,3.6-3.1,5
						c0.7,1.9,1.5,3.1,2.3,3.1c0.4,0,0.6-0.8,0.8-2.8c0.2,0.3,0.7,0.5,1,0.6c-0.2,2.6-0.7,3.4-1.8,3.4c-1.2,0-2.3-1.3-3.1-3.3
						c-1.2,1.2-2.5,2.2-3.8,3c-0.2-0.2-0.6-0.7-0.8-0.9c1.6-0.8,3-1.9,4.2-3.2c-0.5-1.5-0.9-3.4-1.2-5.5l-2.9,0.3L53,28.8l2.9-0.3
						c-0.2-1.6-0.3-3.2-0.3-4.9h1.2c0,1.7,0.1,3.3,0.3,4.8l5.6-0.7l0.1,1.1L57,29.4z M60.1,27.1c-0.5-0.7-1.6-1.7-2.5-2.5l0.8-0.6
						c0.9,0.7,2,1.7,2.6,2.4L60.1,27.1z M64.7,35.1h-1.1v-9.6h1.1V35.1z M68.1,23.8V38c0,0.8-0.2,1.1-0.7,1.4
						c-0.5,0.2-1.4,0.2-2.9,0.2c0-0.3-0.2-0.8-0.4-1.2c1.1,0,2.1,0,2.5,0c0.3,0,0.4-0.1,0.4-0.4V23.8H68.1z"/>
					<path class="st0" d="M80.5,32.5c-0.9,0.5-1.8,0.9-2.7,1.3h6.9v5.8h-1.1V39h-8v0.6h-1.1V35c-1.2,0.3-2.3,0.7-3.5,1
						c-0.1-0.2-0.4-0.8-0.6-1c2.6-0.6,5.3-1.4,7.7-2.5h-7.4v-1h6.7v-1.4h-4.9v-1h4.9v-1.3h1.1v1.3h4V30c0.7-0.5,1.3-1,1.8-1.5
						l0.9,0.6c-0.9,0.9-2,1.7-3.2,2.4h4.2v1H80.5L80.5,32.5z M85.4,27.9H71.8v-3.6h13.6V27.9z M75.8,25.2h-3V27h3V25.2z M83.5,34.7
						h-8v1.2h8V34.7z M83.5,38.1v-1.4h-8v1.4H83.5z M80,25.2h-3.1V27H80V25.2z M80.1,31.5c0.8-0.4,1.6-0.9,2.3-1.4h-3.9v1.4H80.1z
						 M84.2,25.2h-3.1V27h3.1V25.2z"/>
				</g>
			</g>
		</g>
	</g>
	<g>
		<rect x="140.8" class="st0" width="0.9" height="43.9"/>
	</g>
	<g>
		<polygon class="st0" points="149.3,36.7 148.2,36.7 148.2,32.3 147.1,32.3 147.1,31.5 149.3,31.3 		"/>
		<path class="st0" d="M154.6,14.3c-0.7,0-1.3,0.1-1.9,0.3c-0.6,0.2-1,0.4-1.4,0.7l0.5-4.7h7.8V7.4h-11.1l-1.1,11.2l3.5,0.2
			c0.2-0.5,0.5-0.9,0.9-1.2c0.4-0.3,1-0.4,1.8-0.4c0.9,0,1.6,0.3,2.1,1s0.7,1.6,0.7,2.8s-0.2,2-0.6,2.7s-1.1,0.9-2.1,0.9
			c-0.8,0-1.5-0.2-2-0.7s-0.8-1.1-0.8-2l-3.9,0.2v0.1c0,1.7,0.6,3,1.9,4c1.3,1,2.9,1.5,4.7,1.5c2.3,0,4-0.6,5.1-1.9
			c1.1-1.2,1.7-2.8,1.7-4.8c0-2.1-0.5-3.8-1.5-4.9C157.9,14.9,156.5,14.3,154.6,14.3"/>
		<path class="st0" d="M152.6,35.9c0.3,0,0.5-0.1,0.6-0.3c0.2-0.2,0.2-0.5,0.2-0.8v-0.3c-0.1,0.2-0.3,0.3-0.4,0.3
			c-0.2,0.1-0.3,0.1-0.5,0.1c-0.5,0-0.9-0.2-1.2-0.5s-0.4-0.8-0.4-1.3s0.2-1,0.5-1.3s0.8-0.5,1.3-0.5s1,0.2,1.3,0.5
			c0.3,0.4,0.5,0.9,0.5,1.5v1.4c0,0.6-0.2,1.1-0.5,1.5s-0.8,0.5-1.4,0.5c-0.2,0-0.4,0-0.6-0.1s-0.4-0.1-0.5-0.2l0.2-0.8
			c0.1,0.1,0.3,0.1,0.5,0.1C152.2,35.9,152.4,35.9,152.6,35.9 M152.7,34.2c0.2,0,0.3,0,0.5-0.1c0.1-0.1,0.2-0.2,0.3-0.3v-0.6
			c0-0.3-0.1-0.6-0.2-0.8c-0.1-0.2-0.3-0.3-0.5-0.3s-0.4,0.1-0.5,0.3s-0.2,0.4-0.2,0.7s0.1,0.5,0.2,0.7
			C152.3,34.1,152.5,34.2,152.7,34.2"/>
		<path class="st0" d="M158.9,32.2c-0.6,0.7-1,1.3-1.2,1.9c-0.2,0.6-0.3,1.2-0.3,1.9v0.7h-1.1V36c0-0.7,0.1-1.4,0.4-2
			c0.3-0.6,0.7-1.2,1.2-1.8h-2.7v-0.8h3.7L158.9,32.2L158.9,32.2z"/>
		<path class="st0" d="M163.2,36.7h-3.6V36l1.6-1.9c0.2-0.3,0.4-0.5,0.5-0.7s0.2-0.4,0.2-0.5c0-0.2,0-0.4-0.2-0.5s-0.3-0.2-0.5-0.2
			s-0.4,0.1-0.5,0.2s-0.2,0.4-0.2,0.6h-1l0,0c0-0.5,0.1-0.9,0.5-1.2c0.3-0.3,0.8-0.5,1.3-0.5s1,0.1,1.3,0.4s0.5,0.6,0.5,1.1
			c0,0.3-0.1,0.6-0.2,0.9s-0.5,0.6-0.9,1.1l-0.9,1l0,0h2.2L163.2,36.7L163.2,36.7z"/>
		<rect x="164" y="34" class="st0" width="2.2" height="0.8"/>
		<path class="st0" d="M170.7,36.7h-3.6V36l1.6-1.9c0.2-0.3,0.4-0.5,0.5-0.7s0.2-0.4,0.2-0.5c0-0.2,0-0.4-0.2-0.5s-0.3-0.2-0.5-0.2
			s-0.4,0.1-0.5,0.2S168,32.8,168,33h-1l0,0c0-0.5,0.1-0.9,0.5-1.2c0.3-0.3,0.8-0.5,1.3-0.5s1,0.1,1.3,0.4s0.5,0.6,0.5,1.1
			c0,0.3-0.1,0.6-0.2,0.9s-0.5,0.6-0.9,1.1l-0.9,1l0,0h2.2L170.7,36.7L170.7,36.7z"/>
		<path class="st0" d="M175,34.8c0,0.6-0.2,1.1-0.5,1.5s-0.8,0.5-1.3,0.5s-1-0.2-1.3-0.5s-0.5-0.8-0.5-1.5v-1.5
			c0-0.6,0.2-1.1,0.5-1.5c0.3-0.4,0.8-0.5,1.3-0.5s1,0.2,1.3,0.5c0.3,0.4,0.5,0.8,0.5,1.5V34.8L175,34.8z M173.9,33.2
			c0-0.3-0.1-0.6-0.2-0.8c-0.1-0.2-0.3-0.3-0.5-0.3s-0.4,0.1-0.5,0.3s-0.2,0.5-0.2,0.8v1.7c0,0.3,0.1,0.6,0.2,0.8s0.3,0.3,0.5,0.3
			s0.4-0.1,0.5-0.3s0.2-0.5,0.2-0.8V33.2z"/>
		<path class="st0" d="M179.3,36.7h-3.6V36l1.6-1.9c0.2-0.3,0.4-0.5,0.5-0.7s0.2-0.4,0.2-0.5c0-0.2,0-0.4-0.2-0.5s-0.3-0.2-0.5-0.2
			s-0.4,0.1-0.5,0.2s-0.2,0.4-0.2,0.6h-1l0,0c0-0.5,0.1-0.9,0.5-1.2c0.3-0.3,0.8-0.5,1.3-0.5s1,0.1,1.3,0.4s0.5,0.6,0.5,1.1
			c0,0.3-0.1,0.6-0.2,0.9s-0.5,0.6-0.9,1.1l-0.9,1l0,0h2.2L179.3,36.7L179.3,36.7z"/>
		<path class="st0" d="M183.6,36.7H180V36l1.6-1.9c0.2-0.3,0.4-0.5,0.5-0.7s0.2-0.4,0.2-0.5c0-0.2,0-0.4-0.2-0.5s-0.3-0.2-0.5-0.2
			s-0.4,0.1-0.5,0.2S181,32.8,181,33h-1l0,0c0-0.5,0.1-0.9,0.5-1.2c0.3-0.3,0.8-0.5,1.3-0.5s1,0.1,1.3,0.4s0.5,0.6,0.5,1.1
			c0,0.3-0.1,0.6-0.2,0.9s-0.5,0.6-0.9,1.1l-0.9,1l0,0h2.2L183.6,36.7L183.6,36.7z"/>
	</g>
</g>
<g>
	<g>
		<g>
			<path class="st0" d="M175.3,20.2c0,0-1,1.3-1.2,3.2c-0.2,1.9,0.2,1.3-0.2,2.2l-0.1,0.2c0,0,0.2-0.1,0.9-0.5s1.4-0.3,2.9-1.5
				s1.8-3.7,1.8-3.9c0,0-0.2,0.2-0.3,0.5c-0.1,0.3-0.4,0.6-0.4,0.6c-0.1,0-1.7,1.6-1.9,1.7c-0.1,0.3-1.1,1.3-1.3,1.6
				c-0.2,0.3-0.8,0.8-0.9,0.8c0,0,0-0.1,0.1-0.2s0.5-0.6,0.7-1.2s0.2-1,0.2-1.4C175.6,21.9,175.3,20.5,175.3,20.2"/>
		</g>
	</g>
	<g>
		<g>
			<path class="st0" d="M176.6,22.1c0,0-0.1-0.2,0-0.3c0.1-0.1,0.1-0.7-0.2-1.3c-0.3-0.5-0.9-2-0.9-3c0.1-1,0.2-1.1,0.2-1.1
				s0.3,0.8,0.4,1c0.1,0.1,1.1,1.6,1,2.4c-0.1,0.8-0.1,1-0.1,1.1c0.1,0,0.2-0.1,0.2-0.2s0.2-0.6,0.5-1.3c0.3-0.6,1.5-2.1,1.8-3
				c0,0,0.4,1.7-0.7,3.2c-1.1,1.5-1.2,1.2-1.6,1.9C176.8,22,176.7,22.1,176.6,22.1"/>
		</g>
	</g>
	<g>
		<g>
			<path class="st0" d="M177.6,17.7c-0.1,0,0-0.6-0.2-0.8s-1.8-1.9-2.2-3.5c0,0,1,0.9,1.2,1s0.9,0.7,1.1,1.2c0.2,0.5,0.2,1,0.2,1
				c0.1,0,0.1-0.6,0.1-0.6s0-1.2,0.1-1.7c0.1-0.5,0.4-1.5,0.3-1.9c0,0,0.6,0.9,0.6,2.1s-0.6,2.2-0.7,2.3c-0.1,0.1-0.3,0.7-0.3,0.8
				C177.8,17.6,177.6,17.7,177.6,17.7"/>
		</g>
	</g>
	<g>
		<g>
			<path class="st0" d="M175.7,9.1c0,0,2.1,1.1,1.8,4.8c0,0,0,0.2-0.1,0s-0.6-0.7-0.8-0.8s-2.1-1.1-2.9-2.6c0,0,0.1,0,0.3,0.1
				s0.8,0.4,0.9,0.5c0.1,0,0.8,0.2,1.2,0.7c0.4,0.5,0.7,0.8,0.8,1.1c0,0,0.1,0.1,0.1-0.2c-0.1-0.3-0.1-0.5-0.4-0.8
				c-0.2-0.3-0.5-1-0.5-1.4C176,10,175.9,9.3,175.7,9.1"/>
		</g>
	</g>
	<g>
		<g>
			<path class="st0" d="M175.3,10.4c0,0,0.1-0.2-0.2-0.6s-0.1-0.7-0.7-1.6c-0.4-0.5-1.6-0.9-1.6-0.9s0.4,0.4,0.6,0.7
				c0.2,0.2,0.3,0.4,0.4,0.5c0.1,0.1,0.5,0.5,0.7,0.7c0,0,0.1,0.1,0.1,0.2s-0.2,0-0.2-0.1c-0.1,0-0.8-0.5-1.3-0.6s-1.4-0.2-1.7-0.3
				c0,0,1.1,0.9,2.3,1.1C174.9,9.8,175.3,10.4,175.3,10.4"/>
		</g>
	</g>
	<g>
		<g>
			<path class="st0" d="M174.1,26.4c-0.6,0.2-0.9,0.3-1.2,0.4s-1,0.4-1.2,0.5s-0.7,0.2-0.7,0.2s-0.5,0.1-0.5,0l0.2-0.2
				c0.7-0.4,0.7-0.5,1.3-1.1c0.6-0.6,0.8-1.7,0.8-1.9c0-0.2,0.2-0.8,0.2-0.8c-1.1,0.8-1.5,1.4-2,2.2c-0.2,0.3-0.3,0.5-0.4,0.7
				c-0.3,0.8-0.7,1.4-1.2,1.4l0,0c-0.1,0.1-0.1,0.1-0.1,0.1c0.1,0,0.6,0,0.7-0.1c0.1,0,0.3,0,0.8,0.1s1.6,0.2,1.6,0.2
				c2.6,0,4.5-2.1,4.8-2.5c0.3-0.4,0.6-1.1,0.6-1.1C177,25.8,174.7,26.3,174.1,26.4"/>
		</g>
	</g>
</g>
<g>
	<defs>
		<circle id="SVGID_1_" cx="173.2" cy="17.4" r="10.4"/>
	</defs>
	<clipPath id="SVGID_00000029017601798079487360000002829579118468864907_">
		<use xlink:href="#SVGID_1_"  style="overflow:visible;"/>
	</clipPath>
	<g style="clip-path:url(#SVGID_00000029017601798079487360000002829579118468864907_);">
		<g class="st2">
			<g>
				<defs>
					<circle id="SVGID_00000178920294636224633880000012209128897891110557_" cx="173.2" cy="17.5" r="10.4"/>
				</defs>
				<use xlink:href="#SVGID_00000178920294636224633880000012209128897891110557_"  style="overflow:visible;fill:#FFFFFF;"/>
				<clipPath id="SVGID_00000098907252365220858410000017484193645686625454_">
					<use xlink:href="#SVGID_00000178920294636224633880000012209128897891110557_"  style="overflow:visible;"/>
				</clipPath>
			</g>
		</g>
	</g>
	<g style="opacity:0.6;clip-path:url(#SVGID_00000029017601798079487360000002829579118468864907_);">
		<path class="st0" d="M172.7,9.4c0.1,0.1,0.1,0.2,0.2,0.2"/>
	</g>
	<g style="opacity:0.6;clip-path:url(#SVGID_00000029017601798079487360000002829579118468864907_);">
		<path class="st0" d="M167.3,18.8L167.3,18.8L167.3,18.8z"/>
	</g>
	<g style="opacity:0.6;clip-path:url(#SVGID_00000029017601798079487360000002829579118468864907_);">
		<path class="st0" d="M167,19.6L167,19.6L167,19.6z"/>
	</g>
	<g style="opacity:0.6;clip-path:url(#SVGID_00000029017601798079487360000002829579118468864907_);">
		<path class="st0" d="M166.8,20.1L166.8,20.1L166.8,20.1L166.8,20.1L166.8,20.1z"/>
	</g>
	<g style="opacity:0.6;clip-path:url(#SVGID_00000029017601798079487360000002829579118468864907_);">
		<path class="st0" d="M166.7,19.2L166.7,19.2L166.7,19.2L166.7,19.2z"/>
	</g>
	<g style="opacity:0.6;clip-path:url(#SVGID_00000029017601798079487360000002829579118468864907_);">
		<path class="st0" d="M171.8,19C171.7,19,171.7,19,171.8,19C171.8,19,171.8,18.9,171.8,19L171.8,19z"/>
	</g>
	<g style="opacity:0.6;clip-path:url(#SVGID_00000029017601798079487360000002829579118468864907_);">
		<path class="st0" d="M173.2,20C173.2,20,173.2,20.1,173.2,20C173.2,20.1,173.2,20.1,173.2,20z"/>
	</g>
	<g style="opacity:0.6;clip-path:url(#SVGID_00000029017601798079487360000002829579118468864907_);">
		<path class="st4" d="M184.2,14.9c-0.1,0-0.2-0.1-0.2-0.2c0-0.2-0.1-0.5,0.2-0.7c0.1-0.1,0.1-0.2-0.1-0.2s-0.2-0.1-0.2-0.3
			s-0.1-0.3-0.3-0.3c-0.2,0-0.3,0.2-0.3,0.3s0.1,0.3-0.2,0.3c-0.2,0-0.2-0.1-0.3-0.2c-0.1-0.1-0.1-0.2-0.2-0.1
			c-0.1,0.1-0.1,0-0.2-0.1c-0.1-0.1-0.2-0.3-0.4-0.1h-0.1c-0.1-0.1-0.2-0.2-0.2-0.4c-0.1,0-0.1,0.1-0.1,0.1
			c-0.1,0.2-0.4,0.3-0.6,0.2c-0.1-0.1-0.2-0.2-0.2,0c0,0.1-0.1,0.2,0.1,0.3c0.1,0,0.3,0.2,0.2,0.3c-0.1,0.2-0.1,0.4-0.1,0.6
			c0,0,0,0.1-0.1,0.1c-0.1,0-0.2,0.1-0.3,0.1c-0.2,0-0.2,0.2-0.1,0.3c0,0.1,0,0.2-0.1,0.2c-0.2,0-0.2,0.2-0.3,0.3
			c-0.2,0.2,0,0.4-0.1,0.6c0,0.1-0.1,0.3,0,0.3c0.1,0,0.2-0.1,0.2-0.2c0.1-0.2,0.3-0.4,0.6-0.2c-0.1,0.2-0.3,0.3-0.4,0.5
			c-0.1,0.1-0.2,0.2-0.1,0.4c0.1,0.1,0,0.2,0,0.3c-0.1,0.1-0.1,0-0.2-0.1s-0.2,0-0.2,0.1c0,0,0,0.1,0,0.2c0,0.3-0.1,0.4-0.4,0.3
			c-0.1,0-0.1-0.2-0.2-0.3c-0.5,0.4-0.8,0.4-1.3,0c-0.1-0.1-0.1,0-0.2,0c-0.1,0.2-0.3,0.2-0.5,0.2c-0.1,0-0.1,0-0.2,0
			c-0.2,0-0.2-0.1-0.2-0.2c0-0.2,0.1-0.3,0.2-0.3c0.1,0,0.2,0,0.2-0.2c0-0.3,0-0.3,0.3-0.3c0.2,0,0.2-0.1,0.2-0.2s-0.1-0.2-0.1-0.2
			c-0.1-0.1-0.2-0.2-0.1-0.4c0,0,0,0,0-0.1h-0.1h-0.1c-0.2,0-0.1,0-0.1,0.2c0.1,0.1,0.1,0.2,0,0.4c-0.1,0.1-0.2,0.1-0.3,0.1
			s-0.2,0-0.2,0.1c0,0.2-0.2,0.3-0.4,0.4c-0.1-0.1-0.1-0.2-0.1-0.3c0-0.1-0.1-0.1-0.1-0.2c0,0,0-0.1-0.1-0.1c-0.1,0-0.1,0-0.1,0.1
			c-0.1,0.2,0,0.6,0.2,0.7c0.1,0.1,0.1,0.2,0.1,0.3c0,0.1-0.1,0.2-0.2,0.2c-0.2,0-0.4,0-0.5-0.2c-0.2-0.3-0.2-0.6-0.1-0.8
			c0.1-0.1,0.1-0.2,0-0.2c-0.1-0.1-0.1-0.2,0-0.3c0.1-0.1,0.1-0.2,0-0.2c-0.1-0.1-0.1-0.1,0-0.2c0.1-0.1,0.1-0.2,0.3-0.3
			c0.1,0,0.1-0.1,0-0.1c-0.1,0-0.1-0.3-0.2-0.1c0,0-0.1,0.1-0.1,0c-0.1,0-0.1-0.1-0.1-0.1l0.1-0.1c0.2,0,0.1-0.1,0.1-0.2
			c0,0,0-0.1,0-0.2c0.1-0.4,0.2-0.7,0.3-1.1c0-0.1,0.1-0.3,0.2-0.4c0,0-0.1-0.1,0-0.2c0.1,0,0.1-0.1,0.3,0c-0.1-0.1-0.2-0.2-0.1-0.4
			c0-0.1,0-0.3-0.1-0.3s-0.2,0.1-0.3,0.2c-0.1,0-0.1,0.2-0.1,0.1s-0.2-0.1-0.3-0.2c0.1,0,0.1-0.1,0.2-0.1s0.1-0.1,0-0.2
			c0,0,0-0.1-0.1-0.1c-0.1,0-0.2-0.1-0.2-0.2v-0.1c0-0.1,0-0.2-0.2-0.1c-0.2,0.1-0.4,0-0.4-0.1c-0.2,0.2-0.4,0-0.5-0.1
			c-0.1-0.1-0.2-0.1-0.3,0c0,0.1-0.1,0.1-0.2,0.1c-0.1-0.1-0.3,0-0.5-0.1c-0.1,0.2-0.3,0.4-0.4,0.3c-0.1-0.1-0.2,0-0.3,0l0,0l0,0
			c0-0.1,0.1-0.2,0-0.3c-0.1-0.1-0.3-0.2-0.4-0.2c-0.2,0.1-0.3-0.1-0.4-0.2c-0.1-0.1-0.2-0.2-0.2,0c0,0.1-0.2,0-0.2,0.1
			c0.1,0.2,0.1,0.3,0.1,0.5c-0.1,0-0.1-0.1-0.1-0.1c-0.1,0-0.1-0.1-0.2-0.1s-0.1,0.2,0,0.2v0.1c0.1,0.3,0.1,0.3-0.3,0.4
			c0-0.1,0-0.1-0.1-0.3c-0.1-0.1-0.1-0.2-0.3-0.2h-0.1c-0.1-0.3-0.2-0.1-0.3,0c-0.1,0.1-0.1,0.2-0.1,0.3s0,0.1,0,0.2
			c-0.1,0.2-0.2,0.4-0.3,0.6c0,0.1-0.1,0.1,0,0.1c0.2,0.1,0.2,0.2,0.3,0.4v0.1h-0.1c-0.1,0-0.1-0.1-0.1,0s-0.1,0.2-0.2,0.2
			c-0.1,0-0.2-0.1-0.2-0.2c0-0.1,0-0.2,0.1-0.3c-0.1,0-0.2,0-0.3,0.1c0,0.1-0.1,0.2-0.2,0c0-0.1-0.1-0.1-0.2-0.1
			c-0.1,0-0.1,0.1-0.1,0.2c-0.1,0.1-0.1,0.2-0.2,0.4c-0.1,0.2-0.2,0.2-0.4,0.1c-0.1-0.1-0.2-0.2-0.3-0.2c-0.1,0-0.2,0-0.2-0.1
			c-0.1-0.1-0.1-0.2-0.2-0.1c-0.2,0-0.3,0-0.4-0.3c0-0.1-0.1-0.2-0.2-0.3c-0.2-0.1-0.2-0.3-0.1-0.5c0.1-0.1,0.1-0.1,0-0.2
			c-0.1-0.1-0.1-0.1-0.2-0.1c-0.1,0-0.3,0-0.4-0.1c0.1-0.1,0.2,0,0.2-0.1s-0.1-0.1-0.2-0.2c-0.1,0-0.1,0-0.1-0.1s-0.1-0.2,0-0.2
			c0.1,0.1,0.2-0.1,0.4,0c0.1,0.1,0.3,0.1,0.4,0.1c0.3,0,0.3,0,0.3-0.3c0-0.2,0.1-0.6,0.2-0.7c0.2,0,0.2-0.2,0.2-0.3
			s-0.1-0.3-0.2-0.4c-0.1,0-0.3-0.1-0.4,0.1h-0.1c-0.2-0.1-0.3,0-0.4,0.1c-0.1,0.1-0.2,0.2-0.3,0.2v0.1l0,0c0,0,0-0.1,0.1-0.1
			c0-0.2-0.1-0.2-0.2-0.1c-0.1,0.1-0.2,0.1-0.1,0.2c0.2,0.2-0.1,0.4-0.1,0.5l0,0c0,0.1,0,0.1-0.1,0.2c-0.1-0.1-0.1-0.2-0.2,0
			c-0.1,0.2-0.2,0.1-0.3-0.1c0,0.2,0,0.3-0.2,0.3c-0.1,0-0.1,0-0.1,0.1c0.1,0.1,0,0.2-0.1,0.3c0,0.1,0.1,0.2,0.1,0.4
			c0,0.1-0.1,0.1-0.1,0.2c-0.1,0-0.2,0.1-0.2,0.2c0,0.1-0.1,0.1-0.1,0.1c-0.2,0.1-0.3,0.3-0.2,0.4c0,0.2-0.1,0.4-0.2,0.6
			c0,0-0.2,0-0.3,0.1c-0.1,0-0.1,0-0.2,0.1c0,0.1,0.3,0.2,0.1,0.3c-0.1,0-0.1,0.1-0.1,0.2c0,0.1-0.1,0.2-0.2,0.2
			c-0.1,0-0.1-0.1,0-0.2c0,0,0,0,0-0.1c0.1-0.5,0.1-1,0.4-1.4c0.2-0.2,0.2-0.5,0.4-0.7c0.1,0,0.1-0.2,0-0.3
			c-0.1-0.1-0.1-0.2,0.1-0.2c0.1,0,0.2-0.1,0.3,0c0.2,0,0.2,0,0.2-0.2s-0.1-0.4-0.2-0.5l0,0c-0.4,0.1-0.6,0.5-0.7,0.8
			c0,0.3-0.2,0.5-0.4,0.7c-0.1,0.1-0.3,0.3-0.2,0.5c0.1,0.1,0,0.2,0,0.4c0,0.1-0.1,0.1-0.2,0.1c-0.1,0-0.1,0-0.1,0
			c0,0.1-0.1,0.2-0.1,0.3s-0.1,0.3-0.1,0.3c-0.2,0.1-0.1,0.2-0.1,0.4c0.1,0.2,0.1,0.3,0.1,0.5c-0.2,0.7-0.2,1.4-0.3,2.1
			c0,0.2,0,0.5,0,0.7c0.1,0.6,0.2,1.2,0.3,1.8c0,0.7,0.2,1.3,0.7,1.9c0.3,0.3,0.5,0.8,0.6,1.2c0.1,0.3,0.3,0.6,0.5,0.8
			c0.2,0.3,0.5,0.5,0.7,0.8c0.2,0.2,0.3,0.4,0.6,0.5c0.1,0,0.1,0.1,0.2,0.2c0.1,0.1,0.1,0.2,0.2,0.3c0.1,0,0.2,0,0.3,0.1l0.1,0.1
			c0.3,0,0.3,0.3,0.6,0.3c0.1,0,0.1,0,0.1,0.1s0.1,0.1,0.2,0c0.1-0.1,0.1-0.1,0-0.2c-0.1-0.1-0.2-0.3-0.4-0.4
			c-0.1-0.1-0.1-0.3-0.2-0.4c-0.2-0.2-0.2-0.4-0.2-0.6s0-0.3,0-0.5s-0.1-0.3-0.2-0.4c-0.2-0.1-0.4-0.3-0.5-0.5
			c-0.1-0.1-0.2-0.2-0.2-0.3c0,0,0-0.1-0.1-0.1c-0.1,0-0.1,0-0.1,0.1c0,0,0,0.1-0.1,0c0-0.1,0-0.2,0-0.2c0-0.1,0-0.1-0.1-0.1
			c-0.2,0-0.2-0.2-0.2-0.3c0-0.2,0-0.2-0.2-0.1c-0.1,0-0.2,0-0.3-0.1c-0.1-0.1-0.2-0.2-0.4-0.2c-0.1,0-0.2-0.1-0.1-0.1
			c0.1-0.2-0.1-0.5,0.2-0.7c0.1,0,0-0.1-0.1-0.2c-0.1-0.1-0.1-0.3,0-0.4c0.2-0.3,0.2-0.3-0.1-0.5c-0.1-0.1-0.2-0.2,0-0.3
			c0.1-0.1,0.1-0.1,0.1-0.2c0-0.2,0.1-0.3,0.2-0.3c0.1,0,0.3,0,0.4,0c0,0,0.1,0,0.1-0.1s0.1-0.2,0-0.3c-0.1,0-0.1-0.1-0.1-0.2
			s0.1-0.1,0.2-0.1s0.2,0,0.3-0.1c0.1-0.1,0.2,0,0.2,0c0.3,0.1,0.6,0.1,0.8,0c-0.2,0-0.4,0-0.6-0.1c-0.1,0-0.2,0-0.1-0.2
			c0.1-0.1,0.1-0.2,0.2-0.1c0.1,0.1,0.3,0,0.4,0h0.3l0,0c0-0.1,0.1-0.2,0.2-0.2h0.1c0-0.1,0.1-0.1,0.1-0.2c0.6,0,0.6-0.1,0.6-0.2
			c0-0.2,0.1-0.2,0.2-0.3c0-0.1,0-0.2,0.1-0.3l0.1-0.1c0,0-0.1,0-0.1-0.1c0-0.3-0.1-0.5-0.4-0.4c-0.1,0-0.1,0-0.2-0.1
			c-0.1-0.1-0.1-0.2,0-0.2c0.2-0.1,0.2-0.3,0.2-0.5c0-0.1,0-0.4,0.2-0.3c0.1,0,0.3,0,0.4,0c0.2,0,0.2,0.1,0.2,0.2
			c0.1,0.1-0.1,0.1-0.1,0.1l0,0l0,0c0,0,0,0,0.1,0c0-0.1,0-0.2-0.1-0.1c-0.1,0.1-0.1,0.2,0,0.3c0,0.1,0.1,0.2,0.2,0.1
			c0.1-0.1,0.1-0.1,0.2,0c0.1,0.1,0.2,0,0.4,0c0-0.1,0.1-0.3-0.1-0.3c-0.3-0.1-0.3-0.3-0.2-0.5v0.1c0,0.2,0.1,0.1,0.2,0.1
			c0.2,0,0.1-0.1,0.1-0.2c0-0.2,0.1-0.3,0.3-0.2s0.4,0,0.4,0.2h0.1c0.1,0,0.1,0,0.2,0c0,0,0,0,0,0.1s-0.1,0.1,0,0.2
			c0.1,0.1,0.1-0.1,0.1-0.1c0.1,0,0.2,0,0.2,0c0.2,0.2,0.2,0,0.2-0.1c0,0-0.1-0.1,0-0.2c0.2,0.3,0.3,0.3,0.4,0.2
			c0.2-0.1,0.2,0,0.2,0.1c0.1,0.1,0,0.2-0.1,0.3c-0.1,0.1-0.1,0.2-0.1,0.3c0.1,0.1,0,0.2-0.1,0.2c-0.2,0-0.4,0-0.5-0.2
			c-0.1,0.1-0.2,0.2,0.1,0.2c0.1,0,0.2,0.1,0.1,0.2c-0.1,0.1-0.1,0.3,0,0.4c0.1,0,0.1,0,0.1-0.1c0-0.2,0.1-0.3,0.2-0.3
			c0.1,0,0.1,0.2,0.1,0.3s0,0.2,0.1,0.2c0.1,0,0.1,0,0.2,0s0.1,0,0.2,0c0,0,0,0,0.1,0c0.1,0,0.1-0.2,0.1-0.3s0.1-0.2,0.2-0.2
			c0.1,0,0.1,0.1,0.1,0.2c0,0.2,0,0.3,0.2,0.3h0.1c0.1,0,0.1,0,0.2,0c-0.1-0.2,0-0.3-0.1-0.5c0-0.1,0-0.2-0.1-0.3v-0.1
			c0.2-0.1,0.3-0.3,0.4-0.3c0.1,0,0.3-0.1,0.2-0.3c0-0.2,0.2-0.4,0.4-0.4h0.1c0.1,0,0.1-0.2,0.2-0.1c0.1,0.1,0.2,0.2,0.2,0.3
			c0.1,0.2-0.1,0.2-0.2,0.2c-0.2,0-0.1,0.1-0.1,0.2c0,0.2,0.2,0.4,0.4,0.5c0.1,0.1,0.1,0.1,0.2,0.2c0.2,0.2,0.2,0.2,0,0.3
			s-0.2,0.4-0.3,0.6c0,0,0-0.1-0.1-0.1V16l0.1,0.1c0,0.1,0,0.1,0,0.2v0.1l0,0l0,0c0.1,0.1,0,0.3-0.1,0.4c0,0.3,0.1,0.4,0.4,0.3
			c0.3,0,0.5-0.1,0.8,0c0.1,0.1,0.2,0.1,0.2,0.3c0,0.2,0,0.4-0.2,0.6c0.2-0.1,0.3,0,0.4,0.2c0.1,0.1,0.1,0.3,0,0.4
			c0,0.1-0.2,0-0.2,0.2c0,0-0.1,0-0.1-0.1v-0.1c0-0.1,0-0.1-0.1-0.1c-0.1,0-0.1,0.1-0.1,0.2s0.1,0.2,0.1,0.2c0,0.1,0.1,0.2,0.1,0.4
			c0,0.1-0.1,0.2,0,0.2c0.1,0,0.2,0,0.2-0.1c0,0,0-0.1,0.1-0.1c0.1,0.1,0.5,0.3,0.6,0.2c0.1,0,0.1,0,0.1-0.1s-0.1-0.2,0.1-0.2
			c0.1,0,0.1-0.1,0.2,0c0.2,0.2,0.4,0,0.5-0.1c0.1-0.1,0.2-0.2,0.3-0.2c0.1,0.1,0,0.1,0,0.2c-0.1,0.1-0.2,0.2-0.1,0.4c0,0,0,0,0,0.1
			c-0.2,0.2-0.4,0.3-0.2,0.6c0,0,0,0.1-0.1,0.1c0,0-0.1,0-0.1-0.1c0-0.2-0.1-0.2-0.2-0.2c0.1,0.1,0,0.3,0.1,0.4
			c0.1,0.2,0.2,0.3,0.4,0.4c0.1,0,0.1,0,0.1,0.1c-0.1,0.1-0.1,0.3,0,0.3c0.2,0,0.1,0.2,0.2,0.2h0.1c0.2,0,0.4-0.2,0.5-0.4
			c0.1-0.1,0.1-0.1,0.2-0.1c0.1,0,0.1,0.1,0.1,0.2s0,0.2,0,0.3c0,0.2,0,0.3,0.1,0.3c0.1,0.1,0.2,0,0.3-0.1c0.1,0,0.2-0.2,0.3-0.2
			c0.3,0.2,0.4-0.1,0.5-0.2c0.2-0.3,0.5-0.4,0.8-0.5c0.1,0,0.2-0.1,0.2-0.2c0-0.2,0.2-0.3,0.2-0.6c0,0,0-0.1,0.1-0.1
			c0.2,0,0.2-0.3,0.4-0.4c0.1-0.1,0.2-0.3,0.3-0.5c0.1,0,0.1,0.1,0.2,0.1c-0.1-0.1,0-0.2,0-0.2c0.1-0.1,0.1-0.3-0.1-0.2
			c-0.1,0-0.1,0-0.2-0.1c0-0.1,0.1-0.1,0.1-0.2s0.1-0.1,0.1-0.1c0.1,0.2,0.2,0,0.3,0.1c0.3,0.1,0.3-0.1,0.3-0.2s0.1-0.2,0-0.2
			c-0.1,0-0.1,0-0.1-0.1s0-0.1,0.1-0.1c0.1,0,0.1,0,0.1-0.1c0-0.2,0.1-0.3,0.1-0.5c0,0,0-0.1,0.1-0.1c0.2,0,0.2-0.2,0.4-0.3
			c0.1,0,0.3-0.1,0.1-0.3c0,0,0,0,0-0.1s0-0.2-0.1-0.2c-0.1-0.1-0.1-0.2,0-0.3c0.1-0.1,0.2-0.2,0.2-0.3s0.1-0.2,0.2-0.2
			c0.1,0,0.1,0,0.1-0.1v-0.1c-0.2-0.1-0.1-0.3-0.1-0.5c0-0.1,0-0.2,0.1-0.2c0.1,0,0.1,0.1,0.1,0.2c0,0.2,0.1,0.3,0.1,0.4l0.1,0.1
			c0.1,0,0.1-0.1,0.1-0.1c0-0.1,0-0.2,0.1-0.3c0.1,0,0.2,0.2,0.4,0.2c0-0.1,0.1-0.2,0.2-0.3C184.3,15,184.3,14.9,184.2,14.9z
			 M167.1,16.8c0.1-0.1,0.1-0.1,0.1,0H167.1z M172.6,11.3c-0.1,0-0.1,0-0.1-0.1s0-0.1,0.1-0.1C172.6,11.1,172.6,11.2,172.6,11.3
			L172.6,11.3z M183.1,14.8c-0.1-0.1-0.2,0-0.3,0.1c0,0-0.1,0.1-0.1,0c0,0,0-0.1,0-0.2c0.1-0.1,0.4-0.2,0.5-0.1c0,0,0.1,0,0.1,0.1
			C183.2,14.8,183.1,14.8,183.1,14.8z"/>
	</g>
	<g style="opacity:0.6;clip-path:url(#SVGID_00000029017601798079487360000002829579118468864907_);">
		<path class="st0" d="M166.5,11.3L166.5,11.3C166.6,11.3,166.6,11.3,166.5,11.3C166.6,11.3,166.5,11.3,166.5,11.3L166.5,11.3z"/>
	</g>
	<g style="opacity:0.6;clip-path:url(#SVGID_00000029017601798079487360000002829579118468864907_);">
		<path class="st0" d="M167.4,14.6L167.4,14.6L167.4,14.6C167.4,14.6,167.4,14.7,167.4,14.6L167.4,14.6z"/>
	</g>
	<g style="opacity:0.6;clip-path:url(#SVGID_00000029017601798079487360000002829579118468864907_);">
		<path class="st0" d="M167.4,14.5L167.4,14.5L167.4,14.5L167.4,14.5L167.4,14.5z"/>
	</g>
	<g style="opacity:0.6;clip-path:url(#SVGID_00000029017601798079487360000002829579118468864907_);">
		<path class="st0" d="M175.4,25.2c-0.1-0.1,0-0.2,0-0.2h0.1C175.5,25.1,175.4,25.1,175.4,25.2z"/>
	</g>
	<g style="opacity:0.6;clip-path:url(#SVGID_00000029017601798079487360000002829579118468864907_);">
		<path class="st0" d="M166.5,12.1C166.5,12.2,166.5,12.2,166.5,12.1C166.4,12.2,166.4,12.2,166.5,12.1
			C166.4,12.2,166.4,12.1,166.5,12.1L166.5,12.1z"/>
	</g>
	<g style="opacity:0.6;clip-path:url(#SVGID_00000029017601798079487360000002829579118468864907_);">
		<path class="st0" d="M166.3,13.4L166.3,13.4C166.3,13.4,166.4,13.4,166.3,13.4C166.4,13.4,166.4,13.5,166.3,13.4
			C166.3,13.5,166.3,13.5,166.3,13.4z"/>
	</g>
	<g style="opacity:0.6;clip-path:url(#SVGID_00000029017601798079487360000002829579118468864907_);">
		<path class="st0" d="M167.1,18.8L167.1,18.8L167.1,18.8L167.1,18.8L167.1,18.8z"/>
	</g>
	<g style="opacity:0.6;clip-path:url(#SVGID_00000029017601798079487360000002829579118468864907_);">
		<path class="st0" d="M168.4,18L168.4,18L168.4,18L168.4,18C168.4,17.9,168.4,17.9,168.4,18z"/>
	</g>
	<path style="opacity:0.6;clip-path:url(#SVGID_00000029017601798079487360000002829579118468864907_);fill:#FFFFFF;" d="M167,19.5"
		/>
	<polyline style="opacity:0.6;clip-path:url(#SVGID_00000029017601798079487360000002829579118468864907_);fill:#FFFFFF;" points="
		167,19.5 167,19.5 167,19.5 	"/>
	<g style="opacity:0.6;clip-path:url(#SVGID_00000029017601798079487360000002829579118468864907_);">
		<polygon class="st0" points="166.8,20 166.8,20 166.8,20 		"/>
	</g>
	<g style="opacity:0.6;clip-path:url(#SVGID_00000029017601798079487360000002829579118468864907_);">
		<path class="st0" d="M166.7,19.1L166.7,19.1L166.7,19.1z"/>
	</g>
	<path style="opacity:0.6;clip-path:url(#SVGID_00000029017601798079487360000002829579118468864907_);fill:#FFFFFF;" d="
		M180.9,23.5c0.1-0.2,0.1-0.6,0.3-0.7v-0.1c0-0.1,0.1-0.3,0-0.4l-0.1-0.1l0,0c-0.1,0-0.2,0.1-0.2,0.2h-0.1h-0.1l-0.1,0.1
		c0,0-0.1,0.1-0.2,0.1c-0.2,0-0.1-0.3-0.3-0.3c-0.1,0-0.1,0-0.1-0.1v-0.1h-0.1c-0.1,0-0.1,0-0.2,0c-0.1,0-0.1,0-0.2,0h-0.1
		c-0.1,0.1-0.1,0.2-0.2,0.2l-0.1,0.1c0,0.2-0.2,0.3-0.1,0.4c0,0.1-0.1,0.1-0.2,0.1c-0.3,0.1-0.5,0.2-0.7,0.4
		c-0.1,0.1-0.2,0.3-0.5,0.2c-0.1,0-0.1,0.1-0.2,0.1c-0.1,0-0.1,0.1-0.2,0c-0.1-0.1-0.1-0.2-0.1-0.2c0-0.1,0-0.2,0-0.2
		c0-0.1,0-0.1-0.1-0.1c-0.1,0-0.1,0-0.2,0.1s-0.2,0.2-0.5,0.3h-0.1c-0.1-0.1,0-0.2-0.2-0.2c-0.1,0-0.1-0.2,0-0.2s0-0.1-0.1-0.1
		c-0.2,0-0.3-0.2-0.4-0.3c0-0.1,0-0.2,0-0.3c0.1,0,0.2,0,0.2,0.2c0,0,0,0,0.1,0s0.1,0,0.1-0.1c-0.1-0.2,0.1-0.3,0.2-0.5l0,0
		c-0.1-0.1,0.1-0.2,0.1-0.3c0,0,0.1-0.1,0-0.1c-0.1,0-0.2,0.1-0.2,0.2c-0.1,0.1-0.3,0.2-0.5,0c-0.1-0.1-0.1,0-0.2,0s-0.1,0-0.1,0.1
		c0,0,0,0.1-0.1,0.1c-0.1,0-0.5,0-0.6-0.2c-0.1,0,0,0-0.1,0.1c0,0.1-0.1,0.1-0.2,0.1c-0.1,0,0-0.1,0-0.1c0.1-0.1,0-0.2-0.1-0.3
		c0,0-0.1-0.1-0.1-0.2c0,0,0-0.1,0.1-0.1c0.1,0,0.1,0,0.1,0.1v0.1h0.1c0-0.1,0.1-0.1,0.2-0.1c0.1-0.1,0.1-0.2,0-0.3
		c-0.1-0.1-0.2-0.2-0.4-0.1c0.1-0.1,0.1-0.3,0.1-0.4s0-0.1-0.2-0.2s-0.5,0-0.7,0c-0.3,0-0.4,0-0.4-0.3c0-0.2,0-0.2-0.1-0.2
		c0-0.1,0.1-0.1,0.1-0.2s-0.1-0.1-0.1-0.2c0-0.2,0.2-0.3,0.1-0.5l0,0c0-0.1,0-0.2-0.1-0.2c0.2-0.1,0.2-0.1,0-0.3
		c-0.1,0-0.1-0.1-0.2-0.2c-0.2-0.1-0.3-0.2-0.3-0.4c0-0.1,0-0.1,0.1-0.1c0.1,0,0.2,0,0.2-0.2c0-0.1-0.1-0.2-0.2-0.2
		c-0.1,0-0.1,0-0.2,0.1h-0.1c-0.2,0-0.4,0.1-0.4,0.3c0,0.2-0.1,0.2-0.2,0.2c-0.2,0-0.2,0.2-0.4,0.2c0,0,0,0,0,0.1
		c0.1,0.1,0,0.2,0.1,0.2c0,0.1,0,0.1,0,0.2c-0.1,0-0.1,0.1-0.1,0.1c0,0.1,0,0.2-0.1,0.2s-0.2,0-0.4,0c-0.1,0-0.1-0.1-0.1-0.2
		s0.1-0.2-0.1-0.2c-0.1,0-0.2,0.1-0.2,0.2c0,0,0,0-0.1,0c0-0.1-0.1-0.2,0-0.3c0.1-0.1,0-0.2-0.1-0.2c-0.2,0-0.1-0.1-0.1-0.2
		c0.1,0.1,0.3,0.2,0.5,0.2c0.1,0,0.2,0,0.1-0.1c-0.1-0.1-0.1-0.2,0-0.2c0.1,0,0.1-0.1,0.1-0.2s-0.1-0.2-0.2-0.1
		c-0.1,0.1-0.2,0-0.4-0.2c-0.1,0,0,0.1,0,0.1c0,0.1,0,0.2-0.1,0.1c-0.1,0-0.1,0-0.2,0c0,0,0,0.1-0.1,0.1c-0.1,0,0-0.1,0-0.1v-0.1
		c-0.1,0-0.1,0-0.2,0h-0.1c-0.1-0.2-0.2-0.1-0.4-0.2c-0.1,0-0.3,0-0.3,0.2c0,0,0.1,0.1-0.1,0.1c-0.1,0-0.2,0-0.2-0.1v-0.1
		c-0.1,0.1-0.1,0.2,0.1,0.3c0.2,0,0.1,0.2,0.1,0.2c-0.1,0-0.2,0.1-0.3,0c-0.1-0.1-0.1,0-0.2,0c-0.1,0.1-0.1,0-0.2-0.1
		c-0.1-0.1-0.1-0.2,0-0.2c0.1,0,0.1,0.1,0.1,0.1l0,0c0.1,0,0.2,0,0.1-0.1c-0.1-0.1-0.1-0.2-0.2-0.2c-0.1,0-0.2,0-0.4,0
		c0.3,0.2,0.3,0.4,0.3,0.5s0,0.3-0.2,0.3c-0.1,0-0.1,0.1,0,0.2c0.1,0,0.1,0.1,0.2,0.1c0.2,0,0.3,0,0.4,0.1H168c-0.1,0-0.2,0-0.2,0.1
		h-0.1h-0.1l0,0c0,0,0,0.1-0.1,0.1c-0.1,0-0.1,0-0.2,0c0,0,0-0.1-0.1-0.1l0,0l0,0h-0.1c-0.1,0-0.1,0-0.2,0h-0.1l0,0l0,0l0,0v0.1
		l-0.1,0.1l0,0l0,0h-0.1h-0.1l-0.1-0.1c-0.1,0-0.1,0-0.2,0c-0.1,0-0.2,0-0.2,0c-0.1,0-0.1,0.1-0.2,0.2c-0.1,0-0.1,0-0.2,0h-0.1
		c0,0,0,0-0.1,0l0,0l0,0l0,0c0,0,0,0.1,0,0.2v0.1l0,0l0,0l0,0l0.1,0.1l0,0h0.1c0.1,0,0.1,0,0.2,0h-0.1h-0.1c-0.1,0-0.1,0-0.2,0
		c-0.1,0-0.1,0.1-0.1,0.1l-0.1,0.1c-0.1,0-0.1,0-0.1,0H165h-0.1h0.1l0,0l0.1,0.1c0.1,0,0.1,0.1,0.1,0.1h-0.1c0-0.1-0.1-0.1-0.1-0.1
		l-0.1-0.1h-0.1c0,0.1,0.1,0.2,0.2,0.3c0.2,0.1,0.4,0.1,0.6,0h0.1c0.1,0,0.1,0,0.1-0.1c0.1,0,0.1,0,0.1,0h0.1c0,0,0.1,0,0.1,0.1
		c0.2,0,0.4,0,0.6,0c-0.3,0.1-0.5,0.1-0.8,0c-0.1,0-0.1-0.1-0.2,0c-0.1,0.1-0.2,0.1-0.3,0.1c-0.1,0-0.2,0-0.2,0.1s0,0.1,0.1,0.1
		s0,0.1,0,0.2s-0.1,0-0.1,0c-0.1,0-0.2,0-0.4,0s-0.2,0.1-0.2,0.2s0,0.1-0.1,0.2c-0.2,0.1-0.1,0.1,0,0.2c0.2,0.1,0.2,0.1,0.1,0.3
		c-0.1,0.1-0.1,0.2,0,0.3l0.1,0.1c-0.2,0.1,0,0.3-0.2,0.5c-0.1,0,0,0.1,0.1,0.1c0.1,0,0.2,0,0.3,0.1c0.1,0.1,0.1,0.1,0.2,0
		c0.1,0,0.2,0,0.2,0.1s0,0.2,0.2,0.2c0.1,0,0.1,0,0.1,0.1s0,0.1,0,0.2c0.1,0,0.1,0,0.1,0s0,0,0.1,0c0,0,0.1,0,0.1,0.1
		c-0.1,0.1,0,0.2,0.1,0.2c0.2,0.1,0.3,0.2,0.5,0.3c0.1,0.1,0.2,0.2,0.2,0.3c0,0.1,0,0.2,0,0.4c0,0.2,0,0.3,0.2,0.4
		c0.1,0.1,0.1,0.2,0.2,0.3c0.1,0.1,0.2,0.2,0.3,0.3c0.1,0.1,0,0.1,0,0.2c-0.1,0.1-0.1,0-0.1,0s0-0.1-0.1-0.1c-0.2,0-0.3-0.2-0.5-0.2
		l-0.1-0.1c-0.1-0.1-0.1-0.1-0.2-0.1c0.2,0.2,0.5,0.4,0.7,0.6c0.1,0.1,0.1,0.2,0.3,0.1h0.1c0.2,0.2,0.6,0.2,0.8,0.4
		c0.4,0.2,0.8,0.3,1.3,0.4c0.1,0,0.3,0,0.4,0.1c0.1,0,0.2-0.1,0.2,0.1c0.3,0.1,0.6,0.1,0.8,0c0.1,0,0.2,0,0.4,0
		c0.5,0.1,1.1,0.1,1.6,0c0.3,0,0.7-0.1,1-0.1c0.6,0,1.3-0.2,1.9-0.3c0.2,0,0.4-0.1,0.5-0.3c0,0,0.1,0,0.1-0.1
		c0.3-0.1,0.6-0.2,0.9-0.3c0.2-0.1,0.4-0.2,0.4-0.3c0-0.1,0.2-0.2,0.3-0.3c0.3-0.2,0.7-0.2,0.9-0.5c0.1-0.1,0.1-0.1,0.2-0.2
		c0.2-0.2,0.4-0.3,0.6-0.5C180.7,23.8,180.8,23.6,180.9,23.5L180.9,23.5z M167.7,21.4c-0.1,0-0.1,0.1-0.1,0.1
		c-0.1,0.2-0.3,0.2-0.5,0.1c0,0-0.1-0.1-0.1,0c0,0,0,0.1,0.1,0.1c0.1,0,0.2,0.1,0.2,0.2s0,0.1-0.1,0.1s-0.1,0-0.1-0.1v-0.1
		c0-0.1-0.1-0.1-0.2,0c0,0-0.1,0.1-0.1,0c-0.1,0,0-0.1,0-0.1c0-0.2-0.1-0.3-0.3-0.3c-0.1,0-0.1,0-0.1-0.1c-0.1-0.1,0.1-0.5,0.3-0.5
		c-0.1,0-0.2-0.1-0.1-0.2c0.1,0,0-0.2,0-0.2c0-0.1,0-0.1,0.1-0.1c0.1,0,0.1,0,0.1,0.1c0.1,0.1,0.1,0.2,0.2,0.2c0,0.1,0.1,0,0.1,0
		c0.1,0,0.1,0,0.1,0c0.1,0,0.1,0,0.1-0.1s0-0.1,0.1-0.1c0.1,0,0.1,0.1,0.1,0.1c0.1,0.1-0.1,0.2-0.1,0.3c0,0.1-0.1,0.2,0.1,0.2
		c0.1,0,0.1-0.1,0.1-0.2C167.9,21.1,167.9,21.2,167.7,21.4 M168,20.2c-0.2,0-0.3,0-0.4-0.1c-0.1,0-0.1,0.1-0.2,0l0,0
		c0.1,0,0.1,0,0.2-0.1c0.2,0.1,0.3,0,0.5-0.1l0,0h0.1V20C168.1,20.2,168,20.2,168,20.2 M166.7,19.8c-0.1,0.1-0.2,0.1-0.3,0.1
		c-0.1,0,0.2-0.1,0.3-0.3l0,0l0.1,0l0,0.1C166.8,19.7,166.7,19.8,166.7,19.8 M168.3,25.9c-0.1,0-0.1-0.1-0.1-0.2c0,0,0-0.1,0.1-0.1
		c0.1,0,0.2,0,0.2,0.1C168.5,25.9,168.4,25.9,168.3,25.9 M168.9,20.1c-0.1,0.1-0.2,0.1-0.4,0.1c-0.1,0-0.1-0.1-0.1-0.2v-0.1l0,0
		c0.1,0,0.2-0.1,0.3-0.1s0.2,0.1,0.3,0.1c0,0.1,0.1,0.1,0.1,0.2C169,20,168.9,20,168.9,20.1 M175.5,22.2c0-0.1,0-0.1,0-0.1
		c0-0.1,0.1-0.1,0-0.2c0,0-0.1,0-0.1-0.1h0.1c0.1,0,0.1,0,0.1,0.1s0,0.2,0,0.2S175.6,22.2,175.5,22.2 M176.1,25.4
		c-0.1-0.1,0-0.1,0-0.2h0.1C176.3,25.3,176.2,25.3,176.1,25.4"/>
	<path style="opacity:0.6;clip-path:url(#SVGID_00000029017601798079487360000002829579118468864907_);fill:#FFFFFF;" d="M180.2,9.2
		L180.2,9.2c-0.2,0-0.3,0-0.4,0c-0.1,0-0.1,0-0.1,0c-0.1,0-0.1,0-0.2,0c-0.1,0.1,0,0.1,0.1,0.2l0,0c0,0.1,0,0.1,0.1,0.1
		c0.1,0,0.1,0,0.1,0c0,0.1,0,0.1-0.1,0.1c-0.2-0.1-0.4,0-0.3,0.3c0.1,0.2,0.1,0.4-0.1,0.6c-0.1,0-0.2,0.1-0.4,0.1
		c-0.1,0-0.1,0,0,0.1c0,0.1,0.1,0.1,0.2,0.1s0.2,0,0.3,0c-0.1,0.1,0,0.2,0.1,0.3c0,0,0,0,0,0.1c-0.1,0.1-0.1,0.1,0.1,0.1
		c0.1,0,0.1,0,0.1,0c-0.1,0.1-0.2,0-0.3,0c-0.2,0-0.3,0.1-0.4,0.3c0,0.1-0.1,0.2-0.2,0.2s-0.2-0.1-0.2-0.3s0-0.4-0.1-0.5
		s-0.1-0.1-0.2-0.1c-0.1,0.1-0.1,0.1,0,0.2l0.1,0.1c-0.2,0.1-0.4,0.1-0.3,0.3c0,0.1-0.1,0.1-0.1,0.1c-0.1,0-0.1-0.1-0.2-0.2
		c-0.1,0.2-0.2,0.3-0.4,0.2h-0.1c-0.2,0-0.1-0.1-0.1-0.2c0.1-0.1,0.1-0.2-0.1-0.2c-0.1,0-0.1,0-0.2,0c-0.1,0-0.1,0-0.1,0.1
		s-0.1,0.1-0.2,0.1h-0.1c-0.1,0.2-0.3,0.1-0.6,0.2c-0.3,0-0.5,0.1-0.8,0.2c0.2,0.1,0.5,0.1,0.7,0.2c0.1,0,0.1,0,0.1,0
		c-0.1,0.1,0.4,0.1,0,0.2c-0.1,0-0.1,0.1-0.1,0.2c0,0.1,0.1,0.1,0.2,0.1s0.2,0,0.2,0c0,0.1,0,0.1-0.1,0.2c-0.1,0.1-0.1,0-0.1,0l0,0
		c-0.2,0-0.4-0.1-0.6-0.2c-0.1,0-0.2,0-0.3-0.1c-0.1-0.1-0.2,0-0.2,0.1c0,0,0,0.1-0.1,0.1c-0.1,0-0.1-0.1-0.1-0.1l0,0
		c-0.1-0.1-0.1-0.2-0.2-0.2c-0.1,0-0.1,0.2-0.1,0.2c-0.1,0.1-0.1,0.2-0.2,0.1c0,0,0,0,0,0.1s0.2,0.1,0.1,0.2
		c-0.1,0.1-0.2-0.1-0.2-0.1c-0.1-0.1-0.1-0.2-0.1-0.3c-0.1-0.1-0.3-0.1-0.4-0.1c-0.2-0.1-0.4-0.2-0.5-0.3c-0.1-0.1-0.2-0.2-0.1-0.4
		c0-0.1,0-0.2-0.2-0.2c-0.1,0-0.2-0.1-0.3-0.1h-0.1v-0.1c0,0,0.1,0,0.1-0.1h-0.1c-0.1,0-0.1,0-0.1-0.1s0.1,0,0.1,0
		c0.1,0,0.1,0,0.1-0.1c0.1-0.1,0.2-0.3,0.4-0.3c0.2-0.1,0.2-0.5,0.2-0.7L173,9.9c0-0.2,0-0.4-0.2-0.1h-0.1c0-0.1-0.1-0.1-0.1-0.2
		s0.1-0.1,0-0.2c-0.1,0-0.2-0.2-0.3-0.1c-0.3-0.3-0.6-0.3-0.4,0l0,0c-0.3,0-0.4,0.4-0.7,0.4c-0.1,0-0.1,0.1-0.1,0.2
		c0,0,0.1,0.1,0,0.1c-0.1,0-0.1,0-0.2,0l-0.1-0.1c0.1-0.2,0-0.4,0.2-0.5c0.1,0,0-0.1,0-0.1c-0.1-0.1-0.1-0.1-0.2-0.2
		c-0.1-0.1,0-0.1,0-0.2c0.1,0,0.3-0.2,0.4,0h0.1c0,0,0.1-0.1,0.1-0.2c0-0.1-0.1,0-0.1,0c-0.2,0-0.2-0.2-0.4-0.2
		c-0.1-0.1-0.1,0-0.1,0l-0.1,0.1h-0.1V8.5c0.2-0.1,0.3-0.2,0-0.4c-0.1,0-0.1-0.2,0-0.2c0.1-0.2,0-0.1-0.1-0.2
		c0.3-0.1,0.4-0.4,0.6-0.7c0.2-0.3,0.6-0.5,0.9-0.7c0.1,0.1,0.3,0,0.3-0.1c0.1-0.1,0.1-0.1,0.2-0.1l0,0l0,0l0,0c0.1,0,0.1,0,0.2,0
		c0-0.1,0.1-0.1,0.1,0c0.1,0,0.1,0.1,0.1,0.1C173,6.1,173,6,173,5.9c0.1,0,0.1,0,0.2-0.1s0.3-0.1,0.2,0.1c0,0.1,0.1,0.2,0.2,0.2
		c0.1,0,0.4-0.1,0.5-0.2c0.1,0,0.3-0.3,0.3,0.1c0.3,0,0.3,0,0.3,0c0.2-0.1,0.3,0.1,0.4,0.2c0.1,0,0.1,0.1,0,0.1c0,0,0,0.1-0.1,0.1
		c-0.1,0-0.1,0-0.1,0c0,0.1-0.1,0.2,0.1,0.2c0.1,0,0.1,0.1,0.1,0.1s0.1,0.1,0.1,0c0.1-0.1,0.3,0,0.5-0.1c0.1,0,0.1-0.1,0.2,0
		c0.2,0.2,0.5,0.2,0.8,0.3c0.1,0.1,0.2,0.1,0.4,0h0.1c0.3,0.2,0.7,0.3,1,0.5l0.1,0.1c-0.1,0.2,0,0.2,0.1,0.3c0.1,0,0.1,0.2,0,0.2
		c-0.1,0.2,0,0.2,0.1,0.3c0,0,0,0,0.1,0.1c0.1,0.1,0,0.3,0.1,0.2c0.1-0.1,0.3-0.2,0.3-0.4s0-0.3,0.2-0.1c0.1,0.1,0.3,0.1,0.4,0.2
		c0,0,0.1,0,0.1-0.1c0,0.3,0,0.2,0.1,0.2c0,0.2,0.2,0.3,0.1,0.5l0,0h0.1c0-0.1,0.1-0.1,0.1-0.1l0,0v0.1C179.9,9,180.2,9.1,180.2,9.2
		z M177.9,9.8c0,0.1,0,0.2,0.1,0.3c0.1,0.1,0.2,0,0.4,0c0-0.1,0.1-0.2,0-0.3C178.2,9.6,178.1,9.8,177.9,9.8z M175.3,7.6
		c-0.1-0.1-0.1-0.1-0.2,0c-0.1,0.1,0,0.1,0.1,0.2l0.1,0.1c0,0.1,0,0.1,0.1,0.1c0.1,0,0.1,0,0.2-0.1C175.5,7.6,175.4,7.7,175.3,7.6z
		 M178.4,10.4v0.1c0,0,0.1,0.1,0.1,0c0.1,0,0-0.1,0-0.1S178.5,10.4,178.4,10.4z M177.5,11.6L177.5,11.6L177.5,11.6L177.5,11.6
		L177.5,11.6z"/>
</g>
</svg>
