<?xml version="1.0" encoding="utf-8"?>
<!-- Generator: Adobe Illustrator 25.4.1, SVG Export Plug-In . SVG Version: 6.00 Build 0)  -->
<svg version="1.1" id="Layer_1" xmlns="http://www.w3.org/2000/svg" xmlns:xlink="http://www.w3.org/1999/xlink" x="0px" y="0px"
	 viewBox="0 0 143.4 46.8" style="enable-background:new 0 0 143.4 46.8;" xml:space="preserve">
<style type="text/css">
	.st0{fill:#FFFFFF;}
	.st1{clip-path:url(#SVGID_00000018921781702452505690000008798638972924344988_);}
	.st2{opacity:0.4;}
	.st3{opacity:0.6;clip-path:url(#SVGID_00000018921781702452505690000008798638972924344988_);}
	.st4{opacity:0.5;fill:#FFFFFF;}
	.st5{opacity:0.6;clip-path:url(#SVGID_00000018921781702452505690000008798638972924344988_);fill:#FFFFFF;}
</style>
<g>
	<g>
		<rect x="100.6" y="0.3" class="st0" width="0.9" height="43.9"/>
	</g>
	<g>
		<polygon class="st0" points="109.1,37 108,37 108,32.6 106.9,32.6 106.9,31.8 109.1,31.6 		"/>
		<path class="st0" d="M114.4,14.6c-0.7,0-1.3,0.1-1.8,0.3c-0.6,0.2-1,0.4-1.4,0.7l0.5-4.7h7.8V7.7h-11.1l-1.2,11.2l3.5,0.2
			c0.2-0.5,0.5-0.9,0.9-1.2c0.4-0.3,1-0.4,1.8-0.4c0.9,0,1.6,0.3,2.1,1s0.7,1.6,0.7,2.8s-0.2,2-0.7,2.7c-0.4,0.6-1.1,0.9-2.1,0.9
			c-0.8,0-1.5-0.2-2-0.7s-0.8-1.1-0.8-2l-3.8,0.2v0.1c0,1.7,0.6,3,1.9,4s2.9,1.5,4.7,1.5c2.3,0,4-0.6,5.1-1.9
			c1.1-1.2,1.7-2.8,1.7-4.8c0-2.1-0.5-3.8-1.5-4.9S116.3,14.6,114.4,14.6"/>
		<path class="st0" d="M112.4,36.2c0.3,0,0.5-0.1,0.7-0.3s0.2-0.5,0.2-0.8v-0.3c-0.1,0.2-0.3,0.3-0.4,0.3c-0.2,0.1-0.3,0.1-0.5,0.1
			c-0.5,0-0.9-0.2-1.2-0.5c-0.3-0.3-0.4-0.8-0.4-1.3s0.2-1,0.5-1.3s0.8-0.5,1.3-0.5s1,0.2,1.3,0.5s0.5,0.9,0.5,1.5V35
			c0,0.6-0.2,1.1-0.5,1.5s-0.8,0.5-1.4,0.5c-0.2,0-0.4,0-0.6-0.1s-0.4-0.1-0.5-0.2l0.2-0.8c0.2,0.1,0.3,0.1,0.5,0.1
			C112,36.2,112.2,36.2,112.4,36.2 M112.5,34.5c0.2,0,0.3,0,0.5-0.1c0.1-0.1,0.2-0.2,0.3-0.3v-0.6c0-0.3-0.1-0.6-0.2-0.8
			s-0.3-0.3-0.5-0.3s-0.4,0.1-0.5,0.3s-0.2,0.4-0.2,0.7s0.1,0.5,0.2,0.7C112.1,34.4,112.3,34.5,112.5,34.5"/>
		<path class="st0" d="M118.7,32.5c-0.6,0.7-1,1.3-1.2,1.9c-0.2,0.6-0.3,1.2-0.3,1.9V37h-1.1v-0.7c0-0.7,0.1-1.4,0.4-2
			s0.7-1.2,1.2-1.8H115v-0.8h3.7V32.5L118.7,32.5z"/>
		<path class="st0" d="M123,37h-3.6v-0.7l1.6-1.9c0.2-0.3,0.4-0.5,0.5-0.7s0.2-0.4,0.2-0.5c0-0.2,0-0.4-0.2-0.5s-0.3-0.2-0.5-0.2
			s-0.4,0.1-0.5,0.2s-0.2,0.4-0.2,0.6h-1l0,0c0-0.5,0.1-0.9,0.5-1.2c0.3-0.3,0.8-0.5,1.3-0.5s1,0.1,1.3,0.4c0.3,0.3,0.5,0.7,0.5,1.1
			c0,0.3-0.1,0.6-0.2,0.9s-0.5,0.6-0.9,1.1l-0.9,1l0,0h2.2L123,37L123,37z"/>
		<rect x="123.8" y="34.3" class="st0" width="2.2" height="0.8"/>
		<path class="st0" d="M130.5,37H127v-0.7l1.6-1.9c0.2-0.3,0.4-0.5,0.5-0.7s0.2-0.4,0.2-0.5c0-0.2,0-0.4-0.2-0.5s-0.3-0.2-0.5-0.2
			s-0.4,0.1-0.5,0.2s-0.2,0.4-0.2,0.6h-1l0,0c0-0.5,0.1-0.9,0.5-1.2c0.3-0.3,0.8-0.5,1.3-0.5s1,0.1,1.3,0.4c0.3,0.3,0.5,0.7,0.5,1.1
			c0,0.3-0.1,0.6-0.2,0.9s-0.5,0.6-0.9,1.1l-0.9,1l0,0h2.2L130.5,37L130.5,37z"/>
		<path class="st0" d="M134.8,35.1c0,0.6-0.2,1.1-0.5,1.5s-0.8,0.5-1.3,0.5s-1-0.2-1.3-0.5s-0.5-0.8-0.5-1.5v-1.5
			c0-0.6,0.2-1.1,0.5-1.5c0.3-0.4,0.8-0.5,1.3-0.5s1,0.2,1.3,0.5s0.5,0.8,0.5,1.5V35.1L134.8,35.1z M133.7,33.5
			c0-0.3-0.1-0.6-0.2-0.8c-0.1-0.2-0.3-0.3-0.5-0.3s-0.4,0.1-0.5,0.3s-0.2,0.5-0.2,0.8v1.7c0,0.3,0.1,0.6,0.2,0.8s0.3,0.3,0.5,0.3
			s0.4-0.1,0.5-0.3s0.2-0.5,0.2-0.8V33.5z"/>
		<path class="st0" d="M139.1,37h-3.6v-0.7l1.6-1.9c0.2-0.3,0.4-0.5,0.5-0.7s0.2-0.4,0.2-0.5c0-0.2,0-0.4-0.2-0.5s-0.3-0.2-0.5-0.2
			s-0.4,0.1-0.5,0.2s-0.2,0.4-0.2,0.6h-1l0,0c0-0.5,0.1-0.9,0.5-1.2c0.3-0.3,0.8-0.5,1.3-0.5s1,0.1,1.3,0.4c0.3,0.3,0.5,0.7,0.5,1.1
			c0,0.3-0.1,0.6-0.2,0.9s-0.5,0.6-0.9,1.1l-0.9,1l0,0h2.2L139.1,37L139.1,37z"/>
		<path class="st0" d="M143.4,37h-3.6v-0.7l1.6-1.9c0.2-0.3,0.4-0.5,0.5-0.7s0.2-0.4,0.2-0.5c0-0.2,0-0.4-0.2-0.5s-0.3-0.2-0.5-0.2
			s-0.4,0.1-0.5,0.2s-0.2,0.4-0.2,0.6h-1l0,0c0-0.5,0.1-0.9,0.5-1.2c0.3-0.3,0.8-0.5,1.3-0.5s1,0.1,1.3,0.4c0.3,0.3,0.5,0.7,0.5,1.1
			c0,0.3-0.1,0.6-0.2,0.9s-0.5,0.6-0.9,1.1l-0.9,1l0,0h2.2L143.4,37L143.4,37z"/>
	</g>
	<path class="st0" d="M4.7,34.1H3.3V30H1.6v4.1H0.2v-5.2h4.5V34.1z M10.4,31.5c0,0.8-0.2,1.5-0.5,1.9C9.5,34,9,34.2,8.4,34.2
		c-0.5,0-0.9-0.2-1.3-0.5v2.5H5.8v-7.3H7v0.5c0.3-0.4,0.8-0.6,1.3-0.6c0.6,0,1.1,0.2,1.5,0.7S10.4,30.6,10.4,31.5L10.4,31.5z
		 M9,31.4c0-0.5-0.1-0.9-0.2-1.1S8.4,29.9,8,29.9c-0.4,0-0.7,0.2-0.9,0.5v2.2c0.2,0.3,0.5,0.5,0.9,0.5C8.7,33.1,9,32.5,9,31.4z
		 M11.1,31.4c0-0.5,0.1-1,0.3-1.4s0.5-0.7,0.8-1c0.4-0.2,0.8-0.3,1.3-0.3c0.7,0,1.3,0.2,1.7,0.7s0.7,1,0.7,1.8v0.4
		c0,0.8-0.2,1.5-0.7,1.9c-0.4,0.5-1,0.7-1.8,0.7s-1.3-0.2-1.8-0.7C11.3,33,11.1,32.3,11.1,31.4L11.1,31.4L11.1,31.4z M12.4,31.5
		c0,0.5,0.1,0.9,0.3,1.1c0.2,0.3,0.5,0.4,0.8,0.4s0.6-0.1,0.8-0.4s0.3-0.7,0.3-1.2s-0.1-0.9-0.3-1.1s-0.5-0.4-0.8-0.4
		s-0.6,0.1-0.8,0.4C12.5,30.6,12.4,31,12.4,31.5z M20.3,30h-2.1v4.1h-1.4v-5.2h3.5V30z M25.6,31.5c0,0.8-0.2,1.5-0.5,1.9
		c-0.4,0.5-0.8,0.7-1.5,0.7c-0.5,0-0.9-0.2-1.3-0.5v2.5h-1.4v-7.3h1.3v0.5c0.3-0.4,0.8-0.6,1.3-0.6c0.6,0,1.1,0.2,1.5,0.7
		S25.6,30.6,25.6,31.5L25.6,31.5z M24.2,31.4c0-0.5-0.1-0.9-0.2-1.1s-0.4-0.4-0.7-0.4c-0.4,0-0.7,0.2-0.9,0.5v2.2
		c0.2,0.3,0.5,0.5,0.9,0.5C23.9,33.1,24.2,32.5,24.2,31.4z M29.4,34.1c-0.1-0.1-0.1-0.3-0.1-0.5C29,34,28.5,34.2,28,34.2
		s-0.9-0.2-1.2-0.5s-0.5-0.7-0.5-1.1c0-0.6,0.2-1,0.6-1.3s1-0.5,1.8-0.5h0.6v-0.3c0-0.2-0.1-0.4-0.2-0.6s-0.3-0.2-0.6-0.2
		c-0.2,0-0.4,0.1-0.5,0.2s-0.2,0.3-0.2,0.5h-1.4c0-0.3,0.1-0.6,0.3-0.8c0.2-0.3,0.4-0.5,0.8-0.6s0.7-0.2,1.1-0.2
		c0.6,0,1.1,0.2,1.5,0.5s0.6,0.8,0.6,1.4V33c0,0.5,0.1,0.9,0.2,1.1v0.1L29.4,34.1L29.4,34.1z M28.3,33.1c0.2,0,0.4,0,0.6-0.1
		s0.3-0.2,0.4-0.4v-0.9h-0.5c-0.7,0-1,0.2-1.1,0.7v0.1c0,0.2,0.1,0.3,0.2,0.4C27.9,33.1,28.1,33.1,28.3,33.1z M34.8,32.5l1.3-3.6
		h1.7v5.2h-1.4v-3.2l-1.2,3.2h-0.9l-1.2-3.2v3.2h-1.4v-5.2h1.7L34.8,32.5z M42.2,32.5l1.3-3.6h1.7v5.2h-1.4v-3.2l-1.2,3.2h-0.9
		l-1.2-3.2v3.2h-1.4v-5.2h1.7L42.2,32.5z M49.5,34.1c-0.1-0.1-0.1-0.3-0.1-0.5c-0.3,0.4-0.8,0.6-1.3,0.6s-0.9-0.2-1.2-0.5
		s-0.5-0.7-0.5-1.1c0-0.6,0.2-1,0.6-1.3c0.4-0.3,1-0.5,1.8-0.5h0.6v-0.3c0-0.2-0.1-0.4-0.2-0.6c-0.1-0.2-0.3-0.2-0.6-0.2
		c-0.2,0-0.4,0.1-0.5,0.2s-0.2,0.3-0.2,0.5h-1.4c0-0.3,0.1-0.6,0.3-0.8c0.2-0.3,0.4-0.5,0.8-0.6s0.7-0.2,1.1-0.2
		c0.6,0,1.1,0.2,1.5,0.5s0.6,0.8,0.6,1.4V33c0,0.5,0.1,0.9,0.2,1.1v0.1L49.5,34.1L49.5,34.1z M48.4,33.1c0.2,0,0.4,0,0.6-0.1
		s0.3-0.2,0.4-0.4v-0.9h-0.5c-0.7,0-1,0.2-1.1,0.7v0.1c0,0.2,0.1,0.3,0.2,0.4C48,33.1,48.2,33.1,48.4,33.1z M58.7,34.1h-1.4V30h-1.7
		v4.1h-1.4v-5.2h4.5C58.7,28.9,58.7,34.1,58.7,34.1z M59.6,31.4c0-0.5,0.1-1,0.3-1.4s0.5-0.7,0.8-1c0.4-0.2,0.8-0.3,1.3-0.3
		c0.7,0,1.3,0.2,1.7,0.7s0.7,1,0.7,1.8v0.4c0,0.8-0.2,1.5-0.7,1.9c-0.4,0.5-1,0.7-1.8,0.7s-1.3-0.2-1.8-0.7
		C59.8,33,59.6,32.3,59.6,31.4L59.6,31.4L59.6,31.4z M61,31.5c0,0.5,0.1,0.9,0.3,1.1c0.2,0.3,0.5,0.4,0.8,0.4s0.6-0.1,0.8-0.4
		s0.3-0.7,0.3-1.2s-0.1-0.9-0.3-1.1s-0.5-0.4-0.8-0.4s-0.6,0.1-0.8,0.4C61,30.6,61,31,61,31.5z M0,42c0-0.5,0.1-1,0.3-1.4
		s0.5-0.7,0.8-1c0.4-0.2,0.8-0.3,1.3-0.3c0.7,0,1.3,0.2,1.7,0.7s0.7,1,0.7,1.8v0.4c0,0.8-0.2,1.5-0.7,1.9c-0.4,0.5-1,0.7-1.8,0.7
		S1.1,44.5,0.7,44C0.2,43.5,0,42.9,0,42L0,42L0,42z M1.4,42.1c0,0.5,0.1,0.9,0.3,1.1c0.2,0.3,0.5,0.4,0.8,0.4s0.6-0.1,0.8-0.4
		s0.3-0.7,0.3-1.2s-0.1-0.9-0.3-1.1s-0.5-0.4-0.8-0.4s-0.6,0.1-0.8,0.4C1.5,41.1,1.4,41.5,1.4,42.1z M7.8,42.7H7.2v1.9H5.8v-5.2h1.4
		v2h0.5l1.1-2h1.7l-1.7,2.5l1.8,2.8H8.9L7.8,42.7z M15.9,42.1c0,0.8-0.2,1.5-0.5,1.9c-0.4,0.5-0.8,0.7-1.5,0.7
		c-0.5,0-0.9-0.2-1.3-0.5v2.5h-1.4v-7.3h1.3v0.5c0.3-0.4,0.8-0.6,1.3-0.6c0.6,0,1.1,0.2,1.5,0.7S15.9,41.2,15.9,42.1L15.9,42.1z
		 M14.5,42c0-0.5-0.1-0.9-0.2-1.1s-0.4-0.4-0.7-0.4c-0.4,0-0.7,0.2-0.9,0.5v2.2c0.2,0.3,0.5,0.5,0.9,0.5
		C14.2,43.6,14.5,43.1,14.5,42z M18.6,42.7l1-3.3h1.5L19,45.5l-0.1,0.3c-0.3,0.7-0.8,1-1.5,1c-0.2,0-0.4,0-0.6-0.1v-1.1H17
		c0.3,0,0.5,0,0.6-0.1s0.2-0.2,0.3-0.4l0.2-0.4l-1.8-5.3h1.5L18.6,42.7z M26.6,42.7H26v1.9h-1.4v-1.9H24l-1,1.9h-1.7l1.6-2.7
		l-1.6-2.5H23l1.1,2h0.5v-2H26v2h0.5l1.1-2h1.7l-1.6,2.5l1.6,2.8h-1.7L26.6,42.7z M33,44.7c-0.1-0.1-0.1-0.3-0.1-0.5
		c-0.3,0.4-0.8,0.6-1.3,0.6s-0.9-0.2-1.2-0.5s-0.5-0.7-0.5-1.1c0-0.6,0.2-1,0.6-1.3s1-0.5,1.8-0.5h0.6v-0.3c0-0.2-0.1-0.4-0.2-0.6
		c-0.1-0.2-0.3-0.2-0.6-0.2c-0.2,0-0.4,0.1-0.5,0.2c-0.1,0.1-0.2,0.3-0.2,0.5H30c0-0.3,0.1-0.6,0.3-0.8c0.2-0.3,0.4-0.5,0.8-0.6
		s0.7-0.2,1.1-0.2c0.6,0,1.1,0.2,1.5,0.5s0.6,0.8,0.6,1.4v2.3c0,0.5,0.1,0.9,0.2,1.1v0.1L33,44.7L33,44.7z M31.8,43.7
		c0.2,0,0.4,0,0.6-0.1s0.3-0.2,0.4-0.4v-0.9h-0.5c-0.7,0-1,0.2-1.1,0.7v0.1c0,0.2,0.1,0.3,0.2,0.4S31.6,43.7,31.8,43.7z M36.7,41.4
		h0.7c0.1-0.7,0.4-1.2,0.8-1.5c0.4-0.4,1-0.6,1.6-0.6c0.7,0,1.3,0.2,1.7,0.7s0.7,1,0.7,1.8v0.4c0,0.8-0.2,1.5-0.7,1.9
		c-0.4,0.5-1,0.7-1.8,0.7c-0.7,0-1.2-0.2-1.6-0.6c-0.4-0.4-0.7-0.9-0.8-1.6h-0.7v2.1h-1.4v-5.2h1.4L36.7,41.4L36.7,41.4z M38.8,42.1
		c0,0.5,0.1,0.9,0.3,1.1c0.2,0.3,0.5,0.4,0.8,0.4s0.6-0.1,0.8-0.4c0.2-0.3,0.3-0.7,0.3-1.2s-0.1-0.9-0.3-1.1s-0.5-0.4-0.8-0.4
		s-0.6,0.1-0.8,0.4C38.9,41.1,38.8,41.5,38.8,42.1z M44.5,39.4v4.1h1.4v-4.1h1.4v4.1h1.4v-4.1h1.4v4.1h1L51,46.2h-1.3v-1.6h-6.6
		v-5.2C43.2,39.4,44.5,39.4,44.5,39.4z M54.2,44.8c-0.8,0-1.4-0.2-1.8-0.7c-0.5-0.5-0.7-1.1-0.7-1.9V42c0-0.5,0.1-1,0.3-1.4
		s0.5-0.7,0.8-1c0.4-0.2,0.8-0.3,1.2-0.3c0.7,0,1.3,0.2,1.7,0.7s0.6,1.1,0.6,1.9v0.6H53c0,0.3,0.2,0.6,0.4,0.8s0.5,0.3,0.8,0.3
		c0.5,0,0.9-0.2,1.2-0.6l0.7,0.8c-0.2,0.3-0.5,0.5-0.8,0.7C55.1,44.7,54.7,44.8,54.2,44.8z M54.1,40.4c-0.3,0-0.5,0.1-0.7,0.3
		s-0.3,0.5-0.3,0.8H55v-0.1c0-0.3-0.1-0.5-0.2-0.7C54.6,40.5,54.4,40.4,54.1,40.4z M60.3,39.4h1.4v5.2h-1.4v-3.2l-1.7,3.2h-1.4v-5.2
		h1.4v3.2L60.3,39.4z M61.1,37.3c0,0.4-0.2,0.8-0.5,1c-0.3,0.3-0.7,0.4-1.2,0.4s-0.9-0.1-1.2-0.4s-0.5-0.6-0.5-1h1
		c0,0.2,0.1,0.4,0.2,0.5s0.3,0.2,0.5,0.2s0.4-0.1,0.5-0.2c0.1-0.1,0.2-0.3,0.2-0.5H61.1L61.1,37.3z M67.3,43.6
		c0.2,0,0.5-0.1,0.6-0.2s0.2-0.3,0.2-0.6h1.3c0,0.4-0.1,0.7-0.3,1s-0.4,0.5-0.8,0.7c-0.3,0.2-0.7,0.2-1.1,0.2
		c-0.7,0-1.3-0.2-1.7-0.7c-0.4-0.5-0.6-1.1-0.6-2l0,0c0-0.8,0.2-1.5,0.6-1.9c0.4-0.5,1-0.7,1.7-0.7c0.6,0,1.2,0.2,1.5,0.6
		c0.4,0.4,0.6,0.9,0.6,1.5H68c0-0.3-0.1-0.5-0.2-0.7s-0.4-0.2-0.6-0.2c-0.3,0-0.6,0.1-0.7,0.4s-0.2,0.6-0.2,1.2v0.2
		c0,0.5,0.1,0.9,0.2,1.2C66.7,43.5,67,43.6,67.3,43.6z M74.9,42.1c0,0.8-0.2,1.5-0.5,1.9c-0.4,0.5-0.8,0.7-1.5,0.7
		c-0.5,0-0.9-0.2-1.3-0.5v2.5h-1.4v-7.3h1.3v0.5c0.3-0.4,0.8-0.6,1.3-0.6c0.6,0,1.1,0.2,1.5,0.7S74.9,41.2,74.9,42.1L74.9,42.1z
		 M73.5,42c0-0.5-0.1-0.9-0.2-1.1s-0.4-0.4-0.7-0.4c-0.4,0-0.7,0.2-0.9,0.5v2.2c0.2,0.3,0.5,0.5,0.9,0.5
		C73.2,43.6,73.5,43.1,73.5,42z M78.2,44.8c-0.8,0-1.4-0.2-1.8-0.7c-0.5-0.5-0.7-1.1-0.7-1.9V42c0-0.5,0.1-1,0.3-1.4
		c0.2-0.4,0.5-0.7,0.8-1c0.4-0.2,0.8-0.3,1.2-0.3c0.7,0,1.3,0.2,1.7,0.7c0.4,0.5,0.6,1.1,0.6,1.9v0.6H77c0,0.3,0.2,0.6,0.4,0.8
		c0.2,0.2,0.5,0.3,0.8,0.3c0.5,0,0.9-0.2,1.2-0.6l0.7,0.8c-0.2,0.3-0.5,0.5-0.8,0.7C79,44.7,78.6,44.8,78.2,44.8z M78,40.4
		c-0.3,0-0.5,0.1-0.7,0.3S77,41.2,77,41.5h1.9v-0.1c0-0.3-0.1-0.5-0.2-0.7C78.5,40.5,78.3,40.4,78,40.4z M81.2,43.5
		c0.3-0.3,0.5-0.7,0.6-1s0.2-0.8,0.2-1.4v-1.7h3.8v4.1h0.7v2.7h-1.4v-1.6h-3v1.6h-1.4v-2.7C80.7,43.5,81.2,43.5,81.2,43.5z
		 M82.8,43.5h1.7v-3h-1.1v0.6C83.3,42.2,83.1,42.9,82.8,43.5z M89.6,44.8c-0.8,0-1.4-0.2-1.8-0.7c-0.5-0.5-0.7-1.1-0.7-1.9V42
		c0-0.5,0.1-1,0.3-1.4c0.2-0.4,0.5-0.7,0.8-1c0.4-0.2,0.8-0.3,1.2-0.3c0.7,0,1.3,0.2,1.7,0.7c0.4,0.5,0.6,1.1,0.6,1.9v0.6h-3.3
		c0,0.3,0.2,0.6,0.4,0.8c0.2,0.2,0.5,0.3,0.8,0.3c0.5,0,0.9-0.2,1.2-0.6l0.7,0.8c-0.2,0.3-0.5,0.5-0.8,0.7
		C90.5,44.7,90.1,44.8,89.6,44.8z M89.5,40.4c-0.3,0-0.5,0.1-0.7,0.3s-0.3,0.5-0.3,0.8h1.9v-0.1c0-0.3-0.1-0.5-0.2-0.7
		C90,40.5,89.8,40.4,89.5,40.4z M81.4,13.9c0.1-3-1.7-3.1-1.7-3.1l-4.5-0.6c-0.1,0.5-0.2,1.1-0.2,1.6c0,3.1,2.1,5.7,4.9,6.6
		C80,18.4,81.4,16.9,81.4,13.9z M84,18.4c2.8-0.8,4.9-3.5,4.9-6.6c0-0.6-0.1-1.1-0.2-1.6l-4.5,0.6c0,0-1.7,0.1-1.7,3.1
		C82.6,16.9,84,18.4,84,18.4z M82,6.9c0.6,0,1,0.5,1,1s-0.3,0.8-0.7,1c0,0-0.1,0-0.1,0.1s0.2,0.1,0.3,0.1l6,0.7C87.8,7,85.1,5,82,5
		l0,0c-3.1,0-5.8,2.1-6.6,4.9l6-0.7c0.1,0,0.3-0.1,0.3-0.1s0-0.1-0.1-0.1C81.3,8.7,81,8.4,81,8C81,7.4,81.4,6.9,82,6.9L82,6.9z
		 M84.8,23.3l0.4-0.2c0,0-1.9-2.6-6.2-2.6c-2.2,0-3.3,0.9-4.9,0.9c0,0-0.6,0.1-1.2-0.3c0,0,0.7,1.1,3.4,1.1c2,0,3.3-1.1,4.7-1.1
		C82.8,20.9,84.2,22.6,84.8,23.3z M82.6,20.9c1.4,0,2.8,1.1,4.7,1.1c2.7,0,3.4-1.1,3.4-1.1c-0.6,0.4-1.2,0.3-1.2,0.3
		c-1.5,0-2.7-0.9-4.9-0.9c-4.3,0-6.2,2.6-6.2,2.6l0.4,0.2C79.3,22.6,80.7,20.9,82.6,20.9z M75.3,18c-0.5-0.8-1.6-2-1.6-2
		c0.1,0.4,0,1,0.3,1.9c0.5,1.6,1.5,2,1.7,2c0.1,0,0.1,0.2,0.1,0.2h-0.2c-1-0.6-2.2-0.8-3.2-0.9c-1.1-0.1-2.4-1.6-2.4-1.6
		c1.5,3.4,4.8,3,5.4,2.8s1.4,0.1,1.5-0.1C75.8,19.7,75.7,18.8,75.3,18z M73.2,18.1C72.9,17,72.9,17.3,73,16c0-1.3-0.7-2.7-0.7-2.7
		c-0.7,1.8-0.2,3.3-0.1,3.5c0.2,0.2,0.4,0.8,0.5,0.9s0.1,0.1,0,0.1s-1-1.1-1.5-1.7c-0.4-0.5-0.7-0.6-1.4-1.2c-0.7-0.6-1-1.6-1-1.6
		c-0.2,2.5,1.6,4,2.5,4.3s1.5,0.6,1.6,0.6s0.3,0.2,0.4,0.1C73.4,18.4,73.2,18.1,73.2,18.1z M71.2,15c-0.1-0.7,0.1-1,0.6-2.3
		c0.5-1.4,0.4-2.8,0.4-2.8C72.1,10,72,10.2,72,10.2c-0.1,0.3-0.4,0.6-0.4,0.6c-0.5,0.5-0.7,1.4-0.7,1.9s0,1.3,0,1.3s0,0.2-0.1,0.2
		S70.7,14,70.7,14c-0.1-0.8-0.4-1.6-0.8-2.1s-0.8-1.6-0.8-2.1S69,9.2,69,9.2c-0.9,2.1,0.3,3.6,0.4,3.8s1.2,1.4,1.4,1.6
		c0.2,0.3,0.3,0.5,0.4,0.5C71.2,15.2,71.2,15,71.2,15z M70.4,11.2c0-0.1,0.2-0.4,0.2-0.4c0.4-1,0-0.4,1.1-1.5
		C72.9,7.9,73,6.8,73,6.8c-0.2,0.3-1.2,0.8-1.8,1.5c-0.6,0.7-0.6,1.5-0.6,1.5s0,0.1-0.1,0.1s0-0.1,0-0.1c0.1-0.2,0.1-1.2,0.1-1.5
		c0-0.4-0.1-1.2-0.1-1.3s-0.2-0.8,0.1-1.4c0.2-0.7,0.3-1,0.3-1c-1,1-1.4,2.3-1.4,3.3s0.4,1.8,0.5,1.9c0.1,0.2,0.2,1,0.3,1.1
		S70.3,11.2,70.4,11.2C70.3,11.2,70.4,11.2,70.4,11.2z M71.3,7.2C71.9,6.4,72,6.6,73,6s2.2-1.7,2.2-1.7c-0.1,0.1-1.1,0.4-1.7,0.5
		c-0.7,0.1-1.2,0.8-1.3,1C72,5.9,71.9,6,71.9,6S71.8,6,72,5.7s0.8-1.3,1-1.9c0.1-0.6,0.6-1.5,0.7-1.7C73.8,2,74,1.8,74,1.8
		c-1.8,0.9-2.3,2.4-2.5,3.3s0,1.5-0.2,1.8S71,7.4,71,7.4C71.1,7.4,71.3,7.2,71.3,7.2z M73.6,4c0.3-0.2-0.1-0.2,1.8-0.5
		C77.2,3.2,78,2.6,78,2.6c-0.1,0-1,0-1.8,0s-1.5,0.5-1.5,0.5s-0.1,0.1-0.2,0L74.6,3c0.2-0.1,1-0.6,1.2-0.9c0.2-0.2,0.8-1,0.9-1.1
		s0.7-0.6,0.7-0.6c-1.9,0.3-2.7,1.6-3,2.1s-0.5,1-0.7,1.2S73.5,4,73.6,4C73.5,4.1,73.6,4,73.6,4z M77.1,1.9c0.2,0,0.7,0,1.1,0.2
		s1.3,0.3,1.7,0.3s0.9,0,0.9,0c0-0.1-0.3-0.1-0.5-0.2c-0.2-0.1-0.2-0.1-0.8-0.4C78.9,1.7,78,1.7,78,1.7h-0.2c0,0-0.2,0,0.2-0.1
		c0.4-0.1,1.4-0.5,1.6-0.6s0.9-0.3,0.9-0.3L81,0.6c-0.9-0.4-1.9-0.2-2.8,0.3S77.3,1.7,77,1.7c-0.3,0.1-0.3,0.2-0.3,0.2
		C76.8,2,77,2,77.1,1.9z M80.8,1.7c0.1,0,0.6,0.6,1,0.8S83.4,3,83.4,3S83,2.8,82.6,2.3s-0.8-0.4-0.8-0.5c-0.1,0-0.6-0.1-0.5-0.2
		s0.5,0,0.8,0s1.2-0.2,1.3-0.2c0.1,0,0.6,0,0.6,0c-0.8-0.6-1.8-0.5-2.4-0.3c-0.6,0.1-0.7,0.3-0.9,0.3s-0.3,0.1-0.3,0.1
		S80.7,1.6,80.8,1.7z M84.2,2.7c0.1,0.1,0.7,0.4,1,0.5c0.2,0.1,0.5,0.3,0.5,0.3c0-0.3-0.5-0.8-1.1-1.1C84.1,2,83.3,2,83.3,2
		C83.4,2.1,84.1,2.6,84.2,2.7z M87.5,20.3c0.1,0,0.2,0,0.7,0.1c0.4,0.1,1.3,0.1,1.3,0.1c2.1,0,3.6-2,3.9-2.3s0.5-1,0.5-1
		c-0.7,1.2-2.6,1.6-3.1,1.8s-0.7,0.2-0.9,0.3s-0.8,0.4-0.9,0.5S88.5,20,88.5,20S88,20.1,88,20l0.2-0.2c0.6-0.3,0.6-0.5,1.1-1
		s0.6-1.6,0.6-1.7s0.2-0.8,0.2-0.8c-0.8,0.8-1.2,1.3-1.6,2s-0.5,1.2-0.9,1.6S87,20.3,87,20.3C87.1,20.4,87.5,20.3,87.5,20.3z
		 M91.7,13.2c0,0-0.8,1.2-1,3c-0.2,1.8,0.1,1.2-0.2,2l-0.1,0.2c0,0,0.2-0.1,0.8-0.4c0.6-0.3,1.1-0.2,2.3-1.4
		c1.2-1.1,1.4-3.4,1.5-3.6c0,0-0.2,0.2-0.3,0.5s-0.3,0.5-0.3,0.6c0,0-1.3,1.5-1.5,1.6s-0.9,1-1.1,1.3s-0.7,0.8-0.7,0.7
		c0,0,0-0.1,0-0.2s0.4-0.6,0.5-1.1c0.2-0.6,0.2-0.9,0.2-1.3C91.9,14.8,91.7,13.5,91.7,13.2z M93.2,14.2c0.4-0.7,0.4-0.3,1.3-1.8
		c0.8-1.4,0.5-3,0.5-3c-0.2,0.9-1.2,2.2-1.4,2.8c-0.2,0.6-0.4,1.1-0.4,1.2c0,0.1-0.1,0.2-0.1,0.2s0-0.2,0.1-1s-0.7-2.1-0.8-2.2
		c-0.1-0.1-0.3-0.9-0.3-0.9s-0.1,0.1-0.1,1s0.5,2.3,0.7,2.8s0.2,1.1,0.2,1.2c-0.1,0.1,0,0.3,0,0.3C92.8,14.9,92.9,14.9,93.2,14.2z
		 M93.7,10.7c0-0.1,0.2-0.7,0.2-0.8c0.1-0.1,0.5-1,0.6-2.1c0-1.1-0.5-1.9-0.5-1.9c0.1,0.4-0.1,1.3-0.2,1.8s-0.1,1.6-0.1,1.6
		s0,0.5-0.1,0.5s0-0.4-0.2-0.9s-0.7-1-0.9-1.1c-0.1-0.1-1-0.9-1-0.9c0.3,1.5,1.6,3.1,1.7,3.3c0.2,0.2,0.1,0.8,0.2,0.8
		C93.5,10.9,93.7,10.8,93.7,10.7z M92.3,4.1c0,0.4,0.2,1,0.4,1.3c0.2,0.3,0.2,0.5,0.3,0.7c0.1,0.2,0,0.2,0,0.2
		c-0.1-0.2-0.2-0.6-0.7-1s-0.9-0.6-1-0.6s-0.5-0.3-0.7-0.4s-0.2-0.1-0.2-0.1c0.7,1.4,2.2,2.4,2.3,2.5c0.2,0.1,0.5,0.6,0.6,0.7
		s0.1,0,0.1,0C93.7,4,92,3,92,3C92.2,3.2,92.3,3.7,92.3,4.1z M91.7,4.2c0,0,0-0.2-0.1-0.5c-0.2-0.3,0-0.7-0.6-1.5
		c-0.3-0.5-1.3-0.8-1.3-0.8S90,1.8,90.2,2s0.2,0.4,0.3,0.5S90.9,2.8,91,3c0,0,0.1,0.1,0.1,0.2c0,0.1-0.1,0-0.2-0.1
		c0,0-0.7-0.5-1-0.6c-0.4-0.1-1.1-0.1-1.3-0.2c0,0,0.9,0.8,1.8,1C91.4,3.6,91.7,4.2,91.7,4.2z M89.7,2.1c0,0-0.9-1.2-2.5-1.2
		c0,0,0.1,0.1,0.3,0.1c0.2,0,0.5,0.4,0.7,0.5C88.3,1.6,88.7,1.8,89.7,2.1z M19.5,12.2c0,1.7-0.2,3.3-0.7,4.7s-1.1,2.5-2,3.5
		c-0.8,1-1.9,1.7-3,2.2c-1.2,0.5-2.5,0.8-3.9,0.8s-2.8-0.4-4-0.9s-2.2-1.2-3.1-2.2s-1.5-2.1-2-3.5s-0.7-2.9-0.7-4.7v-1
		c0-1.7,0.2-3.3,0.7-4.6C1.3,5.1,2,4,2.8,3s1.9-1.7,3-2.2C7.1,0.3,8.4,0,9.8,0s2.7,0.3,3.9,0.8s2.2,1.2,3,2.2c0.8,1,1.5,2.1,2,3.5
		s0.7,2.9,0.7,4.6L19.5,12.2L19.5,12.2z M14.7,11.1c0-2.4-0.4-4.2-1.3-5.4c-0.8-1.2-2.1-1.9-3.6-1.9C8.2,3.9,7,4.5,6.2,5.7
		s-1.3,3-1.3,5.4v1c0,1.2,0.1,2.2,0.3,3.1c0.2,0.9,0.5,1.7,1,2.3c0.4,0.6,0.9,1.1,1.5,1.4s1.3,0.5,2.1,0.5c1.6,0,2.8-0.6,3.6-1.9
		s1.3-3.1,1.3-5.4V11.1L14.7,11.1z M41.5,12.2c0,1.7-0.2,3.3-0.7,4.7s-1.1,2.5-2,3.5c-0.8,1-1.9,1.7-3,2.2c-1.2,0.5-2.5,0.8-3.9,0.8
		s-2.7-0.3-3.9-0.8c-1.2-0.5-2.2-1.2-3.1-2.2s-1.5-2.1-2-3.5s-0.7-2.9-0.7-4.7v-1c0-1.7,0.2-3.3,0.7-4.6C23.3,5.1,24,4,24.9,3
		c0.8-1,1.9-1.7,3-2.2C29.1,0.3,30.4,0,31.8,0c1.4,0,2.7,0.3,3.9,0.8s2.2,1.2,3,2.2s1.5,2.1,2,3.5s0.7,2.9,0.7,4.6L41.5,12.2
		L41.5,12.2z M36.7,11.1c0-2.4-0.4-4.2-1.3-5.4c-0.8-1.2-2.1-1.9-3.6-1.9c-1.6,0-2.8,0.6-3.6,1.9c-0.8,1.2-1.3,3-1.3,5.4v1
		c0,1.2,0.1,2.2,0.3,3.1c0.2,0.9,0.5,1.7,1,2.3c0.4,0.6,0.9,1.1,1.5,1.4s1.3,0.5,2.1,0.5c1.6,0,2.8-0.6,3.6-1.9s1.3-3.1,1.3-5.4
		V11.1L36.7,11.1z M63.3,23h-4.7v-9.7h-9.1V23h-4.7V0.3h4.7v9.2h9.1V0.3h4.7V23z"/>
</g>
<g>
	<g>
		<g>
			<path class="st0" d="M135.1,20.5c0,0-1,1.3-1.2,3.2c-0.2,1.9,0.2,1.3-0.2,2.2l-0.1,0.2c0,0,0.2-0.1,0.9-0.5s1.4-0.3,2.9-1.5
				s1.8-3.7,1.8-3.9c0,0-0.2,0.2-0.3,0.5c-0.1,0.3-0.4,0.6-0.4,0.6c-0.1,0-1.7,1.6-1.9,1.7c-0.1,0.3-1.1,1.3-1.3,1.6
				c-0.2,0.3-0.8,0.8-0.9,0.8c0,0,0-0.1,0.1-0.2s0.5-0.6,0.7-1.2s0.2-1,0.2-1.4C135.4,22.2,135.1,20.8,135.1,20.5"/>
		</g>
	</g>
	<g>
		<g>
			<path class="st0" d="M136.4,22.4c0,0-0.1-0.2,0-0.3c0.1-0.1,0.1-0.7-0.2-1.3c-0.3-0.5-0.9-2-0.9-3c0.1-1,0.2-1.1,0.2-1.1
				s0.3,0.8,0.4,1c0.1,0.1,1.1,1.6,1,2.4c-0.1,0.8-0.1,1-0.1,1.1c0.1,0,0.2-0.1,0.2-0.2s0.2-0.6,0.5-1.3c0.3-0.6,1.5-2.1,1.8-3
				c0,0,0.4,1.7-0.7,3.2c-1.1,1.5-1.2,1.2-1.6,1.9C136.6,22.3,136.5,22.4,136.4,22.4"/>
		</g>
	</g>
	<g>
		<g>
			<path class="st0" d="M137.4,18c-0.1,0,0-0.6-0.2-0.8s-1.8-1.9-2.2-3.5c0,0,1,0.9,1.2,1s0.9,0.7,1.1,1.2c0.2,0.5,0.2,1,0.2,1
				c0.1,0,0.1-0.6,0.1-0.6s0-1.2,0.1-1.7c0.1-0.5,0.4-1.5,0.3-1.9c0,0,0.6,0.9,0.6,2.1s-0.6,2.2-0.7,2.3c-0.1,0.1-0.3,0.7-0.3,0.8
				C137.6,17.9,137.4,18,137.4,18"/>
		</g>
	</g>
	<g>
		<g>
			<path class="st0" d="M135.5,9.4c0,0,2.1,1.1,1.8,4.8c0,0,0,0.2-0.1,0s-0.6-0.7-0.8-0.8s-2.1-1.1-2.9-2.6c0,0,0.1,0,0.3,0.1
				s0.8,0.4,0.9,0.5c0.1,0,0.8,0.2,1.2,0.7c0.4,0.5,0.7,0.8,0.8,1.1c0,0,0.1,0.1,0.1-0.2c-0.1-0.3-0.1-0.5-0.4-0.8
				c-0.2-0.3-0.5-1-0.5-1.4C135.8,10.3,135.7,9.6,135.5,9.4"/>
		</g>
	</g>
	<g>
		<g>
			<path class="st0" d="M135.1,10.7c0,0,0.1-0.2-0.2-0.6s-0.1-0.7-0.7-1.6c-0.4-0.5-1.6-0.9-1.6-0.9s0.4,0.4,0.6,0.7
				c0.2,0.2,0.3,0.4,0.4,0.5c0.1,0.1,0.5,0.5,0.7,0.7c0,0,0.1,0.1,0.1,0.2s-0.2,0-0.2-0.1c-0.1,0-0.8-0.5-1.3-0.6s-1.4-0.2-1.7-0.3
				c0,0,1.1,0.9,2.3,1.1C134.7,10.1,135.1,10.7,135.1,10.7"/>
		</g>
	</g>
	<g>
		<g>
			<path class="st0" d="M133.9,26.7c-0.6,0.2-0.9,0.3-1.2,0.4s-1,0.4-1.2,0.5s-0.7,0.2-0.7,0.2s-0.5,0.1-0.5,0l0.2-0.2
				c0.7-0.4,0.7-0.5,1.3-1.1c0.6-0.6,0.8-1.7,0.8-1.9c0-0.2,0.2-0.8,0.2-0.8c-1.1,0.8-1.5,1.4-2,2.2c-0.2,0.3-0.3,0.5-0.4,0.7
				c-0.3,0.8-0.7,1.4-1.2,1.4l0,0c-0.1,0.1-0.1,0.1-0.1,0.1c0.1,0,0.6,0,0.7-0.1c0.1,0,0.3,0,0.8,0.1s1.6,0.2,1.6,0.2
				c2.6,0,4.5-2.1,4.8-2.5c0.3-0.4,0.6-1.1,0.6-1.1C136.8,26.1,134.5,26.6,133.9,26.7"/>
		</g>
	</g>
</g>
<g>
	<defs>
		<circle id="SVGID_1_" cx="133" cy="17.7" r="10.4"/>
	</defs>
	<clipPath id="SVGID_00000146485509287505884660000011719929618441053362_">
		<use xlink:href="#SVGID_1_"  style="overflow:visible;"/>
	</clipPath>
	<g style="clip-path:url(#SVGID_00000146485509287505884660000011719929618441053362_);">
		<g class="st2">
			<g>
				<defs>
					<circle id="SVGID_00000145741787792407930590000015250169334402783408_" cx="133" cy="17.8" r="10.4"/>
				</defs>
				<use xlink:href="#SVGID_00000145741787792407930590000015250169334402783408_"  style="overflow:visible;fill:#FFFFFF;"/>
				<clipPath id="SVGID_00000008850669706826854710000015269517699942230147_">
					<use xlink:href="#SVGID_00000145741787792407930590000015250169334402783408_"  style="overflow:visible;"/>
				</clipPath>
			</g>
		</g>
	</g>
	<g style="opacity:0.6;clip-path:url(#SVGID_00000146485509287505884660000011719929618441053362_);">
		<path class="st0" d="M132.5,9.7c0.1,0.1,0.1,0.2,0.2,0.2"/>
	</g>
	<g style="opacity:0.6;clip-path:url(#SVGID_00000146485509287505884660000011719929618441053362_);">
		<path class="st0" d="M127.1,19.1L127.1,19.1L127.1,19.1z"/>
	</g>
	<g style="opacity:0.6;clip-path:url(#SVGID_00000146485509287505884660000011719929618441053362_);">
		<path class="st0" d="M126.8,19.9L126.8,19.9L126.8,19.9z"/>
	</g>
	<g style="opacity:0.6;clip-path:url(#SVGID_00000146485509287505884660000011719929618441053362_);">
		<path class="st0" d="M126.6,20.4L126.6,20.4L126.6,20.4L126.6,20.4L126.6,20.4z"/>
	</g>
	<g style="opacity:0.6;clip-path:url(#SVGID_00000146485509287505884660000011719929618441053362_);">
		<path class="st0" d="M126.5,19.5L126.5,19.5L126.5,19.5L126.5,19.5z"/>
	</g>
	<g style="opacity:0.6;clip-path:url(#SVGID_00000146485509287505884660000011719929618441053362_);">
		<path class="st0" d="M131.6,19.3C131.5,19.3,131.5,19.3,131.6,19.3C131.6,19.3,131.6,19.2,131.6,19.3L131.6,19.3z"/>
	</g>
	<g style="opacity:0.6;clip-path:url(#SVGID_00000146485509287505884660000011719929618441053362_);">
		<path class="st0" d="M133,20.3C133,20.3,133,20.4,133,20.3C133,20.4,133,20.4,133,20.3z"/>
	</g>
	<g style="opacity:0.6;clip-path:url(#SVGID_00000146485509287505884660000011719929618441053362_);">
		<path class="st4" d="M144,15.2c-0.1,0-0.2-0.1-0.2-0.2c0-0.2-0.1-0.5,0.2-0.7c0.1-0.1,0.1-0.2-0.1-0.2s-0.2-0.1-0.2-0.3
			s-0.1-0.3-0.3-0.3c-0.2,0-0.3,0.2-0.3,0.3s0.1,0.3-0.2,0.3c-0.2,0-0.2-0.1-0.3-0.2c-0.1-0.1-0.1-0.2-0.2-0.1
			c-0.1,0.1-0.1,0-0.2-0.1c-0.1-0.1-0.2-0.3-0.4-0.1h-0.1c-0.1-0.1-0.2-0.2-0.2-0.4c-0.1,0-0.1,0.1-0.1,0.1
			c-0.1,0.2-0.4,0.3-0.6,0.2c-0.1-0.1-0.2-0.2-0.2,0c0,0.1-0.1,0.2,0.1,0.3c0.1,0,0.3,0.2,0.2,0.3c-0.1,0.2-0.1,0.4-0.1,0.6
			c0,0,0,0.1-0.1,0.1c-0.1,0-0.2,0.1-0.3,0.1c-0.2,0-0.2,0.2-0.1,0.3c0,0.1,0,0.2-0.1,0.2c-0.2,0-0.2,0.2-0.3,0.3
			c-0.2,0.2,0,0.4-0.1,0.6c0,0.1-0.1,0.3,0,0.3c0.1,0,0.2-0.1,0.2-0.2c0.1-0.2,0.3-0.4,0.6-0.2c-0.1,0.2-0.3,0.3-0.4,0.5
			c-0.1,0.1-0.2,0.2-0.1,0.4c0.1,0.1,0,0.2,0,0.3c-0.1,0.1-0.1,0-0.2-0.1s-0.2,0-0.2,0.1c0,0,0,0.1,0,0.2c0,0.3-0.1,0.4-0.4,0.3
			c-0.1,0-0.1-0.2-0.2-0.3c-0.5,0.4-0.8,0.4-1.3,0c-0.1-0.1-0.1,0-0.2,0c-0.1,0.2-0.3,0.2-0.5,0.2c-0.1,0-0.1,0-0.2,0
			c-0.2,0-0.2-0.1-0.2-0.2c0-0.2,0.1-0.3,0.2-0.3c0.1,0,0.2,0,0.2-0.2c0-0.3,0-0.3,0.3-0.3c0.2,0,0.2-0.1,0.2-0.2s-0.1-0.2-0.1-0.2
			c-0.1-0.1-0.2-0.2-0.1-0.4c0,0,0,0,0-0.1h-0.1h-0.1c-0.2,0-0.1,0-0.1,0.2c0.1,0.1,0.1,0.2,0,0.4c-0.1,0.1-0.2,0.1-0.3,0.1
			s-0.2,0-0.2,0.1c0,0.2-0.2,0.3-0.4,0.4c-0.1-0.1-0.1-0.2-0.1-0.3c0-0.1-0.1-0.1-0.1-0.2c0,0,0-0.1-0.1-0.1c-0.1,0-0.1,0-0.1,0.1
			c-0.1,0.2,0,0.6,0.2,0.7c0.1,0.1,0.1,0.2,0.1,0.3c0,0.1-0.1,0.2-0.2,0.2c-0.2,0-0.4,0-0.5-0.2c-0.2-0.3-0.2-0.6-0.1-0.8
			c0.1-0.1,0.1-0.2,0-0.2c-0.1-0.1-0.1-0.2,0-0.3c0.1-0.1,0.1-0.2,0-0.2c-0.1-0.1-0.1-0.1,0-0.2c0.1-0.1,0.1-0.2,0.3-0.3
			c0.1,0,0.1-0.1,0-0.1c-0.1,0-0.1-0.3-0.2-0.1c0,0-0.1,0.1-0.1,0c-0.1,0-0.1-0.1-0.1-0.1l0.1-0.1c0.2,0,0.1-0.1,0.1-0.2
			c0,0,0-0.1,0-0.2c0.1-0.4,0.2-0.7,0.3-1.1c0-0.1,0.1-0.3,0.2-0.4c0,0-0.1-0.1,0-0.2c0.1,0,0.1-0.1,0.3,0c-0.1-0.1-0.2-0.2-0.1-0.4
			c0-0.1,0-0.3-0.1-0.3s-0.2,0.1-0.3,0.2c-0.1,0-0.1,0.2-0.1,0.1s-0.2-0.1-0.3-0.2c0.1,0,0.1-0.1,0.2-0.1s0.1-0.1,0-0.2
			c0,0,0-0.1-0.1-0.1c-0.1,0-0.2-0.1-0.2-0.2v-0.1c0-0.1,0-0.2-0.2-0.1c-0.2,0.1-0.4,0-0.4-0.1c-0.2,0.2-0.4,0-0.5-0.1
			c-0.1-0.1-0.2-0.1-0.3,0c0,0.1-0.1,0.1-0.2,0.1c-0.1-0.1-0.3,0-0.5-0.1c-0.1,0.2-0.3,0.4-0.4,0.3c-0.1-0.1-0.2,0-0.3,0l0,0l0,0
			c0-0.1,0.1-0.2,0-0.3c-0.1-0.1-0.3-0.2-0.4-0.2c-0.2,0.1-0.3-0.1-0.4-0.2c-0.1-0.1-0.2-0.2-0.2,0c0,0.1-0.2,0-0.2,0.1
			c0.1,0.2,0.1,0.3,0.1,0.5c-0.1,0-0.1-0.1-0.1-0.1c-0.1,0-0.1-0.1-0.2-0.1s-0.1,0.2,0,0.2v0.1c0.1,0.3,0.1,0.3-0.3,0.4
			c0-0.1,0-0.1-0.1-0.3c-0.1-0.1-0.1-0.2-0.3-0.2h-0.1c-0.1-0.3-0.2-0.1-0.3,0c-0.1,0.1-0.1,0.2-0.1,0.3s0,0.1,0,0.2
			c-0.1,0.2-0.2,0.4-0.3,0.6c0,0.1-0.1,0.1,0,0.1c0.2,0.1,0.2,0.2,0.3,0.4v0.1h-0.1c-0.1,0-0.1-0.1-0.1,0s-0.1,0.2-0.2,0.2
			c-0.1,0-0.2-0.1-0.2-0.2c0-0.1,0-0.2,0.1-0.3c-0.1,0-0.2,0-0.3,0.1c0,0.1-0.1,0.2-0.2,0c0-0.1-0.1-0.1-0.2-0.1
			c-0.1,0-0.1,0.1-0.1,0.2c-0.1,0.1-0.1,0.2-0.2,0.4c-0.1,0.2-0.2,0.2-0.4,0.1c-0.1-0.1-0.2-0.2-0.3-0.2s-0.2,0-0.2-0.1
			c-0.1-0.1-0.1-0.2-0.2-0.1c-0.2,0-0.3,0-0.4-0.3c0-0.1-0.1-0.2-0.2-0.3c-0.2-0.1-0.2-0.3-0.1-0.5c0.1-0.1,0.1-0.1,0-0.2
			c-0.1-0.1-0.1-0.1-0.2-0.1s-0.3,0-0.4-0.1c0.1-0.1,0.2,0,0.2-0.1s-0.1-0.1-0.2-0.2c-0.1,0-0.1,0-0.1-0.1s-0.1-0.2,0-0.2
			c0.1,0.1,0.2-0.1,0.4,0c0.1,0.1,0.3,0.1,0.4,0.1c0.3,0,0.3,0,0.3-0.3c0-0.2,0.1-0.6,0.2-0.7c0.2,0,0.2-0.2,0.2-0.3
			s-0.1-0.3-0.2-0.4c-0.1,0-0.3-0.1-0.4,0.1h-0.1c-0.2-0.1-0.3,0-0.4,0.1c-0.1,0.1-0.2,0.2-0.3,0.2v0.1l0,0c0,0,0-0.1,0.1-0.1
			c0-0.2-0.1-0.2-0.2-0.1s-0.2,0.1-0.1,0.2c0.2,0.2-0.1,0.4-0.1,0.5l0,0c0,0.1,0,0.1-0.1,0.2c-0.1-0.1-0.1-0.2-0.2,0
			c-0.1,0.2-0.2,0.1-0.3-0.1c0,0.2,0,0.3-0.2,0.3c-0.1,0-0.1,0-0.1,0.1c0.1,0.1,0,0.2-0.1,0.3c0,0.1,0.1,0.2,0.1,0.4
			c0,0.1-0.1,0.1-0.1,0.2c-0.1,0-0.2,0.1-0.2,0.2c0,0.1-0.1,0.1-0.1,0.1c-0.2,0.1-0.3,0.3-0.2,0.4c0,0.2-0.1,0.4-0.2,0.6
			c0,0-0.2,0-0.3,0.1c-0.1,0-0.1,0-0.2,0.1c0,0.1,0.3,0.2,0.1,0.3c-0.1,0-0.1,0.1-0.1,0.2c0,0.1-0.1,0.2-0.2,0.2s-0.1-0.1,0-0.2
			c0,0,0,0,0-0.1c0.1-0.5,0.1-1,0.4-1.4c0.2-0.2,0.2-0.5,0.4-0.7c0.1,0,0.1-0.2,0-0.3c-0.1-0.1-0.1-0.2,0.1-0.2c0.1,0,0.2-0.1,0.3,0
			c0.2,0,0.2,0,0.2-0.2s-0.1-0.4-0.2-0.5l0,0c-0.4,0.1-0.6,0.5-0.7,0.8c0,0.3-0.2,0.5-0.4,0.7c-0.1,0.1-0.3,0.3-0.2,0.5
			c0.1,0.1,0,0.2,0,0.4c0,0.1-0.1,0.1-0.2,0.1s-0.1,0-0.1,0c0,0.1-0.1,0.2-0.1,0.3s-0.1,0.3-0.1,0.3c-0.2,0.1-0.1,0.2-0.1,0.4
			c0.1,0.2,0.1,0.3,0.1,0.5c-0.2,0.7-0.2,1.4-0.3,2.1c0,0.2,0,0.5,0,0.7c0.1,0.6,0.2,1.2,0.3,1.8c0,0.7,0.2,1.3,0.7,1.9
			c0.3,0.3,0.5,0.8,0.6,1.2c0.1,0.3,0.3,0.6,0.5,0.8c0.2,0.3,0.5,0.5,0.7,0.8c0.2,0.2,0.3,0.4,0.6,0.5c0.1,0,0.1,0.1,0.2,0.2
			s0.1,0.2,0.2,0.3c0.1,0,0.2,0,0.3,0.1l0.1,0.1c0.3,0,0.3,0.3,0.6,0.3c0.1,0,0.1,0,0.1,0.1s0.1,0.1,0.2,0c0.1-0.1,0.1-0.1,0-0.2
			c-0.1-0.1-0.2-0.3-0.4-0.4c-0.1-0.1-0.1-0.3-0.2-0.4c-0.2-0.2-0.2-0.4-0.2-0.6s0-0.3,0-0.5s-0.1-0.3-0.2-0.4
			c-0.2-0.1-0.4-0.3-0.5-0.5c-0.1-0.1-0.2-0.2-0.2-0.3c0,0,0-0.1-0.1-0.1c-0.1,0-0.1,0-0.1,0.1c0,0,0,0.1-0.1,0c0-0.1,0-0.2,0-0.2
			c0-0.1,0-0.1-0.1-0.1c-0.2,0-0.2-0.2-0.2-0.3c0-0.2,0-0.2-0.2-0.1c-0.1,0-0.2,0-0.3-0.1s-0.2-0.2-0.4-0.2c-0.1,0-0.2-0.1-0.1-0.1
			c0.1-0.2-0.1-0.5,0.2-0.7c0.1,0,0-0.1-0.1-0.2c-0.1-0.1-0.1-0.3,0-0.4c0.2-0.3,0.2-0.3-0.1-0.5c-0.1-0.1-0.2-0.2,0-0.3
			c0.1-0.1,0.1-0.1,0.1-0.2c0-0.2,0.1-0.3,0.2-0.3s0.3,0,0.4,0c0,0,0.1,0,0.1-0.1s0.1-0.2,0-0.3c-0.1,0-0.1-0.1-0.1-0.2
			s0.1-0.1,0.2-0.1s0.2,0,0.3-0.1s0.2,0,0.2,0c0.3,0.1,0.6,0.1,0.8,0c-0.2,0-0.4,0-0.6-0.1c-0.1,0-0.2,0-0.1-0.2
			c0.1-0.1,0.1-0.2,0.2-0.1c0.1,0.1,0.3,0,0.4,0h0.3l0,0c0-0.1,0.1-0.2,0.2-0.2h0.1c0-0.1,0.1-0.1,0.1-0.2c0.6,0,0.6-0.1,0.6-0.2
			c0-0.2,0.1-0.2,0.2-0.3c0-0.1,0-0.2,0.1-0.3l0.1-0.1c0,0-0.1,0-0.1-0.1c0-0.3-0.1-0.5-0.4-0.4c-0.1,0-0.1,0-0.2-0.1
			c-0.1-0.1-0.1-0.2,0-0.2c0.2-0.1,0.2-0.3,0.2-0.5c0-0.1,0-0.4,0.2-0.3c0.1,0,0.3,0,0.4,0c0.2,0,0.2,0.1,0.2,0.2
			c0.1,0.1-0.1,0.1-0.1,0.1l0,0l0,0c0,0,0,0,0.1,0c0-0.1,0-0.2-0.1-0.1c-0.1,0.1-0.1,0.2,0,0.3c0,0.1,0.1,0.2,0.2,0.1
			c0.1-0.1,0.1-0.1,0.2,0c0.1,0.1,0.2,0,0.4,0c0-0.1,0.1-0.3-0.1-0.3c-0.3-0.1-0.3-0.3-0.2-0.5v0.1c0,0.2,0.1,0.1,0.2,0.1
			c0.2,0,0.1-0.1,0.1-0.2c0-0.2,0.1-0.3,0.3-0.2s0.4,0,0.4,0.2h0.1c0.1,0,0.1,0,0.2,0c0,0,0,0,0,0.1s-0.1,0.1,0,0.2
			c0.1,0.1,0.1-0.1,0.1-0.1c0.1,0,0.2,0,0.2,0c0.2,0.2,0.2,0,0.2-0.1c0,0-0.1-0.1,0-0.2c0.2,0.3,0.3,0.3,0.4,0.2
			c0.2-0.1,0.2,0,0.2,0.1c0.1,0.1,0,0.2-0.1,0.3c-0.1,0.1-0.1,0.2-0.1,0.3c0.1,0.1,0,0.2-0.1,0.2c-0.2,0-0.4,0-0.5-0.2
			c-0.1,0.1-0.2,0.2,0.1,0.2c0.1,0,0.2,0.1,0.1,0.2c-0.1,0.1-0.1,0.3,0,0.4c0.1,0,0.1,0,0.1-0.1c0-0.2,0.1-0.3,0.2-0.3
			c0.1,0,0.1,0.2,0.1,0.3s0,0.2,0.1,0.2c0.1,0,0.1,0,0.2,0s0.1,0,0.2,0c0,0,0,0,0.1,0c0.1,0,0.1-0.2,0.1-0.3s0.1-0.2,0.2-0.2
			c0.1,0,0.1,0.1,0.1,0.2c0,0.2,0,0.3,0.2,0.3h0.1c0.1,0,0.1,0,0.2,0c-0.1-0.2,0-0.3-0.1-0.5c0-0.1,0-0.2-0.1-0.3v-0.1
			c0.2-0.1,0.3-0.3,0.4-0.3c0.1,0,0.3-0.1,0.2-0.3c0-0.2,0.2-0.4,0.4-0.4h0.1c0.1,0,0.1-0.2,0.2-0.1c0.1,0.1,0.2,0.2,0.2,0.3
			c0.1,0.2-0.1,0.2-0.2,0.2c-0.2,0-0.1,0.1-0.1,0.2c0,0.2,0.2,0.4,0.4,0.5c0.1,0.1,0.1,0.1,0.2,0.2c0.2,0.2,0.2,0.2,0,0.3
			s-0.2,0.4-0.3,0.6c0,0,0-0.1-0.1-0.1v0.1l0.1,0.1c0,0.1,0,0.1,0,0.2v0.1l0,0l0,0c0.1,0.1,0,0.3-0.1,0.4c0,0.3,0.1,0.4,0.4,0.3
			c0.3,0,0.5-0.1,0.8,0c0.1,0.1,0.2,0.1,0.2,0.3c0,0.2,0,0.4-0.2,0.6c0.2-0.1,0.3,0,0.4,0.2c0.1,0.1,0.1,0.3,0,0.4
			c0,0.1-0.2,0-0.2,0.2c0,0-0.1,0-0.1-0.1v-0.1c0-0.1,0-0.1-0.1-0.1c-0.1,0-0.1,0.1-0.1,0.2s0.1,0.2,0.1,0.2c0,0.1,0.1,0.2,0.1,0.4
			c0,0.1-0.1,0.2,0,0.2c0.1,0,0.2,0,0.2-0.1c0,0,0-0.1,0.1-0.1c0.1,0.1,0.5,0.3,0.6,0.2c0.1,0,0.1,0,0.1-0.1s-0.1-0.2,0.1-0.2
			c0.1,0,0.1-0.1,0.2,0c0.2,0.2,0.4,0,0.5-0.1c0.1-0.1,0.2-0.2,0.3-0.2c0.1,0.1,0,0.1,0,0.2c-0.1,0.1-0.2,0.2-0.1,0.4c0,0,0,0,0,0.1
			c-0.2,0.2-0.4,0.3-0.2,0.6c0,0,0,0.1-0.1,0.1c0,0-0.1,0-0.1-0.1c0-0.2-0.1-0.2-0.2-0.2c0.1,0.1,0,0.3,0.1,0.4
			c0.1,0.2,0.2,0.3,0.4,0.4c0.1,0,0.1,0,0.1,0.1c-0.1,0.1-0.1,0.3,0,0.3c0.2,0,0.1,0.2,0.2,0.2h0.1c0.2,0,0.4-0.2,0.5-0.4
			c0.1-0.1,0.1-0.1,0.2-0.1c0.1,0,0.1,0.1,0.1,0.2s0,0.2,0,0.3c0,0.2,0,0.3,0.1,0.3c0.1,0.1,0.2,0,0.3-0.1c0.1,0,0.2-0.2,0.3-0.2
			c0.3,0.2,0.4-0.1,0.5-0.2c0.2-0.3,0.5-0.4,0.8-0.5c0.1,0,0.2-0.1,0.2-0.2c0-0.2,0.2-0.3,0.2-0.6c0,0,0-0.1,0.1-0.1
			c0.2,0,0.2-0.3,0.4-0.4c0.1-0.1,0.2-0.3,0.3-0.5c0.1,0,0.1,0.1,0.2,0.1c-0.1-0.1,0-0.2,0-0.2c0.1-0.1,0.1-0.3-0.1-0.2
			c-0.1,0-0.1,0-0.2-0.1c0-0.1,0.1-0.1,0.1-0.2s0.1-0.1,0.1-0.1c0.1,0.2,0.2,0,0.3,0.1c0.3,0.1,0.3-0.1,0.3-0.2s0.1-0.2,0-0.2
			c-0.1,0-0.1,0-0.1-0.1s0-0.1,0.1-0.1c0.1,0,0.1,0,0.1-0.1c0-0.2,0.1-0.3,0.1-0.5c0,0,0-0.1,0.1-0.1c0.2,0,0.2-0.2,0.4-0.3
			c0.1,0,0.3-0.1,0.1-0.3c0,0,0,0,0-0.1s0-0.2-0.1-0.2c-0.1-0.1-0.1-0.2,0-0.3c0.1-0.1,0.2-0.2,0.2-0.3s0.1-0.2,0.2-0.2
			c0.1,0,0.1,0,0.1-0.1v-0.1c-0.2-0.1-0.1-0.3-0.1-0.5c0-0.1,0-0.2,0.1-0.2c0.1,0,0.1,0.1,0.1,0.2c0,0.2,0.1,0.3,0.1,0.4l0.1,0.1
			c0.1,0,0.1-0.1,0.1-0.1c0-0.1,0-0.2,0.1-0.3c0.1,0,0.2,0.2,0.4,0.2c0-0.1,0.1-0.2,0.2-0.3C144.1,15.3,144.1,15.2,144,15.2z
			 M126.9,17.1C127,17,127,17,126.9,17.1L126.9,17.1z M132.4,11.6c-0.1,0-0.1,0-0.1-0.1s0-0.1,0.1-0.1
			C132.4,11.4,132.4,11.5,132.4,11.6L132.4,11.6z M142.9,15.1c-0.1-0.1-0.2,0-0.3,0.1c0,0-0.1,0.1-0.1,0c0,0,0-0.1,0-0.2
			c0.1-0.1,0.4-0.2,0.5-0.1c0,0,0.1,0,0.1,0.1C143,15.1,142.9,15.1,142.9,15.1z"/>
	</g>
	<g style="opacity:0.6;clip-path:url(#SVGID_00000146485509287505884660000011719929618441053362_);">
		<path class="st0" d="M126.3,11.6L126.3,11.6C126.4,11.6,126.4,11.6,126.3,11.6C126.4,11.6,126.3,11.6,126.3,11.6L126.3,11.6z"/>
	</g>
	<g style="opacity:0.6;clip-path:url(#SVGID_00000146485509287505884660000011719929618441053362_);">
		<path class="st0" d="M127.2,14.9L127.2,14.9L127.2,14.9C127.2,14.9,127.2,15,127.2,14.9L127.2,14.9z"/>
	</g>
	<g style="opacity:0.6;clip-path:url(#SVGID_00000146485509287505884660000011719929618441053362_);">
		<path class="st0" d="M127.2,14.8L127.2,14.8L127.2,14.8L127.2,14.8L127.2,14.8z"/>
	</g>
	<g style="opacity:0.6;clip-path:url(#SVGID_00000146485509287505884660000011719929618441053362_);">
		<path class="st0" d="M135.2,25.5c-0.1-0.1,0-0.2,0-0.2h0.1C135.3,25.4,135.2,25.4,135.2,25.5z"/>
	</g>
	<g style="opacity:0.6;clip-path:url(#SVGID_00000146485509287505884660000011719929618441053362_);">
		<path class="st0" d="M126.3,12.4C126.3,12.5,126.3,12.5,126.3,12.4C126.2,12.5,126.2,12.5,126.3,12.4
			C126.2,12.5,126.2,12.4,126.3,12.4L126.3,12.4z"/>
	</g>
	<g style="opacity:0.6;clip-path:url(#SVGID_00000146485509287505884660000011719929618441053362_);">
		<path class="st0" d="M126.1,13.7L126.1,13.7C126.1,13.7,126.2,13.7,126.1,13.7C126.2,13.7,126.2,13.8,126.1,13.7
			C126.1,13.8,126.1,13.8,126.1,13.7z"/>
	</g>
	<g style="opacity:0.6;clip-path:url(#SVGID_00000146485509287505884660000011719929618441053362_);">
		<path class="st0" d="M126.9,19.1L126.9,19.1L126.9,19.1L126.9,19.1L126.9,19.1z"/>
	</g>
	<g style="opacity:0.6;clip-path:url(#SVGID_00000146485509287505884660000011719929618441053362_);">
		<path class="st0" d="M128.2,18.3L128.2,18.3L128.2,18.3L128.2,18.3C128.2,18.2,128.2,18.2,128.2,18.3z"/>
	</g>
	<path style="opacity:0.6;clip-path:url(#SVGID_00000146485509287505884660000011719929618441053362_);fill:#FFFFFF;" d="
		M126.8,19.8"/>
	<polyline style="opacity:0.6;clip-path:url(#SVGID_00000146485509287505884660000011719929618441053362_);fill:#FFFFFF;" points="
		126.8,19.8 126.8,19.8 126.8,19.8 	"/>
	<g style="opacity:0.6;clip-path:url(#SVGID_00000146485509287505884660000011719929618441053362_);">
		<polygon class="st0" points="126.6,20.3 126.6,20.3 126.6,20.3 		"/>
	</g>
	<g style="opacity:0.6;clip-path:url(#SVGID_00000146485509287505884660000011719929618441053362_);">
		<path class="st0" d="M126.5,19.4L126.5,19.4L126.5,19.4z"/>
	</g>
	<path style="opacity:0.6;clip-path:url(#SVGID_00000146485509287505884660000011719929618441053362_);fill:#FFFFFF;" d="
		M140.7,23.8c0.1-0.2,0.1-0.6,0.3-0.7V23c0-0.1,0.1-0.3,0-0.4l-0.1-0.1l0,0c-0.1,0-0.2,0.1-0.2,0.2h-0.1h-0.1l-0.1,0.1
		c0,0-0.1,0.1-0.2,0.1c-0.2,0-0.1-0.3-0.3-0.3c-0.1,0-0.1,0-0.1-0.1v-0.1h-0.1c-0.1,0-0.1,0-0.2,0c-0.1,0-0.1,0-0.2,0h-0.1
		c-0.1,0.1-0.1,0.2-0.2,0.2l-0.1,0.1c0,0.2-0.2,0.3-0.1,0.4c0,0.1-0.1,0.1-0.2,0.1c-0.3,0.1-0.5,0.2-0.7,0.4
		c-0.1,0.1-0.2,0.3-0.5,0.2c-0.1,0-0.1,0.1-0.2,0.1c-0.1,0-0.1,0.1-0.2,0c-0.1-0.1-0.1-0.2-0.1-0.2c0-0.1,0-0.2,0-0.2
		c0-0.1,0-0.1-0.1-0.1c-0.1,0-0.1,0-0.2,0.1s-0.2,0.2-0.5,0.3H136c-0.1-0.1,0-0.2-0.2-0.2c-0.1,0-0.1-0.2,0-0.2s0-0.1-0.1-0.1
		c-0.2,0-0.3-0.2-0.4-0.3c0-0.1,0-0.2,0-0.3c0.1,0,0.2,0,0.2,0.2c0,0,0,0,0.1,0s0.1,0,0.1-0.1c-0.1-0.2,0.1-0.3,0.2-0.5l0,0
		c-0.1-0.1,0.1-0.2,0.1-0.3c0,0,0.1-0.1,0-0.1c-0.1,0-0.2,0.1-0.2,0.2c-0.1,0.1-0.3,0.2-0.5,0c-0.1-0.1-0.1,0-0.2,0s-0.1,0-0.1,0.1
		c0,0,0,0.1-0.1,0.1c-0.1,0-0.5,0-0.6-0.2c-0.1,0,0,0-0.1,0.1c0,0.1-0.1,0.1-0.2,0.1c-0.1,0,0-0.1,0-0.1c0.1-0.1,0-0.2-0.1-0.3
		c0,0-0.1-0.1-0.1-0.2c0,0,0-0.1,0.1-0.1c0.1,0,0.1,0,0.1,0.1v0.1h0.1c0-0.1,0.1-0.1,0.2-0.1c0.1-0.1,0.1-0.2,0-0.3
		c-0.1-0.1-0.2-0.2-0.4-0.1c0.1-0.1,0.1-0.3,0.1-0.4s0-0.1-0.2-0.2s-0.5,0-0.7,0c-0.3,0-0.4,0-0.4-0.3c0-0.2,0-0.2-0.1-0.2
		c0-0.1,0.1-0.1,0.1-0.2s-0.1-0.1-0.1-0.2c0-0.2,0.2-0.3,0.1-0.5l0,0c0-0.1,0-0.2-0.1-0.2c0.2-0.1,0.2-0.1,0-0.3
		c-0.1,0-0.1-0.1-0.2-0.2c-0.2-0.1-0.3-0.2-0.3-0.4c0-0.1,0-0.1,0.1-0.1c0.1,0,0.2,0,0.2-0.2c0-0.1-0.1-0.2-0.2-0.2
		c-0.1,0-0.1,0-0.2,0.1h-0.1c-0.2,0-0.4,0.1-0.4,0.3c0,0.2-0.1,0.2-0.2,0.2c-0.2,0-0.2,0.2-0.4,0.2c0,0,0,0,0,0.1
		c0.1,0.1,0,0.2,0.1,0.2c0,0.1,0,0.1,0,0.2c-0.1,0-0.1,0.1-0.1,0.1c0,0.1,0,0.2-0.1,0.2s-0.2,0-0.4,0c-0.1,0-0.1-0.1-0.1-0.2
		s0.1-0.2-0.1-0.2c-0.1,0-0.2,0.1-0.2,0.2c0,0,0,0-0.1,0c0-0.1-0.1-0.2,0-0.3c0.1-0.1,0-0.2-0.1-0.2c-0.2,0-0.1-0.1-0.1-0.2
		c0.1,0.1,0.3,0.2,0.5,0.2c0.1,0,0.2,0,0.1-0.1c-0.1-0.1-0.1-0.2,0-0.2c0.1,0,0.1-0.1,0.1-0.2s-0.1-0.2-0.2-0.1
		c-0.1,0.1-0.2,0-0.4-0.2c-0.1,0,0,0.1,0,0.1c0,0.1,0,0.2-0.1,0.1c-0.1,0-0.1,0-0.2,0c0,0,0,0.1-0.1,0.1c-0.1,0,0-0.1,0-0.1v-0.1
		c-0.1,0-0.1,0-0.2,0h-0.1c-0.1-0.2-0.2-0.1-0.4-0.2c-0.1,0-0.3,0-0.3,0.2c0,0,0.1,0.1-0.1,0.1c-0.1,0-0.2,0-0.2-0.1v-0.1
		c-0.1,0.1-0.1,0.2,0.1,0.3c0.2,0,0.1,0.2,0.1,0.2c-0.1,0-0.2,0.1-0.3,0c-0.1-0.1-0.1,0-0.2,0c-0.1,0.1-0.1,0-0.2-0.1
		s-0.1-0.2,0-0.2s0.1,0.1,0.1,0.1l0,0c0.1,0,0.2,0,0.1-0.1c-0.1-0.1-0.1-0.2-0.2-0.2s-0.2,0-0.4,0c0.3,0.2,0.3,0.4,0.3,0.5
		s0,0.3-0.2,0.3c-0.1,0-0.1,0.1,0,0.2c0.1,0,0.1,0.1,0.2,0.1c0.2,0,0.3,0,0.4,0.1h-0.1c-0.1,0-0.2,0-0.2,0.1h-0.1h-0.1l0,0
		c0,0,0,0.1-0.1,0.1s-0.1,0-0.2,0c0,0,0-0.1-0.1-0.1l0,0l0,0h-0.1c-0.1,0-0.1,0-0.2,0h-0.1l0,0l0,0l0,0v0.1l-0.1,0.1l0,0l0,0h-0.1
		h-0.1l-0.1-0.1c-0.1,0-0.1,0-0.2,0s-0.2,0-0.2,0c-0.1,0-0.1,0.1-0.2,0.2c-0.1,0-0.1,0-0.2,0h-0.1c0,0,0,0-0.1,0l0,0l0,0l0,0
		c0,0,0,0.1,0,0.2v0.1l0,0l0,0l0,0l0.1,0.1l0,0h0.1c0.1,0,0.1,0,0.2,0h-0.1h-0.1c-0.1,0-0.1,0-0.2,0s-0.1,0.1-0.1,0.1L125,20
		c-0.1,0-0.1,0-0.1,0h-0.1h-0.1h0.1l0,0l0.1,0.1c0.1,0,0.1,0.1,0.1,0.1h-0.1c0-0.1-0.1-0.1-0.1-0.1l-0.1-0.1h-0.1
		c0,0.1,0.1,0.2,0.2,0.3c0.2,0.1,0.4,0.1,0.6,0h0.1c0.1,0,0.1,0,0.1-0.1c0.1,0,0.1,0,0.1,0h0.1c0,0,0.1,0,0.1,0.1c0.2,0,0.4,0,0.6,0
		c-0.3,0.1-0.5,0.1-0.8,0c-0.1,0-0.1-0.1-0.2,0c-0.1,0.1-0.2,0.1-0.3,0.1s-0.2,0-0.2,0.1s0,0.1,0.1,0.1s0,0.1,0,0.2s-0.1,0-0.1,0
		c-0.1,0-0.2,0-0.4,0c-0.2,0-0.2,0.1-0.2,0.2s0,0.1-0.1,0.2c-0.2,0.1-0.1,0.1,0,0.2c0.2,0.1,0.2,0.1,0.1,0.3c-0.1,0.1-0.1,0.2,0,0.3
		l0.1,0.1c-0.2,0.1,0,0.3-0.2,0.5c-0.1,0,0,0.1,0.1,0.1c0.1,0,0.2,0,0.3,0.1s0.1,0.1,0.2,0c0.1,0,0.2,0,0.2,0.1s0,0.2,0.2,0.2
		c0.1,0,0.1,0,0.1,0.1s0,0.1,0,0.2c0.1,0,0.1,0,0.1,0s0,0,0.1,0c0,0,0.1,0,0.1,0.1c-0.1,0.1,0,0.2,0.1,0.2c0.2,0.1,0.3,0.2,0.5,0.3
		c0.1,0.1,0.2,0.2,0.2,0.3c0,0.1,0,0.2,0,0.4c0,0.2,0,0.3,0.2,0.4c0.1,0.1,0.1,0.2,0.2,0.3c0.1,0.1,0.2,0.2,0.3,0.3
		c0.1,0.1,0,0.1,0,0.2c-0.1,0.1-0.1,0-0.1,0s0-0.1-0.1-0.1c-0.2,0-0.3-0.2-0.5-0.2l-0.1-0.1c-0.1-0.1-0.1-0.1-0.2-0.1
		c0.2,0.2,0.5,0.4,0.7,0.6c0.1,0.1,0.1,0.2,0.3,0.1h0.1c0.2,0.2,0.6,0.2,0.8,0.4c0.4,0.2,0.8,0.3,1.3,0.4c0.1,0,0.3,0,0.4,0.1
		c0.1,0,0.2-0.1,0.2,0.1c0.3,0.1,0.6,0.1,0.8,0c0.1,0,0.2,0,0.4,0c0.5,0.1,1.1,0.1,1.6,0c0.3,0,0.7-0.1,1-0.1c0.6,0,1.3-0.2,1.9-0.3
		c0.2,0,0.4-0.1,0.5-0.3c0,0,0.1,0,0.1-0.1c0.3-0.1,0.6-0.2,0.9-0.3c0.2-0.1,0.4-0.2,0.4-0.3c0-0.1,0.2-0.2,0.3-0.3
		c0.3-0.2,0.7-0.2,0.9-0.5c0.1-0.1,0.1-0.1,0.2-0.2c0.2-0.2,0.4-0.3,0.6-0.5C140.5,24.1,140.6,23.9,140.7,23.8L140.7,23.8z
		 M127.5,21.7c-0.1,0-0.1,0.1-0.1,0.1c-0.1,0.2-0.3,0.2-0.5,0.1c0,0-0.1-0.1-0.1,0c0,0,0,0.1,0.1,0.1c0.1,0,0.2,0.1,0.2,0.2
		s0,0.1-0.1,0.1s-0.1,0-0.1-0.1v-0.1c0-0.1-0.1-0.1-0.2,0c0,0-0.1,0.1-0.1,0c-0.1,0,0-0.1,0-0.1c0-0.2-0.1-0.3-0.3-0.3
		c-0.1,0-0.1,0-0.1-0.1c-0.1-0.1,0.1-0.5,0.3-0.5c-0.1,0-0.2-0.1-0.1-0.2c0.1,0,0-0.2,0-0.2c0-0.1,0-0.1,0.1-0.1
		c0.1,0,0.1,0,0.1,0.1c0.1,0.1,0.1,0.2,0.2,0.2c0,0.1,0.1,0,0.1,0c0.1,0,0.1,0,0.1,0c0.1,0,0.1,0,0.1-0.1s0-0.1,0.1-0.1
		c0.1,0,0.1,0.1,0.1,0.1c0.1,0.1-0.1,0.2-0.1,0.3c0,0.1-0.1,0.2,0.1,0.2c0.1,0,0.1-0.1,0.1-0.2C127.7,21.4,127.7,21.5,127.5,21.7
		 M127.8,20.5c-0.2,0-0.3,0-0.4-0.1c-0.1,0-0.1,0.1-0.2,0l0,0c0.1,0,0.1,0,0.2-0.1c0.2,0.1,0.3,0,0.5-0.1l0,0h0.1v0.1
		C127.9,20.5,127.8,20.5,127.8,20.5 M126.5,20.1c-0.1,0.1-0.2,0.1-0.3,0.1c-0.1,0,0.2-0.1,0.3-0.3l0,0l0.1,0l0,0.1
		C126.6,20,126.5,20.1,126.5,20.1 M128.1,26.2c-0.1,0-0.1-0.1-0.1-0.2c0,0,0-0.1,0.1-0.1c0.1,0,0.2,0,0.2,0.1
		C128.3,26.2,128.2,26.2,128.1,26.2 M128.7,20.4c-0.1,0.1-0.2,0.1-0.4,0.1c-0.1,0-0.1-0.1-0.1-0.2v-0.1l0,0c0.1,0,0.2-0.1,0.3-0.1
		s0.2,0.1,0.3,0.1c0,0.1,0.1,0.1,0.1,0.2C128.8,20.3,128.7,20.3,128.7,20.4 M135.3,22.5c0-0.1,0-0.1,0-0.1c0-0.1,0.1-0.1,0-0.2
		c0,0-0.1,0-0.1-0.1h0.1c0.1,0,0.1,0,0.1,0.1s0,0.2,0,0.2S135.4,22.5,135.3,22.5 M135.9,25.7c-0.1-0.1,0-0.1,0-0.2h0.1
		C136.1,25.6,136,25.6,135.9,25.7"/>
	<path style="opacity:0.6;clip-path:url(#SVGID_00000146485509287505884660000011719929618441053362_);fill:#FFFFFF;" d="M140,9.5
		L140,9.5c-0.2,0-0.3,0-0.4,0c-0.1,0-0.1,0-0.1,0c-0.1,0-0.1,0-0.2,0c-0.1,0.1,0,0.1,0.1,0.2l0,0c0,0.1,0,0.1,0.1,0.1
		c0.1,0,0.1,0,0.1,0c0,0.1,0,0.1-0.1,0.1c-0.2-0.1-0.4,0-0.3,0.3c0.1,0.2,0.1,0.4-0.1,0.6c-0.1,0-0.2,0.1-0.4,0.1
		c-0.1,0-0.1,0,0,0.1c0,0.1,0.1,0.1,0.2,0.1s0.2,0,0.3,0c-0.1,0.1,0,0.2,0.1,0.3c0,0,0,0,0,0.1c-0.1,0.1-0.1,0.1,0.1,0.1
		c0.1,0,0.1,0,0.1,0c-0.1,0.1-0.2,0-0.3,0c-0.2,0-0.3,0.1-0.4,0.3c0,0.1-0.1,0.2-0.2,0.2s-0.2-0.1-0.2-0.3s0-0.4-0.1-0.5
		s-0.1-0.1-0.2-0.1c-0.1,0.1-0.1,0.1,0,0.2l0.1,0.1c-0.2,0.1-0.4,0.1-0.3,0.3c0,0.1-0.1,0.1-0.1,0.1c-0.1,0-0.1-0.1-0.2-0.2
		c-0.1,0.2-0.2,0.3-0.4,0.2h-0.1c-0.2,0-0.1-0.1-0.1-0.2c0.1-0.1,0.1-0.2-0.1-0.2c-0.1,0-0.1,0-0.2,0c-0.1,0-0.1,0-0.1,0.1
		s-0.1,0.1-0.2,0.1h-0.1c-0.1,0.2-0.3,0.1-0.6,0.2c-0.3,0-0.5,0.1-0.8,0.2c0.2,0.1,0.5,0.1,0.7,0.2c0.1,0,0.1,0,0.1,0
		c-0.1,0.1,0.4,0.1,0,0.2c-0.1,0-0.1,0.1-0.1,0.2c0,0.1,0.1,0.1,0.2,0.1s0.2,0,0.2,0c0,0.1,0,0.1-0.1,0.2c-0.1,0.1-0.1,0-0.1,0l0,0
		c-0.2,0-0.4-0.1-0.6-0.2c-0.1,0-0.2,0-0.3-0.1c-0.1-0.1-0.2,0-0.2,0.1c0,0,0,0.1-0.1,0.1c-0.1,0-0.1-0.1-0.1-0.1l0,0
		c-0.1-0.1-0.1-0.2-0.2-0.2c-0.1,0-0.1,0.2-0.1,0.2c-0.1,0.1-0.1,0.2-0.2,0.1c0,0,0,0,0,0.1s0.2,0.1,0.1,0.2
		c-0.1,0.1-0.2-0.1-0.2-0.1c-0.1-0.1-0.1-0.2-0.1-0.3c-0.1-0.1-0.3-0.1-0.4-0.1c-0.2-0.1-0.4-0.2-0.5-0.3c-0.1-0.1-0.2-0.2-0.1-0.4
		c0-0.1,0-0.2-0.2-0.2c-0.1,0-0.2-0.1-0.3-0.1h-0.1v-0.1c0,0,0.1,0,0.1-0.1h-0.1c-0.1,0-0.1,0-0.1-0.1s0.1,0,0.1,0
		c0.1,0,0.1,0,0.1-0.1c0.1-0.1,0.2-0.3,0.4-0.3c0.2-0.1,0.2-0.5,0.2-0.7l-0.1-0.1c0-0.2,0-0.4-0.2-0.1h-0.1c0-0.1-0.1-0.1-0.1-0.2
		s0.1-0.1,0-0.2c-0.1,0-0.2-0.2-0.3-0.1c-0.3-0.3-0.6-0.3-0.4,0l0,0c-0.3,0-0.4,0.4-0.7,0.4c-0.1,0-0.1,0.1-0.1,0.2
		c0,0,0.1,0.1,0,0.1c-0.1,0-0.1,0-0.2,0l-0.1-0.1c0.1-0.2,0-0.4,0.2-0.5c0.1,0,0-0.1,0-0.1c-0.1-0.1-0.1-0.1-0.2-0.2
		c-0.1-0.1,0-0.1,0-0.2c0.1,0,0.3-0.2,0.4,0h0.1c0,0,0.1-0.1,0.1-0.2c0-0.1-0.1,0-0.1,0c-0.2,0-0.2-0.2-0.4-0.2
		c-0.1-0.1-0.1,0-0.1,0l-0.1,0.1h-0.1V8.8c0.2-0.1,0.3-0.2,0-0.4c-0.1,0-0.1-0.2,0-0.2c0.1-0.2,0-0.1-0.1-0.2
		c0.3-0.1,0.4-0.4,0.6-0.7c0.2-0.3,0.6-0.5,0.9-0.7c0.1,0.1,0.3,0,0.3-0.1c0.1-0.1,0.1-0.1,0.2-0.1l0,0l0,0l0,0c0.1,0,0.1,0,0.2,0
		c0-0.1,0.1-0.1,0.1,0c0.1,0,0.1,0.1,0.1,0.1c0.1-0.1,0.1-0.2,0.1-0.3c0.1,0,0.1,0,0.2-0.1s0.3-0.1,0.2,0.1c0,0.1,0.1,0.2,0.2,0.2
		c0.1,0,0.4-0.1,0.5-0.2c0.1,0,0.3-0.3,0.3,0.1c0.3,0,0.3,0,0.3,0c0.2-0.1,0.3,0.1,0.4,0.2c0.1,0,0.1,0.1,0,0.1c0,0,0,0.1-0.1,0.1
		c-0.1,0-0.1,0-0.1,0c0,0.1-0.1,0.2,0.1,0.2c0.1,0,0.1,0.1,0.1,0.1s0.1,0.1,0.1,0c0.1-0.1,0.3,0,0.5-0.1c0.1,0,0.1-0.1,0.2,0
		c0.2,0.2,0.5,0.2,0.8,0.3c0.1,0.1,0.2,0.1,0.4,0h0.1c0.3,0.2,0.7,0.3,1,0.5l0.1,0.1c-0.1,0.2,0,0.2,0.1,0.3c0.1,0,0.1,0.2,0,0.2
		c-0.1,0.2,0,0.2,0.1,0.3c0,0,0,0,0.1,0.1c0.1,0.1,0,0.3,0.1,0.2c0.1-0.1,0.3-0.2,0.3-0.4s0-0.3,0.2-0.1c0.1,0.1,0.3,0.1,0.4,0.2
		c0,0,0.1,0,0.1-0.1c0,0.3,0,0.2,0.1,0.2c0,0.2,0.2,0.3,0.1,0.5l0,0h0.1c0-0.1,0.1-0.1,0.1-0.1l0,0v0.1C139.7,9.3,140,9.4,140,9.5z
		 M137.7,10.1c0,0.1,0,0.2,0.1,0.3c0.1,0.1,0.2,0,0.4,0c0-0.1,0.1-0.2,0-0.3C138,9.9,137.9,10.1,137.7,10.1z M135.1,7.9
		c-0.1-0.1-0.1-0.1-0.2,0c-0.1,0.1,0,0.1,0.1,0.2l0.1,0.1c0,0.1,0,0.1,0.1,0.1c0.1,0,0.1,0,0.2-0.1C135.3,7.9,135.2,8,135.1,7.9z
		 M138.2,10.7v0.1c0,0,0.1,0.1,0.1,0c0.1,0,0-0.1,0-0.1S138.3,10.7,138.2,10.7z M137.3,11.9L137.3,11.9L137.3,11.9L137.3,11.9
		L137.3,11.9z"/>
</g>
</svg>
