<svg id="Layer_1" data-name="Layer 1" xmlns="http://www.w3.org/2000/svg" viewBox="0 0 226.78 164.95"><defs><style>.cls-1{fill:#fff;}</style></defs><path class="cls-1" d="M180.37,58.34a21.87,21.87,0,0,1-14.89-26.05l14.17,1.82s5.44.24,5.24,9.87C184.7,53.32,180.37,58.34,180.37,58.34Z" transform="translate(-1.49 -1.14)"/><path class="cls-1" d="M193,58.34a21.87,21.87,0,0,0,14.89-26.05l-14.17,1.82s-5.44.24-5.24,9.87C188.71,53.32,193,58.34,193,58.34Z" transform="translate(-1.49 -1.14)"/><path class="cls-1" d="M186.7,21.83a3.3,3.3,0,0,1,3.3,3.3,3.63,3.63,0,0,1-2.16,3.11c-.14.08-.28.14-.25.37s.71.36,1,.43l19,2.21a21.83,21.83,0,0,0-20.93-15.62h0a21.84,21.84,0,0,0-20.93,15.62L184.8,29c.29-.07,1-.19,1-.43s-.11-.29-.25-.37a3.63,3.63,0,0,1-2.16-3.11,3.32,3.32,0,0,1,3.31-3.3Z" transform="translate(-1.49 -1.14)"/><path class="cls-1" d="M195.41,73.79,196.7,73s-6.12-8.3-19.82-8.3c-7,0-10.64,2.82-15.55,2.82a6.68,6.68,0,0,1-4-1s2.34,3.38,10.8,3.38c6.2,0,10.64-3.63,15-3.63C189.12,66.3,193.55,71.61,195.41,73.79Z" transform="translate(-1.49 -1.14)"/><path class="cls-1" d="M176.39,73.79,175.1,73s6.12-8.3,19.82-8.3c7,0,10.64,2.82,15.55,2.82a6.68,6.68,0,0,0,3.95-1s-2.34,3.38-10.8,3.38c-6.2,0-10.64-3.63-15-3.63C182.68,66.3,178.24,71.61,176.39,73.79Z" transform="translate(-1.49 -1.14)"/><path class="cls-1" d="M169.86,64c-.24.64-2.86-.12-4.63.4a14.63,14.63,0,0,1-17-9s4.35,4.67,7.74,5a26.08,26.08,0,0,1,10.23,2.9l.73.16a.9.9,0,0,0-.4-.48c-.41-.22-3.67-1.28-5.24-6.45-.81-2.66-.64-4.59-1-6a53.66,53.66,0,0,1,5,6.45C166.72,59.45,166.88,62.27,169.86,64Z" transform="translate(-1.49 -1.14)"/><path class="cls-1" d="M159.19,58.48c-.26.26-.93-.16-1.17-.28s-2-.92-5-2-8.42-5.68-7.9-13.62a11.1,11.1,0,0,0,3,5c2.26,2,3.06,2.22,4.43,3.83s4.47,5.28,4.59,5.24.16-.24-.08-.44-1.05-2.22-1.57-2.9-2.09-5.4.2-11.2a18.2,18.2,0,0,1,2.3,8.5c-.16,4.27-.36,3.26.68,6.81C158.75,57.39,159.31,58.36,159.19,58.48Z" transform="translate(-1.49 -1.14)"/><path class="cls-1" d="M152.34,48.13c-.15.15-.77-.77-1.25-1.61s-3.87-4.47-4.31-5.2a12,12,0,0,1-1.37-12.13s.28-.08.28,1.53,1.49,5.2,2.7,6.73a13.07,13.07,0,0,1,2.54,6.61s.16.48.36.52.2-.48.2-.48-.16-2.42-.16-4.07a9.75,9.75,0,0,1,2.3-6.08,8,8,0,0,0,1.17-1.77,3.08,3.08,0,0,1,.68-1,24.65,24.65,0,0,1-1.25,8.94c-1.57,4.31-2.09,5-1.85,7.37C152.38,47.52,152.42,48.05,152.34,48.13Z" transform="translate(-1.49 -1.14)"/><path class="cls-1" d="M149.68,35.4c-.16,0-.28-.56-.36-1a21.58,21.58,0,0,0-.89-3.59,14.37,14.37,0,0,1-1.57-6.16,15.74,15.74,0,0,1,4.39-10.39,15.46,15.46,0,0,1-.93,3.1,8,8,0,0,0-.24,4.51,35.2,35.2,0,0,1,.36,4,33.56,33.56,0,0,1-.44,4.75s-.08.44.08.44.32-.36.32-.36a9.17,9.17,0,0,1,2-4.75c1.85-2.26,5.2-3.63,5.72-4.63,0,0-.24,3.55-4.15,7.69-3.48,3.7-2.46,1.81-3.59,4.83a8.75,8.75,0,0,0-.48,1.37C149.92,35.48,149.68,35.4,149.68,35.4Z" transform="translate(-1.49 -1.14)"/><path class="cls-1" d="M151.82,23.47a2.86,2.86,0,0,1,.52-1.57c.6-1.09,0-3,.77-5.84s2.3-7.65,8-10.55a7.73,7.73,0,0,0-.85.93A22.49,22.49,0,0,0,158,11.76a19.45,19.45,0,0,1-3.1,6.16c-.73.77-.4.85-.4.85a1.38,1.38,0,0,0,.73-.64A8.7,8.7,0,0,1,159.48,15,39.9,39.9,0,0,0,165,13.34a38.15,38.15,0,0,1-6.81,5.48c-3.26,1.85-3.63,1.29-5.56,3.79C152.62,22.59,152,23.47,151.82,23.47Z" transform="translate(-1.49 -1.14)"/><path class="cls-1" d="M159.63,12.72s0-.32.6-.89,1.21-2.26,2.26-3.83a13.21,13.21,0,0,1,9.59-6.65,17.32,17.32,0,0,0-2.14,1.81A38.93,38.93,0,0,1,167,6.79a22.84,22.84,0,0,1-3.87,2.86s-.4.32-.32.44.48-.12.48-.12A9.17,9.17,0,0,1,168,8.24c2.58-.08,5.28,0,5.68.08,0,0-2.42,1.65-8.18,2.7s-4.67,1.09-5.56,1.65A.28.28,0,0,1,159.63,12.72Z" transform="translate(-1.49 -1.14)"/><path class="cls-1" d="M169.9,6s.12-.32,1-.6.85-1.17,3.67-2.66,5.76-2.18,8.74-.93c0,0-1.25.16-1.45.24a28.17,28.17,0,0,0-2.94,1A30.29,30.29,0,0,1,174,5c-1.25.24-.64.32-.64.32a1.58,1.58,0,0,0,.52.12,14.17,14.17,0,0,1,4.83.36c1.81.64,1.77.89,2.5,1.13s1.57.4,1.69.68c0,0-1.81.16-2.9.16a16.49,16.49,0,0,1-5.32-.93A7.47,7.47,0,0,0,171.23,6,2.27,2.27,0,0,1,169.9,6Z" transform="translate(-1.49 -1.14)"/><path class="cls-1" d="M181.35,4.62s.12-.16.93-.32,1-.64,2.9-1a9.35,9.35,0,0,1,7.53,1.09l-2,0c-.36,0-3.5.56-4.23.56s-2.18-.32-2.38-.08,1.33.56,1.57.64a5.05,5.05,0,0,1,2.7,1.49,19.71,19.71,0,0,0,2.5,2.14,35.83,35.83,0,0,1-5-1.49c-1-.56-2.74-2.3-3-2.42S181.35,4.62,181.35,4.62Z" transform="translate(-1.49 -1.14)"/><path class="cls-1" d="M190.65,6.27A8.88,8.88,0,0,1,195,7.36c1.85,1.17,3.34,2.7,3.5,3.63a6.8,6.8,0,0,0-1.73-1.09,22.88,22.88,0,0,1-3-1.53C193.39,8.13,191.06,6.63,190.65,6.27Z" transform="translate(-1.49 -1.14)"/><path class="cls-1" d="M202.58,64.4s.36-.36,1.57-1.41,1.53-2.58,2.86-5a21.82,21.82,0,0,1,5.16-6.45,23.24,23.24,0,0,0-.52,2.38,11.48,11.48,0,0,1-2,5.52c-1.53,1.81-1.61,2.22-3.38,3.3,0,0-.69.48-.64.64s1.21,0,1.21,0a15.37,15.37,0,0,0,1.69-.73c.4-.24,2.22-1.17,2.94-1.45s1.33-.56,2.94-1.05,7.45-2,9.75-5.68a11.65,11.65,0,0,1-1.53,3.18c-.85,1-5.64,7.33-12.29,7.21,0,0-2.62-.2-4-.44a7,7,0,0,0-2.05-.2A5.6,5.6,0,0,1,202.58,64.4Z" transform="translate(-1.49 -1.14)"/><path class="cls-1" d="M217.44,41.8a23.69,23.69,0,0,0-3.06,9.55c-.56,5.64.4,3.95-.52,6.45,0,0-.32.64-.2.68s.6-.24,2.38-1.33,3.51-.77,7.29-4.39,4.55-10.84,4.63-11.44a3.91,3.91,0,0,0-.85,1.53,5.13,5.13,0,0,1-1,1.85c-.12.12-4.23,4.63-4.71,5A38.4,38.4,0,0,0,218,53.93c-.52.85-2.05,2.38-2.34,2.26a2.65,2.65,0,0,1,.16-.64A15,15,0,0,0,217.52,52a16.13,16.13,0,0,0,.64-4C218.21,46.84,217.48,42.69,217.44,41.8Z" transform="translate(-1.49 -1.14)"/><path class="cls-1" d="M220.83,47.24a1.41,1.41,0,0,1,0-1,6.74,6.74,0,0,0-.48-3.75c-.72-1.57-2.3-5.92-2.18-8.82s.44-3.3.44-3.3.81,2.38,1.05,2.78,2.66,4.67,2.46,7-.32,3.06-.2,3.1.4-.28.44-.56a23.19,23.19,0,0,1,1.21-3.79c.77-1.89,3.87-6.08,4.55-8.86a14.25,14.25,0,0,1-1.69,9.35c-2.7,4.51-3,3.5-4.11,5.56S221,47.24,220.83,47.24Z" transform="translate(-1.49 -1.14)"/><path class="cls-1" d="M223.28,34.47c-.2,0-.08-1.89-.56-2.5s-4.63-5.52-5.52-10.43c0,0,2.62,2.66,3.06,2.94A9.54,9.54,0,0,1,223,28.07c.52,1.53.4,2.82.6,2.86s.2-1.69.2-1.69a44.74,44.74,0,0,1,.32-5c.28-1.61,1-4.31.69-5.68a11.82,11.82,0,0,1,1.49,6,16.22,16.22,0,0,1-1.77,6.77,12.74,12.74,0,0,0-.77,2.5C223.76,34.23,223.28,34.47,223.28,34.47Z" transform="translate(-1.49 -1.14)"/><path class="cls-1" d="M218.37,9.25s5.44,3.22,4.59,14c0,0,0,.48-.32,0a11.56,11.56,0,0,0-2-2.34c-.52-.32-5.36-3.26-7.41-7.78,0,0,.32-.08.81.36a14.16,14.16,0,0,0,2.22,1.33,7.81,7.81,0,0,1,3.18,1.93,10.56,10.56,0,0,1,2,3.18s.36.28.12-.52a6.87,6.87,0,0,0-.93-2.34A10.13,10.13,0,0,1,219.38,13,8.15,8.15,0,0,0,218.37,9.25Z" transform="translate(-1.49 -1.14)"/><path class="cls-1" d="M217.44,13a3,3,0,0,0-.4-1.73c-.52-1-.11-2.13-1.77-4.79-.93-1.49-4.15-2.66-4.15-2.66s.93,1.29,1.53,2a8.13,8.13,0,0,1,1,1.61c.2.36,1.32,1.44,1.73,2a1.53,1.53,0,0,1,.24.64c0,.2-.44-.12-.56-.24a10.61,10.61,0,0,0-3.34-1.85,30.88,30.88,0,0,1-4.27-.81,16.27,16.27,0,0,0,5.88,3.3A6.77,6.77,0,0,1,217.44,13Z" transform="translate(-1.49 -1.14)"/><path class="cls-1" d="M211.08,6.39a10.13,10.13,0,0,0-7.86-3.75,1.78,1.78,0,0,0,.85.4c.56.12,1.57,1.13,2.09,1.45A13.24,13.24,0,0,0,211.08,6.39Z" transform="translate(-1.49 -1.14)"/><path class="cls-1" d="M56.45,1.14V48.47a27.23,27.23,0,0,1-2.07,11,22.15,22.15,0,0,1-5.71,7.95A24.45,24.45,0,0,1,40,72.21a35.85,35.85,0,0,1-11,1.63,35.74,35.74,0,0,1-11.06-1.63,24.07,24.07,0,0,1-8.69-4.83,22,22,0,0,1-5.69-7.95,27.58,27.58,0,0,1-2-11V1.14H16.27V48.47q0,7.05,3.37,10.27T29,62q6,0,9.33-3.23t3.32-10.27V1.14Z" transform="translate(-1.49 -1.14)"/><path class="cls-1" d="M126.88,72.85H112.11L83.35,25.67V72.85H68.57V1.14H83.34l28.81,47.28V1.14h14.73V72.85Z" transform="translate(-1.49 -1.14)"/><path class="cls-1" d="M12.15,119.17a10.29,10.29,0,0,1-7.58-2.91,10.46,10.46,0,0,1-2.92-7.76v-.56a13.25,13.25,0,0,1,1.23-5.81,9.1,9.1,0,0,1,3.49-3.95,9.66,9.66,0,0,1,5.15-1.39,8.69,8.69,0,0,1,6.83,2.79q2.49,2.79,2.49,7.92v2.35H7.38A5.37,5.37,0,0,0,9,113.24a4.94,4.94,0,0,0,3.49,1.28,6,6,0,0,0,5.1-2.41l2.77,3.17A8.5,8.5,0,0,1,17,118.14,10.93,10.93,0,0,1,12.15,119.17Zm-.64-17.72a3.52,3.52,0,0,0-2.73,1.16,6.1,6.1,0,0,0-1.34,3.33H15.3v-.46a4.36,4.36,0,0,0-1-3A3.56,3.56,0,0,0,11.51,101.45Z" transform="translate(-1.49 -1.14)"/><path class="cls-1" d="M29.5,97.2l.18,2.49a7.32,7.32,0,0,1,6.08-2.89,6.07,6.07,0,0,1,5,2c1.09,1.34,1.66,3.35,1.68,6v13.94H36.79V105a3.79,3.79,0,0,0-.78-2.66,3.46,3.46,0,0,0-2.6-.83,3.88,3.88,0,0,0-3.58,2.07v15.22H24.18V97.2Z" transform="translate(-1.49 -1.14)"/><path class="cls-1" d="M54.88,111.74,58.81,97.2h5.9l-7.14,21.58H52.18L45,97.2h5.9Z" transform="translate(-1.49 -1.14)"/><path class="cls-1" d="M67.4,91.62a2.88,2.88,0,0,1,.85-2.14,3.61,3.61,0,0,1,4.63,0,3.09,3.09,0,0,1,0,4.29,3.57,3.57,0,0,1-4.6,0A2.86,2.86,0,0,1,67.4,91.62Zm6,27.16H67.73V97.2H73.4Z" transform="translate(-1.49 -1.14)"/><path class="cls-1" d="M90.18,102.6a14.53,14.53,0,0,0-2-.16q-3.21,0-4.2,2.21v14.12H78.3V97.2h5.34l.16,2.57a5.21,5.21,0,0,1,4.71-3,5.9,5.9,0,0,1,1.76.26Z" transform="translate(-1.49 -1.14)"/><path class="cls-1" d="M91.56,107.79a13,13,0,0,1,1.21-5.72,9,9,0,0,1,3.49-3.89,10,10,0,0,1,5.29-1.38,9.55,9.55,0,0,1,7,2.67,10.81,10.81,0,0,1,3,7.26l0,1.48a11.43,11.43,0,0,1-2.72,8,10.38,10.38,0,0,1-14.59,0,11.61,11.61,0,0,1-2.73-8.14v-.26Zm5.65.41a8.22,8.22,0,0,0,1.13,4.7,4,4,0,0,0,6.46,0c.77-1.07,1.15-2.79,1.15-5.14a8.08,8.08,0,0,0-1.15-4.67,3.74,3.74,0,0,0-3.25-1.66,3.68,3.68,0,0,0-3.21,1.65A9.13,9.13,0,0,0,97.21,108.2Z" transform="translate(-1.49 -1.14)"/><path class="cls-1" d="M120.52,97.2l.18,2.49a7.32,7.32,0,0,1,6.08-2.89,6.07,6.07,0,0,1,5,2c1.09,1.34,1.66,3.35,1.68,6v13.94h-5.65V105a3.79,3.79,0,0,0-.78-2.66,3.46,3.46,0,0,0-2.6-.83,3.88,3.88,0,0,0-3.58,2.07v15.22H115.2V97.2Z" transform="translate(-1.49 -1.14)"/><path class="cls-1" d="M143.28,97.2l.18,2.41a7.37,7.37,0,0,1,6.08-2.81q4.08,0,5.61,3.29a7.22,7.22,0,0,1,6.35-3.29,6.25,6.25,0,0,1,5.12,2q1.68,2,1.68,6.15v13.78h-5.67V105a4.15,4.15,0,0,0-.7-2.68,3.07,3.07,0,0,0-2.48-.85,3.53,3.53,0,0,0-3.52,2.47l0,14.82H150.3V105a4.13,4.13,0,0,0-.72-2.71,3.1,3.1,0,0,0-2.46-.84,3.66,3.66,0,0,0-3.48,2v15.26H138V97.2Z" transform="translate(-1.49 -1.14)"/><path class="cls-1" d="M182.62,119.17a10.29,10.29,0,0,1-7.58-2.91,10.46,10.46,0,0,1-2.92-7.76v-.56a13.25,13.25,0,0,1,1.23-5.81,9.1,9.1,0,0,1,3.49-3.95A9.66,9.66,0,0,1,182,96.79a8.69,8.69,0,0,1,6.83,2.79q2.49,2.79,2.49,7.92v2.35H177.84a5.37,5.37,0,0,0,1.65,3.39,4.94,4.94,0,0,0,3.49,1.28,6,6,0,0,0,5.1-2.41l2.77,3.17a8.5,8.5,0,0,1-3.44,2.86A10.86,10.86,0,0,1,182.62,119.17ZM182,101.45a3.52,3.52,0,0,0-2.73,1.16,6.1,6.1,0,0,0-1.34,3.33h7.86v-.46a4.36,4.36,0,0,0-1-3A3.56,3.56,0,0,0,182,101.45Z" transform="translate(-1.49 -1.14)"/><path class="cls-1" d="M200,97.2l.18,2.49a7.32,7.32,0,0,1,6.08-2.89,6.07,6.07,0,0,1,5,2c1.09,1.34,1.66,3.35,1.68,6v13.94h-5.65V105a3.79,3.79,0,0,0-.78-2.66,3.46,3.46,0,0,0-2.6-.83,3.88,3.88,0,0,0-3.58,2.07v15.22h-5.65V97.2Z" transform="translate(-1.49 -1.14)"/><path class="cls-1" d="M224.2,91.89V97.2h3.62v4.23H224.2V112.2a2.58,2.58,0,0,0,.45,1.71,2.21,2.21,0,0,0,1.72.52,9.11,9.11,0,0,0,1.66-.14v4.37a11.3,11.3,0,0,1-3.42.52q-5.94,0-6.06-6.12V101.43h-3.09V97.2h3.09V91.89Z" transform="translate(-1.49 -1.14)"/><path class="cls-1" d="M21.46,147a13.14,13.14,0,0,1-2.22,8,7.07,7.07,0,0,1-6,3,6.53,6.53,0,0,1-5.18-2.27v10.17H2.42V136H7.66l.2,2.11a6.57,6.57,0,0,1,5.36-2.51,7.13,7.13,0,0,1,6.08,2.95q2.18,3,2.17,8.14V147Zm-5.65-.42a8.61,8.61,0,0,0-1.05-4.65,3.4,3.4,0,0,0-3-1.64,3.7,3.7,0,0,0-3.66,2.07v8.84a3.75,3.75,0,0,0,3.69,2.13Q15.82,153.35,15.81,146.58Z" transform="translate(-1.49 -1.14)"/><path class="cls-1" d="M37.09,141.42a14.53,14.53,0,0,0-2-.16q-3.21,0-4.2,2.21v14.12H25.2V136h5.34l.16,2.57a5.21,5.21,0,0,1,4.71-3,5.9,5.9,0,0,1,1.76.26Z" transform="translate(-1.49 -1.14)"/><path class="cls-1" d="M38.46,146.6a13,13,0,0,1,1.21-5.72A9,9,0,0,1,43.16,137a10,10,0,0,1,5.29-1.38,9.55,9.55,0,0,1,7,2.67,10.81,10.81,0,0,1,3,7.26l0,1.48a11.43,11.43,0,0,1-2.72,8,9.35,9.35,0,0,1-7.29,3,9.41,9.41,0,0,1-7.3-3,11.61,11.61,0,0,1-2.73-8.14v-.26Zm5.65.41a8.22,8.22,0,0,0,1.13,4.7,4,4,0,0,0,6.46,0c.77-1.07,1.15-2.79,1.15-5.14a8.08,8.08,0,0,0-1.15-4.67,3.74,3.74,0,0,0-3.25-1.66,3.68,3.68,0,0,0-3.21,1.65A9.15,9.15,0,0,0,44.11,147Z" transform="translate(-1.49 -1.14)"/><path class="cls-1" d="M61.4,146.64a12.86,12.86,0,0,1,2.31-8,7.47,7.47,0,0,1,6.25-3A6.55,6.55,0,0,1,75.38,138l.23-2h5.12v20.86a9.39,9.39,0,0,1-1.26,4.93A8.09,8.09,0,0,1,75.92,165a12.3,12.3,0,0,1-5.36,1.1,11.48,11.48,0,0,1-4.54-1,8.07,8.07,0,0,1-3.34-2.44l2.5-3.51a6.55,6.55,0,0,0,5.12,2.41,4.77,4.77,0,0,0,3.5-1.23,4.68,4.68,0,0,0,1.25-3.48v-1.16A6.48,6.48,0,0,1,69.91,158a7.43,7.43,0,0,1-6.17-3,12.84,12.84,0,0,1-2.36-8.07v-.23Zm5.65.43a8,8,0,0,0,1.15,4.6,3.65,3.65,0,0,0,3.17,1.67,3.89,3.89,0,0,0,3.69-2v-9.09a3.9,3.9,0,0,0-3.66-2,3.7,3.7,0,0,0-3.2,1.7A9.2,9.2,0,0,0,67.05,147.07Z" transform="translate(-1.49 -1.14)"/><path class="cls-1" d="M97.2,141.42a14.53,14.53,0,0,0-2-.16q-3.21,0-4.2,2.21v14.12H85.32V136h5.34l.16,2.57a5.21,5.21,0,0,1,4.71-3,5.9,5.9,0,0,1,1.76.26Z" transform="translate(-1.49 -1.14)"/><path class="cls-1" d="M111.83,157.59a6.58,6.58,0,0,1-.57-1.93,6.77,6.77,0,0,1-5.34,2.33,7.43,7.43,0,0,1-5.15-1.83,6,6,0,0,1-2-4.63,6.13,6.13,0,0,1,2.49-5.26q2.49-1.83,7.2-1.86H111v-1.24a3.58,3.58,0,0,0-.75-2.39,2.92,2.92,0,0,0-2.38-.9,3.3,3.3,0,0,0-2.24.7,2.38,2.38,0,0,0-.81,1.91H99.19a5.89,5.89,0,0,1,1.13-3.47,7.47,7.47,0,0,1,3.21-2.5,11.38,11.38,0,0,1,4.65-.91,9.09,9.09,0,0,1,6.21,2,7.08,7.08,0,0,1,2.3,5.63v9.35a10.42,10.42,0,0,0,.84,4.65v.34Zm-4.67-4a4.82,4.82,0,0,0,2.31-.57,3.72,3.72,0,0,0,1.56-1.53v-3.71h-2.11c-2.83,0-4.33,1-4.52,3l0,.34a2.32,2.32,0,0,0,.74,1.77A2.82,2.82,0,0,0,107.16,153.58Z" transform="translate(-1.49 -1.14)"/><path class="cls-1" d="M126.58,136l.18,2.41a7.37,7.37,0,0,1,6.08-2.81q4.08,0,5.61,3.29a7.22,7.22,0,0,1,6.35-3.29,6.25,6.25,0,0,1,5.12,2q1.68,2,1.68,6.15v13.78h-5.67V143.82a4.15,4.15,0,0,0-.7-2.68,3.07,3.07,0,0,0-2.48-.85,3.53,3.53,0,0,0-3.52,2.47l0,14.82H133.6V143.84a4.13,4.13,0,0,0-.72-2.71,3.1,3.1,0,0,0-2.46-.84,3.66,3.66,0,0,0-3.48,2v15.26h-5.65V136h5.29Z" transform="translate(-1.49 -1.14)"/><path class="cls-1" d="M161.48,136l.18,2.41a7.37,7.37,0,0,1,6.08-2.81q4.08,0,5.61,3.29a7.22,7.22,0,0,1,6.35-3.29,6.25,6.25,0,0,1,5.12,2q1.68,2,1.68,6.15v13.78h-5.67V143.82a4.15,4.15,0,0,0-.7-2.68,3.07,3.07,0,0,0-2.48-.85,3.53,3.53,0,0,0-3.52,2.47l0,14.82H168.5V143.84a4.13,4.13,0,0,0-.72-2.71,3.1,3.1,0,0,0-2.46-.84,3.66,3.66,0,0,0-3.48,2v15.26h-5.65V136h5.29Z" transform="translate(-1.49 -1.14)"/><path class="cls-1" d="M200.82,158a10.29,10.29,0,0,1-7.58-2.91,10.46,10.46,0,0,1-2.92-7.76v-.56a13.25,13.25,0,0,1,1.23-5.81A9.1,9.1,0,0,1,195,137a9.66,9.66,0,0,1,5.15-1.39A8.69,8.69,0,0,1,207,138.4q2.49,2.79,2.49,7.92v2.35H196a5.37,5.37,0,0,0,1.65,3.39,4.94,4.94,0,0,0,3.49,1.28,6,6,0,0,0,5.1-2.41l2.77,3.17a8.5,8.5,0,0,1-3.44,2.86A10.86,10.86,0,0,1,200.82,158Zm-.64-17.73a3.52,3.52,0,0,0-2.73,1.16,6.1,6.1,0,0,0-1.34,3.33H204v-.46a4.36,4.36,0,0,0-1-3A3.59,3.59,0,0,0,200.18,140.26Z" transform="translate(-1.49 -1.14)"/></svg>