<svg xmlns="http://www.w3.org/2000/svg" viewBox="34 32 356.8 148.2"><defs><clipPath id="clip-path"><circle cx="355.6" cy="88.3" r="33.2" fill="none"/></clipPath><style>.cls-3{fill:#fff}.cls-8{fill:#33bef2}</style></defs><g clip-path="url(#clip-path)"><path class="cls-3" d="M362.5 96.5a23.5 23.5 0 00-3.8 10.3c-.7 6.1.5 4.3-.6 7l-.3.7c.1 0 .8-.2 3-1.4s4.4-.8 9.1-4.7 5.7-11.7 5.8-12.4a4.1 4.1 0 00-1 1.7 5.5 5.5 0 01-1.3 2c-.2.1-5.3 5-6 5.4a45 45 0 00-4.2 4.5c-.6 1-2.6 2.6-3 2.5a2.5 2.5 0 01.3-.7 13.6 13.6 0 003-8.2c0-1.2-.9-5.7-1-6.7"/><path class="cls-3" d="M366.8 102.4a1.3 1.3 0 010-1.1 6.3 6.3 0 00-.6-4c-1-1.7-3-6.4-2.8-9.6s.6-3.5.6-3.5 1 2.5 1.3 3 3.3 5 3 7.5-.3 3.3-.2 3.4.5-.3.6-.6a23.3 23.3 0 011.5-4.1c1-2 4.8-6.6 5.7-9.6a13.6 13.6 0 01-2.1 10c-3.4 5-3.8 3.9-5.2 6s-1.6 2.6-1.8 2.6"/><path class="cls-3" d="M369.8 88.6c-.2 0 0-2-.7-2.7s-5.8-6-6.9-11.3c0 0 3.3 2.9 3.9 3.2a10.8 10.8 0 013.4 3.9c.6 1.6.5 3 .7 3s.3-1.8.3-1.8a41.7 41.7 0 01.4-5.4c.3-1.7 1.3-4.6.9-6a11.5 11.5 0 011.8 6.4 15.7 15.7 0 01-2.2 7.3 12.3 12.3 0 00-1 2.7c0 .4-.6.7-.6.7"/><path class="cls-3" d="M363.7 61.4s6.8 3.4 5.7 15.1c0 0 0 .5-.4 0a12.8 12.8 0 00-2.5-2.5c-.6-.4-6.7-3.5-9.2-8.4a1.4 1.4 0 011 .4 18.7 18.7 0 002.7 1.4 10.3 10.3 0 014 2 11.2 11.2 0 012.6 3.5s.4.3.1-.6a7.3 7.3 0 00-1.1-2.5 9.7 9.7 0 01-1.6-4.4c-.1-1.3-.6-3.3-1.3-4"/><path class="cls-3" d="M362.5 65.5a2.9 2.9 0 00-.5-2c-.6-1-.1-2.2-2.2-5-1.1-1.7-5.2-3-5.2-3l2 2.2a7.8 7.8 0 011.2 1.8c.3.4 1.7 1.5 2.2 2.2a1.5 1.5 0 01.3.7c0 .2-.6-.2-.7-.3a14 14 0 00-4.2-2 45.4 45.4 0 01-5.3-.9 21.2 21.2 0 007.3 3.6c3.8.8 5.1 2.7 5.1 2.7M358.7 116.3l-3.7 1.2-3.6 1.5-2.2.8s-1.4.2-1.5 0 .8-.7.8-.7c2.2-1.2 2.3-1.6 4.3-3.6s2.4-5.3 2.5-6a22.8 22.8 0 01.6-2.5 24.6 24.6 0 00-6.4 7c-.6.8-1 1.6-1.3 2.2-1 2.4-2.1 4.4-3.9 4.4l-.3.3a8.4 8.4 0 002-.2 10.4 10.4 0 012.7.2c1.7.3 5 .5 5 .5 8.3.1 14.3-6.7 15.3-7.8a12.2 12.2 0 002-3.4c-3 4-10.2 5.6-12.3 6"/></g><path d="M386.6 76.2c-.2-.2-.4-.5-.7-.3s-.5 0-.6-.3c-.3-.4-.5-1-1.1-.3a.3.3 0 01-.4 0c-.3-.3-.7-.7-.6-1.3-.2.2-.1.4-.2.5a1.4 1.4 0 01-1.8.6c-.3-.2-.6-.5-.7 0s-.5.8.2 1c.3.2 1 .6.7 1a4.7 4.7 0 00-.5 2c0 .1 0 .2-.2.2-.3-.2-.5.2-.8.2-.7.2-.7.5-.4 1 .1.2 0 .5-.2.5-.7-.1-.7.5-1 .8-.5.6-.1 1.3-.3 2 0 .2-.2.7.2 1s.5-.4.7-.7c.4-.6 1-1.1 2-.8l-1.3 1.4c-.4.4-.7.7-.2 1.3.3.2.1.7-.1.9s-.4-.2-.6-.3c-.3-.3-.5 0-.5.2a1.4 1.4 0 000 .5c.1 1-.2 1.2-1 1-.5 0-.4-.5-.6-.8-1.6 1.3-2.7 1.3-4 0-.3-.3-.4 0-.5.2a1.4 1.4 0 01-1.5.7 1.6 1.6 0 00-.6 0c-.6.1-.7-.3-.7-.8 0-.7.2-1 .8-.9s.6 0 .6-.6c0-.9.1-1 1-.9.6 0 .6-.2.6-.6a1 1 0 00-.4-.7c-.3-.3-.7-.7-.3-1.2v-.2a.3.3 0 00-.3-.1l-.2.1c-.6.1-.5.1-.3.6a1.2 1.2 0 010 1.2c-.3.3-.6.3-.9.2s-.7 0-.7.4c0 .8-.6 1-1.1 1.4a1.5 1.5 0 01-.4-1c0-.4-.3-.4-.4-.6s0-.3-.2-.3a.4.4 0 00-.4.3 1.8 1.8 0 00.7 2.1c.4.2.4.6.4 1s-.4.5-.7.5a1.7 1.7 0 01-1.7-.7 3 3 0 01-.4-2.6c.1-.4.2-.6 0-.8-.6-.4-.5-.7 0-1 .2-.3.4-.6 0-.8a.4.4 0 01-.1-.6c.2-.4.4-.8.8-1 .3-.1.4-.3.1-.4s-.2-1-.7-.4c-.2.1-.3.2-.4.1a.4.4 0 01-.3-.4.3.3 0 01.3-.3c.6 0 .5-.2.3-.6a.7.7 0 010-.5c.4-1.1.8-2.2 1-3.3l.6-1.3c0-.2-.5-.4 0-.6.2-.1.4-.3.8-.1-.2-.5-.5-.8-.4-1.2a1 1 0 00-.5-1c-.3-.2-.5.4-.8.5-.1 0-.2.5-.4.3a3.2 3.2 0 00-.7-.4h-.2a.5.5 0 00-.2.7.5.5 0 00.6.2c.2 0 .5 0 .6.2a.8.8 0 01-.3.6c-.2.2-.3 0-.5-.2a5.2 5.2 0 01-1.9-.6c-.3-.1-.7 0-1-.3-.2-.3-.6-.1-.8.3 0 .1-.1.3-.3.3s-.3-.2-.4-.4V72c-.2-.2-.1-.8-.5-.8s-.2.5-.3.8-.4.5-.7.4a1.1 1.1 0 000 .2c0 .2.6.4.2.7s-.5-.2-.7-.4l-.5-1c-.3-.4-.9-.2-1.3-.4a4.2 4.2 0 01-1.6-1c-.4-.5-.7-.8-.4-1.5 0-.2 0-.6-.5-.5s-.7-.4-1.1-.2l-.2-.1.1-.3c.1 0 .4 0 .4-.3s-.3 0-.4 0l-.3-.3c0-.2.2-.1.3-.1a.4.4 0 00.4-.3l.1-.2c-.3-.5-.5-.5-.7 0s-.5 0-.7.3a3 3 0 01.3 1.6l-.5-.4c-.2 0-.3-.4-.6-.3a.6.6 0 000 .8v.3c.2 1 .2 1-1 1 .1-.4 0-.4-.2-1-.2-.3-.4-.6-1-.4a.3.3 0 01-.2 0c-.5-1-.6-.3-1 0a.7.7 0 00-.1 1 .6.6 0 010 .6l-1 1.7c0 .2 0 .4.2.5.6.1.6.7.9 1.1v.4c0 .1-.3 0-.4 0s-.4-.4-.4.1-.3.6-.6.5-.7-.3-.6-.8l.2-.9c-.4 0-.8 0-.9.5 0 .3-.2.6-.5 0a.5.5 0 00-.5-.3c-.3 0-.2.4-.2.5a8 8 0 01-.6 1.2.7.7 0 01-1.2.2c-.3-.2-.6-.5-1-.5s-.6 0-.7-.3-.3-.6-.7-.5c-.7.1-1 0-1.2-.8a1 1 0 00-.6-.8 1 1 0 01-.3-1.5.5.5 0 000-.7.6.6 0 00-.7-.2 1.6 1.6 0 01-1.3-.3c.2-.3.7 0 .7-.5s-.4-.5-.7-.6l-.4-.3-.1-.7c.4.3.8-.3 1-.1a2.9 2.9 0 001.4.3c1 .1 1 .1.9-.9-.1-.5.4-2 .8-2 .6-.2.7-.7.6-1.1s-.1-1-.5-1.1-1-.5-1.4.2h-.2c-.6-.4-.9 0-1.2.4s-.5.7-1 .8l-.1.2h-.1l.2-.2c0-.6-.3-.6-.7-.5s-.6.5-.3.7c.8.8-.2 1.2-.3 1.7l-.1.6c-.2-.4-.5-.8-.8-.1s-.5.4-.9-.3c0 .6 0 1-.5 1-.2 0-.4 0-.2.2.4.5-.1.7-.1 1s.3.6.2 1c-.1.3-.2.5-.5.6a.6.6 0 00-.5.6.5.5 0 01-.4.4 1.2 1.2 0 00-.8 1.4c0 .8-.5 1.2-.6 1.8 0 .2-.6.2-1 .3l-.6.2c.2.3.9.6.3 1-.3.1-.4.2-.4.5s-.4.5-.7.5c-.3 0-.1-.3 0-.5a1.6 1.6 0 000-.2c.3-1.5.2-3.1 1.3-4.3.6-.7.6-1.6 1.4-2.1a.5.5 0 000-.7 33.3 33.3 0 00-4.6 8.5 1.7 1.7 0 010 1.1 20.9 20.9 0 00-.9 6.6 10.8 10.8 0 000 2.1c.4 1.9.8 3.8 1 5.7a10.3 10.3 0 002 6 12.7 12.7 0 012 3.7 7.6 7.6 0 001.5 2.6c.8.8 1.6 1.5 2.2 2.4a4.8 4.8 0 002 1.8 1.1 1.1 0 01.5.6 2.6 2.6 0 00.8.9.7.7 0 01.9.4l.2.4c.7 0 1 .7 1.5 1a.7.7 0 00-.2-.4 1.5 1.5 0 01-.5-1.3 5 5 0 010-1.2 1.8 1.8 0 01-.3-.7 1 1 0 00-.3-.2l-1.5-1c-.4-.2-.6-.4-.5-.7a.2.2 0 00-.1-.2l-.3.1c0 .1 0 .2-.2 0s-.1-.3-.1-.4a.3.3 0 00-.4-.4c-.6 0-.7-.3-.6-.7s0-.5-.5-.3a.7.7 0 01-.8-.2 1 1 0 00-1-.4c-.3 0-.6-.1-.4-.3.4-.5-.2-1.2.5-1.6.1-.1 0-.3-.2-.4-.4-.2-.3-.6 0-.9.4-.6.4-.7-.4-1-.3-.1-.6-.3 0-.6.2 0 .1-.2.1-.4a.9.9 0 00-.7-.1c-.3 0-.6-.3-.5-.5.5-.7-.2-1.6.6-2.2.1-.2 0-.4-.2-.5a.9.9 0 01-.1-1.3c.5-.8.5-1-.3-1.4-.4-.2-.7-.5-.2-.8.3-.2.3-.5.2-.7 0-.6.2-.9.8-.9h1.3c.1 0 .4 0 .3-.3s.3-.7-.1-.9-.5-.1-.5-.5.5-.3.8-.3.7.1 1-.3.5-.2.7 0a3.4 3.4 0 002.7.1 10 10 0 01-2-.2c-.3 0-.7-.1-.5-.6s.3-.6.8-.4a1.8 1.8 0 001.3 0h1a1.9 1.9 0 01.7-.8 1.5 1.5 0 01.3-.1 1 1 0 01.5-.6 1.4 1.4 0 01-.2-.9 1.1 1.1 0 01.8-.9 2.2 2.2 0 01.3-.8 1.6 1.6 0 01.2-.3.3.3 0 01-.2-.3c.2-1-.3-1.5-1.3-1.4l-.6-.3c-.2-.2-.3-.6 0-.7.7-.4.6-1 .6-1.5 0-.4 0-1.2.8-1a3.2 3.2 0 001.2-.2c.6-.1.6.5.8.7s-.3.3-.5.4v.1h-.1l.1-.2c0-.1 0-.5-.2-.4s-.4.6-.2 1 .2.7.7.4.3-.3.7 0 .8 0 1.2 0c-.2-.4.2-1-.5-1.2s-.6-.6-.2-1.1a1.4 1.4 0 010 .3c0 .5.3.4.7.4.5 0 .2-.3.2-.5a.7.7 0 011-.7c.5.1 1.2-.2 1.3.6h.4s.4 0 .6.2l-.1.2c-.1.1-.2.5 0 .6.3.3.2-.3.3-.2s.5-.2.7 0c.6.4.6 0 .5-.4 0-.2-.1-.4.1-.5.7.8.8 1 1.3.7s.6 0 .7.3a.8.8 0 01-.3 1c-.5.3-.4.6-.2 1s.1.5-.3.6a1.9 1.9 0 01-1.7-.8c-.2.4-.5.7.2.8.5 0 .7.3.4.8a1.4 1.4 0 00-.2 1.3c.2 0 .2-.2.2-.2 0-.6.3-1 .8-1s.2.6.2 1 0 .6.4.6h.6a2 2 0 01.5 0 .4.4 0 00.2-.1c.3-.2.1-.6.2-.9a.7.7 0 01.7-.6c.4 0 .3.4.3.6 0 .5 0 1 .7 1a.9.9 0 01.3 0 2.8 2.8 0 01.5 0c-.3-.5 0-1-.2-1.5 0-.3 0-.6-.2-.9v-.3c.6-.2.9-.9 1.4-1s.9-.4.8-1 .7-1.2 1.3-1.2a.4.4 0 00.2 0c.2-.2.4-.6.7-.4a2.5 2.5 0 01.8 1c.1.5-.4.6-.7.7-.5 0-.4.1-.4.6a2.5 2.5 0 001.2 1.6 5.7 5.7 0 01.7.6c.5.6.5.8-.1 1.2s-.6 1.2-1.1 1.9a2.5 2.5 0 00-.2-.4 3.3 3.3 0 000 .4l.3.4a1.3 1.3 0 01.1.7 1 1 0 010 .3.6.6 0 010 .1v.2a1.4 1.4 0 01-.1 1.2c0 1 .2 1.1 1.4 1a5.4 5.4 0 012.5 0c.5.3.7.5.6.9a4.9 4.9 0 01-.5 1.7c.8-.4 1 .2 1.3.5a1.1 1.1 0 010 1.2c0 .2-.5.2-.6.5l-.2-.1a1.4 1.4 0 010-.4c0-.3 0-.4-.3-.4s-.3.3-.2.5l.3.7c0 .3.4.7.2 1.1-.1.2-.4.5 0 .6a.5.5 0 00.7-.4l.1-.3a2.4 2.4 0 002 .6c.2 0 .4 0 .3-.3s-.2-.5.3-.5c.2 0 .5-.4.8-.2.6.6 1 .2 1.6-.2l.9-.7a.4.4 0 010 .6c-.3.4-.7.7-.5 1.2l-.1.2c-.5.6-1.1 1.1-.7 2a.2.2 0 01-.3.3.2.2 0 01-.2-.2c0-.6-.3-.7-.7-.7.2.4 0 1 .1 1.3a2 2 0 001.3 1.3c.1 0 .4.1.2.3-.3.4-.1 1 0 1 .6.1.5.5.7.8 0 .1.3 0 .4 0 .8 0 1.2-.7 1.6-1.1.2-.2.4-.4.6-.4s.4.4.4.6a6.4 6.4 0 010 1.1 1.2 1.2 0 00.5 1.1c.4.3.6-.1.9-.2s.5-.7.8-.5c.9.5 1.4-.3 1.7-.7a4 4 0 012.5-1.6c.3-.1.5-.3.5-.6 0-.7.6-1.1.5-1.8a.3.3 0 01.2-.3c.8-.1.7-1 1.2-1.4a6.5 6.5 0 001-1.6c.2.1.3.4.6.3-.2-.2 0-.4 0-.7s.4-.8-.3-.6c-.2 0-.5 0-.6-.2s.3-.3.3-.6.5-.3.5-.2c.2.6.6 0 .9.2.8.4.8-.3.9-.7 0-.3.3-.6-.1-.7-.2 0-.4 0-.3-.2s0-.4.3-.4.4 0 .3-.3c0-.5.3-1 .2-1.5 0-.1 0-.4.2-.4.6 0 .6-.7 1-.9s1-.4.5-1l.1-.2a.7.7 0 00-.2-.8c-.4-.3-.2-.6 0-.8a2 2 0 00.7-1c.1-.5.3-.7.8-.6a.4.4 0 00.5-.3l-.1-.4c-.7-.3-.4-1-.4-1.5 0-.2 0-.5.2-.5s.5.3.5.5a2.8 2.8 0 00.3 1.1 32.5 32.5 0 00-1.5-5.3zm-50 9.4c.1-.3.3-.2.4-.1zm50.6-6.3a.8.8 0 00-1 .3c-.2 0-.3.3-.5 0s0-.3 0-.4a1.5 1.5 0 011.6-.3.4.4 0 01.3.3c-.1.2-.2.2-.4 0z" opacity=".3" fill="#fff"/><path d="M381.1 104.3c.1-.3.4-1-.1-1.2a.2.2 0 01-.2-.3 2 2 0 00-.7.4.3.3 0 01-.4 0h-.1l-.2.2a.5.5 0 01-.6.2c-.5-.1-.3-1-.8-1a.3.3 0 01-.3-.2l.1-.2h-.2l-.6.1a.8.8 0 01-.6 0h-.1a1 1 0 01-.8.5l-.1.2c0 .5-.5.8-.5 1.3 0 .3-.2.4-.5.4a3.8 3.8 0 00-2.3 1.2 1.2 1.2 0 01-1.5.5c-.2-.1-.4.3-.7.4s-.4.3-.8.1a.8.8 0 01-.4-.8 2.9 2.9 0 000-.7.4.4 0 00-.4-.5c-.2 0-.3.1-.5.3a2.7 2.7 0 01-1.5.8c-.1 0-.3.1-.4 0s0-.5-.5-.6c-.2 0-.4-.4 0-.7s-.1-.3-.3-.3a1.6 1.6 0 01-1.1-.9c-.2-.3 0-.6-.2-1 .4 0 .8 0 .7.5l.2.2c.1 0 .3-.1.2-.2-.3-.7.2-1 .7-1.5v-.1c0-.4.2-.6.5-.9a.3.3 0 000-.4l-.8.5c-.4.2-.9.5-1.5.1-.2-.1-.4.2-.6.2-.5 0-.4 0-.3.3s-.1.2-.3.3a2.6 2.6 0 01-1.8-.5l-.1.2a.5.5 0 01-.6.3c-.4 0-.1-.3 0-.4.2-.3-.1-.6-.2-.8l-.3-.5c0-.2 0-.4.2-.4s.4.1.3.3v.3l.2.1c0-.2.4-.2.5-.3a.7.7 0 000-1c-.2-.2-.5-.6-1.2-.3a2.9 2.9 0 00.5-1.3c.1-.3-.1-.4-.5-.6a6.3 6.3 0 00-2.3 0c-1.1 0-1.3 0-1.3-.8 0-.6 0-.7-.4-.7a1.4 1.4 0 00.1-.6l-.2-.6c-.1-.5.6-1 .3-1.5l.1.1c.1-.3 0-.5-.4-.7.5-.3.6-.5 0-.8a5.1 5.1 0 00-.6-.5 1.9 1.9 0 01-1-1.3c-.1-.3-.2-.4.3-.4.3 0 .8-.1.6-.5a1.9 1.9 0 00-.7-.8c-.3-.1-.5.2-.7.3h-.1c-.6 0-1.3.4-1.3.9s-.3.6-.7.7-.8.7-1.3.8c-.1 0-.1.2 0 .2l.1.7a1.4 1.4 0 010 .6.5.5 0 00-.4.5c0 .2 0 .5-.2.6a2.6 2.6 0 01-1.2 0c-.3 0-.3-.3-.3-.5s.2-.6-.2-.6a.6.6 0 00-.7.6s0 .2-.2.2a.8.8 0 01.1-1c.3-.3.2-.5-.3-.5-.6 0-.4-.3-.2-.6a1.8 1.8 0 001.5.6c.4 0 .5-.1.3-.4s-.3-.5.2-.7c.2-.2.4-.4.3-.7s-.2-.5-.7-.3-.5.1-1.2-.5c-.2.1 0 .3 0 .4 0 .3 0 .6-.5.3-.2-.2-.4 0-.7 0s.1.3-.2.1-.1-.2 0-.4v-.2h-.8c-.1-.6-.8-.4-1.2-.5s-1 .1-.9.5c0 .1.3.4-.2.4-.3 0-.6 0-.6-.4v-.2c-.4.4-.3.7.2.9s.3.5.4.7c-.4.1-.8.3-1 0s-.4-.1-.7 0-.4 0-.6-.2-.2-.6.1-.8.2.2.3.4c.2 0 .5 0 .4-.3s-.2-.6-.7-.5a3.5 3.5 0 01-1.1 0c-.8 0-.7.5-.7.8s0 .9-.6 1.1c-.3.1-.2.4 0 .6a1 1 0 00.5.2c.7 0 1 0 1.2.4h-.2a2.2 2.2 0 00-.7.2l-.3.1a.7.7 0 01-.2 0 .3.3 0 01-.2.3.4.4 0 01-.5-.1c-.1-.2 0-.4-.2-.5H336l-.1.1v.3a1 1 0 01-.4.2 1.4 1.4 0 00-.4.2h-.2l-.3-.4a1 1 0 01-.6.1 2.2 2.2 0 00-.8 0c-.4.1-.4.5-.7.7a.7.7 0 01-.6.1h-.5v.2c.2.2.1.4.2.5a.9.9 0 00.1.4 4.6 4.6 0 00.3.4v.2a2.8 2.8 0 00.4 0 3 3 0 00.6.2l-.2.1a2.3 2.3 0 00-.3-.2 2 2 0 00-.6-.1c-.2 0-.2.2-.2.3a.5.5 0 01-.4.3.7.7 0 01-.4 0H330.5a2.4 2.4 0 00.2.2l.1.1c0 .2.2.3.3.3a.4.4 0 01.3.5h-.3l-.3-.4a.4.4 0 01-.2-.3l-.2-.1a1 1 0 00.8 1 2.7 2.7 0 001.8 0h.4a.7.7 0 00.4-.3 2.3 2.3 0 00.5 0h.2c0 .2.3.2.5.3a10.5 10.5 0 001.8.1 3.7 3.7 0 01-2.5 0c-.2-.1-.4-.3-.6 0s-.6.2-1 .2-.5 0-.6.2.1.3.4.4 0 .4 0 .6 0 .1-.2.1l-1.1.1c-.3 0-.8.2-.7.6v.1c0 .1 0 .3-.2.4-.5.3-.3.5 0 .6.8.3.9.5.4 1-.3.3-.3.7 0 1 .2 0 .4.2.2.3-.7.4 0 1-.5 1.6-.1.2.2.3.5.3a1 1 0 011 .4.7.7 0 00.7.2c.5-.2.6 0 .5.3s0 .7.7.7a.3.3 0 01.3.4l.1.5c.1.2.3 0 .3 0l.2-.2a.2.2 0 01.2.2c-.2.3.1.5.4.7.6.3 1 .8 1.6 1a1 1 0 01.2.2.8.8 0 01.4.7 5 5 0 000 1.2 1.5 1.5 0 00.5 1.3.7.7 0 01.2.4.9.9 0 00.3.5 12.8 12.8 0 011.1 1c.3.2 0 .4 0 .5s-.4 0-.5-.1l-.3-.2c-.7 0-.9-.8-1.6-.8l-.3-.3a.7.7 0 00-.8-.3l2.3 1.8c.3.3.4.8 1 .4h.3a13.2 13.2 0 002.6 1.2 13.4 13.4 0 004 1.3 3.8 3.8 0 011.4.3c.3 0 .7-.2.7.3a3.7 3.7 0 002.6 0 2.9 2.9 0 011.2 0 16.3 16.3 0 005.2 0c1 0 2.1-.3 3.2-.3a56 56 0 006-1c.6-.1 1.2-.3 1.5-.9l.4-.2 3-.9c.6-.2 1.1-.5 1.2-1 .1-.5.5-.8 1-1 .9-.6 2-.8 2.7-1.7a4.2 4.2 0 01.6-.6l2-1.7 1.2-1.4v-.1a5.2 5.2 0 011-2.4zm-44.7-3.2s-.2-.2-.3 0 0 .2.1.3a.8.8 0 01.7.7c0 .3-.1.4-.4.4a.3.3 0 01-.5-.2 2.2 2.2 0 000-.4c-.2-.3-.3-.4-.6 0a.4.4 0 01-.4 0c-.3 0 0-.1 0-.3 0-.4-.3-.9-1-1a.3.3 0 01-.2-.2c-.2-.4.4-1.5 1-1.7-.3-.2-.6-.3-.2-.7.2-.1.1-.5.1-.7s.1-.3.4-.4.2.2.2.3l.5.7c.1.2.3.2.5 0s.5 0 .5.2c.3 0 .5 0 .5-.3s0-.4.3-.4.3.2.4.4c.2.3-.2.6-.2.9s-.3.5.2.5.2-.3.3-.5c.9.7.9 1 .1 1.6a2.5 2.5 0 00-.4.5 1.2 1.2 0 01-1.6.3zm2.9-4.5c-.5 0-1 .1-1.4-.3-.2 0-.4.2-.7.1a1 1 0 00.6-.3 1.6 1.6 0 001.5-.1v-.1h.3a2.6 2.6 0 000 .3.4.4 0 01-.3.4zm1.2 18.1c-.4 0-.3-.3-.4-.5s.1-.2.3-.2a.8.8 0 01.7.3c-.1.3-.4.4-.6.4zm1.7-18.4c-.2.5-.8.3-1.2.3s-.2-.3-.3-.4v-.3a3.6 3.6 0 001-.4 2.2 2.2 0 001 .2 1.9 1.9 0 00.3.5c-.6-.2-.7-.2-.9.1zm21 6.6c-.1-.2 0-.3.1-.5s.2-.3 0-.4c-.2 0-.3-.1-.2-.3a.4.4 0 01.4-.1.3.3 0 01.2.2l.1.8c-.3 0-.3.2-.6.3zm2 10.1c-.2-.2-.1-.4 0-.6h.3c0 .2 0 .4-.3.6z" opacity=".6" fill="#fff"/><path d="M353.2 66.6v.2a.4.4 0 01-.5.2c-.1 0-.3 0-.3.2s.1.3.3.2.3 0 .4.1-.2.2-.4.2-.1.2 0 .3l.1.2c.4-.3.7.3 1 .2s.7.3.6.5c-.3.7 0 1 .4 1.4a4.2 4.2 0 001.6 1.1c.5.2 1 0 1.4.5l.4.8c.2.2.4.7.7.5s-.1-.5-.2-.7a1.1 1.1 0 010-.2c.4 0 .6 0 .7-.4s0-.8.4-.8.2.5.5.8c0 .3.1.5.3.5s.3-.2.3-.4c.2-.4.6-.5.8-.3.3.5.7.3 1 .4a5.2 5.2 0 001.9.5v.1c0 .1.3.4.5.2a.8.8 0 00.3-.6c0-.3-.3-.2-.5-.2a.5.5 0 01-.7-.2.5.5 0 01.3-.7h.1a1 1 0 01-.2-.2l.3-.2-.1-.1a.5.5 0 01-.2-.2 4.3 4.3 0 01-.5-.1c-.7-.3-1.5-.2-2.2-.5l1.5-.5h.1a4.5 4.5 0 01.7-.1c.7 0 1.4.2 1.8-.5h.3c.4.2.6.2.5-.3 0-.2.2-.2.4-.2a5.4 5.4 0 00.7.1c.5 0 .6.2.3.6s-.4.7.3.6a.8.8 0 01.3 0c.7.2 1.1 0 1.4-.7l.6.6c.2.2.6.2.5-.2-.2-.9.5-.9 1-1l-.3-.4c-.3-.3-.2-.6 0-.8s.5 0 .7.3a2.3 2.3 0 01.5 1.7.7.7 0 00.6.8c.4.1.6 0 .7-.5a1 1 0 011.1-.9c.3 0 .7.3 1-.1a1 1 0 00-.6-.2c-.4 0-.4 0-.3-.4 0 0 .1-.2 0-.2-.3-.3-.6-.5-.4-1a5.2 5.2 0 00-1-.1c-.2 0-.4 0-.5-.3s0-.4.1-.3c.5.2.8-.3 1.2-.2a1.5 1.5 0 00.3-1.8c-.2-.8.2-1.2 1-1 .2 0 .3 0 .3-.3a.2.2 0 000-.1.2.2 0 00-.2 0c-.3 0-.4 0-.4-.2a.4.4 0 010-.2l-.2-.2-2.3-1.6-.4.2c-.3.3-.2-.4-.4-.6l-.2-.2v-.1a33 33 0 00-16.8-4.5 34 34 0 00-7 .7 3 3 0 01-1.2 1c.2.2.7.1.3.7a.5.5 0 00.1.6c.8.5.5.8 0 1.2l-.2.3a.3.3 0 00.4 0 1.9 1.9 0 00.4-.2c.1-.2.2-.3.4 0s.6.7 1.2.7l.4.1-.4.6c-.2.2-.2.1-.3 0-.4-.6-.8-.1-1.2 0-.2 0-.3.2-.2.5l.5.6c.1 0 .3.3.1.3-.7.4-.4 1-.6 1.6 0 .2 0 .3.2.4a.5.5 0 00.5 0c.3 0 0-.2 0-.3a.4.4 0 01.4-.6c1 .1 1.2-1.3 2.2-1.3V62c-.5-.8.3-.7.6-1s.7.2 1 .3.3.4.1.6.1.5.2.6a.2.2 0 00.3 0c.8-.8.8 0 .8.5a1.1 1.1 0 00.2.5c.2.6 0 2-.6 2.2a3 3 0 00-.5.4 2.4 2.4 0 00-.5.5m10-9.2c-.1.3-.4.3-.6.4s-.4-.2-.4-.4a.6.6 0 00-.2-.5c-.1-.1-.5-.3-.2-.5s.5-.3.7.1c.2.3.8.3.7 1zm6.3 11.8v.1zm2.6-4.8c-.4 0-.7.4-1.2 0s0-.6-.2-1c.5.2 1-.3 1.4 0s0 .7 0 1zm.9 1.6l-.4-.1c-.1-.1-.2-.2-.1-.4s.3 0 .4 0 .3.3.1.5z" opacity=".5" fill="#fff"/><circle cx="355.7" cy="88.4" r="33.3" opacity=".4" fill="#fff"/><path class="cls-3" d="M192.7 83.4a19.5 19.5 0 01-13.3-23.2l12.6 1.6s4.9.3 4.7 8.8c-.2 8.3-4 12.8-4 12.8M204 83.4a19.4 19.4 0 0013.3-23.2l-12.7 1.6s-4.8.3-4.7 8.8c.2 8.3 4 12.8 4 12.8M198.3 51a3 3 0 013 2.8 3.2 3.2 0 01-2 2.8s-.2.1-.2.3.7.4 1 .4l17 2a19.4 19.4 0 00-18.7-13.9 19.4 19.4 0 00-18.6 14l17-2c.2-.1.8-.3.8-.5s0-.2-.2-.3a3.2 3.2 0 01-2-2.8 3 3 0 013-2.9M206 97.2l1.2-.8s-5.4-7.3-17.6-7.3c-6.3 0-9.5 2.5-13.9 2.5a6 6 0 01-3.5-.9s2.1 3 9.6 3c5.6 0 9.5-3.2 13.4-3.2 5.3 0 9.2 4.7 10.9 6.6"/><path class="cls-3" d="M189.2 97.2l-1.2-.8s5.5-7.3 17.6-7.3c6.3 0 9.5 2.5 13.9 2.5a6 6 0 003.5-.9s-2 3-9.6 3c-5.5 0-9.5-3.2-13.3-3.2-5.4 0-9.3 4.7-11 6.6M183.3 88.4c-.2.6-2.5-.1-4 .4a13 13 0 01-15.3-8s4 4.1 7 4.4a23 23 0 019 2.6l.7.1a.8.8 0 00-.4-.4c-.3-.2-3.2-1.1-4.6-5.7a37.2 37.2 0 01-.9-5.3 47.5 47.5 0 014.4 5.7c1.3 2.2 1.5 4.7 4.1 6.2"/><path class="cls-3" d="M173.8 83.5c-.2.3-.8-.1-1-.2s-1.7-.8-4.4-1.8-7.5-5-7-12.1a9.8 9.8 0 002.7 4.4c2 1.8 2.8 2 4 3.4l4 4.7s.2-.2 0-.4-1-2-1.4-2.6-1.9-4.8.2-10a16.2 16.2 0 012 7.6c-.1 3.8-.3 2.9.6 6 0 0 .5.9.4 1"/><path class="cls-3" d="M167.7 74.3l-1-1.4c-.5-.7-3.5-4-3.9-4.7a10.6 10.6 0 01-1.2-10.7s.2-.1.2 1.3a13.8 13.8 0 002.4 6 11.7 11.7 0 012.3 6s.1.3.3.4.2-.5.2-.5l-.2-3.6a8.7 8.7 0 012-5.4 6.8 6.8 0 001-1.6 2.6 2.6 0 01.7-.8 21.8 21.8 0 01-1.1 8c-1.5 3.8-2 4.4-1.7 6.5z"/><path class="cls-3" d="M165.4 63c-.2 0-.3-.5-.3-.9a21.2 21.2 0 00-.8-3.2 12.7 12.7 0 01-1.4-5.5 14 14 0 013.9-9.2 14 14 0 01-.9 2.7 7.1 7.1 0 00-.2 4 31.5 31.5 0 01.4 3.6 31.1 31.1 0 01-.4 4.2s-.1.4 0 .4l.3-.3a8.2 8.2 0 011.8-4.2c1.7-2 4.6-3.2 5.1-4.1 0 0-.2 3.1-3.7 6.8-3 3.3-2.2 1.6-3.2 4.3a7.9 7.9 0 00-.4 1.2c0 .3-.2.2-.2.2"/><path class="cls-3" d="M167.3 52.4a2.6 2.6 0 01.4-1.4c.6-1 0-2.7.7-5.2s2-6.8 7.1-9.4a6.8 6.8 0 00-.7.8 20.1 20.1 0 00-2 4.7 17.3 17.3 0 01-2.8 5.5c-.6.7-.4.8-.4.8a1.2 1.2 0 00.7-.6 7.7 7.7 0 013.8-2.8 35.3 35.3 0 004.9-1.5 33.9 33.9 0 01-6 5c-3 1.6-3.3 1-5 3.3l-.7.8"/><path class="cls-3" d="M174.2 42.8s0-.3.6-.8 1-2 2-3.4a11.8 11.8 0 018.5-6 15 15 0 00-1.9 1.7 33.7 33.7 0 01-2.6 3.2 20.5 20.5 0 01-3.4 2.6s-.4.3-.3.4.4-.1.4-.1a8.1 8.1 0 014.2-1.6h5s-2 1.6-7.2 2.5-4.2 1-5 1.5h-.3"/><path class="cls-3" d="M183.4 36.9s0-.3 1-.6.7-1 3.2-2.4 5.1-1.9 7.7-.8l-1.2.2-2.7.9a28.3 28.3 0 01-4.4 1.7c-1.1.2-.6.3-.6.3a1.4 1.4 0 00.5.1 12.7 12.7 0 014.3.3c1.6.6 1.6.8 2.2 1s1.4.4 1.5.6l-2.6.2a14.9 14.9 0 01-4.7-.8 6.5 6.5 0 00-3-.8 2.3 2.3 0 01-1.2 0"/><path class="cls-3" d="M193.6 35.6l.8-.3a17.8 17.8 0 012.6-1 8.4 8.4 0 016.7 1h-1.8c-.3 0-3.1.6-3.8.6s-2-.3-2.1-.1 1.2.5 1.4.6a4.5 4.5 0 012.4 1.3 18 18 0 002.2 1.9 31.4 31.4 0 01-4.5-1.3c-.9-.5-2.4-2-2.7-2.2l-1.2-.4"/><path class="cls-3" d="M201.8 37a8 8 0 014 1c1.6 1 3 2.5 3 3.3a6.2 6.2 0 00-1.5-1 21 21 0 01-2.7-1.4l-2.8-1.8M212.4 88.8l1.4-1.3c1-1 1.4-2.3 2.6-4.4a19.4 19.4 0 014.6-5.7 19.6 19.6 0 00-.5 2.1 10.3 10.3 0 01-1.8 5c-1.3 1.5-1.4 2-3 2.9 0 0-.6.4-.5.5h1l1.6-.6 2.6-1.3a25 25 0 012.6-1c1.4-.4 6.6-1.8 8.7-5a10.7 10.7 0 01-1.4 2.8c-.7 1-5 6.6-11 6.5l-3.5-.4a6.7 6.7 0 00-1.8-.2 5.5 5.5 0 01-1.5.1"/><path class="cls-3" d="M225.7 68.7a21.1 21.1 0 00-2.7 8.5c-.5 5 .3 3.5-.5 5.7l-.2.6a9.1 9.1 0 002.1-1.2c1.6-1 3.2-.6 6.5-3.9s4.1-9.6 4.1-10.2a3.6 3.6 0 00-.8 1.4 4.7 4.7 0 01-.8 1.7c-.2 0-3.8 4-4.2 4.5a33.6 33.6 0 00-3 3.7c-.5.7-1.9 2-2.1 2a2.2 2.2 0 01.1-.6 13.3 13.3 0 001.6-3.2 14.6 14.6 0 00.5-3.5c0-1-.6-4.7-.6-5.5"/><path class="cls-3" d="M228.7 73.5a1.2 1.2 0 010-.9 6 6 0 00-.4-3.3c-.7-1.4-2-5.3-2-7.9s.4-2.9.4-2.9l1 2.5c.3.4 2.3 4.1 2.1 6.2a12 12 0 00-.1 2.8l.4-.5a20.2 20.2 0 011-3.4c.7-1.7 3.5-5.4 4-7.9a12.7 12.7 0 01-1.4 8.3c-2.4 4-2.7 3.1-3.7 5s-1.1 2-1.3 2"/><path class="cls-3" d="M230.9 62.2c-.2 0 0-1.7-.5-2.3s-4.2-4.9-5-9.3l2.8 2.7a8.6 8.6 0 012.4 3.2c.5 1.3.4 2.5.6 2.5s.1-1.5.1-1.5a39.2 39.2 0 01.3-4.5c.3-1.4 1-3.8.6-5a10.5 10.5 0 011.4 5.4 14.4 14.4 0 01-1.6 6 11.2 11.2 0 00-.7 2.2c0 .4-.4.6-.4.6"/><path class="cls-3" d="M226.5 39.7s4.8 2.9 4 12.5c0 0 0 .4-.2 0a9.7 9.7 0 00-1.8-2c-.5-.4-4.8-3-6.6-7 0 0 .3 0 .7.3a12.4 12.4 0 002 1.2 7.1 7.1 0 012.9 1.7 9.6 9.6 0 011.8 2.8s.3.3 0-.4a6.2 6.2 0 00-.7-2.1 9 9 0 01-1.2-3.6 7.2 7.2 0 00-.9-3.3"/><path class="cls-3" d="M225.7 43a2.7 2.7 0 00-.4-1.5c-.4-.8 0-1.8-1.6-4.2-.8-1.3-3.7-2.4-3.7-2.4l1.4 1.8a7 7 0 011 1.4c0 .4 1 1.3 1.4 1.9a1.3 1.3 0 01.3.5c0 .2-.4 0-.5-.2a9.7 9.7 0 00-3-1.6 29.2 29.2 0 01-3.8-.7 14.5 14.5 0 005.2 2.9 6 6 0 013.7 2.2"/><path class="cls-3" d="M220 37.2a9 9 0 00-7-3.4 1.5 1.5 0 00.8.4c.4.1 1.3 1 1.8 1.3a12 12 0 004.4 1.7M82.4 32.5v42.1a24.2 24.2 0 01-1.8 9.8 19.7 19.7 0 01-5.1 7 21.6 21.6 0 01-7.8 4.3 31.9 31.9 0 01-9.7 1.5 32 32 0 01-9.8-1.5 21.6 21.6 0 01-7.8-4.3 19.5 19.5 0 01-5-7 24.5 24.5 0 01-1.9-9.8V32.5h13.1v42.1q0 6.3 3 9.2t8.4 2.8q5.3 0 8.3-2.8t3-9.2V32.5zM145.1 96.3h-13.2l-25.6-42v42H93.2V32.5h13.1L132 74.6V32.5h13.1v63.8zM43 137.5a9.1 9.1 0 01-6.8-2.5 9.3 9.3 0 01-2.6-7v-.5a11.9 11.9 0 011.1-5.2 8.2 8.2 0 013.1-3.5 8.6 8.6 0 014.6-1.2 7.7 7.7 0 016.1 2.5q2.2 2.5 2.2 7v2h-12a4.9 4.9 0 001.5 3 4.4 4.4 0 003.1 1.2 5.4 5.4 0 004.5-2.2l2.5 2.9a7.5 7.5 0 01-3 2.5 9.9 9.9 0 01-4.3 1m-.6-15.9a3.1 3.1 0 00-2.4 1 5.4 5.4 0 00-1.2 3h7v-.4a3.9 3.9 0 00-1-2.6 3.2 3.2 0 00-2.4-1M58.4 118l.2 2.2a6.5 6.5 0 015.4-2.6 5.4 5.4 0 014.5 1.8 8.5 8.5 0 011.4 5.4v12.4h-5v-12.3a3.4 3.4 0 00-.7-2.4 3 3 0 00-2.3-.7 3.5 3.5 0 00-3.2 1.8v13.6h-5V118zM81 130.9l3.5-12.9h5.3l-6.4 19.2h-4.8L72.3 118h5.2l3.5 12.9zM92.2 113a2.6 2.6 0 01.7-1.9 3.2 3.2 0 014.1 0 2.8 2.8 0 010 3.8 3.2 3.2 0 01-4 0 2.5 2.5 0 01-.8-1.9m5.3 24.2h-5V118h5zM112.4 122.8a14.1 14.1 0 00-1.8-.1c-1.9 0-3.1.6-3.7 2v12.5h-5V118h4.7l.2 2.3a4.7 4.7 0 014.2-2.6 5.3 5.3 0 011.5.2zM113.7 127.4a11.6 11.6 0 011-5 8 8 0 013.1-3.6 9 9 0 014.8-1.2 8.5 8.5 0 016.2 2.4 9.7 9.7 0 012.6 6.5v1.3a10.2 10.2 0 01-2.4 7 9.3 9.3 0 01-13 0 10.3 10.3 0 01-2.4-7.2zm5 .4a7.3 7.3 0 001 4.2 3.6 3.6 0 005.7 0 8 8 0 001-4.6 7.2 7.2 0 00-1-4.2 3.5 3.5 0 00-5.8 0 8.1 8.1 0 00-1 4.6M139.4 118l.2 2.2a6.5 6.5 0 015.4-2.6 5.4 5.4 0 014.4 1.8 8.5 8.5 0 011.5 5.4v12.4h-5v-12.3a3.4 3.4 0 00-.7-2.4 3.1 3.1 0 00-2.3-.7 3.4 3.4 0 00-3.1 1.8v13.6h-5V118zM159.7 118l.1 2.1a6.5 6.5 0 015.4-2.4 5 5 0 015 2.9 6.4 6.4 0 015.7-3 5.5 5.5 0 014.6 1.9c1 1.2 1.5 3 1.5 5.4v12.3h-5v-12.3a3.7 3.7 0 00-.7-2.4 2.8 2.8 0 00-2.2-.7 3.1 3.1 0 00-3.1 2.2v13.2h-5V125a3.7 3.7 0 00-.7-2.4 2.8 2.8 0 00-2.2-.8 3.2 3.2 0 00-3 1.9v13.5h-5V118zM194.7 137.5a9.1 9.1 0 01-6.7-2.5 9.3 9.3 0 01-2.6-7v-.4a11.9 11.9 0 011.1-5.2 8.2 8.2 0 013.1-3.5 8.6 8.6 0 014.6-1.2 7.7 7.7 0 016 2.5q2.3 2.5 2.3 7v2h-12a4.8 4.8 0 001.5 3 4.4 4.4 0 003 1.2 5.4 5.4 0 004.5-2.1l2.5 2.8a7.6 7.6 0 01-3 2.5 9.8 9.8 0 01-4.3 1m-.6-15.8a3.1 3.1 0 00-2.4 1 5.4 5.4 0 00-1.2 3h7v-.5a3.9 3.9 0 00-1-2.6 3.2 3.2 0 00-2.4-1M210.1 118l.2 2.2a6.5 6.5 0 015.4-2.6 5.4 5.4 0 014.5 1.8 8.4 8.4 0 011.4 5.4v12.4h-5v-12.3a3.4 3.4 0 00-.6-2.4 3.1 3.1 0 00-2.4-.7 3.4 3.4 0 00-3.1 1.8v13.6h-5V118zM231.7 113.3v4.7h3.2v3.8h-3.2v9.6a2.3 2.3 0 00.4 1.5 2 2 0 001.5.4 8 8 0 001.5 0v3.8a10.4 10.4 0 01-3 .5q-5.3 0-5.4-5.5v-10.4H224V118h2.7v-4.7zM50.6 162.3a11.7 11.7 0 01-2 7.1 6.3 6.3 0 01-5.3 2.7 5.8 5.8 0 01-4.7-2v9h-5v-26.6h4.7l.2 1.9a5.9 5.9 0 014.8-2.2 6.3 6.3 0 015.4 2.6 12 12 0 011.9 7.2zm-5-.4a7.7 7.7 0 00-1-4.1 3 3 0 00-2.6-1.5 3.3 3.3 0 00-3.3 1.9v7.9a3.4 3.4 0 003.3 1.8q3.6 0 3.6-6M64.5 157.3a14.3 14.3 0 00-1.8-.1c-2 0-3.2.7-3.8 2v12.6h-5v-19.3h4.8l.1 2.3a4.7 4.7 0 014.2-2.6 5.3 5.3 0 011.6.2zM65.7 162a11.6 11.6 0 011.1-5.1 8 8 0 013.1-3.5 9 9 0 014.7-1.2 8.5 8.5 0 016.2 2.4 9.7 9.7 0 012.7 6.4v1.3a10.2 10.2 0 01-2.4 7.1 9.3 9.3 0 01-13 0 10.3 10.3 0 01-2.4-7.2zm5 .4a7.3 7.3 0 001 4.2 3.6 3.6 0 005.8 0 7.9 7.9 0 001-4.6 7.2 7.2 0 00-1-4.2 3.3 3.3 0 00-3-1.5 3.3 3.3 0 00-2.8 1.5 8 8 0 00-1 4.6M86.1 162a11.3 11.3 0 012.1-7.1 6.6 6.6 0 015.6-2.7 5.8 5.8 0 014.8 2.2l.2-1.9h4.5v18.6a8.3 8.3 0 01-1 4.4 7.3 7.3 0 01-3.2 2.8 11 11 0 01-4.8 1 10.2 10.2 0 01-4-.8 7.2 7.2 0 01-3-2.2l2.2-3.1a5.8 5.8 0 004.6 2.1 4.2 4.2 0 003-1 4.2 4.2 0 001.2-3.2v-1a5.7 5.7 0 01-4.6 2 6.6 6.6 0 01-5.5-2.7 11.4 11.4 0 01-2-7.1zm5 .4a7 7 0 001 4A3.2 3.2 0 0095 168a3.5 3.5 0 003.3-1.7V158a3.5 3.5 0 00-3.3-1.8 3.3 3.3 0 00-2.8 1.5 8 8 0 00-1 4.6M118 157.3a14.3 14.3 0 00-1.8-.1c-2 0-3.2.7-3.8 2v12.6h-5v-19.3h4.8l.1 2.3a4.6 4.6 0 014.2-2.6 5.3 5.3 0 011.6.2zM131 171.7a5.7 5.7 0 01-.5-1.7 6 6 0 01-4.8 2 6.6 6.6 0 01-4.5-1.5 5.3 5.3 0 01-1.9-4.2 5.5 5.5 0 012.3-4.7c1.4-1 3.6-1.6 6.4-1.6h2.3v-1.1a3.2 3.2 0 00-.7-2.1 2.6 2.6 0 00-2.1-.8 3 3 0 00-2 .6 2.1 2.1 0 00-.7 1.7h-5a5.3 5.3 0 011-3.1 6.8 6.8 0 012.8-2.2 10.4 10.4 0 014.2-.8 8 8 0 015.5 1.8 6.3 6.3 0 012 5v8.3a9.2 9.2 0 00.8 4.1v.3zm-4.2-3.5a4.2 4.2 0 002-.5 3.3 3.3 0 001.4-1.4V163h-1.8q-3.8 0-4 2.7v.3a2 2 0 00.6 1.5 2.5 2.5 0 001.8.7M144.1 152.5l.2 2.2a6.6 6.6 0 015.4-2.5 5 5 0 015 2.9 6.4 6.4 0 015.7-3 5.5 5.5 0 014.5 1.9 8.4 8.4 0 011.5 5.5v12.2h-5v-12.2a3.8 3.8 0 00-.6-2.4 2.8 2.8 0 00-2.2-.8 3.1 3.1 0 00-3.2 2.2v13.2h-5v-12.2a3.7 3.7 0 00-.6-2.4 2.8 2.8 0 00-2.2-.8 3.3 3.3 0 00-3 1.8v13.6h-5v-19.2zM175.2 152.5l.2 2.2a6.5 6.5 0 015.4-2.5 5 5 0 015 2.9 6.4 6.4 0 015.6-3 5.5 5.5 0 014.6 1.9 8.5 8.5 0 011.5 5.5v12.2h-5v-12.2a3.7 3.7 0 00-.6-2.4 2.8 2.8 0 00-2.2-.8 3.1 3.1 0 00-3.2 2.2v13.2h-5v-12.2a3.7 3.7 0 00-.6-2.4 2.8 2.8 0 00-2.2-.8 3.2 3.2 0 00-3.1 1.8v13.6h-5v-19.2zM210.2 172a9.1 9.1 0 01-6.7-2.5 9.3 9.3 0 01-2.6-7v-.4a11.9 11.9 0 011-5.2 8.2 8.2 0 013.2-3.5 8.6 8.6 0 014.6-1.2 7.7 7.7 0 016 2.5c1.5 1.6 2.3 4 2.3 7v2h-12a4.8 4.8 0 001.5 3 4.4 4.4 0 003 1.2 5.4 5.4 0 004.6-2.2l2.5 2.9a7.4 7.4 0 01-3 2.5 9.7 9.7 0 01-4.4 1m-.5-15.9a3.1 3.1 0 00-2.5 1 5.4 5.4 0 00-1.2 3h7v-.4a3.8 3.8 0 00-.9-2.6 3.2 3.2 0 00-2.4-1"/><path class="cls-3" style="width:3;height:139.49" d="M252.6 32.5h3V172h-3z"/><path class="cls-3" d="M279.7 149.2h-3.4v-14h-3.5v-2.5l6.9-.7v17.2zM296.7 78a21.4 21.4 0 00-5.9 1 15.1 15.1 0 00-4.5 2.1l1.8-14.8h25V56h-35.4L274 91.6l11.2.7a7.4 7.4 0 012.8-3.6 9.8 9.8 0 015.6-1.4 7.6 7.6 0 016.7 3.3q2.3 3.2 2.3 8.7t-2.1 8.4c-1.4 2-3.6 3-6.6 3a8.9 8.9 0 01-6.3-2.2 8 8 0 01-2.4-6.2l-12.2.6v.2a14.5 14.5 0 006 12.8 24.4 24.4 0 0015 4.6q10.8 0 16-6t5.3-15.3q0-10-4.9-15.7T296.7 78M290.2 146.8a2.6 2.6 0 002-1 4 4 0 00.8-2.6v-1a3.6 3.6 0 01-1.3 1 3.7 3.7 0 01-1.7.4 4.6 4.6 0 01-3.7-1.5 6 6 0 01-1.3-4.2 5.9 5.9 0 011.6-4.2 5.3 5.3 0 014-1.7 5.5 5.5 0 014.2 1.8 6.7 6.7 0 011.6 4.7v4.6a6.2 6.2 0 01-1.8 4.6 6 6 0 01-4.4 1.7 9.5 9.5 0 01-3.6-.7l.6-2.5a7.4 7.4 0 001.4.5 7.6 7.6 0 001.6.1m.4-5.7a3 3 0 001.4-.3 2.7 2.7 0 001-1v-2a4 4 0 00-.6-2.3 2 2 0 00-1.8-.9 1.9 1.9 0 00-1.6 1 4.1 4.1 0 00-.6 2.3 4.2 4.2 0 00.5 2.3 1.8 1.8 0 001.7.9M310.4 134.9a22.1 22.1 0 00-4 6 17 17 0 00-1 6.1v2.1h-3.3v-2a15.6 15.6 0 011.3-6.5 23.2 23.2 0 013.7-5.7h-8.6v-2.6h11.9zM324 149.2h-11.4v-2.3l5.3-5.9a13.2 13.2 0 001.6-2.3 3.9 3.9 0 00.5-1.8 2.5 2.5 0 00-.5-1.6 1.9 1.9 0 00-1.6-.7 2 2 0 00-1.7.9 3.2 3.2 0 00-.6 2h-3.3v-.1a5 5 0 011.5-3.8 5.6 5.6 0 014.2-1.6 5.7 5.7 0 014 1.3 4.6 4.6 0 011.4 3.6 5 5 0 01-.8 2.8 30.5 30.5 0 01-2.8 3.4l-2.8 3.4h7zM326.6 140.6h6.8v2.6h-6.8zM348 149.2h-11.4v-2.3l5.2-5.9a13.2 13.2 0 001.7-2.3 3.9 3.9 0 00.5-1.8 2.5 2.5 0 00-.5-1.6 2 2 0 00-1.6-.7 2 2 0 00-1.7.9 3.3 3.3 0 00-.6 2h-3.3v-.1a5 5 0 011.5-3.8 5.5 5.5 0 014.1-1.6 5.7 5.7 0 014 1.3 4.6 4.6 0 011.4 3.6 5 5 0 01-.8 2.8 30.9 30.9 0 01-2.7 3.4l-2.8 3.4h6.9zM361.4 143a6.6 6.6 0 01-1.6 4.7 6 6 0 01-8.3 0 6.6 6.6 0 01-1.6-4.6v-4.7a6.6 6.6 0 011.6-4.7 5.9 5.9 0 018.3 0 6.6 6.6 0 011.6 4.7zm-3.4-5a4.4 4.4 0 00-.6-2.5 2 2 0 00-1.7-.9 2 2 0 00-1.8 1 4.4 4.4 0 00-.6 2.5v5.3a4.5 4.5 0 00.6 2.5 2 2 0 001.8.9 2 2 0 001.7-.9 4.5 4.5 0 00.6-2.5zM375.1 149.2h-11.3v-2.3l5.2-5.9a13.2 13.2 0 001.7-2.3 3.9 3.9 0 00.5-1.8 2.5 2.5 0 00-.6-1.7 1.9 1.9 0 00-1.5-.6 2 2 0 00-1.7.8 3.2 3.2 0 00-.6 2h-3.3a5 5 0 011.5-3.8 5.6 5.6 0 014.1-1.6 5.7 5.7 0 014 1.4 4.6 4.6 0 011.5 3.5 5 5 0 01-.8 2.8 30.5 30.5 0 01-2.8 3.5l-2.8 3.3h7zM388.8 149.2h-11.4v-2.3l5.3-5.9a12.7 12.7 0 001.6-2.3 3.9 3.9 0 00.5-1.8 2.5 2.5 0 00-.5-1.6 2 2 0 00-1.6-.7 2 2 0 00-1.7.9 3.3 3.3 0 00-.6 2h-3.3v-.1a5 5 0 011.5-3.8 5.5 5.5 0 014.2-1.6 5.7 5.7 0 014 1.3 4.6 4.6 0 011.4 3.6 5 5 0 01-.8 2.8 30.5 30.5 0 01-2.8 3.4l-2.8 3.4h7z"/><path class="cls-8" d="M333.1 72.8z"/></svg>